<svg xmlns="http://www.w3.org/2000/svg" viewBox="0 0 500 500"><ellipse cx="251.89" cy="359.84" rx="225.58" ry="130.24" style="fill:#fafafa"/><ellipse cx="251.89" cy="423.64" rx="97.58" ry="56.34" style="fill:#e0e0e0"/><path d="M60 443.42a4.21 4.21 0 0 1-4.08-3.37l-.68-3.63a45 45 0 0 1-4.63-1.15l-7.06 3.27a4.7 4.7 0 0 1-2 .42 4.8 4.8 0 0 1-2.42-.62l-7.22-4.17a3.61 3.61 0 0 1-1.86-3 3.67 3.67 0 0 1 1.55-3.14l3.79-2.73c-.18-.26-.35-.52-.51-.79L26 424a4 4 0 0 1-3.76-4v-5.37a4 4 0 0 1 3.77-4l8.82-.56c.16-.26.33-.53.51-.79l-3.79-2.73a3.59 3.59 0 0 1 .31-6.1l7.22-4.17a5 5 0 0 1 4.42-.2l7.05 3.27a48 48 0 0 1 4.63-1.15l.69-3.63a4.19 4.19 0 0 1 4.13-3.39h10.57a4.19 4.19 0 0 1 4.07 3.37l.69 3.63a47 47 0 0 1 4.67 1.15l7-3.27a4.9 4.9 0 0 1 2-.42 4.85 4.85 0 0 1 2.41.62l7.23 4.17a3.59 3.59 0 0 1 .3 6.11l-3.78 2.72c.18.26.35.53.51.79l8.82.56a4 4 0 0 1 3.77 4V420a4 4 0 0 1-3.76 4l-8.83.55c-.16.27-.33.53-.51.79l3.84 2.73a3.58 3.58 0 0 1-.3 6.1l-7.23 4.17A4.75 4.75 0 0 1 89 439a4.75 4.75 0 0 1-2-.42l-7-3.31a43 43 0 0 1-4.62 1.15l-.69 3.63a4.19 4.19 0 0 1-4.07 3.37Zm5.31-33a22.1 22.1 0 0 0-10.68 2.51c-2.24 1.3-3.53 2.9-3.53 4.4s1.29 3.11 3.53 4.4a22 22 0 0 0 10.68 2.51 22 22 0 0 0 10.68-2.51c2.24-1.29 3.52-2.9 3.52-4.4s-1.28-3.1-3.52-4.4a22.15 22.15 0 0 0-10.73-2.54ZM120.85 467.86h-.45l-6.27-.66a4.1 4.1 0 0 1-2.81-1.54 4.13 4.13 0 0 1-.88-3.09l.12-1c-.53-.2-1-.4-1.55-.62h-.07l-4.76 1.49a5 5 0 0 1-1.45.21 5.25 5.25 0 0 1-3.34-1.16l-3.21-2.66a3.83 3.83 0 0 1-1.39-3.35 3.77 3.77 0 0 1 2.12-2.94L98 452l-2.93-.5a4 4 0 0 1-3.17-5.18l.87-2.77a4.61 4.61 0 0 1 4.31-3.16l5.33.21-.69-.73a3.76 3.76 0 0 1 1.37-6.16l5-2a5 5 0 0 1 1.87-.35 5.34 5.34 0 0 1 2.92.84l3.25 2.16c.94-.16 1.9-.28 2.86-.37l1-1.89a4.84 4.84 0 0 1 4.21-2.54h.45l6.27.66a4.07 4.07 0 0 1 2.81 1.54 4.12 4.12 0 0 1 .88 3.08l-.12 1c.53.2 1.05.4 1.55.62h.08l4.75-1.49a5 5 0 0 1 1.45-.22 5.3 5.3 0 0 1 3.34 1.16l3.2 2.67a3.71 3.71 0 0 1-.72 6.29l-1.08.55 2.93.5a4 4 0 0 1 3.17 5.18l-.87 2.77A4.61 4.61 0 0 1 148 457l-5.33-.21.69.73a3.75 3.75 0 0 1-1.36 6.18l-5 2a5 5 0 0 1-1.87.35 5.34 5.34 0 0 1-2.92-.84l-3.25-2.16c-.93.16-1.89.28-2.86.37l-1 1.89a4.84 4.84 0 0 1-4.25 2.55m1.66-23a15.5 15.5 0 0 0-5.68 1c-2.2.89-3.11 2-3.22 2.7s.59 1.39 1 1.74c1.68 1.4 4.71 2.27 7.9 2.27a15.3 15.3 0 0 0 5.68-1c2.2-.88 3.11-2 3.22-2.69s-.59-1.39-1-1.74c-1.68-1.41-4.71-2.28-7.9-2.28M433.22 443.42a4.21 4.21 0 0 1-4.08-3.37l-.68-3.63a44 44 0 0 1-4.63-1.15l-7.06 3.27a4.7 4.7 0 0 1-2 .42 4.8 4.8 0 0 1-2.42-.62l-7.22-4.17a3.57 3.57 0 0 1-.31-6.1l3.79-2.73c-.18-.26-.35-.52-.51-.79l-8.83-.55a4 4 0 0 1-3.76-4v-5.37a4 4 0 0 1 3.76-4l8.83-.56c.16-.26.33-.53.51-.79l-3.79-2.72a3.58 3.58 0 0 1 .31-6.11l7.22-4.17a4.9 4.9 0 0 1 2.42-.62 4.8 4.8 0 0 1 2 .42l7.06 3.27a46 46 0 0 1 4.63-1.15l.68-3.63a4.21 4.21 0 0 1 4.08-3.37h10.62a4.21 4.21 0 0 1 4.07 3.37l.69 3.63a47 47 0 0 1 4.62 1.15l7.06-3.27a4.8 4.8 0 0 1 2-.42 4.9 4.9 0 0 1 2.42.62l7.22 4.17a3.57 3.57 0 0 1 .31 6.1l-3.79 2.73c.18.26.35.53.52.79l8.82.56a4 4 0 0 1 3.76 4V420a4 4 0 0 1-3.76 4l-8.82.55c-.17.27-.34.53-.52.79l3.79 2.73a3.58 3.58 0 0 1-.3 6.1l-7.23 4.17a5 5 0 0 1-4.41.2l-7.06-3.27a44 44 0 0 1-4.62 1.15l-.69 3.63a4.19 4.19 0 0 1-4.07 3.37Zm-5.37-30.52c-2.24 1.3-3.53 2.9-3.53 4.4s1.29 3.11 3.53 4.4a24 24 0 0 0 21.35 0c2.25-1.29 3.53-2.89 3.53-4.4s-1.28-3.1-3.53-4.4a24 24 0 0 0-21.35 0M378.73 465.32l-1-1.89c-1-.09-1.92-.21-2.85-.37l-3.25 2.16a5.3 5.3 0 0 1-2.91.84 5 5 0 0 1-1.87-.35l-5-2a3.74 3.74 0 0 1-1.36-6.15l.69-.73-5.33.21a4.63 4.63 0 0 1-4.32-3.16l-.87-2.77a4 4 0 0 1 3.17-5.18l2.94-.5-1.08-.55a3.72 3.72 0 0 1-.73-6.29l3.2-2.67a5.36 5.36 0 0 1 3.35-1.16 4.9 4.9 0 0 1 1.44.22l4.76 1.49h.07c.5-.22 1-.42 1.56-.62l-.12-1a4.14 4.14 0 0 1 3.69-4.62l6.26-.66h.46a4.82 4.82 0 0 1 4.2 2.54l1 1.89c1 .09 1.92.21 2.85.37l3.25-2.16a5.3 5.3 0 0 1 2.91-.84 5 5 0 0 1 1.87.35l5 2a3.76 3.76 0 0 1 1.36 6.16l-.68.73 5.32-.21a4.63 4.63 0 0 1 4.32 3.16l.87 2.77a4 4 0 0 1-3.17 5.18l-2.94.5 1.09.55a3.71 3.71 0 0 1 .72 6.29l-3.2 2.66a5.3 5.3 0 0 1-3.35 1.16 4.9 4.9 0 0 1-1.44-.21l-4.76-1.46h-.07c-.5.22-1 .42-1.55.62l.12 1a4.14 4.14 0 0 1-3.69 4.63l-6.27.66h-.45a4.82 4.82 0 0 1-4.21-2.59m-5.35-18.19c-.43.35-1.13 1.05-1 1.74s1 1.81 3.22 2.69a15.4 15.4 0 0 0 5.69 1c3.19 0 6.21-.87 7.89-2.27.43-.35 1.13-1.06 1-1.74s-1-1.81-3.22-2.7a15.6 15.6 0 0 0-5.68-1c-3.19.01-6.22.88-7.9 2.28" style="fill:#e0e0e0"/><path d="M181.3 60.25a5.55 5.55 0 0 1 1.84 3 3.3 3.3 0 0 1-.29 2.92l-2.76 3 3.62 6.92 3.48-1.68c.66-.31 1.54.08 2.32 1a5.88 5.88 0 0 1 1.49 3.34l.51 6.19 5.12 3 .51-5.59c.1-1.06.66-1.66 1.44-1.63a3.16 3.16 0 0 1 2.32 1.72l3.49 5.7 3.61-2.79-2.76-6.24a4.54 4.54 0 0 1-.29-3.26 1.3 1.3 0 0 1 1.85-.86l4.41 1.88V70l-4.41-3.23a5.5 5.5 0 0 1-1.85-3 3.3 3.3 0 0 1 .29-2.92L208 57.8l-3.61-6.92-3.49 1.68c-.66.31-1.54-.08-2.32-1a6 6 0 0 1-1.44-3.29l-.51-6.19-5.12-3-.51 5.66c-.09 1.06-.66 1.66-1.44 1.64a3.16 3.16 0 0 1-2.32-1.72L183.72 39l-3.62 2.74 2.76 6.24a4.54 4.54 0 0 1 .29 3.26 1.29 1.29 0 0 1-1.84.86l-4.42-1.87V57Zm5.08-1.16c0-5.64 3.44-8.24 7.67-5.79s7.67 9 7.67 14.65-3.43 8.24-7.67 5.79-7.67-9-7.67-14.65M441.62 181v-6.29l-4.07 1.73a1.2 1.2 0 0 1-1.71-.79 4.22 4.22 0 0 1 .27-3l2.55-5.75-3.34-2.52-3.21 5.25a2.9 2.9 0 0 1-2.13 1.59c-.71 0-1.23-.52-1.32-1.5l-.47-5.16-4.72 2.72L423 173a5.5 5.5 0 0 1-1.33 3c-.71.8-1.53 1.16-2.13.87l-3.22-1.54-3.33 6.37 2.55 2.81a3 3 0 0 1 .26 2.69 5.1 5.1 0 0 1-1.71 2.75L410 193v6.29l4.07-1.73a1.21 1.21 0 0 1 1.71.79 4.14 4.14 0 0 1-.26 3l-2.55 5.75 3.33 2.52 3.22-5.25a2.9 2.9 0 0 1 2.13-1.59c.72 0 1.24.53 1.33 1.5l.47 5.16 4.72-2.72.47-5.7a5.54 5.54 0 0 1 1.32-3c.71-.81 1.53-1.17 2.13-.88l3.21 1.54 3.34-6.37-2.55-2.81a3.05 3.05 0 0 1-.27-2.69 5.05 5.05 0 0 1 1.71-2.75Zm-15.83 15.42c-3.9 2.25-7.07-.14-7.07-5.34s3.17-11.25 7.07-13.51 7.07.14 7.07 5.35-3.17 11.29-7.07 13.54ZM463.75 159.31v-4.53l-2.94 1.22a.86.86 0 0 1-1.23-.56 3 3 0 0 1 .19-2.17l1.84-4.14-2.41-1.82-2.31 3.79a2.1 2.1 0 0 1-1.54 1.14c-.51 0-.89-.38-.95-1.08l-.34-3.72-3.4 2-.34 4.11a4 4 0 0 1-.95 2.19c-.52.58-1.1.84-1.54.63l-2.32-1.11-2.4 4.59 1.84 2a2.25 2.25 0 0 1 .19 2 3.66 3.66 0 0 1-1.22 2l-2.99 2.15v4.53l2.94-1.24a.85.85 0 0 1 1.22.56 3.07 3.07 0 0 1-.19 2.17l-1.84 4.14 2.4 1.82 2.32-3.78a2.08 2.08 0 0 1 1.54-1.15c.51 0 .89.38.95 1.08l.34 3.72 3.4-2 .34-4.11a4 4 0 0 1 .95-2.19c.51-.58 1.1-.84 1.54-.63l2.36 1.08 2.41-4.59-1.84-2a2.16 2.16 0 0 1-.19-1.94 3.67 3.67 0 0 1 1.23-2Zm-11.41 11.11c-2.81 1.62-5.09-.1-5.09-3.85s2.28-8.11 5.09-9.73 5.09.1 5.09 3.85-2.28 8.11-5.09 9.73M55.49 148.84a4.83 4.83 0 0 1 1.62 2.63 2.87 2.87 0 0 1-.25 2.57l-2.43 2.69 3.18 6.08 3.06-1.47c.58-.28 1.36.06 2 .83a5.2 5.2 0 0 1 1.33 2.95l.45 5.45 4.5 2.6.45-4.93c.09-.93.58-1.45 1.27-1.43a2.76 2.76 0 0 1 2 1.52l3.06 5 3.27-2.4-2.44-5.49a4 4 0 0 1-.25-2.87 1.14 1.14 0 0 1 1.62-.75l3.89 1.65v-6l-3.89-2.84a4.88 4.88 0 0 1-1.62-2.63 2.94 2.94 0 0 1 .25-2.57l2.44-2.74-3.2-6.09-3.06 1.48c-.58.27-1.36-.07-2-.84a5.23 5.23 0 0 1-1.27-2.9l-.47-5.46-4.5-2.6-.5 4.92c-.08.93-.58 1.46-1.26 1.44a2.81 2.81 0 0 1-2-1.52l-3.06-5-3.18 2.4 2.37 5.48a3.94 3.94 0 0 1 .25 2.87 1.13 1.13 0 0 1-1.62.75L51.6 140v6Zm4.48-1c0-5 3-7.25 6.74-5.1s6.75 7.92 6.75 12.89-3 7.25-6.75 5.1-6.71-7.94-6.71-12.9ZM35 156.37a3.5 3.5 0 0 1 1.17 1.89 2.1 2.1 0 0 1-.18 1.85l-1.76 1.93 2.3 4.38 2.21-1.06c.41-.2 1 .05 1.47.6a3.73 3.73 0 0 1 .91 2.09l.33 3.92 3.24 1.88.32-3.55c.07-.67.42-1 .92-1a2 2 0 0 1 1.47 1.1l2.2 3.6 2.29-1.73-1.75-4a2.84 2.84 0 0 1-.18-2.07.82.82 0 0 1 1.17-.55l2.81 1.19v-4.32l-2.81-2a3.57 3.57 0 0 1-1.13-1.89 2.07 2.07 0 0 1 .18-1.85l1.75-1.94-2.29-4.38-2.21 1.06c-.42.2-1 0-1.47-.6a3.75 3.75 0 0 1-.92-2.09l-.32-3.92-3.29-1.91-.33 3.55c-.06.67-.41 1.05-.91 1a2 2 0 0 1-1.47-1.09l-2.21-3.61-2.3 1.73 1.76 4a2.87 2.87 0 0 1 .18 2.06.82.82 0 0 1-1.17.54L32.16 150v4.33Zm3.23-.73c0-3.58 2.17-5.23 4.86-3.68s4.86 5.71 4.86 9.29-2.18 5.22-4.86 3.67-4.9-5.7-4.9-9.28ZM157.29 37.64a3.54 3.54 0 0 1 1.19 1.92 2.11 2.11 0 0 1-.18 1.87l-1.77 2 2.32 4.43 2.23-1.07c.42-.2 1 0 1.49.61a3.86 3.86 0 0 1 .93 2.11l.32 4 3.28 1.89.33-3.59c.06-.68.42-1.06.92-1a2 2 0 0 1 1.49 1.1l2.23 3.66 2.32-1.76-1.77-4a2.9 2.9 0 0 1-.19-2.09.83.83 0 0 1 1.18-.54l2.84 1.2v-4.47l-2.84-2.07a3.53 3.53 0 0 1-1.18-1.92 2.11 2.11 0 0 1 .19-1.87l1.77-2-2.32-4.43-2.23 1.07c-.43.2-1-.05-1.49-.61a3.8 3.8 0 0 1-.92-2.11l-.33-4-3.28-1.89-.32 3.59c-.07.68-.43 1.06-.93 1a2 2 0 0 1-1.49-1.1L158.85 24l-2.32 1.76 1.77 4a2.9 2.9 0 0 1 .18 2.09.83.83 0 0 1-1.19.54l-2.83-1.2v4.38Zm3.27-.74c0-3.62 2.2-5.28 4.91-3.72s4.92 5.78 4.92 9.4-2.2 5.28-4.92 3.72-4.91-5.78-4.91-9.4M305 70.21c1.2-1.85 2.66-2.87 4-3l6.57-22.74a3.1 3.1 0 0 1-1-1c-1.45-2.36-.93-6.9 1.18-10.13s5-3.95 6.44-1.59.94 6.9-1.17 10.13c-1.2 1.85-2.66 2.87-4 3l-6.57 22.74a3 3 0 0 1 1.05 1.06 5.5 5.5 0 0 1 .64 1.68l14.58-9.77a12.83 12.83 0 0 1 2-6.17c2.11-3.24 5-3.95 6.45-1.59s.93 6.89-1.17 10.13-5 3.94-6.45 1.58a5.6 5.6 0 0 1-.64-1.68l-14.58 9.77a12.83 12.83 0 0 1-2 6.17c-2.11 3.24-5 4-6.45 1.59s-.99-6.94 1.12-10.18" style="fill:#f0f0f0"/><path d="M406.33 397.3v6.27a.6.6 0 0 0 .28.48l3.31 2.38a1.64 1.64 0 0 1-.84.36l-9.63.6a1 1 0 0 0-.9 1V420a1 1 0 0 0 .9.95l9.63.61a1.7 1.7 0 0 1 .82.34l-3.32 2.4a.58.58 0 0 0-.29.48v6.28a.61.61 0 0 0 .34.48l7.23 4.17a1.92 1.92 0 0 0 1.59.07l7.33-3.39a2.66 2.66 0 0 1 1.67-.1 43 43 0 0 0 5.69 1.35 1.39 1.39 0 0 1 1.06 1l.91 4.82a1.14 1.14 0 0 0 1.07.89h10.62a1.13 1.13 0 0 0 1.07-.89l.92-4.82a1.38 1.38 0 0 1 1.06-1 44 44 0 0 0 5.69-1.35 2.66 2.66 0 0 1 1.67.1l7.32 3.39a1.94 1.94 0 0 0 1.6-.07l7.23-4.17a.59.59 0 0 0 .33-.49v-6.27a.59.59 0 0 0-.28-.48l-3.31-2.38a1.64 1.64 0 0 1 .84-.36l9.63-.61a1 1 0 0 0 .9-.95v-11.63a1 1 0 0 0-.9-1l-9.63-.6a1.64 1.64 0 0 1-.82-.35l3.33-2.39a.6.6 0 0 0 .28-.48v-6.26a.62.62 0 0 0-.34-.49l-7.23-4.17a1.92 1.92 0 0 0-1.59-.07l-7.33 3.44a2.66 2.66 0 0 1-1.67.1 43 43 0 0 0-5.69-1.35 1.39 1.39 0 0 1-1.06-1l-.91-4.82a1.14 1.14 0 0 0-1.07-.89h-10.62a1.13 1.13 0 0 0-1.07.89l-.92 4.82a1.38 1.38 0 0 1-1.06 1 43 43 0 0 0-5.68 1.35 2.68 2.68 0 0 1-1.68-.1l-7.32-3.39a1.94 1.94 0 0 0-1.6.07l-7.23 4.17a.59.59 0 0 0-.33.45m44.4 20.79c-6.74 3.89-17.67 3.89-24.41 0-2.63-1.52-4.23-3.41-4.81-5.38a11.17 11.17 0 0 1 4.81-4.61c6.74-3.89 17.67-3.89 24.41 0 2.64 1.52 4.19 3.22 4.7 5a10 10 0 0 1-4.7 4.99" style="fill:#ba68c8"/><path d="M406.33 397.3v6.27a.6.6 0 0 0 .28.48l3.31 2.38a1.64 1.64 0 0 1-.84.36l-9.63.6a1 1 0 0 0-.9 1V420a1 1 0 0 0 .9.95l9.63.61a1.7 1.7 0 0 1 .82.34l-3.32 2.4a.58.58 0 0 0-.29.48v6.28a.61.61 0 0 0 .34.48l7.23 4.17a1.92 1.92 0 0 0 1.59.07l7.33-3.39a2.66 2.66 0 0 1 1.67-.1 43 43 0 0 0 5.69 1.35 1.39 1.39 0 0 1 1.06 1l.91 4.82a1.14 1.14 0 0 0 1.07.89h10.62a1.13 1.13 0 0 0 1.07-.89l.92-4.82a1.38 1.38 0 0 1 1.06-1 44 44 0 0 0 5.69-1.35 2.66 2.66 0 0 1 1.67.1l7.32 3.39a1.94 1.94 0 0 0 1.6-.07l7.23-4.17a.59.59 0 0 0 .33-.49v-6.27a.59.59 0 0 0-.28-.48l-3.31-2.38a1.64 1.64 0 0 1 .84-.36l9.63-.61a1 1 0 0 0 .9-.95v-11.63a1 1 0 0 0-.9-1l-9.63-.6a1.64 1.64 0 0 1-.82-.35l3.33-2.39a.6.6 0 0 0 .28-.48v-6.26a.62.62 0 0 0-.34-.49l-7.23-4.17a1.92 1.92 0 0 0-1.59-.07l-7.33 3.44a2.66 2.66 0 0 1-1.67.1 43 43 0 0 0-5.69-1.35 1.39 1.39 0 0 1-1.06-1l-.91-4.82a1.14 1.14 0 0 0-1.07-.89h-10.62a1.13 1.13 0 0 0-1.07.89l-.92 4.82a1.38 1.38 0 0 1-1.06 1 43 43 0 0 0-5.68 1.35 2.68 2.68 0 0 1-1.68-.1l-7.32-3.39a1.94 1.94 0 0 0-1.6.07l-7.23 4.17a.59.59 0 0 0-.33.45m44.4 20.79c-6.74 3.89-17.67 3.89-24.41 0-2.63-1.52-4.23-3.41-4.81-5.38a11.17 11.17 0 0 1 4.81-4.61c6.74-3.89 17.67-3.89 24.41 0 2.64 1.52 4.19 3.22 4.7 5a10 10 0 0 1-4.7 4.99" style="fill:#fff;opacity:.2"/><path d="M464.61 419a.77.77 0 0 0 .1 1.18l2.41 1.73a1.6 1.6 0 0 1 .85-.35l9.63-.6a1 1 0 0 0 .9-1v-7.53 1.27a1 1 0 0 1-.9 1l-9.63.61a1.79 1.79 0 0 0-1.3.87 15.2 15.2 0 0 1-2.06 2.82m6.12-21.62a.68.68 0 0 1-.29.42l-5.73 4.12a.76.76 0 0 0-.1 1.17 14.6 14.6 0 0 1 2 2.84 1.7 1.7 0 0 0 .48.53l3.33-2.4a.58.58 0 0 0 .28-.48ZM426.32 404c6.74-3.89 17.67-3.89 24.41 0 4.26 2.46 5.83 5.89 4.71 9.06-.51-1.73-2.06-3.43-4.71-5-6.74-3.89-17.66-3.89-24.4 0-2.47 1.43-4.09 3-4.82 4.6-.9-3.03.71-6.3 4.81-8.66" style="opacity:.1"/><path d="M398.59 420a1 1 0 0 0 .9.95l9.63.62a1.4 1.4 0 0 1 .47.13v-6.27a1.4 1.4 0 0 0-.48-.13l-9.63-.61a1 1 0 0 1-.89-.83Zm7.75-16.41a.6.6 0 0 0 .28.48l3.31 2.38a2 2 0 0 0 .46-.52 14.5 14.5 0 0 1 1.94-2.71.6.6 0 0 1 .11-.13.9.9 0 0 0 .19-.33v-.12a1 1 0 0 0 0-.24.77.77 0 0 0-.18-.36.8.8 0 0 0-.14-.12l-5.72-4.12-.14-.11a.4.4 0 0 1-.11-.19.4.4 0 0 1 0-.19Zm0 27.47a.61.61 0 0 0 .34.48l7.23 4.17a1.93 1.93 0 0 0 1.11.19v-6.26a1.82 1.82 0 0 1-1.12-.2l-7.23-4.16a.62.62 0 0 1-.33-.45Zm47.2 1.16a2.2 2.2 0 0 1 .72.16l7.32 3.4a2.2 2.2 0 0 0 .66.13v-6.26a1.35 1.35 0 0 1-.65-.14l-7.33-3.39a2.1 2.1 0 0 0-.72-.17Zm-21.23 7.62a1.11 1.11 0 0 0 .93.54h10.61a1.16 1.16 0 0 0 .65-.23v-6.27a1.13 1.13 0 0 1-.65.24h-10.64a1.11 1.11 0 0 1-.89-.47Z" style="fill:#ba68c8"/><path d="M398.59 420a1 1 0 0 0 .9.95l9.63.62a1.4 1.4 0 0 1 .47.13v-6.27a1.4 1.4 0 0 0-.48-.13l-9.63-.61a1 1 0 0 1-.89-.83Zm7.75-16.41a.6.6 0 0 0 .28.48l3.31 2.38a2 2 0 0 0 .46-.52 14.5 14.5 0 0 1 1.94-2.71.6.6 0 0 1 .11-.13.9.9 0 0 0 .19-.33v-.12a1 1 0 0 0 0-.24.77.77 0 0 0-.18-.36.8.8 0 0 0-.14-.12l-5.72-4.12-.14-.11a.4.4 0 0 1-.11-.19.4.4 0 0 1 0-.19Zm0 27.47a.61.61 0 0 0 .34.48l7.23 4.17a1.93 1.93 0 0 0 1.11.19v-6.26a1.82 1.82 0 0 1-1.12-.2l-7.23-4.16a.62.62 0 0 1-.33-.45Zm47.2 1.16a2.2 2.2 0 0 1 .72.16l7.32 3.4a2.2 2.2 0 0 0 .66.13v-6.26a1.35 1.35 0 0 1-.65-.14l-7.33-3.39a2.1 2.1 0 0 0-.72-.17Zm-21.23 7.62a1.11 1.11 0 0 0 .93.54h10.61a1.16 1.16 0 0 0 .65-.23v-6.27a1.13 1.13 0 0 1-.65.24h-10.64a1.11 1.11 0 0 1-.89-.47Z" style="fill:#fff;opacity:.7000000000000001"/><path d="m413.89 392.64-7.23 4.17a.54.54 0 0 0-.05 1l5.73 4.12a.78.78 0 0 1 .11 1.18 14.3 14.3 0 0 0-2.05 2.83 1.8 1.8 0 0 1-1.3.87l-9.63.6a1 1 0 0 0-.9 1v5.37a1 1 0 0 0 .9 1l9.63.61a1.75 1.75 0 0 1 1.3.87 14.3 14.3 0 0 0 2.05 2.83.77.77 0 0 1-.11 1.18l-5.72 4.12a.53.53 0 0 0 0 1l7.23 4.17a1.94 1.94 0 0 0 1.6.08l7.32-3.4a2.68 2.68 0 0 1 1.68-.1 43 43 0 0 0 5.68 1.35 1.39 1.39 0 0 1 1.06 1l.92 4.83a1.12 1.12 0 0 0 1.07.88h10.62a1.12 1.12 0 0 0 1.07-.88l.91-4.83a1.41 1.41 0 0 1 1.06-1 43 43 0 0 0 5.69-1.35 2.66 2.66 0 0 1 1.67.1l7.33 3.4a2 2 0 0 0 1.59-.08l7.23-4.17a.53.53 0 0 0 .05-1l-5.73-4.12a.77.77 0 0 1-.1-1.18 14.6 14.6 0 0 0 2-2.83 1.79 1.79 0 0 1 1.3-.87l9.63-.61a1 1 0 0 0 .9-1v-5.37a1 1 0 0 0-.9-1l-9.63-.61a1.76 1.76 0 0 1-1.3-.86 14.6 14.6 0 0 0-2-2.83.77.77 0 0 1 .1-1.18l5.73-4.12a.54.54 0 0 0-.05-1l-7.23-4.17a1.92 1.92 0 0 0-1.59-.07l-7.29 3.43a2.66 2.66 0 0 1-1.67.1 43 43 0 0 0-5.69-1.35 1.39 1.39 0 0 1-1.06-1l-.91-4.82a1.14 1.14 0 0 0-1.07-.89h-10.62a1.13 1.13 0 0 0-1.07.89l-.92 4.82a1.38 1.38 0 0 1-1.06 1 43 43 0 0 0-5.68 1.35 2.68 2.68 0 0 1-1.68-.1l-7.32-3.39a1.94 1.94 0 0 0-1.6.03M450.73 404c6.74 3.89 6.74 10.2 0 14.1s-17.67 3.89-24.41 0-6.74-10.2 0-14.09 17.68-3.91 24.41-.01" style="fill:#ba68c8"/><g style="opacity:.55"><path d="m413.89 392.64-7.23 4.17a.54.54 0 0 0-.05 1l5.73 4.12a.78.78 0 0 1 .11 1.18 14.3 14.3 0 0 0-2.05 2.83 1.8 1.8 0 0 1-1.3.87l-9.63.6a1 1 0 0 0-.9 1v5.37a1 1 0 0 0 .9 1l9.63.61a1.75 1.75 0 0 1 1.3.87 14.3 14.3 0 0 0 2.05 2.83.77.77 0 0 1-.11 1.18l-5.72 4.12a.53.53 0 0 0 0 1l7.23 4.17a1.94 1.94 0 0 0 1.6.08l7.32-3.4a2.68 2.68 0 0 1 1.68-.1 43 43 0 0 0 5.68 1.35 1.39 1.39 0 0 1 1.06 1l.92 4.83a1.12 1.12 0 0 0 1.07.88h10.62a1.12 1.12 0 0 0 1.07-.88l.91-4.83a1.41 1.41 0 0 1 1.06-1 43 43 0 0 0 5.69-1.35 2.66 2.66 0 0 1 1.67.1l7.33 3.4a2 2 0 0 0 1.59-.08l7.23-4.17a.53.53 0 0 0 .05-1l-5.73-4.12a.77.77 0 0 1-.1-1.18 14.6 14.6 0 0 0 2-2.83 1.79 1.79 0 0 1 1.3-.87l9.63-.61a1 1 0 0 0 .9-1v-5.37a1 1 0 0 0-.9-1l-9.63-.61a1.76 1.76 0 0 1-1.3-.86 14.6 14.6 0 0 0-2-2.83.77.77 0 0 1 .1-1.18l5.73-4.12a.54.54 0 0 0-.05-1l-7.23-4.17a1.92 1.92 0 0 0-1.59-.07l-7.29 3.43a2.66 2.66 0 0 1-1.67.1 43 43 0 0 0-5.69-1.35 1.39 1.39 0 0 1-1.06-1l-.91-4.82a1.14 1.14 0 0 0-1.07-.89h-10.62a1.13 1.13 0 0 0-1.07.89l-.92 4.82a1.38 1.38 0 0 1-1.06 1 43 43 0 0 0-5.68 1.35 2.68 2.68 0 0 1-1.68-.1l-7.32-3.39a1.94 1.94 0 0 0-1.6.03M450.73 404c6.74 3.89 6.74 10.2 0 14.1s-17.67 3.89-24.41 0-6.74-10.2 0-14.09 17.68-3.91 24.41-.01" style="fill:#fff"/><path d="M443.84 434.46h-10.62a1.49 1.49 0 0 1-1.42-1.17l-.92-4.83a1 1 0 0 0-.77-.75 42 42 0 0 1-5.73-1.36 2.45 2.45 0 0 0-1.42.08l-7.32 3.4a2.36 2.36 0 0 1-1.93-.09l-7.22-4.17a1 1 0 0 1-.52-.76 1 1 0 0 1 .44-.81l5.72-4.12a.42.42 0 0 0 .19-.3.5.5 0 0 0-.13-.35 14.6 14.6 0 0 1-2.1-2.91 1.42 1.42 0 0 0-1-.67l-9.63-.61a1.34 1.34 0 0 1-1.23-1.32v-5.37a1.33 1.33 0 0 1 1.23-1.31l9.63-.61a1.41 1.41 0 0 0 1-.68 15.2 15.2 0 0 1 2.09-2.9.5.5 0 0 0 .14-.36.45.45 0 0 0-.19-.29l-5.72-4.12a1 1 0 0 1-.44-.81.94.94 0 0 1 .52-.76l7.22-4.18a2.32 2.32 0 0 1 1.93-.08l7.32 3.39a2.37 2.37 0 0 0 1.42.09 44 44 0 0 1 5.73-1.37 1 1 0 0 0 .77-.74l.92-4.83a1.47 1.47 0 0 1 1.42-1.17h10.62a1.48 1.48 0 0 1 1.42 1.17l.91 4.83a1.05 1.05 0 0 0 .77.74 44.5 44.5 0 0 1 5.73 1.36 2.3 2.3 0 0 0 1.42-.08l7.33-3.39a2.3 2.3 0 0 1 1.92.08l7.23 4.18a.93.93 0 0 1 .51.76.94.94 0 0 1-.43.81l-5.73 4.12a.4.4 0 0 0-.18.29.44.44 0 0 0 .13.36 14.7 14.7 0 0 1 2.09 2.9 1.41 1.41 0 0 0 1 .68l9.63.61a1.33 1.33 0 0 1 1.23 1.31v5.37a1.34 1.34 0 0 1-1.22 1.28l-9.63.61a1.42 1.42 0 0 0-1 .67 14.5 14.5 0 0 1-2.09 2.91.42.42 0 0 0-.13.35.4.4 0 0 0 .18.3l5.73 4.12a.89.89 0 0 1-.08 1.57l-7.23 4.17a2.34 2.34 0 0 1-1.92.09l-7.33-3.4a2.36 2.36 0 0 0-1.42-.08 42 42 0 0 1-5.73 1.36 1.06 1.06 0 0 0-.77.75l-.91 4.82a1.49 1.49 0 0 1-1.43 1.22m-20-8.89a2.6 2.6 0 0 1 .77.1 44 44 0 0 0 5.64 1.35 1.73 1.73 0 0 1 1.35 1.31l.92 4.82a.77.77 0 0 0 .72.6h10.62a.77.77 0 0 0 .72-.6l.92-4.82a1.72 1.72 0 0 1 1.34-1.31 44 44 0 0 0 5.64-1.35 3.1 3.1 0 0 1 1.93.12l7.33 3.39a1.6 1.6 0 0 0 1.27-.05l7.22-4.17c.1-.06.16-.13.16-.19s-.05-.13-.14-.2l-5.72-4.12a1.08 1.08 0 0 1-.48-.79 1.2 1.2 0 0 1 .31-.91 14 14 0 0 0 2-2.76 2.13 2.13 0 0 1 1.59-1.05l9.63-.61a.61.61 0 0 0 .56-.61v-5.37a.62.62 0 0 0-.56-.6l-9.63-.61a2.13 2.13 0 0 1-1.59-1.05 14.4 14.4 0 0 0-2-2.77 1.17 1.17 0 0 1-.31-.9 1.1 1.1 0 0 1 .48-.8l5.72-4.12c.09-.06.15-.14.14-.2s-.06-.12-.16-.18L463 393a1.63 1.63 0 0 0-1.28-.06l-7.32 3.4a3 3 0 0 1-1.93.11 43.5 43.5 0 0 0-5.64-1.34 1.73 1.73 0 0 1-1.34-1.31l-.92-4.83a.77.77 0 0 0-.72-.59h-10.63a.78.78 0 0 0-.73.59l-.91 4.83a1.74 1.74 0 0 1-1.35 1.31 44 44 0 0 0-5.64 1.34 3 3 0 0 1-1.93-.12l-7.32-3.39a1.6 1.6 0 0 0-1.27.06l-7.23 4.17c-.1.06-.16.13-.16.18a.28.28 0 0 0 .14.2l5.73 4.12a1.12 1.12 0 0 1 .47.8 1.16 1.16 0 0 1-.31.91 14 14 0 0 0-2 2.76 2.11 2.11 0 0 1-1.59 1.05l-9.62.61a.62.62 0 0 0-.57.6v5.37a.61.61 0 0 0 .57.61l9.62.61a2.11 2.11 0 0 1 1.59 1.05 14 14 0 0 0 2 2.76 1.12 1.12 0 0 1 .31.91 1.1 1.1 0 0 1-.47.79l-5.73 4.12c-.09.07-.14.14-.14.2s.06.13.16.19l7.23 4.17a1.56 1.56 0 0 0 1.27.05l7.32-3.39a3 3 0 0 1 1.16-.27Zm14.71-4.22a25.3 25.3 0 0 1-12.38-3c-3.38-1.95-5.24-4.56-5.24-7.35s1.86-5.41 5.24-7.36c6.82-3.94 17.93-3.94 24.76 0 3.37 1.95 5.23 4.56 5.23 7.36s-1.86 5.4-5.23 7.35a25.33 25.33 0 0 1-12.4 3Zm0-19.92a24.54 24.54 0 0 0-12 2.87c-3.15 1.81-4.88 4.21-4.88 6.74s1.73 4.92 4.88 6.74c6.63 3.83 17.42 3.83 24.05 0 3.15-1.82 4.88-4.21 4.88-6.74s-1.73-4.92-4.88-6.74a24.5 24.5 0 0 0-12.07-2.87Z" style="fill:#fff"/></g><path d="M369 434a3.44 3.44 0 0 1-2.08.13l-4.92-1.48a2.23 2.23 0 0 0-1.92.38l-3.21 2.66a.79.79 0 0 0-.31.6v5.15a.72.72 0 0 0 .46.63l1.73.87-4.44.76a.93.93 0 0 0-.8 1v5.15a1.2 1.2 0 0 0 0 .32l.87 2.77a1.55 1.55 0 0 0 1.45 1l5.73-.24a2.75 2.75 0 0 1 1.38.43l-.3.31a.84.84 0 0 0-.24.56v5.17a.73.73 0 0 0 .52.67l5 2a2.39 2.39 0 0 0 2-.2l3.37-2.24a3.24 3.24 0 0 1 2-.41 32 32 0 0 0 3.25.4 2.2 2.2 0 0 1 1.62 1.06l1.25 2.43a1.75 1.75 0 0 0 1.62.88l6.26-.65a1.1 1.1 0 0 0 1-1.07v-3.54a1.3 1.3 0 0 1 .64-.45 23 23 0 0 0 2.61-1 3.44 3.44 0 0 1 2.08-.13l4.88 1.53a2.32 2.32 0 0 0 1.92-.38l3.2-2.67a.77.77 0 0 0 .31-.57v-5.18a.71.71 0 0 0-.45-.63l-1.73-.87 4.44-.76a1 1 0 0 0 .81-.9v-5.17a.8.8 0 0 0 0-.34l-.87-2.77a1.52 1.52 0 0 0-1.44-1l-5.73.23a2.6 2.6 0 0 1-1.38-.43l.29-.31a.82.82 0 0 0 .24-.56V432a.74.74 0 0 0-.52-.64l-5-2a2.41 2.41 0 0 0-2 .21l-3.38 2.24a3.15 3.15 0 0 1-2 .4c-1.07-.18-2.16-.32-3.25-.4a2.2 2.2 0 0 1-1.62-1.06l-1.25-2.43a1.75 1.75 0 0 0-1.62-.88l-6.26.66a1.09 1.09 0 0 0-1 1.22l.29 2.38a1.38 1.38 0 0 1-.94 1.42 26 26 0 0 0-2.56.88m22.15 13.38c-3.77 3.14-11.24 3.92-16.67 1.74a9.2 9.2 0 0 1-4.29-3.11 7.5 7.5 0 0 1 1.27-1.35c3.78-3.14 11.24-3.92 16.67-1.74a9.3 9.3 0 0 1 4.28 3.1 7 7 0 0 1-1.3 1.4Z" style="fill:#ba68c8"/><path d="M369 434a3.44 3.44 0 0 1-2.08.13l-4.92-1.48a2.23 2.23 0 0 0-1.92.38l-3.21 2.66a.79.79 0 0 0-.31.6v5.15a.72.72 0 0 0 .46.63l1.73.87-4.44.76a.93.93 0 0 0-.8 1v5.15a1.2 1.2 0 0 0 0 .32l.87 2.77a1.55 1.55 0 0 0 1.45 1l5.73-.24a2.75 2.75 0 0 1 1.38.43l-.3.31a.84.84 0 0 0-.24.56v5.17a.73.73 0 0 0 .52.67l5 2a2.39 2.39 0 0 0 2-.2l3.37-2.24a3.24 3.24 0 0 1 2-.41 32 32 0 0 0 3.25.4 2.2 2.2 0 0 1 1.62 1.06l1.25 2.43a1.75 1.75 0 0 0 1.62.88l6.26-.65a1.1 1.1 0 0 0 1-1.07v-3.54a1.3 1.3 0 0 1 .64-.45 23 23 0 0 0 2.61-1 3.44 3.44 0 0 1 2.08-.13l4.88 1.53a2.32 2.32 0 0 0 1.92-.38l3.2-2.67a.77.77 0 0 0 .31-.57v-5.18a.71.71 0 0 0-.45-.63l-1.73-.87 4.44-.76a1 1 0 0 0 .81-.9v-5.17a.8.8 0 0 0 0-.34l-.87-2.77a1.52 1.52 0 0 0-1.44-1l-5.73.23a2.6 2.6 0 0 1-1.38-.43l.29-.31a.82.82 0 0 0 .24-.56V432a.74.74 0 0 0-.52-.64l-5-2a2.41 2.41 0 0 0-2 .21l-3.38 2.24a3.15 3.15 0 0 1-2 .4c-1.07-.18-2.16-.32-3.25-.4a2.2 2.2 0 0 1-1.62-1.06l-1.25-2.43a1.75 1.75 0 0 0-1.62-.88l-6.26.66a1.09 1.09 0 0 0-1 1.22l.29 2.38a1.38 1.38 0 0 1-.94 1.42 26 26 0 0 0-2.56.88m22.15 13.38c-3.77 3.14-11.24 3.92-16.67 1.74a9.2 9.2 0 0 1-4.29-3.11 7.5 7.5 0 0 1 1.27-1.35c3.78-3.14 11.24-3.92 16.67-1.74a9.3 9.3 0 0 1 4.28 3.1 7 7 0 0 1-1.3 1.4Z" style="fill:#fff;opacity:.2"/><path d="M401 446.56a1.08 1.08 0 0 0 .45 1.48l2.3 1.15 4.44-.76a.94.94 0 0 0 .81-.9v-5.11a.94.94 0 0 1-.8.85l-5.46.93a1.9 1.9 0 0 0-1.33 1.28 8 8 0 0 1-.41 1.08m-.91-14.56a.75.75 0 0 1-.24.55l-2.28 2.45a1 1 0 0 0 .14 1.47 13 13 0 0 1 1.37 1.22 2.3 2.3 0 0 0 .48.37l.29-.32a.82.82 0 0 0 .24-.56ZM388.09 437.8c4.69 1.88 6.34 5.34 4.28 8.26a9.37 9.37 0 0 0-4.28-3.1c-5.43-2.17-12.89-1.4-16.67 1.74a6.8 6.8 0 0 0-1.26 1.35c-1.46-2.08-1.12-4.53 1.26-6.51 3.77-3.14 11.23-3.92 16.67-1.74" style="opacity:.1"/><path d="M379.66 460.82a1.76 1.76 0 0 1 .54.59l1.25 2.44a1.76 1.76 0 0 0 .92.77v-5.16a1.74 1.74 0 0 1-.92-.78l-1.25-2.43a1.8 1.8 0 0 0-.52-.6Zm-17.22-.7a.71.71 0 0 0 .51.67l5 2a2.34 2.34 0 0 0 1.32.05v-5.16a2.23 2.23 0 0 1-1.31-.05l-5-2a.71.71 0 0 1-.52-.67ZM395.7 458l4.82 1.51a2.2 2.2 0 0 0 1.22 0v-5.15a2.1 2.1 0 0 1-1.21 0l-4.81-1.51Zm-42.19-8.18a.6.6 0 0 0 .05.32l.86 2.77a1.55 1.55 0 0 0 1.45 1l5.72-.23a2.3 2.3 0 0 1 .9.18v-5.16a2.6 2.6 0 0 0-.9-.19l-5.73.23a1.53 1.53 0 0 1-1.45-1l-.86-2.78a1 1 0 0 1-.05-.3Zm3.06-8.36a.74.74 0 0 0 .46.64l1.73.86 1-.16a1.9 1.9 0 0 0 1.33-1.29 7 7 0 0 1 .41-1.08 1.4 1.4 0 0 0 .09-.27v-.21a1.3 1.3 0 0 0-.06-.4 1.1 1.1 0 0 0-.28-.42.8.8 0 0 0-.24-.18l-4-2a1 1 0 0 1-.25-.17.7.7 0 0 1-.22-.45Z" style="fill:#ba68c8"/><path d="M379.66 460.82a1.76 1.76 0 0 1 .54.59l1.25 2.44a1.76 1.76 0 0 0 .92.77v-5.16a1.74 1.74 0 0 1-.92-.78l-1.25-2.43a1.8 1.8 0 0 0-.52-.6Zm-17.22-.7a.71.71 0 0 0 .51.67l5 2a2.34 2.34 0 0 0 1.32.05v-5.16a2.23 2.23 0 0 1-1.31-.05l-5-2a.71.71 0 0 1-.52-.67ZM395.7 458l4.82 1.51a2.2 2.2 0 0 0 1.22 0v-5.15a2.1 2.1 0 0 1-1.21 0l-4.81-1.51Zm-42.19-8.18a.6.6 0 0 0 .05.32l.86 2.77a1.55 1.55 0 0 0 1.45 1l5.72-.23a2.3 2.3 0 0 1 .9.18v-5.16a2.6 2.6 0 0 0-.9-.19l-5.73.23a1.53 1.53 0 0 1-1.45-1l-.86-2.78a1 1 0 0 1-.05-.3Zm3.06-8.36a.74.74 0 0 0 .46.64l1.73.86 1-.16a1.9 1.9 0 0 0 1.33-1.29 7 7 0 0 1 .41-1.08 1.4 1.4 0 0 0 .09-.27v-.21a1.3 1.3 0 0 0-.06-.4 1.1 1.1 0 0 0-.28-.42.8.8 0 0 0-.24-.18l-4-2a1 1 0 0 1-.25-.17.7.7 0 0 1-.22-.45Z" style="fill:#fff;opacity:.7000000000000001"/><path d="m360.09 433-3.21 2.66a.67.67 0 0 0 .14 1.21l4 2a1.1 1.1 0 0 1 .46 1.48 7 7 0 0 0-.41 1.08 1.88 1.88 0 0 1-1.33 1.28l-5.45.93a1 1 0 0 0-.77 1.25l.87 2.78a1.53 1.53 0 0 0 1.45 1l5.72-.23a2.83 2.83 0 0 1 1.86.79 15 15 0 0 0 1.37 1.23A1 1 0 0 1 365 452l-2.28 2.42a.71.71 0 0 0 .28 1.23l5 2a2.33 2.33 0 0 0 2-.21l3.38-2.23a3.1 3.1 0 0 1 2-.41 32 32 0 0 0 3.25.4 2.2 2.2 0 0 1 1.62 1.06l1.25 2.43a1.75 1.75 0 0 0 1.62.88l6.26-.66a1.09 1.09 0 0 0 1-1.22l-.38-2.39a1.36 1.36 0 0 1 .94-1.41 26 26 0 0 0 2.61-1 3.44 3.44 0 0 1 2.08-.13l4.87 1.53a2.3 2.3 0 0 0 1.92-.38l3.21-2.67a.67.67 0 0 0-.14-1.21l-4-2a1.1 1.1 0 0 1-.46-1.48 7 7 0 0 0 .41-1.08 1.9 1.9 0 0 1 1.33-1.28l5.45-.93A1 1 0 0 0 409 442l-.87-2.77a1.52 1.52 0 0 0-1.44-1l-5.73.23a2.83 2.83 0 0 1-1.86-.79 14 14 0 0 0-1.37-1.22 1 1 0 0 1-.14-1.47l2.28-2.42a.71.71 0 0 0-.28-1.23l-5-2a2.41 2.41 0 0 0-2 .21l-3.38 2.24a3.15 3.15 0 0 1-2 .4c-1.07-.18-2.16-.32-3.25-.4a2.2 2.2 0 0 1-1.62-1.06l-1.25-2.43a1.75 1.75 0 0 0-1.62-.88l-6.26.66a1.09 1.09 0 0 0-1 1.22l.29 2.38a1.38 1.38 0 0 1-.94 1.42 26 26 0 0 0-2.61 1 3.44 3.44 0 0 1-2.08.13l-4.87-1.57a2.23 2.23 0 0 0-1.91.35m28 4.77c5.44 2.18 6.79 6.48 3 9.62s-11.24 3.92-16.67 1.74-6.79-6.48-3-9.62 11.24-3.89 16.67-1.71Z" style="fill:#ba68c8"/><g style="opacity:.55"><path d="m360.09 433-3.21 2.66a.67.67 0 0 0 .14 1.21l4 2a1.1 1.1 0 0 1 .46 1.48 7 7 0 0 0-.41 1.08 1.88 1.88 0 0 1-1.33 1.28l-5.45.93a1 1 0 0 0-.77 1.25l.87 2.78a1.53 1.53 0 0 0 1.45 1l5.72-.23a2.83 2.83 0 0 1 1.86.79 15 15 0 0 0 1.37 1.23A1 1 0 0 1 365 452l-2.28 2.42a.71.71 0 0 0 .28 1.23l5 2a2.33 2.33 0 0 0 2-.21l3.38-2.23a3.1 3.1 0 0 1 2-.41 32 32 0 0 0 3.25.4 2.2 2.2 0 0 1 1.62 1.06l1.25 2.43a1.75 1.75 0 0 0 1.62.88l6.26-.66a1.09 1.09 0 0 0 1-1.22l-.38-2.39a1.36 1.36 0 0 1 .94-1.41 26 26 0 0 0 2.61-1 3.44 3.44 0 0 1 2.08-.13l4.87 1.53a2.3 2.3 0 0 0 1.92-.38l3.21-2.67a.67.67 0 0 0-.14-1.21l-4-2a1.1 1.1 0 0 1-.46-1.48 7 7 0 0 0 .41-1.08 1.9 1.9 0 0 1 1.33-1.28l5.45-.93A1 1 0 0 0 409 442l-.87-2.77a1.52 1.52 0 0 0-1.44-1l-5.73.23a2.83 2.83 0 0 1-1.86-.79 14 14 0 0 0-1.37-1.22 1 1 0 0 1-.14-1.47l2.28-2.42a.71.71 0 0 0-.28-1.23l-5-2a2.41 2.41 0 0 0-2 .21l-3.38 2.24a3.15 3.15 0 0 1-2 .4c-1.07-.18-2.16-.32-3.25-.4a2.2 2.2 0 0 1-1.62-1.06l-1.25-2.43a1.75 1.75 0 0 0-1.62-.88l-6.26.66a1.09 1.09 0 0 0-1 1.22l.29 2.38a1.38 1.38 0 0 1-.94 1.42 26 26 0 0 0-2.61 1 3.44 3.44 0 0 1-2.08.13l-4.87-1.57a2.23 2.23 0 0 0-1.91.35m28 4.77c5.44 2.18 6.79 6.48 3 9.62s-11.24 3.92-16.67 1.74-6.79-6.48-3-9.62 11.24-3.89 16.67-1.71Z" style="fill:#fff"/><path d="M382.94 460a2.19 2.19 0 0 1-1.88-1.12l-1.25-2.43a1.8 1.8 0 0 0-1.27-.82 32 32 0 0 1-3.28-.41 2.77 2.77 0 0 0-1.71.34l-3.37 2.24a2.82 2.82 0 0 1-2.37.24l-5-2a1.23 1.23 0 0 1-.77-.85 1.2 1.2 0 0 1 .35-1.09l2.27-2.42a.5.5 0 0 0 .15-.4.56.56 0 0 0-.24-.42 14.5 14.5 0 0 1-1.42-1.26 2.28 2.28 0 0 0-1.52-.66l-5.73.23a2 2 0 0 1-1.88-1.32l-.87-2.77a1.4 1.4 0 0 1 .13-1.17 1.38 1.38 0 0 1 1-.65l5.45-.93a1.46 1.46 0 0 0 1-1 7.7 7.7 0 0 1 .43-1.15.66.66 0 0 0-.26-.9l-4-2a1.17 1.17 0 0 1-.7-.9 1.21 1.21 0 0 1 .47-1l3.21-2.66a2.69 2.69 0 0 1 2.33-.46l4.88 1.53a3 3 0 0 0 1.76-.12 24 24 0 0 1 2.66-1 1 1 0 0 0 .64-1l-.29-2.38a1.5 1.5 0 0 1 .32-1.14 1.54 1.54 0 0 1 1-.57l6.27-.65a2.16 2.16 0 0 1 2.05 1.11l1.25 2.43a1.77 1.77 0 0 0 1.27.82c1.11.09 2.22.22 3.28.41a2.77 2.77 0 0 0 1.71-.34l3.37-2.24a2.86 2.86 0 0 1 2.37-.24l5 2a1.19 1.19 0 0 1 .77.84 1.22 1.22 0 0 1-.34 1.09l-2.28 2.42a.5.5 0 0 0-.15.4.56.56 0 0 0 .24.42 16 16 0 0 1 1.42 1.26 2.26 2.26 0 0 0 1.52.66l5.73-.23a2 2 0 0 1 1.88 1.33l.87 2.77a1.38 1.38 0 0 1-1.11 1.81l-5.45.93a1.42 1.42 0 0 0-1 1 10 10 0 0 1-.44 1.15.66.66 0 0 0 .26.9l4 2a1.11 1.11 0 0 1 .23 1.94l-3.21 2.66a2.69 2.69 0 0 1-2.33.46l-4.87-1.52a3 3 0 0 0-1.77.11 23 23 0 0 1-2.66 1 .94.94 0 0 0-.63.95l.28 2.38a1.53 1.53 0 0 1-1.36 1.71l-6.27.65Zm-8-5.68a2.5 2.5 0 0 1 .48 0c1 .18 2.11.31 3.2.4a2.58 2.58 0 0 1 2 1.29l1.25 2.43a1.3 1.3 0 0 0 1.18.64l6.27-.65a.72.72 0 0 0 .45-.24.68.68 0 0 0 .13-.5l-.29-2.38a1.81 1.81 0 0 1 1.25-1.88 26 26 0 0 0 2.57-1 3.82 3.82 0 0 1 2.38-.15l4.87 1.53a1.84 1.84 0 0 0 1.51-.3l3.21-2.66a.36.36 0 0 0 .15-.27c0-.07-.09-.16-.21-.22l-4-2a1.51 1.51 0 0 1-.66-2.05 8 8 0 0 0 .38-1 2.31 2.31 0 0 1 1.68-1.58l5.45-.93a.56.56 0 0 0 .38-.24.54.54 0 0 0 0-.45l-.87-2.77a1.08 1.08 0 0 0-1-.71l-5.73.23a3.3 3.3 0 0 1-2.18-.92 14 14 0 0 0-1.33-1.19 1.48 1.48 0 0 1-.58-1 1.4 1.4 0 0 1 .39-1.07l2.28-2.42a.36.36 0 0 0 .12-.3.33.33 0 0 0-.24-.22l-5-2a2 2 0 0 0-1.56.16l-3.37 2.24a3.6 3.6 0 0 1-2.35.47c-1-.18-2.12-.31-3.2-.39a2.62 2.62 0 0 1-2-1.3l-1.25-2.43a1.3 1.3 0 0 0-1.18-.64l-6.27.65a.68.68 0 0 0-.45.25.66.66 0 0 0-.13.49l.29 2.38a1.81 1.81 0 0 1-1.25 1.88 27 27 0 0 0-2.57.95 3.82 3.82 0 0 1-2.38.15l-4.87-1.53a1.84 1.84 0 0 0-1.51.3l-3.2 2.67c-.11.09-.17.19-.16.26s.08.16.21.22l4 2a1.52 1.52 0 0 1 .66 2.05 9 9 0 0 0-.38 1 2.29 2.29 0 0 1-1.68 1.58l-5.45.93a.54.54 0 0 0-.38.25.51.51 0 0 0 0 .44l.87 2.77a1.12 1.12 0 0 0 1 .72l5.73-.24a3.27 3.27 0 0 1 2.18.93 14 14 0 0 0 1.33 1.18 1.48 1.48 0 0 1 .58 1 1.4 1.4 0 0 1-.39 1.07l-2.3 2.5a.36.36 0 0 0-.12.3c0 .09.1.17.24.22l5 2a2 2 0 0 0 1.56-.16l3.37-2.24a3.6 3.6 0 0 1 1.88-.5Zm6.3-3.49a18.9 18.9 0 0 1-7-1.26c-3.07-1.23-5-3.2-5.38-5.4a5.4 5.4 0 0 1 2.24-5c3.88-3.22 11.55-4 17.11-1.81 3.07 1.23 5 3.2 5.38 5.4a5.4 5.4 0 0 1-2.24 5c-2.35 1.99-6.21 3.07-10.12 3.07Zm0-13.83c-3.69 0-7.32 1-9.57 2.88a4.51 4.51 0 0 0-1.93 4.16c.3 1.89 2.06 3.61 4.83 4.72 5.29 2.12 12.57 1.37 16.23-1.67a4.53 4.53 0 0 0 1.93-4.17c-.3-1.88-2.06-3.6-4.83-4.71a18 18 0 0 0-6.63-1.21Z" style="fill:#fff"/></g><path d="m97.12 396.81-7.22-4.17a1.94 1.94 0 0 0-1.6-.07L81 396a2.66 2.66 0 0 1-1.67.1 43 43 0 0 0-5.69-1.35 1.37 1.37 0 0 1-1-1l-.92-4.82a1.13 1.13 0 0 0-1.07-.89H60a1.13 1.13 0 0 0-1.07.89l-.93 4.75a1.38 1.38 0 0 1-1.06 1 43 43 0 0 0-5.68 1.35 2.68 2.68 0 0 1-1.68-.1l-7.32-3.39a1.94 1.94 0 0 0-1.6.07l-7.22 4.17a.58.58 0 0 0-.34.49v6.26a.59.59 0 0 0 .29.48l3.32 2.39a1.6 1.6 0 0 1-.82.35l-9.62.6a1 1 0 0 0-.9 1V420a1 1 0 0 0 .9.95l9.63.61a1.57 1.57 0 0 1 .83.36l-3.3 2.38a.58.58 0 0 0-.29.48L33 431a.6.6 0 0 0 .34.49l7.22 4.17a1.94 1.94 0 0 0 1.6.07l7.32-3.39a2.7 2.7 0 0 1 1.68-.1 43 43 0 0 0 5.69 1.35 1.37 1.37 0 0 1 1 1l.92 4.82a1.13 1.13 0 0 0 1.07.89h10.71a1.13 1.13 0 0 0 1.07-.89l.92-4.82a1.36 1.36 0 0 1 1.06-1 43 43 0 0 0 5.68-1.35 2.68 2.68 0 0 1 1.68.1l7.32 3.39a1.94 1.94 0 0 0 1.6-.07l7.22-4.17a.61.61 0 0 0 .34-.48v-6.28a.6.6 0 0 0-.29-.48l-3.32-2.4a1.7 1.7 0 0 1 .82-.34l9.62-.61a1 1 0 0 0 .9-.95v-11.64a1 1 0 0 0-.9-1l-9.63-.6a1.57 1.57 0 0 1-.83-.36l3.3-2.38a.59.59 0 0 0 .29-.48v-6.27a.62.62 0 0 0-.28-.41M48.35 413c.52-1.73 2.06-3.43 4.7-5 6.74-3.89 17.67-3.89 24.41 0 2.47 1.43 4.09 3 4.81 4.61-.57 2-2.17 3.86-4.81 5.38-6.74 3.9-17.67 3.9-24.41 0a10 10 0 0 1-4.7-4.99" style="fill:#ba68c8"/><path d="m97.12 396.81-7.22-4.17a1.94 1.94 0 0 0-1.6-.07L81 396a2.66 2.66 0 0 1-1.67.1 43 43 0 0 0-5.69-1.35 1.37 1.37 0 0 1-1-1l-.92-4.82a1.13 1.13 0 0 0-1.07-.89H60a1.13 1.13 0 0 0-1.07.89l-.93 4.75a1.38 1.38 0 0 1-1.06 1 43 43 0 0 0-5.68 1.35 2.68 2.68 0 0 1-1.68-.1l-7.32-3.39a1.94 1.94 0 0 0-1.6.07l-7.22 4.17a.58.58 0 0 0-.34.49v6.26a.59.59 0 0 0 .29.48l3.32 2.39a1.6 1.6 0 0 1-.82.35l-9.62.6a1 1 0 0 0-.9 1V420a1 1 0 0 0 .9.95l9.63.61a1.57 1.57 0 0 1 .83.36l-3.3 2.38a.58.58 0 0 0-.29.48L33 431a.6.6 0 0 0 .34.49l7.22 4.17a1.94 1.94 0 0 0 1.6.07l7.32-3.39a2.7 2.7 0 0 1 1.68-.1 43 43 0 0 0 5.69 1.35 1.37 1.37 0 0 1 1 1l.92 4.82a1.13 1.13 0 0 0 1.07.89h10.71a1.13 1.13 0 0 0 1.07-.89l.92-4.82a1.36 1.36 0 0 1 1.06-1 43 43 0 0 0 5.68-1.35 2.68 2.68 0 0 1 1.68.1l7.32 3.39a1.94 1.94 0 0 0 1.6-.07l7.22-4.17a.61.61 0 0 0 .34-.48v-6.28a.6.6 0 0 0-.29-.48l-3.32-2.4a1.7 1.7 0 0 1 .82-.34l9.62-.61a1 1 0 0 0 .9-.95v-11.64a1 1 0 0 0-.9-1l-9.63-.6a1.57 1.57 0 0 1-.83-.36l3.3-2.38a.59.59 0 0 0 .29-.48v-6.27a.62.62 0 0 0-.28-.41M48.35 413c.52-1.73 2.06-3.43 4.7-5 6.74-3.89 17.67-3.89 24.41 0 2.47 1.43 4.09 3 4.81 4.61-.57 2-2.17 3.86-4.81 5.38-6.74 3.9-17.67 3.9-24.41 0a10 10 0 0 1-4.7-4.99" style="fill:#fff;opacity:.2"/><path d="M37.13 416.16a1.77 1.77 0 0 0-1.3-.87l-9.63-.61a1 1 0 0 1-.89-1V420a1 1 0 0 0 .9 1l9.63.6a1.6 1.6 0 0 1 .84.35l2.41-1.73a.76.76 0 0 0 .11-1.18 15 15 0 0 1-2.07-2.88M33 403.57a.59.59 0 0 0 .29.48l3.32 2.4a1.6 1.6 0 0 0 .48-.53 14.6 14.6 0 0 1 2-2.84.76.76 0 0 0-.11-1.17l-5.73-4.12a.72.72 0 0 1-.29-.42ZM77.46 404c-6.74-3.89-17.67-3.89-24.41 0-4.26 2.46-5.83 5.89-4.7 9.06.51-1.73 2.06-3.43 4.7-5 6.74-3.89 17.67-3.89 24.41 0 2.47 1.43 4.09 3 4.82 4.6.89-3.03-.72-6.3-4.82-8.66" style="opacity:.1"/><path d="M105.2 413.85a1 1 0 0 1-.89.83l-9.62.61a1.5 1.5 0 0 0-.49.13v6.27a1.5 1.5 0 0 1 .47-.13l9.63-.62a1 1 0 0 0 .9-.95Zm-7.74-16.55a.32.32 0 0 1 0 .19.44.44 0 0 1-.12.19l-.13.11-5.73 4.12a.5.5 0 0 0-.13.12.7.7 0 0 0-.18.36.7.7 0 0 0 0 .24.5.5 0 0 0 0 .12.8.8 0 0 0 .19.33 1 1 0 0 1 .1.13 14.5 14.5 0 0 1 2 2.71 2 2 0 0 0 .45.52l3.31-2.38a.65.65 0 0 0 .29-.48Zm0 27.52a.64.64 0 0 1-.34.45l-7.23 4.16a1.8 1.8 0 0 1-1.12.2v6.26a2 2 0 0 0 1.12-.19l7.22-4.17a.59.59 0 0 0 .34-.48Zm-47.2 1.12a2.2 2.2 0 0 0-.72.17l-7.32 3.39a1.4 1.4 0 0 1-.65.14v6.26a2.2 2.2 0 0 0 .66-.13l7.32-3.4a2.2 2.2 0 0 1 .71-.16Zm21.2 7.69a1.1 1.1 0 0 1-.89.47H60a1.08 1.08 0 0 1-.65-.24v6.27a1.16 1.16 0 0 0 .64.23h10.56a1.12 1.12 0 0 0 .93-.54Z" style="fill:#ba68c8"/><path d="M105.2 413.85a1 1 0 0 1-.89.83l-9.62.61a1.5 1.5 0 0 0-.49.13v6.27a1.5 1.5 0 0 1 .47-.13l9.63-.62a1 1 0 0 0 .9-.95Zm-7.74-16.55a.32.32 0 0 1 0 .19.44.44 0 0 1-.12.19l-.13.11-5.73 4.12a.5.5 0 0 0-.13.12.7.7 0 0 0-.18.36.7.7 0 0 0 0 .24.5.5 0 0 0 0 .12.8.8 0 0 0 .19.33 1 1 0 0 1 .1.13 14.5 14.5 0 0 1 2 2.71 2 2 0 0 0 .45.52l3.31-2.38a.65.65 0 0 0 .29-.48Zm0 27.52a.64.64 0 0 1-.34.45l-7.23 4.16a1.8 1.8 0 0 1-1.12.2v6.26a2 2 0 0 0 1.12-.19l7.22-4.17a.59.59 0 0 0 .34-.48Zm-47.2 1.12a2.2 2.2 0 0 0-.72.17l-7.32 3.39a1.4 1.4 0 0 1-.65.14v6.26a2.2 2.2 0 0 0 .66-.13l7.32-3.4a2.2 2.2 0 0 1 .71-.16Zm21.2 7.69a1.1 1.1 0 0 1-.89.47H60a1.08 1.08 0 0 1-.65-.24v6.27a1.16 1.16 0 0 0 .64.23h10.56a1.12 1.12 0 0 0 .93-.54Z" style="fill:#fff;opacity:.7000000000000001"/><path d="M88.3 392.57 81 396a2.66 2.66 0 0 1-1.67.1 43 43 0 0 0-5.69-1.35 1.37 1.37 0 0 1-1-1l-.92-4.82a1.13 1.13 0 0 0-1.07-.89H60a1.13 1.13 0 0 0-1.07.89l-.93 4.75a1.38 1.38 0 0 1-1.06 1 43 43 0 0 0-5.68 1.35 2.68 2.68 0 0 1-1.68-.1l-7.32-3.39a1.94 1.94 0 0 0-1.6.07l-7.22 4.17a.54.54 0 0 0 0 1l5.72 4.12a.77.77 0 0 1 .11 1.18 14.3 14.3 0 0 0-2 2.83 1.74 1.74 0 0 1-1.3.86l-9.62.61a1 1 0 0 0-.9 1v5.37a1 1 0 0 0 .9 1l9.62.61a1.75 1.75 0 0 1 1.3.87 14.3 14.3 0 0 0 2 2.83.77.77 0 0 1-.11 1.18l-5.72 4.12a.53.53 0 0 0 0 1l7.22 4.17a2 2 0 0 0 1.6.08l7.32-3.4a2.68 2.68 0 0 1 1.68-.1 43 43 0 0 0 5.68 1.35 1.39 1.39 0 0 1 1.06 1l.92 4.83a1.12 1.12 0 0 0 1.07.88h10.58a1.12 1.12 0 0 0 1.07-.88l.92-4.83a1.38 1.38 0 0 1 1-1A43 43 0 0 0 79.3 426a2.66 2.66 0 0 1 1.67.1l7.33 3.4a1.94 1.94 0 0 0 1.6-.08l7.22-4.17a.53.53 0 0 0 0-1l-5.73-4.12a.77.77 0 0 1-.1-1.18 14.6 14.6 0 0 0 2-2.83 1.79 1.79 0 0 1 1.3-.87l9.63-.61a1 1 0 0 0 .9-1v-5.37a1 1 0 0 0-.9-1l-9.63-.6a1.82 1.82 0 0 1-1.3-.87 14.2 14.2 0 0 0-2-2.83.77.77 0 0 1 .1-1.18l5.73-4.12a.54.54 0 0 0 0-1l-7.22-4.17a1.94 1.94 0 0 0-1.6.07M77.46 404c6.74 3.89 6.74 10.2 0 14.09s-17.67 3.9-24.41 0-6.74-10.21 0-14.1 17.67-3.89 24.41.01" style="fill:#ba68c8"/><g style="opacity:.55"><path d="M88.3 392.57 81 396a2.66 2.66 0 0 1-1.67.1 43 43 0 0 0-5.69-1.35 1.37 1.37 0 0 1-1-1l-.92-4.82a1.13 1.13 0 0 0-1.07-.89H60a1.13 1.13 0 0 0-1.07.89l-.93 4.75a1.38 1.38 0 0 1-1.06 1 43 43 0 0 0-5.68 1.35 2.68 2.68 0 0 1-1.68-.1l-7.32-3.39a1.94 1.94 0 0 0-1.6.07l-7.22 4.17a.54.54 0 0 0 0 1l5.72 4.12a.77.77 0 0 1 .11 1.18 14.3 14.3 0 0 0-2 2.83 1.74 1.74 0 0 1-1.3.86l-9.62.61a1 1 0 0 0-.9 1v5.37a1 1 0 0 0 .9 1l9.62.61a1.75 1.75 0 0 1 1.3.87 14.3 14.3 0 0 0 2 2.83.77.77 0 0 1-.11 1.18l-5.72 4.12a.53.53 0 0 0 0 1l7.22 4.17a2 2 0 0 0 1.6.08l7.32-3.4a2.68 2.68 0 0 1 1.68-.1 43 43 0 0 0 5.68 1.35 1.39 1.39 0 0 1 1.06 1l.92 4.83a1.12 1.12 0 0 0 1.07.88h10.58a1.12 1.12 0 0 0 1.07-.88l.92-4.83a1.38 1.38 0 0 1 1-1A43 43 0 0 0 79.3 426a2.66 2.66 0 0 1 1.67.1l7.33 3.4a1.94 1.94 0 0 0 1.6-.08l7.22-4.17a.53.53 0 0 0 0-1l-5.73-4.12a.77.77 0 0 1-.1-1.18 14.6 14.6 0 0 0 2-2.83 1.79 1.79 0 0 1 1.3-.87l9.63-.61a1 1 0 0 0 .9-1v-5.37a1 1 0 0 0-.9-1l-9.63-.6a1.82 1.82 0 0 1-1.3-.87 14.2 14.2 0 0 0-2-2.83.77.77 0 0 1 .1-1.18l5.73-4.12a.54.54 0 0 0 0-1l-7.22-4.17a1.94 1.94 0 0 0-1.6.07M77.46 404c6.74 3.89 6.74 10.2 0 14.09s-17.67 3.9-24.41 0-6.74-10.21 0-14.1 17.67-3.89 24.41.01" style="fill:#fff"/><path d="M70.57 434.46H60a1.49 1.49 0 0 1-1.42-1.17l-.92-4.83a1 1 0 0 0-.77-.75 42 42 0 0 1-5.73-1.36 2.37 2.37 0 0 0-1.42.08l-7.32 3.4a2.36 2.36 0 0 1-1.93-.09l-7.22-4.17a.88.88 0 0 1-.08-1.57l5.73-4.12a.44.44 0 0 0 .18-.3.5.5 0 0 0-.13-.35 14.6 14.6 0 0 1-2.1-2.91 1.42 1.42 0 0 0-1-.67l-9.69-.65a1.34 1.34 0 0 1-1.18-1.28v-5.37a1.33 1.33 0 0 1 1.18-1.35l9.63-.61a1.39 1.39 0 0 0 1-.68 14.8 14.8 0 0 1 2.1-2.9.52.52 0 0 0 .13-.36.44.44 0 0 0-.18-.29l-5.73-4.12a1 1 0 0 1-.44-.81 1 1 0 0 1 .52-.76l7.22-4.18a2.32 2.32 0 0 1 1.93-.08l7.32 3.39a2.3 2.3 0 0 0 1.42.08 45 45 0 0 1 5.73-1.36 1 1 0 0 0 .77-.74l.92-4.83a1.47 1.47 0 0 1 1.48-1.13h10.57a1.48 1.48 0 0 1 1.43 1.17l.91 4.83a1.05 1.05 0 0 0 .77.74 44 44 0 0 1 5.74 1.37 2.37 2.37 0 0 0 1.42-.09l7.32-3.39a2.3 2.3 0 0 1 1.92.08l7.23 4.18a.93.93 0 0 1 .51.76.94.94 0 0 1-.43.81l-5.73 4.12a.4.4 0 0 0-.18.29.48.48 0 0 0 .13.36 14.7 14.7 0 0 1 2.09 2.9 1.41 1.41 0 0 0 1 .68l9.62.61a1.33 1.33 0 0 1 1.23 1.31v5.37a1.34 1.34 0 0 1-1.23 1.32l-9.62.61a1.42 1.42 0 0 0-1 .67 14.5 14.5 0 0 1-2.09 2.91.42.42 0 0 0-.13.35.4.4 0 0 0 .18.3l5.72 4.12a.89.89 0 0 1-.08 1.57l-7.23 4.17a2.3 2.3 0 0 1-1.92.09l-7.32-3.4a2.4 2.4 0 0 0-1.43-.08 41 41 0 0 1-5.73 1.36 1.06 1.06 0 0 0-.77.75l-.9 4.83a1.49 1.49 0 0 1-1.43 1.17m-20-8.89a2.7 2.7 0 0 1 .78.1A44 44 0 0 0 57 427a1.73 1.73 0 0 1 1.35 1.31l.92 4.82a.77.77 0 0 0 .72.6h10.58a.77.77 0 0 0 .72-.6l.92-4.82a1.73 1.73 0 0 1 1.34-1.31 43 43 0 0 0 5.64-1.35 3.1 3.1 0 0 1 1.93.12l7.33 3.39a1.6 1.6 0 0 0 1.27-.05l7.22-4.11c.1-.06.16-.13.16-.19s0-.13-.14-.2l-5.72-4.12a1.08 1.08 0 0 1-.48-.79 1.17 1.17 0 0 1 .32-.91 14.4 14.4 0 0 0 2-2.76 2.15 2.15 0 0 1 1.59-1.05l9.63-.61a.62.62 0 0 0 .57-.61v-5.37a.62.62 0 0 0-.57-.6l-9.63-.61a2.15 2.15 0 0 1-1.59-1.05 13.8 13.8 0 0 0-2-2.76 1.17 1.17 0 0 1-.32-.91 1.13 1.13 0 0 1 .48-.8L97 397.5c.09-.06.15-.14.14-.2s-.06-.12-.16-.18L89.72 393a1.6 1.6 0 0 0-1.27-.06l-7.33 3.39a3 3 0 0 1-1.93.12 42 42 0 0 0-5.64-1.34 1.74 1.74 0 0 1-1.34-1.31l-.92-4.83a.77.77 0 0 0-.72-.59H60a.77.77 0 0 0-.72.59l-.92 4.83a1.74 1.74 0 0 1-1.36 1.26 44 44 0 0 0-5.64 1.34 3 3 0 0 1-1.93-.11l-7.32-3.4a1.6 1.6 0 0 0-1.27.06l-7.23 4.17a.36.36 0 0 0-.16.18.28.28 0 0 0 .14.2l5.73 4.12a1.12 1.12 0 0 1 .47.8 1.1 1.1 0 0 1-.31.9 13.8 13.8 0 0 0-2 2.77 2.15 2.15 0 0 1-1.59 1.05l-9.63.61a.62.62 0 0 0-.57.6v5.37a.63.63 0 0 0 .57.61l9.63.61a2.15 2.15 0 0 1 1.56 1.06 14 14 0 0 0 2 2.76 1.12 1.12 0 0 1 .31.91 1.1 1.1 0 0 1-.47.79l-5.73 4.12c-.09.07-.14.14-.14.2a.34.34 0 0 0 .16.19l7.23 4.17a1.6 1.6 0 0 0 1.27.05l7.32-3.39a2.8 2.8 0 0 1 1.14-.23Zm14.72-4.22a25.3 25.3 0 0 1-12.38-3c-3.38-1.95-5.24-4.56-5.24-7.35s1.86-5.41 5.24-7.36c6.82-3.94 17.93-3.94 24.76 0 3.37 1.95 5.23 4.56 5.23 7.36s-1.86 5.4-5.23 7.35a25.33 25.33 0 0 1-12.41 3Zm0-19.92a24.54 24.54 0 0 0-12 2.87c-3.15 1.81-4.88 4.21-4.88 6.74s1.73 4.92 4.88 6.74c6.63 3.83 17.42 3.83 24.06 0 3.14-1.82 4.87-4.21 4.87-6.74s-1.73-4.93-4.87-6.74a24.57 24.57 0 0 0-12.09-2.87Z" style="fill:#fff"/></g><path d="M132.21 433.08a1.38 1.38 0 0 1-.94-1.42l.29-2.38a1.08 1.08 0 0 0-1-1.22l-6.27-.66a1.76 1.76 0 0 0-1.62.88l-1.25 2.43a2.18 2.18 0 0 1-1.62 1.06c-1.09.08-2.18.22-3.24.4a3.18 3.18 0 0 1-2-.4l-3.37-2.24a2.41 2.41 0 0 0-2-.21l-5 2a.75.75 0 0 0-.52.64v5.16a.83.83 0 0 0 .25.56l.29.31a2.65 2.65 0 0 1-1.38.43l-5.73-.23a1.53 1.53 0 0 0-1.45 1L94.8 442a1.3 1.3 0 0 0 0 .34v5.17a.94.94 0 0 0 .81.9l4.44.76-1.73.87a.71.71 0 0 0-.45.63v5.18a.74.74 0 0 0 .31.57l3.2 2.67a2.3 2.3 0 0 0 1.92.38l4.88-1.53a3.4 3.4 0 0 1 2.07.13 24 24 0 0 0 2.62 1 1.37 1.37 0 0 1 .64.45V463a1.1 1.1 0 0 0 1 1.07l6.27.65a1.77 1.77 0 0 0 1.62-.88l1.24-2.43a2.22 2.22 0 0 1 1.63-1.06 32 32 0 0 0 3.24-.4 3.27 3.27 0 0 1 2 .41l3.37 2.24a2.36 2.36 0 0 0 2 .2l5-2a.74.74 0 0 0 .52-.67V455a.8.8 0 0 0-.25-.56l-.29-.31a2.7 2.7 0 0 1 1.38-.43l5.73.24a1.57 1.57 0 0 0 1.45-1l.86-2.77a.9.9 0 0 0 .05-.32v-5.15a1 1 0 0 0-.8-1l-4.44-.76 1.73-.87a.71.71 0 0 0 .45-.63v-5.15a.73.73 0 0 0-.31-.6L143.7 433a2.23 2.23 0 0 0-1.92-.38l-4.88 1.52a3.4 3.4 0 0 1-2.07-.13 26 26 0 0 0-2.62-.93m-20.8 13a9.4 9.4 0 0 1 4.28-3.1c5.44-2.18 12.9-1.4 16.67 1.74a7.6 7.6 0 0 1 1.28 1.35 9.33 9.33 0 0 1-4.29 3.11c-5.44 2.18-12.9 1.4-16.67-1.74a7 7 0 0 1-1.27-1.38Z" style="fill:#ba68c8"/><path d="M132.21 433.08a1.38 1.38 0 0 1-.94-1.42l.29-2.38a1.08 1.08 0 0 0-1-1.22l-6.27-.66a1.76 1.76 0 0 0-1.62.88l-1.25 2.43a2.18 2.18 0 0 1-1.62 1.06c-1.09.08-2.18.22-3.24.4a3.18 3.18 0 0 1-2-.4l-3.37-2.24a2.41 2.41 0 0 0-2-.21l-5 2a.75.75 0 0 0-.52.64v5.16a.83.83 0 0 0 .25.56l.29.31a2.65 2.65 0 0 1-1.38.43l-5.73-.23a1.53 1.53 0 0 0-1.45 1L94.8 442a1.3 1.3 0 0 0 0 .34v5.17a.94.94 0 0 0 .81.9l4.44.76-1.73.87a.71.71 0 0 0-.45.63v5.18a.74.74 0 0 0 .31.57l3.2 2.67a2.3 2.3 0 0 0 1.92.38l4.88-1.53a3.4 3.4 0 0 1 2.07.13 24 24 0 0 0 2.62 1 1.37 1.37 0 0 1 .64.45V463a1.1 1.1 0 0 0 1 1.07l6.27.65a1.77 1.77 0 0 0 1.62-.88l1.24-2.43a2.22 2.22 0 0 1 1.63-1.06 32 32 0 0 0 3.24-.4 3.27 3.27 0 0 1 2 .41l3.37 2.24a2.36 2.36 0 0 0 2 .2l5-2a.74.74 0 0 0 .52-.67V455a.8.8 0 0 0-.25-.56l-.29-.31a2.7 2.7 0 0 1 1.38-.43l5.73.24a1.57 1.57 0 0 0 1.45-1l.86-2.77a.9.9 0 0 0 .05-.32v-5.15a1 1 0 0 0-.8-1l-4.44-.76 1.73-.87a.71.71 0 0 0 .45-.63v-5.15a.73.73 0 0 0-.31-.6L143.7 433a2.23 2.23 0 0 0-1.92-.38l-4.88 1.52a3.4 3.4 0 0 1-2.07-.13 26 26 0 0 0-2.62-.93m-20.8 13a9.4 9.4 0 0 1 4.28-3.1c5.44-2.18 12.9-1.4 16.67 1.74a7.6 7.6 0 0 1 1.28 1.35 9.33 9.33 0 0 1-4.29 3.11c-5.44 2.18-12.9 1.4-16.67-1.74a7 7 0 0 1-1.27-1.38Z" style="fill:#fff;opacity:.2"/><path d="M102.35 445.48a1.88 1.88 0 0 0-1.35-1.28l-5.45-.93a.94.94 0 0 1-.81-.85v5.11a.94.94 0 0 0 .8.9l4.45.76 2.31-1.19a1.09 1.09 0 0 0 .46-1.48 8 8 0 0 1-.41-1.04m1.34-8.33a.86.86 0 0 0 .24.56l.3.32a2.3 2.3 0 0 0 .47-.37 13 13 0 0 1 1.38-1.22 1 1 0 0 0 .14-1.47l-2.28-2.42a.8.8 0 0 1-.25-.55ZM115.69 437.8c-4.68 1.88-6.34 5.34-4.27 8.26a9.33 9.33 0 0 1 4.27-3.1c5.44-2.17 12.9-1.4 16.67 1.74a7.2 7.2 0 0 1 1.27 1.35c1.45-2.08 1.12-4.53-1.26-6.51-3.78-3.14-11.24-3.92-16.68-1.74" style="opacity:.1"/><path d="M124.11 455.65a1.8 1.8 0 0 0-.52.6l-1.25 2.43a1.76 1.76 0 0 1-.93.78v5.16a1.72 1.72 0 0 0 .92-.77l1.26-2.44a1.7 1.7 0 0 1 .53-.59Zm17.24-.69a.71.71 0 0 1-.52.67l-5 2a2.26 2.26 0 0 1-1.32.05v5.16a2.3 2.3 0 0 0 1.31-.05l5-2a.74.74 0 0 0 .52-.67Zm-33.27-2.16-4.82 1.51a2.1 2.1 0 0 1-1.21 0v5.15a2.2 2.2 0 0 0 1.21 0l4.82-1.51Zm42.21-8.16a1.6 1.6 0 0 1-.06.3l-.86 2.78a1.53 1.53 0 0 1-1.45 1l-5.73-.23a2.5 2.5 0 0 0-.89.19v5.16a2.25 2.25 0 0 1 .89-.18l5.73.23a1.56 1.56 0 0 0 1.45-1l.86-2.77a.9.9 0 0 0 .05-.32Zm-3.07-8.36a.4.4 0 0 1 0 .18.5.5 0 0 1-.17.27 1.2 1.2 0 0 1-.25.17l-4 2a.9.9 0 0 0-.24.18 1 1 0 0 0-.27.42 1 1 0 0 0-.06.4 2 2 0 0 0 0 .21c0 .09.06.18.1.27a10 10 0 0 1 .41 1.08 1.88 1.88 0 0 0 1.33 1.29l1 .16 1.73-.86a.75.75 0 0 0 .45-.64Z" style="fill:#ba68c8"/><path d="M124.11 455.65a1.8 1.8 0 0 0-.52.6l-1.25 2.43a1.76 1.76 0 0 1-.93.78v5.16a1.72 1.72 0 0 0 .92-.77l1.26-2.44a1.7 1.7 0 0 1 .53-.59Zm17.24-.69a.71.71 0 0 1-.52.67l-5 2a2.26 2.26 0 0 1-1.32.05v5.16a2.3 2.3 0 0 0 1.31-.05l5-2a.74.74 0 0 0 .52-.67Zm-33.27-2.16-4.82 1.51a2.1 2.1 0 0 1-1.21 0v5.15a2.2 2.2 0 0 0 1.21 0l4.82-1.51Zm42.21-8.16a1.6 1.6 0 0 1-.06.3l-.86 2.78a1.53 1.53 0 0 1-1.45 1l-5.73-.23a2.5 2.5 0 0 0-.89.19v5.16a2.25 2.25 0 0 1 .89-.18l5.73.23a1.56 1.56 0 0 0 1.45-1l.86-2.77a.9.9 0 0 0 .05-.32Zm-3.07-8.36a.4.4 0 0 1 0 .18.5.5 0 0 1-.17.27 1.2 1.2 0 0 1-.25.17l-4 2a.9.9 0 0 0-.24.18 1 1 0 0 0-.27.42 1 1 0 0 0-.06.4 2 2 0 0 0 0 .21c0 .09.06.18.1.27a10 10 0 0 1 .41 1.08 1.88 1.88 0 0 0 1.33 1.29l1 .16 1.73-.86a.75.75 0 0 0 .45-.64Z" style="fill:#fff;opacity:.7000000000000001"/><path d="m141.78 432.65-4.88 1.52a3.4 3.4 0 0 1-2.07-.13 26 26 0 0 0-2.62-1 1.38 1.38 0 0 1-.94-1.42l.29-2.38a1.08 1.08 0 0 0-1-1.22l-6.27-.66a1.76 1.76 0 0 0-1.62.88l-1.25 2.43a2.18 2.18 0 0 1-1.62 1.06c-1.09.08-2.18.22-3.24.4a3.18 3.18 0 0 1-2-.4l-3.37-2.24a2.41 2.41 0 0 0-2-.21l-5 2a.71.71 0 0 0-.27 1.23l2.27 2.42a1 1 0 0 1-.13 1.47 13 13 0 0 0-1.38 1.22 2.82 2.82 0 0 1-1.85.79l-5.73-.23a1.53 1.53 0 0 0-1.45 1L94.8 442a1 1 0 0 0 .77 1.25l5.45.93a1.87 1.87 0 0 1 1.33 1.28 8 8 0 0 0 .41 1.08 1.1 1.1 0 0 1-.46 1.48l-4 2a.67.67 0 0 0-.14 1.21l3.2 2.67a2.3 2.3 0 0 0 1.92.38l4.88-1.53a3.4 3.4 0 0 1 2.07.13 26 26 0 0 0 2.62 1 1.36 1.36 0 0 1 .94 1.41l-.29 2.38a1.08 1.08 0 0 0 1 1.22l6.27.66a1.76 1.76 0 0 0 1.62-.88l1.25-2.43a2.18 2.18 0 0 1 1.62-1.06 32 32 0 0 0 3.24-.4 3.14 3.14 0 0 1 2 .41l3.37 2.23a2.33 2.33 0 0 0 2 .21l5-2a.71.71 0 0 0 .27-1.23l-2.32-2.4a1 1 0 0 1 .14-1.46 14 14 0 0 0 1.38-1.23 2.8 2.8 0 0 1 1.85-.79l5.73.23a1.54 1.54 0 0 0 1.45-1l.87-2.78a1 1 0 0 0-.77-1.25l-5.45-.93a1.85 1.85 0 0 1-1.33-1.28 8 8 0 0 0-.41-1.08 1.1 1.1 0 0 1 .46-1.48l4-2a.67.67 0 0 0 .14-1.21L143.7 433a2.23 2.23 0 0 0-1.92-.35m-9.42 6.89c3.77 3.14 2.42 7.45-3 9.62s-12.9 1.4-16.67-1.74-2.42-7.44 3-9.62 12.9-1.4 16.67 1.74" style="fill:#ba68c8"/><g style="opacity:.55"><path d="m141.78 432.65-4.88 1.52a3.4 3.4 0 0 1-2.07-.13 26 26 0 0 0-2.62-1 1.38 1.38 0 0 1-.94-1.42l.29-2.38a1.08 1.08 0 0 0-1-1.22l-6.27-.66a1.76 1.76 0 0 0-1.62.88l-1.25 2.43a2.18 2.18 0 0 1-1.62 1.06c-1.09.08-2.18.22-3.24.4a3.18 3.18 0 0 1-2-.4l-3.37-2.24a2.41 2.41 0 0 0-2-.21l-5 2a.71.71 0 0 0-.27 1.23l2.27 2.42a1 1 0 0 1-.13 1.47 13 13 0 0 0-1.38 1.22 2.82 2.82 0 0 1-1.85.79l-5.73-.23a1.53 1.53 0 0 0-1.45 1L94.8 442a1 1 0 0 0 .77 1.25l5.45.93a1.87 1.87 0 0 1 1.33 1.28 8 8 0 0 0 .41 1.08 1.1 1.1 0 0 1-.46 1.48l-4 2a.67.67 0 0 0-.14 1.21l3.2 2.67a2.3 2.3 0 0 0 1.92.38l4.88-1.53a3.4 3.4 0 0 1 2.07.13 26 26 0 0 0 2.62 1 1.36 1.36 0 0 1 .94 1.41l-.29 2.38a1.08 1.08 0 0 0 1 1.22l6.27.66a1.76 1.76 0 0 0 1.62-.88l1.25-2.43a2.18 2.18 0 0 1 1.62-1.06 32 32 0 0 0 3.24-.4 3.14 3.14 0 0 1 2 .41l3.37 2.23a2.33 2.33 0 0 0 2 .21l5-2a.71.71 0 0 0 .27-1.23l-2.32-2.4a1 1 0 0 1 .14-1.46 14 14 0 0 0 1.38-1.23 2.8 2.8 0 0 1 1.85-.79l5.73.23a1.54 1.54 0 0 0 1.45-1l.87-2.78a1 1 0 0 0-.77-1.25l-5.45-.93a1.85 1.85 0 0 1-1.33-1.28 8 8 0 0 0-.41-1.08 1.1 1.1 0 0 1 .46-1.48l4-2a.67.67 0 0 0 .14-1.21L143.7 433a2.23 2.23 0 0 0-1.92-.35m-9.42 6.89c3.77 3.14 2.42 7.45-3 9.62s-12.9 1.4-16.67-1.74-2.42-7.44 3-9.62 12.9-1.4 16.67 1.74" style="fill:#fff"/><path d="M120.85 460h-.18l-6.26-.65a1.53 1.53 0 0 1-1.37-1.71l.29-2.38a.94.94 0 0 0-.63-.95 23 23 0 0 1-2.66-1 3 3 0 0 0-1.77-.11l-4.88 1.52a2.7 2.7 0 0 1-2.33-.46l-3.2-2.66a1.11 1.11 0 0 1 .22-1.94l4-2a.65.65 0 0 0 .26-.9 8.4 8.4 0 0 1-.43-1.15 1.46 1.46 0 0 0-1-1l-5.45-.93a1.38 1.38 0 0 1-1.11-1.81l.86-2.77a2 2 0 0 1 1.89-1.33l5.73.23a2.35 2.35 0 0 0 1.52-.66 13.5 13.5 0 0 1 1.42-1.26.6.6 0 0 0 .24-.42.53.53 0 0 0-.15-.4l-2.28-2.42a1.13 1.13 0 0 1 .43-1.93l5-2a2.86 2.86 0 0 1 2.37.24l3.37 2.24a2.73 2.73 0 0 0 1.71.34c1.07-.19 2.18-.32 3.29-.41a1.73 1.73 0 0 0 1.26-.82l1.25-2.43a2.18 2.18 0 0 1 2.06-1.11l6.26.65a1.53 1.53 0 0 1 1.37 1.71l-.29 2.38a.94.94 0 0 0 .63 1 23 23 0 0 1 2.66 1 3.1 3.1 0 0 0 1.77.12l4.88-1.53a2.7 2.7 0 0 1 2.33.46l3.2 2.66a1.21 1.21 0 0 1 .47 1 1.16 1.16 0 0 1-.69.9l-4 2a.65.65 0 0 0-.25.9 9 9 0 0 1 .43 1.15 1.46 1.46 0 0 0 1 1l5.45.93a1.38 1.38 0 0 1 1 .65 1.4 1.4 0 0 1 .13 1.17l-.86 2.77a2 2 0 0 1-1.89 1.32l-5.73-.23a2.5 2.5 0 0 0-1.52.66 13.4 13.4 0 0 1-1.42 1.26.6.6 0 0 0-.24.42.53.53 0 0 0 .15.4l2.28 2.42a1.23 1.23 0 0 1 .35 1.09 1.26 1.26 0 0 1-.78.85l-5 2a2.82 2.82 0 0 1-2.37-.24l-3.37-2.24a2.8 2.8 0 0 0-1.71-.34 32 32 0 0 1-3.29.41 1.76 1.76 0 0 0-1.26.82l-1.25 2.43a2.21 2.21 0 0 1-1.91 1.09m-11.93-7.75a3.9 3.9 0 0 1 1.47.27 25 25 0 0 0 2.57 1 1.8 1.8 0 0 1 1.24 1.88l-.29 2.38a.65.65 0 0 0 .14.49.66.66 0 0 0 .45.25l6.26.65a1.32 1.32 0 0 0 1.19-.64l1.24-2.43a2.58 2.58 0 0 1 2-1.29c1.09-.09 2.17-.22 3.21-.4a3.58 3.58 0 0 1 2.34.47l3.37 2.24a2 2 0 0 0 1.56.16l5-2a.36.36 0 0 0 .24-.22.37.37 0 0 0-.13-.3l-2.27-2.42a1.37 1.37 0 0 1-.39-1.07 1.44 1.44 0 0 1 .58-1A15 15 0 0 0 140 449a3.2 3.2 0 0 1 2.19-.93l5.73.24a1.09 1.09 0 0 0 1-.72l.87-2.77a.55.55 0 0 0 0-.44.56.56 0 0 0-.38-.25l-5.45-.93a2.27 2.27 0 0 1-1.68-1.58 7 7 0 0 0-.39-1 1.52 1.52 0 0 1 .66-2.05l4-2c.13-.06.21-.14.22-.22s-.05-.17-.16-.26l-3.2-2.67a1.84 1.84 0 0 0-1.51-.3l-4.9 1.47a3.83 3.83 0 0 1-2.38-.15 26 26 0 0 0-2.57-.95 1.8 1.8 0 0 1-1.24-1.88l.29-2.38a.67.67 0 0 0-.59-.74l-6.26-.65a1.32 1.32 0 0 0-1.19.64l-1.25 2.43a2.59 2.59 0 0 1-2 1.3c-1.09.08-2.17.21-3.21.39a3.58 3.58 0 0 1-2.34-.47l-3.26-2.24a2 2 0 0 0-1.56-.16l-5 2a.36.36 0 0 0-.24.22.37.37 0 0 0 .13.3l2.27 2.42a1.37 1.37 0 0 1 .39 1.07 1.42 1.42 0 0 1-.58 1A13 13 0 0 0 105 438a3.18 3.18 0 0 1-2.19.92l-5.73-.23a1.09 1.09 0 0 0-1 .71l-.87 2.77a.58.58 0 0 0 0 .45.6.6 0 0 0 .38.24l5.45.93a2.29 2.29 0 0 1 1.68 1.58 7 7 0 0 0 .39 1 1.52 1.52 0 0 1-.66 2.05l-4 2a.36.36 0 0 0-.22.22.34.34 0 0 0 .16.27l3.2 2.66a1.85 1.85 0 0 0 1.51.3l4.88-1.53a3.2 3.2 0 0 1 .94-.09m13.63-1.42c-3.9 0-7.75-1.08-10.15-3.07a5.38 5.38 0 0 1-2.24-5c.35-2.2 2.3-4.17 5.37-5.4 5.56-2.22 13.24-1.41 17.11 1.81a5.38 5.38 0 0 1 2.24 5c-.35 2.2-2.3 4.17-5.37 5.4a18.9 18.9 0 0 1-6.96 1.26m0-13.83a18 18 0 0 0-6.66 1.21c-2.78 1.11-4.54 2.83-4.84 4.71a4.52 4.52 0 0 0 1.94 4.17c3.65 3 10.93 3.79 16.22 1.67 2.78-1.11 4.54-2.83 4.84-4.72a4.49 4.49 0 0 0-1.94-4.16c-2.28-1.88-5.9-2.88-9.59-2.88Z" style="fill:#fff"/></g><path d="M314.74 408.49a54 54 0 0 0-11.88-9.11c-28.15-16.25-73.79-16.25-101.94 0a54 54 0 0 0-11.92 9.11h-9.23v20.32c0 10.65 7 21.3 21.11 29.42 28.15 16.26 73.79 16.26 101.94 0 14.08-8.12 21.12-18.77 21.12-29.42v-20.32Z" style="fill:#263238"/><ellipse cx="251.89" cy="412.03" rx="72.08" ry="41.62" style="fill:#37474f"/><path d="M251.89 372.32c18.93 0 36.69 4.23 50 11.93 13 7.51 20.17 17.37 20.17 27.78s-7.16 20.28-20.17 27.79c-13.33 7.69-31.09 11.93-50 11.93s-36.69-4.24-50-11.93c-13-7.51-20.16-17.38-20.16-27.79s7.16-20.27 20.16-27.78c13.33-7.7 31.1-11.93 50-11.93m0-1.9c-18.45 0-36.89 4.06-51 12.19-28.15 16.25-28.15 42.6 0 58.85 14.08 8.13 32.53 12.19 51 12.19s36.9-4.06 51-12.19c28.15-16.25 28.15-42.6 0-58.85-14.07-8.13-32.52-12.19-51-12.19" style="fill:#455a64"/><path d="M303.94 389.88a44.9 44.9 0 0 0-9.84-7.55c-23.31-13.46-61.1-13.46-84.42 0a44.8 44.8 0 0 0-9.83 7.55h-7.65v16.82c0 8.82 5.83 17.64 17.48 24.37 23.32 13.46 61.11 13.46 84.42 0 11.66-6.73 17.48-15.55 17.48-24.37v-16.82Z" style="fill:#263238"/><ellipse cx="251.89" cy="392.99" rx="58.79" ry="33.94" style="fill:#fff"/><path d="M251.89 360.42c15.62 0 30.27 3.5 41.26 9.84 10.66 6.16 16.53 14.23 16.53 22.73s-5.87 16.57-16.53 22.72c-11 6.35-25.64 9.84-41.26 9.84s-30.27-3.49-41.26-9.84C200 409.56 194.1 401.49 194.1 393s5.87-16.57 16.53-22.73c11-6.34 25.65-9.84 41.26-9.84m0-1.9c-15.27 0-30.55 3.37-42.21 10.1-23.31 13.46-23.31 35.28 0 48.74 11.66 6.73 26.94 10.09 42.21 10.09s30.55-3.36 42.21-10.09c23.31-13.46 23.31-35.28 0-48.74-11.66-6.73-26.93-10.1-42.21-10.1" style="fill:#455a64"/><path d="M232 81.7c-2.79-5.64-5.33-12-3.86-18.38a15 15 0 0 1 1.64-4.18 12.4 12.4 0 0 1 1.31-1.82c.22-.27.46-.52.7-.77a4.1 4.1 0 0 0 .89-1.32c.16-.31-.13-.37-.22-.59-.29-.69-1.54.21-1.81.43a8 8 0 0 0-.69.65 12 12 0 0 0-1.28 1.57 15.4 15.4 0 0 0-1.85 3.64 19.3 19.3 0 0 0-1 8.29 31 31 0 0 0 2.58 9.37c1.49 3.4 3.39 6.59 5 10 1.86 3.92 3.2 8.29 2.5 12.68-.1.63 1 .79 1.13.19C239 94.37 235 87.78 232 81.7" style="fill:#263238"/><path d="M243.84 95.62a23 23 0 0 0-.71-3.88 37 37 0 0 0-3-7.18 43 43 0 0 1-3.26-7.24 18.2 18.2 0 0 1-.73-3.88 15 15 0 0 1 0-1.89 5.5 5.5 0 0 0 0-1.76c-.06-.2-.46-.54-.66-.3a5.9 5.9 0 0 0-.74 3.51 15 15 0 0 0 .51 3.72 35 35 0 0 0 2.93 7.06 58 58 0 0 1 3.26 6.94 25.6 25.6 0 0 1 1.09 4.13 25.3 25.3 0 0 0 .73 4.35c0 .13.17.2.26.07.65-.98.42-2.55.32-3.65" style="fill:#263238"/><circle cx="234.13" cy="54.71" r="4.55" style="fill:#ba68c8"/><path d="M242.65 70.07a4.55 4.55 0 1 1-4.55-4.55 4.54 4.54 0 0 1 4.55 4.55" style="fill:#ba68c8"/><path d="M275.14 94.48c-3.9-1.13-5.73 4.14-5.32 10.48s1.72 10.52 5.23 11.31c5.17 1.16 10.82-2.8 10.76-9.52-.05-5.75-4.33-10.1-10.67-12.27M310.91 138.44l3.44 5.42s2 7.64-2.84 10.49c-4.63 2.74-9.37-3.13-9.37-3.13l-5.39-5.77Z" style="fill:#37474f"/><path d="M276.55 92.27c-5.53 3.35-4.72 19.54-1.88 24.44s23.13 31.1 23.13 31.1c3.41 2.85 16.09-3.2 14.5-9 0 0-16.25-28.32-20.44-35.69s-9.77-14.2-15.31-10.85" style="fill:#ba68c8"/><path d="M276.55 92.27c-5.53 3.35-4.72 19.54-1.88 24.44s23.13 31.1 23.13 31.1c3.41 2.85 16.09-3.2 14.5-9 0 0-16.25-28.32-20.44-35.69s-9.77-14.2-15.31-10.85" style="fill:#fff;opacity:.5"/><path d="M348.52 135.66s9.65-6.21 12.66-9.46c3.2-3.45 2.54-7.74-1.12-8.13s-8.8 1.84-8.8 1.84l-9.26 4.63Z" style="fill:#37474f"/><path d="M308.82 154.08c1.41 4.54 6.46 5.11 12.53 1.28s30.57-21.31 30.57-21.31c.84-.65.42-3.11-1.75-6.72s-5.08-4.71-5.85-4.35c0 0-24.17 11.8-27.19 13-6.25 2.59-10.24 11.87-8.31 18.1" style="fill:#ba68c8"/><path d="M308.82 154.08c1.41 4.54 6.46 5.11 12.53 1.28s30.57-21.31 30.57-21.31c.84-.65.42-3.11-1.75-6.72s-5.08-4.71-5.85-4.35c0 0-24.17 11.8-27.19 13-6.25 2.59-10.24 11.87-8.31 18.1" style="fill:#fff;opacity:.5"/><path d="M315.37 137c-5.2 3.41-8.29 11.5-6.55 17.12 1.41 4.54 6.46 5.11 12.53 1.28s30.57-21.31 30.57-21.31c.73-.56.51-2.5-1-5.36-3.54 2.49-8.51 5.46-12.8 8.23-10.15 6.57-16.76 12.14-23 11.24-2.92-.46-3.19-5.2.25-11.2" style="fill:#ba68c8;opacity:.30000000000000004"/><path d="M367.05 102.31a.8.8 0 0 1-.22 0 1.83 1.83 0 0 1-2-1.68 20.9 20.9 0 0 1 .22-6.92A13.9 13.9 0 0 1 369 87a1.84 1.84 0 0 1 2.56 2.65 10.2 10.2 0 0 0-2.85 4.82 17.5 17.5 0 0 0-.15 5.86 1.83 1.83 0 0 1-1.51 1.98M370.34 106.54a1.8 1.8 0 0 1-.86 0 1.84 1.84 0 0 1-1.28-2.27 21.3 21.3 0 0 1 2.62-6.41 13.9 13.9 0 0 1 6-4.92 1.84 1.84 0 1 1 1.47 3.37 10.4 10.4 0 0 0-4.36 3.53 17.5 17.5 0 0 0-2.18 5.43 1.87 1.87 0 0 1-1.41 1.27" style="fill:#455a64"/><path d="M372.74 109.47c.47 8.7-6.24 13.92-11.9 15.8-5.38 1.79-8.25-4-7.89-6 5.71-5.9 4.29-18 9.84-19.15s9.64 3.69 9.95 9.35" style="fill:#ba68c8"/><path d="M372.74 109.47c.47 8.7-6.24 13.92-11.9 15.8-5.38 1.79-8.25-4-7.89-6 5.71-5.9 4.29-18 9.84-19.15s9.64 3.69 9.95 9.35" style="fill:#fff;opacity:.5"/><path d="M358.43 110.34a1.8 1.8 0 0 1-.74 0c-3.43-.7-5.37-3.55-5.77-8.48a1.86 1.86 0 0 1 1.69-2 1.83 1.83 0 0 1 2 1.68c.34 4.14 1.69 4.94 2.84 5.18a1.84 1.84 0 0 1 0 3.6ZM362.17 103.5a1.83 1.83 0 0 1-2-.94 20.4 20.4 0 0 1-2.28-6.5 14 14 0 0 1 .92-7.69 1.84 1.84 0 1 1 3.39 1.44 10.13 10.13 0 0 0-.7 5.52 17.2 17.2 0 0 0 1.91 5.5 1.84 1.84 0 0 1-.75 2.49 2.3 2.3 0 0 1-.49.18" style="fill:#455a64"/><path d="M299.69 144c-2.47-2.69-13.82-18.81-18.51-28.71-4.5-9.5-4.62-22-1.94-23.88a5.8 5.8 0 0 0-2.69.86c-5.53 3.35-4.72 19.54-1.88 24.44s23.13 31.1 23.13 31.1c1.71 1.43 5.76.62 9.17-1.29-.84.01-5.06-.11-7.28-2.52" style="fill:#ba68c8;opacity:.30000000000000004"/><path d="m281.56 350.93-.41 1.51-2.1 8.31-.22 2.15a5.53 5.53 0 0 1-6.44 1.86 11.37 11.37 0 0 1-6.25-4.55l.39-2.09.87-6 .2-1.35s7.29-5 10.44-3.83a5.26 5.26 0 0 1 3.52 3.99M280.53 260c1.6 3.54 2.88 7 2.19 8.88s-1.42 5.3-.89 7.45.47 3.3-.79 4.87a7.46 7.46 0 0 0 3.69 6.86c4.17 2.53 13.38 3.56 15.92 1l.44-1.62s7.48-17 6.9-21.44a34.5 34.5 0 0 0-.88-5L304 249c-8.79-4.92-16.68 1-23.47 11" style="fill:#37474f"/><path d="M256.46 213.71c3.16 12.39 18.77 35.59 24.58 48.94a7.07 7.07 0 0 1 5.3-2.69c4.15-.29 6 1.34 6 1.34s1.73-10.61 11.65-12.13c-2.15-10.83-8.86-52.47-16.38-73.32-6.19-17.22-19.41-10.94-26.62 3.78-6.32 12.98-6.99 24.58-4.53 34.08" style="fill:#ba68c8"/><path d="M256.46 213.71c3.16 12.39 18.77 35.59 24.58 48.94a7.07 7.07 0 0 1 5.3-2.69c4.15-.29 6 1.34 6 1.34s1.73-10.61 11.65-12.13c-2.15-10.83-8.86-52.47-16.38-73.32-6.19-17.22-19.41-10.94-26.62 3.78-6.32 12.98-6.99 24.58-4.53 34.08" style="fill:#fff;opacity:.35000000000000003"/><path d="M303.57 246.78c-6.47.35-10.26 5.16-12.57 11.36-3.17-1.48-7-1.46-11.27 1.66.76 1.69 1.31 2.85 1.31 2.85a7.1 7.1 0 0 1 5.3-2.7c4.15-.28 6 1.35 6 1.35s1.73-10.61 11.65-12.13c-.1-.68-.24-1.46-.42-2.39" style="fill:#ba68c8"/><circle cx="291.18" cy="275.37" r="9.35" style="fill:#ba68c8"/><circle cx="291.18" cy="275.37" r="5.35" style="opacity:.35000000000000003"/><path d="M295.17 283.82c.74 2.41 4 3.64 5.92 3.64a47.5 47.5 0 0 0 5.6-10A22.8 22.8 0 0 0 308 266a10 10 0 0 0-7.44 5.12c-2.35 4.46-.82 7.57-5.39 12.7" style="fill:#ba68c8"/><path d="M295.17 283.82c.74 2.41 4 3.64 5.92 3.64a47.5 47.5 0 0 0 5.6-10A22.8 22.8 0 0 0 308 266a10 10 0 0 0-7.44 5.12c-2.35 4.46-.82 7.57-5.39 12.7" style="fill:#fff;opacity:.35000000000000003"/><path d="M300.13 268.12a12.06 12.06 0 0 0-5.94-3.79s1.19-8.18 5.42-11.19c3.65-2.59 5.16-1.17 5.66.73s1.42 5.12 1.84 7.17c0-.04-4.11 1.4-6.98 7.08" style="fill:#ba68c8"/><path d="M300.13 268.12a12.06 12.06 0 0 0-5.94-3.79s1.19-8.18 5.42-11.19c3.65-2.59 5.16-1.17 5.66.73s1.42 5.12 1.84 7.17c0-.04-4.11 1.4-6.98 7.08" style="fill:#fff;opacity:.35000000000000003"/><path d="M300.65 289.08c-4.44.36-5.94-2.9-9.47-2.76s-7.91-.82-10-6.16c0 0-8.26 6.88-10.53 22.17-1.68 11.29-.94 30.82-3.07 48.46 4.46 2 8.28-3.71 14 .14Z" style="fill:#ba68c8"/><path d="M300.65 289.08c-4.44.36-5.94-2.9-9.47-2.76s-7.91-.82-10-6.16c0 0-8.26 6.88-10.53 22.17-1.68 11.29-.94 30.82-3.07 48.46 4.46 2 8.28-3.71 14 .14Z" style="fill:#fff;opacity:.35000000000000003"/><path d="M295.42 395.17c7.83-1.87-2.78-8.49-7.59-13.3s-8.56-11.87-9-19c-2 1.67-8.67.33-12.69-2.69l-1.68.44a30.5 30.5 0 0 1-1.86 4.13c-2.36 4.41-4.24 7.59-.26 11.21 2.38 2.15 4.45 2.64 6.49 6.1s3.11 8.23 5.93 10.45c5.55 4.42 13.63 4.34 20.66 2.66" style="fill:#ba68c8"/><path d="M295.42 395.17c7.83-1.87-2.78-8.49-7.59-13.3s-8.56-11.87-9-19c-2 1.67-8.67.33-12.69-2.69l-1.68.44a30.5 30.5 0 0 1-1.86 4.13c-2.36 4.41-4.24 7.59-.26 11.21 2.38 2.15 4.45 2.64 6.49 6.1s3.11 8.23 5.93 10.45c5.55 4.42 13.63 4.34 20.66 2.66" style="fill:#fff;opacity:.35000000000000003"/><path d="m267.4 352.14-.87 6a16.2 16.2 0 0 0 8.2 3.58c3.51.32 4.32-.95 4.32-.95l2.1-8.31s-1-1.59-4.11-1.51-5.59 2.66-9.64 1.19" style="fill:#ba68c8"/><path d="m267.4 352.14-.87 6a16.2 16.2 0 0 0 8.2 3.58c3.51.32 4.32-.95 4.32-.95l2.1-8.31s-1-1.59-4.11-1.51-5.59 2.66-9.64 1.19" style="fill:#fff;opacity:.35000000000000003"/><path d="M289.16 383.13a5 5 0 0 0-.57 0c-2 .23-3.81 1.39-5.5 2.33a59 59 0 0 0-5.22 3.28c-.88.62-1.75 1.26-2.6 1.93-.43.34-.9.69-1.34 1.06a8 8 0 0 0 .79.76c1.06-.82 2.09-1.69 3.18-2.47 1.61-1.14 3.29-2.19 5-3.17.84-.48 1.7-.94 2.57-1.38a13 13 0 0 1 2.73-1.14 3.9 3.9 0 0 1 2.72.35h.07c-.63-.49-1.25-1.03-1.83-1.55M280.08 369.27a5 5 0 0 1-.53.47 6.6 6.6 0 0 1-2.27 1.09 7.6 7.6 0 0 1-5.45-.72 13 13 0 0 1-4.37-3.89 56 56 0 0 1-3.09-5.34c-.11.31-.23.62-.35.92a21.5 21.5 0 0 0 2 4 14.3 14.3 0 0 0 3.43 4 9.26 9.26 0 0 0 8.89 1.78 7.8 7.8 0 0 0 2.13-1.22c-.16-.42-.28-.75-.39-1.09M282.61 375h-.17a12.64 12.64 0 0 0-5.6 1.85 30 30 0 0 0-5 3.46c-.79.66-1.56 1.34-2.31 2.05l-.37.34c.16.29.31.58.46.88l.58-.53c.74-.64 1.48-1.27 2.23-1.88a31.7 31.7 0 0 1 4.5-3.13 13.6 13.6 0 0 1 5.18-1.95 5.7 5.7 0 0 1 1.18.05c-.23-.4-.46-.78-.68-1.14" style="fill:#37474f"/><path d="M297 211.85a36.3 36.3 0 0 0-14.52 3.48 43.4 43.4 0 0 0-7.64 4.48l-3.39-10.5c-1.87-5.79-3.71-11.59-5.81-17.3-1.17-3.19-2.43-6.34-3.83-9.44-.34-.75-.69-1.51-1.05-2.26-.19.4-.37.79-.55 1.19.09.21.19.42.29.63 1.18 2.72 2.26 5.48 3.3 8.26 2.1 5.6 3.92 11.3 5.76 17q2.12 6.59 4.25 13.18a59 59 0 0 0-10.06 9.8l.44.83c1.75-1.83 3.45-3.69 5.29-5.42a54 54 0 0 1 4.73-4q3.63 11.3 7.28 22.59c1.11 3.41 2.28 6.82 3.23 10.28.46 1.66.86 3.35 1.16 5.05a2 2 0 0 1 0 .28l.47-.06h.7a42 42 0 0 0-.83-4.17c-.75-3-1.73-5.9-2.67-8.82q-3-9.34-6-18.69c-.78-2.4-1.55-4.8-2.33-7.2l.24-.18a43 43 0 0 1 14.18-6.65 36.4 36.4 0 0 1 7.63-1c-.13-.42-.27-.89-.27-1.36" style="fill:#455a64"/><path d="M285.61 315.66c-1.53 1.26-2.78 2.83-4.56 3.76a9.2 9.2 0 0 1-2.69.9 16 16 0 0 1-1.83.11c1.56-8.44 3.85-16.83 8.06-24.36a46.7 46.7 0 0 1 7.18-9.74h-.59a9 9 0 0 1-.88 0 47.4 47.4 0 0 0-9 13.53 17.6 17.6 0 0 1-5.06-3.06 20 20 0 0 1-2-2.05c-.44-.52-.82-1.09-1.22-1.64-.15.43-.31.85-.46 1.3.22.32.46.62.69.92a18.3 18.3 0 0 0 2.26 2.32 19.1 19.1 0 0 0 5.36 3.26c-.84 1.93-1.59 3.91-2.24 5.9a128 128 0 0 0-4.63 21.84 10.35 10.35 0 0 1-4.44-3.35l-.24-.32v1.4a10 10 0 0 0 .91 1 11 11 0 0 0 3.67 2.22c-.41 2.84-.8 5.68-1.21 8.51-.47 3.16-1 6.31-1.58 9.44-.24 1.24-.52 2.46-.81 3.69a10 10 0 0 0 1.27-.22c.17-.77.33-1.54.49-2.31.58-2.77 1.07-5.56 1.51-8.35.87-5.56 1.58-11.13 2.49-16.68.12-.72.25-1.44.37-2.16a6 6 0 0 0 1.18 0 11 11 0 0 0 2.53-.49 11.6 11.6 0 0 0 4.27-2.61c1.25-1.16 2.43-2.58 4.08-3.19a4.07 4.07 0 0 1 2.53-.22 2.6 2.6 0 0 1 1.42 1l.3-1a3.85 3.85 0 0 0-2.28-1.11 6.56 6.56 0 0 0-4.85 1.76" style="fill:#37474f"/><path d="M270.09 366.78c-.79 3.12-3.5 5.13-6 4.48s-4-3.69-3.2-6.81 3.49-5.12 6.05-4.48 3.93 3.7 3.15 6.81M284.7 158.71c1.46 9.81.82 16.57-2.5 25.21-5.6 12.55-15.25 19.17-19.34 19.43-9-.39-19.61-7.63-24.29-14.44-6.73-9.78-11.71-16.09-9.57-20.33a58.6 58.6 0 0 1 8.14-12.26s21.16-7.14 47.56 2.39" style="fill:#ba68c8"/><path d="M284.7 158.71c1.46 9.81.82 16.57-2.5 25.21-5.6 12.55-15.25 19.17-19.34 19.43-9-.39-19.61-7.63-24.29-14.44-6.73-9.78-11.71-16.09-9.57-20.33a58.6 58.6 0 0 1 8.14-12.26s21.16-7.14 47.56 2.39" style="fill:#fff;opacity:.6000000000000001"/><path d="M261.51 199.63c3-1.47 2.49-10.61-.53-17.79-4.6-11-17-19.18-22-18.17S235 175.89 236.41 180c2.46 7 16.77 20.51 25.1 19.63" style="fill:#ba68c8;opacity:.30000000000000004"/><path d="M236.46 137.11a121 121 0 0 1 3.81 11.89c.64 3.34-.76 4.76-2.69 8.21 18.35 3.78 21.44 16.37 34.15 17 11 .5 11.61-8.39 11.7-18.66.06-6.52 0-9-.23-13.25 0 0-5-22-17-21.77s-29.74 16.58-29.74 16.58" style="fill:#455a64"/><path d="M284.72 142.24h-1.52a40.8 40.8 0 0 0-5.41-10.69c-3-4-4.89-4.89-6.55-3.86s5-6.08 5-6.08l5.67 8.64 3 9.41Z" style="fill:#ba68c8"/><path d="M236.46 94.43c-3.89 1.87-11.76 4.76-12.46 9.89-1.61 11.78 3.42 21 10 32.9 2.07 3.7 5 5.27 13.63 7s13.08.37 18-5c2.24-2.45 4-7 5.52-9.94 1.87-3.69 2.87-5.05 6.1-1.61 4 4.31 6.52 8.26 7.49 14.55 1.22-.61 2.59-5 3.46-14.65 6.12-3.7 8-12.4 3.09-19.54-8.82-12.77-14.66-16.67-16.49-16.84Z" style="fill:#ba68c8"/><path d="M236.46 94.43c-3.89 1.87-11.76 4.76-12.46 9.89-1.61 11.78 3.42 21 10 32.9 2.07 3.7 5 5.27 13.63 7s13.08.37 18-5c2.24-2.45 4-7 5.52-9.94 1.87-3.69 2.87-5.05 6.1-1.61 4 4.31 6.52 8.26 7.49 14.55 1.22-.61 2.59-5 3.46-14.65 6.12-3.7 8-12.4 3.09-19.54-8.82-12.77-14.66-16.67-16.49-16.84Z" style="fill:#fff;opacity:.6000000000000001"/><path d="M293.82 112.31a18 18 0 0 0-2.71-5.19 86 86 0 0 0-7.21-9 45 45 0 0 0-4.16-4 24 24 0 0 0-2.32-1.72 6.7 6.7 0 0 0-2.64-1.15 7.2 7.2 0 0 1 2.53 1.3 23 23 0 0 1 2.2 1.83 55 55 0 0 1 4 4.14c1.24 1.45 2.44 2.93 3.58 4.47s2.29 3.07 3.37 4.64a16.7 16.7 0 0 1 2.55 5 14.1 14.1 0 0 1 .58 5.51 12.7 12.7 0 0 1-1.7 5.26 12 12 0 0 1-3.85 4l-.16.09v.30000000000000004a10.3 10.3 0 0 1-8.06-1.36s2.18 3.38 7.87 3.5c-.16 1.78-.35 3.54-.62 5.3a36 36 0 0 1-.71 3.74 15 15 0 0 1-.56 1.81 3.25 3.25 0 0 1-1 1.56 3.33 3.33 0 0 0 1.15-1.51 14 14 0 0 0 .67-1.8c.37-1.22.66-2.47.91-3.72.46-2.46.79-4.94 1.06-7.42a12.81 12.81 0 0 0 5.9-9.62 14.2 14.2 0 0 0-.67-5.96M228.58 101.08c4.65-1.27 8.46 3.4 9.81 11.74 1.45 9 0 11.74-3.63 13.69-3.38 1.83-6-2.36-8.27-10.27-1.08-3.79-2.12-14.01 2.09-15.16" style="fill:#ba68c8;opacity:.30000000000000004"/><path d="m244.81 77.64.58 12.56c0 .77-8.93 4.23-8.93 4.23s8 1.93 17.29 4.59c4.57 1.3 11 4.18 13.95 6.34 2.14 1.55 2.71 1.21 3.6-1.26a60 60 0 0 0 1.44-5.88c.8-3.34 2-7 2-7s-10-1.23-10-1.81l-.16-5.41Z" style="fill:#455a64"/><path d="M273.51 125.91a1.54 1.54 0 0 1 1.14-.14l-.27-1.83a120 120 0 0 0-3.79-16.52A63.5 63.5 0 0 0 267 98c-.12-.24-.7-.36-.59 0 .81 2.78 1.81 5.51 2.67 8.28s1.58 5.41 2.24 8.15c.94 3.81 1.68 7.63 2.19 11.48" style="fill:#455a64"/><path d="M268.47 127.24c-3.52 8.58-17.08 8.88-22.28 2.27 2.09 4.3 5.72 8.26 12.89 7.39a10.3 10.3 0 0 0 9.39-9.66" style="fill:#ba68c8;opacity:.30000000000000004"/><path d="m233.79 356.55-.32 1.62-1.06 6.21-.24 1.6s-1.09 2.34-6.16 1.79-6.31-2.55-6.31-2.55l.1-1.48v-9.79s2.33-3.27 7.64-2.71a7.1 7.1 0 0 1 6.35 5.31M226.22 251.79s.4 11.9-.43 13.85-2.76 2.71-4.13 5.21-1.15 12 1.72 14.51 1.28 5.87.68 8.09a15.34 15.34 0 0 0 7.58 5.66c5.13 1.75 11.89-1.33 11.89-1.33s.36-5.1.85-5.57 3.72-13.44 3.72-13.44l.43-1.9 1.29-9.55.55-3.21.65-11.52Z" style="fill:#37474f"/><path d="M228.84 166.75c-7.42 9.61-11.46 18.06-6.76 37.7 1.44 15.06 3.3 54.09 3.3 54.09s3.13-.3 5.62 3.84c5.22-5.83 16.15-3.81 19.37 1.73 0 0 4.34-15.56 8.58-37.75s5.6-31.76-2.64-45.69-20.67-22.73-27.47-13.92" style="fill:#ba68c8"/><path d="M228.84 166.75c-7.42 9.61-11.46 18.06-6.76 37.7 1.44 15.06 3.3 54.09 3.3 54.09s3.13-.3 5.62 3.84c5.22-5.83 16.15-3.81 19.37 1.73 0 0 4.34-15.56 8.58-37.75s5.6-31.76-2.64-45.69-20.67-22.73-27.47-13.92" style="fill:#fff;opacity:.5"/><path d="M230.76 193.79c.35-2.92.85-5.83 1.07-8.76 0-.41-.76-.73-.87-.27-.61 2.59-.91 5.3-1.26 7.94s-.64 5.05-.91 7.58q-.82 7.64-1.29 15.28-.92 15.28-.46 30.6.12 4.28.36 8.53c.08 1.46.15 2.93.25 4.39a7 7 0 0 1 1.36.9c-.23-4.05-.53-8.11-.67-12.17q-.27-7.59-.19-15.19.16-15.26 1.68-30.43c.27-2.8.58-5.61.93-8.4" style="fill:#455a64"/><path d="M241.38 256.11c-5-.34-10.2 2.71-10.2 2.71a9.5 9.5 0 0 0-6-3.59c.09 2.09.15 3.31.15 3.31s3.13-.3 5.62 3.84c5.22-5.83 16.15-3.81 19.37 1.73 0 0 .27-.94.72-2.68a12.13 12.13 0 0 0-9.66-5.32M232.36 279.22c-.94 4.77-4.52 7.73-8 6.6s-5.52-5.92-4.58-10.69 4.52-7.73 8-6.6 5.52 5.91 4.58 10.69" style="fill:#ba68c8"/><path d="M228.85 278.3c-.54 2.75-2.61 4.46-4.61 3.81s-3.18-3.41-2.63-6.17 2.6-4.45 4.6-3.8 3.19 3.41 2.64 6.16" style="opacity:.35000000000000003"/><path d="M226.43 272.24a4.84 4.84 0 0 0-2.74 3.75c-.53 2.65.56 5.29 2.42 6.07a4.88 4.88 0 0 0 2.74-3.76c.53-2.65-.56-5.3-2.42-6.06" style="opacity:.35000000000000003"/><path d="M233.88 274.12a28.3 28.3 0 0 0-2.44-9.46 12.12 12.12 0 0 1 12.38-3.27 9.51 9.51 0 0 1 6 5.93l-1.29 9.55c-.43-5.94-8.96-9.87-14.65-2.75" style="fill:#ba68c8"/><path d="M233.88 274.12a28.3 28.3 0 0 0-2.44-9.46 12.12 12.12 0 0 1 12.38-3.27 9.51 9.51 0 0 1 6 5.93l-1.29 9.55c-.43-5.94-8.96-9.87-14.65-2.75" style="fill:#fff;opacity:.5"/><path d="M238.05 292c-6.53-.85-7-5.8-7-5.8a18.7 18.7 0 0 0 2.54-8s1.91-7.21 8.71-6c5.07.93 5.78 6.6 5.78 6.6a29.5 29.5 0 0 1-2.41 10.14 7.84 7.84 0 0 1-7.62 3.06" style="fill:#ba68c8"/><path d="M238.05 292c-6.53-.85-7-5.8-7-5.8a18.7 18.7 0 0 0 2.54-8s1.91-7.21 8.71-6c5.07.93 5.78 6.6 5.78 6.6a29.5 29.5 0 0 1-2.41 10.14 7.84 7.84 0 0 1-7.62 3.06" style="fill:#fff;opacity:.5"/><path d="M224.75 287.84c3.62-.85 5.09.34 7.29 3.07s8.29 5 12.83.82c-.57 5.19-.25 8.36-2.38 20.25-2.16 12.12-3.17 15.56-5.46 27.6-2.86 15.09-3.24 17-3.24 17s-1.21-2.95-6.57-3.89a10.7 10.7 0 0 0-7.37 1.28s-.14-1.6-.7-13.17c-.59-12.41-1.32-23.95-.7-33.5s6.3-19.46 6.3-19.46" style="fill:#ba68c8"/><path d="M224.75 287.84c3.62-.85 5.09.34 7.29 3.07s8.29 5 12.83.82c-.57 5.19-.25 8.36-2.38 20.25-2.16 12.12-3.17 15.56-5.46 27.6-2.86 15.09-3.24 17-3.24 17s-1.21-2.95-6.57-3.89a10.7 10.7 0 0 0-7.37 1.28s-.14-1.6-.7-13.17c-.59-12.41-1.32-23.95-.7-33.5s6.3-19.46 6.3-19.46" style="fill:#fff;opacity:.5"/><path d="M219.8 363.74V356s2.52-2.94 8.06-1.59c4.61 1.11 5.61 3.77 5.61 3.77l-1.06 6.21c-2.57 1.96-9.83 1.73-12.61-.65" style="fill:#ba68c8"/><path d="M219.8 363.74V356s2.52-2.94 8.06-1.59c4.61 1.11 5.61 3.77 5.61 3.77l-1.06 6.21c-2.57 1.96-9.83 1.73-12.61-.65" style="fill:#fff;opacity:.5"/><path d="M230.93 392.77c.14-5.87.24-7.57.61-12.21.27-3.37.14-5.87.27-8.39.05-.82.09-1.29.09-1.29v-.36c.1-2.54.22-3.41.26-4.54-2.91 2.31-10.77 1.28-12.47-.76 0 1.39-.2 2.67-.33 3.82-.43 2.14-1.21 4.61-1.92 9s.21 4.59-2.85 15.53c-1.83 6.58-1.59 9.22 2.2 14.89 4.07 6.06 8.49 5 11.5-1.59 2.57-5.61 2.49-8.24 2.64-14.1" style="fill:#ba68c8"/><path d="M230.93 392.77c.14-5.87.24-7.57.61-12.21.27-3.37.14-5.87.27-8.39.05-.82.09-1.29.09-1.29v-.36c.1-2.54.22-3.41.26-4.54-2.91 2.31-10.77 1.28-12.47-.76 0 1.39-.2 2.67-.33 3.82-.43 2.14-1.21 4.61-1.92 9s.21 4.59-2.85 15.53c-1.83 6.58-1.59 9.22 2.2 14.89 4.07 6.06 8.49 5 11.5-1.59 2.57-5.61 2.49-8.24 2.64-14.1" style="fill:#fff;opacity:.5"/><path d="M230.56 399.59a23 23 0 0 0-1.47-2.36 10.4 10.4 0 0 0-3.91-3.69 6 6 0 0 0-5.34.63 29 29 0 0 0-4.73 3.48c-.56.49-1.09 1-1.61 1.51a13 13 0 0 0 0 1.41 40 40 0 0 1 5.77-4.72c1.39-.92 3.1-1.93 4.8-1.43a7.84 7.84 0 0 1 3.69 3.13 23 23 0 0 1 2.39 4.22 19 19 0 0 0 .41-2.18M218.13 374.32c.27.39.55.77.83 1.16a16.6 16.6 0 0 0 1.81 2.19 7.41 7.41 0 0 0 10.92-.53v-2.1a6.47 6.47 0 0 1-6.26 3.73 6.55 6.55 0 0 1-4.17-1.95 28 28 0 0 1-1.87-2.19 12 12 0 0 0-1.12-1.23c-.01.32-.08.6-.14.92M218.12 387.09c1.66-1.16 3.64-2.42 5.68-2.59s3.62 1.46 4.78 3.12a17 17 0 0 1 1.46 2.52c.33.72.58 1.5.9 2.23 0-1.1.05-2.06.08-2.91-.24-.47-.5-.92-.74-1.33a12.1 12.1 0 0 0-3.24-3.8c-3.08-2.12-6.93.08-9.57 2-.44.32-.87.66-1.29 1-.11.51-.24 1.05-.38 1.64a28 28 0 0 1 2.32-1.88" style="fill:#37474f"/><ellipse cx="233" cy="185.44" rx="13.76" ry="10.36" style="fill:#37474f" transform="rotate(-81.44 232.99 185.436)"/><path d="M239.41 187.86c-1.33 4.77-5.27 7.55-8.81 6.22s-5.34-6.3-4-11.07 5.27-7.55 8.81-6.21 5.32 6.29 4 11.06" style="fill:#263238"/><path d="M236 186.58c-.63 2.26-2.49 3.57-4.17 2.94s-2.52-3-1.89-5.23 2.49-3.57 4.16-2.94 2.55 2.98 1.9 5.23M246 231.6a46.8 46.8 0 0 1-16.46-3.48 34.6 34.6 0 0 1-5.94-3.35c0 .62.07 1.24.11 1.86a37.8 37.8 0 0 0 12.76 5.29 51.7 51.7 0 0 0 8.75 1.19 42 42 0 0 0 8.46-.27 22.3 22.3 0 0 0 4.26-1.05l.36-1.84c-3.88 1.63-8.18 1.84-12.3 1.65" style="fill:#455a64"/><path d="M238.13 315.41a4.07 4.07 0 0 0-4.82-.32c-1.75.94-2.81 2.67-4.1 4.15a6.9 6.9 0 0 1-2.72 2 6.43 6.43 0 0 1-3.31.27 102.2 102.2 0 0 1 2.48-20.38 53 53 0 0 1 2.34-7.23 45 45 0 0 1 2.38-4.84 6.5 6.5 0 0 0-.86-.67 42.6 42.6 0 0 0-4.6 11c-.27 1-.51 2-.73 3l-.59-.07a7 7 0 0 1-.88-.18 11.4 11.4 0 0 1-1.6-.5 13 13 0 0 1-1.55-.73h-.05l-.27 1.14.21.1a15 15 0 0 0 1.57.63 12 12 0 0 0 1.59.41 10 10 0 0 0 1.36.19 89 89 0 0 0-1.42 10c-.42 4.68-.59 9.38-.71 14.07a5 5 0 0 0-.64-.11c-.25 0-.49-.1-.73-.17a9 9 0 0 1-1.53-.56l-.46-.25c0 .42 0 .84.05 1.27a10 10 0 0 0 1.62.54 6.2 6.2 0 0 0 1.67.2v.09q-.21 8.4-.13 16.82 0 3.89.13 7.76a10 10 0 0 1 1-.27c0-1.81-.06-3.62-.07-5.43q-.06-8.44.17-16.89c.07-2.66.14-5.33.24-8a6.5 6.5 0 0 0 4.79-.69c1.71-1 2.76-2.64 4-4.1 1.1-1.27 3-2.8 4.75-1.87 1.49.8 1.85 2.88 2.05 4.42s.35 3.26 1.27 4.42c.13-.63.27-1.26.4-1.92A17 17 0 0 1 240 320a7.52 7.52 0 0 0-1.87-4.59" style="fill:#37474f"/><path d="m233.79 356.55.47-2.46c-3.14-4.37-9.58-4.62-14.55-2.39.11 1.84.14 2.24.14 2.24a10.7 10.7 0 0 1 7.37-1.28c5.36.94 6.57 3.89 6.57 3.89" style="fill:#ba68c8"/><path d="M228.74 103.57c3.59-1.89 6.45 2.9 7.33 9.19s.43 10.65-2.85 12.13c-4.83 2.18-11.15-.56-12.45-7.15-1.11-5.62 2.23-10.74 7.97-14.17M202.58 153.84l-2.28 6s-.4 7.89 4.9 9.7c5.09 1.75 8.55-4.95 8.55-4.95l4.11-6.74Z" style="fill:#37474f"/><path d="M226.91 101.69c6.1 2.16 8.57 18.18 6.78 23.56s-16.38 35.12-16.38 35.12c-2.77 3.48-16.41.12-16-5.92 0 0 10.21-31 12.82-39.08s6.68-15.84 12.78-13.68" style="fill:#ba68c8"/><path d="M226.91 101.69c6.1 2.16 8.57 18.18 6.78 23.56s-16.38 35.12-16.38 35.12c-2.77 3.48-16.41.12-16-5.92 0 0 10.21-31 12.82-39.08s6.68-15.84 12.78-13.68" style="fill:#fff;opacity:.5"/><path d="M228.51 124.31c-1.63 8-12.85 31.14-15.45 33.12s-9.76 1.87-11.63-3.46l-.15.48c-.38 6 13.26 9.4 16 5.92 0 0 14.58-29.74 16.38-35.12s-.68-21.4-6.78-23.56c3.39 2.98 3.26 14.62 1.63 22.62" style="fill:#ba68c8;opacity:.30000000000000004"/><path d="M172.94 146.52s-8.85-7.31-11.46-10.89c-2.77-3.8-1.61-8 2.07-7.94s8.52 2.86 8.52 2.86l8.69 5.7Z" style="fill:#37474f"/><path d="M210.19 169.49c-1.94 4.35-7 4.32-12.6-.2s-27.83-24.77-27.83-24.77c-.77-.74-.06-3.14 2.52-6.47s5.6-4.08 6.32-3.63c0 0 22.62 14.58 25.47 16.16 5.93 3.27 8.77 12.96 6.12 18.91" style="fill:#ba68c8"/><path d="M210.19 169.49c-1.94 4.35-7 4.32-12.6-.2s-27.83-24.77-27.83-24.77c-.77-.74-.06-3.14 2.52-6.47s5.6-4.08 6.32-3.63c0 0 22.62 14.58 25.47 16.16 5.93 3.27 8.77 12.96 6.12 18.91" style="fill:#fff;opacity:.5"/><path d="M205.7 151.73c4.77 4 6.88 12.39 4.49 17.76-1.94 4.35-7 4.32-12.6-.2s-27.83-24.77-27.83-24.77c-.67-.64-.22-2.54 1.61-5.21 3.22 2.9 7.81 6.43 11.73 9.69 9.31 7.72 15.22 14 21.54 13.87 2.94-.07 3.77-4.71 1.06-11.14" style="fill:#ba68c8;opacity:.30000000000000004"/><path d="M155.76 118.47a1.88 1.88 0 0 1-2-.61l-.28-.35a32 32 0 0 1-3.54-5 13.2 13.2 0 0 1-1.86-7.94 1.88 1.88 0 0 1 3.72.53 9.1 9.1 0 0 0 1.42 5.56 28 28 0 0 0 3.17 4.47l.29.35a1.87 1.87 0 0 1-.28 2.64 1.8 1.8 0 0 1-.64.35M163.51 119.1a1.83 1.83 0 0 1-1.11 0 1.88 1.88 0 0 1-1.24-2.35c.38-1.22.6-3.16-1.88-6a1.88 1.88 0 0 1 2.81-2.49c2.77 3.14 3.66 6.37 2.66 9.59a1.86 1.86 0 0 1-1.24 1.25" style="fill:#455a64"/><path d="M150.78 131c5 5.36 11.94 9.13 16.76 5.12 5.74-4.78 1.35-10.66-1.91-15.43s-8.23-7-13-3.7a9.25 9.25 0 0 0-1.85 14.01" style="fill:#ba68c8"/><path d="M150.78 131c5 5.36 11.94 9.13 16.76 5.12 5.74-4.78 1.35-10.66-1.91-15.43s-8.23-7-13-3.7a9.25 9.25 0 0 0-1.85 14.01" style="fill:#fff;opacity:.5"/><path d="M150.93 121.77a1.83 1.83 0 0 1-1.2 0 17.5 17.5 0 0 1-5.77-3.82 12.25 12.25 0 0 1-4-7 1.88 1.88 0 1 1 3.71-.58 8.54 8.54 0 0 0 2.87 4.86 13.9 13.9 0 0 0 4.52 3 1.88 1.88 0 0 1 1.11 2.41 1.85 1.85 0 0 1-1.24 1.13M151.77 128.72a1.9 1.9 0 0 1-.58.09 16.8 16.8 0 0 1-6.93-1.27 15.9 15.9 0 0 1-6-4.62 1.88 1.88 0 0 1 2.85-2.45 12.34 12.34 0 0 0 4.58 3.6 13.3 13.3 0 0 0 5.56 1 1.88 1.88 0 0 1 .53 3.67Z" style="fill:#455a64"/><path d="M279.18 46.44a98 98 0 0 0 .42 14.31 35 35 0 0 0 2.4 10.51 15.26 15.26 0 0 0 7.18 7.81 18.45 18.45 0 0 1-10.23.28A10.2 10.2 0 0 0 281.9 84a30.57 30.57 0 0 1-15 4c-5.2.19-10.77-1.67-13.71-6l-1.12-34.77Z" style="fill:#263238"/><circle cx="255" cy="57.62" r="22.47" style="fill:#455a64" transform="rotate(-63.05 254.998 57.617)"/><path d="m264.71 88.45-.13-4.5-3-6.75s-4.55-1.54-16.22-5.89c-8.55-3.19-12.65-12.2-11.52-21.34a22.8 22.8 0 0 0-1.3 7.03 22.45 22.45 0 0 0 12.27 20.62c.2 3.73.59 12.14.59 12.14a23 23 0 0 0 2.21-1.71c2.1-1.8-.42-6.19 3.33-3.59 3.58 2.54 7.76 3.75 13.77 3.99" style="fill:#37474f"/><path d="M262.91 36.63c-10.05-.27-15.64 6.28-17.62 15.38-1.28 5.88-1.15 19.69 4 26.47C252 82.05 263.48 85 269 83.6c6.05-1.52 8.55-7.8 9.27-15.72a52.4 52.4 0 0 0-1.17-17.38c-1.7-8.29-8.49-13.27-14.19-13.87" style="fill:#ffbda7"/><path d="M268.92 83.61a8 8 0 0 0 1.23-.44 25 25 0 0 1-15.5-3.09c-5.65-3.35-6.6-7.27-7.73-15.44s.81-19.45 4.85-24.46c-3.31 2.76-5.45 6.92-6.52 11.83-1.28 5.88-1.14 19.69 4 26.47 2.68 3.58 14.19 6.52 19.67 5.13" style="fill:#f0997a"/><path d="M248.3 67.53c.81-3.53-.82-7.81-3.63-9.57a4.07 4.07 0 0 0-4.1-.35 4.71 4.71 0 0 0-3.33 3.87c-.81 3.53.82 7.82 3.63 9.58a4.06 4.06 0 0 0 4.1.34 4.71 4.71 0 0 0 3.33-3.87" style="fill:#ba68c8"/><path d="M248.3 67.53c.81-3.53-.82-7.81-3.63-9.57a4.07 4.07 0 0 0-4.1-.35 4.71 4.71 0 0 0-3.33 3.87c-.81 3.53.82 7.82 3.63 9.58a4.06 4.06 0 0 0 4.1.34 4.71 4.71 0 0 0 3.33-3.87" style="opacity:.15"/><path d="M243.8 58.27c2.81 1.76 4.44 6 3.63 9.58s-3.74 5-6.56 3.21-4.44-6-3.63-9.58 3.76-4.97 6.56-3.21" style="fill:#ba68c8"/><path d="M242.79 70a3.2 3.2 0 0 1-1-.43c-2.19-1.37-3.5-4.9-2.86-7.71.43-1.87 1.58-2.87 2.95-2.55a3 3 0 0 1 1 .42c2.2 1.38 3.51 4.91 2.87 7.72-.44 1.87-1.6 2.87-2.96 2.55" style="opacity:.15"/><path d="M242.87 59.74a3 3 0 0 0-1-.42 1.5 1.5 0 0 0-.22 0 4 4 0 0 0-1 2c-.65 2.81.66 6.34 2.86 7.72a3.4 3.4 0 0 0 1 .42h.22a4.13 4.13 0 0 0 1-2c.65-2.81-.66-6.34-2.86-7.72" style="opacity:.15"/><path d="m265.06 56.04 1.93 12.07 6.07-2.44zM262.11 71.08l4.22 1.08a2.14 2.14 0 0 1-2.61 1.64 2.27 2.27 0 0 1-1.61-2.72" style="fill:#f0997a"/><path d="m270.41 52.6 4.88.91a2.42 2.42 0 0 0-2.18-2.26 2.25 2.25 0 0 0-2.7 1.35M260 53.5l-4.81 1.21a2.41 2.41 0 0 1 2-2.39A2.25 2.25 0 0 1 260 53.5" style="fill:#263238"/><path d="M251.77 40.18c6.94 4.88 19.2 4.64 22.73 4 0 0 2.62 3.65 3.65 12.67 1.15-9.2 4.81-20.2-1.23-23.32-7.73-4-18.05 0-18.05 0s-19.39-1.77-22.83 12a20.9 20.9 0 0 1 15.73-5.35M260.13 58.54a1.2 1.2 0 0 0-.47-.41 2 2 0 0 0-.65-.19 4.5 4.5 0 0 0-1.37.07c-.49.08-1 .25-1.46.31a4.6 4.6 0 0 1-1.23 0s0 .06 0 .09a2 2 0 0 0 2 .62 1.5 1.5 0 0 0-.15.55 2 2 0 0 0 3.87.29 1.59 1.59 0 0 0-.54-1.33" style="fill:#263238"/><path d="M271.21 57.59a1.07 1.07 0 0 1 .37-.48 1.8 1.8 0 0 1 .6-.32 4.2 4.2 0 0 1 1.36-.21c.5 0 1 .06 1.49 0a5 5 0 0 0 1.2-.29s.06 0 0 .08a2 2 0 0 1-1.84 1 1.5 1.5 0 0 1 .26.51A2 2 0 0 1 271 59a1.58 1.58 0 0 1 .21-1.41" style="fill:#263238"/><path d="M357.33 140a10.77 10.77 0 0 1-5.44-1.46c-5.47-3.16-8.61-10.94-8.61-21.34 0-17.89 9.48-37.93 21.13-44.66 4.72-2.72 9.22-3 13-.81 5.49 3.15 8.59 10.93 8.59 21.33 0 17.9-9.48 37.93-21.14 44.66a15.26 15.26 0 0 1-7.53 2.28M372 71.25a14.34 14.34 0 0 0-7.09 2.13c-11.38 6.58-20.64 26.23-20.64 43.81 0 9.89 3 17.55 8.12 20.49 3.48 2 7.64 1.73 12-.81 11.39-6.58 20.65-26.23 20.65-43.81 0-9.89-3-17.55-8.12-20.49a9.8 9.8 0 0 0-4.92-1.32M432 82.25a5.7 5.7 0 0 1-2.86-.77c-2.83-1.64-4.46-5.63-4.46-11 0-9.1 4.83-19.29 10.77-22.71 2.46-1.42 4.81-1.57 6.8-.41 2.84 1.63 4.46 5.63 4.46 11 0 9.09-4.83 19.28-10.77 22.71a7.9 7.9 0 0 1-3.94 1.18m7.39-34.64a7 7 0 0 0-3.45 1c-5.67 3.28-10.28 13.08-10.28 21.87 0 4.9 1.48 8.68 4 10.11 1.67 1 3.69.83 5.82-.41 5.67-3.27 10.29-13.08 10.29-21.86 0-4.9-1.49-8.68-4-10.12a4.67 4.67 0 0 0-2.38-.59" style="fill:#ba68c8"/><g style="opacity:.30000000000000004"><path d="M354.18 154.73a15.14 15.14 0 0 1-7.66-2c-7.76-4.48-12.2-15.53-12.2-30.32 0-25.5 13.5-54 30.09-63.62 6.68-3.86 13-4.26 18.39-1.17 7.76 4.43 12.2 15.48 12.2 30.27 0 25.5-13.5 54-30.1 63.62a21.5 21.5 0 0 1-10.72 3.22m21-98.23a20.67 20.67 0 0 0-10.24 3.08c-16.32 9.43-29.61 37.59-29.61 62.78 0 14.22 4.38 25.23 11.72 29.47 5 2.91 11.05 2.5 17.4-1.16 16.29-9.43 29.55-37.59 29.55-62.78 0-14.22-4.38-25.23-11.72-29.47a14.17 14.17 0 0 0-7.14-1.92Z" style="fill:#ba68c8"/></g><g style="opacity:.15"><path d="M351.26 168.44a19.2 19.2 0 0 1-9.73-2.61C331.65 160.13 326 146 326 127.17c0-32.57 17.23-69 38.42-81.26 8.49-4.9 16.58-5.42 23.38-1.49 9.88 5.71 15.55 19.8 15.55 38.66 0 32.57-17.24 69-38.44 81.26a27.43 27.43 0 0 1-13.65 4.1m26.8-125.64a26.5 26.5 0 0 0-13.16 4C344 58.84 327 94.91 327 127.17c0 18.23 5.63 32.37 15.06 37.81 6.48 3.74 14.23 3.23 22.39-1.49 20.93-12.08 37.95-48.15 37.95-80.41 0-18.23-5.63-32.37-15.05-37.81a18.27 18.27 0 0 0-9.29-2.47" style="fill:#ba68c8"/></g><path d="M385.53 94.08a.48.48 0 0 1-.42-.24.5.5 0 0 1 .18-.67l39.63-23a.49.49 0 0 1 .67.17.48.48 0 0 1-.18.67L385.78 94a.54.54 0 0 1-.25.08M160.63 154.92a15.2 15.2 0 0 1-7.58-2.28c-11.65-6.72-21.14-26.76-21.14-44.65 0-10.4 3.14-18.18 8.62-21.34 3.79-2.19 8.29-1.91 13 .81 11.66 6.73 21.14 26.76 21.14 44.66 0 10.4-3.14 18.18-8.62 21.34a10.74 10.74 0 0 1-5.42 1.46M146 86.18a9.75 9.75 0 0 0-5 1.32c-5.09 2.94-8.13 10.6-8.13 20.49 0 17.58 9.26 37.23 20.65 43.81 4.4 2.54 8.56 2.82 12 .81 5.09-2.94 8.13-10.6 8.13-20.49 0-17.58-9.26-37.24-20.65-43.81a14.3 14.3 0 0 0-7-2.13" style="fill:#ba68c8"/><g style="opacity:.30000000000000004"><path d="M163.78 169.66a21.53 21.53 0 0 1-10.73-3.22c-16.6-9.58-30.1-38.12-30.1-63.62C123 88 127.4 77 135.15 72.5c5.36-3.09 11.72-2.69 18.39 1.16 16.6 9.59 30.1 38.13 30.1 63.63 0 14.79-4.45 25.84-12.2 30.32a15.14 15.14 0 0 1-7.66 2.05m-21-98.23a14.2 14.2 0 0 0-7.18 1.92c-7.33 4.24-11.71 15.25-11.71 29.47 0 25.19 13.28 53.35 29.61 62.78 6.35 3.66 12.37 4.07 17.41 1.16 7.33-4.24 11.71-15.25 11.71-29.47 0-25.19-13.28-53.35-29.61-62.78a20.6 20.6 0 0 0-10.19-3.08Z" style="fill:#ba68c8"/></g><g style="opacity:.15"><path d="M166.7 183.37a27.5 27.5 0 0 1-13.65-4.1C131.86 167 114.62 130.58 114.62 98c0-18.87 5.66-33 15.54-38.66 6.81-3.93 14.89-3.41 23.38 1.49C174.73 73.07 192 109.53 192 142.1c0 18.87-5.66 33-15.54 38.66a19.24 19.24 0 0 1-9.76 2.61M139.89 57.73a18.23 18.23 0 0 0-9.24 2.47c-9.42 5.44-15.05 19.57-15.05 37.8 0 32.26 17 68.33 37.94 80.41 8.17 4.72 15.92 5.23 22.4 1.49 9.42-5.44 15.05-19.58 15.05-37.81 0-32.26-17-68.34-37.94-80.41a26.5 26.5 0 0 0-13.16-3.95" style="fill:#ba68c8"/></g><path d="M132.42 109a.6.6 0 0 1-.25-.06L96.52 88.21a.48.48 0 0 1-.18-.67.49.49 0 0 1 .67-.17l35.66 20.73a.49.49 0 0 1 .17.67.47.47 0 0 1-.42.23M91.56 192.34a.49.49 0 0 1-.49-.49v-23a.5.5 0 0 1 .24-.43l50-28.93a.49.49 0 0 1 .67.18.48.48 0 0 1-.18.67l-49.75 28.83v22.68a.49.49 0 0 1-.49.49" style="fill:#ba68c8"/><path d="M362.2 224.29a86.6 86.6 0 0 0 18.74-16.15c9.29-10.85 14.06-22.92 14.26-35v71.66c-.3 18.52-11.32 37-33 51.14-13.35 8.71-29.24 14.78-46.11 18.18v-71.64c16.91-3.4 32.76-9.48 46.11-18.19" style="fill:#ba68c8;opacity:.35000000000000003"/><path d="M315.59 314.74v-72.68l.4-.08c17.2-3.46 33.09-9.72 45.94-18.11a85.7 85.7 0 0 0 18.62-16.06c9.06-10.56 13.95-22.55 14.15-34.67h1v71.66c-.32 19.5-12.12 37.8-33.22 51.57-13 8.45-29 14.76-46.29 18.25Zm1-71.85v70.62c17-3.49 32.64-9.7 45.34-18 20.82-13.58 32.46-31.59 32.77-50.73v-62.59a58.7 58.7 0 0 1-13.38 26.27 87.1 87.1 0 0 1-18.84 16.25c-12.86 8.39-28.72 14.67-45.89 18.18" style="fill:#fff"/><path d="M147.53 193.1v92.33c35.36 16.32 87.42 17.46 121 10.73 20.76-4.16 38-11.79 53.51-20.76a103 103 0 0 0 11-7.27v-92.29a109 109 0 0 1-11 7.23c-15.55 9-34 15.23-53.67 18.74-26.23 4.73-84.9 4.35-120.84-8.71" style="fill:#ba68c8;opacity:.35000000000000003"/><g style="opacity:.4"><path d="M225.66 300.58c-26.54 0-55.51-4.15-78.34-14.69l-.29-.14v-93.36l.67.24c36 13.09 94.16 13.45 120.57 8.69 20.42-3.66 38.42-9.94 53.51-18.68a110 110 0 0 0 11-7.2l.8-.6v93.54l-.2.15a105 105 0 0 1-11.08 7.31C304 286.36 287 293 268.62 296.65a223.8 223.8 0 0 1-42.96 3.93M148 285.11c34.59 15.84 86.7 17.31 120.39 10.56 18.26-3.66 35.22-10.24 53.36-20.7a104 104 0 0 0 10.78-7.09v-91a111 111 0 0 1-10.28 6.67c-15.19 8.79-33.3 15.12-53.84 18.8-26.34 4.75-84.17 4.42-120.41-8.49Z" style="fill:#fff"/></g><path d="M93.15 65v62.26c0 1.35-.94 1.9-2.12 1.23L46.81 103a4.68 4.68 0 0 1-2.12-3.67V37.05c0-1.35 1-1.9 2.12-1.23L91 61.36A4.65 4.65 0 0 1 93.15 65" style="fill:#ba68c8"/><path d="M93.15 65v62.26c0 1.35-.94 1.9-2.12 1.23L46.81 103a4.68 4.68 0 0 1-2.12-3.67V37.05c0-1.35 1-1.9 2.12-1.23L91 61.36A4.65 4.65 0 0 1 93.15 65" style="fill:#fff;opacity:.2"/><path d="m55.31 72.83 3.08 1.78c.63.36 1.14.11 1.14-.57a2.44 2.44 0 0 0-1.14-1.89l-3.08-1.78c-.62-.36-1.13-.1-1.13.57a2.45 2.45 0 0 0 1.13 1.89m0 12.65 3.08 1.77c.63.37 1.14.11 1.14-.57a2.45 2.45 0 0 0-1.14-1.89L55.31 83c-.62-.36-1.13-.1-1.13.58a2.47 2.47 0 0 0 1.13 1.9m3.08 12-3.08-1.78c-.62-.36-1.13-.1-1.13.58a2.43 2.43 0 0 0 1.13 1.88l3.08 1.84c.63.37 1.14.11 1.14-.57a2.44 2.44 0 0 0-1.14-1.93Zm-3.08-43.6 3.08 1.77c.63.37 1.14.11 1.14-.57a2.45 2.45 0 0 0-1.14-1.89l-3.08-1.77c-.62-.37-1.13-.11-1.13.57a2.47 2.47 0 0 0 1.13 1.89m3.19 25.87a2.44 2.44 0 0 0 1.14 1.89l3.07 1.78c.63.36 1.14.1 1.14-.58A2.42 2.42 0 0 0 62.71 81l-3.07-1.78c-.64-.4-1.14-.15-1.14.53m5.35 15.8a2.42 2.42 0 0 0-1.14-1.88l-3.07-1.78c-.63-.37-1.14-.11-1.14.57a2.44 2.44 0 0 0 1.14 1.89l3.07 1.78c.63.36 1.14.1 1.14-.58m0-25.36a2.44 2.44 0 0 0-1.14-1.89l-3.07-1.78c-.63-.36-1.14-.1-1.14.58a2.42 2.42 0 0 0 1.14 1.9l3.07 1.78c.63.34 1.14.09 1.14-.59M62.71 62l-3.07-1.78c-.63-.37-1.14-.11-1.14.57a2.44 2.44 0 0 0 1.14 1.89l3.07 1.78c.63.36 1.14.1 1.14-.58A2.42 2.42 0 0 0 62.71 62m19.82 36.73L63.74 87.88c-.63-.36-1.14-.1-1.14.58a2.42 2.42 0 0 0 1.14 1.88l18.79 10.85c.62.36 1.13.1 1.13-.58a2.45 2.45 0 0 0-1.13-1.88m0-31.6L63.74 56.28c-.63-.36-1.14-.1-1.14.58a2.42 2.42 0 0 0 1.14 1.88l18.79 10.85c.62.36 1.13.11 1.13-.57a2.45 2.45 0 0 0-1.13-1.89m0 44.31-18.79-10.85c-.63-.36-1.14-.11-1.14.57a2.44 2.44 0 0 0 1.14 1.89l18.79 10.85c.62.36 1.13.1 1.13-.58a2.43 2.43 0 0 0-1.13-1.88m0-38-14.47-8.36c-.62-.36-1.13-.1-1.13.58a2.43 2.43 0 0 0 1.13 1.88l14.47 8.37c.62.36 1.13.11 1.13-.57a2.45 2.45 0 0 0-1.13-1.89Zm3.23-9.62L52.34 44.54a1.62 1.62 0 0 0-2.63 1.52v50.33a5.27 5.27 0 0 0 2.37 4.12L85.5 119.8a2.25 2.25 0 0 0 1.13.34 1.5 1.5 0 0 0 .72-.18 1.83 1.83 0 0 0 .79-1.68V68a5.27 5.27 0 0 0-2.38-4.17Zm1.85 54.45a1.11 1.11 0 0 1-1.85 1.07l-33.42-19.3a4.68 4.68 0 0 1-2.11-3.66V46.06a1.35 1.35 0 0 1 .53-1.23.94.94 0 0 1 .45-.11 1.8 1.8 0 0 1 .87.27l33.42 19.3A4.65 4.65 0 0 1 87.61 68Zm-5.08-38.5L68.06 71.4c-.62-.36-1.13-.1-1.13.58a2.43 2.43 0 0 0 1.13 1.88l14.47 8.37c.62.36 1.13.1 1.13-.57a2.45 2.45 0 0 0-1.13-1.89m0 25.35-14.47-8.37c-.62-.36-1.13-.1-1.13.58a2.43 2.43 0 0 0 1.13 1.88l14.47 8.37c.62.36 1.13.1 1.13-.58a2.43 2.43 0 0 0-1.13-1.88m0-19L63.74 75.24c-.63-.36-1.14-.1-1.14.58a2.42 2.42 0 0 0 1.14 1.88l18.79 10.85c.62.36 1.13.1 1.13-.57a2.45 2.45 0 0 0-1.13-1.89Zm0 6.32L68.06 84c-.62-.36-1.13-.1-1.13.58a2.47 2.47 0 0 0 1.13 1.89l14.47 8.36c.62.36 1.13.1 1.13-.57a2.45 2.45 0 0 0-1.13-1.85Z" style="fill:#fff"/><path d="m86.72 196.74 1.35 8.19a12 12 0 0 1 3.36 1.35c7.51 4.33 13.59 16.45 13.59 27.06S99 249 91.43 244.71c-6.34-3.66-11.67-12.9-13.18-22.07L73 221.52c2.09 12.83 9.53 25.73 18.42 30.86 10.52 6.08 19-1.06 19-15.91s-8.52-31.81-19-37.87a16.3 16.3 0 0 0-4.72-1.89" style="fill:#ba68c8"/><path d="M91.43 214c-4.5-2.6-8.16.45-8.16 6.82s3.66 13.63 8.16 16.23 8.16-.45 8.16-6.82-3.65-13.66-8.16-16.23M69.79 211.49c0-12.56 6.09-19.55 14.32-17.77l1.34 8.21c-5.87-1.27-10.22 3.73-10.22 12.69a31.6 31.6 0 0 0 .43 5l-5.26-1.13a43 43 0 0 1-.61-7" style="fill:#455a64"/><path d="M64.93 272.67a.48.48 0 0 1-.49-.49v-17.76a.49.49 0 0 1 .29-.45l13.14-6.06a.49.49 0 0 1 .65.24.5.5 0 0 1-.24.65l-12.86 5.93v17.45a.48.48 0 0 1-.49.49" style="fill:#ba68c8"/><path d="M75.19 290.44a.5.5 0 0 1-.24-.06l-20.52-11.85a.49.49 0 0 1-.24-.42v-11.85a.49.49 0 0 1 .24-.42.48.48 0 0 1 .49 0l20.52 11.84a.5.5 0 0 1 .24.43V290a.5.5 0 0 1-.24.43.54.54 0 0 1-.25.01m-20-12.62L74.7 289.1v-10.71l-19.53-11.28Z" style="fill:#ba68c8"/><path d="M64.93 296.36a.49.49 0 0 1-.49-.49V284a.49.49 0 1 1 1 0v11.84a.49.49 0 0 1-.51.52" style="fill:#ba68c8"/><path d="M64.93 320.05a.5.5 0 0 1-.42-.24L54.25 302a.5.5 0 0 1 .18-.67l10.26-5.92a.48.48 0 0 1 .37-.05.5.5 0 0 1 .3.23l10.25 17.76a.49.49 0 0 1-.17.67L65.18 320a.54.54 0 0 1-.25.05M55.35 302l9.76 16.92 9.41-5.43-9.77-16.92Z" style="fill:#ba68c8"/><path d="M85.45 320.05a.54.54 0 0 1-.25-.06L75 314.06a.48.48 0 0 1-.18-.67.49.49 0 0 1 .67-.17l9.51 5.49V301.8a.5.5 0 0 1 .24-.43.48.48 0 0 1 .49 0L96 307.29a.49.49 0 0 1 .18.67.48.48 0 0 1-.67.18l-9.52-5.5v16.92a.48.48 0 0 1-.25.43.5.5 0 0 1-.29.06" style="fill:#ba68c8"/><path d="M95.71 343.74a.45.45 0 0 1-.25-.07l-10.26-5.92a.48.48 0 0 1-.24-.42v-17.77a.49.49 0 0 1 .73-.42L96 325.06a.49.49 0 0 1 .18.67.5.5 0 0 1-.67.18l-9.52-5.5v16.64l10 5.78a.48.48 0 0 1 .18.67.49.49 0 0 1-.46.24M106 317.09a.42.42 0 0 1-.24-.07l-5.13-3a.48.48 0 0 1-.24-.42v-5.92a.5.5 0 0 1 .24-.43.53.53 0 0 1 .49 0l5.13 3a.47.47 0 0 1 .24.42v5.92a.47.47 0 0 1-.24.42.45.45 0 0 1-.25.08m-4.64-3.73 4.15 2.39V311l-4.15-2.39ZM106 334.86a.42.42 0 0 1-.24-.07l-5.13-3a.49.49 0 0 1-.24-.42v-5.93a.49.49 0 0 1 .24-.42.48.48 0 0 1 .49 0l5.13 3a.5.5 0 0 1 .24.43v5.92a.49.49 0 0 1-.24.42.45.45 0 0 1-.25.07m-4.64-3.74 4.15 2.4v-4.79l-4.15-2.4ZM106 352.62a.5.5 0 0 1-.24-.06l-5.13-3a.5.5 0 0 1-.24-.43v-5.92a.49.49 0 0 1 .73-.42l5.13 3a.48.48 0 0 1 .24.42v5.92a.5.5 0 0 1-.24.43.54.54 0 0 1-.25.06m-4.64-3.73 4.15 2.4v-4.8l-4.15-2.39Z" style="fill:#ba68c8"/><path d="M141.89 334.75a.42.42 0 0 1-.24-.07L110.85 317a.49.49 0 1 1 .49-.85l30.79 17.66a.48.48 0 0 1 .19.66.51.51 0 0 1-.43.28M141.89 352.41a.42.42 0 0 1-.24-.07l-30.8-17.66a.47.47 0 0 1-.18-.66.48.48 0 0 1 .67-.18l30.79 17.65a.5.5 0 0 1 .19.67.51.51 0 0 1-.43.25M141.89 370.07a.42.42 0 0 1-.24-.07l-30.8-17.66a.47.47 0 0 1-.18-.66.49.49 0 0 1 .67-.19l30.79 17.66a.5.5 0 0 1 .19.67.51.51 0 0 1-.43.25" style="fill:#455a64"/><path d="M54.68 337.93a.55.55 0 0 1-.25-.07l-10.26-5.92a.5.5 0 0 1-.24-.43v-35.64a.49.49 0 0 1 .24-.42.48.48 0 0 1 .49 0l10.26 5.92a.49.49 0 0 1 .18.67.5.5 0 0 1-.67.18l-9.52-5.5v34.51l10 5.78a.49.49 0 0 1-.24.92Z" style="fill:#ba68c8"/><path d="M75.19 361.61a.5.5 0 0 1-.24-.06L54.43 349.7a.47.47 0 0 1-.24-.42v-17.77a.49.49 0 0 1 .24-.42.48.48 0 0 1 .49 0l20.52 11.84a.5.5 0 0 1 .24.43v17.76a.5.5 0 0 1-.24.43.54.54 0 0 1-.25.06M55.17 349l19.53 11.28v-16.64l-19.53-11.28Z" style="fill:#ba68c8"/><path d="M350.45 363.19 440.89 311c2.68-1.55 4.85-.45 4.85 2.45a10.4 10.4 0 0 1-4.85 8.06l-90.44 52.19c-2.68 1.55-4.85.45-4.86-2.46a10.39 10.39 0 0 1 4.86-8.05" style="fill:#455a64"/><path d="M444.25 313.43a8.93 8.93 0 0 1-4.1 6.76l-18.48 10.67-72 41.54a3.07 3.07 0 0 1-1.53.5c-.72 0-1.08-.56-1.08-1.66a8.9 8.9 0 0 1 4.1-6.76l70.48-40.69 20-11.53a3.16 3.16 0 0 1 1.53-.5c.72 0 1.08.56 1.08 1.67" style="fill:#ba68c8"/><path d="M444.25 313.43a8.93 8.93 0 0 1-4.1 6.76l-18.48 10.67-72 41.54a3.07 3.07 0 0 1-1.53.5c-.72 0-1.08-.56-1.08-1.66a8.9 8.9 0 0 1 4.1-6.76l70.48-40.69 20-11.53a3.16 3.16 0 0 1 1.53-.5c.72 0 1.08.56 1.08 1.67" style="fill:#ba68c8"/><path d="M444.25 313.43a8.93 8.93 0 0 1-4.1 6.76l-18.48 10.67v-7.07l20-11.53a3.16 3.16 0 0 1 1.53-.5c.69 0 1.05.56 1.05 1.67" style="fill:#263238"/><path d="m371.88 352.54-20.69 11.94a8.9 8.9 0 0 0-4.1 6.76c0 1.1.36 1.66 1.08 1.66a3.07 3.07 0 0 0 1.53-.5l22.18-12.8Z" style="fill:#fff;opacity:.6000000000000001"/><path d="m371.88 359.6 25.06-14.47v-7.07l-25.06 14.47z" style="fill:#fff;opacity:.4"/><path d="M391.15 320.17a.17.17 0 0 1 .22 0 .37.37 0 0 1 .1.29v1.2a2 2 0 0 1-.05.39c0 .15-.08.34-.14.58l-2.72 11.25a3 3 0 0 1-.13.37.55.55 0 0 1-.21.26l-1 .56a.17.17 0 0 1-.22 0 .42.42 0 0 1-.1-.29 2 2 0 0 1 0-.24l2.74-11.27-3.64 2.13a.18.18 0 0 1-.23 0 .4.4 0 0 1-.09-.29v-1.28a1 1 0 0 1 .09-.4.63.63 0 0 1 .23-.27ZM393 319.62a1 1 0 0 1 .09-.4.57.57 0 0 1 .23-.27l4.41-2.55a.17.17 0 0 1 .22 0 .38.38 0 0 1 .1.29V318a.8.8 0 0 1-.1.39.54.54 0 0 1-.22.28l-3.3 1.9-.13 2.39a3.5 3.5 0 0 1 .63-.6l.51-.33a3.2 3.2 0 0 1 1.22-.43 1.37 1.37 0 0 1 1 .24 1.9 1.9 0 0 1 .64.94 4.8 4.8 0 0 1 .24 1.65 8.8 8.8 0 0 1-.24 2.12 7.5 7.5 0 0 1-.66 1.74 5.8 5.8 0 0 1-2.18 2.28 3.45 3.45 0 0 1-1.39.51 1.36 1.36 0 0 1-1-.23 1.6 1.6 0 0 1-.58-.81 4 4 0 0 1-.22-1.22.8.8 0 0 1 .09-.4.63.63 0 0 1 .23-.27l.95-.55a.18.18 0 0 1 .21 0 .31.31 0 0 1 .13.24 1.13 1.13 0 0 0 .23.55.6.6 0 0 0 .35.21.77.77 0 0 0 .44 0 3.4 3.4 0 0 0 .52-.24 2.8 2.8 0 0 0 1.08-1.19 3.85 3.85 0 0 0 .41-1.77 1.33 1.33 0 0 0-.41-1.12 1 1 0 0 0-1.08.06 3 3 0 0 0-.56.41 2.7 2.7 0 0 0-.33.38l-.24.33a.9.9 0 0 1-.27.23l-1.08.63a.17.17 0 0 1-.22 0 .4.4 0 0 1-.09-.29ZM401.19 314.28a1.4 1.4 0 0 1 .75-.23.9.9 0 0 1 .54.2 1.3 1.3 0 0 1 .33.54 2.8 2.8 0 0 1 .13.74v2a5 5 0 0 1-.13.9 5 5 0 0 1-.33.91 4.2 4.2 0 0 1-.54.82 3 3 0 0 1-.75.62 1.4 1.4 0 0 1-.75.24.8.8 0 0 1-.53-.19 1.13 1.13 0 0 1-.33-.54 2.9 2.9 0 0 1-.14-.74v-2a5 5 0 0 1 .14-.9 3.8 3.8 0 0 1 .33-.91 4 4 0 0 1 .53-.83 2.9 2.9 0 0 1 .75-.63m4.71-2.28a1.6 1.6 0 0 1 .17-.35.64.64 0 0 1 .25-.24l.68-.41a.19.19 0 0 1 .2 0 .27.27 0 0 1 .08.22.4.4 0 0 1 0 .1 1 1 0 0 1 0 .13l-5.8 15.1a2 2 0 0 1-.17.35.8.8 0 0 1-.25.24l-.71.4c-.08.05-.15.06-.2 0a.27.27 0 0 1-.08-.22s0-.05 0-.09a.7.7 0 0 1 0-.13Zm-4.09 6a3 3 0 0 0 0-.35v-1a2 2 0 0 0 0-.33.93.93 0 0 0-.15-.53c-.09-.12-.24-.12-.47 0a1 1 0 0 0-.47.52 2.3 2.3 0 0 0-.15.7v1.6700000000000002a1 1 0 0 0 .15.52c.09.12.24.12.47 0a1 1 0 0 0 .47-.52 2 2 0 0 0 .15-.68m4.47-.32a1.4 1.4 0 0 1 .75-.23.86.86 0 0 1 .53.2 1.13 1.13 0 0 1 .33.54 2.8 2.8 0 0 1 .14.74v2a5 5 0 0 1-.14.9 3.8 3.8 0 0 1-.33.91 3.7 3.7 0 0 1-.53.82 3 3 0 0 1-.75.62 1.4 1.4 0 0 1-.76.24.82.82 0 0 1-.53-.19 1.3 1.3 0 0 1-.33-.54 2.9 2.9 0 0 1-.13-.74v-2a5 5 0 0 1 .13-.9 5 5 0 0 1 .33-.91 4.5 4.5 0 0 1 .53-.83 3.1 3.1 0 0 1 .76-.62Zm.62 3.73a3 3 0 0 0 0-.35v-1a3 3 0 0 0 0-.34 1.1 1.1 0 0 0-.15-.52c-.09-.12-.25-.11-.47 0a1 1 0 0 0-.47.52 2.3 2.3 0 0 0-.16.7v1.6700000000000002a1 1 0 0 0 .16.52c.08.12.24.12.47 0a1.14 1.14 0 0 0 .47-.53 2.6 2.6 0 0 0 .15-.66ZM434 287.11a4.4 4.4 0 0 1-2.18-.56c-1.55-.9-2.41-2.74-2.41-5.19a16.65 16.65 0 0 1 7.52-13c2.12-1.22 4.14-1.4 5.7-.5S445 270.58 445 273a16.64 16.64 0 0 1-7.52 13 7.15 7.15 0 0 1-3.48 1.11m6.45-18.65a6 6 0 0 0-2.93.91 15.3 15.3 0 0 0-6.92 12c0 2 .64 3.49 1.82 4.16s2.77.5 4.51-.5a15.33 15.33 0 0 0 6.92-12c0-2-.64-3.49-1.82-4.17a3.2 3.2 0 0 0-1.6-.4Z" style="fill:#455a64"/><path d="M437.2 272.27c2.36-1.36 4.27-.25 4.27 2.46a9.39 9.39 0 0 1-4.27 7.38c-2.35 1.36-4.26.26-4.26-2.46a9.44 9.44 0 0 1 4.26-7.38M418.91 263.28a1.7 1.7 0 0 1-.88-.23 2.18 2.18 0 0 1-1-2V240a5.91 5.91 0 0 1 2.71-4.69l33.67-19.44a2.22 2.22 0 0 1 2.23-.18 2.19 2.19 0 0 1 1 2v21.06a5.91 5.91 0 0 1-2.71 4.69l-11.48 6.65-3.37 11.46a1.13 1.13 0 0 1-1 .83 1.16 1.16 0 0 1-1.12-.69L434 255l-13.77 7.92a2.67 2.67 0 0 1-1.32.36m35-46.6-33.68 19.44A5 5 0 0 0 418 240v21a1.05 1.05 0 0 0 1.76 1l14.69-8.45 3.33 7.7a.2.2 0 0 0 .37 0l3.48-11.83 11.8-6.85a5 5 0 0 0 2.24-3.86v-21.02a1.05 1.05 0 0 0-1.76-1Z" style="fill:#ba68c8"/><path d="M425.27 242.05a.48.48 0 0 1-.24-.89l23.17-13.38a.48.48 0 0 1 .65.18.47.47 0 0 1-.17.64L425.5 242a.4.4 0 0 1-.23.05M425.27 246.53a.44.44 0 0 1-.41-.24.47.47 0 0 1 .17-.65l23.17-13.37a.48.48 0 0 1 .65.17.48.48 0 0 1-.17.65l-23.18 13.38a.46.46 0 0 1-.23.06M425.27 251a.48.48 0 0 1-.24-.89l23.17-13.38a.48.48 0 0 1 .48.83L425.5 251a.4.4 0 0 1-.23 0M417.09 111.12a.45.45 0 0 1-.25-.07.48.48 0 0 1-.24-.42V106a.5.5 0 0 1 .24-.43l4-2.29a.49.49 0 0 1 .73.42v4.59a.5.5 0 0 1-.24.43l-4 2.29a.44.44 0 0 1-.24.11m.48-4.8v3.46l3-1.73v-3.46Z" style="fill:#ba68c8"/><path d="M425 104.1a.48.48 0 0 1-.42-.25.49.49 0 0 1 .17-.67l27.85-16.07a.48.48 0 0 1 .67.18.5.5 0 0 1-.18.67L425.28 104a.42.42 0 0 1-.28.1" style="fill:#455a64"/><path d="M417.09 120.37a.54.54 0 0 1-.25-.06.5.5 0 0 1-.24-.43v-4.59a.47.47 0 0 1 .24-.42l4-2.3a.48.48 0 0 1 .49 0 .49.49 0 0 1 .24.42v4.6a.49.49 0 0 1-.24.42l-4 2.3a.5.5 0 0 1-.24.06m.48-4.8V119l3-1.73v-3.46Z" style="fill:#ba68c8"/><path d="M425 113.35a.48.48 0 0 1-.42-.25.49.49 0 0 1 .17-.67l27.85-16.07a.49.49 0 0 1 .49.85l-27.85 16.07a.42.42 0 0 1-.24.07" style="fill:#455a64"/><path d="M417.09 129.62a.54.54 0 0 1-.25-.06.5.5 0 0 1-.24-.43v-4.59a.49.49 0 0 1 .24-.42l4-2.3a.48.48 0 0 1 .49 0 .5.5 0 0 1 .24.43v4.59a.48.48 0 0 1-.24.42l-4 2.3a.5.5 0 0 1-.24.06m.48-4.8v3.47l3-1.73v-3.47Z" style="fill:#ba68c8"/><path d="M425 122.6a.49.49 0 0 1-.42-.24.49.49 0 0 1 .17-.67l27.85-16.08a.5.5 0 0 1 .67.18.5.5 0 0 1-.18.67l-27.85 16.08a.5.5 0 0 1-.24.06" style="fill:#455a64"/><path d="M417.09 138.88a.55.55 0 0 1-.25-.07.49.49 0 0 1-.24-.42v-4.6a.49.49 0 0 1 .24-.42l4-2.3a.53.53 0 0 1 .49 0 .5.5 0 0 1 .24.43v4.59a.48.48 0 0 1-.24.42l-4 2.3a.55.55 0 0 1-.24.07m.48-4.8v3.46l3-1.73v-3.47Z" style="fill:#ba68c8"/><path d="M425 131.85a.49.49 0 0 1-.42-.24.49.49 0 0 1 .17-.67l27.85-16.07a.49.49 0 0 1 .67.17.5.5 0 0 1-.18.67l-27.85 16.08a.5.5 0 0 1-.24.06" style="fill:#455a64"/></svg>