<svg xmlns="http://www.w3.org/2000/svg" viewBox="0 0 500 500"><path d="M322.78 288.33h88.24v122.11h-88.24z" style="fill:#ebebeb"/><path d="M318.5 283.8h96.79v4.53H318.5z" style="fill:#dbdbdb"/><path d="M415.29 283.8h30.44v4.53h-30.44z" style="fill:#ebebeb"/><path d="M411.01 288.33h29.9v122.11h-29.9z" style="fill:#dbdbdb"/><path d="M401.53 344.86h-69.27V305.7h69.27Zm-69-.25h68.77V306h-68.79Z" style="fill:#c7c7c7"/><path d="M357.23 317.15h13.48v7.75h-13.48z" style="fill:#c7c7c7"/><path d="M374.82 324.44h-13.73v-6.83h13.73Zm-13.48-.25h13.23v-6.33h-13.23ZM401.53 394h-69.27v-39.14h69.27Zm-69-.25h68.77v-38.64h-68.79Z" style="fill:#c7c7c7"/><path d="M357.23 366.31h13.48v7.75h-13.48z" style="fill:#c7c7c7"/><path d="M374.82 373.6h-13.73v-6.83h13.73Zm-13.48-.25h13.23V367h-13.23Z" style="fill:#c7c7c7"/><path d="M74.39 132.33a3.21 3.21 0 0 1 3.35 0c.28.17.57.34.86.49s.59.31.89.45a3.21 3.21 0 0 1 1.87 2.77l.12 4.13 13.43-.42-.12-4.15a3.14 3.14 0 0 1 1.69-2.87c.57-.32 1.13-.66 1.67-1a3.23 3.23 0 0 1 3.36-.24l3.63 2 6.35-11.85-3.63-1.94a3.21 3.21 0 0 1-1.66-2.93 18 18 0 0 0-.07-2 3.18 3.18 0 0 1 1.46-3l3.52-2.19L104 98.14l-3.52 2.19a3.14 3.14 0 0 1-3.29 0l-.91-.52-.93-.47a3.12 3.12 0 0 1-1.82-2.75l-.13-4.13-13.4.42.13 4.12a3.15 3.15 0 0 1-1.62 2.87 18 18 0 0 0-1.82 1.13 3.13 3.13 0 0 1-3.28.18l-3.63-1.94-6.35 11.84 3.62 2a3.21 3.21 0 0 1 1.67 2.93c0 .66 0 1.31.06 2a3.19 3.19 0 0 1-1.46 3l-3.52 2.17 7.09 11.42Zm2.76-19.9A11 11 0 1 1 81 125.26a11 11 0 0 1-3.85-12.83M122.69 84.92a2.24 2.24 0 0 1 2.08-1.1h1.39a2.24 2.24 0 0 1 2.07 1.09l1.44 2.51 8.15-4.71-1.44-2.5a2.26 2.26 0 0 1 .08-2.35 13 13 0 0 0 .71-1.21 2.23 2.23 0 0 1 2-1.24H142V66h-2.89a2.23 2.23 0 0 1-2-1.24 13 13 0 0 0-.71-1.21 2.26 2.26 0 0 1-.08-2.35l1.44-2.5-8.09-4.7-1.45 2.52a2.24 2.24 0 0 1-2.07 1.09h-1.38a2.24 2.24 0 0 1-2.08-1.1L121.25 54l-8.16 4.71 1.45 2.49a2.26 2.26 0 0 1-.08 2.35 11 11 0 0 0-.71 1.22 2.24 2.24 0 0 1-2 1.24h-2.88v9.41h2.88a2.24 2.24 0 0 1 2 1.24 11 11 0 0 0 .71 1.22 2.26 2.26 0 0 1 .08 2.35l-1.45 2.49 8.16 4.71Zm-5-14.21a7.72 7.72 0 1 1 7.72 7.71 7.72 7.72 0 0 1-7.67-7.71ZM436.57 250.56l-4.7-8.16-2.5 1.45a2.24 2.24 0 0 1-2.34-.08 13 13 0 0 0-1.22-.71 2.22 2.22 0 0 1-1.24-2v-2.88h-9.42v2.88a2.23 2.23 0 0 1-1.23 2 11 11 0 0 0-1.22.71 2.26 2.26 0 0 1-2.35.08l-2.5-1.45-4.7 8.16 2.51 1.44a2.23 2.23 0 0 1 1.09 2.08v1.38a2.23 2.23 0 0 1-1.09 2.07l-2.51 1.47 4.7 8.15 2.51-1.44a2.24 2.24 0 0 1 2.34.08 13 13 0 0 0 1.22.71 2.23 2.23 0 0 1 1.23 2v2.88h9.42v-2.88a2.23 2.23 0 0 1 1.23-2 13 13 0 0 0 1.22-.71 2.26 2.26 0 0 1 2.35-.08l2.5 1.44 4.7-8.15-2.5-1.44a2.23 2.23 0 0 1-1.09-2.07v-1.39a2.23 2.23 0 0 1 1.09-2.08Zm-9 4.21a7.71 7.71 0 1 1-7.71-7.71 7.71 7.71 0 0 1 7.71 7.71M267.92 53a7.44 7.44 0 0 1 1.18-4.13 3.64 3.64 0 0 1 6.41 0 8 8 0 0 1 0 8.26 4 4 0 0 1-3.2 1.92 3.93 3.93 0 0 1-3.21-1.92 7.44 7.44 0 0 1-1.18-4.13m6.83 0a5.75 5.75 0 0 0-.83-3.07 2 2 0 0 0-1.61-1.06 2.09 2.09 0 0 0-1.64 1.06 5.66 5.66 0 0 0-.83 3.07 5.6 5.6 0 0 0 .83 3.06 2.08 2.08 0 0 0 1.64 1.07 2 2 0 0 0 1.61-1.07 5.7 5.7 0 0 0 .83-3.06M283.7 47.9v10.19a1 1 0 0 1-1 .95.93.93 0 0 1-1-.95v-8.5l-.69.4a.9.9 0 0 1-.49.13.94.94 0 0 1-.81-.48.91.91 0 0 1 .31-1.29l2.13-1.27h.26a.1.1 0 0 1 .07 0h.38a.15.15 0 0 1 .1 0h.07c.05 0 .07.06.1.06h.07s.06 0 .07.05 0 0 .07.07a.13.13 0 0 1 .05.07l.07.07v.43ZM289.49 47.9v10.19a1 1 0 0 1-1 .95.93.93 0 0 1-.95-.95v-8.5l-.69.4a.9.9 0 0 1-.49.13.93.93 0 0 1-.81-.48.91.91 0 0 1 .31-1.29l2.14-1.27h.26a.1.1 0 0 1 .07 0h.38a.15.15 0 0 1 .1 0h.07c.05 0 .07.06.1.06h.07l.07.05s.05 0 .07.07a.13.13 0 0 1 .05.07l.07.07v.43ZM295.28 47.9v10.19a1 1 0 0 1-1 .95.93.93 0 0 1-.95-.95v-8.5l-.69.4a.9.9 0 0 1-.49.13 1 1 0 0 1-.5-1.77l2.13-1.27h.71a.15.15 0 0 1 .1 0h.07c.05 0 .07.06.1.06h.07l.07.05s.05 0 .07.07a.2.2 0 0 1 .05.07l.07.07v.14a.5.5 0 0 1 0 .09 1 1 0 0 0 0 .08v.12ZM297.47 53a7.44 7.44 0 0 1 1.18-4.13 3.64 3.64 0 0 1 6.41 0 7.93 7.93 0 0 1 0 8.26 4 4 0 0 1-3.2 1.92 3.93 3.93 0 0 1-3.21-1.92 7.44 7.44 0 0 1-1.18-4.13m6.83 0a5.75 5.75 0 0 0-.83-3.07 2 2 0 0 0-1.61-1.06 2.09 2.09 0 0 0-1.64 1.06 5.75 5.75 0 0 0-.83 3.07 5.7 5.7 0 0 0 .83 3.06 2.08 2.08 0 0 0 1.64 1.07 2 2 0 0 0 1.61-1.07 5.7 5.7 0 0 0 .83-3.06M309.74 53a7.44 7.44 0 0 1 1.18-4.13 3.88 3.88 0 0 1 3.21-1.87 3.93 3.93 0 0 1 3.2 1.91 7.93 7.93 0 0 1 0 8.26 4 4 0 0 1-3.2 1.92 3.91 3.91 0 0 1-3.21-1.92 7.44 7.44 0 0 1-1.18-4.17m6.83 0a5.75 5.75 0 0 0-.83-3.07 2 2 0 0 0-1.61-1.06 2.09 2.09 0 0 0-1.64 1.06 5.66 5.66 0 0 0-.83 3.07 5.6 5.6 0 0 0 .83 3.06 2.08 2.08 0 0 0 1.64 1.07 2 2 0 0 0 1.61-1.07 5.7 5.7 0 0 0 .83-3.06M322 53a7.44 7.44 0 0 1 1.18-4.13A3.88 3.88 0 0 1 326.4 47a3.93 3.93 0 0 1 3.2 1.91 7.93 7.93 0 0 1 0 8.26 4 4 0 0 1-3.2 1.83 3.91 3.91 0 0 1-3.21-1.92A7.44 7.44 0 0 1 322 53m6.83 0a5.75 5.75 0 0 0-.83-3.07 2 2 0 0 0-1.61-1.06 2.09 2.09 0 0 0-1.64 1.06 5.66 5.66 0 0 0-.83 3.07 5.6 5.6 0 0 0 .83 3.06 2.08 2.08 0 0 0 1.64 1.07 2 2 0 0 0 1.61-1.08 5.7 5.7 0 0 0 .84-3.05ZM337.79 47.9v10.19a1 1 0 0 1-1 .95.94.94 0 0 1-.95-.95v-8.5l-.69.4a.9.9 0 0 1-.48.13.94.94 0 0 1-.82-.48.91.91 0 0 1 .31-1.29l2.13-1.27h.26a.1.1 0 0 1 .07 0h.38a.15.15 0 0 1 .1 0h.07c.05 0 .07.06.11.06h.06s.06 0 .07.05.05 0 .07.07a.13.13 0 0 1 .05.07.5.5 0 0 1 .07.07s0 0 0 .05v.38ZM340 53a7.44 7.44 0 0 1 1.18-4.13 3.64 3.64 0 0 1 6.41 0 7.93 7.93 0 0 1 0 8.26 4 4 0 0 1-3.2 1.92 3.93 3.93 0 0 1-3.21-1.92A7.44 7.44 0 0 1 340 53m6.83 0a5.75 5.75 0 0 0-.83-3.07 2 2 0 0 0-1.61-1.06 2.1 2.1 0 0 0-1.64 1.06 5.75 5.75 0 0 0-.85 3.07 5.7 5.7 0 0 0 .83 3.06 2.09 2.09 0 0 0 1.64 1.07 2 2 0 0 0 1.63-1.08 5.7 5.7 0 0 0 .81-3.05ZM271.56 68.63v10.2a1 1 0 0 1-1 1 .93.93 0 0 1-.95-1v-8.5l-.69.39a.84.84 0 0 1-.49.14.94.94 0 0 1-.81-.48.93.93 0 0 1 .31-1.3l2.13-1.26h.07c.02 0 0 0 .08-.06h.11a.1.1 0 0 1 .07 0 .23.23 0 0 1 .12 0h.19a.1.1 0 0 0 .07 0 .24.24 0 0 1 .1 0 .1.1 0 0 1 .07 0s.07 0 .1 0l.07.06h.07s.05 0 .07.07a.1.1 0 0 1 .05.07l.07.06v.38ZM273.75 73.73a7.44 7.44 0 0 1 1.18-4.13 3.64 3.64 0 0 1 6.41 0 7.93 7.93 0 0 1 0 8.26 4 4 0 0 1-3.2 1.92 3.93 3.93 0 0 1-3.21-1.92 7.46 7.46 0 0 1-1.18-4.13m6.83 0a5.75 5.75 0 0 0-.83-3.07 2 2 0 0 0-1.61-1.06 2.08 2.08 0 0 0-1.64 1.06 6.07 6.07 0 0 0 0 6.13 2.12 2.12 0 0 0 1.64 1.07 2 2 0 0 0 1.61-1.07 5.7 5.7 0 0 0 .83-3.06M289.53 68.63v10.2a1 1 0 0 1-1 1 .94.94 0 0 1-.95-1v-8.5l-.69.39a.8.8 0 0 1-.48.14.94.94 0 0 1-.82-.48.93.93 0 0 1 .32-1.3l2.12-1.26h.07c.02 0 .05 0 .09-.06h.1a.1.1 0 0 1 .07 0 .25.25 0 0 1 .12 0h.19a.1.1 0 0 0 .07 0 .24.24 0 0 1 .1 0s.06 0 .07 0h.11a.14.14 0 0 0 .07.06h.07a.2.2 0 0 1 .06.07.14.14 0 0 1 .06.07l.07.06a.16.16 0 0 1 0 .09v.08a1 1 0 0 0 0 .09.16.16 0 0 0 0 .12ZM291.72 73.73a7.44 7.44 0 0 1 1.18-4.13 3.64 3.64 0 0 1 6.41 0 7.93 7.93 0 0 1 0 8.26 3.64 3.64 0 0 1-6.41 0 7.46 7.46 0 0 1-1.18-4.13m6.83 0a5.66 5.66 0 0 0-.83-3.07 2 2 0 0 0-1.61-1.06 2.08 2.08 0 0 0-1.64 1.06 6.07 6.07 0 0 0 0 6.13 2.12 2.12 0 0 0 1.64 1.07 2 2 0 0 0 1.61-1.07 5.63 5.63 0 0 0 .83-3.06M304 73.73a7.44 7.44 0 0 1 1.18-4.13 3.64 3.64 0 0 1 6.41 0 7.93 7.93 0 0 1 0 8.26 3.64 3.64 0 0 1-6.41 0 7.46 7.46 0 0 1-1.18-4.13m6.83 0a5.75 5.75 0 0 0-.83-3.07 2 2 0 0 0-1.61-1.06 2.08 2.08 0 0 0-1.64 1.06 6.07 6.07 0 0 0 0 6.13 2.12 2.12 0 0 0 1.64 1.07 2 2 0 0 0 1.61-1.07 5.7 5.7 0 0 0 .82-3.06ZM316.26 73.73a7.44 7.44 0 0 1 1.18-4.13 3.64 3.64 0 0 1 6.41 0 7.93 7.93 0 0 1 0 8.26 3.64 3.64 0 0 1-6.41 0 7.46 7.46 0 0 1-1.18-4.13m6.83 0a5.75 5.75 0 0 0-.83-3.07 2 2 0 0 0-1.61-1.06 2.08 2.08 0 0 0-1.65 1.06 6.07 6.07 0 0 0 0 6.13 2.12 2.12 0 0 0 1.64 1.07 2 2 0 0 0 1.61-1.07 5.7 5.7 0 0 0 .84-3.06M332 68.63v10.2a1 1 0 0 1-1 1 .94.94 0 0 1-1-1v-8.5l-.69.39a.8.8 0 0 1-.48.14 1 1 0 0 1-.5-1.78l2.12-1.26h.07c.01 0 .05 0 .09-.06h.1a.1.1 0 0 1 .07 0 .3.3 0 0 1 .12 0h.19a.1.1 0 0 0 .07 0 .4.4 0 0 1 .11 0 .1.1 0 0 1 .07 0h.1a.2.2 0 0 0 .07.06h.07a.5.5 0 0 1 .07.07.3.3 0 0 1 .05.07l.07.06v.16999999999999998a1 1 0 0 0 0 .09.16.16 0 0 0 0 .12ZM334.24 73.73a7.35 7.35 0 0 1 1.17-4.13 3.63 3.63 0 0 1 6.41 0 7.93 7.93 0 0 1 0 8.26 3.63 3.63 0 0 1-6.41 0 7.37 7.37 0 0 1-1.17-4.13m6.82 0a5.66 5.66 0 0 0-.83-3.07 2 2 0 0 0-1.6-1.06 2.05 2.05 0 0 0-1.63 1.06 6.07 6.07 0 0 0 0 6.13 2.09 2.09 0 0 0 1.64 1.07 2 2 0 0 0 1.6-1.07 5.63 5.63 0 0 0 .82-3.06M350 68.63v10.2a1 1 0 0 1-1 1 .93.93 0 0 1-.95-1v-8.5l-.69.39a.84.84 0 0 1-.49.14.91.91 0 0 1-.81-.48.93.93 0 0 1 .31-1.3l2.13-1.26h.07c.02 0 .05 0 .08-.06h.16999999999999998a.3.3 0 0 1 .13 0h.36a.1.1 0 0 1 .07 0h.1l.07.06h.07l.07.07.05.07.07.06v.16999999999999998a1 1 0 0 0 0 .09v.12ZM268 94.47a7.4 7.4 0 0 1 1.18-4.13 3.64 3.64 0 0 1 6.41 0 7.93 7.93 0 0 1 0 8.26 4 4 0 0 1-3.2 1.92 3.93 3.93 0 0 1-3.21-1.92 7.5 7.5 0 0 1-1.18-4.13m6.83 0a5.8 5.8 0 0 0-.83-3.08 2 2 0 0 0-1.61-1 2.09 2.09 0 0 0-1.64 1 5.8 5.8 0 0 0-.83 3.08 5.7 5.7 0 0 0 .83 3.06 2.12 2.12 0 0 0 1.64 1.07 2 2 0 0 0 1.61-1.07 5.7 5.7 0 0 0 .79-3.06ZM280.23 94.47a7.4 7.4 0 0 1 1.18-4.13 3.64 3.64 0 0 1 6.41 0 7.93 7.93 0 0 1 0 8.26 4 4 0 0 1-3.2 1.92 3.93 3.93 0 0 1-3.21-1.92 7.5 7.5 0 0 1-1.18-4.13m6.83 0a5.8 5.8 0 0 0-.83-3.08 2 2 0 0 0-1.61-1 2.09 2.09 0 0 0-1.64 1 5.8 5.8 0 0 0-.83 3.08 5.7 5.7 0 0 0 .83 3.06 2.12 2.12 0 0 0 1.64 1.07 2 2 0 0 0 1.61-1.07 5.7 5.7 0 0 0 .83-3.06M296 89.37v10.2a1 1 0 0 1-1 1 .94.94 0 0 1-1-1v-8.51l-.69.4a.8.8 0 0 1-.48.14 1 1 0 0 1-.5-1.78l2.12-1.26h.26a.1.1 0 0 1 .07 0 .3.3 0 0 1 .12 0h.19a.1.1 0 0 0 .07 0 .24.24 0 0 1 .1 0s.06 0 .07 0 .07.05.11.05a.1.1 0 0 0 .07 0s0 0 .07.06.05 0 .06.06l.06.07a.2.2 0 0 0 .07.07.14.14 0 0 1 0 .09v.08a1 1 0 0 0 0 .09.17.17 0 0 0 0 .12ZM298.21 94.47a7.33 7.33 0 0 1 1.17-4.13 3.63 3.63 0 0 1 6.41 0 7.93 7.93 0 0 1 0 8.26 3.63 3.63 0 0 1-6.41 0 7.4 7.4 0 0 1-1.17-4.13m6.82 0a5.7 5.7 0 0 0-.83-3.08 2 2 0 0 0-1.6-1 2.09 2.09 0 0 0-1.65 1 5.8 5.8 0 0 0-.83 3.08 5.7 5.7 0 0 0 .83 3.06 2.12 2.12 0 0 0 1.65 1.07 2 2 0 0 0 1.6-1.07 5.63 5.63 0 0 0 .8-3.06ZM310.47 94.47a7.4 7.4 0 0 1 1.18-4.13 3.64 3.64 0 0 1 6.41 0 7.93 7.93 0 0 1 0 8.26 3.64 3.64 0 0 1-6.41 0 7.5 7.5 0 0 1-1.18-4.13m6.83 0a5.7 5.7 0 0 0-.83-3.08 2 2 0 0 0-1.61-1 2.09 2.09 0 0 0-1.64 1 5.8 5.8 0 0 0-.83 3.08 5.7 5.7 0 0 0 .83 3.06 2.12 2.12 0 0 0 1.64 1.07 2 2 0 0 0 1.61-1.07 5.63 5.63 0 0 0 .83-3.06M326.25 89.37v10.2a1 1 0 0 1-1 1 1 1 0 0 1-1-1v-8.51l-.69.4a.8.8 0 0 1-.48.14 1 1 0 0 1-.5-1.78l2.12-1.26h.26a.1.1 0 0 1 .07 0 .3.3 0 0 1 .12 0h.19a.1.1 0 0 0 .07 0 .4.4 0 0 1 .11 0 .1.1 0 0 1 .07 0c.05 0 .06.05.1.05a.13.13 0 0 0 .07 0l.07.06.07.06v.07a.5.5 0 0 0 .07.07.15.15 0 0 1 0 .09v.08a1 1 0 0 0 0 .09.17.17 0 0 0 0 .12ZM332 89.37v10.2a1 1 0 0 1-1 1 1 1 0 0 1-1-1v-8.51l-.69.4a.8.8 0 0 1-.48.14 1 1 0 0 1-.5-1.78l2.12-1.26h.26a.1.1 0 0 1 .07 0 .3.3 0 0 1 .12 0h.19a.1.1 0 0 0 .07 0 .4.4 0 0 1 .11 0 .1.1 0 0 1 .07 0c.05 0 .06.05.1.05a.13.13 0 0 0 .07 0l.07.06s.05 0 .07.06l.05.07.07.07a.15.15 0 0 1 0 .09v.08a1 1 0 0 0 0 .09.17.17 0 0 0 0 .12ZM334.24 94.47a7.33 7.33 0 0 1 1.17-4.13 3.63 3.63 0 0 1 6.41 0 7.93 7.93 0 0 1 0 8.26 3.63 3.63 0 0 1-6.41 0 7.4 7.4 0 0 1-1.17-4.13m6.82 0a5.7 5.7 0 0 0-.83-3.08 2 2 0 0 0-1.6-1 2.06 2.06 0 0 0-1.64 1 5.7 5.7 0 0 0-.83 3.08 5.63 5.63 0 0 0 .83 3.06 2.09 2.09 0 0 0 1.64 1.07 2 2 0 0 0 1.6-1.07 5.63 5.63 0 0 0 .83-3.06M350 89.37v10.2a1 1 0 0 1-1 1 .94.94 0 0 1-.95-1v-8.51l-.69.4a.84.84 0 0 1-.49.14.91.91 0 0 1-.81-.48.92.92 0 0 1 .31-1.3l2.13-1.26h.32a.3.3 0 0 1 .13 0h.36a.1.1 0 0 1 .07 0c.05 0 .07.05.1.05a.2.2 0 0 0 .07 0l.07.06s.05 0 .07.06l.05.07a.5.5 0 0 0 .07.07.15.15 0 0 1 0 .09.4.4 0 0 1 0 .08 1 1 0 0 0 0 .09.14.14 0 0 0 0 .12Z" style="fill:#ebebeb"/><path d="m51.54 410.48 49.62-.25 49.61-.09 99.23-.16 99.23.16 49.61.09 49.62.25-49.62.24-49.61.09-99.23.17-99.23-.17-49.61-.09z" style="fill:#263238"/><ellipse cx="103.3" cy="456.14" rx="44.28" ry="8.5" style="fill:#ebebeb"/><ellipse cx="267.97" cy="455.47" rx="173.02" ry="16.97" style="fill:#ebebeb"/><path d="m181.38 314.51 2.78 16.68L203 432.89h3.03l-13.69-101.7-2.03-16.68z" style="fill:#c7c7c7"/><path d="M190.31 314.51h-8.93l2.78 16.68h8.18z" style="fill:#a6a6a6"/><path d="M122.24 432.89h3.04l18.83-101.7 2.78-16.68h-8.93l-2.02 16.68z" style="fill:#c7c7c7"/><path d="m137.96 314.51-2.02 16.68h8.17l2.78-16.68z" style="fill:#a6a6a6"/><path d="M65.75 432.89h3.04l18.83-101.7 2.78-16.68h-8.93l-2.02 16.68z" style="fill:#c7c7c7"/><path d="M79.45 331.19h8.17l2.78-16.68h-8.93z" style="fill:#a6a6a6"/><path d="M70.57 322.35h138v-14.54h-51.66l-26.9-150.72H56.75z" style="fill:#c7c7c7"/><path d="M71.16 307.81h137.41v14.54H70.64z" style="fill:#dbdbdb"/><path d="M70.57 322.35h7.52L63.92 157.09h-7.17z" style="fill:#dbdbdb"/><path d="M194.42 457.27c-2.87-.39-75.17-36.46-77-39.5-.23-.35 2.88-6.95 7.31-15.93 10-20.33 30-54.7 30-54.7l43.52 24.46-24 45.38s8 9.74 14.57 18c4 5.09 7.47 9.61 8.1 11 1.7 3.53.37 11.69-2.5 11.29" style="fill:#d3766a"/><path d="M194.42 457.27c-2.87-.39-75.17-36.46-77-39.5-.23-.35 2.88-6.95 7.31-15.93 16.07 12.65 60.91 42.18 64.13 39.08 1.28-1.24 1-3.5 0-5.91 4 5.09 7.47 9.61 8.1 11 1.66 3.5.33 11.66-2.54 11.26" style="fill:#263238"/><path d="m182.89 413-50.43-26.61s38.47-75.4 37.46-76.71c-3.53-4.55-46.13-2.48-64.53-20.77-19.48-19.36-4.6-46.93-4.6-46.93h50.9s-.47 13.81 1.72 15.62c1.45 1.21 76.29 8.42 79.22 28.17C237.7 319.92 182.89 413 182.89 413" style="fill:#37474f"/><path d="M186 403.56c-6.06-3.66-12.28-7-18.52-10.4s-12.51-6.64-18.85-9.78c-3.58-1.77-7.23-3.38-10.82-5.14a.1.1 0 0 0-.09.17c3.14 1.69 6.19 3.54 9.32 5.24s6.18 3.35 9.29 5c6.25 3.32 12.55 6.56 18.82 9.84 3.54 1.85 7.12 3.6 10.72 5.31a.13.13 0 1 0 .13-.24M190 301.27c-1.25-2.59-4.58-3-7.05-3.59q-10.15-2.54-20.3-5.05c-12-3-24.36-5.78-35.1-12.13-5.13-3-10.12-6.87-12.68-12.41s-2.56-11.44-2.6-17.29c0-1.44.08-2.89.17-4.33 0-.12-.19-.12-.2 0-.37 5.76-1 11.52.33 17.22a23.4 23.4 0 0 0 3.23 7.77 26.7 26.7 0 0 0 5.85 6.14c9.5 7.46 21.42 11 32.95 14 6.51 1.67 13.05 3.25 19.58 4.85l10.09 2.47a9.25 9.25 0 0 1 4.14 1.63 4.36 4.36 0 0 1 1.25 3.66 14.4 14.4 0 0 1-1 4c-.6 1.58-1.24 3.15-1.88 4.72q-1.86 4.59-3.82 9.14-4 9.18-8.22 18.22c-5.66 12-11.71 23.85-17.87 35.61-.77 1.46-1.52 2.94-2.27 4.41 0 .09.09.16.14.08 6.6-11.63 12.77-23.52 18.64-35.53s11.38-24 16.1-36.45c.78-2.2 1.57-4.9.52-7.14" style="fill:#263238"/><path d="M339.35 460c-2.76.91-83.55.05-86.53-1.88-.35-.21-.38-17.53-.38-17.53-13.26-30.12-25.27-59.25-25.27-59.25l56.48-.07 20 51.29s11.49 5.24 21 9.83c5.83 2.81 10.91 5.38 12.07 6.32 3.01 2.43 5.38 10.35 2.63 11.29" style="fill:#d3766a"/><path d="M339.35 460c-2.76.91-83.55.05-86.53-1.88-.35-.21-.44-7.51-.38-17.53 20 4.36 73.22 11.33 74.76 7.13.61-1.66-.66-3.56-2.57-5.31 5.83 2.81 10.91 5.38 12.07 6.32 3.03 2.41 5.4 10.33 2.65 11.27" style="fill:#263238"/><path d="m299.47 421.68-61-.45s-30.68-79-35.62-84.3c-2.51-2.69-19.3-5.67-39.34-10.07h-.11c-7.41-1.63-15.26-3.45-23-5.53-20.12-5.37-39.47-12.43-48.29-22.18-18.43-20.38 0-57.2 0-57.2h51.94s1.29 16-2.69 25.84c0 0 38.21 5.61 70.39 16.05 18.23 5.92 34.52 13.39 40.83 22.28 12.34 17.37 46.89 115.56 46.89 115.56" style="fill:#37474f"/><path d="M292.59 412.53c-7.07-.52-14.14-.7-21.22-.87s-14.17-.25-21.25-.17c-4 0-8 .27-12 .33a.1.1 0 1 0 0 .19c3.56.08 7.12.35 10.69.44s7 .18 10.53.24c7.08.12 14.16.15 21.24.23 4 .05 8 0 12-.13a.13.13 0 0 0 .01-.26M118.58 249.51a3.5 3.5 0 0 1-.29.69.09.09 0 0 0 0 .12c-.69 2.13-1 4.39-1.63 6.52a10.15 10.15 0 0 1-3.94 5.63c-4 2.8-8.88 4.07-13.56 5.23-.15 0-.1.25 0 .26a25.9 25.9 0 0 0 8-1.23 21 21 0 0 0 6.84-3.23 10.56 10.56 0 0 0 3.87-5.82 37 37 0 0 0 .67-3.75 29 29 0 0 0 .47-4.38.2.2 0 0 0-.43-.04M150.88 264.21a59 59 0 0 0-9.34 3.56l-.15.07a2.3 2.3 0 0 0 .14-.57c0-.22.08-.45.11-.67s.06-.47.08-.71v-.36a2.76 2.76 0 0 0 2-1 7.3 7.3 0 0 0 1.25-2.93c.35-1.33.68-2.67 1-4s.59-3 .83-4.51a29 29 0 0 0 .51-4.47.21.21 0 0 0-.41 0c-.35 1.37-.51 2.8-.77 4.19s-.56 2.79-.88 4.18-.67 2.77-1 4.14-.68 3-2.1 3.39c-2.91.83-1.6-5.71-1.47-7 .29-3 .48-6 1-8.92a.1.1 0 0 0-.19-.05c-.63 2.7-1.35 5.35-1.83 8.09a56 56 0 0 0-.55 4 6.24 6.24 0 0 0 .26 3.48 2.55 2.55 0 0 0 1.93 1.42l-.09.31c-.07.21-.14.43-.19.65s-.11.44-.16.66a1.6 1.6 0 0 0-.09.81.33.33 0 0 0 .14.17c-1.25.54-2.49 1.08-3.72 1.65a32.5 32.5 0 0 0-4.48 2.18c-.17.08 0 .31.12.28a33 33 0 0 0 4.7-1.7c1.56-.6 3.1-1.23 4.64-1.87a59 59 0 0 0 8.88-4.14.14.14 0 0 0-.17-.33" style="fill:#263238"/><path d="M233.89 383q-4.83-11.94-10.21-23.64t-11.38-23.13c-1.73-3.32-3.3-6.68-6.78-8.46a25 25 0 0 0-5-1.78c-2-.54-4-1.06-6.08-1.58-16.54-4.17-33.26-7.62-49.69-12.23-8.22-2.3-16.36-4.9-24.31-8-6.45-2.52-12.89-5.45-18.26-9.91a29.2 29.2 0 0 1-6.55-7.46c-2-3.41-6.79-12.68.26-40.76 0-.12-.14-.22-.18-.1-5.62 20-4.43 30.9-3.4 34.87a25.3 25.3 0 0 0 4.61 9.31c4.16 5.31 10 9 16 11.87a168 168 0 0 0 22.26 8.34c16.38 5.13 33.18 8.73 49.86 12.68q6.21 1.5 12.39 3c3.68.94 8 1.69 10.62 4.68a24.2 24.2 0 0 1 3.08 5.09q1.49 2.87 2.94 5.74 3 5.91 5.84 11.86 11.25 23.52 20.48 47.94c.76 2 1.51 4 2.28 6 .06.15.3.08.25-.08-2.64-8.13-5.8-16.25-9.03-24.25" style="fill:#263238"/><path d="M211.57 353.89a58.5 58.5 0 0 0-4.4-10.87c-1.62-3.19-3.44-7-7-8.35a52 52 0 0 0-5.79-1.59q-3.06-.78-6.14-1.51-6.16-1.45-12.36-2.76c-4.6-1-9.24-1.87-13.91-2.37-.11 0-.12.16 0 .19 3.95 1.15 8 2 12 3s7.81 1.85 11.71 2.8 8 2 12 3a9.76 9.76 0 0 1 4.68 2.47c1.79 1.76 7.94 14.7 8.93 16.63.25.59.44-.06.28-.64M232.81 291.42a94 94 0 0 0-14.81-6.77c-5.83-2-11.79-3.65-17.73-5.27q-18.35-5-37.09-8.35-5.33-1-10.68-1.81a95 95 0 0 0-10.5-1.29c-.13 0-.14.18 0 .21 3.08.76 6.26 1.24 9.39 1.77s6.19 1.09 9.28 1.68q9.25 1.77 18.45 3.86c12.14 2.76 24.29 5.77 36.15 9.52a158 158 0 0 1 17.31 6.9.26.26 0 0 0 .23-.45M163.41 208.53c-.67 0-3.77-.16-8.32-.33a25.5 25.5 0 0 1-1.69-15.43c.22-1.19-3.06 5.53-2.54 15.27-8.79-.34-20.74-.82-31.17-1.33 0-4.08-.08-7.87-.08-7.87a45.5 45.5 0 0 1-2.19 7.77c-1.43-.06-2.83-.15-4.17-.21a160 160 0 0 0 .32-17.38 55.7 55.7 0 0 1-6.25 17c-6.62-.39-11-.77-10.67-1.07 10.74-10.85 3.82-17.92 7.31-27.86 4.18-11.9 14.75-13.16 15-22.28.24-7.42.16-20.92 9.7-23.2a18.06 18.06 0 0 1 19.79-2.51c14.43 6.6 7.14 29.06 7.85 33.77 1 6.73 4 9.26 5.91 17s-1.89 12.67-2.61 17.84 5.47 10.91 3.81 10.82" style="fill:#263238"/><path d="M96.46 203.34a25.9 25.9 0 0 0 3.62-6.28c.9-2.21.72-4.54.41-6.95s-.69-4.86-.76-7.4a19.35 19.35 0 0 1 1.22-7.57 16.9 16.9 0 0 1 4.4-6.32 44 44 0 0 1 6-4.47 27.3 27.3 0 0 0 5.56-4.54 13.3 13.3 0 0 0 3.08-6.45 12.45 12.45 0 0 1-2.37 7 25 25 0 0 1-5.42 5.17 57 57 0 0 0-5.6 4.58 16.1 16.1 0 0 0-3.83 5.73 19 19 0 0 0-1.13 6.85c0 2.38.28 4.79.44 7.27a25 25 0 0 1 0 3.79 11 11 0 0 1-1.07 3.71 21.2 21.2 0 0 1-4.55 5.88M156.29 138.17a37.7 37.7 0 0 1 1.45 9c.19 3 .22 6.06.23 9.08v4.5a23 23 0 0 0 .41 4.33 23.8 23.8 0 0 0 3.55 7.9 36 36 0 0 1 2.17 4.11 21.5 21.5 0 0 1 1.36 4.53 30.4 30.4 0 0 1 .36 4.66 19.3 19.3 0 0 1-.55 4.66c-.37 1.52-.89 3-1.35 4.36a23 23 0 0 0-1 4.3 9.28 9.28 0 0 0 3.16 7.88 9.41 9.41 0 0 1-4.09-7.94 22 22 0 0 1 .68-4.58c.35-1.49.82-2.92 1.08-4.34a24.3 24.3 0 0 0-.14-8.67 22 22 0 0 0-1.3-4.09 33 33 0 0 0-2.1-3.87 46 46 0 0 1-2.22-4 18.5 18.5 0 0 1-1.47-4.51 24 24 0 0 1-.3-4.67c0-1.53.08-3 .15-4.54.12-3 .29-6 .34-9a44.4 44.4 0 0 0-.42-9.1" style="fill:#263238"/><path d="M132.12 185.68C142.58 210 155.24 227.42 163.7 228c15.06 1.09 52.81-25.91 53.73-27.28 3.51-5.26-15.31-24-20-25.15-1-.24-30 24.52-32.38 23.56-2-.81-6.31-4.62-18.8-17.15-8.64-8.62-20.82-11.84-14.13 3.7M207.38 164.37c4.56-2.19 9.61-5.07 14.9-5.54s10.4 6 10.62 8-.44 14.63-5.71 15.2-3.11-9.32-3.43-10.39-.67-2.45-1.65-2.24-17.49 10.34-17.49 10.34Z" style="fill:#d3766a"/><path d="M207.79 165.06c.3 0 13.82-7.13 19.1-7.6s10.41 6 10.62 8-.43 14.63-5.7 15.2-3.12-9.32-3.44-10.39-.66-2.45-1.65-2.24-17.49 10.34-17.49 10.34Z" style="fill:#d3766a"/><path d="M230 180.2a6.4 6.4 0 0 1-1.22-3 11.3 11.3 0 0 1-.17-3.39 18.6 18.6 0 0 0 .33-3 5.8 5.8 0 0 0-1-2.7c-.48-.7-1.23-.36-1.87-.05a27 27 0 0 0-2.73 1.6c-.95.61-1.89 1.24-2.83 1.86a27.5 27.5 0 0 0-2.88 2c-.06.06 0 .18.08.14a27 27 0 0 0 2.54-1.49c1-.58 1.91-1.15 2.87-1.71s1.77-1.09 2.68-1.6c.32-.17.95-.61 1.34-.56s.72 1 .84 1.32a5 5 0 0 1 .13 2.87 14.6 14.6 0 0 0-.24 3 7.7 7.7 0 0 0 .52 2.72 10.5 10.5 0 0 0 1.5 2.13c-.02.07.11-.06.11-.14" style="fill:#263238"/><path d="M192.57 180.69s13.17-14.88 15.92-17.86c5.53-6 30.08-19.22 33.62-20s5.62 6.44-11 15.94c-8.75 5-9.82 10.45-9.33 13.35s3.86 8 8.75 7.37 7.3-8.16 11.72-9.45 2.34 7.3-.33 12.42a30.1 30.1 0 0 1-12.08 11.72c-4.07 2.05-16.59 9.13-16.59 9.13Z" style="fill:#d3766a"/><path d="M236.26 175.39c-1.7 1.63-3.59 3.71-6 4.07s-4.31-1.09-5.7-3a9.34 9.34 0 0 1-2-6.65 11.5 11.5 0 0 1 2.77-5.86 27.5 27.5 0 0 1 6.17-5.14c.1-.07 0-.21-.12-.15-2.15 1.25-8.86 4.88-9.59 11.24a9.57 9.57 0 0 0 2.11 6.76c1.3 1.84 3.08 3.55 5.48 3.48 2.93-.07 5.17-2.7 7.06-4.68.05-.1-.1-.15-.18-.07M250.29 140.09a15.8 15.8 0 0 1 3.41-2.44 15.5 15.5 0 0 1 3.88-1.56 17.4 17.4 0 0 1-7.29 4M244.26 135.24a15.8 15.8 0 0 1 .68-4.13 15.4 15.4 0 0 1 1.64-3.84 15.3 15.3 0 0 1-.68 4.12 15.7 15.7 0 0 1-1.64 3.85M236.56 136.08a17.6 17.6 0 0 1-4-7.28 15.4 15.4 0 0 1 2.43 3.4 15.7 15.7 0 0 1 1.57 3.88M231.71 142.12a15.7 15.7 0 0 1-4.12-.68 15.3 15.3 0 0 1-3.85-1.65 17.6 17.6 0 0 1 8 2.33ZM246.29 153.82a15.7 15.7 0 0 1 2.43 3.4 15.3 15.3 0 0 1 1.56 3.88 15.4 15.4 0 0 1-2.43-3.4 15.7 15.7 0 0 1-1.56-3.88M251.14 147.78a17.7 17.7 0 0 1 8 2.33 15.8 15.8 0 0 1-4.13-.68 15.6 15.6 0 0 1-3.87-1.65" style="fill:#263238"/><path d="M129.15 180.94c1.59 6.85 8.13 19.69 8.13 19.69l25.72-5.39s-15.65-16.59-26.81-22.16c-4.47-2.24-8.65.92-7.04 7.86" style="fill:#ffc727"/><path d="M129.15 180.94c1.59 6.85 8.13 19.69 8.13 19.69l25.72-5.39s-15.65-16.59-26.81-22.16c-4.47-2.24-8.65.92-7.04 7.86" style="fill:#ffc727"/><path d="M136.72 197.12c3.77-1.05 7.54-2.05 11.37-2.88 1.91-.42 3.82-.8 5.74-1.16s3.87-.51 5.78-.9c.11 0 .13.15 0 .17-1.93.28-3.83.83-5.74 1.21s-3.82.79-5.73 1.2c-3.81.81-7.63 1.62-11.42 2.52-.08.03-.1-.13 0-.16" style="fill:#263238"/><path d="M145.66 182.59a8.2 8.2 0 0 1 1.11-1.89 8.4 8.4 0 0 1-.62 2.11 8.3 8.3 0 0 1-1.15 1.89 8.4 8.4 0 0 1 .66-2.11m-10.51-2a8.1 8.1 0 0 0-1.9-1.12 8.3 8.3 0 0 0-2.11-.62 8.5 8.5 0 0 0 1.9 1.11 8.3 8.3 0 0 0 2.11.6Zm2.41 13.1a8.4 8.4 0 0 0 2.13-.56 8 8 0 0 0 1.94-1 8 8 0 0 0-2.13.56 8.3 8.3 0 0 0-1.94.97Zm12.49 2.21a8.2 8.2 0 0 0 .5 2l.52-.11a7.6 7.6 0 0 0-1.02-1.92Z" style="fill:#fff"/><path d="m158.23 196.24-20.95 4.39s-6.54-12.84-8.13-19.69c-.92-3.95 0-6.67 1.87-7.87Z" style="fill:#263238"/><path d="M156.16 248.16S131.73 254 85.44 250c0 0 18.1-57.77 32.68-73.35 6.63-7.09 13.12-6 18.61-1.45 1.37 1.14 18.37 22.72 19.81 30.24 1.27 6.64-4.13 14-4.13 14Z" style="fill:#ffc727"/><path d="M109.3 223.15a8.1 8.1 0 0 1 1.12-1.9 8.3 8.3 0 0 1-.63 2.11 8.5 8.5 0 0 1-1.11 1.9 8.3 8.3 0 0 1 .62-2.11m19.3-22.66a8.5 8.5 0 0 0 1.12-1.9 8.3 8.3 0 0 0 .62-2.11 9.25 9.25 0 0 0-1.74 4Zm-35.66 47.18a8.5 8.5 0 0 0 1.11-1.9 8.3 8.3 0 0 0 .63-2.11 8 8 0 0 0-1.12 1.89 8.4 8.4 0 0 0-.62 2.12m44.26-16.54a8.5 8.5 0 0 0 1.12-1.9 8.3 8.3 0 0 0 .62-2.11 9.25 9.25 0 0 0-1.74 4ZM122.74 177a7.9 7.9 0 0 0 1.11-1.89 8 8 0 0 0 .63-2.12 8.1 8.1 0 0 0-1.11 1.9 8.4 8.4 0 0 0-.63 2.11m3.69 45a8 8 0 0 0-1.9-1.11 8 8 0 0 0-2.11-.62 8.5 8.5 0 0 0 1.9 1.11 8.3 8.3 0 0 0 2.11.62m23.26-11.63a8.2 8.2 0 0 0-1.89-1.11 8.4 8.4 0 0 0-2.11-.63 8 8 0 0 0 1.89 1.12 8.4 8.4 0 0 0 2.11.59Zm-14.54-29.78a8.1 8.1 0 0 0-1.9-1.12 8.3 8.3 0 0 0-2.11-.62 8.5 8.5 0 0 0 1.9 1.11 8.3 8.3 0 0 0 2.11.6Zm1.11 65a8 8 0 0 0-1.9-1.11 7.8 7.8 0 0 0-2.11-.62 8.5 8.5 0 0 0 1.9 1.11 8.3 8.3 0 0 0 2.11.62M111 195.23a9.25 9.25 0 0 0-4-1.74 8.2 8.2 0 0 0 1.9 1.12 8.3 8.3 0 0 0 2.1.62m-4.1 44.15a8.1 8.1 0 0 0-1.9-1.12 8.3 8.3 0 0 0-2.11-.62 8.5 8.5 0 0 0 1.9 1.11 8.3 8.3 0 0 0 2.06.63Zm11.45-5.46a8.3 8.3 0 0 0 2.13-.55 8 8 0 0 0 1.94-1.06 9.24 9.24 0 0 0-4.07 1.61m29.28-9.92a8 8 0 0 0 2.13-.55 8.3 8.3 0 0 0 1.94-1 8 8 0 0 0-2.13.55 8.3 8.3 0 0 0-1.94 1m-32.35-16.86a8.5 8.5 0 0 0 2.13-.55 8.1 8.1 0 0 0 1.93-1.06 9.14 9.14 0 0 0-4.06 1.61m22.28-13.45a8.4 8.4 0 0 0 2.13-.56 8 8 0 0 0 1.94-1 8 8 0 0 0-2.13.56 8.3 8.3 0 0 0-1.94.97ZM93.79 229a8.5 8.5 0 0 0 2.13-.56 8 8 0 0 0 1.93-1 9.14 9.14 0 0 0-4.06 1.56m8-20.85a8 8 0 0 0 .55 2.13 8.4 8.4 0 0 0 1 1.93 8 8 0 0 0-.55-2.13 8.4 8.4 0 0 0-1.03-1.95Zm32.84 3a9.1 9.1 0 0 0 1.6 4.07 8 8 0 0 0-.55-2.13 8.3 8.3 0 0 0-1.08-1.93Zm12.37 28.5a9.24 9.24 0 0 0 1.61 4.07 8 8 0 0 0-.56-2.13 8.1 8.1 0 0 0-1.05-1.94m-31.67 4.63a8.5 8.5 0 0 0 .56 2.13 8 8 0 0 0 1.05 1.93 8.5 8.5 0 0 0-.56-2.13 8 8 0 0 0-1.09-1.93Zm3.27-59.63a8.5 8.5 0 0 0 .56 2.13 8 8 0 0 0 1 1.93 8.5 8.5 0 0 0-.56-2.13 8 8 0 0 0-1.04-1.93Zm31.49 11.22a8.5 8.5 0 0 0 .56 2.13 8 8 0 0 0 1 1.93 9.14 9.14 0 0 0-1.61-4.06Z" style="fill:#fff"/><path d="M126.08 173.75c.06 1.28 4.44 10.32 10.09 11.09 1.84.25 3.64-9.74 3.64-9.74l.3-.7 4.22-9.9-10.69-10-1.56-1.35s-1 2.78-2.15 6.26c-.06.16-.11.32-.17.49s-.14.38-.2.57c-.18.51-.37 1-.54 1.57s-.27.8-.39 1.23-.26.84-.39 1.27a69 69 0 0 0-2.16 9.21" style="fill:#d3766a"/><path d="M129.93 159.39a21.61 21.61 0 0 0 10.18 15l4.22-9.9-10.69-10-1.56-1.35s-.97 2.77-2.15 6.25" style="fill:#263238"/><path d="M159.93 147.47c2.46 18.71-8.47 22.3-12.5 22.83-3.67.48-16.21 1.64-20.59-16.72s3.53-25.42 11.86-27 18.76 2.17 21.23 20.89" style="fill:#d3766a"/><path d="M152.75 158.18a4.84 4.84 0 0 1-1.61 1.81 2.2 2.2 0 0 1-1.28.31c-1-.07-1.15-.92-1.12-1.68a5.3 5.3 0 0 1 .21-1.19 6.2 6.2 0 0 0 3.8.75" style="fill:#263238"/><path d="M151.14 160a2.2 2.2 0 0 1-1.28.31c-1-.07-1.15-.92-1.12-1.68a2.23 2.23 0 0 1 2.4 1.37" style="fill:#ff99ba"/><path d="M156.86 144.58c-.45 0-.86-.08-1.3-.12a2.14 2.14 0 0 1-1.3-.39.66.66 0 0 1-.08-.81 1.65 1.65 0 0 1 1.59-.57 2.5 2.5 0 0 1 1.62.69.72.72 0 0 1-.53 1.2M144 146a11 11 0 0 0 1.24-.41 2.13 2.13 0 0 0 1.18-.65.68.68 0 0 0-.09-.82 1.66 1.66 0 0 0-1.67-.2 2.37 2.37 0 0 0-1.43 1A.71.71 0 0 0 144 146M147.47 150.23s-.1.07-.09.13c.21 1.27.24 2.75-.86 3.33v.07c1.4-.39 1.35-2.36.95-3.53" style="fill:#263238"/><path d="M146.15 149.05c-2.07.12-1.68 4.25.24 4.14s1.5-4.19-.24-4.14" style="fill:#263238"/><path d="M145.36 149.35c-.34.26-.65.71-1.08.79s-.92-.3-1.29-.68h-.07c.06.79.44 1.58 1.3 1.62s1.28-.72 1.4-1.53c.03-.11-.12-.31-.26-.2M154.55 149.3c0-.05.11 0 .11.1.07 1.28.37 2.74 1.56 3.07v.07c-1.43-.08-1.81-2.02-1.67-3.24" style="fill:#263238"/><path d="M155.58 147.86c2-.33 2.56 3.78.67 4.09s-2.38-3.81-.67-4.09" style="fill:#263238"/><path d="M156.48 148c.35.18.72.54 1.11.51s.73-.51 1-1c0-.05.06 0 .07 0 .12.79 0 1.64-.78 1.89s-1.26-.39-1.55-1.15c-.08-.06 0-.25.15-.25M148.3 160.75c.32.29.65.68 1.12.7a3.3 3.3 0 0 0 1.36-.39s.08 0 .06.07a1.74 1.74 0 0 1-1.6.77 1.37 1.37 0 0 1-1.06-1.09c-.02-.07.07-.1.12-.06M153.16 155.57s.46 1.88.56 2.78c0 .08-.21.14-.51.2a4.28 4.28 0 0 1-4.32-1.16.09.09 0 0 1 .12-.14 6.5 6.5 0 0 0 4 .71c0-.26-.91-3.2-.77-3.22a8 8 0 0 1 2.1.24c-.86-3.94-2.34-7.72-3.13-11.66a.13.13 0 0 1 .23-.09 65.6 65.6 0 0 1 3.9 12.43c.12.5-1.81.02-2.18-.09M128.42 154.85c2-.46 6.33-6.92 4.84-16.72 0 0 .73 8.89.29 10.29s2.42-3.63 1.33-11.55a32.4 32.4 0 0 0 8.79 2.83c3.9.41 6.17 0 6.39-.32s-5.55-1.12-7.32-2.58c0 0 10.68 2.94 15.31 2.52.53 0-.67-11-8.5-14.43s-18.17 3.44-20.69 6.85c0 0-3.44 1.1-6.4 7s3.8 16.6 5.96 16.11" style="fill:#263238"/><path d="M144.55 156.87a5.92 5.92 0 1 1 5.76-7.38 5.94 5.94 0 0 1-4.29 7.2 6.2 6.2 0 0 1-1.47.18m0-11.06a5.6 5.6 0 0 0-1.27.15 5.16 5.16 0 1 0 1.27-.15M158.05 155.24c-2.26 0-4.32-2.33-4.67-5.4a7.1 7.1 0 0 1 .77-4.26 3.69 3.69 0 0 1 6.28-.72 7 7 0 0 1 1.71 4c.38 3.25-1.29 6.11-3.7 6.39a2.6 2.6 0 0 1-.39-.01m-.57-11h-.3a3.13 3.13 0 0 0-2.34 1.73 6.3 6.3 0 0 0-.67 3.78c.32 2.81 2.19 4.91 4.18 4.68s3.33-2.7 3-5.51a6.27 6.27 0 0 0-1.52-3.52 3.24 3.24 0 0 0-2.35-1.18Z" style="fill:#455a64"/><path d="m150.19 150.2-.57-.55c.8-.85 2.75-2.09 4.37-.72l-.52.6c-1.47-1.23-3.2.59-3.28.67M124.14 154.73l-.74-.29c.14-.34 1.33-3.38 3.06-3.87s12.27-.68 12.72-.68v.79c-3.06.06-11.28.3-12.53.65s-2.19 2.56-2.51 3.4" style="fill:#455a64"/><path d="M127.71 160.49a4 4 0 0 0 .89.18 3 3 0 0 0 .89 0 2.7 2.7 0 0 0 1.07-.4 3.3 3.3 0 0 0 1.35-1.68l-1.26-5s-4.39-5.7-7-4.11.87 9.98 4.06 11.01" style="fill:#d3766a"/><path d="M124.71 151.86v.08c2.24.79 3.49 2.78 4.39 4.86a1.75 1.75 0 0 0-2.65-.36c-.06 0 0 .13.06.11a2 2 0 0 1 2.19.59 9.2 9.2 0 0 1 1.11 1.7c.11.19.46.07.38-.15v-.05c-.1-2.81-2.45-6.64-5.48-6.78" style="fill:#263238"/><path d="M127.94 159.68a.88.88 0 1 0 .64-1.06.87.87 0 0 0-.64 1.06M126.09 158.44a.6.6 0 0 0 .74.45.61.61 0 0 0 .46-.75.63.63 0 0 0-.75-.45.61.61 0 0 0-.45.75" style="fill:#fff"/><path d="M115 180c-12.47 20.17-28.74 53.83-19.41 60 15.41 10.24 57.47 12.79 67.09 13 4.15.09 9.68-27.55 6.59-30.74s-47.12-1.25-47.7-3.91c-.33-1.51 1.92-14.94 4.57-31.64 3.05-19.27-7.54-12.49-11.14-6.71" style="fill:#d3766a"/><path d="M166.88 216.49c10-1.39 12.82-.21 20.66-5.89 5.14-3.72 9.73-2 6.79 3.88-4.8 9.68-17.36 14.2-22.16 14.51Z" style="fill:#d3766a"/><path d="M140.24 226.15s11.27-6.26 21.81-8.8c7.29-1.77 23.58-3.83 39.16 12.24 3.69 3.81 6.26 11.86-2 7.83-5.89-2.86-8.77-6.46-12.5-7.5 0 0 2.05 10.63-1.91 14.18a98 98 0 0 1-11 8.55 21 21 0 0 1-1.79-1.92s-4 3-11.57 2.25Z" style="fill:#d3766a"/><path d="M169.28 216.78c3.48 1.81 10.8 5.79 15.66 11.12 5.4 5.93 14.2 18.8 9.78 22.74-3.24 2.88-7-1.73-7-1.73s2.52 6.08-1 8c-3.18 1.79-5.9-1.95-5.9-1.95s.89 3.95-2.51 5.09c-4.09 1.37-5.29-7.15-10.63-9.34-1.21-.44 1.6-33.93 1.6-33.93" style="fill:#d3766a"/><path d="M177.5 232.59c3 2.25 8.5 9.1 10 16.19 0 .16-.07.27-.13.13a78.8 78.8 0 0 0-9.94-16.27s.04-.07.07-.05M171.85 238.33c2.39 2.2 7.74 9.51 9 16.75 0 .16-.08.27-.14.13a84.3 84.3 0 0 0-9-16.84s.11-.07.14-.04" style="fill:#263238"/><path d="M152.88 220.3a55.5 55.5 0 0 1 13.8-3.92c2.38-.32 4.78-.47 7.16-.72a27.4 27.4 0 0 0 7-1.48 30.6 30.6 0 0 0 6.2-3.49 21 21 0 0 1 3.14-1.83 4.8 4.8 0 0 1 3.67-.25 2.42 2.42 0 0 1 1.49 1.23 3.33 3.33 0 0 1 .23 1.91 10.3 10.3 0 0 1-1.25 3.45 21.9 21.9 0 0 1-4.47 5.72l-.05-.48a56.8 56.8 0 0 1 9.15 6.38 26.6 26.6 0 0 1 3.82 4.12 11.15 11.15 0 0 1 2.43 5.14 3.2 3.2 0 0 1-.25 1.54 2.4 2.4 0 0 1-1.12 1.15 4.2 4.2 0 0 1-3 0 20.3 20.3 0 0 1-5-2.67c-1.53-1.08-3-2.24-4.47-3.3a26 26 0 0 0-2.3-1.51 7.6 7.6 0 0 0-2.43-1l.29-.53a70 70 0 0 1 4.75 6.45 34.2 34.2 0 0 1 3.59 7.18 15.7 15.7 0 0 1 1 3.93 5.2 5.2 0 0 1-.22 2.07 3.44 3.44 0 0 1-1.3 1.68 4.2 4.2 0 0 1-4 .45 8.7 8.7 0 0 1-3.25-2.44l.38-.24a12.5 12.5 0 0 1 1 3.84 4.85 4.85 0 0 1-1.09 3.81 3.71 3.71 0 0 1-3.78 1 7.54 7.54 0 0 1-3.25-2.26l.25-.23a6.1 6.1 0 0 1-.05 2.41 3.7 3.7 0 0 1-1.22 2.07 4 4 0 0 1-2.22.89 3 3 0 0 1-2.15-1 24 24 0 0 1-2.78-3.82 15.6 15.6 0 0 0-3-3.65 15.9 15.9 0 0 1 3 3.6 23 23 0 0 0 2.83 3.75 2.82 2.82 0 0 0 2 .92 3.7 3.7 0 0 0 2.07-.87 4.44 4.44 0 0 0 1.11-4.22l-.11-.56.39.41a7.37 7.37 0 0 0 3.11 2.12 3.34 3.34 0 0 0 3.39-.9 4.5 4.5 0 0 0 1-3.5 12.3 12.3 0 0 0-1-3.69l-.54-1.28.92 1a8.2 8.2 0 0 0 3.07 2.3 3.76 3.76 0 0 0 3.57-.42 3.39 3.39 0 0 0 1.27-3.3 15 15 0 0 0-1-3.79 32.8 32.8 0 0 0-3.58-7 67 67 0 0 0-4.73-6.36l-.56-.67.84.14a8 8 0 0 1 2.69 1.07c.81.47 1.59 1 2.35 1.53 1.52 1.07 3 2.23 4.48 3.27A19.1 19.1 0 0 0 201 238a3.5 3.5 0 0 0 2.44.09 1.92 1.92 0 0 0 1-2 10.5 10.5 0 0 0-2.27-4.78 26.7 26.7 0 0 0-3.69-4 57.3 57.3 0 0 0-9-6.36l-.36-.21.31-.27a21.4 21.4 0 0 0 4.37-5.53 9.9 9.9 0 0 0 1.21-3.26 2.8 2.8 0 0 0-.17-1.61 2 2 0 0 0-1.2-1 4.34 4.34 0 0 0-3.31.22 20.5 20.5 0 0 0-3.07 1.77 31.2 31.2 0 0 1-6.32 3.5c-4.59 1.71-9.5 1.49-14.23 2.05a56 56 0 0 0-13.83 3.69" style="fill:#263238"/><path d="m99.08 205.6 26.68-2.81s1.83-13.36 1.8-20.89c0-10-3.75-12.29-11.76-3.06-5.36 6.16-16.72 26.76-16.72 26.76" style="fill:#ffc727"/><path d="M123.37 174.86a8.1 8.1 0 0 1 1.11-1.9 8 8 0 0 1-.63 2.12 7.9 7.9 0 0 1-1.11 1.89 8.4 8.4 0 0 1 .63-2.11M111 195.23a9.25 9.25 0 0 0-4-1.74 8.2 8.2 0 0 0 1.9 1.12 8.3 8.3 0 0 0 2.1.62m7.61-10.58a8.5 8.5 0 0 0 .56 2.13 8 8 0 0 0 1 1.93 8.5 8.5 0 0 0-.56-2.13 8 8 0 0 0-1.05-1.93Z" style="fill:#fff"/><path d="M122.5 203.14c.29-.08 3-.46 3.22-.43.18-1.58.33-3.16.52-4.73.1-.79.21-1.58.33-2.36s.24-1.85.36-2.61c0-.12.18-.11.17 0-.06 1-.13 1.76-.18 2.63s-.12 1.56-.2 2.33c-.17 1.65-.29 3.4-.55 5a25.4 25.4 0 0 1-3.66.22c-.05.04-.05-.04-.01-.05" style="fill:#263238"/><path d="M101.53 202.78c3.85-.68 7.7-1.3 11.59-1.75 1.94-.22 3.88-.42 5.82-.58s3.91-.13 5.85-.33c.1 0 .11.17 0 .17-1.94.09-3.89.45-5.83.65s-3.88.4-5.82.62c-3.88.43-7.75.86-11.62 1.39-.09.05-.1-.15.01-.17M78.73 260.2h358.54v12.75H78.73z" style="fill:#263238"/><path d="M78.73 267.97h358.54v4.98H78.73zM91.59 451.85h-5.15l15-178.9h13.15z" style="fill:#455a64"/><path d="m114.59 272.95-1.54 11.97h-12.61l1-11.97z" style="fill:#263238"/><path d="M424.41 451.85h5.15l-15-178.9h-13.15z" style="fill:#455a64"/><path d="m401.41 272.95 1.54 11.97h12.61l-1-11.97z" style="fill:#263238"/><path d="M332.06 55.78h106.3v76.25h-106.3z" style="fill:#fff"/><path d="M438.61 132.28h-106.8V55.53h106.8Zm-106.3-.5h105.8V56h-105.8Z" style="fill:#ebebeb"/><path d="M332.06 55.78h106.3v9.3h-106.3z" style="fill:#ffc727"/><path d="M438.61 65.33h-106.8v-9.8h106.8Zm-106.3-.5h105.8V56h-105.8Z" style="fill:#ebebeb"/><path d="M340.79 60.5a2.34 2.34 0 1 1-2.34-2.34 2.34 2.34 0 0 1 2.34 2.34" style="fill:#263238"/><path d="M350.35 60.5a2.34 2.34 0 1 1-2.35-2.34 2.34 2.34 0 0 1 2.35 2.34" style="fill:#ebebeb"/><path d="M359.91 60.5a2.34 2.34 0 1 1-2.34-2.34 2.34 2.34 0 0 1 2.34 2.34" style="fill:#455a64"/><path d="M332.06 64.58h106.3v1h-106.3zM341.76 79.68h3.42v1.25h-3.42zM347.66 79.68h42.27v1.25h-42.27z" style="fill:#ebebeb"/><path d="M392.03 79.68h7.49v1.25h-7.49z" style="fill:#ffc727"/><path d="M403.42 96.37h6.49v1.25h-6.49z" style="fill:#ebebeb"/><path d="M400.93 79.68h21.87v1.25h-21.87z" style="fill:#a6a6a6"/><path d="M345.17 83.01h3.42v1.25h-3.42z" style="fill:#ebebeb"/><path d="M350.99 83.01h33.71v1.25h-33.71zM391.15 96.37h10.73v1.25h-10.73zM347.66 93.03h24.56v1.25h-24.56z" style="fill:#a6a6a6"/><path d="M350.99 86.35h17.23v1.25h-17.23z" style="fill:#ffc727"/><path d="M397.37 89.69h17.23v1.25h-17.23zM370.14 86.35h31.6v1.25h-31.6z" style="fill:#a6a6a6"/><path d="M347.66 96.37h41.26v1.25h-41.26zM400.21 83.01h28.46v1.25h-28.46z" style="fill:#ffc727"/><path d="M386.32 83.01h12.48v1.25h-12.48zM413.69 86.35h11.06v1.25h-11.06zM345.17 86.35h3.42v1.25h-3.42z" style="fill:#ebebeb"/><path d="M341.76 89.69h3.42v1.25h-3.42z" style="fill:#a6a6a6"/><path d="M347.66 89.69h20.19v1.25h-20.19zM350.99 99.71h20.19v1.25h-20.19z" style="fill:#ebebeb"/><path d="M391.72 103.05h27v1.25h-27zM372.82 99.71h23.33v1.25h-23.33z" style="fill:#ffc727"/><path d="M369.25 103.05h20.71v1.25h-20.71z" style="fill:#ebebeb"/><path d="M350.99 103.05h5.84v1.25h-5.84z" style="fill:#a6a6a6"/><path d="M373.61 93.03h25.91v1.25h-25.91z" style="fill:#ebebeb"/><path d="M400.93 93.03h24.54v1.25h-24.54zM369.9 89.69h24.88v1.25H369.9z" style="fill:#ffc727"/><path d="M341.76 93.03h3.42v1.25h-3.42zM341.76 96.37h3.42v1.25h-3.42z" style="fill:#ebebeb"/><path d="M345.17 99.71h3.42v1.25h-3.42z" style="fill:#a6a6a6"/><path d="M345.17 103.05h3.42v1.25h-3.42zM341.76 105.85h3.42v1.25h-3.42zM347.66 105.85h48.05v1.25h-48.05zM345.17 109.18h3.42v1.25h-3.42z" style="fill:#ebebeb"/><path d="M350.99 109.18h33.71v1.25h-33.71zM347.66 119.2h24.56v1.25h-24.56z" style="fill:#a6a6a6"/><path d="M350.99 112.52h17.23v1.25h-17.23z" style="fill:#ffc727"/><path d="M370.14 112.52h31.6v1.25h-31.6z" style="fill:#a6a6a6"/><path d="M347.66 122.54h41.26v1.25h-41.26zM400.21 109.18h28.46v1.25h-28.46z" style="fill:#ffc727"/><path d="M386.32 109.18h12.48v1.25h-12.48zM413.69 112.52h11.06v1.25h-11.06zM345.17 112.52h3.42v1.25h-3.42z" style="fill:#ebebeb"/><path d="M341.76 115.86h3.42v1.25h-3.42z" style="fill:#a6a6a6"/><path d="M347.66 115.86h20.19v1.25h-20.19zM373.61 119.2h25.91v1.25h-25.91z" style="fill:#ebebeb"/><path d="M369.9 115.86h24.88v1.25H369.9z" style="fill:#ffc727"/><path d="M341.76 119.2h3.42v1.25h-3.42z" style="fill:#ebebeb"/><path d="M343.87 76.39a.3.3 0 1 1-.42.42l-1.32-1.33v-.19l1.32-1.33a.3.3 0 0 1 .42.42l-1.11 1.12ZM345.06 76.54l1.15-2.73a.25.25 0 0 1 .34-.14.26.26 0 0 1 .14.33l-1.15 2.74a.27.27 0 0 1-.24.16h-.1a.27.27 0 0 1-.14-.36M349 75.44l-1.32 1.33a.3.3 0 0 1-.21.09.3.3 0 0 1-.21-.51l1.11-1.12-1.11-1.12a.3.3 0 1 1 .42-.42l1.32 1.33v.42" style="fill:#ffc727"/><path d="M432.87 253.81h-1.2V253h.4v-.4h.8zM430.07 253.81h-1.61V253h1.61Zm-3.21 0h-1.6V253h1.6Zm-3.2 0h-1.6V253h1.6Zm-3.21 0h-1.6V253h1.6Zm-3.2 0h-1.6V253h1.6Zm-3.2 0h-1.61V253h1.61Zm-3.21 0h-1.6V253h1.6Zm-3.2 0H406V253h1.6Zm-3.21 0h-1.6V253h1.6Zm-3.2 0h-1.6V253h1.6Zm-3.2 0h-1.61V253H398Zm-3.21 0h-1.6V253h1.6Zm-3.2 0H390V253h1.6Zm-3.21 0h-1.6V253h1.6Zm-3.2 0h-1.6V253h1.6Zm-3.2 0h-1.6V253H382Zm-3.21 0h-1.6V253h1.6ZM375.6 253.81h-1.2v-1.21h.8v.4h.4zM375.2 251h-.8v-1.6h.8Zm0-3.2h-.8v-1.6h.8Zm0-3.21h-.8V243h.8Zm0-3.2h-.8v-1.6h.8Zm0-3.2h-.8v-1.61h.8Zm0-3.21h-.8v-1.6h.8Zm0-3.2h-.8v-1.6h.8Zm0-3.2h-.8V227h.8Zm0-3.21h-.8v-1.6h.8Zm0-3.2h-.8v-1.6h.8Zm0-3.21h-.8v-1.6h.8Zm0-3.2h-.8v-1.6h.8Zm0-3.2h-.8V211h.8Zm0-3.21h-.8v-1.6h.8Zm0-3.2h-.8v-1.6h.8Zm0-3.21h-.8v-1.6h.8Zm0-3.2h-.8v-1.6h.8ZM375.2 196.54h-.8v-1.21h1.2v.81h-.4zM430.07 196.14h-1.61v-.81h1.61Zm-3.21 0h-1.6v-.81h1.6Zm-3.2 0h-1.6v-.81h1.6Zm-3.21 0h-1.6v-.81h1.6Zm-3.2 0h-1.6v-.81h1.6Zm-3.2 0h-1.61v-.81h1.61Zm-3.21 0h-1.6v-.81h1.6Zm-3.2 0H406v-.81h1.6Zm-3.21 0h-1.6v-.81h1.6Zm-3.2 0h-1.6v-.81h1.6Zm-3.2 0h-1.61v-.81H398Zm-3.21 0h-1.6v-.81h1.6Zm-3.2 0H390v-.81h1.6Zm-3.2 0h-1.61v-.81h1.61Zm-3.21 0h-1.6v-.81h1.6Zm-3.2 0h-1.6v-.81H382Zm-3.21 0h-1.6v-.81h1.6ZM432.87 196.54h-.8v-.4h-.4v-.81h1.2zM432.87 251h-.8v-1.6h.8Zm0-3.2h-.8v-1.6h.8Zm0-3.2h-.8V243h.8Zm0-3.21h-.8v-1.6h.8Zm0-3.2h-.8v-1.6h.8Zm0-3.21h-.8v-1.6h.8Zm0-3.2h-.8v-1.6h.8Zm0-3.2h-.8V227h.8Zm0-3.21h-.8v-1.6h.8Zm0-3.2h-.8v-1.6h.8Zm0-3.21h-.8v-1.6h.8Zm0-3.2h-.8v-1.6h.8Zm0-3.2h-.8V211h.8Zm0-3.21h-.8v-1.6h.8Zm0-3.2h-.8v-1.6h.8Zm0-3.21h-.8v-1.6h.8Zm0-3.2h-.8v-1.6h.8Z" style="fill:#ebebeb"/><path d="M371.2 249.81h7.19V257h-7.19z" style="fill:#fff"/><path d="M378.79 257.4h-8v-8h8Zm-7.18-.8H378v-6.39h-6.38Z" style="fill:#ebebeb"/><path d="M371.23 220.98h7.19v7.19h-7.19z" style="fill:#fff"/><path d="M378.79 228.56h-8v-8h8Zm-7.18-.8H378v-6.38h-6.38Z" style="fill:#ebebeb"/><path d="M371.23 192.14h7.19v7.19h-7.19z" style="fill:#fff"/><path d="M378.79 199.73h-8v-8h8Zm-7.18-.8H378v-6.39h-6.38Z" style="fill:#ebebeb"/><path d="M428.91 249.81h7.19V257h-7.19z" style="fill:#fff"/><path d="M436.46 257.4h-8v-8h8Zm-7.18-.8h6.38v-6.39h-6.38Z" style="fill:#ebebeb"/><path d="M428.91 220.98h7.19v7.19h-7.19z" style="fill:#fff"/><path d="M436.46 228.56h-8v-8h8Zm-7.18-.8h6.38v-6.38h-6.38Z" style="fill:#ebebeb"/><path d="M428.91 192.14h7.19v7.19h-7.19z" style="fill:#fff"/><path d="M436.46 199.73h-8v-8h8Zm-7.18-.8h6.38v-6.39h-6.38Z" style="fill:#ebebeb"/><path d="M400.07 192.14h7.19v7.19h-7.19z" style="fill:#fff"/><path d="M407.63 199.73h-8v-8h8Zm-7.19-.8h6.39v-6.39h-6.39Z" style="fill:#ebebeb"/><path d="M400.04 249.81h7.19V257h-7.19z" style="fill:#fff"/><path d="M407.63 257.4h-8v-8h8Zm-7.19-.8h6.39v-6.39h-6.39Z" style="fill:#ebebeb"/><path d="M296.92 118.57h97.3v124.25h-97.3z" style="fill:#fff"/><path d="M394.47 243.07h-97.8V118.32h97.8Zm-97.3-.5H394V118.82h-96.8Z" style="fill:#ebebeb"/><path d="M296.92 118.57h97.3v9.3h-97.3z" style="fill:#ffc727"/><path d="M394.47 128.12h-97.8v-9.8h97.8Zm-97.3-.5H394v-8.8h-96.8Z" style="fill:#ebebeb"/><path d="M305.65 123.29a2.34 2.34 0 1 1-2.34-2.34 2.34 2.34 0 0 1 2.34 2.34" style="fill:#263238"/><path d="M315.21 123.29a2.34 2.34 0 1 1-2.34-2.34 2.34 2.34 0 0 1 2.34 2.34" style="fill:#ebebeb"/><path d="M324.77 123.29a2.34 2.34 0 1 1-2.34-2.34 2.34 2.34 0 0 1 2.34 2.34" style="fill:#455a64"/><path d="M296.92 127.37h97.3v1h-97.3z" style="fill:#ebebeb"/><path d="M303.7 214.56h47.73v4.46H303.7z" style="fill:#c7c7c7"/><path d="M303.7 223.22h83.74v2.69H303.7zM303.7 228.35h83.74v2.69H303.7zM303.7 233.47h83.74v2.69H303.7z" style="fill:#ebebeb"/><path d="M303.77 133.43h83.59v75.64h-83.59z" style="fill:#fff" transform="rotate(180 345.57 171.245)"/><path d="M387.62 209.32h-84.1v-76.14h84.1Zm-83.6-.5h83.1v-75.14H304Z" style="fill:#ebebeb"/><path d="m303.77 133.43 83.6 75.64" style="fill:#fff"/><path d="M345.32 114.88h.5v112.73h-.5z" style="fill:#ebebeb" transform="rotate(-47.86 345.578 171.252)"/><path d="m387.37 133.43-83.6 75.64" style="fill:#fff"/><path d="M289.2 171h112.73v.5H289.2z" style="fill:#ebebeb" transform="rotate(-42.15 345.598 171.255)"/><path d="M145.16 46.95h97.3v64.25h-97.3z" style="fill:#fff"/><path d="M242.71 111.45h-97.8V46.7h97.8Zm-97.3-.5h96.8V47.2h-96.8Z" style="fill:#ebebeb"/><path d="M145.16 46.95h97.3v9.3h-97.3z" style="fill:#ffc727"/><path d="M242.71 56.5h-97.8v-9.8h97.8Zm-97.3-.5h96.8v-8.8h-96.8Z" style="fill:#ebebeb"/><path d="M153.89 51.66a2.34 2.34 0 1 1-2.34-2.34 2.34 2.34 0 0 1 2.34 2.34" style="fill:#263238"/><path d="M163.45 51.66a2.34 2.34 0 1 1-2.34-2.34 2.34 2.34 0 0 1 2.34 2.34" style="fill:#ebebeb"/><path d="M173 51.66a2.34 2.34 0 1 1-2.34-2.34 2.34 2.34 0 0 1 2.34 2.34" style="fill:#455a64"/><path d="M145.16 55.75h97.3v1h-97.3zM179.22 92.81a2.63 2.63 0 0 1 0 3.72 2.67 2.67 0 0 1-1.82.74 2.8 2.8 0 0 1-1.9-.74l-11.61-11.78c-.13 0-.17-.12-.21-.25a.6.6 0 0 0-.12-.08 1 1 0 0 1-.13-.33.23.23 0 0 1-.12-.17c0-.08 0-.2-.08-.25s-.09-.16-.09-.2v-1.04c0-.08.09-.12.09-.16s0-.21.08-.33 0 0 0-.08a2.2 2.2 0 0 1 .21-.38.08.08 0 0 1 .08-.08.7.7 0 0 1 .25-.29l11.65-11.78a2.7 2.7 0 0 1 3.72 0 2.63 2.63 0 0 1 0 3.72l-9.79 9.88ZM189.76 94.13 199.88 70a2.29 2.29 0 0 1 3-1.2 2.23 2.23 0 0 1 1.16 2.93l-10.11 24.18a2.28 2.28 0 0 1-2.1 1.36 2 2 0 0 1-.83-.16 2.23 2.23 0 0 1-1.24-2.98M224.06 84.42a1.6 1.6 0 0 1-.29.29l-11.65 11.82a2.71 2.71 0 0 1-3.72 0 2.63 2.63 0 0 1 0-3.72l9.79-9.88-9.79-9.88a2.63 2.63 0 0 1 0-3.72 2.7 2.7 0 0 1 3.72 0l11.61 11.78a1.6 1.6 0 0 1 .29.29s0 .08 0 .08a2.6 2.6 0 0 1 .21.38s0 0 0 .08a1.5 1.5 0 0 0 .13.37s0 0 0 .12v1.12a3 3 0 0 0-.13.37s0 0 0 .13-.08.2-.17.37" style="fill:#ebebeb"/><g style="opacity:.7000000000000001"><path d="M231.56 67.23h61.57v119.86h-61.57z" style="fill:#fff" transform="rotate(90 262.34 127.16)"/><path d="M322.52 158.2H202.16V96.13h120.36Zm-119.86-.5H322V96.63H202.66Z" style="fill:#dbdbdb"/><path d="M209.66 104.39h50.35v45.56h-50.35z" style="fill:#ffc727" transform="rotate(180 234.835 127.165)"/><path d="M216.16 114.35a5.39 5.39 0 1 0 4.23-4.24 5.39 5.39 0 0 0-4.23 4.24" style="opacity:.1"/><path d="M223.83 140.13h36.18l-18.09-24.52z" style="opacity:.2"/><path d="M209.66 140.15h29.87l-14.94-15.97z" style="fill:#ffc727"/><path d="M209.66 140.15h29.87l-14.94-15.97z" style="opacity:.1"/><path d="M209.66 140.13h50.35v9.82h-50.35z" style="fill:#ffc727"/><path d="M209.66 140.13h50.35v9.82h-50.35z" style="opacity:.1"/><path d="M268.44 104.39h42.89v3.12h-42.89zM268.44 110.85h42.89v3.12h-42.89zM268.44 117.31h42.89v3.12h-42.89zM268.44 123.77h42.89v3.12h-42.89zM268.44 130.23h42.89v3.12h-42.89z" style="fill:#ebebeb"/></g><path d="M221.78 260.19h-56.74v-4.41l56.74-1.84z" style="fill:#455a64"/><path d="M266.37 260.11H229c-3.2 0 1.42-9.09 13.08-12.58s27.97 9.17 24.29 12.58" style="fill:#37474f"/><path d="M251.69 260.11A9.4 9.4 0 0 1 252 257a12 12 0 0 1 1.23-2.91 9.8 9.8 0 0 1 2.06-2.42 7.65 7.65 0 0 1 2.75-1.51 19 19 0 0 0-2.21 2.07 15.6 15.6 0 0 0-1.74 2.38 27 27 0 0 0-2.4 5.5" style="fill:#263238"/><path d="M256.12 251.46a16 16 0 0 1 3.31 1.16 20 20 0 0 1 3.06 1.76 12 12 0 0 1 2.61 2.44 5.18 5.18 0 0 1 1.27 3.29 7.1 7.1 0 0 0-1.86-2.78 20 20 0 0 0-2.6-2.13c-1.84-1.33-3.82-2.48-5.79-3.74" style="fill:#263238"/><path d="M293.23 242.5h-90.99l14.47-67.74h90.99z" style="fill:#455a64"/><path d="M296.6 242.5h-90.99l14.47-67.74h90.99z" style="fill:#37474f"/><path d="M247.52 218.22h-2.13l3.24-15.2h2.13zM251.73 218.22h-2.13l3.24-15.2h2.13zM255.94 218.22h-2.13l3.24-15.2h2.13zM260.16 218.22h-2.14l3.24-15.2h2.13zM264.37 218.22h-2.14l3.24-15.2h2.14zM268.58 218.22h-2.14l3.24-15.2h2.14zM272.79 218.22h-2.14l3.24-15.2h2.14z" style="fill:#263238"/><path d="M270.87 260.2h-44.76v-3.48l44.76-1.45z" style="fill:#455a64"/><path d="M283.03 260.19H259l-14.47-37.96h24.03z" style="fill:#455a64"/><path d="M286.99 260.19h-24.03l-14.47-37.96h24.03z" style="fill:#263238"/><path d="M376 373.91s-22.17-5-34.32-16.22-18.93-31.25-18.93-31.25a191 191 0 0 1 24.89 6.56c2 2.12 5.76 6.49 7.52 10.63a52 52 0 0 0 .06-7.6 34 34 0 0 1 7.89 4.79c10.08 8.79 12.89 33.09 12.89 33.09" style="fill:#ffc727"/><path d="M336.62 336.19c-3-2.1-6.1-4.11-9.11-6.22a.18.18 0 0 1 .18-.3c5.72 3.41 11.35 7.06 16.79 10.88 1.9 1.33 3.77 2.72 5.61 4.13l-.38-.66c-.67-1.11-1.37-2.2-2.07-3.29a46.7 46.7 0 0 0-4.71-6.29c-.06-.07.05-.17.11-.1 1.73 2 3.45 4 5 6.07.75 1 1.44 2 2.1 3.11.35.55.68 1.11 1 1.67l.33.57c2.87 2.25 5.66 4.6 8.32 7.08 1.65 1.54 3.23 3.12 4.76 4.76-.85-2.68-1.6-5.39-2.6-8 0-.09.12-.12.15 0 1 2.77 2 5.55 2.77 8.4q2.55 2.74 4.85 5.71c0-.12-.05-.24-.08-.36-.25-1-.51-2.09-.79-3.12-.54-2-1.13-4-1.81-6a34.4 34.4 0 0 0-5.92-11.23c-.06-.08.05-.18.11-.11 4.33 5.13 6.87 11.28 8.49 17.73.23.95.46 1.89.67 2.84.12.5.25 1 .34 1.53.67.91 1.32 1.82 1.95 2.76a96 96 0 0 1 9.38 18.4 211 211 0 0 1 7.11 22.14c0 .15-.18.2-.23.06-4.34-13-8.76-26.13-16.18-37.72a89 89 0 0 0-5.07-7.09 41.8 41.8 0 0 1-10.78-2.14 48 48 0 0 1-10.8-5.22 68 68 0 0 1-5.54-4.18.08.08 0 1 1 .1-.12 44 44 0 0 0 10.16 6.12 55.7 55.7 0 0 0 11.17 3.73c1.64.36 3.3.62 5 .85a96 96 0 0 0-6.54-7.25c-.75-.74-1.52-1.46-2.29-2.18a52 52 0 0 0-8.2-4.69c-3.63-1.76-7.2-3.62-10.8-5.45-2-1-4-2.09-6.09-3.08-.08-.05 0-.17.08-.13 3.65 1.76 7.35 3.4 11 5.09 3.47 1.58 7 3.17 10.29 5l.42.25c-3-2.61-6.11-5.11-9.29-7.51-2.95-2.18-5.93-4.35-8.96-6.44" style="fill:#263238"/><path d="M337.88 347.61c1.8.79 3.64 1.49 5.42 2.33s3.57 1.86 5.32 2.89c.07.05 0 .15-.07.12-1.77-.85-3.56-1.64-5.31-2.52s-3.57-1.87-5.41-2.67c-.08-.04-.04-.19.05-.15" style="fill:#263238"/><path d="M448 262.2a31.65 31.65 0 0 0-6.62 18.41c-.08 2 .24 4.75.47 8C433.62 293 427.42 301 427.42 301c4.7-2.82 11.14-4 14.62-3.5a43.5 43.5 0 0 1-.85 6.62c-1.53-.09-4.5.12-9.4 1.86a21.1 21.1 0 0 1 8.48 1.68c-3.95 12.58-15.7 25.49-48.13 31a68.07 68.07 0 0 1 5.74-45.66c9.72-19.13 50.12-30.8 50.12-30.8" style="fill:#ffc727"/><path d="M380.91 392.42q.85-8.06 2.1-16.07a321 321 0 0 1 6.54-31.74 126 126 0 0 1 4.69-14.47 19 19 0 0 1-.12-2.6v-3.11q0-3.12.3-6.23a75 75 0 0 1 2-12.16c.59-2.31 1.28-4.58 2-6.87a.08.08 0 0 1 .15 0 89.6 89.6 0 0 0-2.4 12.14 115 115 0 0 0-1.17 12.22c0 1.11-.06 2.22-.06 3.34v1.43a102 102 0 0 1 5.51-11.3 139 139 0 0 1 11.1-16.61 7.4 7.4 0 0 1 .27-1.81c.15-.73.31-1.45.47-2.17.33-1.48.7-3 1.11-4.42.8-2.94 1.87-5.78 2.79-8.68a.07.07 0 1 1 .14 0c-.86 2.87-1.42 5.85-2.08 8.77-.33 1.45-.64 2.9-1 4.35-.16.72-.32 1.44-.47 2.17v.16c1.32-1.65 2.65-3.29 4-4.89 6.19-7.26 13-14 19.82-20.61.84-.82 1.7-1.62 2.55-2.43a.08.08 0 0 1 .11.11c-6.53 6.82-13 13.71-19.06 20.92-1.44 1.72-2.87 3.45-4.27 5.21.74-.5 1.48-1 2.21-1.46 1.89-1.24 3.8-2.44 5.77-3.54s3.95-2.18 6-3.19 4.31-1.87 6.31-3c.09-.05.16.09.08.13a47 47 0 0 0-5.92 3.28c-2 1.17-3.95 2.35-5.89 3.58s-3.82 2.4-5.71 3.63c-1.58 1-3.13 2.14-4.77 3.09a156 156 0 0 0-10.39 15.12 114 114 0 0 0-5.37 10.19l1.16-.5 3-1.32c1.91-.85 3.83-1.68 5.74-2.51 3.64-1.58 7.33-3 10.9-4.77a49 49 0 0 0 5.82-3.23c.08-.06.15.07.08.13-6.65 4.58-14.11 7.81-21.47 11.07l-3.19 1.41c-.88.39-1.76.82-2.66 1.16a115 115 0 0 0-5.49 15 307 307 0 0 0-7.05 31.38c-1.86 10.59-3.12 21.26-4.09 32-.12 1.34-.24 2.67-.4 4a.42.42 0 0 1-.84 0c.03-5.45.59-10.9 1.15-16.3" style="fill:#263238"/><path d="M400.64 302.85c.6-3.3 1.48-6.52 2.37-9.75 0-.1.16-.05.14 0-.82 3.17-1.41 6.4-2 9.62s-1.15 6.57-1.61 9.87c0 .05-.09.06-.09 0a89 89 0 0 1 1.19-9.74M414.62 311.79a57.5 57.5 0 0 1 7.06-4c1.18-.61 2.38-1.19 3.57-1.77s2.52-1.1 3.74-1.71a.08.08 0 0 1 .08.13c-1.19.59-2.31 1.31-3.48 1.95s-2.39 1.32-3.6 2c-2.37 1.27-4.7 2.68-7.19 3.72a.18.18 0 0 1-.18-.32" style="fill:#263238"/><path d="M375.63 335.51s-20.51-4.9-29.93-18.66c-9-13.14-11.9-35.54-12.14-37.51.37 1.8 4.61 21.38 18.57 30.5 10.69 6.99 21.03 12.73 23.5 25.67" style="fill:#263238;opacity:.1"/><path d="M356.7 300.07a26.27 26.27 0 0 1 7.56 12.45h-.07a30.5 30.5 0 0 0-7.6-12.37.08.08 0 0 1 .11-.08" style="fill:#263238"/><path d="M375.63 335.51s-20.51-4.9-29.93-18.66c-9-13.14-11.9-35.54-12.14-37.51a1 1 0 0 1 0-.14s9.84 14 20.18 17.55 24.85 15.9 21.89 38.76" style="fill:#ffc727"/><path d="M337.18 286.91a83 83 0 0 0 6.34 10.84 43.4 43.4 0 0 0 8.44 8.69c2.78 2.21 5.73 4.22 8.55 6.38l-.07-.1c-.53-.78-1.09-1.55-1.68-2.29-1.17-1.5-2.45-2.92-3.74-4.32-2.55-2.77-5.16-5.48-7.44-8.47a31 31 0 0 1-3.29-5.3c0-.09.1-.14.14 0 3.33 6.93 10 11.37 14.72 17.22a32 32 0 0 1 1.89 2.6 10.4 10.4 0 0 1 1.18 2.08 43.4 43.4 0 0 1 7 7.07 28.4 28.4 0 0 0-.82-4 20 20 0 0 0-2.18-5.19c-.05-.08.08-.17.13-.09a24.7 24.7 0 0 1 2.39 5.17 18 18 0 0 1 .75 4.43 40.5 40.5 0 0 1 2.77 4.31c-.09-.44-.17-.88-.26-1.32-.4-2-.85-4.08-1.38-6.09a36.6 36.6 0 0 0-4.93-11.53.08.08 0 0 1 .13-.08 44.4 44.4 0 0 1 5.47 11.3c.65 2 1.17 4.06 1.63 6.13.23 1 .43 2 .62 3 .1.52.22 1.06.3 1.6a73.3 73.3 0 0 1 4.73 13.9 203 203 0 0 1 4.43 25.93 217 217 0 0 1 1.41 27.54c0 1.15-.08 2.3-.15 3.46 0 .29-.46.34-.47 0-.2-4.55-.32-9.1-.59-13.65s-.67-9.09-1.15-13.63a242 242 0 0 0-4.33-26.5c-1.66-7.5-3.82-15.05-7.92-21.62a40.7 40.7 0 0 0-7.4-8.8c-2.87-2.58-6-4.84-9-7.23a49.5 49.5 0 0 1-8.31-8 65 65 0 0 1-6.52-10.59c-.48-.93-1-1.85-1.47-2.78-.1-.07.03-.15.08-.07" style="fill:#263238"/><path d="M340.72 289.92a69 69 0 0 0 4.57 8c0 .06-.06.12-.1.06a57 57 0 0 1-4.62-8c-.04-.1.11-.15.15-.06" style="fill:#263238"/><path d="M450.9 326.44s.33 29.15-17.1 37.56-26.78 1.41-38.62 4.23c.46-.69 8.91-12.84 22.36-16.19 13.85-3.47 29.17-13.46 33.36-25.6" style="fill:#ffc727"/><path d="M450.9 326.44s.33 29.15-17.1 37.56-26.78 1.41-38.62 4.23a66 66 0 0 1 19.82-5.86c11-1.37 32-8.49 35.9-35.93" style="opacity:.1"/><path d="M394 368.75a29.3 29.3 0 0 1 6.93-4.7c.38-.18.76-.32 1.14-.48a8 8 0 0 1 .59-.67 20 20 0 0 1 1.64-1.56 24 24 0 0 1 3.5-2.53c2.89-1.7 6.06-2.89 9-4.46a.07.07 0 1 1 .07.13c-1.46.76-2.87 1.59-4.29 2.42s-2.79 1.58-4.14 2.44a30 30 0 0 0-3.45 2.59c-.3.27-.6.56-.89.86a46 46 0 0 1 5.89-1.57c3.19-.64 6.42-1.1 9.6-1.78a43 43 0 0 0 4.62-1.25c1.45-1.16 2.89-2.32 4.26-3.58a34.5 34.5 0 0 0 4.51-5c.06-.08.19 0 .13.08a53.4 53.4 0 0 1-7.15 7.89c.75-.29 1.5-.59 2.23-.93a36 36 0 0 0 14.85-12.35c.06-.08.19 0 .13.07a40.8 40.8 0 0 1-12 11.54 36.2 36.2 0 0 1-7.6 3.59 69 69 0 0 1-9.43 2.23 67 67 0 0 0-9.24 2.2 27.7 27.7 0 0 0-7.74 4.08A36.2 36.2 0 0 0 386.74 381c-3.3 6.61-4.87 14-5.75 21.31 0 .31-.52.31-.5 0 .82-12.31 4.1-25.05 13.51-33.56" style="fill:#263238"/><path d="M414.26 359.24a10.1 10.1 0 0 1 3.58-3.25 13.1 13.1 0 0 0 4.26-3.52c.06-.08.19 0 .13.08a14.4 14.4 0 0 1-3.76 3.37 13.1 13.1 0 0 0-4.1 3.39c-.05.07-.16 0-.11-.07" style="fill:#263238"/><path d="m405.01 390.26-.79 16.03-2.43 48.97h-36.57l-2.43-48.97-.79-16.03z" style="fill:#37474f"/><path d="m405.01 390.26-.79 16.03h-41.43l-.79-16.03z" style="fill:#263238"/><path d="M359.44 383.57h48.14v15.29h-48.14z" style="fill:#37474f"/></svg>