<svg xmlns="http://www.w3.org/2000/svg" xml:space="preserve" viewBox="0 0 750 500"><linearGradient id="a" x1="156.835" x2="495.818" y1="534.773" y2="92.295" gradientUnits="userSpaceOnUse"><stop offset="0" style="stop-color:#17171b"/><stop offset=".452" style="stop-color:#1d1f28"/><stop offset=".899" style="stop-color:#17171b"/></linearGradient><path d="M0 0h750v500H0z" style="fill:url(#a)"/><linearGradient id="b" x1="334.14" x2="394.007" y1="90.805" y2="90.805" gradientUnits="userSpaceOnUse"><stop offset="0" style="stop-color:#17171b"/><stop offset=".511" style="stop-color:#1d1f28"/><stop offset="1" style="stop-color:#17171b"/></linearGradient><path d="m334.14 127.085 54.862-17.356 5.005-55.204-57.137 14.207z" style="fill:url(#b)"/><linearGradient id="c" x1="303.677" x2="336.87" y1="83.7" y2="83.7" gradientUnits="userSpaceOnUse"><stop offset="0" style="stop-color:#17171b"/><stop offset=".067" style="stop-color:#1c1c21"/><stop offset=".53" style="stop-color:#373a44"/><stop offset=".777" style="stop-color:#424652"/></linearGradient><path d="m306.801 40.315 30.069 28.417-2.73 58.353-30.463-30.816z" style="fill:url(#c)"/><linearGradient id="d" x1="306.801" x2="394.007" y1="48.281" y2="48.281" gradientUnits="userSpaceOnUse"><stop offset="0" style="stop-color:#17171b"/><stop offset=".452" style="stop-color:#333640"/><stop offset="1" style="stop-color:#17171b"/></linearGradient><path d="M394.007 54.525 360.569 27.83l-53.768 12.485 30.069 28.417z" style="fill:url(#d)"/><linearGradient id="e" x1="175.211" x2="439.584" y1="357.863" y2="357.863" gradientUnits="userSpaceOnUse"><stop offset="0" style="stop-color:#17171b"/><stop offset=".452" style="stop-color:#333640"/><stop offset="1" style="stop-color:#17171b"/></linearGradient><path d="m175.211 326.937 111.925 124.688 152.448-53.017L333.28 264.102z" style="fill:url(#e)"/><linearGradient id="f" x1="175.211" x2="372.552" y1="238.575" y2="238.575" gradientUnits="userSpaceOnUse"><stop offset="0" style="stop-color:#17171b"/><stop offset=".067" style="stop-color:#1c1c21"/><stop offset=".53" style="stop-color:#373a44"/><stop offset=".777" style="stop-color:#424652"/></linearGradient><path d="M372.552 150.213 333.28 264.102l-158.069 62.835 45.163-117.816z" style="fill:url(#f)"/><linearGradient id="g" x1="333.28" x2="470.241" y1="274.411" y2="274.411" gradientUnits="userSpaceOnUse"><stop offset="0" style="stop-color:#17171b"/><stop offset=".511" style="stop-color:#1d1f28"/><stop offset="1" style="stop-color:#17171b"/></linearGradient><path d="m439.584 398.608 30.657-120.761-97.689-127.634-39.272 113.889z" style="fill:url(#g)"/><linearGradient id="h" x1="566.49" x2="750" y1="109.765" y2="109.765" gradientUnits="userSpaceOnUse"><stop offset="0" style="stop-color:#17171b"/><stop offset=".511" style="stop-color:#1d1f28"/><stop offset="1" style="stop-color:#17171b"/></linearGradient><path d="M750 122.96v21.9l-100.07 34.8-83.44-92.95 117.84-46.84z" style="fill:url(#h)"/><linearGradient id="i" x1="566.49" x2="698.08" y1="43.355" y2="43.355" gradientUnits="userSpaceOnUse"><stop offset="0" style="stop-color:#17171b"/><stop offset=".067" style="stop-color:#1c1c21"/><stop offset=".53" style="stop-color:#373a44"/><stop offset=".777" style="stop-color:#424652"/></linearGradient><path d="m698.08 0-13.75 39.87-117.84 46.84L599.73 0z" style="fill:url(#i)"/><linearGradient id="j" x1="684.33" x2="750" y1="61.48" y2="61.48" gradientUnits="userSpaceOnUse"><stop offset="0" style="stop-color:#17171b"/><stop offset=".452" style="stop-color:#333640"/><stop offset="1" style="stop-color:#17171b"/></linearGradient><path d="M750 2.52v120.44l-65.67-83.09L698.08 0h49.99z" style="fill:url(#j)"/><linearGradient id="k" x1="0" x2="45.17" y1="262.315" y2="262.315" gradientUnits="userSpaceOnUse"><stop offset="0" style="stop-color:#17171b"/><stop offset=".511" style="stop-color:#1d1f28"/><stop offset="1" style="stop-color:#17171b"/></linearGradient><path d="m45.17 228.36-5.01 55.2L0 296.27v-56.68z" style="fill:url(#k)"/><linearGradient id="l" x1="0" x2="45.17" y1="220.625" y2="220.625" gradientUnits="userSpaceOnUse"><stop offset="0" style="stop-color:#17171b"/><stop offset=".067" style="stop-color:#1c1c21"/><stop offset=".53" style="stop-color:#373a44"/><stop offset=".777" style="stop-color:#424652"/></linearGradient><path d="M45.17 228.36 0 239.59v-35.21l11.73-2.72z" style="fill:url(#l)"/><linearGradient id="m" x1="102.625" x2="129.55" y1="364.623" y2="337.698" gradientUnits="userSpaceOnUse"><stop offset="0" style="stop-color:#17171b"/><stop offset=".067" style="stop-color:#1c1c21"/><stop offset=".53" style="stop-color:#373a44"/><stop offset=".777" style="stop-color:#424652"/></linearGradient><path d="m137.85 367.685-10.036-31.723-31.92-2.894 8.214 33.038z" style="fill:url(#m)"/><linearGradient id="n" x1="96.029" x2="129.02" y1="391.845" y2="358.855" gradientUnits="userSpaceOnUse"><stop offset="0" style="stop-color:#17171b"/><stop offset=".511" style="stop-color:#1d1f28"/><stop offset="1" style="stop-color:#17171b"/></linearGradient><path d="m87.677 383.492 16.431-17.386 33.742 1.579-17.819 17.614z" style="fill:url(#n)"/><linearGradient id="o" x1="77.125" x2="106.446" y1="372.94" y2="343.62" gradientUnits="userSpaceOnUse"><stop offset="0" style="stop-color:#17171b"/><stop offset=".452" style="stop-color:#333640"/><stop offset="1" style="stop-color:#17171b"/></linearGradient><path d="m95.894 333.068-15.436 19.335 7.219 31.089 16.431-17.386z" style="fill:url(#o)"/><linearGradient id="p" x1="720.32" x2="838.927" y1="335.94" y2="217.333" gradientUnits="userSpaceOnUse"><stop offset="0" style="stop-color:#25262d"/><stop offset=".517" style="stop-color:#333640"/><stop offset="1" style="stop-color:#3d424e"/></linearGradient><path d="M750 284.19v56.39l-19.02 6.02 2.72-58.36z" style="fill:url(#p)"/><linearGradient id="q" x1="700.512" x2="733.705" y1="303.213" y2="303.213" gradientUnits="userSpaceOnUse"><stop offset="0" style="stop-color:#32333b"/><stop offset=".421" style="stop-color:#494d59"/><stop offset=".681" style="stop-color:#535867"/></linearGradient><path d="m703.636 259.828 30.069 28.417-2.73 58.353-30.463-30.817z" style="fill:url(#q)"/><linearGradient id="r" x1="703.64" x2="750" y1="268.65" y2="268.65" gradientUnits="userSpaceOnUse"><stop offset="0" style="stop-color:#2c2d34"/><stop offset=".618" style="stop-color:#434752"/><stop offset="1" style="stop-color:#4d5260"/></linearGradient><path d="M750 249.06v35.13l-16.3 4.05-30.06-28.41z" style="fill:url(#r)"/><linearGradient id="s" x1="108.657" x2="206.572" y1="89.034" y2="89.034" gradientUnits="userSpaceOnUse"><stop offset="0" style="stop-color:#25262d"/><stop offset=".517" style="stop-color:#333640"/><stop offset="1" style="stop-color:#3d424e"/></linearGradient><path d="m160.41 158.495 46.162-71.346-46.2-67.575-51.715 69.899z" style="fill:url(#s)"/><linearGradient id="t" x1="47.696" x2="160.41" y1="121.937" y2="121.937" gradientUnits="userSpaceOnUse"><stop offset="0" style="stop-color:#2c2d34"/><stop offset=".618" style="stop-color:#434752"/><stop offset="1" style="stop-color:#4d5260"/></linearGradient><path d="m47.696 85.379 60.961 4.094 51.753 69.022-63.666-6.455z" style="fill:url(#t)"/><linearGradient id="u" x1="47.696" x2="160.372" y1="54.523" y2="54.523" gradientUnits="userSpaceOnUse"><stop offset="0" style="stop-color:#32333b"/><stop offset=".421" style="stop-color:#494d59"/><stop offset=".681" style="stop-color:#535867"/></linearGradient><path d="M160.372 19.574 97.191 20.61 47.696 85.379l60.961 4.094z" style="fill:url(#u)"/><linearGradient id="v" x1="82.64" x2="160.73" y1="472.835" y2="472.835" gradientUnits="userSpaceOnUse"><stop offset="0" style="stop-color:#2c2d34"/><stop offset=".618" style="stop-color:#434752"/><stop offset="1" style="stop-color:#4d5260"/></linearGradient><path d="M160.73 500H82.64l32.32-54.33z" style="fill:url(#v)"/><linearGradient id="w" x1="23.27" x2="114.96" y1="472.835" y2="472.835" gradientUnits="userSpaceOnUse"><stop offset="0" style="stop-color:#32333b"/><stop offset=".421" style="stop-color:#494d59"/><stop offset=".681" style="stop-color:#535867"/></linearGradient><path d="M114.96 445.67 82.64 500H23.27l28.93-46.97z" style="fill:url(#w)"/><linearGradient id="x" x1="170.463" x2="527.176" y1="339.23" y2="339.23" gradientUnits="userSpaceOnUse"><stop offset="0" style="stop-color:#32333b"/><stop offset=".311" style="stop-color:#494d59"/><stop offset=".503" style="stop-color:#535867"/><stop offset="1" style="stop-color:#32333b"/></linearGradient><path d="M172.165 297.914 321.761 464.57l203.758-70.861-142.083-179.778z" style="fill:none;stroke:url(#x);stroke-width:2;stroke-miterlimit:10"/><linearGradient id="y" x1="170.415" x2="437.574" y1="179.843" y2="179.843" gradientUnits="userSpaceOnUse"><stop offset="0" style="stop-color:#32333b"/><stop offset=".311" style="stop-color:#494d59"/><stop offset=".503" style="stop-color:#535867"/><stop offset="1" style="stop-color:#32333b"/></linearGradient><path d="m435.926 61.71-52.49 152.221-211.271 83.983 60.363-157.469z" style="fill:none;stroke:url(#y);stroke-width:2;stroke-miterlimit:10"/><linearGradient id="z" x1="382.313" x2="567.583" y1="227.77" y2="227.77" gradientUnits="userSpaceOnUse"><stop offset="0" style="stop-color:#32333b"/><stop offset=".311" style="stop-color:#494d59"/><stop offset=".503" style="stop-color:#535867"/><stop offset="1" style="stop-color:#32333b"/></linearGradient><path d="m525.519 393.709 40.976-161.407L435.926 61.71l-52.49 152.221z" style="fill:none;stroke:url(#z);stroke-width:2;stroke-miterlimit:10"/><linearGradient id="A" x1="512.332" x2="554.288" y1="164.977" y2="164.977" gradientUnits="userSpaceOnUse"><stop offset="0" style="stop-color:#17171b"/><stop offset=".452" style="stop-color:#333640"/><stop offset="1" style="stop-color:#17171b"/></linearGradient><path d="m554.287 182.286-10.035-31.723-31.92-2.894 8.215 33.038z" style="fill:url(#A)"/><linearGradient id="B" x1="504.115" x2="554.288" y1="190.304" y2="190.304" gradientUnits="userSpaceOnUse"><stop offset="0" style="stop-color:#17171b"/><stop offset=".511" style="stop-color:#1d1f28"/><stop offset="1" style="stop-color:#17171b"/></linearGradient><path d="m504.115 198.094 16.432-17.387 33.74 1.579-17.818 17.614z" style="fill:url(#B)"/><linearGradient id="C" x1="496.896" x2="520.547" y1="172.881" y2="172.881" gradientUnits="userSpaceOnUse"><stop offset="0" style="stop-color:#17171b"/><stop offset=".067" style="stop-color:#1c1c21"/><stop offset=".53" style="stop-color:#373a44"/><stop offset=".777" style="stop-color:#424652"/></linearGradient><path d="m512.332 147.669-15.436 19.335 7.219 31.09 16.432-17.387z" style="fill:url(#C)"/><linearGradient id="D" x1="446.177" x2="544.09" y1="414.897" y2="414.897" gradientTransform="rotate(9.979 566.597 1060.907)" gradientUnits="userSpaceOnUse"><stop offset="0" style="stop-color:#17171b"/><stop offset=".511" style="stop-color:#1d1f28"/><stop offset="1" style="stop-color:#17171b"/></linearGradient><path d="m598.9 481.194 57.827-62.268-33.793-74.559-63.044 59.882z" style="fill:url(#D)"/><linearGradient id="E" x1="385.218" x2="497.93" y1="447.8" y2="447.8" gradientTransform="rotate(9.979 566.597 1060.907)" gradientUnits="userSpaceOnUse"><stop offset="0" style="stop-color:#17171b"/><stop offset=".452" style="stop-color:#333640"/><stop offset="1" style="stop-color:#17171b"/></linearGradient><path d="m500.56 389.654 59.33 14.595 39.01 76.945-61.584-17.389z" style="fill:url(#E)"/><linearGradient id="F" x1="385.218" x2="497.889" y1="380.388" y2="380.388" gradientTransform="rotate(9.979 566.597 1060.907)" gradientUnits="userSpaceOnUse"><stop offset="0" style="stop-color:#17171b"/><stop offset=".067" style="stop-color:#1c1c21"/><stop offset=".53" style="stop-color:#373a44"/><stop offset=".777" style="stop-color:#424652"/></linearGradient><path d="m622.934 344.367-62.404-9.927-59.97 55.214 59.33 14.595z" style="fill:url(#F)"/></svg>