<svg xmlns="http://www.w3.org/2000/svg" xmlns:xlink="http://www.w3.org/1999/xlink" xml:space="preserve" viewBox="0 0 750 500"><path d="M549.201 402.188c0 4.884-3.959 8.844-8.844 8.844s-8.844-3.959-8.844-8.844 3.96-8.844 8.844-8.844 8.844 3.959 8.844 8.844" style="fill:#686de0"/><circle cx="556.545" cy="413.236" r="5.261" style="fill:#f9ca24"/><path d="M548.212 428.123a3.927 3.927 0 1 1-7.854 0 3.927 3.927 0 0 1 7.854 0" style="fill:#f6e58d"/><circle cx="254.347" cy="364.658" r="9.861" style="fill:#686de0" transform="rotate(-22.362 254.317 364.662)"/><path d="M268.241 374.519a5.879 5.879 0 1 1-11.758 0 5.879 5.879 0 0 1 11.758 0" style="fill:#f0932b"/><circle cx="693.701" cy="148.508" r="7.891" style="fill:#f0932b" transform="rotate(-76.761 693.734 148.504)"/><path d="M681.232 132.824a3.268 3.268 0 1 1-6.536 0 3.268 3.268 0 0 1 6.536 0" style="fill:#f6e58d"/><circle cx="671.648" cy="157.666" r="7.311" style="fill:#686de0" transform="rotate(-22.606 671.64 157.661)"/><path d="M46.62 237.05a3.61 3.61 0 1 1-6.716-2.651 3.61 3.61 0 0 1 6.716 2.651" style="fill:#f6e58d"/><path d="M52.568 255.966a2.095 2.095 0 1 1-3.897-1.54 2.095 2.095 0 0 1 3.897 1.54" style="fill:#686de0"/><path d="M65.327 237.131a7.572 7.572 0 1 1-14.086-5.562 7.572 7.572 0 0 1 14.086 5.562" style="fill:#f0932b"/><path d="M242.871 413.236a3.502 3.502 0 1 1-7.004 0 3.502 3.502 0 0 1 7.004 0" style="fill:#f6e58d"/><circle cx="180.714" cy="242.398" r="8.233" style="fill:#686de0" transform="rotate(-21.393 180.704 242.374)"/><path d="M187.504 213.495H73.292c-5.522 0-9.999-4.477-9.999-9.999V35.305c0-5.522 4.477-9.999 9.999-9.999h114.212c5.522 0 9.999 4.477 9.999 9.999v168.192c0 5.522-4.477 9.998-9.999 9.998" style="fill:#535c68"/><defs><path id="a" d="M187.504 213.495H73.292c-5.522 0-9.999-4.477-9.999-9.999V35.305c0-5.522 4.477-9.999 9.999-9.999h114.212c5.522 0 9.999 4.477 9.999 9.999v168.192c0 5.522-4.477 9.998-9.999 9.998"/></defs><clipPath id="b"><use xlink:href="#a" style="overflow:visible"/></clipPath><circle cx="172.543" cy="46.529" r="35.88" style="clip-path:url(#b);fill:#686de0" transform="rotate(-45.001 172.543 46.531)"/><circle cx="83.511" cy="74.796" r="28.789" style="clip-path:url(#b);fill:#f9ca24" transform="rotate(-67.5 83.51 74.794)"/><circle cx="91.524" cy="11.934" r="54.165" style="clip-path:url(#b);fill:#ff7979"/><circle cx="98.057" cy="105.505" r="17.397" style="clip-path:url(#b);fill:#686de0" transform="rotate(-36.65 98.062 105.51)"/><path d="M180.122 83.13a5.712 5.712 0 1 1-11.424 0 5.712 5.712 0 1 1 11.424 0" style="clip-path:url(#b);fill:#f9ca24"/><path d="M168.067 109.217a7.8 7.8 0 1 1-13.511 7.8 7.8 7.8 0 0 1 13.511-7.8" style="clip-path:url(#b);fill:#ff7979"/><circle cx="130.398" cy="62.632" r="21.737" style="fill:#535c68"/><defs><circle id="c" cx="130.398" cy="62.632" r="21.737"/></defs><clipPath id="d"><use xlink:href="#c" style="overflow:visible"/></clipPath><g style="clip-path:url(#d)"><circle cx="130.398" cy="58.393" r="6.84" style="fill:#fff"/><path d="M141.889 89.542h-22.983V75.856a8.024 8.024 0 0 1 8.024-8.024h6.934a8.024 8.024 0 0 1 8.024 8.024v13.686z" style="fill:#fff"/></g><path d="M177.171 144.854H83.625a3.245 3.245 0 0 1-3.245-3.245v-8.727a3.245 3.245 0 0 1 3.245-3.245h93.546a3.245 3.245 0 0 1 3.245 3.245v8.727a3.245 3.245 0 0 1-3.245 3.245M177.171 169.083H83.625a3.245 3.245 0 0 1-3.245-3.245v-8.727a3.245 3.245 0 0 1 3.245-3.245h93.546a3.245 3.245 0 0 1 3.245 3.245v8.727a3.246 3.246 0 0 1-3.245 3.245M115.546 187.556H83.682a3.301 3.301 0 0 1 0-6.602h31.864a3.301 3.301 0 0 1 0 6.602M176.162 187.556h-31.864a3.301 3.301 0 0 1 0-6.602h31.864a3.3 3.3 0 0 1 3.301 3.301 3.3 3.3 0 0 1-3.301 3.301" style="fill:#95afc0"/><path d="M449.443 268.585H223.521c-7.243 0-13.115-5.872-13.115-13.115V67.966c0-7.243 5.872-13.115 13.115-13.115h225.922c7.243 0 13.115 5.872 13.115 13.115V255.47c0 7.243-5.871 13.115-13.115 13.115" style="fill:#dff9fb"/><defs><path id="e" d="M449.443 268.585H223.521c-7.243 0-13.115-5.872-13.115-13.115V67.966c0-7.243 5.872-13.115 13.115-13.115h225.922c7.243 0 13.115 5.872 13.115 13.115V255.47c0 7.243-5.871 13.115-13.115 13.115"/></defs><clipPath id="f"><use xlink:href="#e" style="overflow:visible"/></clipPath><path d="M207.843 54.851h257.491v21.878H207.843z" style="clip-path:url(#f);fill:#686de0"/><path d="M639.961 212.523h-139.46c-6.743 0-12.21-5.466-12.21-12.21V-5.061c0-6.743 5.466-12.21 12.21-12.21h139.46c6.743 0 12.21 5.466 12.21 12.21v205.374c0 6.743-5.467 12.21-12.21 12.21" style="clip-path:url(#f);fill:#dff9fb"/><path d="M232 65.79a3.208 3.208 0 1 1-6.415 0 3.208 3.208 0 0 1 6.415 0" style="fill:#eb4d4b"/><path d="M245.785 65.79a3.208 3.208 0 1 1-6.415 0 3.208 3.208 0 0 1 6.415 0M259.571 65.79a3.208 3.208 0 1 1-6.415 0 3.208 3.208 0 0 1 6.415 0" style="fill:#f9ca24"/><path d="M401.193 84.508h51.237v51.237h-51.237z" style="fill:#686de0"/><path d="M221.306 207.388h51.237v51.237h-51.237z" style="fill:#ff7979"/><path d="M221.306 84.508h51.237v51.237h-51.237z" style="fill:#f9ca24"/><path d="m221.306 135.746 51.237-51.238v51.238z" style="fill:#f0932b"/><path d="M281.269 84.508h51.237v51.237h-51.237z" style="fill:#ff7979"/><path d="M293.548 93.718h8.695v32.817h-8.695zM311.531 93.718h8.695v32.817h-8.695z" style="fill:#dff9fb"/><path d="M341.231 84.508h51.237v51.237h-51.237z" style="fill:#f6e58d"/><path d="M350.161 93.438h33.378v33.378h-33.378z" style="fill:#dff9fb"/><circle cx="426.812" cy="110.127" r="12.622" style="fill:#f6e58d"/><path d="M221.306 143.985h51.237v51.237h-51.237z" style="fill:#f6e58d"/><path d="m246.925 154.944-16.927 29.319h33.854z" style="fill:#f0932b"/><path d="M281.269 143.985h51.237v51.237h-51.237z" style="fill:#686de0"/><path d="m332.506 195.222-51.237-29.858v29.858z" style="fill:#f9ca24"/><path d="M341.231 143.985h51.237v51.237h-51.237z" style="fill:#f0932b"/><path d="M386.796 172.937c0 8.21-6.656 14.866-14.866 14.866s-14.866-6.656-14.866-14.866 6.656-14.866 14.866-14.866 14.866 6.656 14.866 14.866" style="fill:#f9ca24"/><path d="m361.271 195.222 31.197-51.237v51.237z" style="fill:#686de0"/><path d="M401.193 143.985h51.237v51.237h-51.237z" style="fill:#ff7979"/><path d="m401.193 185.489 51.238-12.552v22.285h-51.238zM452.431 153.717l-51.238 12.552v-22.284h51.238zM247.322 214.224v18.773h-19.19c0 10.379 8.414 18.793 18.793 18.793s18.793-8.414 18.793-18.793c0-10.245-8.202-18.56-18.396-18.773" style="fill:#f9ca24"/><path d="M281.269 207.388h51.237v51.237h-51.237z" style="fill:#f0932b"/><path d="M281.269 233.007h51.237v25.619h-51.237zM341.231 207.388h51.237v51.237h-51.237z" style="fill:#686de0"/><path d="M350.947 218.032h31.805v11.166h-31.805zM350.947 236.815h31.805v11.166h-31.805zM401.193 207.388h51.237v51.237h-51.237z" style="fill:#f6e58d"/><path d="m401.193 207.388 51.238 51.237h-51.238z" style="fill:#f0932b"/><path d="M547.916 125.529h-52.722c-7.544 0-13.66-6.116-13.66-13.66V59.147c0-7.544 6.116-13.66 13.66-13.66h52.722c7.544 0 13.66 6.116 13.66 13.66v52.722c0 7.544-6.116 13.66-13.66 13.66" style="fill:#686de0"/><circle cx="521.555" cy="68.15" r="9.768" style="fill:#fff"/><path d="M537.965 112.634h-32.821V93.09c0-6.329 5.13-11.459 11.459-11.459h9.903c6.329 0 11.459 5.131 11.459 11.459z" style="fill:#fff"/><path d="M670.789 104.942h-79.263a6.83 6.83 0 0 1-6.831-6.831V39.885a6.83 6.83 0 0 1 6.831-6.831h79.262a6.83 6.83 0 0 1 6.831 6.831v58.227a6.83 6.83 0 0 1-6.83 6.83" style="fill:#dff9fb"/><path d="M667.895 100.255H594.42a4.464 4.464 0 0 1-4.464-4.465V42.206a4.465 4.465 0 0 1 4.464-4.465h73.474a4.464 4.464 0 0 1 4.464 4.465V95.79a4.463 4.463 0 0 1-4.463 4.465" style="fill:#686de0"/><circle cx="653.137" cy="57.98" r="10.526" style="fill:#f6e58d" transform="rotate(-33.407 653.084 57.986)"/><defs><path id="g" d="M667.895 100.255H594.42a4.464 4.464 0 0 1-4.464-4.465V42.206a4.465 4.465 0 0 1 4.464-4.465h73.474a4.464 4.464 0 0 1 4.464 4.465V95.79a4.463 4.463 0 0 1-4.463 4.465"/></defs><clipPath id="h"><use xlink:href="#g" style="overflow:visible"/></clipPath><path d="m623.207 53.879-33.811 46.376h67.622z" style="clip-path:url(#h);fill:#dff9fb"/><path d="M317.383 326.669c-.07-6.676-5.497-12.068-12.19-12.068-1.787 0-3.48.394-5.009 1.085-3.362-6.658-10.259-11.227-18.228-11.227-10.236 0-18.711 7.535-20.184 17.36a6.422 6.422 0 0 0-8.187 4.849zM309.754 295.324a5.87 5.87 0 0 1 5.869-5.81c.861 0 1.676.19 2.412.522a9.83 9.83 0 0 1 8.776-5.406c4.928 0 9.009 3.628 9.719 8.359a3.093 3.093 0 0 1 3.942 2.335zM227.943 296.601c.051-4.876 4.015-8.814 8.904-8.814a8.9 8.9 0 0 1 3.659.792c2.456-4.863 7.493-8.2 13.313-8.2 7.477 0 13.667 5.503 14.743 12.68a4.69 4.69 0 0 1 5.98 3.542z" style="fill:#dff9fb"/><path d="M707.892 468.909c0 3.195-29.307 5.785-65.46 5.785s-65.46-2.59-65.46-5.785 29.307-5.785 65.46-5.785 65.46 2.59 65.46 5.785" style="opacity:.05;fill:#130f40"/><path d="M620.681 190.682h28.028v116.485h-28.028z" style="fill:#fff"/><path d="M620.415 191.758s2.753 7.01 12.933 7.01c12.36 0 16.317-6.988 16.317-6.988" style="fill:none;stroke:#7ed6df;stroke-width:.5;stroke-linecap:round;stroke-linejoin:round;stroke-miterlimit:10"/><path d="M615.671 462.17a3.015 3.015 0 0 0-3.015-3.015h-9.244s-12.975-.569-12.975 9.855h25.234z" style="fill:#dff9fb"/><path d="M590.983 466.546h24.688M598.518 459.702l4.536 6.844M601.913 459.32l2.487 3.804M605.542 459.32l2.487 3.804" style="fill:none;stroke:#7ed6df;stroke-width:.5;stroke-linecap:round;stroke-linejoin:round;stroke-miterlimit:10"/><circle cx="629.926" cy="160.993" r="21.225" style="fill:#130f40" transform="rotate(-80.811 629.923 160.978)"/><path d="M620.025 163.519s-5.918-5.939-7.609-2.179c-1.406 3.127 5.976 6.475 5.976 6.475z" style="fill:#ffc2bd"/><path d="m614.173 162.098 3.445 1.869" style="fill:none;stroke:#ff7979;stroke-width:.5;stroke-linecap:round;stroke-linejoin:round;stroke-miterlimit:10"/><path d="M586.399 439.067h49.273l17.989-131.899h-49.272z" style="fill:#ffbe76"/><path d="M707.892 439.067h-49.273L640.63 307.168h49.272z" style="fill:#ffbe76"/><path d="m647.145 354.941-3.517-25.786M688.885 439.067l-20.719-131.899M610.555 439.067l12.633-89.449" style="fill:none;stroke:#130f40;stroke-width:.5;stroke-linecap:round;stroke-linejoin:round;stroke-miterlimit:10"/><path d="M653.661 428.959h58.218v11.623h-58.218zM581.446 428.959h58.218v11.623h-58.218z" style="fill:#f6e58d"/><path d="m640.63 402.714 3.452-70.233 3.063 22.46zM594.849 377.111h11.023a7.61 7.61 0 0 0 7.612-7.612v-8.475H596.91z" style="opacity:.1"/><path d="M620.681 190.682v134.426H596.91v-93.997z" style="fill:#686de0"/><path d="m620.681 190.682-10.172 1.8a33.01 33.01 0 0 0-25.066 20.682l-15.865 41.363h35.342z" style="fill:#686de0"/><path d="M606.701 367.598H482.123a6.784 6.784 0 0 1-6.784-6.783V144.151a6.784 6.784 0 0 1 6.784-6.784h124.578a6.784 6.784 0 0 1 6.784 6.784v216.663a6.786 6.786 0 0 1-6.784 6.784" style="fill:#535c68"/><path d="M484.72 161.245v206.353" style="fill:none;stroke:#fff;stroke-width:.5;stroke-miterlimit:10"/><path d="M493.734 170.581h3.6v1.658h-3.6z" style="fill:#c7ecee"/><path d="M500.029 170.581h13.266v1.658h-13.266z" style="fill:#f9ca24"/><path d="M529.255 172.239h13.101v-1.658H515.99v1.658h13.1z" style="fill:#e056fd"/><path d="M493.734 186.7h3.6v1.658h-3.6z" style="fill:#c7ecee"/><path d="M500.029 186.7h13.266v1.658h-13.266z" style="fill:#686de0"/><path d="M529.09 186.7h-13.1v1.659h26.366V186.7h-13.101z" style="fill:#badc58"/><path d="M553.031 186.7h-7.981v1.659h21.246V186.7h-7.98z" style="fill:#f9ca24"/><path d="M568.991 186.7h13.266v1.658h-13.266z" style="fill:#eb4d4b"/><path d="M584.951 186.7h5.486v1.658h-5.486z" style="fill:#e056fd"/><path d="M493.734 174.611h3.6v1.658h-3.6z" style="fill:#c7ecee"/><path d="M513.295 176.269h11.763v-1.658h-25.029v1.658h11.763z" style="fill:#e056fd"/><path d="M541.018 176.269h12.178v-1.658h-25.443v1.658h12.177z" style="fill:#eb4d4b"/><path d="M555.89 174.611h5.286v1.658h-5.286zM563.87 174.611h5.286v1.658h-5.286z" style="fill:#badc58"/><path d="M493.734 178.641h3.6v1.658h-3.6z" style="fill:#c7ecee"/><path d="M500.029 178.641h10.447v1.658h-10.447z" style="fill:#eb4d4b"/><path d="M513.295 178.641h13.266v1.658h-13.266z" style="fill:#686de0"/><path d="M555.786 178.641h-26.531v1.658h26.531z" style="fill:#f9ca24"/><path d="M558.533 178.641h4.673v1.658h-4.673z" style="fill:#e056fd"/><path d="M493.734 166.865h3.6v1.658h-3.6z" style="fill:#c7ecee"/><path d="M500.029 166.865h7.332v1.658h-7.332z" style="fill:#686de0"/><path d="M510.056 166.865h4.323v1.658h-4.323z" style="fill:#eb4d4b"/><path d="M516.938 166.865h9.347v1.658h-9.347z" style="fill:#f9ca24"/><path d="M493.734 182.671h3.6v1.658h-3.6z" style="fill:#c7ecee"/><path d="M521.612 182.671h-21.583v1.658h21.583z" style="fill:#e056fd"/><path d="M524.331 182.671h4.924v1.658h-4.924z" style="fill:#eb4d4b"/><path d="M531.95 182.671h2.784v1.658h-2.784z" style="fill:#fff"/><path d="M537.47 182.671h13.266v1.658H537.47z" style="fill:#686de0"/><path d="M493.734 196.079h3.6v1.658h-3.6z" style="fill:#c7ecee"/><path d="M500.029 196.079h13.266v1.658h-13.266z" style="fill:#f9ca24"/><path d="M493.734 212.198h3.6v1.658h-3.6z" style="fill:#c7ecee"/><path d="M500.029 212.198h13.266v1.658h-13.266z" style="fill:#686de0"/><path d="M529.09 212.198h-13.1v1.658h26.366v-1.658h-13.101z" style="fill:#badc58"/><path d="M544.95 212.198h13.266v1.658H544.95z" style="fill:#eb4d4b"/><path d="M560.91 212.198h5.486v1.658h-5.486z" style="fill:#e056fd"/><path d="M493.734 200.109h3.6v1.658h-3.6z" style="fill:#c7ecee"/><path d="M513.295 201.767h11.763v-1.658h-25.029v1.658h11.763z" style="fill:#e056fd"/><path d="M493.734 204.138h3.6v1.658h-3.6z" style="fill:#c7ecee"/><path d="M500.029 204.138h10.447v1.658h-10.447z" style="fill:#eb4d4b"/><path d="M513.295 204.138h13.266v1.658h-13.266z" style="fill:#686de0"/><path d="M555.786 204.138h-26.531v1.659h26.531z" style="fill:#f9ca24"/><path d="M558.533 204.138h4.673v1.658h-4.673z" style="fill:#e056fd"/><path d="M493.734 192.363h3.6v1.658h-3.6z" style="fill:#c7ecee"/><path d="M500.029 192.363h7.332v1.658h-7.332z" style="fill:#686de0"/><path d="M510.056 192.363h4.323v1.658h-4.323z" style="fill:#eb4d4b"/><path d="M516.938 192.363h9.347v1.658h-9.347z" style="fill:#f9ca24"/><path d="M493.734 208.168h3.6v1.658h-3.6z" style="fill:#c7ecee"/><path d="M521.612 208.168h-21.583v1.658h21.583z" style="fill:#e056fd"/><path d="M524.331 208.168h4.924v1.658h-4.924z" style="fill:#eb4d4b"/><path d="M531.95 208.168h2.784v1.658h-2.784z" style="fill:#fff"/><path d="M537.47 208.168h13.266v1.658H537.47z" style="fill:#686de0"/><path d="M493.734 221.577h3.6v1.658h-3.6z" style="fill:#c7ecee"/><path d="M500.029 221.577h13.266v1.658h-13.266z" style="fill:#f9ca24"/><path d="M529.255 223.235h7.98v-1.658H515.99v1.658h7.98z" style="fill:#eb4d4b"/><path d="M539.93 221.577h13.266v1.658H539.93z" style="fill:#e056fd"/><path d="M561.376 221.577h-5.486v1.658h5.486z" style="fill:#686de0"/><path d="M493.734 237.696h3.6v1.658h-3.6z" style="fill:#c7ecee"/><path d="M500.029 237.696h13.266v1.658h-13.266z" style="fill:#686de0"/><path d="M493.734 225.606h3.6v1.658h-3.6z" style="fill:#c7ecee"/><path d="M513.295 227.265h11.763v-1.659h-25.029v1.659h11.763z" style="fill:#e056fd"/><path d="M541.018 227.265h12.178v-1.659h-25.443v1.659h12.177z" style="fill:#eb4d4b"/><path d="M555.89 225.606h5.286v1.658h-5.286zM563.87 225.606h5.286v1.658h-5.286z" style="fill:#badc58"/><path d="M493.734 229.636h3.6v1.658h-3.6z" style="fill:#c7ecee"/><path d="M500.029 229.636h10.447v1.658h-10.447z" style="fill:#eb4d4b"/><path d="M513.295 229.636h13.266v1.658h-13.266z" style="fill:#686de0"/><path d="M555.786 229.636h-26.531v1.658h26.531z" style="fill:#f9ca24"/><path d="M558.533 229.636h4.673v1.658h-4.673z" style="fill:#e056fd"/><path d="M493.734 217.861h3.6v1.658h-3.6z" style="fill:#c7ecee"/><path d="M500.029 217.861h7.332v1.658h-7.332z" style="fill:#686de0"/><path d="M510.056 217.861h4.323v1.658h-4.323z" style="fill:#eb4d4b"/><path d="M516.938 217.861h9.347v1.658h-9.347z" style="fill:#f9ca24"/><path d="M493.734 241.429h3.6v1.658h-3.6z" style="fill:#c7ecee"/><path d="M500.029 241.429h7.332v1.658h-7.332z" style="fill:#686de0"/><path d="M510.056 241.429h4.323v1.658h-4.323z" style="fill:#eb4d4b"/><path d="M493.734 233.666h3.6v1.658h-3.6z" style="fill:#c7ecee"/><path d="M521.612 233.666h-21.583v1.658h21.583z" style="fill:#e056fd"/><path d="M493.734 251.601h3.6v1.658h-3.6z" style="fill:#c7ecee"/><path d="M500.029 318.733h13.266v1.658h-13.266z" style="fill:#f9ca24"/><path d="M529.255 318.733h13.101v1.658H515.99v-1.658h13.1z" style="fill:#e056fd"/><path d="M493.734 267.72h3.6v1.658h-3.6z" style="fill:#c7ecee"/><path d="M500.029 302.614h13.266v1.658h-13.266z" style="fill:#686de0"/><path d="M529.09 304.272h-13.1v-1.658h26.366v1.658h-13.101z" style="fill:#badc58"/><path d="M553.031 304.272h-7.981v-1.658h21.246v1.658h-7.98z" style="fill:#f9ca24"/><path d="M568.991 302.614h13.266v1.658h-13.266z" style="fill:#eb4d4b"/><path d="M584.951 302.614h5.486v1.658h-5.486z" style="fill:#e056fd"/><path d="M493.734 255.631h3.6v1.658h-3.6z" style="fill:#c7ecee"/><path d="M513.295 314.703h11.763v1.658h-25.029v-1.658h11.763z" style="fill:#e056fd"/><path d="M541.018 314.703h12.178v1.658h-25.443v-1.658h12.177z" style="fill:#eb4d4b"/><path d="M555.89 314.703h5.286v1.658h-5.286zM563.87 314.703h5.286v1.658h-5.286z" style="fill:#badc58"/><path d="M493.734 259.661h3.6v1.658h-3.6z" style="fill:#c7ecee"/><path d="M500.029 310.673h10.447v1.658h-10.447z" style="fill:#eb4d4b"/><path d="M513.295 310.673h13.266v1.658h-13.266z" style="fill:#686de0"/><path d="M555.786 312.332h-26.531v-1.659h26.531z" style="fill:#f9ca24"/><path d="M558.533 310.673h4.673v1.658h-4.673z" style="fill:#e056fd"/><path d="M493.734 247.886h3.6v1.658h-3.6z" style="fill:#c7ecee"/><path d="M500.029 322.449h7.332v1.658h-7.332z" style="fill:#686de0"/><path d="M510.056 322.449h4.323v1.658h-4.323z" style="fill:#eb4d4b"/><path d="M516.938 322.449h9.347v1.658h-9.347z" style="fill:#f9ca24"/><path d="M493.734 263.691h3.6v1.658h-3.6z" style="fill:#c7ecee"/><path d="M521.612 308.302h-21.583v-1.658h21.583z" style="fill:#e056fd"/><path d="M524.331 306.644h4.924v1.658h-4.924z" style="fill:#eb4d4b"/><path d="M531.95 306.644h2.784v1.658h-2.784z" style="fill:#fff"/><path d="M537.47 306.644h13.266v1.658H537.47z" style="fill:#686de0"/><path d="M493.734 277.099h3.6v1.658h-3.6z" style="fill:#c7ecee"/><path d="M500.029 293.235h13.266v1.658h-13.266z" style="fill:#f9ca24"/><path d="M493.734 293.218h3.6v1.658h-3.6z" style="fill:#c7ecee"/><path d="M500.029 277.116h13.266v1.658h-13.266z" style="fill:#686de0"/><path d="M529.09 278.775h-13.1v-1.659h26.366v1.659h-13.101z" style="fill:#badc58"/><path d="M544.95 277.116h13.266v1.658H544.95z" style="fill:#eb4d4b"/><path d="M560.91 277.116h5.486v1.658h-5.486z" style="fill:#e056fd"/><path d="M493.734 281.129h3.6v1.658h-3.6z" style="fill:#c7ecee"/><path d="M513.295 289.205h11.763v1.659h-25.029v-1.659h11.763z" style="fill:#e056fd"/><path d="M493.734 285.158h3.6v1.658h-3.6z" style="fill:#c7ecee"/><path d="M500.029 285.176h10.447v1.658h-10.447z" style="fill:#eb4d4b"/><path d="M513.295 285.176h13.266v1.658h-13.266z" style="fill:#686de0"/><path d="M555.786 286.834h-26.531v-1.658h26.531z" style="fill:#f9ca24"/><path d="M558.533 285.176h4.673v1.658h-4.673z" style="fill:#e056fd"/><path d="M493.734 273.383h3.6v1.658h-3.6z" style="fill:#c7ecee"/><path d="M500.029 296.951h7.332v1.658h-7.332z" style="fill:#686de0"/><path d="M510.056 296.951h4.323v1.658h-4.323z" style="fill:#eb4d4b"/><path d="M516.938 296.951h9.347v1.658h-9.347z" style="fill:#f9ca24"/><path d="M493.734 289.188h3.6v1.658h-3.6z" style="fill:#c7ecee"/><path d="M521.612 282.804h-21.583v-1.658h21.583z" style="fill:#e056fd"/><path d="M524.331 281.146h4.924v1.658h-4.924z" style="fill:#eb4d4b"/><path d="M531.95 281.146h2.784v1.658h-2.784z" style="fill:#fff"/><path d="M537.47 281.146h13.266v1.658H537.47z" style="fill:#686de0"/><path d="M493.734 302.597h3.6v1.658h-3.6z" style="fill:#c7ecee"/><path d="M500.029 267.738h13.266v1.658h-13.266z" style="fill:#f9ca24"/><path d="M529.255 267.738h7.98v1.658H515.99v-1.658h7.98z" style="fill:#eb4d4b"/><path d="M539.93 267.738h13.266v1.658H539.93z" style="fill:#e056fd"/><path d="M561.376 269.396h-5.486v-1.658h5.486z" style="fill:#686de0"/><path d="M493.734 318.716h3.6v1.658h-3.6z" style="fill:#c7ecee"/><path d="M500.029 251.619h13.266v1.658h-13.266z" style="fill:#686de0"/><path d="M493.734 306.626h3.6v1.658h-3.6z" style="fill:#c7ecee"/><path d="M513.295 263.708h11.763v1.658h-25.029v-1.658h11.763z" style="fill:#e056fd"/><path d="M541.018 263.708h12.178v1.658h-25.443v-1.658h12.177z" style="fill:#eb4d4b"/><path d="M555.89 263.708h5.286v1.658h-5.286zM563.87 263.708h5.286v1.658h-5.286z" style="fill:#badc58"/><path d="M493.734 310.656h3.6v1.658h-3.6z" style="fill:#c7ecee"/><path d="M500.029 259.678h10.447v1.658h-10.447z" style="fill:#eb4d4b"/><path d="M513.295 259.678h13.266v1.658h-13.266z" style="fill:#686de0"/><path d="M555.786 261.336h-26.531v-1.658h26.531z" style="fill:#f9ca24"/><path d="M558.533 259.678h4.673v1.658h-4.673z" style="fill:#e056fd"/><path d="M493.734 298.881h3.6v1.658h-3.6z" style="fill:#c7ecee"/><path d="M500.029 271.453h7.332v1.658h-7.332z" style="fill:#686de0"/><path d="M510.056 271.453h4.323v1.658h-4.323z" style="fill:#eb4d4b"/><path d="M516.938 271.453h9.347v1.658h-9.347z" style="fill:#f9ca24"/><path d="M493.734 322.449h3.6v1.658h-3.6z" style="fill:#c7ecee"/><path d="M500.029 247.886h7.332v1.658h-7.332z" style="fill:#686de0"/><path d="M510.056 247.886h4.323v1.658h-4.323z" style="fill:#eb4d4b"/><path d="M493.734 314.686h3.6v1.658h-3.6z" style="fill:#c7ecee"/><path d="M521.612 257.307h-21.583v-1.659h21.583z" style="fill:#e056fd"/><path d="M524.331 255.648h4.924v1.658h-4.924z" style="fill:#eb4d4b"/><defs><path id="i" d="M606.701 367.598H482.123a6.784 6.784 0 0 1-6.784-6.783V144.151a6.784 6.784 0 0 1 6.784-6.784h124.578a6.784 6.784 0 0 1 6.784 6.784v216.663a6.786 6.786 0 0 1-6.784 6.784"/></defs><clipPath id="j"><use xlink:href="#i" style="overflow:visible"/></clipPath><path d="M463.116 137.367h158.051v23.878H463.116z" style="clip-path:url(#j);fill:#686de0"/><path d="M453.893 329.155h165.412v47.957H453.893z" style="clip-path:url(#j);fill:#f6e58d"/><path d="M486.994 340.314h34.617v2.939h-34.617zM486.994 345.963h18.932v2.939h-18.932zM486.994 351.612h11.043v2.939h-11.043zM542.356 340.314h34.617v2.939h-34.617zM542.356 345.963h18.932v2.939h-18.932zM542.356 351.612h11.043v2.939h-11.043z" style="fill:#fff"/><path d="M490.5 148.406a2.89 2.89 0 1 1-5.78 0 2.89 2.89 0 0 1 5.78 0" style="fill:#eb4d4b"/><path d="M502.919 148.406a2.89 2.89 0 1 1-5.78 0 2.89 2.89 0 0 1 5.78 0M515.338 148.406a2.89 2.89 0 1 1-5.78 0 2.89 2.89 0 0 1 5.78 0" style="fill:#f9ca24"/><path d="M648.709 190.682v134.426h51.547l-28.553-124.824z" style="fill:#686de0"/><g style="opacity:.1"><path d="m620.681 235.912 4.845 48.515-4.845 31.079z"/><path d="M613.208 276.657s10.17.948 13.771-3.411c0 0 18.635 12.887 39.292 13.266s23.374-7.794 23.374-7.794l-1.541-6.738-61.124-2.966-13.771 1.79z"/></g><path d="m648.709 190.682 10.172 1.8a33.01 33.01 0 0 1 25.066 20.682l15.865 41.363H664.47z" style="fill:#686de0"/><path d="m664.47 254.528-7.418-30.05" style="fill:none;stroke:#130f40;stroke-width:.5;stroke-linecap:round;stroke-linejoin:round;stroke-miterlimit:10"/><path d="M664.47 254.528h-37.492v14.485s15.414 9.855 41.44 10.865c26.026 1.011 25.268-25.351 25.268-25.351H664.47z" style="fill:#ffc2bd"/><path d="M626.979 254.528s-1.263-5.603-10.233-5.603-13.645 1.39-13.392 3.538 5.433 2.065 5.433 2.065-6.191-.17-6.57 2.483 6.443 2.779 6.443 2.779-4.674.505-4.548 2.78 4.422 2.148 4.422 2.148-2.906.731-2.906 2.5 15.413 7.734 21.351 1.796z" style="fill:#ffc2bd"/><path d="m608.786 254.528 11.244-.423M608.659 259.79l11.371.253M608.533 264.717l11.497.948" style="fill:none;stroke:#ff7979;stroke-width:.5;stroke-linecap:round;stroke-linejoin:round;stroke-miterlimit:10"/><path d="M620.681 249.358s-1.156-12.119-4.883-12.308-1.832 13.455-1.832 13.455z" style="fill:#ffc2bd"/><path d="m613.484 248.994 5.22-.069" style="fill:none;stroke:#ff7979;stroke-width:.5;stroke-linecap:round;stroke-linejoin:round;stroke-miterlimit:10"/><path d="m655.532 325.108 38.156 9.821-1.339-9.821zM668.166 254.316l22.808 12.901s2.965-4.686 2.712-12.69z" style="opacity:.1"/><path d="m605.248 440.583-1.516 18.572h9.752l6.546-18.572zM674.625 440.583l5.214 18.572h9.752l-.185-18.572z" style="fill:#ffc2bd"/><path d="M604.846 445.508h13.448l1.736-4.925h-14.782zM676.008 445.508h13.583l-.185-4.925h-14.781z" style="opacity:.1"/><path d="m637.992 167.815 9.371 22.867s-3.215 5.527-12.668 5.527-11.968-5.527-11.968-5.527l2.306-11.908z" style="fill:#ffc2bd"/><path d="M624.322 182.443s2.643 1.092 7.042-.92c6.628-3.032 6.628-13.708 6.628-13.708l-12.96 10.959z" style="opacity:.1"/><circle cx="626.875" cy="167.815" r="11.118" style="fill:#ffc2bd"/><path d="M633.349 163.519s7.792-5.875 10.256-2.179c2.464 3.695-8.054 6.475-8.054 6.475z" style="fill:#ffc2bd"/><path d="m641.236 162.098-4.643 1.869" style="fill:none;stroke:#ff7979;stroke-width:.5;stroke-linecap:round;stroke-linejoin:round;stroke-miterlimit:10"/><path d="M622.195 167.057a6.064 6.064 0 1 1-12.128 0 6.064 6.064 0 0 1 12.128 0zM635.99 167.057a6.064 6.064 0 1 1-12.128 0 6.064 6.064 0 0 1 12.128 0z" style="fill:none;stroke:#fff;stroke-miterlimit:10"/><path d="m623.043 174.258 3.285-.505s-.948 2.716-3.285.505" style="fill:#fff"/><path d="M627.496 168.115s1.848-1.042 3.98 0M616.893 168.115s1.848-1.042 3.98 0" style="fill:none;stroke:#ff7979;stroke-width:.5;stroke-linecap:round;stroke-linejoin:round;stroke-miterlimit:10"/><path d="M691.778 462.17a3.015 3.015 0 0 0-3.015-3.015h-9.244s-12.975-.569-12.975 9.855h25.234z" style="fill:#dff9fb"/><path d="M667.09 466.546h24.688M674.625 459.702l4.536 6.844M678.02 459.32l2.488 3.804M681.649 459.32l2.487 3.804" style="fill:none;stroke:#7ed6df;stroke-width:.5;stroke-linecap:round;stroke-linejoin:round;stroke-miterlimit:10"/><path d="M658.122 254.528v-23.543l6.348 23.543z" style="opacity:.1"/><path d="M225.51 465.215c0 3.195-37.458 5.785-83.664 5.785s-83.663-2.59-83.663-5.785 37.457-5.785 83.663-5.785 83.664 2.59 83.664 5.785" style="opacity:.05;fill:#130f40"/><path d="M100.846 366.914v74.448" style="fill:none;stroke:#130f40;stroke-width:.75;stroke-linecap:round;stroke-linejoin:round;stroke-miterlimit:10"/><path d="M100.846 384.462a5.067 5.067 0 0 1 5.067 5.067v70.621a5.067 5.067 0 1 1-10.134 0v-70.621a5.067 5.067 0 0 1 5.067-5.067" style="fill:#ffbe76"/><path d="M74.056 417.209h55.788M85.119 361.354 69.118 441.82" style="fill:none;stroke:#130f40;stroke-width:.75;stroke-linecap:round;stroke-linejoin:round;stroke-miterlimit:10"/><path d="M80.215 386.013a5.066 5.066 0 0 1 3.981 5.958l-13.773 69.264a5.068 5.068 0 0 1-9.94-1.976l13.773-69.264a5.07 5.07 0 0 1 5.959-3.982" style="fill:#ffbe76"/><path d="m117.478 361.354 16.001 80.466" style="fill:none;stroke:#130f40;stroke-width:.75;stroke-linecap:round;stroke-linejoin:round;stroke-miterlimit:10"/><path d="M122.381 386.013a5.066 5.066 0 0 0-3.981 5.958l13.773 69.264a5.068 5.068 0 0 0 9.94-1.976l-13.773-69.264a5.07 5.07 0 0 0-5.959-3.982" style="fill:#ffbe76"/><path d="M45.971 271.694h58.118v78.086s-33.354 6.762-49.731-6.064-8.387-72.022-8.387-72.022" style="fill:#f6e58d"/><path d="M45.971 271.694 38.92 312.21c-6.206 35.662 24.648 66.868 60.354 60.918 12.773-2.129 23.414-4.981 27.813-8.789l-44.133-7.933c-19.225-5.409-32.947-22.357-34.237-42.287z" style="fill:#ffbe76"/><path d="m97.303 236.919-2.585 6.307.104 90.217 25.064.714-.531-90.931-2.638-6.307z" style="fill:#fff"/><path d="M88.387 242.072s4.594 11.371 17.754 11.371 19.398-8.086 19.398-8.086" style="fill:none;stroke:#7ed6df;stroke-width:.5;stroke-linecap:round;stroke-linejoin:round;stroke-miterlimit:10"/><path d="M119.302 243.226v94.281h32.275l1.453-65.034s-6.294-16.189-14.548-25.699c-5.463-6.294-13.43-9.855-21.764-9.855z" style="fill:#f0932b"/><path d="M127.418 333.443h62.086c9.833 0 18.004 7.578 18.744 17.382l5.543 73.412h-43.013l-11.095-59.898h-36.146z" style="fill:#4834d4"/><path d="m193.167 424.237-5.946-71.901a8.335 8.335 0 0 0-8.308-7.649h-33.879" style="fill:none;stroke:#130f40;stroke-width:.5;stroke-linecap:round;stroke-linejoin:round;stroke-miterlimit:10"/><path d="M168.664 436.858H219l-1.346-12.621h-50.336z" style="fill:#7ed6df"/><path d="m195.039 334.157-20.2 26.07-8.398 40.595-7.409-66.665z" style="opacity:.1"/><path d="M94.822 333.443h64.991c7.734 0 13.736 6.747 12.835 14.428l-8.953 76.366h-43.013l6.404-59.898H90.941z" style="fill:#686de0"/><path d="m144.576 424.237 10.182-68.27c.886-5.941-3.716-11.281-9.723-11.281H94.718" style="fill:none;stroke:#130f40;stroke-width:.5;stroke-linecap:round;stroke-linejoin:round;stroke-miterlimit:10"/><path d="M165.707 436.858h-50.336l1.346-12.621h50.336z" style="fill:#7ed6df"/><path d="m94.822 333.443 35.57 23.499 5.254-7.075-1.567 8.338 5.038 6.134-7.277-1.08 2.239 6.569-9.657 19.438 2.665-24.927H94.718z" style="opacity:.1"/><path d="m134.079 269.007 5.038 39.673" style="fill:none;stroke:#130f40;stroke-width:.5;stroke-linecap:round;stroke-linejoin:round;stroke-miterlimit:10"/><path d="M94.718 243.226v143.785H62.444V269.002s4.841-12.718 13.095-22.228c5.463-6.294 13.43-9.855 21.764-9.855z" style="fill:#f0932b"/><path d="M62.444 315.564v7.606s2.274 8.504 13.139 11.789c7.808 2.361 19.135 1.516 19.135 1.516v-13.139z" style="opacity:.1"/><path d="M86.111 239.158a56.73 56.73 0 0 0-33.775 51.876c0 19.235 15.593 34.828 34.828 34.828h32.722v-36.828l-35.457 1.512z" style="fill:#f0932b"/><path d="M94.718 325.862h-7.553M94.718 290.107H79.121M86.745 290.107l1.642-21.105M112.156 289.363v36.499" style="fill:none;stroke:#130f40;stroke-width:.5;stroke-linecap:round;stroke-linejoin:round;stroke-miterlimit:10"/><path d="m119.886 290.107 9.391-.743 11.371-2.667s2.906 6.57-1.642 10.36-9.097 2.811-9.097 2.811l-10.687 5.872z" style="fill:#ffc2bd"/><path d="M135.646 299.102s5.089 8.917 8.027 8.511c2.939-.406-4.557-8.219-4.557-8.219s7.848 6.822 9.743 4.548-7.298-7.58-7.298-7.58 7.52 7.077 9.794 4.613-6.784-8.13-6.784-8.13 6.423 5.697 8.697 3.043-12.621-9.191-12.621-9.191zM122.057 216.063s5.918-5.939 7.609-2.179c1.406 3.127-5.976 6.475-5.976 6.475z" style="fill:#ffc2bd"/><path d="m127.909 214.642-3.445 1.869" style="fill:none;stroke:#ff7979;stroke-width:.5;stroke-linecap:round;stroke-linejoin:round;stroke-miterlimit:10"/><path d="m104.089 220.359-9.371 22.868s3.215 5.527 12.668 5.527 11.968-5.527 11.968-5.527l-2.306-11.908z" style="fill:#ffc2bd"/><path d="M117.907 235.819s-5.312 1.871-9.174-.568c-6.162-3.892-4.644-14.892-4.644-14.892l12.96 10.959z" style="opacity:.1"/><circle cx="115.207" cy="220.359" r="11.118" style="fill:#ffc2bd" transform="rotate(-4.726 115.2 220.294)"/><path d="M108.733 216.063s-7.792-5.875-10.256-2.179 8.054 6.475 8.054 6.475z" style="fill:#ffc2bd"/><path d="m100.846 214.642 4.643 1.869" style="fill:none;stroke:#ff7979;stroke-width:.5;stroke-linecap:round;stroke-linejoin:round;stroke-miterlimit:10"/><path d="m119.039 226.802-3.285-.505s.948 2.716 3.285.505" style="fill:#fff"/><path d="M114.585 220.659s-1.848-1.042-3.98 0M125.189 220.659s-1.848-1.042-3.98 0" style="fill:none;stroke:#ff7979;stroke-width:.5;stroke-linecap:round;stroke-linejoin:round;stroke-miterlimit:10"/><path d="m110.137 213.925-2.952-1.262M108.733 214.752l-2.591-.827" style="fill:none;stroke:#130f40;stroke-width:.5;stroke-linecap:round;stroke-linejoin:round;stroke-miterlimit:10"/><path d="M134.411 192.785c-2.401-4.359-19.121-8.295-23.29-6.021-3.767 2.055-3.501 20.727-3.414 24.314a.77.77 0 0 0 .604.731l16.778 3.897a.77.77 0 0 0 .836-.343c1.77-2.876 10.927-18.146 8.486-22.578" style="fill:#130f40"/><path d="m94.718 325.862.079 5.757 19.004 1.697 6.085-7.454 3.651-16.045 6.372-9.949-10.687 5.871.664 20.123z" style="opacity:.1"/><path d="M205.284 330.59h-65.871a3.766 3.766 0 0 1-3.702-4.452l9.374-50.585a3.765 3.765 0 0 1 3.702-3.079h65.871a3.765 3.765 0 0 1 3.702 4.452l-9.374 50.585a3.766 3.766 0 0 1-3.702 3.079" style="fill:#22a6b3"/><path d="M207.976 330.59h-65.871a3.766 3.766 0 0 1-3.702-4.452l9.374-50.585a3.765 3.765 0 0 1 3.702-3.079h65.871a3.764 3.764 0 0 1 3.702 4.452l-9.374 50.585a3.765 3.765 0 0 1-3.702 3.079" style="fill:#7ed6df"/><path d="M208.894 334.157h-73.567v-3.568h73.567a1.784 1.784 0 0 1 0 3.568" style="fill:#7ed6df"/><path d="M137.333 334.157h-31.46a1.784 1.784 0 0 1 0-3.568h31.46a1.784 1.784 0 0 1 0 3.568" style="fill:#22a6b3"/><defs><path id="k" d="M208.894 334.157h-73.567v-3.568h73.567a1.784 1.784 0 0 1 0 3.568"/></defs><clipPath id="l"><use xlink:href="#k" style="overflow:visible"/></clipPath><path d="M159.032 329.482h36.007v4.675h-36.007z" style="clip-path:url(#l);fill:#130f40"/><path d="m179.008 291.075-4.169 9.097h6.823l-2.654 7.58 7.581-10.613h-5.875l3.348-6.064z" style="fill:#fff"/><path d="M200.276 458.378a3.015 3.015 0 0 1 3.015-3.015h9.244s12.975-.568 12.975 9.855h-25.234z" style="fill:#f0932b"/><path d="M224.964 462.753h-24.688M217.43 455.91l-4.537 6.843M214.034 455.528l-2.487 3.804M210.406 455.528l-2.488 3.804" style="fill:none;stroke:#130f40;stroke-width:.5;stroke-linecap:round;stroke-linejoin:round;stroke-miterlimit:10"/><path d="m210.699 436.79 1.516 18.572h-9.752l-6.546-18.572zM141.322 436.79l-5.214 18.572h-9.752l.185-18.572z" style="fill:#ffc2bd"/><path d="M124.169 458.378a3.015 3.015 0 0 1 3.015-3.015h9.244s12.975-.568 12.975 9.855h-25.234z" style="fill:#f0932b"/><path d="M148.857 462.753h-24.688M141.322 455.91l-4.536 6.843M137.927 455.528l-2.487 3.804M134.298 455.528l-2.487 3.804" style="fill:none;stroke:#130f40;stroke-width:.5;stroke-linecap:round;stroke-linejoin:round;stroke-miterlimit:10"/><ellipse cx="388.684" cy="458.218" rx="65.46" ry="9.015" style="opacity:.05;fill:#130f40"/><path d="M395.876 311.231h-14.383c-19.084 0-34.554 15.47-34.554 34.554v48.937h83.491v-48.937c0-19.084-15.47-34.554-34.554-34.554" style="fill:#686de0"/><path d="M377.192 269.764s1.584-8.806 15.497-7.739c20.397 1.564 23.376 43.442 23.376 43.442h-54.989c-.001-.001-.001-38.591 16.116-35.703" style="fill:#130f40"/><path d="m395.248 292.812 6.702 18.626s-2.259 6.683-13.689 6.683-12.842-6.683-12.842-6.683l6.558-18.626zM396.387 287.143s9.421-7.103 12.399-2.635-9.738 7.828-9.738 7.828z" style="fill:#ffc2bd"/><path d="m405.922 285.425-5.613 2.26" style="fill:none;stroke:#ff7979;stroke-width:.5;stroke-linecap:round;stroke-linejoin:round;stroke-miterlimit:10"/><path d="M381.113 287.143s-9.421-7.103-12.4-2.635c-2.978 4.468 9.738 7.828 9.738 7.828z" style="fill:#ffc2bd"/><path d="m371.578 285.425 5.614 2.26" style="fill:none;stroke:#ff7979;stroke-width:.5;stroke-linecap:round;stroke-linejoin:round;stroke-miterlimit:10"/><path d="m379.839 298.883-.742 2.108s1.885 5.729 9.587 5.729 9.507-5.729 9.507-5.729l-.691-2.108z" style="opacity:.1"/><circle cx="388.684" cy="289.862" r="13.442" style="fill:#ffc2bd" transform="rotate(-82.866 388.66 289.85)"/><path d="M400.961 284.39s-13.327 2.925-19.389-5.925c0 0 6.196-5.025 12.726-2.504 6.53 2.52 6.663 8.429 6.663 8.429" style="fill:#130f40"/><path d="m386.699 299.943 3.971-.611s-1.146 3.284-3.971.611" style="fill:#fff"/><path d="M395.162 292.812a1.157 1.157 0 1 1-2.314 0 1.157 1.157 0 0 1 2.314 0M384.52 292.812a1.157 1.157 0 1 1-2.314 0 1.157 1.157 0 0 1 2.314 0" style="fill:#130f40"/><path d="M392.138 285.317s2.463-1.7 5.671-.497M385.231 285.317s-2.463-1.7-5.671-.497" style="fill:none;stroke:#130f40;stroke-width:.5;stroke-linecap:round;stroke-linejoin:round;stroke-miterlimit:10"/><path d="M387.677 290.365a7.332 7.332 0 1 1-14.665 0 7.332 7.332 0 0 1 14.665 0zM404.355 290.365a7.332 7.332 0 1 1-14.665 0 7.332 7.332 0 0 1 14.665 0z" style="fill:none;stroke:#fff;stroke-miterlimit:10"/><path d="M374.273 311.231v75.947h-47.475s12.482-75.947 47.475-75.947M402.813 311.231v75.947h47.475s-12.482-75.947-47.475-75.947" style="fill:#dff9fb"/><path d="m392.273 428.006-22.833-6.768s-8.62 8.22-11.78 6.768 7.183-14.059 7.183-14.059h33.488z" style="fill:#ffc2bd"/><path d="M368.854 413.947s28.6-33.939 73.421-36.956 65.845 30.599 58.996 55.595-53.508 42.81-111.201 14.509l12.232-31.748z" style="fill:#ffbe76"/><path d="M461.237 396.816s-19.797 1.149-36.762 9.194M404.3 426.283s60.242 25.985 94.504-20.272" style="fill:none;stroke:#130f40;stroke-width:.5;stroke-linecap:round;stroke-linejoin:round;stroke-miterlimit:10"/><path d="M450.57 398.157s2.622-4.501 6.357-7.087" style="fill:none;stroke:#130f40;stroke-width:.5;stroke-linecap:round;stroke-linejoin:round;stroke-miterlimit:10"/><path d="M373.661 421.101h49.993v10.363h-49.993z" style="fill:#f6e58d" transform="rotate(113.31 398.648 426.295)"/><path d="m385.095 428.006 22.833-6.768s8.62 8.22 11.78 6.768-7.183-14.059-7.183-14.059h-33.488z" style="fill:#ffc2bd"/><path d="M408.515 413.947s-28.6-33.939-73.421-36.956-65.844 30.599-58.996 55.595c6.849 24.996 53.508 42.81 111.201 14.509l-12.232-31.748z" style="fill:#ffbe76"/><path d="M316.132 396.816s19.797 1.149 36.763 9.194M373.069 426.283s-60.242 25.985-94.504-20.272" style="fill:none;stroke:#130f40;stroke-width:.5;stroke-linecap:round;stroke-linejoin:round;stroke-miterlimit:10"/><path d="M326.798 398.157s-2.622-4.501-6.357-7.087" style="fill:none;stroke:#130f40;stroke-width:.5;stroke-linecap:round;stroke-linejoin:round;stroke-miterlimit:10"/><path d="M353.715 421.101h49.993v10.363h-49.993z" style="fill:#f6e58d" transform="rotate(66.69 378.698 426.263)"/><defs><path id="m" d="M368.854 413.947s28.6-33.939 73.421-36.956 65.845 30.599 58.996 55.595-53.508 42.81-111.201 14.509l12.232-31.748z"/></defs><clipPath id="n"><use xlink:href="#m" style="overflow:visible"/></clipPath><path d="M502.492 419.175s-6.234 20.76-39.839 29.62-64.331-8.285-64.331-8.285l-4.645 10.778s34.149 19.807 70.197 19.196 49.74-31.744 38.618-51.309" style="opacity:.1;clip-path:url(#n)"/><defs><path id="o" d="M408.515 413.947s-28.6-33.939-73.421-36.956-65.844 30.599-58.996 55.595c6.849 24.996 53.508 42.81 111.201 14.509l-12.232-31.748z"/></defs><clipPath id="p"><use xlink:href="#o" style="overflow:visible"/></clipPath><path d="M275.03 419.175s6.234 20.76 39.839 29.62 64.331-8.285 64.331-8.285l4.645 10.778s-34.149 19.807-70.197 19.196c-36.05-.61-49.74-31.744-38.618-51.309" style="opacity:.1;clip-path:url(#p)"/><path d="m388.684 436.335 4.677 10.853-4.677 2.015" style="fill:none;stroke:#130f40;stroke-width:.5;stroke-linecap:round;stroke-linejoin:round;stroke-miterlimit:10"/><path d="m388.684 426.942 4.64-1.375" style="fill:none;stroke:#ff7979;stroke-width:.5;stroke-linecap:round;stroke-linejoin:round;stroke-miterlimit:10"/><path d="M437.715 414.809h-98.061a3.66 3.66 0 0 1-3.656-3.502l-2.94-68.37a3.66 3.66 0 0 1 3.656-3.817h103.942a3.66 3.66 0 0 1 3.656 3.817l-2.94 68.37a3.66 3.66 0 0 1-3.657 3.502" style="fill:#7ed6df"/><path d="M337.499 417.787h102.37a1.489 1.489 0 1 0 0-2.978h-102.37a1.489 1.489 0 1 0 0 2.978" style="fill:#7ed6df"/><path d="M359.586 414.809h58.197v2.979h-58.197z" style="fill:#130f40"/><path d="M359.586 414.809h-19.932M417.783 414.809h19.932" style="fill:none;stroke:#130f40;stroke-width:.5;stroke-linecap:round;stroke-linejoin:round;stroke-miterlimit:10"/><path d="m384.599 365.389-3.454 11.456h6.908l-5.44 11.457 13.61-14.893h-9.042l3.896-8.02z" style="fill:#fff"/><defs><path id="q" d="M437.715 414.809h-98.061a3.66 3.66 0 0 1-3.656-3.502l-2.94-68.37a3.66 3.66 0 0 1 3.656-3.817h103.942a3.66 3.66 0 0 1 3.656 3.817l-2.94 68.37a3.66 3.66 0 0 1-3.657 3.502"/></defs><clipPath id="r"><use xlink:href="#q" style="overflow:visible"/></clipPath><path d="m371.868 414.809 70.328-22.693-.837 28.192h-69.491z" style="opacity:.1;clip-path:url(#r)"/><path d="M337.499 417.787s14.106 6.415 51.185 6.415 51.185-6.415 51.185-6.415z" style="opacity:.1"/></svg>