<svg xmlns="http://www.w3.org/2000/svg" xml:space="preserve" viewBox="0 0 750 500"><path d="M0 0h750v500H0z" style="fill:#fff"/><path d="M178.77 53.77h39.246v39.246H178.77z" style="fill:none;stroke:#e1dafc;stroke-miterlimit:10"/><path d="M218.016 53.77h39.246v39.246h-39.246zM257.262 53.77h39.246v39.246h-39.246zM296.508 53.77h39.246v39.246h-39.246zM335.754 53.77H375v39.246h-39.246zM375 53.77h39.246v39.246H375zM414.246 53.77h39.246v39.246h-39.246zM453.492 53.77h39.246v39.246h-39.246zM492.738 53.77h39.246v39.246h-39.246zM531.984 53.77h39.246v39.246h-39.246zM178.77 93.016h39.246v39.246H178.77z" style="fill:none;stroke:#e1dafc;stroke-miterlimit:10"/><path d="M218.016 93.016h39.246v39.246h-39.246zM257.262 93.016h39.246v39.246h-39.246zM296.508 93.016h39.246v39.246h-39.246zM335.754 93.016H375v39.246h-39.246zM375 93.016h39.246v39.246H375zM414.246 93.016h39.246v39.246h-39.246zM453.492 93.016h39.246v39.246h-39.246zM492.738 93.016h39.246v39.246h-39.246zM531.984 93.016h39.246v39.246h-39.246zM178.77 132.262h39.246v39.246H178.77z" style="fill:none;stroke:#e1dafc;stroke-miterlimit:10"/><path d="M218.016 132.262h39.246v39.246h-39.246zM257.262 132.262h39.246v39.246h-39.246zM296.508 132.262h39.246v39.246h-39.246zM335.754 132.262H375v39.246h-39.246zM375 132.262h39.246v39.246H375zM414.246 132.262h39.246v39.246h-39.246zM453.492 132.262h39.246v39.246h-39.246zM492.738 132.262h39.246v39.246h-39.246zM531.984 132.262h39.246v39.246h-39.246zM178.77 171.508h39.246v39.246H178.77z" style="fill:none;stroke:#e1dafc;stroke-miterlimit:10"/><path d="M218.016 171.508h39.246v39.246h-39.246zM257.262 171.508h39.246v39.246h-39.246zM296.508 171.508h39.246v39.246h-39.246zM335.754 171.508H375v39.246h-39.246zM375 171.508h39.246v39.246H375zM414.246 171.508h39.246v39.246h-39.246zM453.492 171.508h39.246v39.246h-39.246zM492.738 171.508h39.246v39.246h-39.246zM531.984 171.508h39.246v39.246h-39.246z" style="fill:none;stroke:#e1dafc;stroke-miterlimit:10"/><path d="M178.77 210.754h39.246V250H178.77z" style="fill:none;stroke:#e1dafc;stroke-miterlimit:10"/><path d="M218.016 210.754h39.246V250h-39.246zM257.262 210.754h39.246V250h-39.246zM296.508 210.754h39.246V250h-39.246zM335.754 210.754H375V250h-39.246zM375 210.754h39.246V250H375zM414.246 210.754h39.246V250h-39.246zM453.492 210.754h39.246V250h-39.246zM492.738 210.754h39.246V250h-39.246zM531.984 210.754h39.246V250h-39.246zM178.77 250h39.246v39.246H178.77z" style="fill:none;stroke:#e1dafc;stroke-miterlimit:10"/><path d="M218.016 250h39.246v39.246h-39.246zM257.262 250h39.246v39.246h-39.246zM296.508 250h39.246v39.246h-39.246zM335.754 250H375v39.246h-39.246zM375 250h39.246v39.246H375zM414.246 250h39.246v39.246h-39.246zM453.492 250h39.246v39.246h-39.246zM492.738 250h39.246v39.246h-39.246zM531.984 250h39.246v39.246h-39.246zM178.77 289.246h39.246v39.246H178.77z" style="fill:none;stroke:#e1dafc;stroke-miterlimit:10"/><path d="M218.016 289.246h39.246v39.246h-39.246zM257.262 289.246h39.246v39.246h-39.246zM296.508 289.246h39.246v39.246h-39.246zM335.754 289.246H375v39.246h-39.246zM375 289.246h39.246v39.246H375zM414.246 289.246h39.246v39.246h-39.246zM453.492 289.246h39.246v39.246h-39.246zM492.738 289.246h39.246v39.246h-39.246zM531.984 289.246h39.246v39.246h-39.246zM178.77 328.492h39.246v39.246H178.77z" style="fill:none;stroke:#e1dafc;stroke-miterlimit:10"/><path d="M218.016 328.492h39.246v39.246h-39.246zM257.262 328.492h39.246v39.246h-39.246zM296.508 328.492h39.246v39.246h-39.246zM335.754 328.492H375v39.246h-39.246zM375 328.492h39.246v39.246H375zM414.246 328.492h39.246v39.246h-39.246zM453.492 328.492h39.246v39.246h-39.246zM492.738 328.492h39.246v39.246h-39.246zM531.984 328.492h39.246v39.246h-39.246zM178.77 367.738h39.246v39.246H178.77z" style="fill:none;stroke:#e1dafc;stroke-miterlimit:10"/><path d="M218.016 367.738h39.246v39.246h-39.246zM257.262 367.738h39.246v39.246h-39.246zM296.508 367.738h39.246v39.246h-39.246zM335.754 367.738H375v39.246h-39.246zM375 367.738h39.246v39.246H375zM414.246 367.738h39.246v39.246h-39.246zM453.492 367.738h39.246v39.246h-39.246zM492.738 367.738h39.246v39.246h-39.246zM531.984 367.738h39.246v39.246h-39.246zM178.77 406.984h39.246v39.246H178.77z" style="fill:none;stroke:#e1dafc;stroke-miterlimit:10"/><path d="M218.016 406.984h39.246v39.246h-39.246zM257.262 406.984h39.246v39.246h-39.246zM296.508 406.984h39.246v39.246h-39.246zM335.754 406.984H375v39.246h-39.246zM375 406.984h39.246v39.246H375zM414.246 406.984h39.246v39.246h-39.246zM453.492 406.984h39.246v39.246h-39.246zM492.738 406.984h39.246v39.246h-39.246zM531.984 406.984h39.246v39.246h-39.246zM571.23 53.77h39.246v39.246H571.23zM610.476 53.77h39.246v39.246h-39.246zM571.23 93.016h39.246v39.246H571.23zM610.476 93.016h39.246v39.246h-39.246zM571.23 132.262h39.246v39.246H571.23zM610.476 132.262h39.246v39.246h-39.246zM571.23 171.508h39.246v39.246H571.23zM610.476 171.508h39.246v39.246h-39.246z" style="fill:none;stroke:#e1dafc;stroke-miterlimit:10"/><path d="M571.23 210.754h39.246V250H571.23zM610.476 210.754h39.246V250h-39.246zM571.23 250h39.246v39.246H571.23zM610.476 250h39.246v39.246h-39.246zM571.23 289.246h39.246v39.246H571.23zM610.476 289.246h39.246v39.246h-39.246zM571.23 328.492h39.246v39.246H571.23zM610.476 328.492h39.246v39.246h-39.246zM571.23 367.738h39.246v39.246H571.23zM610.476 367.738h39.246v39.246h-39.246zM571.23 406.984h39.246v39.246H571.23zM610.476 406.984h39.246v39.246h-39.246zM100.278 53.77h39.246v39.246h-39.246zM139.524 53.77h39.246v39.246h-39.246zM100.278 93.016h39.246v39.246h-39.246zM139.524 93.016h39.246v39.246h-39.246zM100.278 132.262h39.246v39.246h-39.246zM139.524 132.262h39.246v39.246h-39.246zM100.278 171.508h39.246v39.246h-39.246zM139.524 171.508h39.246v39.246h-39.246z" style="fill:none;stroke:#e1dafc;stroke-miterlimit:10"/><path d="M100.278 210.754h39.246V250h-39.246zM139.524 210.754h39.246V250h-39.246zM100.278 250h39.246v39.246h-39.246zM139.524 250h39.246v39.246h-39.246zM100.278 289.246h39.246v39.246h-39.246zM139.524 289.246h39.246v39.246h-39.246zM100.278 328.492h39.246v39.246h-39.246zM139.524 328.492h39.246v39.246h-39.246zM100.278 367.738h39.246v39.246h-39.246zM139.524 367.738h39.246v39.246h-39.246zM100.278 406.984h39.246v39.246h-39.246zM61.032 53.77h39.246v39.246H61.032M61.032 93.016h39.246v39.246H61.032M61.032 132.262h39.246v39.246H61.032M61.032 171.508h39.246v39.246H61.032" style="fill:none;stroke:#e1dafc;stroke-miterlimit:10"/><path d="M61.032 210.754h39.246V250H61.032M61.032 250h39.246v39.246H61.032M61.032 289.246h39.246v39.246H61.032M61.032 328.492h39.246v39.246H61.032M61.032 367.738h39.246v39.246H61.032M61.032 406.984h39.246v39.246H61.032M688.968 93.016h-39.246V53.77h39.246M688.968 132.262h-39.246V93.016h39.246M688.968 171.508h-39.246v-39.246h39.246" style="fill:none;stroke:#e1dafc;stroke-miterlimit:10"/><path d="M688.968 210.754h-39.246v-39.246h39.246M688.968 250h-39.246v-39.246h39.246M688.968 289.246h-39.246V250h39.246M688.968 328.492h-39.246v-39.246h39.246M688.968 367.738h-39.246v-39.246h39.246M688.968 406.984h-39.246v-39.246h39.246M688.968 446.23h-39.246v-39.246h39.246M139.524 406.984h39.246v39.246h-39.246z" style="fill:none;stroke:#e1dafc;stroke-miterlimit:10"/><path d="M164.427 117.843h431.316v245.258H164.427z" style="fill:#ada8f0"/><path d="M573.665 230.706v105.816h-381.45V233.9l62.116-30.692 51.199 3.816 45.521-1.125 53.003-26.731 45.833 19.65 39.139-5.872 58.178 19.583z" style="fill:#553ac7"/><path d="M192.216 234.504a.604.604 0 0 1-.269-1.146l61.814-30.692a.55.55 0 0 1 .313-.061l51.501 3.816 45.324-1.123 52.882-26.669a.6.6 0 0 1 .511-.016l45.674 19.582 39.081-5.906a.6.6 0 0 1 .284.025l58.064 19.643a.6.6 0 0 1 .149.074l26.462 18.177a.605.605 0 0 1-.684.996l-26.392-18.13-57.846-19.568-39.108 5.91a.6.6 0 0 1-.328-.043l-45.573-19.539-52.753 26.604a.6.6 0 0 1-.257.065l-45.52 1.125-51.396-3.806-61.666 30.619a.6.6 0 0 1-.267.063" style="fill:#fff"/><path d="m192.215 323.625 61.814-26.184 51.501-28.894 45.521-.594 53.305-25.844 45.833 41.857 38.535-9.689 58.177-14.647 26.764 11.726v65.166h-381.45z" style="fill:#716ad9"/><path d="M254.029 205.926a.3.3 0 0 1-.302-.302v-2.416a.302.302 0 1 1 .604 0v2.416a.3.3 0 0 1-.302.302M254.029 327.135a.3.3 0 0 1-.302-.302v-4.848a.302.302 0 0 1 .604 0v4.848a.3.3 0 0 1-.302.302m0-12.12a.3.3 0 0 1-.302-.302v-4.848a.302.302 0 0 1 .604 0v4.848a.3.3 0 0 1-.302.302m0-12.121a.3.3 0 0 1-.302-.302v-4.849a.302.302 0 0 1 .604 0v4.849a.3.3 0 0 1-.302.302m0-12.122a.3.3 0 0 1-.302-.302v-4.848a.302.302 0 0 1 .604 0v4.848a.3.3 0 0 1-.302.302m0-12.121a.3.3 0 0 1-.302-.302v-4.848a.302.302 0 0 1 .604 0v4.848a.3.3 0 0 1-.302.302m0-12.12a.3.3 0 0 1-.302-.302v-4.848a.302.302 0 0 1 .604 0v4.848a.3.3 0 0 1-.302.302m0-12.121a.3.3 0 0 1-.302-.302v-4.849a.302.302 0 0 1 .604 0v4.849a.3.3 0 0 1-.302.302m0-12.122a.3.3 0 0 1-.302-.302v-4.848a.302.302 0 0 1 .604 0v4.848a.3.3 0 0 1-.302.302m0-12.12a.3.3 0 0 1-.302-.302v-4.848a.302.302 0 1 1 .604 0v4.848a.3.3 0 0 1-.302.302m0-12.121a.3.3 0 0 1-.302-.302v-4.849a.302.302 0 1 1 .604 0v4.849a.3.3 0 0 1-.302.302M254.029 336.824a.3.3 0 0 1-.302-.302v-2.416a.302.302 0 0 1 .604 0v2.416a.3.3 0 0 1-.302.302M305.53 209.742a.3.3 0 0 1-.302-.302v-2.416a.302.302 0 1 1 .604 0v2.416a.3.3 0 0 1-.302.302M305.53 327.351a.3.3 0 0 1-.302-.302v-4.704a.302.302 0 0 1 .604 0v4.704a.3.3 0 0 1-.302.302m0-11.761a.3.3 0 0 1-.302-.302v-4.704a.302.302 0 0 1 .604 0v4.704a.3.3 0 0 1-.302.302m0-11.76a.3.3 0 0 1-.302-.302v-4.704a.302.302 0 0 1 .604 0v4.704a.3.3 0 0 1-.302.302m0-11.761a.3.3 0 0 1-.302-.302v-4.704a.302.302 0 0 1 .604 0v4.704a.3.3 0 0 1-.302.302m0-11.761a.3.3 0 0 1-.302-.302v-4.705a.302.302 0 0 1 .604 0v4.705a.3.3 0 0 1-.302.302m0-11.761a.3.3 0 0 1-.302-.302v-4.705a.302.302 0 0 1 .604 0v4.705a.3.3 0 0 1-.302.302m0-11.761a.3.3 0 0 1-.302-.302v-4.705a.302.302 0 0 1 .604 0v4.705a.3.3 0 0 1-.302.302m0-11.761a.3.3 0 0 1-.302-.302v-4.704a.302.302 0 0 1 .604 0v4.704a.3.3 0 0 1-.302.302m0-11.761a.3.3 0 0 1-.302-.302v-4.704a.302.302 0 0 1 .604 0v4.704a.3.3 0 0 1-.302.302m0-11.761a.3.3 0 0 1-.302-.302v-4.704a.302.302 0 1 1 .604 0v4.704a.3.3 0 0 1-.302.302M305.53 336.824a.3.3 0 0 1-.302-.302v-2.416a.302.302 0 0 1 .604 0v2.416a.3.3 0 0 1-.302.302M351.051 208.617a.3.3 0 0 1-.302-.302v-2.416a.302.302 0 1 1 .604 0v2.416a.3.3 0 0 1-.302.302M351.051 327.287a.3.3 0 0 1-.302-.302v-4.746a.302.302 0 0 1 .604 0v4.746a.3.3 0 0 1-.302.302m0-11.867a.3.3 0 0 1-.302-.302v-4.747a.302.302 0 0 1 .604 0v4.747a.3.3 0 0 1-.302.302m0-11.867a.3.3 0 0 1-.302-.302v-4.747a.302.302 0 0 1 .604 0v4.747a.3.3 0 0 1-.302.302m0-11.867a.3.3 0 0 1-.302-.302v-4.746a.302.302 0 0 1 .604 0v4.746a.3.3 0 0 1-.302.302m0-11.867a.3.3 0 0 1-.302-.302v-4.746a.302.302 0 0 1 .604 0v4.746a.3.3 0 0 1-.302.302m0-11.866a.3.3 0 0 1-.302-.302v-4.747a.302.302 0 0 1 .604 0v4.747a.303.303 0 0 1-.302.302m0-11.867a.3.3 0 0 1-.302-.302v-4.747a.302.302 0 0 1 .604 0v4.747a.303.303 0 0 1-.302.302m0-11.867a.3.3 0 0 1-.302-.302v-4.746a.302.302 0 0 1 .604 0v4.746a.303.303 0 0 1-.302.302m0-11.867a.3.3 0 0 1-.302-.302v-4.747a.302.302 0 1 1 .604 0v4.747a.303.303 0 0 1-.302.302m0-11.868a.3.3 0 0 1-.302-.302v-4.747a.302.302 0 1 1 .604 0v4.747a.3.3 0 0 1-.302.302M351.051 336.824a.3.3 0 0 1-.302-.302v-2.416a.302.302 0 0 1 .604 0v2.416a.303.303 0 0 1-.302.302M404.054 181.887a.3.3 0 0 1-.302-.302v-2.416a.302.302 0 0 1 .604 0v2.416a.3.3 0 0 1-.302.302M404.054 327.145a.303.303 0 0 1-.302-.302V322c0-.166.136-.302.302-.302s.302.136.302.302v4.842a.303.303 0 0 1-.302.303m0-12.106a.303.303 0 0 1-.302-.302v-4.841c0-.166.136-.302.302-.302s.302.136.302.302v4.841a.3.3 0 0 1-.302.302m0-12.104a.303.303 0 0 1-.302-.302v-4.842c0-.166.136-.302.302-.302s.302.136.302.302v4.842a.3.3 0 0 1-.302.302m0-12.105a.303.303 0 0 1-.302-.302v-4.842c0-.166.136-.302.302-.302s.302.136.302.302v4.842a.3.3 0 0 1-.302.302m0-12.105a.303.303 0 0 1-.302-.302v-4.841c0-.166.136-.302.302-.302s.302.136.302.302v4.841a.3.3 0 0 1-.302.302m0-12.104a.303.303 0 0 1-.302-.302v-4.842c0-.166.136-.302.302-.302s.302.136.302.302v4.842a.3.3 0 0 1-.302.302m0-12.106a.303.303 0 0 1-.302-.302v-4.842c0-.166.136-.302.302-.302s.302.136.302.302v4.842a.3.3 0 0 1-.302.302m0-12.104a.303.303 0 0 1-.302-.302v-4.842c0-.166.136-.302.302-.302s.302.136.302.302v4.842a.3.3 0 0 1-.302.302m0-12.105a.303.303 0 0 1-.302-.302v-4.842a.302.302 0 0 1 .604 0v4.842a.3.3 0 0 1-.302.302m0-12.105a.3.3 0 0 1-.302-.302v-4.842a.302.302 0 0 1 .604 0v4.842a.3.3 0 0 1-.302.302m0-12.105a.3.3 0 0 1-.302-.302v-4.842a.302.302 0 0 1 .604 0v4.842a.3.3 0 0 1-.302.302m0-12.105a.3.3 0 0 1-.302-.302v-4.842a.302.302 0 0 1 .604 0v4.842a.3.3 0 0 1-.302.302M404.054 336.824a.303.303 0 0 1-.302-.302v-2.416c0-.166.136-.302.302-.302s.302.136.302.302v2.416a.3.3 0 0 1-.302.302M449.887 201.536a.3.3 0 0 1-.302-.302v-2.416a.302.302 0 0 1 .604 0v2.416a.3.3 0 0 1-.302.302M449.887 326.886a.303.303 0 0 1-.302-.302v-5.013c0-.166.136-.302.302-.302s.302.136.302.302v5.013a.303.303 0 0 1-.302.302m0-12.534a.303.303 0 0 1-.302-.302v-5.014c0-.166.136-.302.302-.302s.302.136.302.302v5.014a.303.303 0 0 1-.302.302m0-12.535a.303.303 0 0 1-.302-.302V296.5c0-.166.136-.302.302-.302s.302.136.302.302v5.014a.303.303 0 0 1-.302.303m0-12.535a.303.303 0 0 1-.302-.302v-5.014c0-.166.136-.302.302-.302s.302.136.302.302v5.014a.303.303 0 0 1-.302.302m0-12.536a.303.303 0 0 1-.302-.302v-5.013c0-.166.136-.302.302-.302s.302.136.302.302v5.013a.303.303 0 0 1-.302.302m0-12.535a.303.303 0 0 1-.302-.302v-5.014c0-.166.136-.302.302-.302s.302.136.302.302v5.014a.3.3 0 0 1-.302.302m0-12.534a.303.303 0 0 1-.302-.302v-5.014c0-.166.136-.302.302-.302s.302.136.302.302v5.014a.303.303 0 0 1-.302.302m0-12.535a.303.303 0 0 1-.302-.302v-5.014c0-.166.136-.302.302-.302s.302.136.302.302v5.014a.303.303 0 0 1-.302.302m0-12.535a.3.3 0 0 1-.302-.302v-5.014a.302.302 0 0 1 .604 0v5.014a.303.303 0 0 1-.302.302m0-12.536a.3.3 0 0 1-.302-.302v-5.014a.302.302 0 0 1 .604 0v5.014a.3.3 0 0 1-.302.302M449.887 336.824a.303.303 0 0 1-.302-.302v-2.416c0-.166.136-.302.302-.302s.302.136.302.302v2.416a.303.303 0 0 1-.302.302M489.026 195.605a.3.3 0 0 1-.302-.302v-2.416a.302.302 0 0 1 .604 0v2.416a.3.3 0 0 1-.302.302M489.026 327.228a.303.303 0 0 1-.302-.302v-4.787c0-.166.136-.302.302-.302s.302.136.302.302v4.787a.3.3 0 0 1-.302.302m0-11.966a.303.303 0 0 1-.302-.302v-4.787c0-.166.136-.302.302-.302s.302.136.302.302v4.787a.3.3 0 0 1-.302.302m0-11.966a.303.303 0 0 1-.302-.302v-4.786c0-.166.136-.302.302-.302s.302.136.302.302v4.786a.3.3 0 0 1-.302.302m0-11.965a.303.303 0 0 1-.302-.302v-4.787c0-.166.136-.302.302-.302s.302.136.302.302v4.787a.3.3 0 0 1-.302.302m0-11.966a.303.303 0 0 1-.302-.302v-4.787c0-.166.136-.302.302-.302s.302.136.302.302v4.787a.3.3 0 0 1-.302.302m0-11.966a.303.303 0 0 1-.302-.302v-4.787c0-.166.136-.302.302-.302s.302.136.302.302v4.787a.303.303 0 0 1-.302.302m0-11.966a.303.303 0 0 1-.302-.302v-4.785c0-.166.136-.302.302-.302s.302.136.302.302v4.785a.3.3 0 0 1-.302.302m0-11.966a.303.303 0 0 1-.302-.302v-4.786c0-.166.136-.302.302-.302s.302.136.302.302v4.786a.303.303 0 0 1-.302.302m0-11.965a.303.303 0 0 1-.302-.302v-4.787a.302.302 0 0 1 .604 0v4.787a.3.3 0 0 1-.302.302m0-11.966a.3.3 0 0 1-.302-.302v-4.786a.302.302 0 0 1 .604 0v4.786a.3.3 0 0 1-.302.302m0-11.966a.3.3 0 0 1-.302-.302v-4.786a.302.302 0 0 1 .604 0v4.786a.3.3 0 0 1-.302.302M489.026 336.824a.303.303 0 0 1-.302-.302v-2.416c0-.166.136-.302.302-.302s.302.136.302.302v2.416a.303.303 0 0 1-.302.302M547.203 215.247a.3.3 0 0 1-.302-.302v-2.416a.302.302 0 0 1 .604 0v2.416a.3.3 0 0 1-.302.302M547.203 326.961a.303.303 0 0 1-.302-.302v-4.966c0-.166.136-.302.302-.302s.302.136.302.302v4.966a.3.3 0 0 1-.302.302m0-12.414a.303.303 0 0 1-.302-.302v-4.965c0-.166.136-.302.302-.302s.302.136.302.302v4.965a.3.3 0 0 1-.302.302m0-12.412a.303.303 0 0 1-.302-.302v-4.965c0-.166.136-.302.302-.302s.302.136.302.302v4.965a.3.3 0 0 1-.302.302m0-12.413a.303.303 0 0 1-.302-.302v-4.965c0-.166.136-.302.302-.302s.302.136.302.302v4.965a.3.3 0 0 1-.302.302m0-12.412a.303.303 0 0 1-.302-.302v-4.965c0-.166.136-.302.302-.302s.302.136.302.302v4.965a.3.3 0 0 1-.302.302m0-12.413a.303.303 0 0 1-.302-.302v-4.965c0-.166.136-.302.302-.302s.302.136.302.302v4.965a.3.3 0 0 1-.302.302m0-12.412a.303.303 0 0 1-.302-.302v-4.965c0-.166.136-.302.302-.302s.302.136.302.302v4.965a.3.3 0 0 1-.302.302m0-12.412a.303.303 0 0 1-.302-.302v-4.966c0-.166.136-.302.302-.302s.302.136.302.302v4.966a.3.3 0 0 1-.302.302m0-12.413a.303.303 0 0 1-.302-.302v-4.965a.302.302 0 0 1 .604 0v4.965a.3.3 0 0 1-.302.302M547.203 336.824a.303.303 0 0 1-.302-.302v-2.416c0-.166.136-.302.302-.302s.302.136.302.302v2.416a.3.3 0 0 1-.302.302" style="fill:#cfccff"/><path d="M454.276 198.818a4.389 4.389 0 1 1-8.778 0 4.389 4.389 0 0 1 8.778 0" style="fill:#8b86d9"/><path d="M453.224 198.818a3.337 3.337 0 1 1-6.674 0 3.337 3.337 0 0 1 6.674 0" style="fill:#553ac7"/><circle cx="547.204" cy="212.529" r="4.389" style="fill:#8b86d9"/><path d="M550.541 212.529a3.337 3.337 0 1 1-6.674 0 3.337 3.337 0 0 1 6.674 0" style="fill:#553ac7"/><path d="M408.443 179.168a4.389 4.389 0 1 1-8.778 0 4.389 4.389 0 0 1 8.778 0" style="fill:#8b86d9"/><path d="M407.391 179.168a3.337 3.337 0 1 1-6.674 0 3.337 3.337 0 0 1 6.674 0" style="fill:#553ac7"/><circle cx="351.051" cy="205.899" r="4.389" style="fill:#8b86d9"/><path d="M354.388 205.899a3.337 3.337 0 1 1-6.674 0 3.337 3.337 0 0 1 6.674 0" style="fill:#553ac7"/><path d="M309.919 207.024a4.389 4.389 0 1 1-8.778 0 4.389 4.389 0 0 1 8.778 0" style="fill:#8b86d9"/><path d="M308.867 207.024a3.337 3.337 0 1 1-6.674 0 3.337 3.337 0 0 1 6.674 0" style="fill:#553ac7"/><path d="M258.418 203.208a4.389 4.389 0 1 1-8.778 0 4.389 4.389 0 0 1 8.778 0" style="fill:#8b86d9"/><path d="M257.366 203.208a3.337 3.337 0 1 1-6.674 0 3.337 3.337 0 0 1 6.674 0" style="fill:#553ac7"/><path d="M578.829 337.126H191.611V137.174h1.208v198.744h386.01zM453.224 132.088h43.03v9.354h-43.03zM506.615 132.088h67.05v9.354h-67.05z" style="fill:#fff"/><circle cx="489.026" cy="192.946" r="20.567" style="fill:#c3bfff" transform="rotate(-31.482 489.02 192.965)"/><path d="M500.396 192.946c0 6.279-5.09 11.369-11.37 11.369s-11.369-5.09-11.369-11.369 5.09-11.369 11.369-11.369 11.37 5.09 11.37 11.369" style="fill:#dbd9ff"/><circle cx="489.026" cy="192.946" r="7.748" style="fill:#b6b3ff" transform="rotate(-22.392 488.989 192.96)"/><path d="M493.152 192.946a4.126 4.126 0 1 1-8.251 0 4.126 4.126 0 0 1 8.251 0" style="fill:#5b53d6"/><path d="M102.11 36.994h196.56v145.511H102.11z" style="fill:#553ac7"/><path d="m158.611 133.568-18.346 26.055c-10.591-7.48-18.7-18.243-22.841-30.801l30.241-9.985a29.2 29.2 0 0 0 10.946 14.731" style="fill:#fff"/><path d="M236.581 109.652c0 33.752-27.359 61.122-61.122 61.122a60.84 60.84 0 0 1-35.193-11.152l18.346-26.055a29 29 0 0 0 16.848 5.353c16.173 0 29.28-13.107 29.28-29.269s-13.107-29.269-29.28-29.269V48.53c33.762 0 61.121 27.37 61.121 61.122" style="fill:#f6b34f"/><path d="M175.458 48.53v31.854c-16.161 0-29.269 13.107-29.269 29.269 0 3.202.515 6.291 1.475 9.184l-30.241 9.985a60.7 60.7 0 0 1-3.077-19.169c.001-33.753 27.36-61.123 61.112-61.123" style="fill:#f04965"/><path d="M249.33 140.895h38.116v7.406H249.33zM239.528 156.9h47.918v7.406h-47.918z" style="fill:#ada8f0"/><path d="M265.933 98.961h12.16v8.184h-12.16z" style="fill:#f6b34f"/><path d="M265.933 80.079h12.16v8.184h-12.16z" style="fill:#fff"/><path d="M265.933 61.196h12.16v8.184h-12.16z" style="fill:#f04965"/><path d="M105.475 40.111h196.56v145.511h-196.56z" style="fill:none;stroke:#f04965;stroke-width:1.2082;stroke-miterlimit:10"/><path d="M314.961 81.579h56.976v8.418h-56.976zM314.961 48.53h56.976v8.418h-56.976zM314.961 61.079h35.568v8.418h-35.568z" style="fill:#553ac7"/><path d="M140.595 209.064h27.437v6.07h-27.437zM127.344 218.468h53.939v6.07h-53.939zM134.36 227.872h39.909v6.07H134.36zM140.595 254.091h27.437v6.07h-27.437zM127.344 263.496h53.939v6.07h-53.939zM134.36 272.9h39.909v6.07H134.36z" style="fill:#716ad9"/><path d="M571.463 164.317h74.225v144.347h-74.225z" style="fill:#f04965"/><path d="M573.665 166.968h74.225v144.347h-74.225z" style="fill:none;stroke:#553ac7;stroke-width:1.2082;stroke-miterlimit:10"/><path d="M582.161 261.174h13.543v38.176h-13.543z" style="fill:#fff"/><path d="M601.804 181.343h13.543V299.35h-13.543z" style="fill:#f6b34f"/><path d="M621.446 228.807h13.543v70.544h-13.543z" style="fill:#553ac7"/><path d="M564.935 379.958h16.213v7.483h-16.213zM564.935 395.235h16.213v7.483h-16.213zM564.935 410.513h16.213v7.483h-16.213z" style="fill:#f04965"/><path d="M587.374 379.958h51.116v7.483h-51.116zM587.374 395.235h45.219v7.483h-45.219zM587.374 410.513h54.572v7.483h-54.572z" style="fill:#716ad9"/><ellipse cx="513.772" cy="448.031" rx="53.62" ry="14.975" style="fill:#e1dafc"/><path d="M545.998 442.798c0 2.333-4.511 7.571-9.904 10.203-4.045 1.971-10.903.998-14.105.376-1.089-.207-1.763-.376-1.763-.376l.933-5.899s1.698-1.724 4.343-3.656c2.437-1.763 5.717-3.721 9.205-4.615 7.272-1.893 11.291 1.62 11.291 3.967" style="fill:#1b348c"/><path d="M545.998 442.798c0 2.333-4.511 7.571-9.904 10.203-4.045 1.971-10.903.998-14.105.376.752-2.476 2.321-7.415 3.513-9.93 2.437-1.763 5.717-3.721 9.205-4.615 7.272-1.894 11.291 1.619 11.291 3.966" style="fill:#001552"/><path d="M513.588 453.628s-19.262 1.946-31.311-3.392c0 0 .115-.529.429-1.331 1.088-2.719 4.551-8.486 13.981-6.354a93 93 0 0 1 7.785 2.104h.014c6.454 2.061 9.101 3.849 9.101 3.849s.416 3.464.001 5.124" style="fill:#1b348c"/><path d="M513.588 453.628s-19.262 1.946-31.311-3.392c0 0 .115-.529.429-1.331 3.621 1.088 10.132 2.633 13.981.987 3.105-1.317 5.695-3.506 7.785-5.238h.014c6.454 2.061 9.101 3.849 9.101 3.849s.416 3.465.001 5.125" style="fill:#001552"/><path d="M542.456 334.316s-3.117 35.146-4.99 53.159c0 0-2.344 46.998-3.045 59.623 0 0-5.666.665-13.326 0 0 0-.52-8.131-1.172-18.485-1.039-16.721-2.392-39.217-2.368-42.539.024-2.731-1.426-16.033-2.839-28.465-.713-6.162-1.414-12.118-1.921-16.455-.495-4.156-.822-6.838-.822-6.838z" style="fill:#1b348c"/><path d="M542.456 334.316s-3.117 35.146-4.99 53.159c0 0-2.344 46.998-3.045 59.623 0 0-5.666.665-13.326 0 0 0-.52-8.131-1.172-18.485l.302-3.721s.399-31.11 0-39.06-5.509-28.223-5.509-28.223l1.075-15.03-2.996-1.426c-.495-4.156-.822-6.838-.822-6.838h30.483z" style="fill:#001552"/><path d="M520.225 334.232c-.242 1.027-11.997 50.683-11.997 51.371 0 .701 5.388 62.897 5.388 62.897-4.966 1.607-9.81 1.559-12.384 1.365-1.184-.073-1.885-.193-1.885-.193l-12.166-64.069c.713-6.548 1.957-49.885 1.957-49.885l10.173-.495 20.575-.991.338-.012z" style="fill:#1b348c"/><path d="M508.228 385.603c0 .701 5.388 62.897 5.388 62.897-4.966 1.607-9.81 1.559-12.384 1.365l-10.173-61.689 6.959-3.274 10.68-40.921s-6.5-6.355-9.388-8.759c-.664-.544-1.136-.894-1.293-.906l21.868-.085h.338c-.239 1.028-11.995 50.683-11.995 51.372" style="fill:#001552"/><path d="M511.846 233.391s-2.889-3.824-3.732-5.162-1.445-13.016-1.324-14.702c.12-1.686 5.056-8.788 11.918-7.464s7.825 8.909 7.103 15.41-3.01 11.678-5.899 12.4-6.611 1.468-8.066-.482" style="fill:#ffb3a0"/><path d="m525.807 244.948-17.688-3.129s2.525-6.258 3.129-10.233c.592-3.975 1.8-4.7 1.8-4.7l11.079 2.416s.375 5.123.822 9.581c.217 2.078.459 4.011.664 5.207.073.362.134.652.194.858" style="fill:#ffb3a0"/><path d="m525.614 244.09-16.02-4.265s10.692-.798 15.356-.943c.217 2.079.458 4.012.664 5.208" style="fill:#c1897c"/><path d="M510.492 221.957s-.959-2.158-1.665-3.021-1.924-1.911-1.924-1.911-1.898-4.747-2.33-6.843-1.11-4.624.986-6.288 4.932-1.664 4.932-1.664 1.973-3.144 7.213-3.391 11.035 1.576 14.055 7.23c3.021 5.654 2.158 10.277 1.356 13.175-.802 2.897-6.165 10.11-6.781 11.466s-3.514 4.87-5.117 5.24-6.165-1.171-7.398-2.774-2.466-4.623-2.404-6.658c.063-2.033-.923-4.561-.923-4.561" style="fill:#360700"/><path d="M510.07 224.5s-2.096-.398-2.913-2.555c-.818-2.157-.797-4.398.665-4.3 1.461.098 1.646.745 1.646.745z" style="fill:#c1897c"/><path d="M568.177 291.136c-.085.157-1.269 1.812-3.02 4.216-.52.713-1.099 1.474-1.703 2.271-5.437 7.056-13.628 16.262-13.834 16.89-.314.93-7.007 4.205-9.822 4.205v-8.409s4.76-1.124 7.406-.181l10.523-22.424-8.107-9.822 3.021-1.836 6.959-4.241s7.95 11.84 8.578 13.085c.616 1.256.302 5.618-.001 6.246" style="fill:#ffb3a0"/><path d="M567.392 289.843s-.942 1.981-3.939 7.781c-5.437 7.056-13.628 16.262-13.834 16.89-.314.93-7.007 4.205-9.822 4.205v-5.932c2.477-.06 6.391-.52 7.406-2.658l10.523-22.424-8.107-9.822 3.021-1.836h1.885s7.491 9.315 9.242 10.741a163 163 0 0 1 3.625 3.055" style="fill:#c1897c"/><path d="M559.599 271.805s-1.836 3.733-5.074 6.995c-1.764 1.776-3.939 3.407-6.464 4.229l-13.254-10.608 3.757-21.505.604-3.419z" style="fill:#f6b34f"/><path d="M554.525 278.801c-1.764 1.776-3.939 3.407-6.464 4.229l-13.254-10.608 3.757-21.505 6.536 18.702z" style="fill:#f70"/><path d="M542.456 334.316s-.411.085-1.196.217c-3.117.556-12.045 1.957-23.704 2.404-8.433.326-18.304.157-28.416-1.22 0 0 3.588-42.25 3.588-44.279 0-1.003-.64-10.39-1.293-19.633v-.012c-.664-9.424-1.329-18.666-1.329-18.666l1.921-4.784 4.748-11.852s35.387 6.041 42.395 11.006c0 0 2.175 33.249-.145 44.884-.158.773 3.431 41.935 3.431 41.935" style="fill:#f6b34f"/><path d="M541.259 334.534c-3.117.556-12.045 1.957-23.704 2.404 3.359-3.371 14.341-14.571 14.607-16.806.314-2.658.858-28.223.858-28.223l4.603-26.652s.302 26.809 0 27.595c-.29.7 3.02 35.266 3.636 41.682M492.027 248.343l-.592 23.45c-.664-9.424-1.329-18.666-1.329-18.666z" style="fill:#f70"/><path d="m496.775 236.491-5.968 11.852-10.547-8.518-5.231-4.229s-1.752-3.745-1.172-5.147c.592-1.402 9.593-29.576 9.593-29.576l5.026 1.281c-1.752 7.37-3.781 25.879-3.781 25.879z" style="fill:#ffb3a0"/><path d="m481.262 238.52-1.003 1.305-5.231-4.229s-.121-2.187 1.402-1.595c1.521.581 4.832 4.519 4.832 4.519M484.106 229.631l2.848-22.607s-5.888 24.273-5.69 24.868z" style="fill:#c1897c"/><path d="m496.775 236.491-4.748 11.852-1.921 4.784-10.656-8.361-5.715-4.494c3.975-6.669 10.958-12.239 10.958-12.239z" style="fill:#f6b34f"/><path d="m492.027 248.343-1.921 4.784-10.656-8.361c4.868 1.354 12.577 3.577 12.577 3.577" style="fill:#f70"/><path d="M483.446 200.869s-.468-7.015 0-8.067 5.145-3.858 6.547-3.391 4.326 2.806 4.326 2.806-2.044 5.039-1.811 5.741-4.035 4.197-4.035 4.197l-3.219 1.052z" style="fill:#ffb3a0"/><path d="M490.753 198.122s2.748-.117 3.917-.701c1.169-.585 1.637-.409 1.578.351s-3.098 2.765-3.683 2.961-4.092 1.424-4.092 1.424z" style="fill:#ffb3a0"/><path d="M260.337 288.91s-.753.144-1.882.347c-.427.083-.904.175-1.418.267-1.845.349-4.153.766-5.935 1.093-.828.141-1.543.274-2.057.365l-2.788-36.466-.211-2.786s7.25 2.422 9.746 9.398c2.483 6.962 4.545 27.782 4.545 27.782" style="fill:#f04965"/><path d="M257.036 289.524a835 835 0 0 1-7.992 1.458l-2.788-36.466.765-.754c-.225.626 3.402 3.039 5.744 10.731 2.033 6.732 3.707 20.188 4.271 25.031" style="fill:#982c44"/><path d="M256.811 329.679c-.646 1.506-2.999 2.706-4.5 3.194-.404.133-.743.207-.98.222-1.087.081.928-2.628 1.409-5.286.493-2.645.244-6.043.244-6.043s-1.582 2.477-1.905 3.684l-.335 1.195s-1.881-1.533-1.303-3.814 3.706-5.43 3.768-6.635c.012-.298.019-1.095.001-2.18-.054-3.302-.272-9.314-.618-12.155-.177-1.477-.798-6.135-1.489-11.244 1.782-.327 4.09-.744 5.935-1.093.514-.091.991-.184 1.418-.267.075 6.791.168 13.732.184 16.123.024 5.22-1.03 22.389-1.829 24.299" style="fill:#ffb3a0"/><path d="m258.455 289.257-1.49 2.045s-.922 17.909-3.756 22.714c-.054-3.302-.272-9.314-.618-12.155-.177-1.477-.798-6.135-1.489-11.244 1.782-.327 4.09-.744 5.935-1.093.514-.092.991-.184 1.418-.267M253.184 329.421c-.05.621-.335 2.44-.874 3.452-.404.133-.743.207-.98.222-1.087.081.928-2.628 1.409-5.286.493-2.645.244-6.043.244-6.043.05.002.634.038.971.625.361.624-.698 6.186-.77 7.03" style="fill:#c1897c"/><ellipse cx="236.002" cy="444.655" rx="46.768" ry="14.975" style="fill:#e1dafc"/><path d="M269.063 446.638c-.047.159-.536.291-1.736.313-1.643.014-4.639-.177-9.654-.772-8.636-1.024-15.231-4.414-15.231-4.414s-1.019-1.21-.377-2.646c.643-1.445 2.757-7.891 2.757-7.891l9.083 1.929s7.158 6.436 8.398 7.162c1.23.735 6.368 1.527 7.394 2.838 1.015 1.31-.518 3.103-.634 3.481" style="fill:#1b348c"/><path d="M267.327 446.951c-1.643.014-4.639-.177-9.654-.772-8.636-1.024-15.231-4.414-15.231-4.414s-1.019-1.21-.377-2.646c.643-1.445 2.757-7.891 2.757-7.891l9.083 1.929s-5.755.745-8.139.387c0 0-.126 4.611 1.23 6.49 1.356 1.869 11.368 3.512 14.273 3.952 2.915.44 6.032.364 6.248 1.512.09.507.058 1.03-.19 1.453" style="fill:#001552"/><path d="M234.215 451.249c-.37 1.501-1.659 3.304-3.939 3.212-2.987-.121-9.689-1.348-12.085-4.247 0 0 .553-6.54.346-8.573-.207-2.043.089-7.137.089-7.137l7.534-.853c.02-.009.03-.009.03-.009s2.875 7.845 3.583 9.32c.718 1.475 4.312 5.579 4.543 7.035.055.341.028.779-.101 1.252" style="fill:#1b348c"/><path d="M234.215 451.249c-.37 1.501-1.659 3.304-3.939 3.212-2.987-.121-9.689-1.348-12.085-4.247 0 0 .553-6.54.346-8.573-.207-2.043.089-7.137.089-7.137l7.534-.853c-.293.098-2.689.909-3.572 1.781-.945.929-1.295 1.683-1.132 4.073s.624 8.512.624 8.512c.282.919 1.689 2.392 4.055 3.066 2.357.674 5.587 1.432 6.852.725a7 7 0 0 1 1.228-.559" style="fill:#001552"/><path d="M258.839 406.567c-2.442 13.601-4.934 26.59-4.934 26.59s-7.942-.084-11.225-2.383c0 0 3.199-13.845 3.125-23.736-.086-9.892 3.862-29.971 3.862-29.971l-21.39-37.504 4.748-21.989 3.243.816 15.128 3.787s11.19 51.066 12.044 53.989c.426 1.498-2.051 16.281-4.601 30.401" style="fill:#1b348c"/><path d="m259.896 380.368-1.057 26.198c-2.442 13.601-4.934 26.59-4.934 26.59s-7.942-.084-11.225-2.383c0 0 3.199-13.845 3.125-23.736-.086-9.892 3.862-29.971 3.862-29.971l-21.39-37.504 4.748-21.989 3.243.816c1.281 4.672 2.44 9.589 2.44 9.589s5.951 31.525 7.091 32.294 7.758 15.756 8.911 17.123c1.154 1.366 5.186 2.973 5.186 2.973" style="fill:#001552"/><path d="M239.163 323.5c-.656 11.319-8.616 46.219-10.315 55.615-1.86 10.287-2.689 54.603-2.689 54.603-2.738.886-5.537 1.109-7.368 1.122-1.271.023-2.078-.046-2.078-.046s-2.687-16.747-3.96-27.161c-1.261-10.413-.247-29.664.125-33.024.385-3.36-2.819-19.642-4.837-31.044-2.018-11.415 1.214-23.901 1.214-23.901s6.478-1.283 13.403-1.9c7.599-.665 15.714-.524 16.455 3.005.022.063.032.126.042.189.074.614.076 1.473.008 2.542" style="fill:#1b348c"/><path d="M215.489 324.101s-4.618 6.726-4.501 11.861c.116 5.148 6.957 38.69 7.541 39.971.596 1.282 6.181 2.367 6.181 2.367-2.626 1.177-6.468 1.022-6.468 1.022s-3.033 7.275-3.357 15.295c-.287 7.1 3.12 34.101 3.906 40.223-1.271.023-2.078-.046-2.078-.046s-2.687-16.747-3.96-27.161c-1.261-10.413-.247-29.664.125-33.024.385-3.36-2.819-19.642-4.837-31.044-2.018-11.415 1.214-23.901 1.214-23.901s6.478-1.283 13.403-1.9l16.455 3.005 5.551 1.009c-1.451.763-3.354 1.322-5.5 1.721-9.502 1.822-23.675.602-23.675.602" style="fill:#001552"/><path d="M231.974 210.05s-12.568.902-14.695 9.82-1.806 13.993-6.459 19.229-8.498 8.937-6.545 20.265 2.727 20.037 1.967 26.916-1.847 13.906 1.271 16.282c0 0 7.537-6.445 17.891-4.742s8.242-55.008 8.242-55.008z" style="fill:#360700"/><path d="M237.133 251.607s-2.112.488-5.161.439a5.7 5.7 0 0 1-1.276-.164c-2.754-.572-5.686-2.608-5.686-2.608 1.246-1.855 1.95-3.869 2.338-5.473.418-1.714.492-2.932.492-2.932s9.724.069 9.168 3.67c-.375 2.513-.164 4.988-.002 6.227.065.527.127.841.127.841" style="fill:#ffb3a0"/><path d="M237.133 251.607s-2.112.488-5.161.439a5.7 5.7 0 0 1-1.276-.164c-.163-.579-.411-1.237-.681-1.958-.8-2.087-1.921-4.549-2.667-6.123.418-1.714.492-2.932.492-2.932s9.724.069 9.168 3.67c-.375 2.513-.164 4.988-.002 6.227.065.527.127.841.127.841" style="fill:#c1897c"/><path d="M244.306 216.788s3.422-.826 4.085 3.66-3.113 9.857-5.52 10.553 1.435-14.213 1.435-14.213" style="fill:#360700"/><path d="M244.04 229.191s-1.514 7.552 1.33 11.303c0 0-3.438-1.866-2.96-10.706z" style="fill:#360700"/><path d="M244.424 223.18s-1.157 4.774-1.504 7.412c-.348 2.638-.048 4.176-.245 6.057-.196 1.88-2.004 7.833-7.896 10.488 0 0-7.443-3.715-9.462-7.453-2.019-3.737-2.093-10.851-.435-16.088 1.658-5.236 4.407-7.656 10.423-7.413 6.017.243 9.255 3.628 9.119 6.997" style="fill:#ffb3a0"/><path d="M233.332 241.63c.073.129.211.211.33.295q.169.122.35.228c.244.141.51.26.787.317.255.053.517.059.773.007q.185-.038.356-.12a.55.55 0 0 0 .262-.25c.031-.053-.02-.121-.08-.104-.108.03-.205.062-.31.101a1.3 1.3 0 0 1-.308.073 1.6 1.6 0 0 1-.673-.08 2.5 2.5 0 0 1-.629-.334 4 4 0 0 1-.269-.209c-.11-.093-.205-.194-.343-.243-.186-.066-.334.164-.246.319" style="fill:#982c44"/><path d="m236.459 236.674-.236 1.823h.91z" style="fill:#c1897c"/><path d="M239.83 233.219c.051.648-.131 1.191-.407 1.212-.276.022-.54-.486-.591-1.134s.131-1.191.407-1.212.54.487.591 1.134M233.754 233.697c.051.648-.131 1.191-.407 1.212-.276.022-.54-.486-.592-1.134s.131-1.191.407-1.212.541.487.592 1.134M240.918 229.503c-.203-.203-.593-.201-.865-.202a3.6 3.6 0 0 0-.87.11c-.268.066-.53.186-.772.315q-.18.096-.347.213c-.106.075-.241.156-.295.279-.023.051.014.127.079.116.114-.02.201-.09.3-.146q.174-.097.359-.17c.25-.099.501-.15.766-.183.248-.031.5-.036.749-.006q.191.024.379.063c.063.013.125.033.187.046.089.018.167-.002.254-.022.192-.045.19-.299.076-.413M233.996 230.725c-.633-.328-1.348-.409-2.052-.402a4.2 4.2 0 0 0-.967.1c-.287.07-.627.215-.708.521-.014.054.038.107.091.102.261-.023.498-.174.752-.246.29-.082.59-.112.889-.13.643-.04 1.298-.001 1.893.264.137.061.235-.14.102-.209" style="fill:#221f4f"/><path d="M225.638 230.578s13.401 1.585 18.745-6.395c0 0 2.83-3.421-.563-8.942-3.393-5.52-13.068-7.036-18.155-2.259s-4.538 14.601-2.704 17.166z" style="fill:#360700"/><path d="M225.638 230.578s-1.915-2.327-3.183-.771-1.016 5.262 2.937 6.868z" style="fill:#c1897c"/><path d="M226.976 229.949c-.007.18-2.173 6.059-.748 12.564 0 0-2.652-5.29-.562-12.618z" style="fill:#360700"/><path d="M249.989 293.187c.259 1.617 1.408 28.988 1.408 28.988-28.102 3.524-42.143-2.51-42.143-2.51.291-.723.569-1.434.834-2.146 5.233-13.949 6.616-25.675 6.616-25.675s-.656-9.666-2.584-17.453c-1.136-4.567-2.374-10.62-2.564-15.472-.134-3.468.243-6.317 1.566-7.634 2.18-2.166 6.968-2.309 9.765-2.184 1.268.063 2.123.173 2.123.173l8.871 1.155 8.184.878 3.981.422s9.908 17.113 9.966 19.681c.057 2.582-6.269 20.161-6.023 21.777" style="fill:#f04965"/><path d="m236.223 258.158-5.738-.73-1.115 3.819c-2.577-3.353-5.371-6.958-5.371-6.958l8.962 20.013s1.273-3.509.947-6.126z" style="fill:#982c44"/><path d="M237.31 258.949c-.476.068-.976.122-1.514.163-1.824.15-3.639-.558-5.312-1.684-3.48-2.332-6.378-6.435-7.597-8.327 1.268.063 2.123.173 2.123.173l5.005.65 3.865.505 3.125.338 2.567.278 1.228.124 1.265.138c2.224 5.06.416 6.955-4.755 7.642" style="fill:#ffb3a0"/><path d="m241.247 252.42-2.295 1.003a251 251 0 0 1-1.643 5.526c-.476.068-.976.122-1.514.163-1.824.15-3.639-.558-5.312-1.684.37-1.766.626-3.474.478-4.439-.038-.301-.135-.678-.267-1.107l-.681-1.958 3.865.505 3.125.338 2.567.278 1.228.124z" style="fill:#c1897c"/><path d="M249.989 293.187s-7.486 1.267-10.443 1.384c-2.945.13-11.187.993-11.187.993l2.158 12.267s-8.209-12.624-9.468-10.744c-1.258 1.867-1.74 23.668-1.74 23.668l-9.223-3.237c5.233-13.949 6.616-25.675 6.616-25.675s-.656-9.666-2.584-17.453c-1.136-4.567-2.374-10.62-2.564-15.472l6.412-1.497 7.296 10.544 6.72 3.522s4.579 5.976 5.905 6.142c1.313.177 5.423-.142 5.423-.142l-1.695 5.897s10.234-3.298 14.394-11.973c.06 2.581-6.266 20.16-6.02 21.776" style="fill:#982c44"/><path d="M214.63 250.251s3.349-1.94 7.072 1.382 11.467 17.495 11.467 17.495l-7.132 13.017s-14.102-18.454-15.439-21.159c-1.338-2.706-.272-9.03 4.032-10.735" style="fill:#f04965"/><path d="M243.187 253.744c-.469.504-1.502.799-2.343.977-.716.145-1.315.196-1.315.196s-3.896 23.718-5.449 25.461c-.809.902-1.768 1.834-3.13 2.265-1.236.386-2.804.36-4.912-.497 0 0 .671-5.204 2.312-10.082 1.641-4.866 4.706-10.77 5.309-15.204.615-4.434-.521-6.522-.521-6.522s-1.745-2.736-3.288-3.396c0 0 1.481-.912 4.936.199 0 0 3.483-2.998 5.752-2.421s4.051 3.626 4.37 5.27c.319 1.657-.837 2.831-1.721 3.754" style="fill:#ffb3a0"/><path d="M230.949 282.642c-1.236.386-2.804.36-4.912-.497 0 0 2.71-5.121 4.857-4.312 1.999.753 1.809 3.311.055 4.809M242.596 253.558c-.519.826-1.732.017-1.753 1.162-.716.145-1.315.196-1.315.196s.774-2.21 2.084-2.88c1.309-.669 1.491.696.984 1.522" style="fill:#c1897c"/><path d="M314.961 135.254h47.937v19.479h-47.937z" style="fill:none;stroke:#4b44b0;stroke-width:1.2082;stroke-miterlimit:10"/><path d="M314.961 135.254h47.937v19.479h-47.937z" style="fill:#fff"/><text style="fill:#4b44b0;font-family:&quot;Montserrat-SemiBold&quot;;font-size:8.2255px" transform="translate(336.22 147.4)">4.410</text><path d="m323.535 141.582-3.487 6.041h6.975z" style="fill:#f04965"/><path d="M314.961 109.79h47.937v19.48h-47.937z" style="fill:none;stroke:#4b44b0;stroke-width:1.2082;stroke-miterlimit:10"/><path d="M314.961 109.79h47.937v19.48h-47.937z" style="fill:#fff"/><text style="fill:#4b44b0;font-family:&quot;Montserrat-SemiBold&quot;;font-size:8.2255px" transform="translate(331.654 121.937)">14.380</text><path d="m323.535 116.118-3.487 6.041h6.975z" style="fill:#f04965"/></svg>