<svg xmlns="http://www.w3.org/2000/svg" viewBox="0 0 500 500"><defs><clipPath id="a"><path d="M202.8 264.23s8.56 45.29 2.08 65.18c-29-4.75-59.4 14-81.48-2.92.82-24.09 5.29-53.86 9.37-61.26 0 0 37.75-3.65 70.03-1" style="fill:none"/></clipPath></defs><path d="M0 382.4h500v.25H0zM102.02 398.49h33.12v.25h-33.12zM171.14 390.92h43.55v.25h-43.55zM52.46 389.21h48.56v.25H52.46zM247.61 392.59h34.29v.25h-34.29zM442.46 392.59h7.44v.25h-7.44zM290.8 392.59h48.57v.25H290.8zM326.62 396.81h93.68v.25h-93.68zM237 337.8H43.91a5.71 5.71 0 0 1-5.7-5.71V60.66a5.71 5.71 0 0 1 5.7-5.66H237a5.71 5.71 0 0 1 5.71 5.71v271.38a5.71 5.71 0 0 1-5.71 5.71M43.91 55.2a5.46 5.46 0 0 0-5.45 5.46v271.43a5.46 5.46 0 0 0 5.45 5.46H237a5.47 5.47 0 0 0 5.46-5.46V60.66A5.47 5.47 0 0 0 237 55.2ZM453.31 337.8h-193.1a5.72 5.72 0 0 1-5.71-5.71V60.66a5.72 5.72 0 0 1 5.71-5.66h193.1a5.71 5.71 0 0 1 5.69 5.66v271.43a5.71 5.71 0 0 1-5.69 5.71M260.21 55.2a5.47 5.47 0 0 0-5.46 5.46v271.43a5.47 5.47 0 0 0 5.46 5.46h193.1a5.47 5.47 0 0 0 5.46-5.46V60.66a5.47 5.47 0 0 0-5.46-5.46Z" style="fill:#ebebeb"/><path d="M356.27 242.07H54.06a8.16 8.16 0 0 1-8.23-9L61.48 47a10 10 0 0 1 9.74-9h302.2a8.15 8.15 0 0 1 8.23 9L366 233.08a10 10 0 0 1-9.73 8.99" style="fill:#e0e0e0"/><path d="M353.82 242.07H51.62a8.15 8.15 0 0 1-8.23-9L59 47a10 10 0 0 1 9.74-9H371a8.16 8.16 0 0 1 8.23 9l-15.67 186.08a10 10 0 0 1-9.74 8.99" style="fill:#ebebeb"/><path d="M365.26 212.83H45.09L58.92 48.31h320.17z" style="fill:#fafafa"/><path d="M304.6 194.12a5.4 5.4 0 0 1 5.26-4.86h151.33a4.42 4.42 0 0 1 4.45 4.86l-1.32 15.64h-161Z" style="fill:#e6e6e6"/><path d="M343.11 203.61a3.75 3.75 0 0 1-3.79-4.13h.43-.43a4.51 4.51 0 0 1 4.41-4.07 3.75 3.75 0 0 1 3.79 4.14 4.51 4.51 0 0 1-4.41 4.06m.62-7.34a3.63 3.63 0 0 0-3.55 3.28 2.89 2.89 0 0 0 2.93 3.2 3.65 3.65 0 0 0 3.56-3.27 3 3 0 0 0-.75-2.28 2.94 2.94 0 0 0-2.19-.93M330.1 203.61a3.76 3.76 0 0 1-3.8-4.13h.43-.43a4.51 4.51 0 0 1 4.41-4.07 3.75 3.75 0 0 1 2.82 1.21 3.8 3.8 0 0 1 1 2.93 4.51 4.51 0 0 1-4.43 4.06m.61-7.34a3.64 3.64 0 0 0-3.55 3.28 2.89 2.89 0 0 0 2.94 3.2 3.64 3.64 0 0 0 3.55-3.27 2.89 2.89 0 0 0-2.94-3.21M317.08 203.61a3.75 3.75 0 0 1-3.79-4.13h.43-.43a4.51 4.51 0 0 1 4.41-4.07 3.75 3.75 0 0 1 3.79 4.14 4.51 4.51 0 0 1-4.41 4.06m.62-7.34a3.63 3.63 0 0 0-3.55 3.28 2.89 2.89 0 0 0 2.93 3.2 3.65 3.65 0 0 0 3.56-3.27 3 3 0 0 0-.75-2.28 2.94 2.94 0 0 0-2.19-.93" style="fill:#fff"/><path d="M450.61 315.08H299.29a4.41 4.41 0 0 1-4.45-4.86l8.44-100.46h161l-8.44 100.46a5.41 5.41 0 0 1-5.23 4.86" style="fill:#f5f5f5"/><path d="M292.39 210.38a5.4 5.4 0 0 1 5.27-4.86H449a4.41 4.41 0 0 1 4.45 4.86L452.12 226h-161Z" style="fill:#f5f5f5"/><path d="M330.91 219.87a3.76 3.76 0 0 1-3.8-4.13h.43-.43a4.51 4.51 0 0 1 4.41-4.07 3.76 3.76 0 0 1 3.8 4.14 4.51 4.51 0 0 1-4.41 4.06m.61-7.34a3.64 3.64 0 0 0-3.55 3.28 2.89 2.89 0 0 0 2.94 3.2 3.64 3.64 0 0 0 3.55-3.27 2.89 2.89 0 0 0-2.94-3.21M317.89 219.87a3.75 3.75 0 0 1-3.79-4.13h.43-.43a4.51 4.51 0 0 1 4.41-4.07 3.75 3.75 0 0 1 3.79 4.14 4.51 4.51 0 0 1-4.41 4.06m.62-7.34a3.65 3.65 0 0 0-3.56 3.28 2.89 2.89 0 0 0 2.94 3.2 3.63 3.63 0 0 0 3.55-3.27 2.89 2.89 0 0 0-2.93-3.21M304.88 219.87a3.75 3.75 0 0 1-2.82-1.21 3.8 3.8 0 0 1-1-2.92h.43-.43a4.51 4.51 0 0 1 4.41-4.07 3.76 3.76 0 0 1 3.8 4.14 4.51 4.51 0 0 1-4.39 4.06m.61-7.34a3.64 3.64 0 0 0-3.55 3.28 2.89 2.89 0 0 0 2.94 3.2 3.64 3.64 0 0 0 3.55-3.27 3 3 0 0 0-.75-2.28 2.93 2.93 0 0 0-2.19-.93" style="fill:#e6e6e6"/><path d="M438.41 331.34H287.08a4.42 4.42 0 0 1-4.45-4.86L291.08 226h161l-8.45 100.46a5.4 5.4 0 0 1-5.22 4.88" style="fill:#fafafa"/><path d="M280.18 226.64a5.41 5.41 0 0 1 5.27-4.86h151.32a4.41 4.41 0 0 1 4.45 4.86l-1.31 15.64h-161Z" style="fill:#fafafa"/><path d="M318.7 236.13a3.75 3.75 0 0 1-3.79-4.14h.42-.42a4.5 4.5 0 0 1 4.41-4.06 3.75 3.75 0 0 1 3.79 4.14 4.51 4.51 0 0 1-4.41 4.06m.62-7.34a3.64 3.64 0 0 0-3.56 3.28 2.89 2.89 0 0 0 2.94 3.2 3.63 3.63 0 0 0 3.55-3.28 2.89 2.89 0 0 0-2.93-3.2M305.68 236.13a3.75 3.75 0 0 1-3.79-4.14h.43-.43a4.51 4.51 0 0 1 4.41-4.06 3.75 3.75 0 0 1 3.79 4.14 4.5 4.5 0 0 1-4.41 4.06m.62-7.34a3.63 3.63 0 0 0-3.55 3.28 2.89 2.89 0 0 0 2.93 3.2 3.64 3.64 0 0 0 3.56-3.28 2.89 2.89 0 0 0-2.94-3.2M292.67 236.13a3.75 3.75 0 0 1-3.79-4.14h.42-.42a4.5 4.5 0 0 1 4.41-4.06 3.75 3.75 0 0 1 3.79 4.14 4.51 4.51 0 0 1-4.41 4.06m.62-7.34a3.64 3.64 0 0 0-3.56 3.28 2.89 2.89 0 0 0 2.94 3.2 3.63 3.63 0 0 0 3.55-3.28 2.89 2.89 0 0 0-2.93-3.2" style="fill:#f0f0f0"/><path d="M426.2 347.6H274.87a4.42 4.42 0 0 1-4.45-4.86l8.45-100.46h161l-8.45 100.46a5.4 5.4 0 0 1-5.22 4.86" style="fill:#e6e6e6"/><ellipse cx="250" cy="426.24" rx="193.89" ry="11.32" style="fill:#f5f5f5"/><path d="M428.13 327.1H86.54a2.76 2.76 0 0 1-2.78-3L96.83 96.93A3.16 3.16 0 0 1 100 94h341.53a2.76 2.76 0 0 1 2.79 3l-13.07 227.15a3.17 3.17 0 0 1-3.12 2.95" style="fill:#f0f0f0"/><path d="M428.13 327.65H86.54a3.31 3.31 0 0 1-3.33-3.53L96.28 96.9a3.72 3.72 0 0 1 3.72-3.47h341.53a3.3 3.3 0 0 1 3.33 3.57L431.8 324.18a3.73 3.73 0 0 1-3.67 3.47M100 94.53A2.61 2.61 0 0 0 97.37 97L84.31 324.18a2.2 2.2 0 0 0 2.23 2.37h341.59a2.61 2.61 0 0 0 2.57-2.43L443.77 96.9a2.23 2.23 0 0 0-.6-1.68 2.2 2.2 0 0 0-1.64-.69Z" style="fill:#263238"/><path d="M424 322.56H82.44a2.75 2.75 0 0 1-2.78-2.95L92.72 92.39a3.18 3.18 0 0 1 3.12-3h341.59a2.76 2.76 0 0 1 2.78 3l-13.06 227.22a3.17 3.17 0 0 1-3.15 2.95" style="fill:#fff"/><path d="M424 323.11H82.44a3.29 3.29 0 0 1-3.33-3.53L92.18 92.36a3.71 3.71 0 0 1 3.66-3.46h341.59a3.3 3.3 0 0 1 2.44 1 3.35 3.35 0 0 1 .89 2.5l-13.07 227.24a3.72 3.72 0 0 1-3.69 3.47M95.84 90a2.61 2.61 0 0 0-2.57 2.44L80.2 319.64a2.3 2.3 0 0 0 .6 1.69 2.24 2.24 0 0 0 1.64.69H424a2.62 2.62 0 0 0 2.57-2.44l13.1-227.22a2.28 2.28 0 0 0-.6-1.68 2.24 2.24 0 0 0-1.64-.69Z" style="fill:#263238"/><path d="M437.43 89.44H95.84a3.18 3.18 0 0 0-3.12 3l-1.23 21.39H439l1.23-21.39a2.76 2.76 0 0 0-2.8-3" style="fill:#263238"/><path d="M117.08 102.57h-14.72l.11-1.92h14.72zM116.8 107.42h-14.72l.11-1.92h14.72zM117.36 97.72h-14.72l.11-1.92h14.72z" style="fill:#fff"/><path d="M262.51 108.3h-133.1a2.84 2.84 0 0 1-2.87-3L127 98a3.27 3.27 0 0 1 3.22-3h133.1a2.86 2.86 0 0 1 2.87 3l-.42 7.29a3.28 3.28 0 0 1-3.26 3.01" style="fill:#fff;opacity:.2"/><g style="opacity:.2"><path d="M195.92 138.6H90.07l1.42-24.82h105.86z" style="fill:#fff"/><path d="M195.92 138.87H90.07a.28.28 0 0 1-.2-.08.32.32 0 0 1-.08-.21l1.43-24.82a.28.28 0 0 1 .27-.26h105.86a.33.33 0 0 1 .2.09.3.3 0 0 1 .07.2l-1.43 24.82a.27.27 0 0 1-.27.26m-105.56-.54h105.3l1.4-24.28H91.75Z" style="fill:#263238"/><path d="M194.49 163.42H88.64l1.43-24.82h105.85z" style="fill:#fff"/><path d="M194.49 163.69H88.64a.28.28 0 0 1-.2-.08.27.27 0 0 1-.07-.21l1.42-24.82a.27.27 0 0 1 .28-.25h105.85a.3.3 0 0 1 .2.08.26.26 0 0 1 .07.2l-1.42 24.83a.27.27 0 0 1-.28.25m-105.56-.54h105.3l1.4-24.28H90.33Z" style="fill:#263238"/><path d="M193.06 188.24H87.21l1.43-24.82h105.85z" style="fill:#fff"/><path d="M193.06 188.51H87.21a.3.3 0 0 1-.2-.08.27.27 0 0 1-.07-.21l1.43-24.82a.26.26 0 0 1 .27-.25h105.85a.28.28 0 0 1 .2.08.32.32 0 0 1 .08.21l-1.43 24.82a.27.27 0 0 1-.28.25M87.5 188h105.31l1.39-24.28H88.9Z" style="fill:#263238"/><path d="M186.55 301.51H80.7l1.21-21.04h105.85z" style="fill:#fff"/><path d="M186.55 301.79H80.7a.25.25 0 0 1-.2-.09.3.3 0 0 1-.08-.2l1.22-21.05a.27.27 0 0 1 .27-.26h105.85a.25.25 0 0 1 .2.09.25.25 0 0 1 .07.2l-1.21 21a.26.26 0 0 1-.27.31M81 301.24h105.3l1.18-20.5H82.17Z" style="fill:#263238"/><path d="M185.34 322.56H82.64a2.94 2.94 0 0 1-3-3.14l1-17.9h105.91Z" style="fill:#fff"/><path d="M185.34 322.84H82.64a3.2 3.2 0 0 1-2.37-1 3.17 3.17 0 0 1-.87-2.43l1-17.9a.28.28 0 0 1 .28-.26h105.87a.25.25 0 0 1 .2.09.25.25 0 0 1 .07.2l-1.21 21.05a.27.27 0 0 1-.27.25M81 301.79l-1 17.64a2.66 2.66 0 0 0 2.7 2.86h102.38l1.18-20.5Z" style="fill:#263238"/><path d="M187.76 280.47H81.91l5.3-92.23h105.85z" style="fill:#fff"/><path d="M187.76 280.74H81.91a.25.25 0 0 1-.2-.09.24.24 0 0 1-.07-.2l5.3-92.23a.27.27 0 0 1 .27-.25h105.85a.27.27 0 0 1 .28.29L188 280.48a.26.26 0 0 1-.24.26m-105.56-.55h105.3l5.27-91.68H87.47Z" style="fill:#263238"/><path d="m211.38 322.56 9.79-170.33h189.57l-9.8 170.33" style="fill:#fff"/><path d="M400.94 322.84a.27.27 0 0 1-.25-.29l9.78-170h-189l-9.78 170.08a.28.28 0 0 1-.55 0l9.8-170.34a.28.28 0 0 1 .27-.26h189.53a.25.25 0 0 1 .19.09.26.26 0 0 1 .08.2l-9.8 170.34a.27.27 0 0 1-.27.18" style="fill:#263238"/><path d="M237.94 305.62H227a.81.81 0 0 1-.82-.88l.14-2.49a.94.94 0 0 1 .93-.87h10.93a.81.81 0 0 1 .83.87l-.14 2.49a1 1 0 0 1-.93.88M267.8 305.62h-10.93a.83.83 0 0 1-.83-.88l.15-2.49a.93.93 0 0 1 .92-.87h10.94a.81.81 0 0 1 .82.87l-.14 2.49a.94.94 0 0 1-.93.88M297.67 305.62h-10.94a.81.81 0 0 1-.82-.88l.14-2.49a.94.94 0 0 1 .93-.87h10.93a.81.81 0 0 1 .83.87l-.15 2.49a.93.93 0 0 1-.92.88M327.53 305.62H316.6a.82.82 0 0 1-.83-.88l.15-2.49a.93.93 0 0 1 .92-.87h10.94a.81.81 0 0 1 .82.87l-.14 2.49a.94.94 0 0 1-.93.88M357.4 305.62h-10.94a.81.81 0 0 1-.82-.88l.14-2.49a.94.94 0 0 1 .93-.87h10.93a.83.83 0 0 1 .83.87l-.15 2.49a.93.93 0 0 1-.92.88M387.26 305.62h-10.93a.82.82 0 0 1-.83-.88l.14-2.49a1 1 0 0 1 .93-.87h10.94a.81.81 0 0 1 .82.87l-.14 2.49a.94.94 0 0 1-.93.88M410.15 147.05h-22.61a.82.82 0 0 1-.82-.88l.14-2.49a1 1 0 0 1 .93-.88h22.61a.83.83 0 0 1 .83.88l-.15 2.49a.94.94 0 0 1-.93.88M132.1 153.93H98.92a1.17 1.17 0 0 1-1.18-1.25l.19-3.34a1.34 1.34 0 0 1 1.32-1.25h33.19a1.17 1.17 0 0 1 1.18 1.25l-.2 3.34a1.34 1.34 0 0 1-1.32 1.25M152.39 207.63H95.76a1.1 1.1 0 0 1-1.11-1.18l.16-2.86a1.27 1.27 0 0 1 1.25-1.18h56.62a1.11 1.11 0 0 1 1.12 1.18l-.17 2.86a1.26 1.26 0 0 1-1.24 1.18M135.75 227.17H94.63a1.1 1.1 0 0 1-1.11-1.17l.17-2.86a1.26 1.26 0 0 1 1.24-1.14h41.12a1.1 1.1 0 0 1 1.11 1.18L137 226a1.25 1.25 0 0 1-1.25 1.17M126.84 246.72H93.51a1.1 1.1 0 0 1-1.11-1.18l.16-2.85a1.27 1.27 0 0 1 1.25-1.18h33.33a1.11 1.11 0 0 1 1.11 1.18l-.17 2.85a1.26 1.26 0 0 1-1.24 1.18M141.53 266.27H92.39a1.1 1.1 0 0 1-1.11-1.18l.16-2.86a1.27 1.27 0 0 1 1.25-1.18h49.14a1.1 1.1 0 0 1 1.11 1.18l-.16 2.86a1.27 1.27 0 0 1-1.25 1.18M124 178.75H97.49a1.17 1.17 0 0 1-1.18-1.25l.2-3.34a1.34 1.34 0 0 1 1.31-1.25h26.53a1.17 1.17 0 0 1 1.18 1.25l-.2 3.34a1.34 1.34 0 0 1-1.33 1.25M117.39 293.91H90.87a1.17 1.17 0 0 1-1.18-1.25l.19-3.34a1.34 1.34 0 0 1 1.32-1.25h26.53a1.16 1.16 0 0 1 1.17 1.25l-.19 3.34a1.34 1.34 0 0 1-1.32 1.25" style="fill:#263238"/><path d="M313.23 199.68h-47.4l2.73-47.45h47.39z" style="fill:#fff"/><path d="M313.23 200h-47.39a.27.27 0 0 1-.28-.29l2.73-47.45a.28.28 0 0 1 .27-.26H316a.25.25 0 0 1 .2.09.26.26 0 0 1 .08.2l-2.73 47.45a.27.27 0 0 1-.32.26m-47.11-.55H313l2.69-46.9h-46.87Z" style="fill:#263238"/><path d="M233.37 213.04h-4.99l.29-5h4.99z" style="fill:#fff"/><path d="M233.37 213.31h-5a.32.32 0 0 1-.2-.08.3.3 0 0 1-.07-.21l.29-5a.27.27 0 0 1 .27-.26h5a.27.27 0 0 1 .2.09.24.24 0 0 1 .07.2l-.29 5a.26.26 0 0 1-.27.26m-4.7-.54h4.44l.26-4.45h-4.44Z" style="fill:#263238"/><path d="M360.62 199.68h-47.39l2.72-47.45h47.4z" style="fill:#fff"/><path d="M360.62 200h-47.39a.27.27 0 0 1-.28-.29l2.73-47.45a.28.28 0 0 1 .32-.26h47.39a.25.25 0 0 1 .2.09.26.26 0 0 1 .08.2l-2.73 47.45a.27.27 0 0 1-.32.26m-47.1-.55h46.84l2.69-46.9h-46.84Z" style="fill:#263238"/><path d="M408.01 199.68h-47.39l2.73-47.45h47.39z" style="fill:#fff"/><path d="M408 200h-47.38a.28.28 0 0 1-.2-.08.32.32 0 0 1-.08-.21l2.73-47.45a.28.28 0 0 1 .27-.26h47.4a.25.25 0 0 1 .19.09.26.26 0 0 1 .08.2l-2.73 47.45a.27.27 0 0 1-.28.26m-47.1-.55h46.84l2.7-46.9H363.6ZM438.27 126.46H196.63a.27.27 0 0 1-.27-.27.28.28 0 0 1 .27-.28h241.64a.28.28 0 0 1 .27.28.27.27 0 0 1-.27.27M396.13 220.23H228a.14.14 0 0 1-.14-.14.13.13 0 0 1 .14-.09h168.13a.13.13 0 0 1 .13.13.13.13 0 0 1-.13.1M395.26 235.32H227.11a.14.14 0 1 1 0-.28h168.15a.14.14 0 0 1 0 .28M394.39 250.4H226.24a.13.13 0 0 1-.13-.13.13.13 0 0 1 .13-.14h168.15a.14.14 0 0 1 .14.14.13.13 0 0 1-.14.13M393.52 265.49H225.37a.13.13 0 0 1-.13-.14.13.13 0 0 1 .13-.13h168.15a.13.13 0 0 1 .14.13.14.14 0 0 1-.14.14M392.65 280.58H224.51a.14.14 0 0 1-.14-.14.14.14 0 0 1 .14-.14h168.14a.14.14 0 0 1 .14.14.14.14 0 0 1-.14.14M391.79 295.67H223.64a.14.14 0 0 1-.14-.14.14.14 0 0 1 .14-.14h168.15a.13.13 0 0 1 .13.14.14.14 0 0 1-.13.14" style="fill:#263238"/><path d="M277.49 161.6h-4.99l.29-4.99h4.99z" style="fill:#fff"/><path d="M277.49 161.88h-5a.28.28 0 0 1-.19-.09.27.27 0 0 1-.08-.2l.29-5a.28.28 0 0 1 .27-.26h5a.25.25 0 0 1 .2.09.25.25 0 0 1 .07.2l-.28 5a.28.28 0 0 1-.28.26m-4.7-.55h4.44l.26-4.45h-4.44Z" style="fill:#263238"/><path d="M324.78 161.6h-4.98l.28-4.99h4.99z" style="fill:#fff"/><path d="M324.78 161.88h-5a.3.3 0 0 1-.2-.09.27.27 0 0 1-.08-.2l.29-5a.28.28 0 0 1 .27-.26h5a.25.25 0 0 1 .2.09.25.25 0 0 1 .07.2l-.28 5a.28.28 0 0 1-.27.26m-4.69-.55h4.44l.25-4.45h-4.44Z" style="fill:#263238"/><path d="M372.17 161.6h-4.98l.28-4.99h4.99z" style="fill:#fff"/><path d="M372.17 161.88h-5a.3.3 0 0 1-.2-.09.27.27 0 0 1-.08-.2l.29-5a.28.28 0 0 1 .27-.26h5a.25.25 0 0 1 .2.09.25.25 0 0 1 .07.2l-.28 5a.28.28 0 0 1-.27.26m-4.69-.55h4.44l.25-4.45h-4.44Z" style="fill:#263238"/></g><path d="M240.52 295.53h-14.93l.6-10.53h14.93z" style="fill:#407bff"/><path d="M240.52 295.67h-14.93a.12.12 0 0 1-.1-.05.12.12 0 0 1 0-.1l.6-10.52a.14.14 0 0 1 .14-.13h14.93a.12.12 0 0 1 .1 0 .13.13 0 0 1 0 .1l-.61 10.53a.13.13 0 0 1-.13.17m-14.79-.28h14.66l.59-10.25h-14.66Z" style="fill:#407bff"/><path d="M255.45 295.53h-14.93l1.35-23.56h14.94z" style="fill:#407bff"/><path d="M255.45 295.67h-14.93a.12.12 0 0 1-.1-.05.12.12 0 0 1 0-.1l1.32-23.52a.13.13 0 0 1 .13-.13h14.94a.14.14 0 0 1 .13.15l-1.35 23.56a.15.15 0 0 1-.14.09m-14.79-.28h14.66l1.34-23.29H242Z" style="fill:#407bff"/><path d="M270.38 295.53h-14.93l2.24-38.98h14.93z" style="fill:#407bff"/><path d="M270.38 295.67h-14.93a.14.14 0 0 1-.1-.05.15.15 0 0 1 0-.1l2.25-39a.12.12 0 0 1 .13-.12h14.93a.12.12 0 0 1 .1 0 .13.13 0 0 1 0 .1l-2.24 39a.13.13 0 0 1-.14.17m-14.78-.28h14.65l2.23-38.7h-14.66Z" style="fill:#407bff"/><path d="M285.31 295.53h-14.93l2.99-51.85h14.93z" style="fill:#407bff"/><path d="M285.31 295.67h-14.93a.16.16 0 0 1-.1-.05.11.11 0 0 1 0-.1l3-51.85a.13.13 0 0 1 .13-.13h14.89a.2.2 0 0 1 .1 0 .13.13 0 0 1 0 .1l-3 51.86a.13.13 0 0 1-.09.17m-14.78-.28h14.66l3-51.58h-14.7Z" style="fill:#407bff"/><path d="M300.25 295.53h-14.94l3.26-56.64h14.93z" style="fill:#407bff"/><path d="M300.25 295.67h-14.94a.12.12 0 0 1-.09-.05.12.12 0 0 1 0-.1l3.26-56.64a.13.13 0 0 1 .13-.13h14.89a.12.12 0 0 1 .1.05.12.12 0 0 1 0 .1l-3.26 56.64a.13.13 0 0 1-.09.13m-14.79-.28h14.66l3.24-56.39H288.7Z" style="fill:#407bff"/><path d="M315.18 295.53h-14.93l2.87-50.01h14.94z" style="fill:#407bff"/><path d="M315.18 295.67h-14.93a.12.12 0 0 1-.1-.05.12.12 0 0 1 0-.1l2.88-50a.13.13 0 0 1 .13-.13h14.94a.11.11 0 0 1 .09 0 .14.14 0 0 1 0 .1l-2.87 50a.15.15 0 0 1-.14.18m-14.79-.28h14.66l2.86-49.74h-14.66Z" style="fill:#407bff"/><path d="M330.11 295.53h-14.93l2.71-47.12h14.93z" style="fill:#407bff"/><path d="M330.11 295.67h-14.93a.14.14 0 0 1-.1-.05.12.12 0 0 1 0-.1l2.71-47.12a.15.15 0 0 1 .14-.13h14.93a.15.15 0 0 1 .1 0 .14.14 0 0 1 0 .1l-2.71 47.13a.15.15 0 0 1-.14.17m-14.79-.28H330l2.7-46.85H318Z" style="fill:#407bff"/><path d="M345.04 295.53h-14.93l2.98-51.85h14.94z" style="fill:#407bff"/><path d="M345 295.67h-14.89a.14.14 0 0 1-.1-.05.11.11 0 0 1 0-.1l3-51.85a.13.13 0 0 1 .13-.13H348a.2.2 0 0 1 .1 0 .2.2 0 0 1 0 .1l-3 51.86a.13.13 0 0 1-.1.17m-14.78-.28h14.65l3-51.58h-14.65Z" style="fill:#407bff"/><path d="M359.98 295.53h-14.94l2.38-41.31h14.93z" style="fill:#407bff"/><path d="M360 295.67h-15a.16.16 0 0 1-.1-.05.11.11 0 0 1 0-.1l2.37-41.31a.15.15 0 0 1 .14-.13h14.93a.12.12 0 0 1 .1 0 .12.12 0 0 1 0 .1l-2.38 41.31a.13.13 0 0 1-.06.18m-14.79-.28h14.66l2.36-41h-14.68Z" style="fill:#407bff"/><path d="M374.91 295.53h-14.93l3.22-56.06h14.93z" style="fill:#407bff"/><path d="M374.91 295.67H360a.12.12 0 0 1-.1-.05.12.12 0 0 1 0-.1l3.22-56a.14.14 0 0 1 .14-.13h14.93a.12.12 0 0 1 .1 0 .13.13 0 0 1 0 .1l-3.22 56.06a.15.15 0 0 1-.16.12m-14.79-.28h14.66l3.22-55.78h-14.67Z" style="fill:#407bff"/><path d="M389.84 295.53h-14.93l3.93-68.32h14.93z" style="fill:#407bff"/><path d="M389.84 295.67h-14.93a.12.12 0 0 1-.1-.05.12.12 0 0 1 0-.1l3.93-68.32a.13.13 0 0 1 .14-.13h14.93a.14.14 0 0 1 .1.05.15.15 0 0 1 0 .1L390 295.54a.15.15 0 0 1-.16.13m-14.79-.28h14.66l3.91-68H379ZM265.83 199.68h-47.39l2.73-47.45h47.39z" style="fill:#407bff"/><path d="M265.84 200h-47.4a.27.27 0 0 1-.19-.08.28.28 0 0 1-.08-.21l2.73-47.45a.28.28 0 0 1 .27-.26h47.39a.25.25 0 0 1 .2.09.3.3 0 0 1 .08.2l-2.73 47.45a.27.27 0 0 1-.27.26m-47.11-.55h46.85l2.69-46.9h-46.84Z" style="fill:#407bff"/><path d="M230 161.88h-5a.28.28 0 0 1-.19-.09.27.27 0 0 1-.08-.2l.29-5a.28.28 0 0 1 .27-.26h5a.25.25 0 0 1 .2.09.25.25 0 0 1 .07.2l-.28 5a.28.28 0 0 1-.28.26m-4.7-.55h4.44l.26-4.45h-4.44Z" style="fill:#fff"/><path d="m143 209.1-1.23 1.58-1.33 1.76c-.88 1.2-1.77 2.4-2.6 3.62-1.7 2.44-3.26 4.93-4.65 7.39a50 50 0 0 0-1.9 3.7 35 35 0 0 0-1.52 3.61 23.4 23.4 0 0 0-1.44 6.42l-.72-3c.6 1.8 1.21 3.68 2 5.57s1.56 3.85 2.48 5.78 1.81 3.92 2.75 5.91 2 4 2.81 6l.18.41a5.32 5.32 0 0 1-8 6.45 60 60 0 0 1-5.77-4.75c-1.8-1.67-3.5-3.44-5.16-5.3a71 71 0 0 1-4.66-5.94 59 59 0 0 1-4.08-6.73 6.3 6.3 0 0 1-.63-2.11l-.09-.92a37.5 37.5 0 0 1 1.12-13.33 58.4 58.4 0 0 1 4.13-11.22 79 79 0 0 1 5.63-9.77c1-1.54 2.09-3.05 3.23-4.51.57-.73 1.14-1.46 1.74-2.18l.92-1.09 1.05-1.18a10.46 10.46 0 0 1 16.12 13.32Z" style="fill:#b65b52"/><path d="M138.75 184.5c-9.3 2.84-18.66 17.9-18.66 17.9.15 5.65 8.46 18.84 14.69 21.9a31.37 31.37 0 0 0 10.15-13.85c3.37-9.59-1.55-24.32-6.18-25.95" style="fill:#407bff"/><path d="m135.53 256.62-5.53 2.46c-4.5 4.48 2.25 9.28 2.25 9.28l2.32 3.62a3.21 3.21 0 0 0 4 1l3.87-1.7a3.35 3.35 0 0 0 2-4.2L143 263.6a6.7 6.7 0 0 0-2-2.57ZM172 184.93a8.36 8.36 0 0 0-4-3.81 7.82 7.82 0 0 1-.14-5.24l-19.65-6.26c1.59 6.5 2.83 11.63.42 14.78 3.86 2.36 10.94 6.6 18.66 6.38s5.97-3.12 4.71-5.85" style="fill:#b55b52"/><path d="M170.11 157.3c.14.75.65 1.28 1.15 1.18s.77-.78.63-1.53-.65-1.29-1.14-1.19-.75.78-.64 1.54" style="fill:#263238"/><path d="m170.65 158.38 1.13 6.34a7 7 0 0 0 2.24-.32.84.84 0 0 0 .2-1.47 15 15 0 0 1-3.57-4.55" style="fill:#a02724"/><path d="M171.43 152.72a.43.43 0 0 1-.34.25 3.56 3.56 0 0 0-2.67 1.84.44.44 0 0 1-.59.23.46.46 0 0 1-.23-.6 4.46 4.46 0 0 1 3.35-2.36.44.44 0 0 1 .51.38.4.4 0 0 1-.03.26" style="fill:#263238"/><path d="M144.36 159.67c2.34 8.46 4.13 14.16 10.24 16.88 12.13 5.4 17.56-.33 18-9.26.38-8-3.52-20.52-13.26-22.34s-17.34 6.26-14.98 14.72M143.56 401.34l-13.65.13-.6 16.93 11.4-.09z" style="fill:#b55b52"/><path d="M128.22 336.6c-1.15-21.73-.7-61.37 6.58-71.37l42.68-1s-13.59 54.48-17.07 74.77c-3.62 21.09-18.6 72.74-18.6 72.74l-12.25-.38s-7.17-49.96-1.34-74.76" style="fill:#263238"/><path d="m197.64 401.34-13.62.13 3.1 16.93 11.38-.09z" style="fill:#b55b52"/><path d="M186.73 423.65h2.9l.51-1.27 1.8 1.28h16.69a10.8 10.8 0 0 0-1.69-4.31s-4.54-.52-7.17-3.32a.75.75 0 0 0-.7-.28c-1.66.39-8.27 1.8-12.4.32a.52.52 0 0 0-.72.62 48.6 48.6 0 0 1 .78 6.96M167.56 336.6c-6-21.73-14.85-61.37-9.8-71.37l43.38-1s-1.91 54.48-.86 74.76c1.1 21.09-2.12 72.74-2.12 72.74l-12.18.5s-18.71-50.83-18.42-75.63" style="fill:#263238"/><path d="M156.58 269.55a533 533 0 0 0-25.07 3.68c-4.1 15.68-4.24 45.55-3.29 63.37-.18.77-.34 1.56-.5 2.37 10.21 4 21.23 2.39 32.76-.37.75-4.32 1.93-10.09 3.34-16.53-4.5-18.68-8.76-41.47-7.24-52.52" style="opacity:.2"/><path d="M200.45 288.17c-2.48-12.12-5.19-21.5-5.19-21.5-6.12.08-12.41.4-18.6.87-2.23 9-8.55 34.86-12.84 54.53 1.27 5.29 2.56 10.26 3.74 14.53v.22c10.54-2.74 21.44-5.66 32.48-5.58-.21-12.07.08-29.17.41-43.07" style="opacity:.2"/><path d="M174.07 182.26a189 189 0 0 0-28.84.23 19.05 19.05 0 0 0-17 22.19c4.81 28.5 1.69 49.58 4.59 60.55 0 0 44.25.78 70-1 1.85-30.12-4.78-36.4-12.45-68.16-1.73-7.07-9.05-13.29-16.3-13.81" style="fill:#407bff"/><path d="M202.8 264.23s8.56 45.29 2.08 65.18c-29-4.75-59.4 14-81.48-2.92.82-24.09 5.29-53.86 9.37-61.26 0 0 37.75-3.65 70.03-1" style="fill:#263238"/><g style="clip-path:url(#a)"><path d="m133 357.39-5.13.48c13.67-36-.94-65.88 11.43-95l4.36-.35c-12.15 29.08 2.69 58.92-10.66 94.87M149.42 355.84l-5.1.48c12.7-35.83-2.64-65.58 9-94.57l4.34-.35c-11.4 28.95 4.17 58.66-8.24 94.44M165.78 354.3l-5.08.48c11.76-35.66-4.32-65.28 6.51-94.15l4.33-.35c-10.54 28.83 5.7 58.41-5.76 94.02M182.06 352.76l-5.05.48c10.81-35.49-6-65 4.08-93.73l4.31-.35c-9.83 28.71 7.19 58.16-3.34 93.6M198.27 351.24l-5 .47c9.89-35.33-7.63-64.68 1.68-93.31l4.29-.34c-9.11 28.58 8.62 57.94-.97 93.18" style="fill:#fff;opacity:.2"/><path d="M125.28 278.38c.28-1.56.62-3.12 1-4.68l80.29-6.57c-.17 1.52-.28 3.05-.34 4.57ZM123.77 293.83c0-1.63.13-3.26.24-4.88l82.5-6.93c.12 1.58.28 3.17.46 4.76ZM123.73 310v-5.13l84.78-7.32c.26 1.65.52 3.32.78 5ZM123.39 327.18c.12-1.83.2-3.65.25-5.46l87.2-7.75c.2 1.76.38 3.53.53 5.32ZM120.79 345.57q.69-3 1.18-5.87l89.79-8.22q-.07 2.83-.33 5.72Z" style="fill:#fff;opacity:.2"/></g><path d="M191.82 193.46c-.07-.08 0-.07 0-.07l.07.06.18.17.44.4c.31.28.63.57 1 .86.68.57 1.39 1.17 2.13 1.72a42 42 0 0 0 4.6 3 37.4 37.4 0 0 0 4.86 2.4 34 34 0 0 0 5.21 1.5l-4.28.65c1.72-.5 3.56-1.13 5.45-1.79s3.85-1.39 5.8-2.16l6-2.27c2-.73 4.09-1.53 6.12-2.17l.24-.07a5.35 5.35 0 0 1 5.66 8.6 66 66 0 0 1-4.85 5c-1.68 1.58-3.43 3.07-5.24 4.53s-3.7 2.84-5.69 4.15a59 59 0 0 1-6.45 3.72 6.4 6.4 0 0 1-3 .67h-1.29a43.6 43.6 0 0 1-9.16-1.13c-1.5-.36-3-.78-4.45-1.27s-2.87-1.08-4.25-1.72a47 47 0 0 1-7.87-4.6 44 44 0 0 1-3.56-2.87 37 37 0 0 1-1.71-1.62l-.86-.9-.45-.49-.58-.68a10.47 10.47 0 0 1 15.94-13.59Z" style="fill:#b65b52"/><path d="m228.42 198.71 3.67 4.81c5.39 3.36 8.51-4.32 8.51-4.32l4.4-4.4a3.2 3.2 0 0 0 0-4.15l-2.54-3.38a3.35 3.35 0 0 0-4.55-1l-4.43 3.55a6.6 6.6 0 0 0-2.05 2.49Z" style="fill:#b55b52"/><path d="M174.5 182.7c9.68.75 22.25 13.73 22.25 13.73.83 3.86.22 18.34-6.47 23.51 0 0-11.51-.57-16.45-8.5-5.36-8.62-9.6-29.54.67-28.74" style="fill:#407bff"/><path d="M169.52 147.06c2.82-5.66-4.79-13.3-10.63-8s-10.09 4.24-15 4.65c-6.48.55-3.47 6.87-3.47 6.87s-10.59-2-6.27 8.95c5.15 13.05-6.51 20.86-1.13 33.18s20.66 14.72 30.58 13.33c0 0-3-7.58 2.92-13.33 11.94-11.61-4-21.4-2.68-31.84 4.92.89 2.16-6.81 5.68-13.81" style="fill:#263238"/><path d="m163.88 160.87-2.88 1.54c-.33 4.42 5.32 10.37 8.41 14.25s4 7.84 3.13 15c6-17.11-7.93-20.29-8.66-30.79" style="fill:#263238"/><path d="M160.91 162.22a8.05 8.05 0 0 0 4.61 4.14c2.7.92 4.24-1.45 3.64-4.08-.53-2.37-2.58-5.7-5.37-5.49a3.68 3.68 0 0 0-2.88 5.43" style="fill:#b55b52"/><path d="M127.78 423.65h2.9l.79-1.27 1.52 1.28h17.48a8.9 8.9 0 0 0-.74-4.31s-5.23-.52-7.24-3.32a.62.62 0 0 0-.65-.28c-1.74.39-8.66 1.8-12.47.32a.63.63 0 0 0-.85.62 49 49 0 0 1-.74 6.96" style="fill:#263238"/></svg>