<svg xmlns="http://www.w3.org/2000/svg" viewBox="0 0 500 500"><path d="M184.5 411.25 207.68 379l47.62.13.16 32.46zM68.44 378.66l44.53-28.15h59.16l-32.71 28.62z" style="fill:#ebebeb"/><path d="m66.22 444.81 38.98-33.56h79.3l-23.62 33.56z" style="fill:#f5f5f5"/><path d="m381.67 378.66-65.46.47 20.32 32.12h75.95z" style="fill:#ebebeb"/><path d="m337.55 411.25-82.09.34.26 33.22h102.91z" style="fill:#ebebeb"/><ellipse cx="329.82" cy="241.23" rx="40.97" ry="41.32" style="fill:#ebebeb"/><path d="m345.29 215.68-1.15-.89a1.15 1.15 0 0 1-.32-.34 1.8 1.8 0 0 1-.1-.51 1.29 1.29 0 0 0-1.39-1.05c-.25-.63-.31-1.32-.53-2a2 2 0 0 0-1.35-1.39 3.3 3.3 0 0 1-.77-.11c-.27-.11-.44-.37-.67-.54-.78-.6-2.12-.27-2.61-1.12-.12-.19-.16-.43-.3-.62a1.47 1.47 0 0 0-.72-.43 4.23 4.23 0 0 0-3-.31 4.4 4.4 0 0 1-1 .42c-.4.07-.84-.08-1.22.08-.22.1-.41.31-.65.32a.87.87 0 0 1-.48-.17 4.9 4.9 0 0 0-3.12-.7 1.5 1.5 0 0 1 .39-.22l.33-.09a1.35 1.35 0 0 0 .7-.45l-.07-.12c-.14.1-.34 0-.47-.1s-.28-.25-.46-.24a1.3 1.3 0 0 0-.25.06c-.36.09-.7-.23-1.07-.23a1.2 1.2 0 0 0-.36.07 4.4 4.4 0 0 0-1.43.79.4.4 0 0 0-.12.14.43.43 0 0 0 0 .25.9.9 0 0 0 .48.67 1.38 1.38 0 0 0 .9.06h.09a1.8 1.8 0 0 0-.48.59 1.28 1.28 0 0 0 .11 1.37c-.36.24-.74-.32-1.17-.36s-.57.23-.78.46l-.86 1-1-.28a.72.72 0 0 0-.5 0 1.5 1.5 0 0 0-.39.32.88.88 0 0 1-1.23-.14l-.08-.13a.6.6 0 0 0 .31-.34.35.35 0 0 0-.37-.22.86.86 0 0 1 .34-.54c.25-.16.6-.23.71-.5l.55-.36a.5.5 0 0 0 .17-.15.2.2 0 0 0 0-.21c.34-.34-.07-1.21.29-1.64a.86.86 0 0 1 1-.08 3 3 0 0 0 1 .43c.56 0 1-.41 1.44-.77a1.5 1.5 0 0 1 1.51-.42c-.15-.06.29-.76.55-.74s.17.27.29.33c.75.41 1.71-.13 2.53-.23a10.4 10.4 0 0 1 3.15.12c.06-.27-.24-.48-.5-.59a14 14 0 0 0-2.83-1 8.57 8.57 0 0 0-5.23.63 2.9 2.9 0 0 1-1.26.37c-.22 0-.43-.09-.64-.09a1.5 1.5 0 0 0-1 .49 1.6 1.6 0 0 0-.9.28c-.13.07-.24.15-.36.23.08.11.24 0 .35 0a2 2 0 0 1 .64-.21l-.13.15c-.27.3-.65.23-1 .27a2 2 0 0 0-.4.07.84.84 0 0 0-.37.25l.39-.46c.09-.11.19-.23.16-.37a1.22 1.22 0 0 0 1-.54.4.4 0 0 1 .14-.15c.11-.06.25 0 .37 0s.15-.15.2-.24a1.5 1.5 0 0 1 .65-.51l1.21-.63-.48-.07a1.5 1.5 0 0 0-.34.05 9.6 9.6 0 0 0-3.84 1.06 3 3 0 0 1-.31.15l-.31.08a9.5 9.5 0 0 0-1.9.77l-3.58 1.59c-.12.06-.27.17-.23.3l.72.08a3.8 3.8 0 0 0-1.46.71 1.1 1.1 0 0 1-.45.26h-.29a1 1 0 0 0-.38.2l-3.59 2.65a12 12 0 0 0-1.92 1.64 18 18 0 0 0-2 2.14c-.43.66-.69 1.43-1.16 2.06l1-.79a2.7 2.7 0 0 0 .43-.4 3.5 3.5 0 0 0 .28-.39 10 10 0 0 1 .78-.95 2 2 0 0 1 .43-.39 3 3 0 0 0 .32-.18c.13-.09.22-.22.34-.32a.43.43 0 0 1 .42-.13 7 7 0 0 1-.39.63.7.7 0 0 1-.18.19 1 1 0 0 1-.26.06c-.38.08-.58.48-.73.84h.45a.26.26 0 0 1 0 .24 11 11 0 0 1-1.31 2.16 3.2 3.2 0 0 0 .64-1.59 6 6 0 0 0-1.38 1.34 1.64 1.64 0 0 1-1 .65 1 1 0 0 1 .16-.51c-.42 0-.7.42-.89.8l-1.15 2.29-.73 1.46c-.19.39-.39.77-.58 1.15a.55.55 0 0 0-.07.46 10.3 10.3 0 0 0 1.47-1.82 1.6 1.6 0 0 1 .24-.34c.1-.1.22-.18.33-.28.41-.37.6-1 1.07-1.29 0 .45-.44.78-.74 1.12a3.1 3.1 0 0 0-.69 1.22 1.6 1.6 0 0 1-.16.43c-.08.14-.19.24-.28.37a1.57 1.57 0 0 0-.11 1s0 0 0 .05.08 0 .12 0l.88-.55a2 2 0 0 0 .1.79.92.92 0 0 1-.1.78 2.7 2.7 0 0 0-.9 1.71 2.08 2.08 0 0 1-.5 1.52c-.1.08-.21.14-.24.26a.75.75 0 0 0 0 .33c.09.42-.26.79-.52 1.14a.8.8 0 0 0-.16.33 1.2 1.2 0 0 0 0 .33 1.6 1.6 0 0 1-.15.74l.56.33a.7.7 0 0 1 .25.2 2 2 0 0 1 .14.32c.09.16.26.28.3.45a.9.9 0 0 1 0 .28 2.4 2.4 0 0 0 .31 1.38 2 2 0 0 1 .19.4c.07.33-.14.68 0 1-.12 0-.06.21 0 .29a.47.47 0 0 0 .33.11.4.4 0 0 1 .31.13c.13.17-.05.4-.12.61a.59.59 0 0 0 .16.59c.08.08.2.16.18.28s-.18.17-.3.23c-.34.17-.33.68-.18 1a2.8 2.8 0 0 1 .4 1.08.82.82 0 0 1 .7.57c0 .1.06.22.16.25s.23-.08.28-.2c.15-.43 0-.94.25-1.33a3.6 3.6 0 0 1 .42-.46.56.56 0 0 0 .15-.58c-.06-.11-.17-.19-.23-.3s0-.29.09-.3a1 1 0 0 1 .37.53h.48v.76a.88.88 0 0 0-.3.95.43.43 0 0 0 .2.27c.07 0 .16 0 .23.06.4.17.25 1 .68 1 .17 0 .34-.09.52-.08s.3.1.39 0a.32.32 0 0 0 0-.27 1.47 1.47 0 0 1 0-.88 4 4 0 0 1-.31-1.18l.12-.06a1.7 1.7 0 0 1 .52.59 4 4 0 0 0 .18.49.35.35 0 0 0 .42.2c.15-.06.19-.25.18-.41a2.6 2.6 0 0 1 0-.48c.06-.31.4-.47.7-.58 0 .11-.1.19-.19.26s-.21.46-.19.72a2.2 2.2 0 0 0 .4 1.11.93.93 0 0 0 1.07.28c.43-.23.51-.82.51-1.31.14-.07.34-.13.42 0s0 .21 0 .32.26.33.28.53a.55.55 0 0 1-.12.32c-.16.26-.27.67 0 .84a1.6 1.6 0 0 0 .23.08 1 1 0 0 1 .65.88.32.32 0 0 1 .24.31.34.34 0 0 1-.26.3c-.06 0-.13 0-.17.05s0 .29-.07.38a.5.5 0 0 1-.13.05c-.22.08-.18.39-.16.63a1.59 1.59 0 0 1-.62 1.4.86.86 0 0 1-1 .09 2.3 2.3 0 0 1-.34-.42.43.43 0 0 0-.47-.18.46.46 0 0 0-.18.13 2.35 2.35 0 0 0-.78 1.15 2.5 2.5 0 0 1-.1.47c-.09.17-.27.28-.39.43a.87.87 0 0 0-.2.69c.13.16-.07.38-.15.57a6 6 0 0 0-.3.55 1.94 1.94 0 0 0 .13 1.27 3.33 3.33 0 0 0 .84 1.5 2.4 2.4 0 0 0 .36.26 3.56 3.56 0 0 1 1.26 1.24c.3.08.65-.18.91 0a.7.7 0 0 1 .21.28c.14.29.29.57.43.86a1.46 1.46 0 0 0 .45.61.51.51 0 0 0 .68-.08c.17-.26 0-.63.06-.92s.77-.49.82-.91c0-.18-.07-.39.06-.51a.5.5 0 0 1 .19-.09.51.51 0 0 0 .29-.6c.51 0 1.14 0 1.39.42.05.1.16.24.24.16a5.3 5.3 0 0 1 0-1.69 1.3 1.3 0 0 0 0-.47c-.1-.46-.75-.55-1-1s.21-1.16-.12-1.59c-.21-.27-.63-.31-.78-.61a2 2 0 0 0-.13-.32 1.2 1.2 0 0 0-.28-.21 1.31 1.31 0 0 1-.38-1.24 3.3 3.3 0 0 0 0-1.36 2.7 2.7 0 0 1-.16-.48.54.54 0 0 1 .52-.58.51.51 0 0 1 .48.6 1.5 1.5 0 0 1-.33.49.48.48 0 0 0-.1.55.4.4 0 0 1 .17.69c-.07.05-.16.08-.23.13a.5.5 0 0 0 0 .64c.12.19.32.33.46.51a.8.8 0 0 0 .26.26.6.6 0 0 0 .19 0h.52a.4.4 0 0 0 .19 0 .7.7 0 0 0 .26-.18 3.2 3.2 0 0 1 1-.56.9.9 0 0 1 .38-.11c.3 0 .48.34.69.56a3 3 0 0 0 1.14.7 3.6 3.6 0 0 0 .1-2.22 5.7 5.7 0 0 0-1.08-1.39 1.74 1.74 0 0 1-.49-1.58l.29-.15a1.67 1.67 0 0 1 .9 1c.11.33.11.69.19 1a2.73 2.73 0 0 0 .74 1.35v-1.21a.42.42 0 0 1 .09-.33.4.4 0 0 1 .31-.06 4.7 4.7 0 0 1 1 .23.8.8 0 0 1 .26.15.64.64 0 0 1 .11.36c.06.49.07 1.09-.35 1.36s-.75.14-1 .43-.12.5-.3.66-.26.11-.33.23 0 .42 0 .62-.15.26-.1.39.1.13.16.18c.29.26.23.72.14 1.1l-.21.92a2.64 2.64 0 0 0-.49-1.78 1.93 1.93 0 0 1-1-.17.72.72 0 0 0-1 1 2.2 2.2 0 0 1 .2.83c0 .34-.25.72-.07 1l.42.18c.22.1.48.35.32.53s-.53.09-.5.3a.2.2 0 0 0 .08.14c.31.33.67.76.51 1.19a.85.85 0 0 1 .69.2 4.3 4.3 0 0 1 1.32 1.4c.1.18.19.36.29.53.23 0 .3-.32.27-.55l-.12-1.07a4.6 4.6 0 0 0-.14-.81c-.11-.36-.31-.7-.44-1.06a1.4 1.4 0 0 1 0-1.12 1.88 1.88 0 0 1 .85 1.3c0 .19 0 .38.06.57.09.59.48 1.1.55 1.69a1.34 1.34 0 0 0 .12.6.8.8 0 0 0 .26.26l1.14.89c.1.08.17.24.28.19l-.45-1.52.94.8a.84.84 0 0 1 .14-.71.54.54 0 0 1 .65-.18.41.41 0 0 1 .13.62 1.51 1.51 0 0 1 1.76-.17 1.1 1.1 0 0 0 .43.22c.3 0 .6-.25.87-.11s.32.64.63.61.31-.25.49-.19l.06.44c.48-.05 1.08-.21 1.16-.68a1 1 0 0 1 0-.26.67.67 0 0 1 .25-.28 2.14 2.14 0 0 0 .8-1.16 1.07 1.07 0 0 0-.56-1.21c-.12-.1 0-.29.12-.39s.27-.24.2-.38-.14-.12-.2-.2.07-.53-.08-.73-.19-.11-.29-.17a.62.62 0 0 1-.08-.89 1.77 1.77 0 0 1 .85-.52l.92-.34c.24-.09.52-.24.53-.49s-.13-.42 0-.53.21 0 .31-.05.28-.4.26-.65v-.55a.7.7 0 0 1 0-.24c.06-.15.21-.23.33-.32s.23-.28.14-.41l-1.25.06a1 1 0 0 1-.54-.08.34.34 0 0 1-.13-.48l-.3-.1v-.71a.5.5 0 0 1 0-.2.5.5 0 0 1 .16-.14l.59-.39a.51.51 0 0 0 .28.54c.18 0 .21-.27.13-.43s-.23-.34-.16-.5.08-.11.11-.17c.16-.29-.29-.62-.2-.94l-1-.27a3 3 0 0 0-.26-.36 13.5 13.5 0 0 1-3 .33h-.25a3.5 3.5 0 0 0 .05.79c.17-.13.33-.27.49-.41a4.3 4.3 0 0 0 .16 1.52.48.48 0 0 1 0 .39c-.07.1-.22.14-.3.23-.25.28.24.75.06 1.08-.37 0-.69-.52-1-.35-.08 0-.13.12-.22.15s-.34-.18-.33-.38.13-.38.15-.57a2.9 2.9 0 0 0-.18-.85 5.5 5.5 0 0 0-.13-.81c-.1-.26-.4-.47-.64-.33a1.1 1.1 0 0 0-.24-.67 13.74 13.74 0 0 1-5.89-2.58l-.08.06a1.3 1.3 0 0 0-.21.94c0 .34-.1.74-.42.83-.27-.21-.22-.69-.5-.9-.13-.1-.31-.11-.45-.2a.93.93 0 0 1-.27-.71 1.41 1.41 0 0 1 .27-1.21.8.8 0 0 1 .18-.13c-2.45-2.5 9.77-1.08 9.77-4.87 0-2.62-.61-3.93-1.1-4.51a11 11 0 0 0 3.52.42c4.61 0 6.25-12.31 8.74-8.79a1.09 1.09 0 0 1 1-.31c1.1.24 1.19 1.92 2.15 2.52h1.28a1.16 1.16 0 0 0 1.13.56 1.44 1.44 0 0 0 1.28-1.14 1.2 1.2 0 0 0-1-1.35 2.7 2.7 0 0 1-.57 0c-.18-.06-.35-.25-.28-.43.32-.44 1-.28 1.43.06s.76.82 1.27 1c.28-.75 1.44-.95 1.56-1.73a2.4 2.4 0 0 1 .06-.61c.17-.4.82-.46.92-.89a1.5 1.5 0 0 0-.05-.55 1 1 0 0 1 .51-.98" style="fill:#e0e0e0"/><path d="M336.38 221.93a2.3 2.3 0 0 0-.56-.29 14.4 14.4 0 0 1 .92 2.58 1.6 1.6 0 0 0 .32-.27 2.56 2.56 0 0 0-.68-2.02M312.6 223.64h.16c.09 0 .18 0 .26.11s.19.12.27.06a.21.21 0 0 0 0-.26.7.7 0 0 1-.09-.27.6.6 0 0 1 0-.13.41.41 0 0 0-.2-.4.4.4 0 0 0-.44 0 .47.47 0 0 1 .13.25.19.19 0 0 1-.14.21c-.07 0-.13-.05-.2-.06a.22.22 0 0 0-.25.12 1.1 1.1 0 0 0 .5.37M337 207.18a1.57 1.57 0 0 0 2.07.56.3.3 0 0 0 .11-.08c.14-.16 0-.41-.13-.57a2.19 2.19 0 0 0-2.05.09" style="fill:#e0e0e0"/><path d="m333.16 204.48 1 .13c.18 0 .42.16.32.31-.24 0-.45.26-.39.51a.9.9 0 0 0 .52.52c1.5.7 3.32-.48 4.9 0 .84.28 1.47 1 2.3 1.3.34.12.79.26.81.63v.28a.64.64 0 0 0 .57.54 4 4 0 0 0 .85 0 2.42 2.42 0 0 1 1.65.54c.13.11-.09.27-.21.39-.27.27 0 .77.41.84a2 2 0 0 0 1.09-.26 3 3 0 0 1 2.06-.05 2.06 2.06 0 0 1 1.32 1.54.42.42 0 0 1-.06.31.36.36 0 0 1-.25.08 2.18 2.18 0 0 1-2.09-1.28.45.45 0 0 0-.17-.25.3.3 0 0 0-.15 0c-.52 0-.78.72-.53 1.18a2.27 2.27 0 0 0 1.27.85 10.3 10.3 0 0 0 1.77.53 9.4 9.4 0 0 0 2.25 0 23.3 23.3 0 0 0 4.08-.57l-.62-.85a4 4 0 0 0-1.17-1.23c-.95-.55-2.25-.3-3.1-1a4.3 4.3 0 0 0-.73-.62 1.7 1.7 0 0 0-.67-.13 23 23 0 0 0-3.34 0 2.1 2.1 0 0 1-1.12-.11c-.58-.29-.74-1-1.13-1.56a3.9 3.9 0 0 0-1.28-1l-.81-.43a2.1 2.1 0 0 0-.53-.24c-.38-.11-.79 0-1.18-.11a3.3 3.3 0 0 1-1-.45l-1.86-1.1a1.5 1.5 0 0 0-.64-.26c-.48-.05-1 .36-1.43.22a2 2 0 0 1-.46-.26 2.19 2.19 0 0 0-2.65.32.46.46 0 0 0-.16.34c.02.28.32.37.56.4M367.71 252.67a2.8 2.8 0 0 0-.47-.87 4.7 4.7 0 0 0-.7-.55 4.38 4.38 0 0 1-1.66-2.34 1.25 1.25 0 0 0 .54-.9 7.5 7.5 0 0 0 0-3c-.28-1.12-.94-2-2.23-1.62a1.2 1.2 0 0 1-.45.07c-.59 0-1.06-.91-1.57-.61-.45-.21 0-1-.31-1.39-.12-.18-.39-.3-.38-.53s.11-.22.15-.34a.58.58 0 0 0-.49-.72 1.23 1.23 0 0 0-.92.31 5.2 5.2 0 0 1-.8.6 2.68 2.68 0 0 1 .66 2.36 2.42 2.42 0 0 1-1.64-.3 1 1 0 0 0-.33-.21.54.54 0 0 0-.33 0 4 4 0 0 0-1.53 1.26 2 2 0 0 0-.1.13 3.27 3.27 0 0 0-1.28-1.45c-.42.06-.62.6-.55 1s.3.82.34 1.25c-.18.49-1.06.08-1.41.47a.66.66 0 0 0 0 .75c.14.23.35.41.48.65l-1 1.62c-.06-.23-.17-.49-.4-.54s-.52.32-.58.64-.16.7-.48.76c.13.4.79.17 1.11.43s.19.59.21.91.34.69.59.5a.55.55 0 0 0 .16-.39 6.13 6.13 0 0 1 1.28-2.94 1.44 1.44 0 0 0 .41-.8c0-.26-.16-.52-.07-.77s.6-.3.94-.44a1.5 1.5 0 0 1-.27.39c-.19.19-.43.35-.51.61s.05.66-.11.93a1.6 1.6 0 0 1-.34.34 2.17 2.17 0 0 0-.5 1.29 5.6 5.6 0 0 0 .1 2.91 8.2 8.2 0 0 1 .64 1.43c-.27.21-.66 0-.9-.25s-.55-.53-.88-.44-.47.37-.72.26a1.63 1.63 0 0 0-.82-1.81.41.41 0 0 1-.24-.42c-.37 0-.54.46-.62.82s-.28.83-.65.77a2 2 0 0 0-.36-.1c-.28 0-.36.41-.6.55s-.46 0-.66.12-.23.26-.37.37c-.33.26-.81 0-1.16-.24s-.84-.48-1.16-.19-.2.65-.4.93-.84.43-.89.85a.67.67 0 0 0-.94.07 2.4 2.4 0 0 0 .43 1.35 2.4 2.4 0 0 1-.93.64 6.4 6.4 0 0 0 .56 1.11c-.34.22-.23.82-.56 1.06s-.46.1-.69.15-.46.33-.31.51c0 .33-.61.53-.81.27s-.28-.62-.53-.84-.94-.19-1.38-.38a3 3 0 0 0-.41-.19c-.47-.12-.89.38-.94.86a6 6 0 0 0 .23 1.43 1.27 1.27 0 0 1-.4 1.3c-.2.13-.47.17-.62.35-.32.37.09.91.17 1.39a2.1 2.1 0 0 1-.14 1c-.17.53-.49 1.17-1 1.14s-.71-.49-.85-.91a1.9 1.9 0 0 0-.66-1.11c-.69-.39-1.57.39-2.33.14l.19.51c-.35.08-.44.54-.37.9a1.9 1.9 0 0 1 .09 1.05c-.16.41-.64.55-1.05.65a3.1 3.1 0 0 1 .07 1.42c.16.16-.19.58-.42.62a2.6 2.6 0 0 1-.67-.07 1 1 0 0 0-1 .78l1.4.4a1 1 0 0 0 .5.05 1 1 0 0 0 .44-.28 3.27 3.27 0 0 1 3.9-.5c.23.16.47.39.76.36a1 1 0 0 0 .48-.26c.48-.38 1-.87 1-1.49a2 2 0 0 1 0-.49c.09-.36.53-.47.79-.72.64-.59.19-1.64-.29-2.36l1.79-1.11a1 1 0 0 1 .5-.2 1.7 1.7 0 0 1 .53.19c1 .45 2.16-.31 2.95-1.11a2.35 2.35 0 0 0 2.78.67.9.9 0 0 1 .09 1.22 2.65 2.65 0 0 1-1.11.74 2.76 2.76 0 0 1 .59 1.2 1 1 0 0 1-.62 1.07c.09.16.17.32.26.47a1.85 1.85 0 0 1 1.07.07.82.82 0 0 1 .51.87 2.73 2.73 0 0 1-2-.09c-.66-.18-1.5-.21-1.88.37a3.1 3.1 0 0 1-1.22 1.43 1.07 1.07 0 0 0-.16-1.28c-.48-.28-1 .21-1.36.66s-.77 1-1.3.84c-.19-.06-.35-.2-.55-.19a.76.76 0 0 0-.49.34 1.84 1.84 0 0 0-.56 1.3c.06.48.75.83 1 .44-.14-.48-.2-1.12.23-1.36s1 .37.9.88a1.5 1.5 0 0 1-1.14 1 11 11 0 0 0-1.52.4c-.2.1-.38.39-.19.5a.87.87 0 0 0 .63.09 1.06 1.06 0 0 1-.33 1.17 1 1 0 0 1-1.22 0c-.74-.54-.46-1.79-1-2.53a1.31 1.31 0 0 0-1-.53 2.13 2.13 0 0 0-1.8 1.34 1.2 1.2 0 0 1-.3.44c-.3.24-.74.1-1.12 0s-.91 0-1 .34a7.7 7.7 0 0 0 3 2.22.55.55 0 0 1 .3.21.8.8 0 0 1 0 .41 1.42 1.42 0 0 0 .53 1 1.93 1.93 0 0 0 .9.63.67.67 0 0 0 .83-.53c0-.69-1.3-.81-1.27-1.5a1.7 1.7 0 0 1 1.55 0 2.11 2.11 0 0 0 3.09.66c.41-.33.71-.84 1.22-1 .8-.23 1.51.55 2.27.9a4.68 4.68 0 0 0 3.13-.08l2.63-.68-1.48-.19a7.4 7.4 0 0 0 2.27-1.09.92.92 0 0 0-.8-.81c1.12-.23 1.43-1.76 2.4-2.35a7 7 0 0 0 1-.52 1.81 1.81 0 0 0 .48-1.44 4.52 4.52 0 0 0-1.52-3.22 4.4 4.4 0 0 0 2.27.34c0 .48.33 1.14.72.88a.66.66 0 0 0 .21-.34l.66-1.77a3.1 3.1 0 0 1 .68-1.2c.56-.53 1.48-.6 1.94-1.23-.07.28.29.5.56.42a1.12 1.12 0 0 0 .57-.6c.33-.63.45-1.61-.2-1.86s-1.52.3-1.75-.29a.8.8 0 0 1 0-.49 5.74 5.74 0 0 1 3.17-3.82c.52-.23 1.18-.52 1.19-1.1a.7.7 0 0 1 .54.84 1.6 1.6 0 0 0 1.16-.31c-.28-.2-.2-.65 0-.9s.57-.38.82-.61c.71-.64.81-2 1.75-2.17.72.28.63 1.34.33 2.05s-.66 1.62-.13 2.19a1.85 1.85 0 0 1 1.18-1 2.08 2.08 0 0 0-.2 2.21 3.8 3.8 0 0 1 1.79-1.89c0-.22-.09-.45-.13-.68.62.15 1.23-.45 1.33-1.1a3.56 3.56 0 0 0-.43-1.86M310.88 266.37c-.31-.22-.67-.43-.77-.81-.05-.17 0-.39-.17-.51a1 1 0 0 0-.65-.12 3.65 3.65 0 0 1-1.85-.44 2 2 0 0 0-.51-.25 1.5 1.5 0 0 0-.6 0 3.75 3.75 0 0 0-2.58 2.13 1.93 1.93 0 0 1-.44.88 1.5 1.5 0 0 0-.35.32.38.38 0 0 0 0 .34A1.7 1.7 0 0 0 304 269c.19.08.42.14.47.33s0 .34 0 .5c0 .42.54.5.85.74s.4.91.75 1.26a2.2 2.2 0 0 0 1.15.43l1.16.21a3.22 3.22 0 0 0 2.79-.49 2.17 2.17 0 0 0 .79-1.51 2.9 2.9 0 0 0-.31-1.31.86.86 0 0 0 .54-1.28 4 4 0 0 0-1.31-1.51M349.89 276.39a1.59 1.59 0 0 0 1.56-.43.5.5 0 0 0 .15-.26.19.19 0 0 0-.16-.22c-.48.37-1.3.16-1.65.65a.2.2 0 0 0 0 .16.22.22 0 0 0 .1.1M347.22 277.3a.8.8 0 0 0-.25.09c-.33.14-.71.13-1.05.25a3 3 0 0 0-.6.35l-1.06.77 2.33-.5a2.5 2.5 0 0 0 .59-.17c.31-.14.56-.39.86-.56l-.59-.19a.6.6 0 0 0-.23-.04M355.61 213.54a.57.57 0 0 0-.48-.36 1.5 1.5 0 0 0-.63.09 7.5 7.5 0 0 0-1.74.81 1.4 1.4 0 0 0-.38.3 1.76 1.76 0 0 0-.23 1.24h1.3a2 2 0 0 1 .36 0 2.7 2.7 0 0 1 .67.25 2 2 0 0 0 .89.15.49.49 0 0 0 0-.57 1.5 1.5 0 0 1-.23-.55c-.02-.5.62-.9.47-1.36M353.94 220.39a9 9 0 0 1 .91.14 1.42 1.42 0 0 0 .89-.12.68.68 0 0 0 .33-.79 1.07 1.07 0 0 0-.54-.46l-.56-.29a.6.6 0 0 1-.31-.26c-.11-.21 0-.46.2-.64a.76.76 0 0 0 .27-.64.7.7 0 0 0-.24-.3 4.1 4.1 0 0 0-1-.63 1.2 1.2 0 0 0-.45-.12 1.5 1.5 0 0 0-.6.14l-.92.35c-.19.08-.4.17-.47.36s.12.45.3.35c.15.38-.28.74-.38 1.14a1.55 1.55 0 0 0 .13.87 1.07 1.07 0 0 0 1 1c.5.05.97-.11 1.44-.1M360.28 214.68a.7.7 0 0 0 .33.17.25.25 0 0 0 .29-.17.43.43 0 0 0-.09-.26l-.36-.57a1.9 1.9 0 0 0-.37-.46.55.55 0 0 0-.56-.09.92.92 0 0 0 .15.8 2.8 2.8 0 0 0 .61.58M362.74 217.9a3 3 0 0 1 .54.37 2 2 0 0 1 .22.37 2.5 2.5 0 0 0 .86.94 2 2 0 0 0-.05-.77.55.55 0 0 0-.12-.27 1 1 0 0 0-.3-.2 1.56 1.56 0 0 1-.58-.56 3 3 0 0 0-.18-.32c-.2-.27-.55-.39-.77-.64s-.18-.24-.29-.35a.36.36 0 0 0-.41-.08l.48.78a2.4 2.4 0 0 0 .6.73" style="fill:#e0e0e0"/><path d="M360.42 263.12a.37.37 0 0 0-.33-.08c-.11 0-.18.2-.09.28a1.9 1.9 0 0 1-.57.1c-.19 0-.4.15-.41.34a1.3 1.3 0 0 1 0 .2c0 .12-.21.17-.23.3a.19.19 0 0 0 .19.2.5.5 0 0 0 .28-.1 1.6 1.6 0 0 1 .56-.31c.21 0 .47.11.45.33a.68.68 0 0 0 .57-.51.94.94 0 0 0-.42-.75M356.23 231.45a2.6 2.6 0 0 0 .14 1l.24.88c.07.28.18.59.45.69a3.4 3.4 0 0 0 .46 0c.33.08.56.43.89.46s.67-.4.71-.79-.07-.79 0-1.18a1.12 1.12 0 0 1 .9-1 1.4 1.4 0 0 0 .49-.07c.2-.1.27-.36.32-.59a2 2 0 0 0 0-1.12c-.13-.33-.43-.59-.51-.94a.59.59 0 0 0-.7.38 1.8 1.8 0 0 0-.05.89c0-.18-.67.32-.71.36a1.53 1.53 0 0 1-1.38.33c-.57-.03-1.13-.18-1.25.7M352.33 243.36a1 1 0 0 0 .29-.58 2.4 2.4 0 0 0-.07-1.38 1.81 1.81 0 0 0-2-1.08c-.22.05-.46.13-.64 0s-.22-.32-.37-.45-.65-.08-.91.13a2.5 2.5 0 0 1-.81.58.68.68 0 0 0-.75-.37.69.69 0 0 0-.5.67c0 .39.35.68.52 1a1.54 1.54 0 0 1-.1 1.4 3 3 0 0 1-1 1 1.2 1.2 0 0 0-.29.26.9.9 0 0 0 0 .7c.15.58.33 1.15.53 1.71.31-.19.68.15.84.48s.32.73.68.8.79-.29 1.09-.06c.09.08.15.2.26.25a.4.4 0 0 0 .3 0 1.45 1.45 0 0 0 .5-2.18 2.7 2.7 0 0 1 1.1-1.13.86.86 0 0 0 .34-.25c.23-.31-.06-.82.17-1.14s.57-.17.82-.36M353.74 228.58c-.32-2.14-2-4.73-4.7-5.18a4.46 4.46 0 0 0-5 2.12 5.32 5.32 0 0 0 .45 5.62 6.24 6.24 0 0 0 5.16 2.4 4 4 0 0 0 4.13-5Z" style="fill:#e0e0e0"/><path d="M175.42 55.63h7.99v.82h-7.99z" style="fill:#e0e0e0" transform="rotate(-24.96 179.378 56.053)"/><path d="M182.8 56a1.82 1.82 0 0 1-1-2.35 1.81 1.81 0 1 1 1 2.35M165.12 75.62l-4.51-10.28a.44.44 0 0 0-.8.36l4.5 10.3a.44.44 0 0 0 .81-.36ZM167.33 74.64l-4.5-10.27a.44.44 0 0 0-.81.36l4.5 10.27a.45.45 0 0 0 .81-.37Z" style="fill:#e0e0e0"/><path d="m166.99 92.2 11.04-4.84-7.2-16.43-10.76 4.71-.28.14z" style="fill:#e0e0e0"/><path d="M163.75 73.49h10.33v16.18h-10.33z" style="fill:#fff" transform="rotate(-23.63 168.922 81.59)"/><path d="M169.79 78.74h.76v11.27h-.76z" style="fill:#e0e0e0" transform="rotate(-114.17 170.165 84.375)"/><path d="M168.54 73.11h.76v16.93h-.76z" style="fill:#e0e0e0" transform="rotate(155.84 168.92 81.576)"/><path d="M167.45 73.51h.76v11.27h-.76z" style="fill:#e0e0e0" transform="rotate(-114.16 167.822 79.152)"/><path d="m156 51.42 4.5 10.28a.44.44 0 0 0 .81-.36l-4.5-10.28a.44.44 0 0 0-.81.36M153.76 52.39l4.5 10.28a.44.44 0 0 0 .81-.36L154.57 52a.44.44 0 0 0-.81.36Z" style="fill:#e0e0e0"/><path d="m174.39 46.26-4.25 8.59 3.87 9.29 9.19 2.47z" style="fill:#ebebeb"/><path d="m170.14 54.85-1.39.61-3.01-1.17-15.23 6.67-.96 2.46-1.1.48 4.36 9.93 1.26-.55 2.39.93 15.2-6.81 1.1-2.77 1.24-.52z" style="fill:#ebebeb"/><path d="m154.11 34.84-11.05 4.83 7.21 16.44 10.76-4.71.27-.14z" style="fill:#e0e0e0"/><path d="M147.02 37.37h10.33v16.18h-10.33z" style="fill:#fff" transform="rotate(-23.63 152.181 45.456)"/><path d="M150.55 37.03h.76V48.3h-.76z" style="fill:#e0e0e0" transform="rotate(65.85 150.924 42.657)"/><path d="M151.8 37h.76v16.93h-.76z" style="fill:#e0e0e0" transform="rotate(-24.16 152.161 45.466)"/><path d="M152.89 42.25h.76v11.27h-.76z" style="fill:#e0e0e0" transform="rotate(65.83 153.27 47.894)"/><path d="M171.46 67.46c-.09 0-1.48-2.87-3.11-6.5a70 70 0 0 1-2.78-6.64 71 71 0 0 1 3.12 6.49 69 69 0 0 1 2.77 6.65" style="fill:#e0e0e0"/><path d="M165.74 54.29a8 8 0 0 1-1.08.56l-3 1.4a770 770 0 0 1-10 4.5l-1 .44.09-.24c1.65 3.67 3.1 7 4.13 9.35.49 1.15.9 2.1 1.2 2.82a7 7 0 0 1 .4 1 6.4 6.4 0 0 1-.52-1c-.33-.71-.77-1.64-1.31-2.77-1.09-2.35-2.58-5.63-4.23-9.3l-.08-.17.17-.08 1-.43c3.9-1.74 7.45-3.3 10-4.41l3-1.29a8.4 8.4 0 0 1 1.23-.38M154 73.33a41 41 0 0 1-2.39-4.88 42 42 0 0 1-2-5 41 41 0 0 1 2.39 4.87 41 41 0 0 1 2 5.01M172.76 64.63a35 35 0 0 1-2.24-4.53 36 36 0 0 1-1.9-4.69 33.5 33.5 0 0 1 2.24 4.53 36 36 0 0 1 1.9 4.69M174.12 64.17a36 36 0 0 1-2.23-4.53A32.5 32.5 0 0 1 170 55a36 36 0 0 1 2.23 4.53 33 33 0 0 1 1.89 4.64M165.7 81.31a27 27 0 0 1 4.3 1.46 27 27 0 0 1 4.15 1.82 28.4 28.4 0 0 1-4.29-1.47 29 29 0 0 1-4.16-1.81M164.89 78.68a8.6 8.6 0 0 1 2.42.68 8.3 8.3 0 0 1 2.3 1 17.1 17.1 0 0 1-4.72-1.71ZM147.38 43.89a44 44 0 0 1 5.09 2.54 44 44 0 0 1 4.91 2.86 44 44 0 0 1-5.09-2.54 46 46 0 0 1-4.91-2.86M146.76 41.89a18.5 18.5 0 0 1 2.68 1.27 19.4 19.4 0 0 1 2.64 1.35 9 9 0 0 1-2.8-1 9 9 0 0 1-2.52-1.62" style="fill:#e0e0e0"/><path d="M121 311.51a13.53 13.53 0 0 0-17.27-16.78 14.52 14.52 0 0 0-22.56-12.35 10.1 10.1 0 1 0-17.84 9.49 9.43 9.43 0 0 0-9.46 15.26c-7.67-3.37-17.75 3.42-17.5 11.8l93.13-.27c-.67-1.25-2.97-6.93-8.5-7.15" style="fill:#f5f5f5"/><path d="M230.64 130.86a10.22 10.22 0 0 0-13-12.67 11 11 0 0 0-17-9.33 7.63 7.63 0 1 0-13.55 7.14 7.13 7.13 0 0 0-7.15 11.53c-5.79-2.56-13.4 2.58-13.21 8.9l70.33-.2c-.5-.91-2.24-5.23-6.42-5.37" style="fill:#ebebeb"/><path d="M443.81 231.49a6.59 6.59 0 0 0-8.41-8.17 7.07 7.07 0 0 0-11-6 4.92 4.92 0 1 0-8.69 4.62 4.6 4.6 0 0 0-4.61 7.44c-3.74-1.65-8.65 1.66-8.52 5.74L448 235c-.38-.64-1.49-3.41-4.19-3.51M280.09 33.71a5.39 5.39 0 0 0-6.88-6.71 5.78 5.78 0 0 0-9-4.92 4 4 0 1 0-7.1 3.78 3.76 3.76 0 0 0-3.75 6.14c-3.05-1.35-7.06 1.36-7 4.69l37.07-.11c-.22-.52-1.14-2.78-3.34-2.87" style="fill:#f5f5f5"/><path d="M466.26 79.69a6.51 6.51 0 0 0-8.26-8.07 7 7 0 0 0-10.85-5.94 4.86 4.86 0 1 0-8.58 4.56 4.55 4.55 0 0 0-4.57 7.35c-3.69-1.63-8.54 1.64-8.41 5.67l44.8-.13c-.39-.6-1.46-3.33-4.13-3.44M381.67 378.66l-27.88-28.15h56.4l40.65 28.15zM115.24 180.17a2.11 2.11 0 1 1-2.11-2.11 2.11 2.11 0 0 1 2.11 2.11M42.89 56.09A2.11 2.11 0 1 1 40.78 54a2.12 2.12 0 0 1 2.11 2.09M307.63 30.44a2.11 2.11 0 1 1-2.11-2.11 2.12 2.12 0 0 1 2.11 2.11M131.6 227.78a2.11 2.11 0 1 1-2.11-2.11 2.1 2.1 0 0 1 2.11 2.11M350.21 315.71a2.11 2.11 0 1 1-2.11-2.1 2.1 2.1 0 0 1 2.11 2.1M50.2 278.58a2.11 2.11 0 1 1-2.11-2.11 2.11 2.11 0 0 1 2.11 2.11M388.2 194.63a2.11 2.11 0 1 1-2.11-2.1 2.11 2.11 0 0 1 2.11 2.1M243.41 156.41a2.11 2.11 0 1 1-2.11-2.11 2.11 2.11 0 0 1 2.11 2.11M448.15 258.64a2.11 2.11 0 1 1-2.11-2.11 2.11 2.11 0 0 1 2.11 2.11M452.94 196.3a2.11 2.11 0 1 1-2.1-2.11 2.11 2.11 0 0 1 2.1 2.11M421.73 37.17a2.11 2.11 0 1 1-2.11-2.11 2.1 2.1 0 0 1 2.11 2.11M127.85 169.36a1.33 1.33 0 1 1-1.33-1.33 1.34 1.34 0 0 1 1.33 1.33M209.2 84.69a1.33 1.33 0 1 1-1.33-1.32 1.33 1.33 0 0 1 1.33 1.32" style="fill:#ebebeb"/><circle cx="49.59" cy="38.4" r="1.33" style="fill:#ebebeb"/><path d="M375.13 185.41a1.33 1.33 0 1 1-1.33-1.33 1.33 1.33 0 0 1 1.33 1.33M163.64 289.48a1.33 1.33 0 1 1-1.33-1.33 1.34 1.34 0 0 1 1.33 1.33" style="fill:#ebebeb"/><path d="M170.45 351.28c.09.11-33.06 30-74 66.79S22.1 484.59 22 484.48s33.06-30 74.06-66.8 74.29-66.51 74.39-66.4M110.84 351.28c.07.12-21.84 14.41-48.95 31.92s-49.15 31.6-49.23 31.48 21.83-14.41 49-31.92 49.1-31.6 49.18-31.48M223.33 356.06c.12.09-19.9 28.74-44.71 64s-45 63.77-45.13 63.69 19.89-28.73 44.71-64 45.01-63.75 45.13-63.69M353.42 350.51c.11-.1 29.78 29.81 66.28 66.8s66 67.07 65.91 67.17-29.77-29.8-66.28-66.8-66.01-67.07-65.91-67.17M410.19 350.51c.09-.12 18.14 12.39 40.33 27.93s40.11 28.25 40 28.37-18.13-12.39-40.32-27.94-40.09-28.24-40.01-28.36M299 350.51c.12-.08 19.19 29.85 42.58 66.84s42.27 67.06 42.15 67.13-19.19-29.85-42.59-66.85-42.27-67.05-42.14-67.12M255.3 353c.15 0 .36 29.44.47 65.74s.09 65.75-.05 65.75-.36-29.43-.47-65.75-.09-65.74.05-65.74" style="fill:#263238"/><path d="M488.28 379c0 .15-105.89.26-236.47.26s-236.49-.11-236.49-.26 105.86-.26 236.49-.26 236.47.12 236.47.26M485.61 350.51c0 .14-105.88.26-236.46.26s-236.49-.12-236.49-.26 105.86-.26 236.49-.26 236.46.11 236.46.26M485.61 411.25c0 .15-105.35.26-235.28.26S15 411.4 15 411.25s105.35-.25 235.33-.25 235.28.11 235.28.25M488.57 444.81c0 .14-106 .26-236.76.26S15 445 15 444.81s106-.26 236.79-.26 236.78.11 236.78.26M490.54 484.48c0 .15-107.45.26-240 .26s-240-.11-240-.26 107.43-.26 240-.26 240 .12 240 .26" style="fill:#263238"/><circle cx="98.38" cy="297.39" r="1.33" style="fill:#ff725e"/><path d="M140.46 258.64a2.37 2.37 0 1 1-2.37-2.37 2.37 2.37 0 0 1 2.37 2.37M242.41 190.81a2.37 2.37 0 1 1-2.37-2.37 2.37 2.37 0 0 1 2.37 2.37M322.8 223.12a2.37 2.37 0 1 1-2.37-2.37 2.37 2.37 0 0 1 2.37 2.37" style="fill:#ff725e"/><path d="M239.84 191.42s0 .3-.13.87-.26 1.45-.45 2.55c-.42 2.24-1 5.51-1.78 9.66-1.56 8.36-3.79 20.29-6.48 34.68v.12l-45.85 40.61-2.79 2.46-.14.12-.16-.09-44.07-24.51h.26l-28.65 28.4-8.07 7.94-2.13 2.09-.56.52a1 1 0 0 1-.19.17 1 1 0 0 1 .17-.19l.53-.55c.48-.5 1.18-1.21 2.09-2.13l8-8 28.53-28.54.12-.12.15.08L182.25 282h-.3l2.78-2.46L230.64 239l-.07.12c2.77-14.38 5.06-26.29 6.67-34.64.81-4.15 1.45-7.41 1.89-9.65l.51-2.53c.12-.59.2-.88.2-.88" style="fill:#ff725e"/><path d="M318.25 224.55a5 5 0 0 1-.55.47l-1.64 1.32-6.16 4.81-21.11 16.31-.09.07h-.1l-10.44-1.46-33.52-4.78-10.14-1.51-2.76-.43-.71-.13c-.16 0-.25 0-.24-.06a.6.6 0 0 1 .24 0l.73.07 2.76.34 10.18 1.35 33.53 4.63 10.44 1.45-.19.05 21.22-16.17 6.3-4.68 1.7-1.25a3 3 0 0 1 .55-.4" style="fill:#ff725e"/><circle cx="412.5" cy="300.81" r="31.32" style="fill:#ff725e" transform="rotate(-12.77 412.465 300.773)"/><g style="opacity:.13"><path d="M433.78 277.82c-.16-.15-.32-.3-.49-.44l-.07-.07-.52-.45-.55-.45-.7-.55c-.58-.44-1.17-.86-1.77-1.25a81.6 81.6 0 0 0-10.21 11.89c-5.85 8.61-5.22 16.54-12.71 25.69S392.08 319 392.38 315s9.07-16.13 19.4-27.23c7-7.58 12.21-12.57 14.8-15-.87-.44-1.75-.83-2.65-1.18l-.67-.25-.44-.16h-.11c-.33-.12-.67-.23-1-.33l-.43-.13-.45-.13a151.3 151.3 0 0 1-19.2 25.1c-8.27 8.75-14.24 14.57-17.79 17.9.28.65.6 1.3.94 1.92.17.35.36.68.55 1l.21.35.13.23c.26.43.53.85.82 1.27.1.15.2.31.32.47l.57.79.23.29c.17.24.36.47.55.7s.38.47.59.7.28.33.44.5c.35.39.72.77 1.09 1.14l.19.2.39.38.7.64.38.32.29.26c.33.28.66.55 1 .81s.59.45.88.66a31.3 31.3 0 0 0 6.18 3.49c4.73-6.52 17.05-23.41 23.2-31a121 121 0 0 1 15.24-15c-.51-.78-1.06-1.55-1.65-2.3l-.21-.25a2.4 2.4 0 0 0-.2-.25l-.4-.48-.37-.42-.25-.28-.57-.61-.48-.49-.58-.57Zm-46.11 34a1.51 1.51 0 1 1 .06 2.14 1.51 1.51 0 0 1-.06-2.14m12.49 12.51a2 2 0 1 1-.07-2.79 2 2 0 0 1 .07 2.79m20.9-30.33a1.52 1.52 0 1 1-.06-2.14 1.52 1.52 0 0 1 .06 2.14m4.84.24a.76.76 0 0 1-1.1-1 .76.76 0 0 1 1.07 0 .75.75 0 0 1 .03 1" style="fill:#fff"/></g><g style="opacity:.25"><path d="M424.48 311.36a209 209 0 0 1-21.39 19.39l.2.06.29.08h.09l.32.09.73.2c.81.2 1.63.38 2.45.52h.13c.77.13 1.53.22 2.3.29h.42a33 33 0 0 0 4.2.05 31 31 0 0 0 4.31-.54c.22 0 .44-.08.65-.12h.06c.45-.1.9-.21 1.34-.34l.42-.04h.13l.26-.08c.31-.08.62-.18.93-.28.58-.19 1.16-.4 1.73-.63 4.32-5.17 8.26-9.63 9.68-10.58 1.65-1.09-.36 2.58-3.12 7a31 31 0 0 0 4.65-4 31.2 31.2 0 0 0 5-7c.11-.22.23-.43.33-.65s.27-.55.4-.82.29-.65.43-1a30.6 30.6 0 0 0 1.71-5.38 31 31 0 0 0 .66-4.41v-.77c-1 1.32-2.46 3.19-4.57 5.85-6.36 8-18.8 19.43-19.41 18.27s4.86-9.79 13.77-18.63c4.18-4.14 7.63-7.47 10.14-9.85-.05-.55-.12-1.1-.19-1.65a31 31 0 0 0-.77-3.76c-.07-.3-.16-.6-.25-.9s-.25-.78-.38-1.18c-.23-.65-.48-1.31-.75-1.95v-.09a113.2 113.2 0 0 1-16.9 22.85m-9 15.47c-2 2.13-4.15 3.39-4.76 2.81s.55-2.77 2.57-4.89 4.15-3.39 4.75-2.81-.52 2.77-2.54 4.89Z" style="fill:#fff"/></g><g style="opacity:.13"><path d="M412.26 269.48A74.4 74.4 0 0 1 399 288c-6.74 6.89-13.4 12.78-17.62 16.36a31 31 0 0 1-.18-4.54 96 96 0 0 0 13.21-10.19c7.85-7.65 13.43-17.8 11.17-17.27s-6.64 7.74-14.16 14.9a119 119 0 0 1-9.79 8.27 31 31 0 0 1 1.43-5.39.14.14 0 0 1 0-.06.3.3 0 0 1 0-.1 96.3 96.3 0 0 0 11.81-11.25c2.72-3 4.8-5.35 6.39-7.17l1-.35c.54-.18 1.08-.36 1.63-.51h.11a29 29 0 0 1 3-.68l.46-.08h.26c.31-.05.63-.1.95-.13l.52-.06h.37c.81-.08 1.62-.13 2.43-.14h.35Z" style="fill:#fff"/></g><g style="opacity:.4"><path d="M433.74 277.78c-.15-.15-.32-.3-.48-.44l-.07-.07h-.05c-.17-.15-.34-.3-.52-.44s-.33-.28-.5-.42l-.75-.59c-.64-.48-1.29-.94-1.95-1.36l-.28-.18-.26-.16c-.24-.16-.48-.3-.72-.44a30.5 30.5 0 0 0-4.31-2.09q-.53-.21-1.05-.39c-.51-.18-1-.34-1.53-.49s-.82-.23-1.23-.34-1-.23-1.44-.32l-.57-.11-.42-.08h-.21l-.84-.13h-.89c-.54-.06-1.1-.11-1.64-.13h-2.19c-.81 0-1.62 0-2.43.14h-.37l-.52.06-.95.13h-.26l-.45.08a31 31 0 0 0-3.67.89l.71-.15h.05l.76-.15.46-.08h.26c.32-.05.64-.1 1-.13s.34 0 .51-.06h.37c.81-.08 1.62-.12 2.44-.14h2.32c.61 0 1.22.08 1.83.16h.5l.58.08.46.07.43.07.87.18 1.12.25c.49.12 1 .26 1.46.41s.87.27 1.31.42l1.06.4.54.21a31.4 31.4 0 0 1 4.5 2.31l.26.17.22.14c.44.28.87.57 1.29.88.24.16.48.34.71.52.43.32.84.65 1.26 1l.5.43.6.55.26.24.2.2.38.36q.69.69 1.32 1.41c.24.27.48.55.71.83l.13.17q.58.71 1.11 1.44l.31.43a31.3 31.3 0 0 1 3.87 7.6s0 0 0 .06c.14.39.26.78.39 1.17a32 32 0 0 1 1.23 6.63c.05.68.08 1.37.09 2.06a31 31 0 0 1-.24 4.29 32 32 0 0 1-1.48 6.36c-.21.64-.46 1.28-.73 1.91-.13.33-.28.65-.42 1-.23.49-.48 1-.73 1.47a30 30 0 0 1-1.82 3 31.2 31.2 0 0 1-11.12 10c-.62.33-1.25.64-1.89.92s-1 .46-1.55.66-1.05.38-1.57.56l-.71.22c.4-.1.79-.19 1.17-.3l.49-.14h.1l.16-.05.93-.29a31 31 0 0 0 3.13-1.21c.63-.29 1.26-.6 1.88-.93a31.5 31.5 0 0 0 12.94-13 5 5 0 0 0 .25-.48q.25-.48.48-1c.15-.32.29-.64.43-1a31 31 0 0 0 1.68-5.25 29.6 29.6 0 0 0 .68-4.47 31.5 31.5 0 0 0 0-4.86q-.07-1-.21-1.92a28.5 28.5 0 0 0-.76-3.76c-.08-.33-.17-.66-.27-1s-.25-.79-.38-1.18c-.22-.63-.46-1.26-.72-1.88a31 31 0 0 0-4.27-7.25l-.21-.26c-.07-.1-.16-.2-.24-.3l-.36-.43-.37-.42c-.08-.09-.16-.19-.25-.28l-.56-.61-.49-.49-.54-.67Z" style="fill:#fff"/></g><path d="M388.08 282.1a3 3 0 0 1-.33.52c-.23.32-.55.81-1 1.45a32.7 32.7 0 0 0-2.84 5.74 31 31 0 0 0-1.92 9.37 30.6 30.6 0 0 0 1.74 11.72l-.18-.14h.13l.05.14c.27.68.54 1.39.81 2.11s.67 1.4 1 2.11a28 28 0 0 0 4 5.73l.56.63.61.58 1.19 1.15 1.26 1 .61.5.65.45a32.7 32.7 0 0 0 9.95 4.79 34.5 34.5 0 0 0 7.37 1.22c.89.05 1.58 0 2 0a4.5 4.5 0 0 1 .72 0 6 6 0 0 1-.71.05c-.47 0-1.16.07-2.05.05a32.6 32.6 0 0 1-7.45-1.11 32.2 32.2 0 0 1-10.09-4.76l-.66-.45-.63-.51-1.27-1-1.22-1.16-.61-.59-.57-.64a27.8 27.8 0 0 1-4.09-5.81c-.35-.72-.73-1.42-1-2.14s-.55-1.45-.81-2.15l.18.15h-.14v-.13a30.65 30.65 0 0 1 .31-21.33 30.4 30.4 0 0 1 3-5.72c.43-.63.78-1.11 1-1.42s.38-.47.39-.47Z" style="fill:#fff"/><ellipse cx="347.95" cy="102.54" rx="72.31" ry="68.68" style="fill:#ff725e" transform="rotate(-3.56 348.215 102.618)"/><g style="opacity:.2"><path d="M322.59 44.49c4.36 5.07 9.24 8.14 15.22 11.2 1.37.7 2.45-1.18 1.68-2.19-3.36-4.37-6.44-8.64-10.21-12.73-1-1.11-2-2.36-3.09-3.6a74 74 0 0 0-7.41 2.69c1.22 1.66 2.59 3.21 3.81 4.63"/><path d="M318.69 56.78c9.73 11.12 22.25 19.83 35.92 26.1a123.7 123.7 0 0 0 44.58 10.83 105 105 0 0 0 20.43-.71 65 65 0 0 0-1.38-7 77 77 0 0 1-17.08 1.16 120.5 120.5 0 0 1-37.54-7.52 109.4 109.4 0 0 1-31.91-18c-6-4.94-13.88-11.84-17.73-19.55q-2.12 1.1-4.18 2.32a64 64 0 0 0 8.89 12.37M371.68 50.74c6.48 3.44 20 7.45 28.35 3.85a67 67 0 0 0-5.46-4.84c-.49.11-1 .21-1.51.28-5.33.69-10.78-.72-15.66-2.55-5.71-2.15-14.69-6.89-19.26-13-1.51-.19-3-.34-4.54-.45 3.06 7.27 11.77 13.36 18.08 16.71" style="fill:#fff"/><path d="M308 79.94c12.82 12.52 28.87 21 45.72 27.79 15.36 6.18 31.71 10.26 48.51 10.16a100.5 100.5 0 0 0 16.43-1.27 66 66 0 0 0 1.61-16 105 105 0 0 1-22.14.74c-14-1-27.58-5-40.41-10.26-13.51-5.49-26.72-12.35-37.51-21.85a103.6 103.6 0 0 1-14.33-15.59c-1.1-1.47-2.11-3-3.1-4.46a71.5 71.5 0 0 0-10.87 10.29A91 91 0 0 0 308 79.94M301.25 128.58a235 235 0 0 1-25.11-17.69c.22 1.81.52 3.62.9 5.41 17.5 15.36 39.67 26.91 60.87 35.4a236.7 236.7 0 0 0 41.66 12.42c1.32-.62 2.63-1.27 3.93-2a230.6 230.6 0 0 1-43.14-13.34 267.4 267.4 0 0 1-39.11-20.2"/><path d="M367.69 61c9.17 4.74 19.34 8 29.9 7.92a54.2 54.2 0 0 0 12.69-1.52c-1.13-1.81-2.35-3.6-3.68-5.34a39 39 0 0 1-10.6 1.28c-8.86-.06-17.53-2.62-25.37-6.37-11.23-5.37-22.52-12.89-29.83-22.73-1.68.17-3.35.38-5 .66 7.28 11.39 21.34 20.62 31.89 26.1M398.21 151.62a178 178 0 0 1-19.36-1.38 169 169 0 0 1-37.41-9.24 168.5 168.5 0 0 1-35.78-19.33c-10.31-7.15-21.91-15.08-29.67-25.07-.16 1.62-.27 3.25-.31 4.88 6.14 7.51 15.33 13.61 22.65 19.12a182.8 182.8 0 0 0 38.25 22.63 174.4 174.4 0 0 0 55.85 13.2l.57-.43c1.8-1.37 3.55-2.85 5.21-4.38" style="fill:#fff"/><path d="M341.92 134.92c17.2 6.65 35.74 11.27 54.36 12.29 2 .11 4.06.18 6.09.21a68 68 0 0 0 13.81-22.57 112.6 112.6 0 0 1-20.85.23A161.2 161.2 0 0 1 349.07 114c-15.33-6-29.91-14.2-42.06-25a114.2 114.2 0 0 1-17.32-19.42c-.87-1.23-1.69-2.52-2.52-3.82a67.2 67.2 0 0 0-10.1 23.82 113 113 0 0 0 13 14.15c14.93 13.58 32.75 23.8 51.85 31.19" style="fill:#fff"/><path d="M389.72 73.49c-5.82-1.45-11.65-1.32-17.39-3.56s-11.24-6.19-17.5-7.32c-3.1-.57-4.13 3.42-2.07 5 5.26 4.13 13.39 6.67 19.78 9 5.21 1.87 12.16 3.08 17.24.33 1.29-.7 1.78-2.94-.06-3.45"/><path d="M319.36 154.18a17.6 17.6 0 0 0-4-.71c-1.45-.1-2.14 2-.64 2.43a14 14 0 0 1 3.14 1.33 12.7 12.7 0 0 0 3.28 1.11 1.09 1.09 0 0 0 1.28-1.66 5.64 5.64 0 0 0-3.06-2.5" style="fill:#fff"/><path d="M359.65 163c-7.65-2.29-15.33-6.74-23.34-7.55-1.8-.18-3.39 2.08-2 3.45 6 6 15.92 8.43 24 10.75l2 .55a74 74 0 0 0 13.46-3.6c-4.77-1.1-9.48-2.26-14.12-3.6"/><path d="M305.87 146.91c2.38.43 2.93-2.49 1.53-3.72-4.85-4.27-11.64-6.66-17.11-10.29-3.6-2.39-7.16-4.86-10.64-7.42a66 66 0 0 0 4.26 9.33c6.57 5.74 14.14 10.71 21.96 12.1" style="fill:#fff"/></g><path d="M319.51 161.22a9 9 0 0 1-2.16-.7 47 47 0 0 1-5.61-2.57 63.3 63.3 0 0 1-16.18-12.35 66.6 66.6 0 0 1-6.95-8.85 58.3 58.3 0 0 1-4.35-8.09c-.56-1.18-.94-2.3-1.31-3.27a23 23 0 0 1-.82-2.53 9 9 0 0 1-.51-2.2c.19-.06 1.08 3 3.31 7.69a67 67 0 0 0 4.48 7.87 72 72 0 0 0 6.91 8.66 69.8 69.8 0 0 0 15.78 12.42c4.48 2.57 7.49 3.7 7.41 3.92" style="fill:#fff"/><path d="M416.83 108.63c0 .35-1.81.84-5.25 1.41l-2.87.44c-1 .12-2.19.16-3.43.25a75 75 0 0 1-8.4.19l-4.9-.16c-1.7-.08-3.46-.35-5.29-.53a115 115 0 0 1-11.58-1.88 132.3 132.3 0 0 1-25.48-8.58 132.7 132.7 0 0 1-23-13.94 116 116 0 0 1-8.91-7.64c-1.32-1.28-2.65-2.45-3.81-3.71l-3.28-3.63a74 74 0 0 1-5.27-6.55c-.73-1-1.44-1.9-2-2.78s-1-1.73-1.51-2.48c-1.77-3-2.6-4.73-2.3-4.92s1.69 1.14 3.94 3.71l1.82 2.17c.69.77 1.49 1.57 2.31 2.45 1.68 1.74 3.44 3.84 5.7 5.87l3.41 3.29c1.2 1.14 2.56 2.19 3.89 3.36 2.63 2.39 5.72 4.59 8.89 7A152 152 0 0 0 351.83 95a152 152 0 0 0 24.38 8.63c3.89.86 7.56 1.8 11.08 2.28 1.76.26 3.44.62 5.08.8l4.72.49c3 .41 5.75.41 8.16.57 1.2.06 2.33.16 3.36.19h2.84c3.41.11 5.34.31 5.38.67" style="fill:#ff725e"/><path d="M380.16 163.52s.13-.12.43-.31l1.33-.84 5.17-3.15h.12s-.22.1-.19.18l.09-.15.82-.58h.14-.13a70.1 70.1 0 0 0 16.37-16.32l.31-.15c-.1-.07-.42.19-.37.34l.07-.2a67.88 67.88 0 0 0 7.86-63.81l.46.33h-.35l-.13-.33a61.6 61.6 0 0 0-4.09-8.88c-7.37-13.22-19.28-22.48-31.18-27.7a75.1 75.1 0 0 0-33.83-6.29 70.9 70.9 0 0 0-22.83 4.87c-2.56 1-4.53 1.92-5.83 2.6l-1.49.73a2.8 2.8 0 0 1-.53.22 51.4 51.4 0 0 1 7.7-3.93A69.2 69.2 0 0 1 343 34.87 75.25 75.25 0 0 1 377.28 41a69.8 69.8 0 0 1 17.56 11 62.3 62.3 0 0 1 18.3 26.16l-.47-.35h.34l.12.31a68.23 68.23 0 0 1-8.22 64.62l.07-.19c0 .15-.29.42-.39.36l.31-.16A68.2 68.2 0 0 1 388.18 159l-.06.05H388h.13l-.85.56.09-.15c0 .09-.15.23-.21.2h.11l-5.3 3-1.37.75a2 2 0 0 1-.44.11" style="fill:#fff"/><path d="M283.27 72c.36-.74.77-1.46 1.16-2.19-32.94-11-50.29-13.59-55.36-11.58a1.6 1.6 0 0 0-.78.52l-.08.19c-.12.22 0 .69.12.88 1.37 3.52 13.2 18 107.76 57.07 56.92 23.5 102 34.73 117.3 35.45a1.9 1.9 0 0 0 1.46-3.31c-5.66-4.85-18.51-13.16-38.86-23.79-.24.57-.45 1.15-.71 1.72 16.71 8.84 26.46 15.55 25.31 18.05-2.32 5-47.68-8.83-101.31-30.93S244.05 70 246.36 65c1.27-2.72 15.5.2 36.91 7" style="fill:#ff725e"/><path d="M418.48 118.33c-.14.49-.33 1-.49 1.48 26 13.48 43.42 24.94 45.75 30.9a4.53 4.53 0 0 1-1.14 5.29c-1.53 1.38-6.18 5.57-45.05-4.84-25-6.7-54.83-17-83.87-29-12.24-5.06-25.17-10.56-37.7-16.18-36.16-16.23-69.12-33.51-73.26-44.1a6.4 6.4 0 0 1 .05-5.22 6.92 6.92 0 0 1 4-3.61c9.06-3.6 34.25 2.94 60.56 11.78.19-.29.36-.6.55-.89-44.52-14.55-75.88-19.72-80.32-12.83-9.63 14.84 48.95 47 123.36 77.65s141.18 44 146.08 33.36c3.25-7.04-20.47-24.12-58.52-43.79" style="fill:#ff725e"/><path d="M424.48 136.58c.42.39-4.38.25-4.52.23a49 49 0 0 1-5.34-1.18c-4.75-1.15-9.44-2.54-14.07-4-6.55-2.13-12.92-5.11-19.74-6.38a.62.62 0 0 0-.39 1.16c11.17 6.71 27.34 11.35 40.44 13.08 1.87.25 4.76.86 5.79-1.22.68-1.37.13-2.39-1.24-3a.83.83 0 0 0-.93 1.35Z" style="fill:#ff725e"/><g style="opacity:.30000000000000004"><path d="M283.27 72c.36-.74.77-1.46 1.16-2.19-32.94-11-50.29-13.59-55.36-11.58a1.6 1.6 0 0 0-.78.52l-.08.19c-.12.22 0 .69.12.88 1.37 3.52 13.2 18 107.76 57.07 56.92 23.5 102 34.73 117.3 35.45a1.9 1.9 0 0 0 1.46-3.31c-5.66-4.85-18.51-13.16-38.86-23.79-.24.57-.45 1.15-.71 1.72 16.71 8.84 26.46 15.55 25.31 18.05-2.32 5-47.68-8.83-101.31-30.93S244.05 70 246.36 65c1.27-2.72 15.5.2 36.91 7"/><path d="M424.48 136.58c.42.39-4.38.25-4.52.23a49 49 0 0 1-5.34-1.18c-4.75-1.15-9.44-2.54-14.07-4-6.55-2.13-12.92-5.11-19.74-6.38a.62.62 0 0 0-.39 1.16c11.17 6.71 27.34 11.35 40.44 13.08 1.87.25 4.76.86 5.79-1.22.68-1.37.13-2.39-1.24-3a.83.83 0 0 0-.93 1.35Z"/></g><path d="M418.48 118.33c-.14.49-.33 1-.49 1.48 26 13.48 43.42 24.94 45.75 30.9a4.53 4.53 0 0 1-1.14 5.29c-1.53 1.38-6.18 5.57-45.05-4.84-25-6.7-54.83-17-83.87-29-12.24-5.06-25.17-10.56-37.7-16.18-36.16-16.23-69.12-33.51-73.26-44.1a6.4 6.4 0 0 1 .05-5.22 6.92 6.92 0 0 1 4-3.61c9.06-3.6 34.25 2.94 60.56 11.78.19-.29.36-.6.55-.89-44.52-14.55-75.88-19.72-80.32-12.83-9.63 14.84 48.95 47 123.36 77.65s141.18 44 146.08 33.36c3.25-7.04-20.47-24.12-58.52-43.79" style="opacity:.30000000000000004"/><path d="M272.85 112.8c.21.88-.71 1.84-2 2.15s-2.57-.15-2.78-1 .71-1.85 2-2.16 2.58.12 2.78 1.01M272.78 51.11c.2.88-.71 1.84-2 2.15s-2.57-.15-2.78-1 .71-1.85 2-2.16 2.57.12 2.78 1.01M273.17 74.47a1.28 1.28 0 1 1-1.45-.71 1.15 1.15 0 0 1 1.45.71M260.13 105.47a1.28 1.28 0 1 1-1.45-.72 1.17 1.17 0 0 1 1.45.72M406.91 169.7c.19-1.35 1.9-2.23 3.82-2s3.33 1.58 3.15 2.93-1.9 2.23-3.83 2-3.33-1.57-3.14-2.93M426.85 168.7a1.19 1.19 0 1 1-1.38-.73 1.1 1.1 0 0 1 1.38.73M412.47 176.19a1.19 1.19 0 1 1-1.38-.73 1.11 1.11 0 0 1 1.38.73M432.52 119.51a1.85 1.85 0 1 1 1.58 2.09 1.86 1.86 0 0 1-1.58-2.09M428.32 114.24a1.19 1.19 0 1 1-1.38-.73 1.1 1.1 0 0 1 1.38.73M443.25 121.12a.93.93 0 0 1-1.79.41.93.93 0 0 1 1.79-.41M137.36 80.62a20.4 20.4 0 0 0-4.83-4.62c-6.54-4.88-10.4-12.3-17.48-16.35-2.58-1.47-7.47-1.91-11.14-2a37.7 37.7 0 0 1-8.7-1.34 74.6 74.6 0 0 0-11.59-2c-9.46 0-16.26 8.64-24.2 13.78-4.36 2.82-9.41 4.72-13 8.48-7 7.33-6.13 19.24-2.42 28.68 1 2.57 2.2 5.12 2.53 7.86s-.23 5.51-.12 8.26c.28 7.44 5.22 13.81 10.23 19.32 3.07 3.37 6.61 6.83 11.12 7.4 3 .37 5.94-.57 8.92-.48 6.87.2 12.88 5.73 19.74 5.36 7.91-.44 13.19-8.31 20.45-11.47 4.26-1.87 9.25-2.11 13-4.82 4.21-3 5.94-8.49 6.34-13.65s-.29-10.39.32-15.54c.54-4.57 2.09-9 2.82-13.51s.65-9.56-1.99-13.36" style="fill:#ff725e"/><g style="opacity:.7000000000000001"><path d="M137.36 80.62a20.4 20.4 0 0 0-4.83-4.62c-6.54-4.88-10.4-12.3-17.48-16.35-2.58-1.47-7.47-1.91-11.14-2a37.7 37.7 0 0 1-8.7-1.34 74.6 74.6 0 0 0-11.59-2c-9.46 0-16.26 8.64-24.2 13.78-4.36 2.82-9.41 4.72-13 8.48-7 7.33-6.13 19.24-2.42 28.68 1 2.57 2.2 5.12 2.53 7.86s-.23 5.51-.12 8.26c.28 7.44 5.22 13.81 10.23 19.32 3.07 3.37 6.61 6.83 11.12 7.4 3 .37 5.94-.57 8.92-.48 6.87.2 12.88 5.73 19.74 5.36 7.91-.44 13.19-8.31 20.45-11.47 4.26-1.87 9.25-2.11 13-4.82 4.21-3 5.94-8.49 6.34-13.65s-.29-10.39.32-15.54c.54-4.57 2.09-9 2.82-13.51s.65-9.56-1.99-13.36" style="fill:#fff"/></g><path d="M125.64 72.4a18.4 18.4 0 0 0-5.23-2.91c-6.74-2.7-11.76-8.2-18.78-10.07-2.56-.69-6.87.06-10 .81a33.6 33.6 0 0 1-7.8.84 67 67 0 0 0-10.49.93c-8.16 2.14-12 11.16-17.69 17.4-3.1 3.43-7 6.22-9.24 10.27-4.36 7.91-.88 18 4.47 25.25a29 29 0 0 1 4 6.19c.91 2.28 1.07 4.79 1.78 7.14 1.94 6.35 7.66 10.7 13.23 14.3 3.41 2.2 7.25 4.36 11.27 3.83 2.63-.36 5-1.85 7.57-2.46 6-1.4 12.4 2 18.22.11 6.71-2.18 9.46-10.17 15-14.55 3.25-2.58 7.49-3.93 10.12-7.13 2.93-3.56 3.18-8.66 2.34-13.2s-2.62-8.88-3.27-13.45c-.58-4.06-.25-8.2-.66-12.28s-1.74-8.33-4.84-11.02" style="fill:#ff725e"/><g style="opacity:.4"><path d="M125.64 72.4a18.4 18.4 0 0 0-5.23-2.91c-6.74-2.7-11.76-8.2-18.78-10.07-2.56-.69-6.87.06-10 .81a33.6 33.6 0 0 1-7.8.84 67 67 0 0 0-10.49.93c-8.16 2.14-12 11.16-17.69 17.4-3.1 3.43-7 6.22-9.24 10.27-4.36 7.91-.88 18 4.47 25.25a29 29 0 0 1 4 6.19c.91 2.28 1.07 4.79 1.78 7.14 1.94 6.35 7.66 10.7 13.23 14.3 3.41 2.2 7.25 4.36 11.27 3.83 2.63-.36 5-1.85 7.57-2.46 6-1.4 12.4 2 18.22.11 6.71-2.18 9.46-10.17 15-14.55 3.25-2.58 7.49-3.93 10.12-7.13 2.93-3.56 3.18-8.66 2.34-13.2s-2.62-8.88-3.27-13.45c-.58-4.06-.25-8.2-.66-12.28s-1.74-8.33-4.84-11.02" style="fill:#fff"/></g><circle cx="91.26" cy="103.03" r="37.89" style="fill:#ff725e"/><g style="opacity:.1"><path d="M93.43 77.33c-2.11-3.74-7.2-4.69-11.41-3.86l-4.78 1.33c-5.67 1.91-10 6.57-13.43 11.44a28.8 28.8 0 0 0-4.9 9.7 12.73 12.73 0 0 0 1.69 10.46c2.17 2.93 6.36 4.44 9.67 2.92 3.72-1.71 5.08-6.19 7.55-9.46 2-2.64 4.8-4.54 7.51-6.43s5.46-3.91 7.26-6.69 2.47-6.53.84-9.41" style="fill:#fff"/></g><g style="opacity:.30000000000000004"><path d="M107.61 81.19c.49 2.67 6.4-.22 7.43-1.52a2.14 2.14 0 0 0-.88-3.52c-2.24-.89-4.16.84-5.58 2.42a3.5 3.5 0 0 0-1 1.68 2.7 2.7 0 0 0 .03.94M110.32 85.12a1.33 1.33 0 0 0-1.14-.65 3.4 3.4 0 0 0-.56.09 1.45 1.45 0 0 0-1.05 1.37V86a1.8 1.8 0 0 0 .08.42s0 .08 0 .12a1.07 1.07 0 0 0 1.33 1 1.8 1.8 0 0 0 1.14-.76l.11-.15a2 2 0 0 0 .06-.14v-.15c0-.08.07-.15.1-.22a1.4 1.4 0 0 0-.07-1" style="opacity:.43"/><path d="M123.81 93.24a.84.84 0 0 0 0-1.68.84.84 0 0 0 0 1.68M106.77 76.15a1.29 1.29 0 0 0 1.58-.89s0-.08 0-.12a8.6 8.6 0 0 0 .78-1 1.12 1.12 0 0 0-1.25-1.63 2.82 2.82 0 0 0-2 2.1 1.32 1.32 0 0 0 .89 1.54"/><path d="M103.45 72.43a.62.62 0 0 0 0-1.24.62.62 0 0 0 0 1.24" style="opacity:.43"/><path d="M113.22 85.78a.85.85 0 0 0 0-1.69.85.85 0 0 0 0 1.69M121.2 96.71a1.82 1.82 0 0 0 1.8 1.79 1.8 1.8 0 0 0 1.79-1.79 1.8 1.8 0 1 0-3.59 0"/><path d="M100.17 116.07a3.44 3.44 0 0 0-2.12-.49c-1.52.18-4 2.35-2.35 3.87 1.46 1.34 3.79.11 4.8-1.2a1.35 1.35 0 0 0-.33-2.18" style="opacity:.43"/><path d="M117.16 122.17a1.18 1.18 0 0 0 0 2.35 1.18 1.18 0 0 0 0-2.35M119.27 118.46a.51.51 0 0 0 0 1 .51.51 0 0 0 0-1M94.93 113a1 1 0 0 0 0 1.91 1 1 0 0 0 0-1.91"/></g><g style="opacity:.30000000000000004"><path d="M61.47 110.73a1.69 1.69 0 1 0 1.69 1.69 1.71 1.71 0 0 0-1.69-1.69"/><path d="M93.06 118.34a3.63 3.63 0 0 0-1.82-2.3 3.85 3.85 0 0 0-3-.28 3.2 3.2 0 0 0-1.79 1.38 3.27 3.27 0 0 0-.3 2.32 2.1 2.1 0 0 0 .26.64 2.56 2.56 0 0 0 .8 1.39l-.11-.09a4 4 0 0 0 .66.52 2.5 2.5 0 0 0 1 .32h-.17a4.5 4.5 0 0 0 2.33 0 3.25 3.25 0 0 0 2.14-3.9" style="opacity:.63"/><path d="M67.37 114a.77.77 0 0 0 0-1.54.77.77 0 0 0 0 1.54M57.62 108.51a1.22 1.22 0 0 0 0-2.43 1.22 1.22 0 0 0 0 2.43"/></g><g style="opacity:.2"><path d="M128.93 107.22c0-.26.06-.53.09-.79v-.19l.06-.83v-1.94c0-1 0-1.92-.07-2.88v-.77q0-.51-.09-1a37 37 0 0 0-1.07-5.69c-.12-.44-.24-.87-.38-1.3-.19-.63-.4-1.24-.62-1.85s-.36-1-.55-1.43-.47-1.1-.73-1.64c-.09-.21-.2-.42-.3-.63l-.24-.46a1.6 1.6 0 0 0-.12-.22c-.15-.31-.31-.62-.48-.91l-.17-.31c0-.08-.09-.15-.13-.22l-.24-.42c-.33-.57-.69-1.13-1-1.68l-.05-.08c-.31-.46-.63-.91-1-1.36l-.3-.4-.23-.3c-.6-.78-1.22-1.53-1.88-2.26l-.3-.34-.43-.46c-.27-.28-.54-.56-.82-.83l-.22-.23-.41-.39a37 37 0 0 0-3.51-2.93c.23.18.45.38.66.58l.7.64.41.39.23.23c.27.27.55.55.81.83l.43.46c.11.11.2.22.3.33.66.73 1.29 1.49 1.89 2.27l.23.3c.43.57.85 1.15 1.25 1.76l.05.08.14.21c.4.61.79 1.25 1.16 1.88l.12.22.18.31c.11.22.23.43.34.64l.26.49c.08.16.16.31.23.47q.24.48.45 1c.2.42.38.85.56 1.28s.46 1.13.66 1.71.36 1 .52 1.57.27.88.38 1.33l.18.67a37 37 0 0 1 1 6v.69c0 .63.07 1.26.07 1.89v1.07c0 .64 0 1.29-.08 1.94v.8c0 .33-.06.65-.1 1v.76l-.09.64c-.11.77-.25 1.54-.42 2.29-.09.43-.19.86-.29 1.28 0 .09 0 .17-.07.25-.18.72-.38 1.43-.6 2.12l-.21.61a37.9 37.9 0 0 1-4.61 9.24s0 0 0 .05c-.29.42-.58.82-.87 1.22a38.6 38.6 0 0 1-5.56 6c-.63.54-1.27 1.06-1.93 1.57a39 39 0 0 1-4.35 2.85 39 39 0 0 1-7.25 3.13c-.78.25-1.58.46-2.38.66-.42.1-.83.2-1.25.28-.65.14-1.3.25-2 .35a35 35 0 0 1-4.23.39 39 39 0 0 1-6.16-.25 38.2 38.2 0 0 1-11.59-3.37c-.77-.36-1.52-.75-2.26-1.17s-1.18-.67-1.75-1-1.13-.75-1.68-1.14l-.71-.52c.37.31.74.63 1.13.92.16.14.32.25.48.38l.09.07a1 1 0 0 0 .17.13c.31.24.62.47 1 .7a34 34 0 0 0 3.43 2.16q1.09.63 2.25 1.17a38.05 38.05 0 0 0 22 3.23l.64-.1c.44-.07.88-.15 1.31-.25s.84-.18 1.26-.28a37.3 37.3 0 0 0 6.32-2.14 38 38 0 0 0 4.83-2.55 38.6 38.6 0 0 0 4.74-3.49c.58-.51 1.16-1 1.72-1.58a38 38 0 0 0 3.12-3.45c.25-.32.51-.64.75-1s.59-.8.87-1.22c.46-.67.9-1.35 1.32-2a37.7 37.7 0 0 0 4-9.37c0-.13.07-.26.1-.39l.12-.45c.06-.22.11-.44.16-.66s.09-.44.14-.66.07-.3.1-.45l.18-1c0-.27.09-.54.13-.82s.1-.65.14-1c-.11-.16-.09-.3-.08-.44" style="fill:#fff"/></g><path d="M123 82.43s-.08-.07-.2-.23l-.54-.73-.87-1.18a14 14 0 0 0-1.23-1.56l-1.67-1.86a10 10 0 0 0-1-1l-1.14-1a13 13 0 0 0-1.24-1.09l-1.4-1.06c-.49-.35-1-.77-1.5-1.1l-1.68-1a39.6 39.6 0 0 0-8-3.61l-2.32-.62c-.4-.1-.79-.23-1.19-.31l-1.24-.2c-.82-.13-1.66-.31-2.52-.4l-2.61-.18H88.6c-.46 0-.92.1-1.38.15-.91.12-1.85.2-2.78.36l-2.79.62A37.47 37.47 0 0 0 61.93 79l-1.73 2.32c-.54.77-1 1.59-1.5 2.37-.23.4-.51.77-.71 1.19l-.6 1.23c-.2.4-.4.81-.59 1.21l-.3.6-.23.62c-.32.83-.62 1.65-.93 2.46s-.46 1.65-.7 2.45c-.11.41-.22.81-.32 1.21s-.15.81-.22 1.21c-.14.8-.28 1.59-.41 2.36a40 40 0 0 0-.06 8.75c.08.66.16 1.31.23 2s.26 1.23.37 1.82.25 1.17.38 1.72a15 15 0 0 0 .47 1.58l.47 1.47a12 12 0 0 0 .49 1.34c.36.84.7 1.6 1 2.29a14 14 0 0 0 .9 1.78c.28.5.51.93.71 1.28s.32.6.43.79a1.6 1.6 0 0 1 .13.28s-.06-.08-.17-.26-.27-.44-.46-.77-.45-.77-.75-1.26a13 13 0 0 1-.93-1.77c-.32-.69-.66-1.45-1-2.29a10 10 0 0 1-.5-1.34c-.16-.47-.33-1-.5-1.47a17 17 0 0 1-.49-1.59c-.12-.56-.25-1.13-.39-1.73s-.3-1.19-.38-1.83-.16-1.29-.25-2a39.4 39.4 0 0 1 0-8.82c.13-.78.26-1.58.4-2.39.07-.4.12-.81.22-1.22s.21-.81.32-1.22c.23-.81.42-1.65.7-2.48s.61-1.64.93-2.48l.23-.62.3-.61c.19-.41.39-.82.59-1.23s.41-.83.61-1.24.47-.8.71-1.2c.5-.79 1-1.62 1.51-2.41l1.75-2.3A37.88 37.88 0 0 1 81.58 66l2.82-.62c.94-.17 1.89-.24 2.81-.37.47 0 .93-.13 1.39-.14h4.07l2.64.19c.87.09 1.71.28 2.55.41l1.24.21c.41.09.8.21 1.2.32l2.34.63a40 40 0 0 1 8 3.68l1.68 1c.54.34 1 .75 1.5 1.11l1.41 1.08c.46.34.83.76 1.23 1.11l1.13 1.06a10 10 0 0 1 1 1l1.65 1.9a14 14 0 0 1 1.21 1.59l.84 1.21.5.74c.21.23.21.32.21.32" style="fill:#fff"/><g style="opacity:.6000000000000001"><path d="M137 88.73a2.38 2.38 0 0 0-2.85-1.66 2.46 2.46 0 0 0-.91 1.93 6.6 6.6 0 0 1-.13 1.85 2 2 0 0 0 .42 1.9c.87.88 2 .21 2.62-.58a3.93 3.93 0 0 0 .85-3.44" style="fill:#fff"/></g><path d="M46.33 133.69a3.49 3.49 0 0 0-3.24.27 4.82 4.82 0 0 0-2.31 4 4.17 4.17 0 0 0 4.27 4 2.5 2.5 0 0 0 1.38-.53 2.9 2.9 0 0 0 .67-.92c.99-1.96 1.9-5.65-.77-6.82" style="fill:#ff725e"/><g style="opacity:.6000000000000001"><path d="M46.33 133.69a3.49 3.49 0 0 0-3.24.27 4.82 4.82 0 0 0-2.31 4 4.17 4.17 0 0 0 4.27 4 2.5 2.5 0 0 0 1.38-.53 2.9 2.9 0 0 0 .67-.92c.99-1.96 1.9-5.65-.77-6.82" style="fill:#fff"/></g><path d="M141.91 107.18a2.44 2.44 0 0 0 2.11-.86 3.36 3.36 0 0 0 .7-3.19 2.9 2.9 0 0 0-3.68-1.77 1.7 1.7 0 0 0-.81.64 2.2 2.2 0 0 0-.26.75c-.25 1.54-.1 4.25 1.94 4.43" style="fill:#ff725e"/><g style="opacity:.6000000000000001"><path d="M141.91 107.18a2.44 2.44 0 0 0 2.11-.86 3.36 3.36 0 0 0 .7-3.19 2.9 2.9 0 0 0-3.68-1.77 1.7 1.7 0 0 0-.81.64 2.2 2.2 0 0 0-.26.75c-.25 1.54-.1 4.25 1.94 4.43" style="fill:#fff"/></g><g style="opacity:.1"><path d="M118.82 78c.25-.1.63.09 1 .66a6.6 6.6 0 0 1 1 2.79 19.4 19.4 0 0 1 0 4.39 27.4 27.4 0 0 1-1.15 5.65 28.7 28.7 0 0 1-2.93 6.5 27 27 0 0 1-5.42 6.44 20 20 0 0 1-1.81 1.42 18 18 0 0 1-2 1.32 14.7 14.7 0 0 1-5.27 1.85 13.4 13.4 0 0 1-3 0c-.92-.09-1.73-.24-2.43-.35a16 16 0 0 0-1.8-.23 12 12 0 0 0-1.67 0 12.92 12.92 0 0 0-8.69 4.2c-.77.84-1.54 1.81-2.34 2.84a27.7 27.7 0 0 1-5.84 6 13.2 13.2 0 0 1-4 1.88 12.7 12.7 0 0 1-3.93.41 15.8 15.8 0 0 1-6-1.53 19.5 19.5 0 0 1-3.69-2.31c-1.82-1.47-2.58-2.55-2.32-3s1.6-.3 3.72.24 5.06 1.42 8.15 1a7.9 7.9 0 0 0 2.17-.62 7.4 7.4 0 0 0 1.89-1.29 26.7 26.7 0 0 0 3.89-5.08 40 40 0 0 1 2.55-3.53 19.55 19.55 0 0 1 13.9-7.18 19 19 0 0 1 2.82 0 24 24 0 0 1 2.59.36 11.4 11.4 0 0 0 3.14.37 7.4 7.4 0 0 0 2.61-.81 15 15 0 0 0 1.43-.8c.48-.29.93-.61 1.38-.93a27.3 27.3 0 0 0 7.73-9.33 38 38 0 0 0 2-4.51c.53-1.38 1-2.61 1.25-3.56.54-1.81.54-2.99 1.07-3.26" style="fill:#fff"/></g><g style="opacity:.1"><path d="M125.76 102.48c.25.52-.38 1.34-1.34 2.66a47 47 0 0 0-3.65 5.65c-1.42 2.48-2.85 5.75-5.24 9.48a35 35 0 0 1-2.06 2.81 26.4 26.4 0 0 1-2.6 2.7 35.3 35.3 0 0 1-6.14 4.44 52.4 52.4 0 0 1-13 5.37 42.6 42.6 0 0 1-11.39 1.48 19.5 19.5 0 0 1-7.78-1.57c-1.72-.83-2.46-1.69-2.29-2.2s1.23-.7 2.87-.86a54 54 0 0 0 6.71-1 75.2 75.2 0 0 0 20.83-8.13 39 39 0 0 0 5-3.42 26 26 0 0 0 3.84-3.94c2.32-2.89 4.39-6.07 6.66-8.5a18.6 18.6 0 0 1 6.36-4.81c1.83-.75 2.99-.64 3.22-.16" style="fill:#fff"/></g><g style="opacity:.1"><path d="M103.45 78a2.16 2.16 0 0 0-3-1.19 2.3 2.3 0 0 0-1 2.56 2 2 0 0 0 2.35 1.3 2.43 2.43 0 0 0 1.65-2.67" style="fill:#fff"/></g><path d="M97.52 237.62a27.58 27.58 0 1 1-9.42-37.85 27.58 27.58 0 0 1 9.42 37.85" style="fill:#455a64"/><path d="M71.53 195.86c.12.54.22 1 .31 1.36-1.38.24-2.89.56-3.73 1.68s-.69 2.7-1 4.06a1.47 1.47 0 0 1-.66 1 1.65 1.65 0 0 1-1 0c-2-.44-4.3-1.09-5.91.16-.94.73-1.54 2.05-2.72 2.2s-2.14-1.13-2.51-2.35a27.62 27.62 0 0 1 17.22-8.11" style="opacity:.30000000000000004"/><path d="M60.38 209.74a.3.3 0 0 1-.19 0c-2.49-1.24 1-5.54 3.06-5.17a1.62 1.62 0 0 1 .92 2.61c-.83 1.26-2.58 1.39-3.59 2.46a.4.4 0 0 1-.2.1M53.52 213.55a.93.93 0 0 1-.93-.45 3.15 3.15 0 0 1-.11-3.57c1.21-1.83 4.64-2 5.09.54a2 2 0 0 1-1.22 2.24c-.49.17-1 .12-1.5.3a4 4 0 0 0-1 .73 1.1 1.1 0 0 1-.33.21M53.51 221.5c-.38 0-.74-.33-1.09-.18s-.41.57-.73.6-.48-.3-.56-.58a3.7 3.7 0 0 1 .35-2.72 1 1 0 0 1 .31-.38 2.4 2.4 0 0 1 1.13-.29 1.39 1.39 0 0 1 1.15.86 3.1 3.1 0 0 1 .2 1.49c-.03.52-.27 1.17-.76 1.2M56.81 217.47c1.48-1.17 3.74.14 4.66 1.41.71 1 1.24 4-.91 3.68a2.52 2.52 0 0 1-1.77-1.13 5.3 5.3 0 0 0-.8-1.29l-.1-.08c-.42-.3-1-.38-1.34-.76a1.31 1.31 0 0 1 .26-1.83M57.14 222.09a.85.85 0 0 1-.24.67.7.7 0 0 1-.55.12 1.07 1.07 0 0 1-.83-1.29 1.08 1.08 0 0 1 1.09-.74 1.87 1.87 0 0 1 .53 1.24" style="opacity:.30000000000000004"/><path d="M56.89 220.91a1 1 0 0 0-.28-.06.5.5 0 0 1-.1-.11ZM49.26 214.37a2.58 2.58 0 0 1 .24 1.86 11 11 0 0 1-.8 1.35c-.77 1.54.26 3.7-.88 5a2.84 2.84 0 0 1-1.47.78 27.3 27.3 0 0 1 2-10.28 3.9 3.9 0 0 1 .91 1.29M48.28 233.43a27.8 27.8 0 0 1-1.79-7.34c1.42-1.24 2.69-2.34 4.86-2a2.91 2.91 0 0 1 2.47 2.2 4.1 4.1 0 0 1-.23 1.74l-.51 1.84a1.5 1.5 0 0 1-.32.68c-.54.57-1.49.07-2.26.15a2 2 0 0 0-1.4 1 9.2 9.2 0 0 0-.75 1.59ZM56.82 231.09a4.3 4.3 0 0 1-.12-1.09 7.5 7.5 0 0 0-.48-1.53 1.55 1.55 0 0 1 .18-1.52.6.6 0 0 1 .43-.21.77.77 0 0 1 .47.24 8.7 8.7 0 0 1 1.81 2.61l-.26-.32a1.9 1.9 0 0 1 .34 1.08 1.51 1.51 0 0 1-.91 1.38 1.18 1.18 0 0 1-1.46-.64M85.6 205.14a1.3 1.3 0 0 0-.49-.28c-.54-.12-1 .5-1.47.68a1.29 1.29 0 0 1-1.45-.63c-1.5-2.42 2-4.07 4-3.1s2.46 5.61-.59 3.33M82.3 218.63a12.2 12.2 0 0 1-.51-2.73 3.84 3.84 0 0 1 .35-2.18c.65-1.09 2.06-1.43 3.33-1.51a5.37 5.37 0 0 1 3.17.55 10.6 10.6 0 0 1 1.59 1.41c.86.8 1.9 1.39 2.78 2.18a4.8 4.8 0 0 1 1.4 2 9.77 9.77 0 0 1 1.51 6.27 3.7 3.7 0 0 1-1.12 2.54c-1.37 1.1-3.55.31-5.07 1.19-1.34.78-1.85 2.68-3.33 3.13s-2.82-.74-3.78-1.89c-1.34-1.63-2.57-3.77-1.82-5.74.51-1.31 1.84-2.33 1.84-3.73a5.2 5.2 0 0 0-.34-1.49M95.64 215.23l-2-1.3a1.44 1.44 0 0 1-.5-.45.93.93 0 0 1 .55-1.26 1.49 1.49 0 0 1 1.45.37 4.3 4.3 0 0 1 .91 1.27l-.48-.57a1.79 1.79 0 0 1 .07 1.94M98.21 220.2c-.11.41-.6.74-1 .52a1 1 0 0 1-.38-.57c-.21-.57-.43-1.13-.64-1.69a.9.9 0 0 1-.07-.56.54.54 0 0 1 .62-.31 1.08 1.08 0 0 1 .61.42 4.7 4.7 0 0 1 .78 2L98 219a2.15 2.15 0 0 1 .21 1.2M60.72 214.56a.75.75 0 0 1 .77-1.28.75.75 0 0 1-.77 1.28M63.23 210.18a1 1 0 0 1-1 1.65 1 1 0 0 1 1-1.65M63.85 218.15c-.9-1.72-1.13-3.73.43-5.3.87-.88 2.27-1.31 3.11-.16s.33 2.58-.25 3.68c-.49.95-.25 1.37 0 2.33a3.24 3.24 0 0 1 0 1.72 1.57 1.57 0 0 1-2.45.91c-.79-.66-.82-2.03-.84-3.18M57.77 223.76a4.65 4.65 0 0 1 2.14.76 1.5 1.5 0 0 1 .23.15 1.64 1.64 0 0 1 .75 2.05 1.33 1.33 0 0 1-1.88.45 2.7 2.7 0 0 1-.73-.78 4.2 4.2 0 0 0-1-.92c-.69-.47-.49-1.85.49-1.71M61.91 224.72a.85.85 0 0 1-.26-.48.66.66 0 0 1 1-.71.77.77 0 0 1 .36.92.63.63 0 0 1-1.1.27M77.83 222.09c-1.32-.42-1.42-1.87-1.56-3s-.46-2.49.57-3.33a2.16 2.16 0 0 1 3.06.69 4.57 4.57 0 0 1 .54 3.48 2 2 0 0 1-.26.55 1.7 1.7 0 0 1-.09.32 1.85 1.85 0 0 1-2.26 1.29M77.44 225.16a.7.7 0 0 1 0-.31v-.07a1 1 0 0 1 .26-1 .88.88 0 0 1 1.23 0 1.29 1.29 0 0 1 0 1.8.91.91 0 0 1-1.49-.42M74.81 225.37c-1-.11-1.28-1-1.59-1.76a13.7 13.7 0 0 1-.94-2.52 1.84 1.84 0 0 1 .64-2 1.27 1.27 0 0 1 1.76.42 6.4 6.4 0 0 1 .6 2.37 3 3 0 0 0 .08.34c.97.9 1.33 3.37-.55 3.15M101.22 219.33a5.42 5.42 0 0 1-3-2.48c-.77-1.48-1.14-3.95-.3-5.5a2.7 2.7 0 0 1 .21-1.27 27.5 27.5 0 0 1 3.09 9.25M90.5 236a.8.8 0 0 1-.16 0 3.17 3.17 0 0 1-2.46 1.16.75.75 0 0 1-1.12 0 1.7 1.7 0 0 1-.44-1.2 2 2 0 0 1 .11-1.42c.39-.84 1.11-1.12 1.83-1.62a8 8 0 0 0 .88-1.07 3.7 3.7 0 0 1 .46-.65 1.66 1.66 0 0 1 2.24.25l.21.25c.37.11.48.58.48 1a7 7 0 0 1 .27 1l-.27-.7a4.9 4.9 0 0 1-.34 1.94A1.79 1.79 0 0 1 90.5 236M81.89 209.39a1.09 1.09 0 0 1 .83 1.73 2.5 2.5 0 0 1-.83.67l-.24.14-.07.17a2 2 0 0 1-.55.8c-.58.48-1.7.18-1.62-.71a2.22 2.22 0 0 1 .64-1.4l.06-.08a1.88 1.88 0 0 1 1.78-1.32M84.33 242.28c.3-1.38 1.91-1.42 2.93-2s1.26-2.28 2.67-2.28a1.45 1.45 0 0 1 1.43 1.82 4.76 4.76 0 0 1-1.59 2.71c-1 1.33-2.35 2.34-4 1.94a1.92 1.92 0 0 1-1.44-2.19M93.29 235.38c.34-.5 1.28-.48 1.4.21a3.6 3.6 0 0 1-.06 1.73c-.16.52-.6 1.18-1.21 1.17h-.12a1.34 1.34 0 0 1-1.6-1.85 1.45 1.45 0 0 1 .71-.77c.32-.18.67-.18.88-.49M93.64 232.68a.62.62 0 0 1 .33-.6.52.52 0 0 1 .61.1.62.62 0 0 1 .17.66.56.56 0 0 1-.63.41.57.57 0 0 1-.48-.57M96.33 238.57c1-1.93.69-3.39.32-5.41a5.4 5.4 0 0 1 .18-3.25c.79-1.74 2.63-2.41 4.43-2.77a27.5 27.5 0 0 1-3.69 10.4c-.4.68-.84 1.32-1.29 2a1.18 1.18 0 0 1 .05-.97M99 226.15a1.11 1.11 0 0 1-1.47-.43v-.05a1 1 0 0 1-.21-.33 1 1 0 0 1 .46-1.27 2.4 2.4 0 0 1 .71-.32 6.84 6.84 0 0 1 3.05-.78q0 1.35-.09 2.7a6.4 6.4 0 0 0-2.45.48M99.23 220.41a.6.6 0 0 1 1.07 0 2 2 0 0 1 .1.24v.06a.77.77 0 0 1 0 .59 1 1 0 0 1-.2.5.6.6 0 0 1-.16.16l-.04.04a.56.56 0 0 1-.76 0 1.26 1.26 0 0 1-.39-1.06 1 1 0 0 1 .38-.53M96.2 228.93a1.08 1.08 0 0 1-.66.39c-.45.86-1.51 1.59-2.25.8a1 1 0 0 1 .25-1.46 8 8 0 0 1 1.86-.82.69.69 0 0 1 .8 1.09M53 214.73a1.54 1.54 0 0 1 1.56-.64 3.27 3.27 0 0 0 1.77-.26.78.78 0 0 1 1 1.08 2.6 2.6 0 0 1-1.81 1.27 2.12 2.12 0 0 1-1.86-.27 1.6 1.6 0 0 1-.45-.23.7.7 0 0 1-.21-.95M51.8 208.57a3.4 3.4 0 0 1-1.77 1c.09-.16.17-.33.27-.49a28 28 0 0 1 2.76-3.8v.09c.34 1.2-.47 2.38-1.26 3.2M59.37 238.3c-.17-1 .87-1.68 1.7-1.91 1.2-.33 2.32 0 3.43-.75.87-.56 1.76-1.33 2.88-1.24a1.81 1.81 0 0 1 1.62 1.4 2.21 2.21 0 0 1-.65 1.93 3.56 3.56 0 0 1-1.23 1.77 4.41 4.41 0 0 1-4.45.51c-1.36.19-3.05-.27-3.3-1.71" style="opacity:.30000000000000004"/><path d="M63.05 235a1 1 0 0 1-.08-1.2 1.28 1.28 0 0 1 1.39-.58.75.75 0 0 1 .62.26c.65.68 0 1.65-.82 1.8a1.24 1.24 0 0 1-1.11-.28M69.26 239.8a.68.68 0 0 1-.5-.51 1.76 1.76 0 0 1 .49-1.52.72.72 0 0 1 1.19.35.92.92 0 0 1 .18 1.09 1.17 1.17 0 0 1-1.36.59" style="opacity:.30000000000000004"/><path d="M65.94 197.05a27.58 27.58 0 0 0 23.17 49.43 27.58 27.58 0 1 1-23.17-49.43" style="mix-blend-mode:multiply;opacity:.2"/><path d="M275.13 167.43c.31 1.25-4.48 31.66-10.42 38.33s-37 28.16-37 28.16l-8.6-19.65L251 197.14l14.67-32.64Z" style="fill:#ffbf9d"/><path d="M277.47 140.4s-3.51 4-5.13 5.93c-1.18 1.38-6.95 6.82-7.32 8.82s.62 13.07.62 13.07l8.08.84s3.24.26 3.45-2.55.9-8.84.9-8.84 4.06-1 5.59-3.58c1.27-2.13.72-3.47.72-3.47a1.77 1.77 0 0 0 1.08-2.37 1.34 1.34 0 0 0-1.7-.63l-9.57 2.71s4.86-5.17 4.85-8.37a1.51 1.51 0 0 0-1.57-1.56" style="fill:#ffbf9d"/><path d="M266.5 156.35c-1.87 5.46-.37 11.65-.37 11.65l5.09.58s1.4-5.68-.13-9.18 1.55-3.12 2.15-6.68-2.21-2.28-2.21-2.28Z" style="fill:#ffbf9d"/><path d="M265.45 162.25s-.06-.12-.12-.34a6 6 0 0 1-.14-1 8.9 8.9 0 0 1 .66-3.73 15.7 15.7 0 0 1 3.11-4.68c.36-.39.74-.78 1.13-1.17l.59-.58a4 4 0 0 1 .69-.6 1.49 1.49 0 0 1 1.88.46 2.31 2.31 0 0 1 .29 1.94 10.9 10.9 0 0 1-1.83 3.1 4 4 0 0 0-.63 1.43 2.8 2.8 0 0 0 .16 1.46 27 27 0 0 1 1.1 2.78 8.5 8.5 0 0 1 .26 2.63 8.4 8.4 0 0 1-1 3.65 6 6 0 0 1-.57.85c-.15.19-.24.28-.25.26s.26-.42.64-1.21a8.8 8.8 0 0 0 .55-6.07c-.23-.88-.75-1.7-1.15-2.73a3.34 3.34 0 0 1-.19-1.7 4.5 4.5 0 0 1 .69-1.63 11 11 0 0 0 1.76-3 1.78 1.78 0 0 0-.21-1.49 1 1 0 0 0-1.21-.34 12 12 0 0 0-1.18 1.1c-.39.38-.77.76-1.12 1.14a15.8 15.8 0 0 0-3.13 4.49 9.7 9.7 0 0 0-.8 3.59c-.05.9.07 1.38.02 1.39M277.47 157.24a13 13 0 0 1-1.84-2.76 13 13 0 0 1-1.53-2.94 16.3 16.3 0 0 1 3.37 5.7" style="fill:#ff9a6c"/><path d="M284.11 150.84a13.7 13.7 0 0 1-4.17 1.9 13 13 0 0 1-4.49.89 45 45 0 0 1 4.33-1.39 41 41 0 0 1 4.33-1.4M283.58 153.13a9.2 9.2 0 0 1-3.22 1.74 9.3 9.3 0 0 1-3.56.85 22 22 0 0 1 3.37-1.34 22.5 22.5 0 0 1 3.41-1.25" style="fill:#ff9a6c"/><path d="m298.54 405.21 7 18s20.62-1.05 22.23 2.15l-34.38 14.77-12-27.57Z" style="fill:#263238"/><path d="M294.24 426.27a1.52 1.52 0 0 0-.28 2 1.48 1.48 0 0 0 2 .3 1.61 1.61 0 0 0 .28-2.14 1.51 1.51 0 0 0-2.11-.08" style="fill:#e0e0e0"/><path d="m293.36 440.11-1.1-2.82 33.37-13.11s1.82 0 2.11 1.16Z" style="fill:#455a64"/><path d="M306 422.78c.07.17-.74.6-1.33 1.5s-.73 1.79-.92 1.79-.35-1.08.39-2.15 1.86-1.31 1.86-1.14M310.24 422.72c.11.15-.5.74-.76 1.7s-.11 1.77-.28 1.84-.69-.84-.33-2 1.3-1.7 1.37-1.54M314.14 426.15c-.14.11-.73-.63-.69-1.74s.66-1.8.79-1.7-.14.81-.16 1.72.22 1.64.06 1.72" style="fill:#fff"/><path d="m298.83 360.7-3.49 19.35s17.62 10.76 17.15 14.31l-36.72-7.18 5.61-29.54Z" style="fill:#263238"/><path d="M284.29 376.24a1.53 1.53 0 0 0-1.37 1.51 1.47 1.47 0 0 0 1.49 1.37 1.61 1.61 0 0 0 1.44-1.6 1.53 1.53 0 0 0-1.7-1.26" style="fill:#e0e0e0"/><path d="m275.77 387.18.68-2.95 34.95 8s1.5 1 1.09 2.15Z" style="fill:#455a64"/><path d="M296 380c0 .18-1 .09-2 .49s-1.61 1.07-1.76 1 .32-1.08 1.53-1.55 2.23-.11 2.23.06M299.51 382.33c0 .18-.83.33-1.59 1s-1.09 1.41-1.26 1.37-.1-1.08.86-1.86 2.02-.68 1.99-.51M300.8 387.37c-.18 0-.25-.94.4-1.83s1.57-1.12 1.62-1-.58.59-1.1 1.33-.72 1.51-.92 1.5" style="fill:#fff"/><path d="M181.1 166.67a10.64 10.64 0 0 0-5.23-1.29 16 16 0 0 0-13.37 7.06c-2.31 3.49-3.34 8-6.74 10.43-2.62 1.87-6 2.06-9 3.31a12.35 12.35 0 0 0-7.16 8.21 10.81 10.81 0 0 0 3 10.34 9.6 9.6 0 0 0 10.4 1.66c.89 3.16 4.95 4.57 8 3.5s5.25-3.92 6.61-6.9c3.28-7.16 3-15.53 6.21-22.73a10.8 10.8 0 0 1 3-4.21 5.12 5.12 0 0 1 4.86-1l2.54-4.15a6.46 6.46 0 0 0-3.12-4.23" style="fill:#263238"/><path d="M179.26 172.55a13 13 0 0 1 1.47-3.75 4.5 4.5 0 0 1 3.26-2.15 1.85 1.85 0 0 1 1.69.66 1 1 0 0 1-.49 1.53l-.1.14q-1.56 2.36-3.21 4.64a3.5 3.5 0 0 1-1 1 1.29 1.29 0 0 1-1.35.07c-.61-.4-.48-1.38-.27-2.14" style="fill:#ff725e"/><path d="M177.89 177.7a23.72 23.72 0 0 1 15.39-13.59c4-1.15 5.91-.76 9-.75a13.18 13.18 0 0 1 8.54 2.86 22.1 22.1 0 0 1 6.79 8.63 31.8 31.8 0 0 1 2.15 10.32 42 42 0 0 1-2.24 13.47l-6 2.4c-5.1 1.56-10.27 3.12-15.6 3.29s-10.92-1.23-14.78-4.9c-5.32-5.11-6.3-14.98-3.25-21.73" style="fill:#263238"/><path d="m186.16 175.42 11.1-8.26 3.34-.49c7.31-1.93 14.5 4.78 16.13 10.68 1.81 6.55 3.76 14.63 4 19.75.51 10.3-7.58 13.33-7.58 13.33s4.6 15.4 5.54 18.65l-22.43-6.54-12.5-42.9a3.58 3.58 0 0 1 2.4-4.22" style="fill:#ffbf9d"/><path d="M205.53 198.73a2.15 2.15 0 0 1 .37-1.47 2.21 2.21 0 0 1 2.54-.84 3 3 0 0 1 1.79 2.38 2.67 2.67 0 0 1-1.56 1.56l-.35.11a2.4 2.4 0 0 1-1.72-.2 2.17 2.17 0 0 1-1.07-1.54" style="fill:#ff9a6c"/><path d="M214.4 186.4a1.32 1.32 0 0 1-1 1.55 1.25 1.25 0 0 1-1.56-.88 1.3 1.3 0 0 1 1-1.55 1.26 1.26 0 0 1 1.56.88M215.38 181.23c-.12.2-1.24-.32-2.61 0s-2.24 1.19-2.43 1 0-.39.38-.81a3.7 3.7 0 0 1 1.9-1 3.45 3.45 0 0 1 2.13.23c.49.22.69.49.63.58M209.52 194.19a9 9 0 0 1 2.15-.87c.34-.11.66-.25.67-.5a1.8 1.8 0 0 0-.46-1l-1.6-2.46c-2.24-3.51-3.94-6.42-3.79-6.51s2.07 2.68 4.31 6.19l1.56 2.48a2.1 2.1 0 0 1 .47 1.34.89.89 0 0 1-.47.63 2.4 2.4 0 0 1-.58.21 9 9 0 0 1-2.26.49" style="fill:#263238"/><path d="M213.17 210.41a25.9 25.9 0 0 1-14.09-.76s5 6.16 14.78 3.14Z" style="fill:#ff9a6c"/><path d="M205.67 196c.22-.06.53 1.43 2 2.22s3.06.3 3.11.5-.29.37-1 .53a3.75 3.75 0 0 1-2.57-.34 3.3 3.3 0 0 1-1.62-1.88c-.11-.62-.03-1.03.08-1.03M213.65 176.6c-.16.39-1.26.39-2.47.75s-2.16.89-2.49.65c-.16-.12-.09-.48.27-.91a4 4 0 0 1 4-1.12c.52.18.76.45.69.63M199.32 189.17a1.3 1.3 0 0 0 1.54 1 1.24 1.24 0 0 0 1-1.47 1.3 1.3 0 0 0-1.54-1 1.25 1.25 0 0 0-1 1.47M196.9 185.61c.2.13 1-.82 2.34-1.16s2.54.1 2.64-.1-.18-.35-.69-.56a3.53 3.53 0 0 0-2.16-.12 3.36 3.36 0 0 0-1.82 1.13c-.34.42-.41.76-.31.81M196.55 181.05c.35.24 1.32-.34 2.58-.67s2.39-.37 2.55-.76c.07-.18-.17-.45-.71-.63a4.1 4.1 0 0 0-2.23 0 4 4 0 0 0-1.91 1.13c-.37.45-.43.81-.28.93" style="fill:#263238"/><path d="M189.87 195.69c-.16-.74-1.38-2.31-2.14-2.27-2 .1-5.51 1-4.5 6 1.37 6.8 7.92 4 7.89 3.81s-.71-4.98-1.25-7.54" style="fill:#ffbf9d"/><path d="M188.74 201.11s-.1.11-.28.24a1.2 1.2 0 0 1-.88.2 3 3 0 0 1-1.89-2.36 3.9 3.9 0 0 1 0-1.76 1.39 1.39 0 0 1 .71-1.09.62.62 0 0 1 .77.18c.13.17.11.31.15.32s.12-.14 0-.41a.78.78 0 0 0-.35-.38.9.9 0 0 0-.69 0 1.71 1.71 0 0 0-1 1.31 4 4 0 0 0 0 2 3.15 3.15 0 0 0 2.32 2.59 1.35 1.35 0 0 0 1.05-.4c.11-.27.12-.43.09-.44" style="fill:#ff9a6c"/><path d="m187.46 193.51 2.18 1.31c5.46-9 15.1-30.44 14.58-29.18a22.14 22.14 0 0 0-10.79 1.67c-5.22 2.39-14.84 7.9-13 14.3s7.03 11.9 7.03 11.9" style="fill:#263238"/><path d="M177.34 194.63a2 2 0 0 1 0-.41 7 7 0 0 1 .17-1.18 10.1 10.1 0 0 1 2-3.89 18.9 18.9 0 0 1 4.91-4.22c2-1.33 4.41-2.57 6.61-4.3a33.7 33.7 0 0 0 5.62-5.47 36 36 0 0 0 3.58-5.33 40 40 0 0 0 1.77-3.93l.42-1.1a2.2 2.2 0 0 1 .17-.38 1.8 1.8 0 0 1-.1.4c-.08.26-.19.65-.36 1.13a33 33 0 0 1-1.75 4 34.2 34.2 0 0 1-3.55 5.41 32.8 32.8 0 0 1-5.66 5.55 74 74 0 0 1-6.65 4.29 19.4 19.4 0 0 0-4.88 4.1 10.4 10.4 0 0 0-2 3.78c-.25.98-.26 1.56-.3 1.55" style="fill:#455a64"/><path d="M179.57 195.17a3.75 3.75 0 0 1-.13-1.54 7.1 7.1 0 0 1 1.67-3.82 15.7 15.7 0 0 1 5-3.69 33.5 33.5 0 0 0 6.35-4.06 30.3 30.3 0 0 0 5.17-5.47 31.6 31.6 0 0 0 3.13-5.31 32.5 32.5 0 0 0 1.49-3.88c.13-.44.24-.8.32-1.09a2 2 0 0 1 .13-.37s0 .13-.06.39-.15.66-.25 1.11a29 29 0 0 1-1.4 3.95 29.8 29.8 0 0 1-8.3 11 33.4 33.4 0 0 1-6.42 4.07 15.8 15.8 0 0 0-5 3.56 7.1 7.1 0 0 0-1.73 3.68 8 8 0 0 0 .03 1.47" style="fill:#455a64"/><path d="M212.82 191.36s9-1.51 9.07-3.38-1.26-11.06-3.51-13.34-22.28 2.58-23.62 3.08-9.32 6.05-9.32 6.05l2 9.35 9.14 1.14Z" style="fill:#455a64"/><path d="M196.78 193.22a7 7 0 0 1-.63-2c-.3-1.28-.6-3.07-.9-5s-.52-3.54-.75-5a10.6 10.6 0 0 1-.26-2.1 7.2 7.2 0 0 1 .63 2c.29 1.28.6 3.06.89 5l.75 5a12 12 0 0 1 .27 2.1" style="fill:#263238"/><path d="m187.31 185-11.24 3.07s0 3.88 1.74 6.4l10.71-2.94Z" style="fill:#455a64"/><path d="M151.58 180c-1.69-.29-3.59-1-5 0a3 3 0 0 0-1 2.92 5.1 5.1 0 0 0 1.64 2.77 8.43 8.43 0 0 0 11.12 0l3.31-10.91a9.36 9.36 0 0 1-10 5.23ZM162.44 172.07l-.82 2.7a9.4 9.4 0 0 0 .82-2.7" style="fill:#263238"/><path d="M185.15 278.23c-10.62 8.86-14.29 17.67-16.07 31.38-1.13 8.67.34 20-3.18 28-1 2.24-2.32 4.46-2.26 6.9.11 4.12 4.19 7.08 8.19 8.09a20.36 20.36 0 0 0 13.26-1.16c5.78-2.6 10.11-7.81 16-10.23 7.44-3.08 15.93-1.16 23.59 1.31 3.29 1.06 7.31 2.08 9.87-.25 1.67-1.53 2.06-4.07 1.62-6.3a26.7 26.7 0 0 0-2.56-6.28c-6.66-13.79-6.81-29.7-6.82-45Z" style="fill:#455a64"/><path d="M177.67 302.46c-.6 4.76-.11 9.58.21 14.37s.43 9.68-.88 14.3-4.06 9.36-2.54 13.92a9.16 9.16 0 0 0 8.44 5.89c3.66.08 17.07-13.67 20.93-15.13l-19.47-45.1c-3.59 3.17-6.09 6.99-6.69 11.75" style="opacity:.30000000000000004"/><path d="M218.84 288.07s76.18-15.71 84.92 4.07-8.32 85.26-8.32 85.26l-16.61.05s-2.2-35.93-3.61-46.91c-1.05-8.2 2.23-17.9 2.23-17.9s-37.72 15-53.94 19.18-24.58 4.89-32.46-2.55-9.58-13.44-10-18.54c-.39-5.4 3.45-15.52 3.45-15.52Z" style="fill:#263238"/><path d="M244.36 315.05s37.06 39.61 43.28 47.21 19 56.32 19 56.32l-19.15 8.81s-9.29-17-14.35-27.87a287 287 0 0 0-15.18-28.4s-30.21-17.19-36.06-21.4-7.72-5.67-11.57-7.29-10.11-4-16.66-10.09c-11.17-10.38-12.12-22.07-12.12-22.07l43.77-3.47Z" style="fill:#263238"/><path d="M147 298.86s2.68 6.66 2.68 8.27-.85 6.72-.23 8.85a1.32 1.32 0 0 1-2.22-.52 15 15 0 0 1-1.33-5.93c.07-1.34-.94-1.27-1.56-.5s-3.89 6.62-3.89 6.62-2.71 7.2-3.65 7.53A1.34 1.34 0 0 1 135 322c0-.48 1.78-6.85 1.78-6.85l1.51-3.07s-5.34 9.3-6.38 9.57a1.17 1.17 0 0 1-1.56-1c-.12-.62 2.28-4.7 2.28-4.7l2.85-5.71-6.95 9.76s-.77.84-1.51.34-.44-1.9-.44-1.9l6.28-10.71s-3.74 5.77-4.32 5.79c-.78 0-1.14-.44-1-1a68 68 0 0 1 3.47-6.43l6.52-9.8.78-6.8 10.23 3.65Z" style="fill:#ffbf9d"/><path d="M162.53 233.9s-18.51 21.87-20 26.61-5 35.77-5 35.77l9.42 2.58 8.68-31.24 19.28-21.55Z" style="fill:#ffbf9d"/><path d="M221.77 213.35c.37-1.14 19.31-11.95 19.31-11.95s8.74 18.83 8.49 20.83l-14.08 12.55Z" style="fill:#ff725e"/><path d="M214.42 214.65c-2.06 4.9-10.17 8.17-20.38 1.18l-17.95 3.61 4.91 27.62 7.51 36.5-6 11.6 23.55 8.93a43.25 43.25 0 0 0 28.19.86l3.26-17a5.9 5.9 0 0 0-1.82-5.48l-.85-.77 2-11.43s3.67-16.86 1.86-28.22-12.17-31.73-12.17-31.73Z" style="fill:#ff725e"/><path d="M179.82 246.94c-.76.84-8.69 9.11-8.69 9.11l-16.31-15.5a129 129 0 0 1 10.76-12.94c5.82-6 8.37-7.76 10.51-8.17.07 0 2.3-.51 2.39-.51a11.16 11.16 0 0 1 8.61 17.52Z" style="fill:#ff725e"/><path d="M231.85 224.13a4.1 4.1 0 0 1 .62.87c.37.58.88 1.43 1.44 2.52a49 49 0 0 1 3.56 8.91 45 45 0 0 1 1.72 9.43c.08 1.23.11 2.23.08 2.91a4.2 4.2 0 0 1-.08 1.07c-.09 0-.11-1.52-.36-3.94a54.4 54.4 0 0 0-1.86-9.33 59 59 0 0 0-3.39-8.88c-1.05-2.2-1.8-3.52-1.73-3.56M187.38 233.89c-.09 0 0-1.11-.26-2.83a12.79 12.79 0 0 0-8.18-10c-1.63-.62-2.73-.72-2.72-.81s.28 0 .78 0a10 10 0 0 1 2.06.46 12.26 12.26 0 0 1 8.42 10.29 10.2 10.2 0 0 1 0 2.11 2 2 0 0 1-.1.78" style="fill:#263238"/><path d="M184 262c1.13 3.94.41 6.55-1 9.9a6 6 0 0 0-.77 3.48 3.67 3.67 0 0 0 2 2.36 10.8 10.8 0 0 0 3.07.86 20.7 20.7 0 0 0 3.71-.45Z" style="fill:#ff725e"/><path d="M227.51 292c-7.3 1.09-18.75-9.49-25.79-11.71s-17-2.95-20.67 1.58l-3.67 7.65c15.16 7.95 34.52 6.12 51.62 7 0 0 6.24 2.51 6.67 1.45.33-.83 2.76-8.43.56-9.9-1.5-1.07-7.42 3.73-8.72 3.93M226.25 303.75a.8.8 0 0 1 .22.12l.65.41c.59.4 1.4.94 2.44 1.62 2.09 1.45 5.11 3.55 8.71 6.34s7.78 6.24 12.19 10.33 9 8.82 13.77 13.9l6.86 7.46 6.42 6.9a79.3 79.3 0 0 1 9.89 12.56 39.2 39.2 0 0 1 4.27 9.89c.36 1.22.52 2.2.66 2.86.06.3.1.55.14.75a.8.8 0 0 1 0 .25s0-.08-.08-.24-.12-.44-.19-.74c-.17-.65-.36-1.62-.76-2.82a40.5 40.5 0 0 0-4.39-9.75 80.7 80.7 0 0 0-9.92-12.43l-6.44-6.89-6.87-7.44c-4.72-5.08-9.33-9.8-13.72-13.9s-8.53-7.58-12.09-10.4-6.54-5-8.6-6.46l-2.38-1.7-.62-.45c-.1-.11-.17-.16-.16-.17" style="fill:#455a64"/><path d="M224.32 287.53a3 3 0 0 0-2 2 10.1 10.1 0 0 0-.47 3l.67 4a4.06 4.06 0 0 0 4.46 2.4 4.25 4.25 0 0 0 3-3.8 7.85 7.85 0 0 0-1.6-5.24c-.95-1.47-2.55-2.69-4.06-2.36" style="fill:#455a64"/><path d="m226.15 296.87-.88 2a54.8 54.8 0 0 0 4.85 15 27.14 27.14 0 0 0 10.68 11.42c2.37 1.28 7.47 3.44 9.68 5a22.8 22.8 0 0 1 1.12 5.48 15.2 15.2 0 0 0 4.36-.49c1.4-.45 3.56-.62 4.56-1.7.32-.36-1.75-5.29-1.94-6.6 0 0 .85-3.15-.39-5.4-3.36-6.08-9.32-7.47-12.75-9.16-9.38-4.59-10.37-12.91-19.29-15.55" style="fill:#455a64"/><path d="m228.09 295.54.45 2.15a55 55 0 0 0 12.68 9.43 27.06 27.06 0 0 0 15.32 3.1c2.68-.32 8.08-1.53 10.78-1.54a22.5 22.5 0 0 1 4.09 3.81 15.3 15.3 0 0 0 3.27-2.93c.88-1.18 2.54-2.58 2.72-4 .06-.48-4.49-3.3-5.4-4.25 0 0-1.14-3.06-3.46-4.18-6.25-3-11.92-.67-15.69-.06-10.33 1.64-15.96-4.55-24.76-1.53" style="fill:#455a64"/><path d="M223.35 297.27a5.15 5.15 0 0 1-1.7-3.32 5.2 5.2 0 0 1 .45-3.7 19.5 19.5 0 0 0 .06 3.61 20 20 0 0 0 1.19 3.41M237.29 295.39a35 35 0 0 0-4.6-.46 35 35 0 0 0-4.58.66 10.29 10.29 0 0 1 9.18-.2M236.3 304.72a6 6 0 0 1-1.3-1.22c-.76-.81-1.73-2-2.88-3.22a12.5 12.5 0 0 0-3.32-2.62 17 17 0 0 1-1.61-.79 4.2 4.2 0 0 1 1.76.45 10.7 10.7 0 0 1 3.55 2.6c1.17 1.25 2.09 2.47 2.78 3.34a6.9 6.9 0 0 1 1.02 1.46M227.58 290a8 8 0 0 1-3.6 7.69 13.14 13.14 0 0 0 3.6-7.69" style="fill:#263238"/><path d="M230.15 294.83c-.15 0-.28-1.25-.82-2.67s-1.24-2.47-1.12-2.57a4.5 4.5 0 0 1 1.61 2.39 4.42 4.42 0 0 1 .33 2.85" style="fill:#263238"/></svg>