<svg xmlns="http://www.w3.org/2000/svg" viewBox="0 0 500 500"><path d="M291 17.76S213.5 3.67 148.36 56.87 60.37 198.33 40 269.36s8.48 135.18 68.37 156.8 89.85-29.55 166.5-44.31 99.15-7.13 156-61.06 51.59-158.55-11.22-226.34S291 17.76 291 17.76" style="fill:#92e3a9"/><path d="M291 17.76S213.5 3.67 148.36 56.87 60.37 198.33 40 269.36s8.48 135.18 68.37 156.8 89.85-29.55 166.5-44.31 99.15-7.13 156-61.06 51.59-158.55-11.22-226.34S291 17.76 291 17.76" style="fill:#fff;opacity:.7000000000000001"/><path d="M481 460.57H20.06a.5.5 0 0 1-.5-.5.5.5 0 0 1 .5-.5H481a.5.5 0 0 1 .5.5.5.5 0 0 1-.5.5" style="fill:#263238"/><path d="M165.16 52.13h181.73v336.66H165.16z" style="fill:#fff"/><path d="M346.89 389.29H165.16a.5.5 0 0 1-.5-.5V52.13a.5.5 0 0 1 .5-.5h181.73a.5.5 0 0 1 .5.5v336.66a.5.5 0 0 1-.5.5m-181.23-1h180.73V52.63H165.66Z" style="fill:#263238"/><rect width="33.81" height="12.15" x="204.08" y="80.94" rx="3.34" style="fill:#92e3a9"/><path d="M234.55 93.6h-27.12a3.86 3.86 0 0 1-3.85-3.85v-5.46a3.86 3.86 0 0 1 3.85-3.85h27.12a3.86 3.86 0 0 1 3.85 3.85v5.46a3.86 3.86 0 0 1-3.85 3.85m-27.12-12.16a2.86 2.86 0 0 0-2.85 2.85v5.46a2.86 2.86 0 0 0 2.85 2.85h27.12a2.86 2.86 0 0 0 2.85-2.85v-5.46a2.86 2.86 0 0 0-2.85-2.85ZM336.54 278.76h-160a.5.5 0 0 1 0-1h160a.5.5 0 0 1 0 1" style="fill:#263238"/><rect width="33.81" height="12.15" x="242.12" y="80.94" rx="3.34" style="fill:#92e3a9"/><path d="M272.59 93.6h-27.12a3.86 3.86 0 0 1-3.85-3.85v-5.46a3.86 3.86 0 0 1 3.85-3.85h27.12a3.85 3.85 0 0 1 3.84 3.85v5.46a3.85 3.85 0 0 1-3.84 3.85m-27.12-12.16a2.86 2.86 0 0 0-2.85 2.85v5.46a2.86 2.86 0 0 0 2.85 2.85h27.12a2.85 2.85 0 0 0 2.84-2.85v-5.46a2.85 2.85 0 0 0-2.84-2.85Z" style="fill:#263238"/><rect width="33.81" height="12.15" x="280.16" y="80.94" rx="3.34" style="fill:#92e3a9"/><path d="M310.63 93.6h-27.12a3.86 3.86 0 0 1-3.85-3.85v-5.46a3.86 3.86 0 0 1 3.85-3.85h27.12a3.85 3.85 0 0 1 3.84 3.85v5.46a3.85 3.85 0 0 1-3.84 3.85m-27.12-12.16a2.86 2.86 0 0 0-2.85 2.85v5.46a2.86 2.86 0 0 0 2.85 2.85h27.12a2.85 2.85 0 0 0 2.84-2.85v-5.46a2.85 2.85 0 0 0-2.84-2.85Z" style="fill:#263238"/><path d="M165.16 52.13h181.73v24.74H165.16z" style="fill:#92e3a9"/><path d="M346.89 77.37H165.16a.5.5 0 0 1-.5-.5V52.13a.5.5 0 0 1 .5-.5h181.73a.5.5 0 0 1 .5.5v24.74a.5.5 0 0 1-.5.5m-181.23-1h180.73V52.63H165.66Z" style="fill:#263238"/><path d="M324.09 68.83a3.12 3.12 0 1 0-3.09 3.11 3.12 3.12 0 0 0 3.09-3.11" style="fill:#fff"/><path d="M321 72.44a3.62 3.62 0 1 1 3.62-3.61 3.62 3.62 0 0 1-3.62 3.61m0-6.23a2.62 2.62 0 1 0 2.62 2.62 2.63 2.63 0 0 0-2.62-2.62" style="fill:#263238"/><path d="M332.54 68.83a3.12 3.12 0 1 0-3.11 3.11 3.12 3.12 0 0 0 3.11-3.11" style="fill:#fff"/><path d="M329.43 72.44a3.62 3.62 0 1 1 3.57-3.61 3.62 3.62 0 0 1-3.57 3.61m0-6.23a2.62 2.62 0 1 0 2.57 2.62 2.62 2.62 0 0 0-2.57-2.62" style="fill:#263238"/><path d="M341 68.83a3.12 3.12 0 1 0-3.12 3.11 3.12 3.12 0 0 0 3.12-3.11" style="fill:#fff"/><path d="M337.88 72.44a3.62 3.62 0 1 1 3.62-3.61 3.61 3.61 0 0 1-3.62 3.61m0-6.23a2.62 2.62 0 1 0 2.62 2.62 2.62 2.62 0 0 0-2.62-2.62" style="fill:#263238"/><path d="M165.16 362.29h181.73v26.49H165.16z" style="fill:#92e3a9"/><path d="M346.89 389.29H165.16a.5.5 0 0 1-.5-.5v-26.5a.5.5 0 0 1 .5-.5h181.73a.5.5 0 0 1 .5.5v26.5a.5.5 0 0 1-.5.5m-181.23-1h180.73v-25.5H165.66Z" style="fill:#263238"/><path d="M291.63 52.13 165.16 272.76v78.94L336.88 52.13zM346.89 190.02l-3.01-2.17-109.31 193.1 2.98 7.84h109.34z" style="opacity:.04"/><path d="M352.34 118.37a2.25 2.25 0 0 0 2.25-2.25V93.67a2.24 2.24 0 0 0-2.25-2.24 3 3 0 0 0-.42 0v-42A14.47 14.47 0 0 0 337.45 35H177.94a14.47 14.47 0 0 0-14.47 14.47V388.3a14.47 14.47 0 0 0 14.47 14.48h159.51a14.47 14.47 0 0 0 14.47-14.48V182.18a3 3 0 0 0 .42 0 2.25 2.25 0 0 0 2.25-2.25v-22.4a2.25 2.25 0 0 0-2.25-2.25 3 3 0 0 0-.42 0v-5.07a2 2 0 0 0 .42 0 2.24 2.24 0 0 0 2.25-2.24V125.6a2.25 2.25 0 0 0-2.25-2.25 2 2 0 0 0-.42.05v-5.08a2 2 0 0 0 .42.05M343.54 381H171.85V60h171.69Z" style="fill:#263238"/><path d="M233.63 285.67h49.25v69.18h-49.25z" style="fill:#fff"/><path d="M282.88 355.35h-49.25a.5.5 0 0 1-.5-.5v-69.18a.51.51 0 0 1 .5-.5h49.25a.5.5 0 0 1 .5.5v69.18a.5.5 0 0 1-.5.5m-48.75-1h48.25v-68.18h-48.25Z" style="fill:#263238"/><path d="m282.88 305.42-7.09-8.32-15.25 26.53-10.06-6.4-16.85 37.62h49.25z" style="fill:#92e3a9"/><path d="M282.88 355.35h-49.25a.49.49 0 0 1-.45-.7L250 317a.52.52 0 0 1 .31-.27.48.48 0 0 1 .42.05l9.62 6.13 15-26.08a.48.48 0 0 1 .39-.25.51.51 0 0 1 .42.17l7.09 8.33a.47.47 0 0 1 .12.32v49.43a.5.5 0 0 1-.49.52m-48.47-1h48v-48.74l-6.54-7.61L261 323.88a.55.55 0 0 1-.32.24.5.5 0 0 1-.39-.07L250.7 318Z" style="fill:#263238"/><path d="M250.78 298.62a5.19 5.19 0 1 1-5.18-5.18 5.19 5.19 0 0 1 5.18 5.18" style="fill:#92e3a9"/><path d="M245.6 304.31a5.69 5.69 0 1 1 5.68-5.69 5.69 5.69 0 0 1-5.68 5.69m0-10.37a4.69 4.69 0 1 0 4.68 4.68 4.69 4.69 0 0 0-4.68-4.68" style="fill:#263238"/><path d="M287.62 285.67h49.25v69.18h-49.25z" style="fill:#fff"/><path d="M336.87 355.35h-49.25a.5.5 0 0 1-.5-.5v-69.18a.5.5 0 0 1 .5-.5h49.25a.51.51 0 0 1 .5.5v69.18a.5.5 0 0 1-.5.5m-48.75-1h48.25v-68.18h-48.25Z" style="fill:#263238"/><path d="m336.87 305.42-7.1-8.32-15.25 26.53-10.06-6.4-16.84 37.62h49.25z" style="fill:#92e3a9"/><path d="M336.87 355.35h-49.25a.48.48 0 0 1-.42-.23.49.49 0 0 1 0-.47L304 317a.5.5 0 0 1 .32-.27.46.46 0 0 1 .41.05l9.62 6.13 15-26.08a.5.5 0 0 1 .39-.25.54.54 0 0 1 .43.17l7.09 8.33a.53.53 0 0 1 .12.32v49.43a.5.5 0 0 1-.51.52m-48.48-1h48v-48.74l-6.54-7.61L315 323.88a.52.52 0 0 1-.32.24.47.47 0 0 1-.38-.07l-9.62-6.05Z" style="fill:#263238"/><path d="M304.77 298.62a5.19 5.19 0 1 1-5.19-5.18 5.2 5.2 0 0 1 5.19 5.18" style="fill:#92e3a9"/><path d="M299.58 304.31a5.69 5.69 0 1 1 5.69-5.69 5.69 5.69 0 0 1-5.69 5.69m0-10.37a4.69 4.69 0 1 0 4.69 4.68 4.69 4.69 0 0 0-4.69-4.68" style="fill:#263238"/><path d="M179.65 285.67h49.25v69.18h-49.25z" style="fill:#fff"/><path d="M228.9 355.35h-49.25a.5.5 0 0 1-.5-.5v-69.18a.51.51 0 0 1 .5-.5h49.25a.5.5 0 0 1 .5.5v69.18a.5.5 0 0 1-.5.5m-48.75-1h48.25v-68.18h-48.25Z" style="fill:#263238"/><path d="M204.22 303.05A12.19 12.19 0 0 0 192 315.24C192 322 204.22 335 204.22 335s12.19-13 12.19-19.78a12.19 12.19 0 0 0-12.19-12.17m0 17a4.79 4.79 0 1 1 4.79-4.79 4.78 4.78 0 0 1-4.79 4.74Z" style="fill:#92e3a9"/><path d="M204.22 335.52a.48.48 0 0 1-.36-.16c-.51-.54-12.33-13.27-12.33-20.12a12.69 12.69 0 0 1 25.38 0c0 6.85-11.82 19.58-12.32 20.12a.52.52 0 0 1-.37.16m0-32a11.7 11.7 0 0 0-11.69 11.69c0 5.81 9.67 16.81 11.69 19 2-2.23 11.69-13.23 11.69-19a11.7 11.7 0 0 0-11.69-11.66Zm0 17a5.29 5.29 0 1 1 5.29-5.29 5.29 5.29 0 0 1-5.29 5.3Zm0-9.58a4.29 4.29 0 1 0 4.29 4.29 4.29 4.29 0 0 0-4.29-4.23Z" style="fill:#263238"/><path d="M228.4 323.67h-7.16a.5.5 0 0 1-.5-.5v-28.48h-28.17a.5.5 0 0 1-.5-.5v-7.79a.51.51 0 0 1 .5-.5.5.5 0 0 1 .5.5v7.29h28.17a.51.51 0 0 1 .5.5v28.48h6.66a.5.5 0 0 1 .5.5.5.5 0 0 1-.5.5" style="fill:#263238"/><path d="M180.11 309a.52.52 0 0 1-.33-.12.49.49 0 0 1-.05-.7l12.47-14.34a.5.5 0 0 1 .75.66l-12.46 14.33a.52.52 0 0 1-.38.17M209.4 354.82a.5.5 0 0 1-.5-.5v-16.51a.5.5 0 0 1 .5-.5h11.34v-14.14a.5.5 0 0 1 .5-.5.5.5 0 0 1 .5.5v14.64a.5.5 0 0 1-.5.5H209.9v16a.5.5 0 0 1-.5.51" style="fill:#263238"/><path d="M228.71 344.85h-40.19a.5.5 0 0 1-.5-.5v-9.78h-7.6a.5.5 0 0 1 0-1h8.1a.5.5 0 0 1 .5.5v9.78h39.69a.5.5 0 0 1 .5.5.5.5 0 0 1-.5.5" style="fill:#263238"/><path d="M195.69 354.82a.5.5 0 0 1-.5-.5v-9.66a.5.5 0 0 1 1 0v9.66a.5.5 0 0 1-.5.5M211.11 304.82a.5.5 0 0 1-.35-.15.5.5 0 0 1 0-.71l10-10v-7.56a.5.5 0 0 1 .5-.5.51.51 0 0 1 .5.5v7.79a.53.53 0 0 1-.15.36l-10.13 10.12a.47.47 0 0 1-.37.15M193.82 322.11h-13.71a.5.5 0 0 1 0-1h13.71a.5.5 0 1 1 0 1" style="fill:#263238"/><path d="M192.03 166.11h131.85v89.27H192.03z" style="fill:#fff"/><path d="M323.87 255.88H192a.5.5 0 0 1-.5-.5v-89.27a.5.5 0 0 1 .5-.5h131.87a.5.5 0 0 1 .5.5v89.27a.5.5 0 0 1-.5.5m-131.34-1h130.84v-88.27H192.53Z" style="fill:#263238"/><path d="M192.03 237.86h131.85v17.53H192.03z" style="fill:#92e3a9"/><path d="M323.87 255.88H192a.5.5 0 0 1-.5-.5v-17.52a.5.5 0 0 1 .5-.5h131.87a.5.5 0 0 1 .5.5v17.52a.5.5 0 0 1-.5.5m-131.34-1h130.84v-16.52H192.53Z" style="fill:#263238"/><path d="M277.97 168.69h44.52v50.52h-44.52z" style="fill:#fff"/><path d="M322.49 219.72H278a.51.51 0 0 1-.5-.5v-50.53a.51.51 0 0 1 .5-.5h44.52a.5.5 0 0 1 .5.5v50.53a.5.5 0 0 1-.53.5m-44-1H322v-49.53h-43.53Z" style="fill:#263238"/><path d="M193.46 168.69h44.52v50.52h-44.52z" style="fill:#fff"/><path d="M238 219.72h-44.54a.5.5 0 0 1-.5-.5v-50.53a.5.5 0 0 1 .5-.5H238a.51.51 0 0 1 .5.5v50.53a.51.51 0 0 1-.5.5m-44-1h43.52v-49.53H194ZM322.49 192.33l-44.52 15.55v-39.19h44.52z" style="fill:#263238"/><path d="M278 208.38a.49.49 0 0 1-.5-.5v-39.19a.51.51 0 0 1 .5-.5h44.52a.5.5 0 0 1 .5.5v23.64a.5.5 0 0 1-.33.47l-44.52 15.55a.5.5 0 0 1-.17.03m.5-39.19v38L322 192v-22.81ZM237.97 192.33l-44.51 18.48v-42.12h44.51z" style="fill:#263238"/><path d="M193.46 211.31a.54.54 0 0 1-.28-.08.51.51 0 0 1-.22-.42v-42.12a.5.5 0 0 1 .5-.5H238a.51.51 0 0 1 .5.5v23.64a.51.51 0 0 1-.31.46l-44.52 18.48a.43.43 0 0 1-.21.04m.5-42.12v40.87L237.48 192v-22.81Zm44 23.14" style="fill:#263238"/><path d="M239.75 166.11h36.4v89.27h-36.4z" style="fill:#92e3a9"/><path d="M276.15 255.88h-36.4a.5.5 0 0 1-.5-.5v-89.27a.51.51 0 0 1 .5-.5h36.4a.51.51 0 0 1 .5.5v89.27a.5.5 0 0 1-.5.5m-35.9-1h35.4v-88.27h-35.4Z" style="fill:#263238"/><path d="M241.81 214.87h32.28V252h-32.28Zm0-45.39v37.15h32.28v-37.15Z" style="fill:#fff"/><path d="M274.09 252.52h-32.28a.51.51 0 0 1-.5-.5v-37.15a.5.5 0 0 1 .5-.5h32.28a.5.5 0 0 1 .5.5V252a.51.51 0 0 1-.5.52m-31.78-1h31.28v-36.15h-31.28Zm31.78-44.39h-32.28a.5.5 0 0 1-.5-.5v-37.15a.51.51 0 0 1 .5-.5h32.28a.51.51 0 0 1 .5.5v37.15a.5.5 0 0 1-.5.5m-31.78-1h31.28V170h-31.28Z" style="fill:#263238"/><path d="M274.09 247.78v-4.58l-22.67 8.82H263zM241.81 195.84l32.28-14.09v-12.27h-32.28zM261.12 206.63l12.97-4.96v-4.1l-23.32 9.06zM241.81 246.54l32.28-13.24v-18.43h-32.28z" style="fill:#263238"/><path d="M190.19 167.88v.5a7.54 7.54 0 0 0 15.07 0v-.5Z" style="fill:#fff"/><path d="M197.7 176.41a8 8 0 0 1-8-8v-.53a.5.5 0 0 1 .5-.47h15a.5.5 0 0 1 .5.47v.53a8 8 0 0 1-8 8m-7-8a7 7 0 0 0 14.07 0Z" style="fill:#263238"/><path d="M204.39 167.88v.5a7.53 7.53 0 0 0 15.06 0v-.5Z" style="fill:#92e3a9"/><path d="M211.9 176.41a8 8 0 0 1-8-8v-.44a.61.61 0 0 1 .51-.56h15a.5.5 0 0 1 .5.46v.54a8 8 0 0 1-8.01 8m-7-8a7 7 0 0 0 14.06 0Z" style="fill:#263238"/><path d="M219.49 167.88v.5a7.53 7.53 0 0 0 15.06 0v-.5Z" style="fill:#fff"/><path d="M227 176.41a8 8 0 0 1-8-8v-.45a.59.59 0 0 1 .5-.55h15a.5.5 0 0 1 .5.46v.54a8 8 0 0 1-8 8m-7-8a7 7 0 0 0 14.06 0Z" style="fill:#263238"/><path d="M234.59 167.88v.5a7.53 7.53 0 0 0 15.06 0v-.5Z" style="fill:#92e3a9"/><path d="M242.1 176.41a8 8 0 0 1-8-8v-.53a.5.5 0 0 1 .5-.47h15a.5.5 0 0 1 .5.47v.53a8 8 0 0 1-8 8m-7-8a7 7 0 0 0 14.06 0Z" style="fill:#263238"/><path d="M249.69 167.88v.5a7.53 7.53 0 0 0 15.06 0v-.5Z" style="fill:#fff"/><path d="M257.2 176.41a8 8 0 0 1-8-8v-.53a.5.5 0 0 1 .5-.47h15a.5.5 0 0 1 .5.47v.53a8 8 0 0 1-8 8m-7-8a7 7 0 0 0 14.06 0Z" style="fill:#263238"/><path d="M265 167.88v.5a7.53 7.53 0 1 0 15.06 0v-.5Z" style="fill:#92e3a9"/><path d="M272.48 176.41a8 8 0 0 1-8-8v-.45a.59.59 0 0 1 .5-.55h15a.5.5 0 0 1 .5.47v.53a8 8 0 0 1-8 8m-7-8a7 7 0 1 0 14.06 0Z" style="fill:#263238"/><path d="M280.07 167.88v.5a7.53 7.53 0 0 0 15.06 0v-.5Z" style="fill:#fff"/><path d="M287.58 176.41a8 8 0 0 1-8-8v-.53a.5.5 0 0 1 .5-.47h15a.5.5 0 0 1 .5.47v.53a8 8 0 0 1-8 8m-7-8a7 7 0 0 0 14.06 0Z" style="fill:#263238"/><path d="M295.89 167.88v.5a7.53 7.53 0 0 0 15.06 0v-.5Z" style="fill:#92e3a9"/><path d="M303.4 176.41a8 8 0 0 1-8-8v-.53a.5.5 0 0 1 .5-.47h15a.5.5 0 0 1 .5.47v.53a8 8 0 0 1-8 8m-7-8a7 7 0 0 0 14.06 0Z" style="fill:#263238"/><path d="M311 167.88v.5a7.53 7.53 0 0 0 15.06 0v-.5Z" style="fill:#fff"/><path d="M318.5 176.41a8 8 0 0 1-8-8v-.53a.5.5 0 0 1 .5-.47h15a.5.5 0 0 1 .5.47v.53a8 8 0 0 1-8 8m-7-8a7 7 0 1 0 14.06 0Z" style="fill:#263238"/><path d="M275 211.25a2.21 2.21 0 1 0-2.21 2.21 2.2 2.2 0 0 0 2.21-2.21" style="fill:#fff"/><path d="M272.77 214a2.71 2.71 0 1 1 2.71-2.71 2.71 2.71 0 0 1-2.71 2.71m0-4.41a1.71 1.71 0 1 0 1.71 1.7 1.71 1.71 0 0 0-1.71-1.74Z" style="fill:#263238"/><circle cx="272.77" cy="211.25" r=".56" style="fill:#fff"/><path d="M272.77 212.32a1.07 1.07 0 1 1 1.07-1.07 1.07 1.07 0 0 1-1.07 1.07m0-1.13v.13l.07-.07a.07.07 0 0 0-.07-.06" style="fill:#263238"/><path d="m312.92 143.35-109.09.59-13.64 24.07h136.03z" style="fill:#fff"/><path d="M326.22 168.51h-136a.48.48 0 0 1-.43-.25.48.48 0 0 1 0-.49l13.63-24.08a.52.52 0 0 1 .43-.25l109.1-.59a.51.51 0 0 1 .44.26l13.3 24.66a.5.5 0 0 1-.44.74Zm-135.17-1h134.33l-12.76-23.66-108.5.59Z" style="fill:#263238"/><path d="m300.68 143.41-96.85.53-13.64 24.07h120.69z" style="fill:#92e3a9"/><path d="M310.88 168.51H190.19a.48.48 0 0 1-.43-.25.48.48 0 0 1 0-.49l13.63-24.08a.52.52 0 0 1 .43-.25l96.86-.53a.5.5 0 0 1 .46.31l10.2 24.6a.49.49 0 0 1 0 .47.51.51 0 0 1-.46.22m-119.83-1h119.08l-9.78-23.6-96.23.53Z" style="fill:#263238"/><path d="m288.33 143.48-84.5.46-13.64 24.07h105.22z" style="fill:#fff"/><path d="M295.41 168.51H190.19a.48.48 0 0 1-.43-.25.48.48 0 0 1 0-.49l13.63-24.08a.52.52 0 0 1 .43-.25l84.5-.46a.49.49 0 0 1 .49.36l7.08 24.53a.46.46 0 0 1-.08.44.48.48 0 0 1-.4.2m-104.36-1h103.7L288 144l-83.83.46Z" style="fill:#263238"/><path d="m276.24 143.54-72.41.4-13.64 24.07h90.12z" style="fill:#92e3a9"/><path d="M280.31 168.51h-90.12a.48.48 0 0 1-.43-.25.48.48 0 0 1 0-.49l13.63-24.08a.52.52 0 0 1 .43-.25l72.42-.4a.51.51 0 0 1 .5.42l4.06 24.47a.51.51 0 0 1-.11.41.5.5 0 0 1-.38.17m-89.26-1h88.67l-3.9-23.46-71.7.39Z" style="fill:#263238"/><path d="m263.8 143.61-59.97.33-13.64 24.07h74.58z" style="fill:#fff"/><path d="M264.77 168.51h-74.58a.48.48 0 0 1-.43-.25.48.48 0 0 1 0-.49l13.63-24.08a.52.52 0 0 1 .43-.25l60-.33a.5.5 0 0 1 .5.48l1 24.4a.47.47 0 0 1-.14.37.48.48 0 0 1-.41.15m-73.72-1h73.2l-.93-23.4-59.2.33Z" style="fill:#263238"/><path d="m251.55 143.68-47.72.26-13.64 24.07h59.31z" style="fill:#92e3a9"/><path d="M249.5 168.51h-59.31a.48.48 0 0 1-.43-.25.48.48 0 0 1 0-.49l13.63-24.08a.52.52 0 0 1 .43-.25l47.73-.26a.5.5 0 0 1 .5.54L250 168.05a.5.5 0 0 1-.5.46m-58.45-1h58l2-23.33-46.89.26Z" style="fill:#263238"/><path d="m239.58 143.74-35.75.2-13.64 24.07h44.41z" style="fill:#fff"/><path d="M234.6 168.51h-44.41a.48.48 0 0 1-.43-.25.48.48 0 0 1 0-.49l13.63-24.08a.52.52 0 0 1 .43-.25l35.76-.2a.58.58 0 0 1 .39.19.47.47 0 0 1 .1.41l-5 24.27a.5.5 0 0 1-.47.4m-43.55-1h43.14l4.81-23.26-34.85.19Z" style="fill:#263238"/><path d="m227.49 143.81-23.66.13-13.64 24.07h29.37z" style="fill:#92e3a9"/><path d="M219.56 168.51h-29.37a.48.48 0 0 1-.43-.25.48.48 0 0 1 0-.49l13.63-24.08a.52.52 0 0 1 .43-.25l23.67-.13a.54.54 0 0 1 .41.2.52.52 0 0 1 .07.45L220 168.17a.51.51 0 0 1-.44.34m-28.51-1h28.15l7.6-23.2-22.68.13Z" style="fill:#263238"/><path d="m215.46 143.87-11.63.07-13.64 24.07h14.43z" style="fill:#fff"/><path d="M204.61 168.51h-14.42a.48.48 0 0 1-.43-.25.48.48 0 0 1 0-.49l13.63-24.08a.52.52 0 0 1 .43-.25l11.63-.07a.5.5 0 0 1 .46.71l-10.84 24.14a.5.5 0 0 1-.46.29m-13.56-1h13.24l10.39-23.13-10.56.06Z" style="fill:#263238"/><path d="M411.29 320.61h2v110.38h-2z" style="fill:#263238" transform="rotate(-5.96 412.19 375.676)"/><path d="M412.57 403.16h2v7.56h-2z" style="fill:#263238" transform="rotate(-43.43 413.62 406.961)"/><path d="M412.56 405.84a5.92 5.92 0 0 0-2.07-4.41c-1.34-1.19-8.35-4.14-9-1.67-.74 2.69 6.44 7.97 11.07 6.08" style="fill:#92e3a9"/><path d="M410.37 406.75a11.86 11.86 0 0 1-7.31-3.05c-1.62-1.44-2.38-2.92-2.07-4.07a1.66 1.66 0 0 1 1.24-1.19c2.31-.69 7.4 1.56 8.59 2.62a6.33 6.33 0 0 1 2.23 4.81v.31l-.29.12a6.2 6.2 0 0 1-2.39.45m-7.1-7.45a3 3 0 0 0-.76.09c-.41.13-.51.33-.56.5-.19.73.5 1.94 1.78 3.06 2.2 1.94 5.7 3.39 8.32 2.54a5.5 5.5 0 0 0-1.9-3.68 15 15 0 0 0-6.88-2.51" style="fill:#263238"/><path d="M408.97 399.82h.5v7.87h-.5z" style="fill:#263238" transform="rotate(-58 409.666 402.839)"/><path d="M413.88 415.65h2v7.56h-2z" style="fill:#263238" transform="rotate(-43.43 414.928 419.454)"/><path d="M413.86 418.33a5.88 5.88 0 0 0-2.07-4.41c-1.33-1.19-8.35-4.14-9-1.67-.74 2.69 6.44 7.96 11.07 6.08" style="fill:#92e3a9"/><path d="M411.67 419.23a11.85 11.85 0 0 1-7.3-3c-1.63-1.44-2.39-2.92-2.08-4.07a1.7 1.7 0 0 1 1.24-1.2c2.31-.69 7.4 1.56 8.59 2.63a6.4 6.4 0 0 1 2.24 4.81v.31l-.29.12a6.4 6.4 0 0 1-2.4.4m-7.09-7.44a2.8 2.8 0 0 0-.76.09c-.41.12-.52.33-.56.5-.2.73.5 1.93 1.77 3.06 2.2 1.94 5.71 3.38 8.32 2.54a5.48 5.48 0 0 0-1.89-3.69 15.1 15.1 0 0 0-6.88-2.5" style="fill:#263238"/><path d="M410.27 412.31h.5v7.87h-.5z" style="fill:#263238" transform="rotate(-58 410.96 415.307)"/><path d="M409.39 372.69h2v7.56h-2z" style="fill:#263238" transform="rotate(-43.43 410.44 376.486)"/><path d="M409.38 375.37a5.92 5.92 0 0 0-2.07-4.41c-1.34-1.19-8.35-4.14-9-1.67-.74 2.71 6.44 7.97 11.07 6.08" style="fill:#92e3a9"/><path d="M407.19 376.28a11.86 11.86 0 0 1-7.31-3c-1.62-1.44-2.38-2.92-2.07-4.07a1.66 1.66 0 0 1 1.24-1.19c2.31-.69 7.4 1.56 8.59 2.62a6.33 6.33 0 0 1 2.23 4.81v.31l-.29.12a6.2 6.2 0 0 1-2.39.4m-7.1-7.45a2.5 2.5 0 0 0-.76.1.7.7 0 0 0-.56.49c-.19.74.5 1.94 1.78 3.06 2.2 1.94 5.7 3.39 8.32 2.54a5.5 5.5 0 0 0-1.9-3.68 15.06 15.06 0 0 0-6.88-2.51" style="fill:#263238"/><path d="M405.79 369.35h.5v7.87h-.5z" style="fill:#263238" transform="rotate(-58.07 406 373.283)"/><path d="M410.7 385.18h2v7.56h-2z" style="fill:#263238" transform="rotate(-43.43 411.748 388.979)"/><path d="M410.68 387.86a5.88 5.88 0 0 0-2.07-4.41c-1.33-1.19-8.35-4.14-9-1.67-.74 2.69 6.44 7.97 11.07 6.08" style="fill:#92e3a9"/><path d="M408.49 388.76a11.85 11.85 0 0 1-7.3-3c-1.63-1.44-2.39-2.92-2.08-4.07a1.7 1.7 0 0 1 1.24-1.2c2.32-.69 7.4 1.56 8.59 2.63a6.4 6.4 0 0 1 2.24 4.81v.31l-.29.12a6.2 6.2 0 0 1-2.4.4m-7.09-7.44a2.8 2.8 0 0 0-.76.09c-.41.12-.52.33-.56.5-.2.73.5 1.93 1.77 3.06 2.2 1.94 5.71 3.38 8.32 2.54a5.48 5.48 0 0 0-1.89-3.69 15.1 15.1 0 0 0-6.88-2.5" style="fill:#263238"/><path d="M407.09 381.84h.5v7.87h-.5z" style="fill:#263238" transform="rotate(-58.08 407.313 385.765)"/><path d="M407.28 352.41h2v7.56h-2z" style="fill:#263238" transform="rotate(-43.43 408.318 356.208)"/><path d="M407.26 355.09a5.88 5.88 0 0 0-2.07-4.41c-1.33-1.19-8.35-4.14-9-1.67-.74 2.69 6.44 7.99 11.07 6.08" style="fill:#92e3a9"/><path d="M405.07 356a11.85 11.85 0 0 1-7.3-3c-1.63-1.44-2.39-2.92-2.08-4.07a1.7 1.7 0 0 1 1.24-1.2c2.32-.68 7.4 1.56 8.59 2.63a6.4 6.4 0 0 1 2.24 4.81v.31l-.29.12a6.2 6.2 0 0 1-2.4.4m-7.07-7.45a2.8 2.8 0 0 0-.76.09c-.41.12-.52.33-.56.5-.2.73.5 1.93 1.77 3.06 2.2 1.94 5.71 3.38 8.32 2.54a5.5 5.5 0 0 0-1.89-3.69 15.06 15.06 0 0 0-6.88-2.5" style="fill:#263238"/><path d="M403.67 349.07h.5v7.87h-.5z" style="fill:#263238" transform="rotate(-58.08 403.888 352.996)"/><path d="M405.15 332.04h2v7.56h-2z" style="fill:#263238" transform="rotate(-43.43 406.194 335.827)"/><path d="M405.13 334.72a5.9 5.9 0 0 0-2.06-4.41c-1.34-1.19-8.35-4.14-9-1.67-.74 2.69 6.44 7.97 11.06 6.08" style="fill:#92e3a9"/><path d="M403 335.62a11.9 11.9 0 0 1-7.31-3c-1.63-1.44-2.38-2.92-2.07-4.07a1.68 1.68 0 0 1 1.24-1.2c2.31-.69 7.4 1.56 8.59 2.63a6.32 6.32 0 0 1 2.23 4.81v.31l-.29.12a6.2 6.2 0 0 1-2.39.4m-7.1-7.44a2.9 2.9 0 0 0-.76.09.7.7 0 0 0-.56.5c-.2.73.5 1.93 1.77 3.06 2.21 1.94 5.71 3.38 8.33 2.54a5.53 5.53 0 0 0-1.9-3.69 15.06 15.06 0 0 0-6.93-2.5Z" style="fill:#263238"/><path d="M401.54 328.7h.5v7.87h-.5z" style="fill:#263238" transform="rotate(-58 402.107 331.765)"/><path d="M413.5 398.07h7.56v2h-7.56z" style="fill:#263238" transform="rotate(-58.5 417.261 399.07)"/><path d="M418 397.79a5.9 5.9 0 0 1 1.12-4.74c1-1.44 7.31-5.78 8.47-3.5 1.31 2.45-4.59 9.13-9.59 8.24" style="fill:#92e3a9"/><path d="M419 398.37a6 6 0 0 1-1-.09l-.31-.06-.08-.3a6.35 6.35 0 0 1 1.19-5.17c.95-1.28 5.43-4.55 7.87-4.34a1.68 1.68 0 0 1 1.46.92c.54 1.05.1 2.66-1.19 4.4-1.8 2.35-4.94 4.64-7.94 4.64m-.52-1c2.74.29 5.86-1.85 7.62-4.2 1-1.37 1.44-2.68 1.1-3.36a.69.69 0 0 0-.65-.37c-2-.16-6.15 2.81-7 3.94a5.5 5.5 0 0 0-1.08 3.96Z" style="fill:#263238"/><path d="M416.89 394.66h8.32v.5h-8.32z" style="fill:#263238" transform="rotate(-43.73 421.098 394.93)"/><path d="M410.07 365.22h7.55v2h-7.55z" style="fill:#263238" transform="rotate(-58.5 413.836 366.212)"/><path d="M414.61 364.93a5.9 5.9 0 0 1 1.12-4.74c1.06-1.44 7.31-5.77 8.47-3.49 1.27 2.48-4.67 9.12-9.59 8.23" style="fill:#92e3a9"/><path d="M415.56 365.51a5.2 5.2 0 0 1-1-.09l-.31-.05-.08-.31a6.33 6.33 0 0 1 1.19-5.16c.95-1.29 5.44-4.55 7.87-4.35a1.68 1.68 0 0 1 1.46.92c.54 1.06.1 2.66-1.19 4.41-1.79 2.35-4.89 4.63-7.94 4.63m-.52-1c2.74.28 5.86-1.85 7.62-4.21 1-1.36 1.44-2.68 1.1-3.36a.72.72 0 0 0-.65-.37c-1.93-.15-6.15 2.81-7 3.94a5.52 5.52 0 0 0-1.11 3.98Z" style="fill:#263238"/><path d="M413.46 361.81h8.32v.5h-8.32z" style="fill:#263238" transform="rotate(-43.73 417.674 362.078)"/><path d="M408.56 350.78h7.55v2h-7.55z" style="fill:#263238" transform="rotate(-58.5 412.328 351.775)"/><path d="M413.11 350.49a5.88 5.88 0 0 1 1.11-4.74c1.06-1.44 7.31-5.77 8.48-3.49 1.3 2.48-4.7 9.12-9.59 8.23" style="fill:#92e3a9"/><path d="M414.05 351.08a5 5 0 0 1-1-.1l-.31-.05-.09-.31a6.4 6.4 0 0 1 1.2-5.16c.94-1.29 5.47-4.54 7.86-4.35a1.68 1.68 0 0 1 1.46.92c.54 1.06.11 2.67-1.19 4.41-1.78 2.35-4.88 4.64-7.93 4.64m-.52-1c2.72.28 5.86-1.85 7.62-4.21 1-1.36 1.45-2.68 1.1-3.36a.71.71 0 0 0-.65-.37c-1.94-.16-6.15 2.81-7 3.94a5.53 5.53 0 0 0-1.07 3.97Z" style="fill:#263238"/><path d="M411.95 347.37h8.32v.5h-8.32z" style="fill:#263238" transform="rotate(-43.73 416.166 347.629)"/><path d="M406.35 329.61h7.55v2h-7.55z" style="fill:#263238" transform="rotate(-58.5 410.118 330.61)"/><path d="M410.9 329.32a5.88 5.88 0 0 1 1.11-4.74c1.06-1.44 7.32-5.77 8.48-3.49 1.26 2.48-4.68 9.13-9.59 8.23" style="fill:#92e3a9"/><path d="M411.84 329.91a5 5 0 0 1-1-.1l-.31-.05-.08-.3a6.35 6.35 0 0 1 1.19-5.17c.94-1.29 5.44-4.55 7.86-4.34a1.67 1.67 0 0 1 1.46.91c.54 1.06.11 2.67-1.19 4.41-1.77 2.35-4.88 4.64-7.93 4.64m-.52-1c2.73.29 5.87-1.85 7.62-4.21 1-1.36 1.45-2.68 1.1-3.36a.71.71 0 0 0-.65-.37c-1.92-.18-6.15 2.81-7 3.94a5.53 5.53 0 0 0-1.07 3.97Z" style="fill:#263238"/><path d="M409.74 326.2h8.32v.5h-8.32z" style="fill:#263238" transform="rotate(-43.73 413.956 326.46)"/><path d="M406.46 320.29a5.88 5.88 0 0 1 1.12-4.73c1.06-1.44 7.31-5.78 8.47-3.5 1.27 2.48-4.67 9.13-9.59 8.23" style="fill:#92e3a9"/><path d="M407.41 320.88a6 6 0 0 1-1-.09l-.3-.06-.09-.3a6.35 6.35 0 0 1 1.19-5.17c.95-1.29 5.43-4.56 7.87-4.34a1.67 1.67 0 0 1 1.46.91c.54 1.06.1 2.67-1.19 4.41-1.79 2.35-4.89 4.64-7.94 4.64m-.52-1c2.73.29 5.86-1.85 7.62-4.2 1-1.37 1.44-2.69 1.1-3.36a.69.69 0 0 0-.65-.37c-1.95-.16-6.15 2.81-7 3.93a5.53 5.53 0 0 0-1.07 3.97Z" style="fill:#263238"/><path d="M405.31 317.17h8.32v.5h-8.32z" style="fill:#263238" transform="rotate(-43.73 409.52 317.433)"/><path d="M406.81 320.54a5.86 5.86 0 0 1-4.59-1.6c-1.32-1.21-5-7.88-2.59-8.8 2.6-.99 8.59 5.61 7.18 10.4" style="fill:#92e3a9"/><path d="M406.28 321.08a6.54 6.54 0 0 1-4.4-1.77c-1.18-1.08-3.94-5.91-3.49-8.28a1.71 1.71 0 0 1 1.06-1.36c1.11-.42 2.66.18 4.26 1.65 2.4 2.21 4.54 6.09 3.58 9.36l-.09.3-.31.06a5 5 0 0 1-.61.04m-6.08-10.54a1 1 0 0 0-.39.07.7.7 0 0 0-.44.61c-.36 1.91 2.15 6.41 3.18 7.35a5.44 5.44 0 0 0 3.87 1.5c.57-2.68-1.23-6-3.39-8a4.9 4.9 0 0 0-2.83-1.53" style="fill:#263238"/><path d="M404.02 313.09h.5v8.32h-.5z" style="fill:#263238" transform="rotate(-37.69 404.218 317.225)"/><path d="M375.89 389.92h110.38v2H375.89z" style="fill:#263238" transform="rotate(-84.06 431.091 390.918)"/><path d="M424.93 417.88h2v7.56h-2z" style="fill:#263238" transform="rotate(-31.55 425.926 421.657)"/><path d="M425.16 420.37a5.88 5.88 0 0 0-1.12-4.73c-1.06-1.44-7.32-5.78-8.48-3.5-1.26 2.49 4.68 9.13 9.6 8.23" style="fill:#92e3a9"/><path d="M424.21 421c-3 0-6.15-2.29-7.9-4.64-1.3-1.74-1.73-3.34-1.19-4.4a1.68 1.68 0 0 1 1.46-.92c2.4-.2 6.92 3.05 7.87 4.34a6.35 6.35 0 0 1 1.19 5.17l-.08.3-.31.06a6 6 0 0 1-1.04.09m-7.4-9h-.15a.69.69 0 0 0-.65.37c-.34.68.09 2 1.1 3.36 1.76 2.35 4.89 4.49 7.62 4.2a5.48 5.48 0 0 0-1.09-4c-.81-1.09-4.83-3.93-6.83-3.93" style="fill:#263238"/><path d="m424.99 420.55-5.68-5.45.34-.36 5.68 5.45z" style="fill:#263238"/><path d="M428.09 387.41h2v7.55h-2z" style="fill:#263238" transform="rotate(-31.55 429.134 391.22)"/><path d="M428.32 389.9a5.84 5.84 0 0 0-1.12-4.73c-1.05-1.44-7.31-5.78-8.47-3.5-1.27 2.49 4.68 9.13 9.59 8.23" style="fill:#92e3a9"/><path d="M427.37 390.49c-3 0-6.15-2.29-7.9-4.63-1.29-1.75-1.73-3.35-1.19-4.41a1.68 1.68 0 0 1 1.46-.92c2.4-.2 6.92 3.05 7.87 4.34a6.35 6.35 0 0 1 1.19 5.13l-.08.3-.31.06a6 6 0 0 1-1.04.13m-7.39-9h-.16a.7.7 0 0 0-.65.37c-.34.68.09 2 1.11 3.36 1.75 2.35 4.89 4.5 7.62 4.2a5.5 5.5 0 0 0-1.1-4c-.8-1.05-4.8-3.9-6.8-3.9Z" style="fill:#263238"/><path d="m428.15 390.08-5.68-5.45.34-.36 5.68 5.45z" style="fill:#263238"/><path d="M426.8 399.9h2v7.56h-2z" style="fill:#263238" transform="rotate(-31.56 427.726 403.644)"/><path d="M427 402.39a5.88 5.88 0 0 0-1.11-4.74c-1.06-1.44-7.32-5.77-8.48-3.49-1.24 2.48 4.7 9.13 9.59 8.23" style="fill:#92e3a9"/><path d="M426.08 403c-3.05 0-6.15-2.28-7.9-4.63-1.3-1.74-1.73-3.35-1.2-4.41a1.72 1.72 0 0 1 1.46-.91c2.42-.18 6.93 3.05 7.87 4.34a6.36 6.36 0 0 1 1.2 5.16l-.09.31-.31.05a6 6 0 0 1-1.03.09m-7.4-9h-.15c-.43 0-.58.21-.65.37-.35.67.08 2 1.1 3.35 1.76 2.36 4.89 4.51 7.62 4.21a5.53 5.53 0 0 0-1.09-4c-.81-1.08-4.83-3.93-6.83-3.93" style="fill:#263238"/><path d="m426.85 402.57-5.68-5.45.35-.36 5.68 5.45z" style="fill:#263238"/><path d="M430.2 367.13h2v7.56h-2z" style="fill:#263238" transform="rotate(-31.55 431.189 370.892)"/><path d="M430.43 369.62a5.9 5.9 0 0 0-1.12-4.74c-1.06-1.44-7.32-5.77-8.48-3.49-1.26 2.48 4.68 9.13 9.6 8.23" style="fill:#92e3a9"/><path d="M429.48 370.2c-3.05 0-6.15-2.28-7.9-4.63-1.3-1.74-1.73-3.35-1.2-4.41a1.7 1.7 0 0 1 1.46-.91c2.4-.19 6.92 3.05 7.87 4.33a6.38 6.38 0 0 1 1.2 5.17l-.09.3-.31.06a6 6 0 0 1-1.03.09m-7.4-9h-.16a.68.68 0 0 0-.64.38c-.35.67.09 2 1.1 3.35 1.76 2.36 4.89 4.51 7.62 4.2a5.52 5.52 0 0 0-1.09-4c-.81-1.05-4.83-3.89-6.83-3.89Z" style="fill:#263238"/><path d="m430.25 369.8-5.68-5.45.35-.36 5.68 5.45z" style="fill:#263238"/><path d="M432.31 346.76h2v7.55h-2z" style="fill:#263238" transform="rotate(-31.55 433.359 350.56)"/><path d="M432.54 349.25a5.9 5.9 0 0 0-1.12-4.74c-1.06-1.44-7.31-5.77-8.48-3.49-1.26 2.48 4.68 9.12 9.6 8.23" style="fill:#92e3a9"/><path d="M431.59 349.83c-3 0-6.15-2.28-7.9-4.63-1.29-1.74-1.73-3.35-1.19-4.41a1.67 1.67 0 0 1 1.46-.91c2.42-.17 6.92 3.05 7.87 4.33a6.35 6.35 0 0 1 1.19 5.17l-.08.3-.31.06a6 6 0 0 1-1.04.09m-7.39-9h-.2a.71.71 0 0 0-.65.37c-.34.68.09 2 1.11 3.36 1.75 2.36 4.89 4.5 7.62 4.2a5.53 5.53 0 0 0-1.1-4c-.77-1.05-4.79-3.89-6.78-3.89Z" style="fill:#263238"/><path d="m432.37 349.43-5.68-5.45.34-.36 5.68 5.44z" style="fill:#263238"/><path d="M427.39 413.72h7.56v2h-7.56z" style="fill:#263238" transform="rotate(-46.58 431.192 414.734)"/><path d="M432.19 413.62a5.88 5.88 0 0 1 2.06-4.4c1.33-1.19 8.35-4.15 9-1.68.75 2.69-6.44 7.97-11.06 6.08" style="fill:#92e3a9"/><path d="M434.37 414.53a6.4 6.4 0 0 1-2.37-.44l-.29-.12v-.31a6.34 6.34 0 0 1 2.23-4.82c1.19-1.06 6.27-3.31 8.59-2.63a1.7 1.7 0 0 1 1.24 1.2c.31 1.15-.45 2.63-2.07 4.07a11.86 11.86 0 0 1-7.33 3.05m-1.68-1.25c2.62.84 6.12-.61 8.32-2.55 1.28-1.13 2-2.33 1.77-3.06 0-.17-.15-.38-.56-.5-1.86-.55-6.59 1.49-7.64 2.42a5.53 5.53 0 0 0-1.89 3.69" style="fill:#263238"/><path d="M431.56 411.18h8.32v.5h-8.32z" style="fill:#263238" transform="rotate(-31.77 435.695 411.408)"/><path d="M430.8 380.86h7.56v2h-7.56z" style="fill:#263238" transform="rotate(-46.58 434.613 381.87)"/><path d="M435.6 380.76a5.88 5.88 0 0 1 2.06-4.4c1.33-1.19 8.35-4.15 9-1.68.74 2.69-6.44 7.97-11.06 6.08" style="fill:#92e3a9"/><path d="M437.78 381.67a6.4 6.4 0 0 1-2.37-.44l-.29-.12v-.32a6.34 6.34 0 0 1 2.23-4.81c1.19-1.06 6.27-3.32 8.59-2.62a1.68 1.68 0 0 1 1.24 1.19c.31 1.15-.45 2.63-2.07 4.07a11.86 11.86 0 0 1-7.33 3.05m-1.68-1.25c2.62.84 6.12-.61 8.32-2.55 1.28-1.12 2-2.33 1.77-3.06 0-.17-.15-.37-.56-.5-1.86-.55-6.59 1.49-7.64 2.42a5.53 5.53 0 0 0-1.89 3.69" style="fill:#263238"/><path d="M434.97 378.32h8.32v.5h-8.32z" style="fill:#263238" transform="rotate(-31.77 439.1 378.55)"/><path d="M432.3 366.42h7.56v2h-7.56z" style="fill:#263238" transform="rotate(-46.58 436.104 367.436)"/><path d="M437.09 366.32a5.86 5.86 0 0 1 2.07-4.4c1.33-1.19 8.35-4.15 9-1.68.74 2.69-6.44 7.97-11.07 6.08" style="fill:#92e3a9"/><path d="M439.28 367.23a6.4 6.4 0 0 1-2.37-.44l-.29-.12v-.31a6.34 6.34 0 0 1 2.23-4.82c1.19-1.06 6.27-3.32 8.59-2.62a1.68 1.68 0 0 1 1.24 1.19c.31 1.15-.45 2.63-2.08 4.07a11.8 11.8 0 0 1-7.32 3.05M437.6 366c2.62.84 6.12-.61 8.32-2.55 1.28-1.13 2-2.33 1.77-3.06 0-.17-.15-.37-.56-.5-1.86-.55-6.6 1.49-7.64 2.42a5.53 5.53 0 0 0-1.89 3.69" style="fill:#263238"/><path d="M436.47 363.88h8.32v.5h-8.32z" style="fill:#263238" transform="rotate(-31.77 440.603 364.126)"/><path d="M434.5 345.25h7.55v2h-7.55z" style="fill:#263238" transform="rotate(-46.58 438.308 346.26)"/><path d="M439.29 345.15a5.86 5.86 0 0 1 2.07-4.4c1.33-1.19 8.34-4.15 9-1.68.74 2.69-6.44 7.93-11.07 6.08" style="fill:#92e3a9"/><path d="M441.47 346.06a6.4 6.4 0 0 1-2.37-.44l-.29-.12v-.31a6.4 6.4 0 0 1 2.23-4.81c1.19-1.07 6.28-3.32 8.59-2.63a1.66 1.66 0 0 1 1.24 1.19c.31 1.15-.44 2.63-2.07 4.07a11.84 11.84 0 0 1-7.33 3.05m-1.67-1.25c2.62.84 6.12-.6 8.32-2.55 1.27-1.13 2-2.33 1.77-3.06-.05-.17-.15-.37-.56-.5-1.87-.55-6.6 1.49-7.64 2.42a5.48 5.48 0 0 0-1.89 3.69" style="fill:#263238"/><path d="M438.67 342.71h8.32v.5h-8.32z" style="fill:#263238" transform="rotate(-31.77 442.794 342.946)"/><path d="M436.81 335.41a5.88 5.88 0 0 1 2.07-4.41c1.33-1.19 8.34-4.15 9-1.68.74 2.68-6.44 7.97-11.07 6.09" style="fill:#92e3a9"/><path d="M439 336.31a6.2 6.2 0 0 1-2.37-.44l-.29-.12v-.31a6.37 6.37 0 0 1 2.23-4.81c1.19-1.07 6.28-3.32 8.59-2.63a1.66 1.66 0 0 1 1.24 1.19c.31 1.15-.44 2.63-2.07 4.07a11.86 11.86 0 0 1-7.33 3.05m-1.67-1.25c2.61.84 6.12-.6 8.32-2.55 1.27-1.12 2-2.32 1.77-3.06a.7.7 0 0 0-.56-.49c-1.87-.56-6.6 1.48-7.64 2.41a5.45 5.45 0 0 0-1.9 3.69Z" style="fill:#263238"/><path d="m436.94 335.62-.26-.43 7.07-4.38.26.42z" style="fill:#263238"/><path d="M437.1 335.72a5.84 5.84 0 0 1-4.16-2.51c-1.05-1.45-3.25-8.74-.73-9.14 2.79-.44 7.25 7.25 4.89 11.65" style="fill:#92e3a9"/><path d="M437.39 336.23h-.31a6.31 6.31 0 0 1-4.55-2.72c-.94-1.3-2.64-6.59-1.71-8.82a1.68 1.68 0 0 1 1.31-1.11c1.18-.18 2.57.72 3.83 2.49 1.89 2.66 3.2 6.89 1.58 9.9Zm-4.95-11.68h-.15a.69.69 0 0 0-.55.5c-.75 1.8.78 6.72 1.6 7.85a5.44 5.44 0 0 0 3.47 2.27c1.11-2.51 0-6.15-1.66-8.54-.92-1.28-1.96-2.08-2.71-2.08" style="fill:#263238"/><path d="M435.04 327.82h.5v8.32h-.5z" style="fill:#263238" transform="rotate(-25.8 435.368 332.003)"/><path d="M422.72 291.31h2v138.84h-2z" style="fill:#263238"/><path d="M420.54 402.51h2v7.55h-2z" style="fill:#263238" transform="rotate(-37.8 418.014 406.53)"/><path d="M420.64 405.08a5.87 5.87 0 0 0-1.6-4.59c-1.2-1.32-7.88-5-8.8-2.6-.99 2.6 5.6 8.59 10.4 7.19" style="fill:#92e3a9"/><path d="M419.1 405.8c-2.85 0-5.84-1.83-7.68-3.83-1.47-1.6-2.07-3.15-1.64-4.26a1.67 1.67 0 0 1 1.35-1.06c2.38-.45 7.2 2.32 8.28 3.5a6.33 6.33 0 0 1 1.72 5l-.05.31-.3.08a6 6 0 0 1-1.68.26m-7.37-8.2a2.5 2.5 0 0 0-.41 0 .7.7 0 0 0-.61.44c-.27.71.3 2 1.45 3.22 2 2.17 5.32 4 8 3.4a5.54 5.54 0 0 0-1.5-3.87c-.87-.93-4.86-3.19-6.93-3.19" style="fill:#263238"/><path d="M417.28 398.73h.5v7.87h-.5z" style="fill:#263238" transform="rotate(-52.12 417.494 402.66)"/><path d="M420.54 376.41h2v7.56h-2z" style="fill:#263238" transform="rotate(-37.47 421.6 380.224)"/><path d="M420.64 379a5.86 5.86 0 0 0-1.6-4.59c-1.2-1.33-7.88-5-8.8-2.6-.99 2.59 5.6 8.58 10.4 7.19" style="fill:#92e3a9"/><path d="M419.1 379.71c-2.85 0-5.84-1.83-7.68-3.83-1.47-1.6-2.07-3.15-1.64-4.26a1.65 1.65 0 0 1 1.35-1.06c2.37-.45 7.2 2.32 8.28 3.5a6.32 6.32 0 0 1 1.72 5l-.05.31-.3.09a6 6 0 0 1-1.68.25m-7.37-8.21a2.5 2.5 0 0 0-.41 0c-.42.08-.55.27-.61.44-.27.71.3 2 1.45 3.22 2 2.17 5.32 4 8 3.39a5.52 5.52 0 0 0-1.5-3.86c-.87-.92-4.86-3.19-6.93-3.19" style="fill:#263238"/><path d="M417.28 372.64h.5v7.87h-.5z" style="fill:#263238" transform="rotate(-52.11 417.539 376.573)"/><path d="M420.54 345.78h2v7.56h-2z" style="fill:#263238" transform="rotate(-37.47 421.589 349.58)"/><path d="M420.64 348.36a5.9 5.9 0 0 0-1.6-4.6c-1.2-1.32-7.88-5-8.8-2.6-.99 2.6 5.6 8.6 10.4 7.2" style="fill:#92e3a9"/><path d="M419.1 349.07c-2.85 0-5.84-1.82-7.68-3.82-1.47-1.6-2.07-3.16-1.64-4.27a1.69 1.69 0 0 1 1.35-1.06c2.37-.45 7.2 2.32 8.28 3.51a6.31 6.31 0 0 1 1.72 5l-.05.31-.3.09a6 6 0 0 1-1.68.24m-7.37-8.2a1.7 1.7 0 0 0-.41 0 .68.68 0 0 0-.61.43c-.27.71.3 2 1.45 3.23 2 2.16 5.32 4 8 3.39a5.52 5.52 0 0 0-1.5-3.86c-.87-.93-4.86-3.19-6.93-3.19" style="fill:#263238"/><path d="M417.28 342.01h.5v7.87h-.5z" style="fill:#263238" transform="rotate(-52.11 417.536 345.946)"/><path d="M420.54 325.39h2v7.55h-2z" style="fill:#263238" transform="rotate(-37.8 418.36 329.714)"/><path d="M420.64 328a5.9 5.9 0 0 0-1.6-4.6c-1.2-1.32-7.88-5-8.8-2.6-.99 2.57 5.6 8.56 10.4 7.2" style="fill:#92e3a9"/><path d="M419.1 328.68c-2.85 0-5.84-1.83-7.68-3.83-1.47-1.6-2.07-3.15-1.64-4.26a1.67 1.67 0 0 1 1.35-1.06c2.38-.46 7.2 2.32 8.28 3.5a6.33 6.33 0 0 1 1.72 5l-.05.31-.3.09a6 6 0 0 1-1.68.25m-7.37-8.2a2.5 2.5 0 0 0-.41 0 .7.7 0 0 0-.61.44c-.27.71.3 2 1.45 3.23 2 2.16 5.32 4 8 3.39a5.5 5.5 0 0 0-1.5-3.86c-.87-.94-4.86-3.2-6.93-3.2" style="fill:#263238"/><path d="M417.28 321.61h.5v7.87h-.5z" style="fill:#263238" transform="rotate(-52.11 417.538 325.546)"/><path d="M420.54 304.9h2v7.56h-2z" style="fill:#263238" transform="rotate(-37.47 421.596 308.701)"/><path d="M420.64 307.48a5.87 5.87 0 0 0-1.6-4.59c-1.2-1.33-7.88-5-8.8-2.6-.99 2.6 5.6 8.59 10.4 7.19" style="fill:#92e3a9"/><path d="M419.1 308.2c-2.85 0-5.84-1.83-7.68-3.83-1.47-1.6-2.07-3.15-1.64-4.26a1.67 1.67 0 0 1 1.35-1.06c2.4-.44 7.2 2.32 8.28 3.5a6.33 6.33 0 0 1 1.72 5l-.05.31-.3.08a6 6 0 0 1-1.68.26m-7.37-8.2a2.5 2.5 0 0 0-.41 0 .7.7 0 0 0-.61.44c-.27.71.3 2 1.45 3.22 2 2.17 5.32 4 8 3.4a5.54 5.54 0 0 0-1.5-3.87c-.87-.93-4.86-3.19-6.93-3.19" style="fill:#263238"/><path d="M417.28 301.13h.5V309h-.5z" style="fill:#263238" transform="rotate(-52.12 417.494 305.067)"/><path d="M422.25 413.25h7.56v2h-7.56z" style="fill:#263238" transform="rotate(-52.54 426.005 414.241)"/><path d="M426.93 413.05a5.86 5.86 0 0 1 1.6-4.59c1.2-1.33 7.87-5 8.79-2.6 1 2.6-5.59 8.59-10.39 7.19" style="fill:#92e3a9"/><path d="M428.47 413.76a6 6 0 0 1-1.68-.23l-.3-.09-.05-.31a6.32 6.32 0 0 1 1.72-5c1.08-1.18 5.89-4 8.27-3.5a1.67 1.67 0 0 1 1.36 1.06c.43 1.11-.17 2.66-1.64 4.26-1.84 1.99-4.84 3.81-7.68 3.81m-1.07-1.11c2.68.57 6-1.23 8-3.39 1.15-1.25 1.72-2.51 1.45-3.22a.72.72 0 0 0-.61-.44c-1.9-.35-6.41 2.16-7.35 3.19a5.52 5.52 0 0 0-1.49 3.86" style="fill:#263238"/><path d="m427.08 413.25-.3-.4 6.58-5.09.3.39z" style="fill:#263238"/><path d="M422.25 371.75h7.56v2h-7.56z" style="fill:#263238" transform="rotate(-52.54 426.003 372.743)"/><path d="M426.93 371.55a5.87 5.87 0 0 1 1.6-4.59c1.2-1.33 7.87-5 8.79-2.6 1 2.64-5.59 8.64-10.39 7.19" style="fill:#92e3a9"/><path d="M428.47 372.27a6 6 0 0 1-1.68-.24l-.3-.08-.05-.31a6.33 6.33 0 0 1 1.72-5c1.08-1.18 5.9-3.94 8.27-3.5a1.67 1.67 0 0 1 1.36 1.06c.43 1.11-.17 2.66-1.64 4.26-1.84 1.98-4.84 3.81-7.68 3.81m-1.07-1.11c2.68.56 6-1.24 8-3.4 1.15-1.25 1.72-2.51 1.45-3.22a.72.72 0 0 0-.61-.44c-1.91-.36-6.41 2.16-7.35 3.19a5.54 5.54 0 0 0-1.49 3.87" style="fill:#263238"/><path d="m427.08 371.75-.3-.39 6.58-5.1.3.4z" style="fill:#263238"/><path d="M422.25 351.27h7.55v2h-7.55z" style="fill:#263238" transform="rotate(-52.54 426.004 352.271)"/><path d="M426.93 351.07a5.86 5.86 0 0 1 1.6-4.59c1.2-1.33 7.87-5 8.79-2.6 1 2.6-5.59 8.59-10.39 7.19" style="fill:#92e3a9"/><path d="M428.47 351.78a6 6 0 0 1-1.68-.23l-.3-.09-.05-.31a6.32 6.32 0 0 1 1.72-5c1.08-1.18 5.91-4 8.27-3.5a1.66 1.66 0 0 1 1.36 1.06c.43 1.11-.17 2.66-1.64 4.26-1.84 2.03-4.84 3.81-7.68 3.81m-1.07-1.11c2.68.58 6-1.23 8-3.39 1.15-1.25 1.72-2.51 1.45-3.22a.7.7 0 0 0-.61-.44c-1.9-.35-6.41 2.16-7.35 3.19a5.52 5.52 0 0 0-1.49 3.86" style="fill:#263238"/><path d="m427.08 351.27-.3-.39 6.58-5.1.3.4z" style="fill:#263238"/><path d="M422.25 324.2h7.56v2h-7.56z" style="fill:#263238" transform="rotate(-52.54 426.001 325.197)"/><path d="M426.93 324a5.9 5.9 0 0 1 1.6-4.6c1.2-1.32 7.87-5 8.79-2.59 1 2.59-5.59 8.59-10.39 7.19" style="fill:#92e3a9"/><path d="M428.47 324.71a6 6 0 0 1-1.68-.23l-.3-.09-.05-.31a6.31 6.31 0 0 1 1.72-5c1.08-1.19 5.9-3.95 8.27-3.51a1.68 1.68 0 0 1 1.36 1.07c.43 1.11-.17 2.66-1.64 4.26-1.84 1.99-4.84 3.81-7.68 3.81m-1.07-1.11c2.68.57 6-1.23 8-3.39 1.15-1.25 1.72-2.52 1.45-3.22a.7.7 0 0 0-.61-.44c-1.91-.36-6.41 2.16-7.35 3.19a5.52 5.52 0 0 0-1.49 3.86" style="fill:#263238"/><path d="m427.08 324.2-.3-.4 6.58-5.09.3.39z" style="fill:#263238"/><path d="M422.25 302.92h7.56v2h-7.56z" style="fill:#263238" transform="rotate(-52.54 426.003 303.907)"/><path d="M426.93 302.72a5.9 5.9 0 0 1 1.6-4.6c1.2-1.32 7.87-5 8.79-2.6 1 2.6-5.59 8.6-10.39 7.2" style="fill:#92e3a9"/><path d="M428.47 303.43a6 6 0 0 1-1.68-.23l-.3-.09-.05-.31a6.33 6.33 0 0 1 1.72-5c1.08-1.18 5.91-3.95 8.27-3.5a1.69 1.69 0 0 1 1.36 1.06c.43 1.11-.17 2.66-1.64 4.26-1.84 1.98-4.84 3.81-7.68 3.81m-1.07-1.11c2.68.57 6-1.23 8-3.39 1.15-1.25 1.72-2.52 1.45-3.23a.72.72 0 0 0-.61-.44c-1.9-.35-6.41 2.16-7.35 3.2a5.5 5.5 0 0 0-1.49 3.86" style="fill:#263238"/><path d="m427.08 302.91-.3-.39 6.58-5.09.3.39z" style="fill:#263238"/><path d="M423.46 293.28a5.9 5.9 0 0 1 1.6-4.6c1.2-1.32 7.87-5 8.79-2.6 1 2.6-5.6 8.6-10.39 7.2" style="fill:#92e3a9"/><path d="M425 294a6 6 0 0 1-1.68-.23l-.3-.09-.06-.31a6.4 6.4 0 0 1 1.73-5c1.07-1.18 5.89-4 8.27-3.5a1.69 1.69 0 0 1 1.36 1.06c.42 1.11-.18 2.67-1.65 4.27-1.84 1.97-4.83 3.8-7.67 3.8m-1.07-1.11c2.67.57 6-1.23 8-3.39 1.15-1.25 1.72-2.52 1.44-3.23a.68.68 0 0 0-.6-.44c-1.91-.36-6.41 2.16-7.35 3.2a5.46 5.46 0 0 0-1.49 3.85Z" style="fill:#263238"/><path d="m423.61 293.48-.3-.4 6.57-5.09.31.39z" style="fill:#263238"/><path d="M423.78 293.56a5.85 5.85 0 0 1-4.4-2.07c-1.19-1.34-4.14-8.36-1.67-9 2.69-.74 7.96 6.45 6.07 11.07" style="fill:#92e3a9"/><path d="M423.68 294.06a6.45 6.45 0 0 1-4.68-2.24c-1.06-1.19-3.3-6.28-2.61-8.59a1.66 1.66 0 0 1 1.19-1.24c1.16-.31 2.63.45 4.07 2.08 2.15 2.44 3.89 6.52 2.59 9.68l-.12.29h-.31Zm-5.57-11.14a1.2 1.2 0 0 0-.27 0 .73.73 0 0 0-.5.56c-.55 1.86 1.48 6.6 2.41 7.65a5.46 5.46 0 0 0 3.68 1.89c.85-2.61-.59-6.12-2.53-8.32a4.6 4.6 0 0 0-2.79-1.78" style="fill:#263238"/><path d="M421.34 285.86h.5v8.32h-.5z" style="fill:#263238" transform="rotate(-31.73 421.523 289.994)"/><path d="M429.44 466.17h-14.71l-1.84-37.14h18.38z" style="fill:#263238"/><path d="M429.91 466.67h-15.65l-1.89-38.14h19.43Zm-14.7-1H429l1.79-36.14h-17.37Z" style="fill:#263238"/><path d="M434.84 157.79h-51.61a5.71 5.71 0 0 0-5.71 5.7V196a5.71 5.71 0 0 0 5.71 5.7h1.11l-19.53 19.1 30.74-19.1h39.29a5.71 5.71 0 0 0 5.7-5.7v-32.51a5.7 5.7 0 0 0-5.7-5.7" style="fill:#fff"/><path d="M364.81 221.31a.48.48 0 0 1-.39-.19.49.49 0 0 1 0-.66l18.66-18.25A6.22 6.22 0 0 1 377 196v-32.51a6.21 6.21 0 0 1 6.21-6.2h51.61a6.21 6.21 0 0 1 6.2 6.2V196a6.21 6.21 0 0 1-6.2 6.21h-39.13l-30.62 19a.5.5 0 0 1-.26.1m18.42-63a5.21 5.21 0 0 0-5.21 5.2V196a5.22 5.22 0 0 0 5.21 5.21h1.11a.5.5 0 0 1 .35.86L368.42 218l26.86-16.7a.5.5 0 0 1 .27-.07h39.29A5.22 5.22 0 0 0 440 196v-32.51a5.21 5.21 0 0 0-5.2-5.2Z" style="fill:#263238"/><path d="M426.31 174.23a9.68 9.68 0 0 1-2.85 6.87l-14.68 14.68L395 182l-.94-.94a9.72 9.72 0 0 1 13.75-13.74l.94.94.93-.94a9.72 9.72 0 0 1 16.59 6.87Z" style="fill:#92e3a9"/><path d="M408.78 196.28a.54.54 0 0 1-.36-.14l-14.67-14.69A10.21 10.21 0 0 1 408.2 167l.59.58.57-.58a10.22 10.22 0 1 1 14.46 14.44l-14.69 14.69a.5.5 0 0 1-.35.15M401 165a9.21 9.21 0 0 0-6.51 15.73l14.32 14.33 14.33-14.33a9.22 9.22 0 1 0-13-13l-.93.93a.47.47 0 0 1-.35.15.5.5 0 0 1-.36-.15l-.93-.93A9.17 9.17 0 0 0 401 165" style="fill:#263238"/><path d="M472.64 233.59h-91a8 8 0 0 0-8 8v13.62a8 8 0 0 0 4.47 7.16l-17.8 17.38 29.08-16.56h83.21a8 8 0 0 0 8-8v-13.62a8 8 0 0 0-7.96-7.98" style="fill:#92e3a9"/><path d="M360.35 280.23a.5.5 0 0 1-.35-.86l17.32-16.91a8.4 8.4 0 0 1-4.14-7.27v-13.62a8.48 8.48 0 0 1 8.48-8.48h91a8.48 8.48 0 0 1 8.48 8.48v13.62a8.48 8.48 0 0 1-8.48 8.48h-83.1l-29 16.49a.6.6 0 0 1-.21.07m21.31-46.14a7.49 7.49 0 0 0-7.48 7.48v13.62a7.44 7.44 0 0 0 4.19 6.71.51.51 0 0 1 .28.37.52.52 0 0 1-.15.44l-15 14.66 25.7-14.64a.54.54 0 0 1 .25-.06h83.21a7.48 7.48 0 0 0 7.48-7.48v-13.62a7.48 7.48 0 0 0-7.48-7.48Z" style="fill:#263238"/><path d="m387.61 242.37 1.49 4.59h4.83l-3.91 2.84 1.49 4.59-3.9-2.84-3.91 2.84 1.49-4.59-3.9-2.84h4.82z" style="fill:#fff"/><path d="M391.51 254.89a.46.46 0 0 1-.29-.1l-3.61-2.62-3.61 2.62a.48.48 0 0 1-.58 0 .49.49 0 0 1-.19-.55l1.37-4.24-3.6-2.64a.49.49 0 0 1-.18-.55.5.5 0 0 1 .48-.35h4.46l1.38-4.25a.52.52 0 0 1 .95 0l1.38 4.25h4.47a.5.5 0 0 1 .47.35.49.49 0 0 1-.18.55l-3.62 2.64 1.38 4.25a.5.5 0 0 1-.18.55.47.47 0 0 1-.3.09m-8.68-7.43 2.66 1.93a.52.52 0 0 1 .18.56l-1 3.13 2.66-1.93a.5.5 0 0 1 .59 0l2.66 1.93-1-3.13a.51.51 0 0 1 .19-.56l2.66-1.93h-3.33a.5.5 0 0 1-.48-.35l-1-3.12-1 3.12a.5.5 0 0 1-.48.35Z" style="fill:#263238"/><path d="m407.38 242.37 1.49 4.59h4.83l-3.91 2.84 1.49 4.59-3.9-2.84-3.91 2.84 1.49-4.59-3.9-2.84h4.83z" style="fill:#fff"/><path d="M403.47 254.89a.46.46 0 0 1-.29-.1.47.47 0 0 1-.18-.55l1.38-4.25-3.62-2.63a.5.5 0 0 1 .3-.9h4.46l1.38-4.25a.51.51 0 0 1 .48-.34.49.49 0 0 1 .47.34l1.38 4.25h4.47a.48.48 0 0 1 .47.35.47.47 0 0 1-.18.55l-3.61 2.64 1.38 4.25a.49.49 0 0 1-.18.55.5.5 0 0 1-.59 0l-3.61-2.62-3.61 2.62a.47.47 0 0 1-.3.09m-.87-7.43 2.66 1.93a.51.51 0 0 1 .18.56l-1 3.13 2.67-1.93a.48.48 0 0 1 .58 0l2.66 1.93-1-3.13a.49.49 0 0 1 .18-.56l2.66-1.93h-3.29a.5.5 0 0 1-.48-.35l-1-3.12-1 3.12a.49.49 0 0 1-.47.35Z" style="fill:#263238"/><path d="m427.15 242.37 1.49 4.59h4.83l-3.91 2.84 1.5 4.59-3.91-2.84-3.9 2.84 1.49-4.59-3.91-2.84h4.83z" style="fill:#fff"/><path d="M423.25 254.89a.47.47 0 0 1-.3-.1.49.49 0 0 1-.18-.55l1.38-4.25-3.61-2.63a.47.47 0 0 1-.18-.55.48.48 0 0 1 .47-.35h4.47l1.38-4.25a.49.49 0 0 1 .47-.34.51.51 0 0 1 .48.34l1.38 4.25h4.46a.5.5 0 0 1 .48.35.49.49 0 0 1-.19.55l-3.61 2.64 1.38 4.25a.47.47 0 0 1-.18.55.5.5 0 0 1-.59 0l-3.61-2.62-3.61 2.62a.46.46 0 0 1-.29.09m-.88-7.43 2.66 1.93a.49.49 0 0 1 .18.56l-1 3.13 2.66-1.93a.49.49 0 0 1 .59 0l2.66 1.93-1-3.13a.51.51 0 0 1 .18-.56l2.66-1.93h-3.29a.49.49 0 0 1-.47-.35l-1-3.12-1 3.12a.48.48 0 0 1-.47.35Z" style="fill:#263238"/><path d="m446.92 242.37 1.5 4.59h4.82l-3.9 2.84 1.49 4.59-3.91-2.84-3.9 2.84 1.49-4.59-3.91-2.84h4.83z" style="fill:#fff"/><path d="M450.83 254.89a.45.45 0 0 1-.29-.1l-3.62-2.62-3.61 2.62a.49.49 0 0 1-.59 0 .5.5 0 0 1-.18-.55l1.38-4.25-3.61-2.63a.47.47 0 0 1-.18-.55.5.5 0 0 1 .47-.35h4.47l1.38-4.25a.52.52 0 0 1 .95 0l1.38 4.25h4.46a.5.5 0 0 1 .48.35.49.49 0 0 1-.18.55l-3.61 2.64 1.38 4.25a.49.49 0 0 1-.19.55.45.45 0 0 1-.29.09m-3.91-3.84a.47.47 0 0 1 .3.1l2.66 1.93-1-3.13a.52.52 0 0 1 .18-.56l2.67-1.93h-3.29a.5.5 0 0 1-.48-.35l-1-3.12-1 3.12a.5.5 0 0 1-.48.35h-3.29l2.66 1.93a.51.51 0 0 1 .19.56l-1 3.13 2.66-1.93a.46.46 0 0 1 .22-.1" style="fill:#263238"/><path d="m466.7 242.37 1.49 4.59h4.83l-3.91 2.84 1.49 4.59-3.9-2.84-3.91 2.84 1.49-4.59-3.9-2.84h4.82z" style="fill:#fff"/><path d="M470.6 254.89a.46.46 0 0 1-.29-.1l-3.61-2.62-3.62 2.62a.48.48 0 0 1-.58 0 .49.49 0 0 1-.19-.55l1.38-4.25-3.61-2.63a.49.49 0 0 1-.18-.55.5.5 0 0 1 .48-.35h4.46l1.38-4.25a.52.52 0 0 1 .95 0l1.38 4.25H473a.5.5 0 0 1 .47.35.47.47 0 0 1-.18.55L469.7 250l1.38 4.25a.5.5 0 0 1-.18.55.47.47 0 0 1-.3.09m-3.9-3.84a.46.46 0 0 1 .29.1l2.66 1.93-1-3.13a.51.51 0 0 1 .19-.56l2.66-1.93h-3.29a.5.5 0 0 1-.48-.35l-1-3.12-1 3.12a.5.5 0 0 1-.48.35h-3.28l2.66 1.93a.52.52 0 0 1 .18.56l-1 3.13 2.66-1.93a.47.47 0 0 1 .23-.1" style="fill:#263238"/><path d="M406.55 104.83a8.09 8.09 0 0 1-9.78-6l-5.18-21.23a8.08 8.08 0 0 1 6-9.77 8.09 8.09 0 0 1 9.78 6l5.18 21.27a8.1 8.1 0 0 1-6 9.73" style="fill:#fff"/><path d="M404.63 105.56a8.62 8.62 0 0 1-8.35-6.56l-5.18-21.28a8.59 8.59 0 0 1 16.7-4.06l5.2 21.28a8.6 8.6 0 0 1-6.32 10.38 9 9 0 0 1-2.05.24m-5.18-37.46a8 8 0 0 0-1.79.21 7.61 7.61 0 0 0-5.59 9.18l5.18 21.27a7.61 7.61 0 0 0 9.18 5.59 7.6 7.6 0 0 0 5.57-9.18l-5.18-21.28a7.61 7.61 0 0 0-7.37-5.79" style="fill:#263238"/><path d="M398.32 129.73a4.82 4.82 0 0 1-6.1-4.48l-2.14-26.76a7.05 7.05 0 0 1 5.15-7.21 4.81 4.81 0 0 1 6.1 4.47l2.14 26.76a7.07 7.07 0 0 1-5.15 7.22" style="fill:#fff"/><path d="M397 130.39a5.22 5.22 0 0 1-3.07-1 5.48 5.48 0 0 1-2.21-4.12l-2.15-26.76a7.58 7.58 0 0 1 5.53-7.74 5.4 5.4 0 0 1 4.5.81 5.46 5.46 0 0 1 2.21 4.11l2.19 26.78a7.58 7.58 0 0 1-5.53 7.74 6 6 0 0 1-1.47.18m-.48-38.77a5 5 0 0 0-1.18.15 6.54 6.54 0 0 0-4.78 6.68l2.15 26.76a4.57 4.57 0 0 0 1.8 3.39 4.41 4.41 0 0 0 3.68.64 6.57 6.57 0 0 0 4.78-6.69l-2.15-26.76a4.56 4.56 0 0 0-1.8-3.38 4.22 4.22 0 0 0-2.49-.79Z" style="fill:#263238"/><path d="m455.52 100.12-27-5.62a110.3 110.3 0 0 0-28.27 3.1L382 102a7.47 7.47 0 0 1-9-5.5l-3.81-15.66a7.48 7.48 0 0 1 5.49-9l14.7-3.57a110.2 110.2 0 0 0 31.56-13.16l19.2-18.2Z" style="fill:#fff"/><path d="M380.26 102.73a8 8 0 0 1-7.76-6.09L368.69 81a8 8 0 0 1 5.87-9.64l14.7-3.58a109.2 109.2 0 0 0 31.36-13.07l19.17-18.16a.47.47 0 0 1 .48-.12.5.5 0 0 1 .34.36L456 100a.5.5 0 0 1-.13.47.49.49 0 0 1-.46.14L428.37 95a109.5 109.5 0 0 0-28.06 3.09l-18.17 4.43a8 8 0 0 1-1.88.21m59.59-64.89-18.58 17.61a.16.16 0 0 1-.08.06 110 110 0 0 1-31.7 13.22l-14.7 3.58a7 7 0 0 0-5.13 8.43l3.81 15.66a7 7 0 0 0 8.44 5.13l18.17-4.42a110.5 110.5 0 0 1 28.4-3.11l26.37 5.47Z" style="fill:#263238"/><path d="M399.55 65.22c-3.34 1.16-6.73 2.19-10.18 3l-14.7 3.57a7.48 7.48 0 0 0-5.49 9L373 96.52a7.47 7.47 0 0 0 9 5.5l18.2-4.42q3.42-.84 6.88-1.45Z" style="fill:#263238"/><path d="M380.26 102.73a8 8 0 0 1-7.76-6.09L368.69 81a8 8 0 0 1 5.87-9.64l14.7-3.58c3.27-.8 6.67-1.81 10.12-3a.5.5 0 0 1 .41 0 .54.54 0 0 1 .25.32l7.52 30.9a.5.5 0 0 1-.06.39.57.57 0 0 1-.33.22c-2.31.41-4.62.89-6.86 1.43l-18.17 4.43a8 8 0 0 1-1.88.26m18.93-36.86c-3.3 1.14-6.56 2.1-9.7 2.86l-14.7 3.58a7 7 0 0 0-5.13 8.43l3.81 15.66a7 7 0 0 0 8.44 5.13l18.17-4.42c2.09-.51 4.23-1 6.39-1.35Z" style="fill:#263238"/><rect width="13.16" height="78.97" x="442.66" y="30.18" rx="4.73" style="fill:#92e3a9" transform="rotate(-13.68 449.195 69.653)"/><path d="M455.66 109.11a5.24 5.24 0 0 1-5.08-4l-16.44-67.54a5.22 5.22 0 0 1 3.86-6.32l3.6-.87a5.24 5.24 0 0 1 6.32 3.84l16.44 67.54a5.24 5.24 0 0 1-3.85 6.32l-3.59.88a5.3 5.3 0 0 1-1.26.15m-12.84-77.88a4.3 4.3 0 0 0-1 .12l-3.6.87a4.22 4.22 0 0 0-3.11 5.11l16.44 67.55a4.24 4.24 0 0 0 5.11 3.11l3.6-.88.12.49-.12-.49a4.24 4.24 0 0 0 3.11-5.11l-16.44-67.54a4.24 4.24 0 0 0-4.11-3.23M462.87 53.24a1 1 0 0 1-.54-.16 1 1 0 0 1-.33-1.38l6.35-10a1 1 0 0 1 1.38-.31 1 1 0 0 1 .31 1.38l-6.35 10a1 1 0 0 1-.82.47M479.43 85.22a1 1 0 0 1-.5-.14l-10.24-6a1 1 0 0 1 1-1.72l10.24 6a1 1 0 0 1-.51 1.87ZM468.26 66.35a1 1 0 0 1-1-.76 1 1 0 0 1 .74-1.21l12.43-3a1 1 0 0 1 .48 1.95l-12.44 3ZM403.33 119.41l4.36 3.72a3.25 3.25 0 0 1 1 1.69 3.22 3.22 0 0 1-2.37 3.89l-13.75 3.35-.86-12.56Z" style="fill:#263238"/><path d="M392.61 132.56a.5.5 0 0 1-.29-.1.54.54 0 0 1-.21-.37l-.86-12.56a.47.47 0 0 1 .14-.37.45.45 0 0 1 .36-.16l11.58-.09a.5.5 0 0 1 .33.12l4.35 3.72a3.63 3.63 0 0 1 1.2 2 3.73 3.73 0 0 1-2.74 4.5l-13.74 3.34Zm-.32-12.56.78 11.44 13.17-3.21a2.71 2.71 0 0 0 1.12-4.71l-4.21-3.6Z" style="fill:#263238"/><path d="M381.13 81.7a1.9 1.9 0 1 0-1.4 2.29 1.91 1.91 0 0 0 1.4-2.29M73.15 458.64s-.36 4.66.91 6 12.53 1.9 13.8.17.55-8.11.55-8.11-4.54 1.59-15.26 1.94" style="fill:#92e3a9"/><path d="M82 466.44c-3.34 0-7.44-.46-8.33-1.42-1.38-1.5-1.08-5.92-1-6.42a.51.51 0 0 1 .49-.46c10.48-.34 15.06-1.86 15.11-1.87a.48.48 0 0 1 .42.05.46.46 0 0 1 .23.36c.08.68.71 6.64-.64 8.47-.19.26-.76 1-4.55 1.25-.54.03-1.11.04-1.73.04m-8.4-7.32c-.07 1.47 0 4.32.81 5.22.6.65 5.19 1.29 9.23 1.06 2.44-.13 3.57-.54 3.8-.85.85-1.15.69-5.12.51-7.16-1.5.42-5.95 1.43-14.33 1.73Z" style="fill:#263238"/><path d="M84.59 464c-6.13.16-9.4-.24-11.17-.71a3.14 3.14 0 0 0 .64 1.4c1.27 1.38 12.53 1.9 13.8.17a3.1 3.1 0 0 0 .43-1c-1.14.04-2.35.14-3.7.14" style="fill:#fff"/><path d="M82 466.44c-3.34 0-7.44-.46-8.33-1.42a3.65 3.65 0 0 1-.76-1.62.5.5 0 0 1 .61-.6c2.23.59 5.94.82 11 .69 1.34 0 2.55-.08 3.69-.14a.46.46 0 0 1 .41.19.5.5 0 0 1 .09.44 3.3 3.3 0 0 1-.51 1.17c-.19.26-.76 1-4.55 1.25-.47.03-1.04.04-1.65.04M74.18 464a1.8 1.8 0 0 0 .25.37c.6.65 5.18 1.29 9.22 1.06 2.45-.13 3.58-.54 3.81-.85a.6.6 0 0 0 .1-.17l-3 .11a51.6 51.6 0 0 1-10.38-.52m10.41 0" style="fill:#263238"/><path d="M106.57 464.49a28.3 28.3 0 0 0 9.65 5.55c5.27 1.55 6.72 2.41 6.17 4.14s-5.08 2.24-16 2.59-19.09-1.06-20.55-2.1-.54-2.93 0-3.45 18.73-8.11 20.73-6.73" style="fill:#92e3a9"/><path d="M103.08 477.32c-9.28 0-16.1-1.24-17.51-2.24a2.3 2.3 0 0 1-1-1.74 3.42 3.42 0 0 1 .93-2.48c.13-.13 18.78-8.54 21.33-6.78h.06a28 28 0 0 0 9.45 5.44c4.28 1.26 5.84 2 6.42 3.1a2.08 2.08 0 0 1 .09 1.67c-.6 1.92-4.14 2.55-16.44 2.94a54 54 0 0 1-3.33.09m2.63-12.53c-3.35 0-18 5.76-19.53 6.81a2.5 2.5 0 0 0-.6 1.67 1.27 1.27 0 0 0 .57 1c1.28.91 9.14 2.36 20.25 2 7.88-.25 15-.61 15.52-2.24a1.1 1.1 0 0 0 0-.9c-.47-.88-2.67-1.68-5.82-2.61a28.7 28.7 0 0 1-9.82-5.63 1.1 1.1 0 0 0-.57-.1" style="fill:#263238"/><path d="M122.39 474.18a1.52 1.52 0 0 0-.25-1.57c-2.53 1-7.07 1.35-17.55 1.22-9.2-.1-14.83-1.46-19.42-1.27a1.88 1.88 0 0 0 .69 2.11c1.46 1 9.65 2.44 20.55 2.1s15.44-.87 15.98-2.59" style="fill:#fff"/><path d="M103.08 477.32c-9.28 0-16.1-1.24-17.51-2.24a2.37 2.37 0 0 1-.89-2.64.49.49 0 0 1 .47-.38 53.4 53.4 0 0 1 7.47.47c3.17.33 7.11.75 12 .8 10.38.13 14.92-.19 17.35-1.18a.52.52 0 0 1 .58.14 2 2 0 0 1 .34 2c-.6 1.92-4.14 2.55-16.44 2.94-1.17.07-2.28.09-3.37.09M85.59 473a1.3 1.3 0 0 0 .56 1.22c1.28.91 9.13 2.36 20.25 2 7.88-.25 15-.61 15.52-2.24a1.16 1.16 0 0 0 0-.8c-2.67.94-7.21 1.22-17.35 1.1a119 119 0 0 1-12.08-.81 58 58 0 0 0-6.9-.47M84.23 363.74s-.36 20.7-4.36 38.48-6.54 26-7.26 37.27a135.4 135.4 0 0 0 .18 20.18s2 1 6.9.69a16.2 16.2 0 0 0 7.63-2.24s.54-19.32.54-30 4.72-40 5.09-50.9-2.95-16.41-5.27-18.14-3.45 4.66-3.45 4.66" style="fill:#263238"/><path d="M77.76 460.93c-3.58 0-5.13-.77-5.2-.81a.52.52 0 0 1-.27-.4 138 138 0 0 1-.18-20.27c.55-8.59 2.2-15.57 4.68-26.14.78-3.31 1.65-7 2.59-11.2 3.94-17.52 4.35-38.17 4.35-38.38a.2.2 0 0 1 0-.08c.08-.46.82-4.54 2.58-5.25a1.65 1.65 0 0 1 1.66.28c2.74 2 5.82 8.06 5.47 18.53-.17 5.05-1.26 13.91-2.41 23.29-1.31 10.76-2.68 21.88-2.68 27.6 0 10.58-.54 29.84-.54 30a.53.53 0 0 1-.22.4 16.55 16.55 0 0 1-7.88 2.33c-.71.08-1.35.1-1.95.1m-4.5-1.6a16.2 16.2 0 0 0 6.39.54 16.8 16.8 0 0 0 7.18-2c.06-2.37.53-19.85.53-29.74 0-5.78 1.37-16.93 2.69-27.72 1.15-9.36 2.23-18.2 2.4-23.2.33-10.08-2.52-15.84-5.06-17.7a.7.7 0 0 0-.7-.16c-.88.36-1.67 2.82-2 4.47 0 1-.49 21.28-4.37 38.54-1 4.21-1.82 7.9-2.6 11.21-2.47 10.52-4.1 17.46-4.65 26a137 137 0 0 0 .19 19.76" style="fill:#263238"/><path d="M108.2 339.58s-.18 10.35-.18 23.47-2.9 43.83-5.26 58.49-.73 34.67-.37 36.22 1.09 1 2.36 2.59a32.6 32.6 0 0 1 2.73 4.31s-7.09 4.83-12.53 6.56-7.45 2.41-8.72 2.41-1.27-1.2-2.18-4.14-.91-15.18-.91-15.18-2.54-17.41-2.54-28.11 4.9-17.25 4.9-27.61-3.09-38.3-4.9-42.44-5.27-9.84-5.63-12.77-.55-4.83-.55-4.83Z" style="fill:#263238"/><path d="M86.23 474.13c-1.39 0-1.69-1.08-2.19-2.88-.13-.46-.28-1-.47-1.61-.92-3-.93-14.83-.93-15.33 0-.1-2.54-17.5-2.54-28.11 0-5.46 1.27-9.89 2.5-14.18s2.4-8.36 2.4-13.43c0-9.92-3-38.12-4.86-42.24-.6-1.37-1.4-3-2.18-4.49-1.59-3.13-3.24-6.38-3.49-8.42-.36-2.91-.54-4.83-.55-4.85a.5.5 0 0 1 .14-.38.46.46 0 0 1 .38-.16l33.78 1a.5.5 0 0 1 .48.51c0 .1-.18 10.5-.18 23.46 0 13.29-3 44.27-5.27 58.57-2.34 14.54-.72 34.56-.37 36a1.39 1.39 0 0 0 .8 1.1 5.6 5.6 0 0 1 1.46 1.28 32 32 0 0 1 2.78 4.4.51.51 0 0 1-.16.65c-.29.19-7.21 4.89-12.66 6.62l-1.82.57c-4.14 1.38-5.86 1.92-7.05 1.92M75 339.06c.08.77.24 2.29.48 4.26s1.84 5 3.39 8.09c.78 1.54 1.59 3.14 2.21 4.54C83 360.26 86 388.34 86 398.59c0 5.21-1.24 9.53-2.44 13.71s-2.46 8.58-2.46 13.9c0 10.54 2.51 27.86 2.53 28s0 12.28.9 15.11c.19.62.34 1.16.47 1.63.51 1.83.65 2.15 1.23 2.15 1 0 2.71-.53 6.75-1.81l1.81-.58c4.61-1.46 10.5-5.23 12-6.24a30 30 0 0 0-2.45-3.83 4.7 4.7 0 0 0-1.23-1.08 2.36 2.36 0 0 1-1.24-1.71c-.34-1.5-2-21.75.36-36.42 2.3-14.27 5.26-45.16 5.26-58.41 0-11.37.14-20.77.18-23Z" style="fill:#263238"/><path d="M85.32 248.48s-7.26 12.08-9.81 22.43-4.9 30.88-5.63 42.62-2.36 28-2.36 28a81.6 81.6 0 0 0 22.16 2.59 132 132 0 0 0 24.32-2.81s-4-33.82-7.81-53.49-7.45-32.1-7.45-32.1-9.74-7.93-13.42-7.24" style="fill:#92e3a9"/><path d="M88.53 344.58A82 82 0 0 1 67.38 342a.51.51 0 0 1-.36-.53c0-.16 1.65-16.34 2.36-27.93.69-11.06 3-32.06 5.65-42.71 2.53-10.31 9.79-22.45 9.86-22.57a.48.48 0 0 1 .34-.23c3.75-.71 12.82 6.52 13.84 7.35a.5.5 0 0 1 .17.24c0 .13 3.68 12.68 7.46 32.14s7.77 53.19 7.81 53.53a.49.49 0 0 1-.38.54 133.3 133.3 0 0 1-24.44 2.78Zm-20.47-3.47a84.1 84.1 0 0 0 21.61 2.46 134.3 134.3 0 0 0 23.79-2.65c-.49-4.09-4.22-34.81-7.75-53s-7-30.42-7.39-31.9c-2.71-2.17-9.81-7.29-12.69-7.07-1 1.63-7.32 12.66-9.63 22.09-2.6 10.6-4.94 31.51-5.62 42.53-.65 10.55-2.06 24.92-2.32 27.54" style="fill:#263238"/><path d="M90 225.87a20.9 20.9 0 0 1 .18 10c-1.27 5.35-2 9.15-2 9.15s10.53 11.21 10.53 10.69.36-6.38 2-10 2.72-5.7 2.72-5.7a14.06 14.06 0 0 1-5.63-6.38c-2-4.49-2.18-11.56-4.9-11.73s-2.9 3.97-2.9 3.97" style="fill:#fff"/><path d="M98.79 256.24c-.44 0-1.69-1-10.93-10.87a.51.51 0 0 1-.13-.44s.75-3.87 2-9.16a20.5 20.5 0 0 0-.18-9.75 1 1 0 0 1 0-.17c0-.1.13-2.56 1.48-3.78a2.58 2.58 0 0 1 2-.66c2.09.13 2.83 3.13 3.68 6.6a33 33 0 0 0 1.65 5.43 13.7 13.7 0 0 0 5.4 6.14.5.5 0 0 1 .25.29.48.48 0 0 1 0 .39s-1.1 2.1-2.71 5.66-1.95 9.12-1.95 9.8a.53.53 0 0 1-.33.49.5.5 0 0 1-.23.03m-10-11.37c3.11 3.31 7.8 8.23 9.54 9.88a32 32 0 0 1 2-9.24c1.2-2.66 2.12-4.51 2.52-5.3a14.7 14.7 0 0 1-5.43-6.37 34 34 0 0 1-1.7-5.59c-.73-3-1.41-5.76-2.77-5.85a1.68 1.68 0 0 0-1.23.41 5.07 5.07 0 0 0-1.14 3 21.3 21.3 0 0 1 .13 10.19c-1.07 4.5-1.71 7.94-1.94 8.87Z" style="fill:#263238"/><path d="M94.76 239.77a11.6 11.6 0 0 0 .91 5.45 49 49 0 0 0 3 5.29l2.88-8.17Z" style="fill:#263238"/><path d="M98.69 251a.49.49 0 0 1-.41-.22 48 48 0 0 1-3.07-5.36 12.06 12.06 0 0 1-.95-5.71.49.49 0 0 1 .24-.38.52.52 0 0 1 .44 0l6.81 2.57a.51.51 0 0 1 .29.64l-2.87 8.17a.51.51 0 0 1-.41.33Zm-3.46-10.53a10.7 10.7 0 0 0 .89 4.52 43 43 0 0 0 2.44 4.38l2.38-6.74Z" style="fill:#263238"/><path d="M114.81 214.13s0 10.18.73 12.42 3.26 2.76 2.9 4-3.81 1.9-3.81 1.9-.91 8.62-1.64 11-2.54 2.93-6.54 2.59-8.53-1.56-10.35-4.14-2.9-7.25-2.9-7.25a114 114 0 0 1-.91-12.42c0-5.53-.73-8.46 6.9-11.39s15.26.87 15.62 3.29" style="fill:#fff"/><path d="M108.41 246.64c-.62 0-1.28 0-2-.1-2.45-.21-8.41-1.06-10.72-4.35-1.85-2.63-2.93-7.22-3-7.42a115 115 0 0 1-.92-12.54v-1.31c0-4.65-.09-7.73 7.23-10.54a16.49 16.49 0 0 1 13.73.85c1.51.88 2.42 1.88 2.56 2.82a.2.2 0 0 1 0 .08c0 3.49.15 10.55.7 12.26a4.8 4.8 0 0 0 1.75 2.18c.7.58 1.43 1.18 1.16 2.09-.37 1.24-2.8 1.93-3.83 2.17a101 101 0 0 1-1.62 10.77c-.69 2.4-2.39 3.04-5.04 3.04m-14.72-12s1.08 4.55 2.82 7c1.44 2 5.17 3.51 10 3.93 3.94.34 5.4-.2 6-2.24.71-2.34 1.61-10.86 1.62-10.95a.49.49 0 0 1 .4-.43c1.52-.31 3.26-1 3.43-1.56.08-.24-.21-.51-.84-1a5.7 5.7 0 0 1-2.06-2.64c-.73-2.24-.75-11.72-.75-12.53-.09-.48-.68-1.27-2.07-2.07a15.42 15.42 0 0 0-12.87-.79c-6.67 2.57-6.64 4.92-6.59 9.6v1.32a115 115 0 0 0 .9 12.36Z" style="fill:#263238"/><path d="M111.9 227.15c0 1-.28 1.81-.63 1.81s-.64-.81-.64-1.81.29-1.81.64-1.81.63.81.63 1.81M108.09 223.94a.3.3 0 0 1-.14 0 .49.49 0 0 1-.34-.61c.35-1.27 1.66-3.62 4.14-3.47a.5.5 0 0 1 .47.53.53.53 0 0 1-.53.47c-2.27-.16-3.09 2.62-3.12 2.74a.49.49 0 0 1-.48.34M112.27 235.55c-3.72 0-4.23-2-4.25-2.12a.51.51 0 0 1 .38-.6.5.5 0 0 1 .59.37c0 .08.46 1.45 3.66 1.34a.52.52 0 0 1 .52.48.5.5 0 0 1-.48.52Z" style="fill:#263238"/><path d="m95.19 231.21 3.82-1s-2.18-3.28.18-4.83 5.81-2.76 4.9-4.31-6.9-2.42-4-4.32 6.9-2.93 7.63-2.24 0 1.55 4.72 1.55 7.26-1.72 5.81-7.24-9.26-7.6-14.17-5.7-6.35 3.28-6.35 3.28-10.36.35-13.44 7.59-1.82 11.74.36 14.15 5.45 5 6.72 5 3.82-1.93 3.82-1.93" style="fill:#263238"/><path d="M91.38 233.61c-1.66 0-5.21-3.09-7.09-5.17-1.7-1.89-4-6.3-.45-14.68 3-7 12.25-7.81 13.7-7.89a24.3 24.3 0 0 1 6.37-3.25 13.1 13.1 0 0 1 10.23.7 8.42 8.42 0 0 1 4.6 5.33c.7 2.64.54 4.57-.47 5.89s-2.94 2-5.82 2c-3.75 0-4.35-.53-4.83-1.35a1.5 1.5 0 0 0-.24-.34c-.45-.34-4 .34-7 2.3-.45.3-.57.51-.56.58 0 .37 1.32 1 2.1 1.33a6.1 6.1 0 0 1 2.62 1.73 1.45 1.45 0 0 1 .16 1.14c-.29 1.05-1.69 1.83-3.32 2.73-.65.36-1.32.73-1.91 1.12a1.8 1.8 0 0 0-.82 1.18 4.7 4.7 0 0 0 .78 3 .48.48 0 0 1-.28.75l-3.72 1c-.52.29-2.74 1.9-4.05 1.9M108 202.9a10.5 10.5 0 0 0-3.77.65c-4.7 1.82-6.18 3.16-6.19 3.18a.5.5 0 0 1-.33.13c-.1 0-10.07.42-13 7.29-3.36 7.87-1.27 11.91.27 13.62 2.2 2.44 5.35 4.84 6.35 4.84.8 0 2.58-1.11 3.52-1.8a.35.35 0 0 1 .16-.08l3.2-.87a5.07 5.07 0 0 1-.6-3.12 2.77 2.77 0 0 1 1.25-1.82c.62-.4 1.31-.78 2-1.15 1.25-.7 2.67-1.48 2.85-2.12a.47.47 0 0 0-.07-.37 6.1 6.1 0 0 0-2.18-1.33c-1.33-.62-2.6-1.21-2.67-2.17 0-.79.75-1.31 1-1.49 2.76-1.8 7.19-3.19 8.25-2.18a2.2 2.2 0 0 1 .41.55c.24.4.51.86 4 .86 2.55 0 4.2-.52 5-1.59s.91-2.7.3-5a7.6 7.6 0 0 0-4.1-4.69 12.5 12.5 0 0 0-5.65-1.34" style="fill:#263238"/><path d="M96.83 233.28c0-.52-1.45-7.77-4.18-7.77s-4.18 1.9-3.09 6.22 4.36 5.69 6.91 3.45" style="fill:#fff"/><path d="M93.91 236.74a3.9 3.9 0 0 1-1.12-.17c-1.74-.54-3.09-2.26-3.71-4.72s-.48-4.33.44-5.51a3.78 3.78 0 0 1 3.13-1.34c3.24 0 4.68 7.75 4.68 8.27a.5.5 0 0 1-.5.5.5.5 0 0 1-.5-.5c0-1-1.57-7.27-3.68-7.27a2.79 2.79 0 0 0-2.34.94c-.71.91-.8 2.52-.26 4.65s1.64 3.58 3 4a3.12 3.12 0 0 0 3-.81.5.5 0 0 1 .67.75 4.35 4.35 0 0 1-2.81 1.21" style="fill:#263238"/><path d="m86.05 240.89 14.34 12.76 1.46 8.11-19.44-12.94z" style="fill:#92e3a9"/><path d="M101.85 262.26a.46.46 0 0 1-.28-.08l-19.43-12.94a.5.5 0 0 1-.18-.63l3.63-7.93a.49.49 0 0 1 .35-.28.5.5 0 0 1 .44.11l14.35 12.77a.56.56 0 0 1 .16.29l1.45 8.11a.5.5 0 0 1-.22.5.45.45 0 0 1-.27.08m-18.8-13.62 18.1 12.06-1.22-6.79-13.71-12.2ZM67.41 380a2.11 2.11 0 0 1-2.14-1.89l-1.4-16.92a5.1 5.1 0 0 1 4.81-5.37l28.73-2.27a5.22 5.22 0 0 1 5.68 4.5l1.71 17.12a2.09 2.09 0 0 1-2 2.23 2.14 2.14 0 0 1-2.35-1.84l-1.71-17.12a.91.91 0 0 0-1-.81L69 359.85a.92.92 0 0 0-.87 1l1.4 16.92a2.09 2.09 0 0 1-2 2.2Z" style="fill:#263238"/><path d="M67.41 380.45a2.62 2.62 0 0 1-2.64-2.35l-1.4-16.92a5.33 5.33 0 0 1 1.28-3.89 5.8 5.8 0 0 1 4-2L97.37 353a5.72 5.72 0 0 1 6.22 5l1.7 17.11a2.45 2.45 0 0 1-.56 1.83 2.7 2.7 0 0 1-1.83 1 2.62 2.62 0 0 1-2.89-2.3l-1.71-17.2a.43.43 0 0 0-.15-.27.4.4 0 0 0-.32-.09l-28.75 2.27a.47.47 0 0 0-.32.16.34.34 0 0 0-.09.27l1.39 16.92a2.4 2.4 0 0 1-.59 1.81 2.62 2.62 0 0 1-1.85.93ZM97.82 354h-.37l-28.73 2.27a4.78 4.78 0 0 0-3.31 1.67 4.3 4.3 0 0 0-1 3.16l1.35 16.9a1.6 1.6 0 0 0 1.77 1.42 1.7 1.7 0 0 0 1.18-.57 1.52 1.52 0 0 0 .36-1.09l-1.4-16.92a1.37 1.37 0 0 1 .33-1 1.47 1.47 0 0 1 1-.5l28.73-2.28a1.42 1.42 0 0 1 1 .31 1.38 1.38 0 0 1 .52.95l1.75 17.14a1.64 1.64 0 0 0 1.81 1.39 1.66 1.66 0 0 0 1.15-.59 1.46 1.46 0 0 0 .34-1.09l-1.71-17.12a4.7 4.7 0 0 0-4.77-4.05" style="fill:#fff"/><path d="m52 378.22 3.86 27.86a3.81 3.81 0 0 0 4.06 3.28l55.21-4.36a3.81 3.81 0 0 0 3.5-3.81v-28.8l-33 6.76Z" style="fill:#92e3a9"/><path d="M59.6 409.87a4.3 4.3 0 0 1-4.25-3.72l-3.87-27.86a.5.5 0 0 1 .13-.4.46.46 0 0 1 .38-.17l33.54.92 33-6.75a.53.53 0 0 1 .42.1.53.53 0 0 1 .18.39v28.8a4.32 4.32 0 0 1-4 4.3l-55.23 4.38Zm-7.05-31.13L56.34 406a3.31 3.31 0 0 0 3.52 2.85l55.23-4.37a3.33 3.33 0 0 0 3-3.31V373l-32.45 6.64h-.12Z" style="fill:#263238"/><path d="m63.57 406-.75.06a.79.79 0 0 1-.86-.7l-1.7-20.67a.77.77 0 0 1 .74-.82l.75-.06a.79.79 0 0 1 .86.7l1.7 20.67a.77.77 0 0 1-.74.82" style="fill:#fff"/><path d="M62.76 406.58a1.29 1.29 0 0 1-1.3-1.16l-1.7-20.67a1.26 1.26 0 0 1 .29-.91 1.35 1.35 0 0 1 .91-.45l.75-.06a1.31 1.31 0 0 1 1.4 1.16l1.7 20.67a1.23 1.23 0 0 1-.3.91 1.3 1.3 0 0 1-.9.45l-.75.06Zm-.95-22.25-.75.06a.32.32 0 0 0-.22.1.24.24 0 0 0-.05.18l1.7 20.67a.29.29 0 0 0 .32.24l.76-.06a.28.28 0 0 0 .21-.1.24.24 0 0 0 .06-.18l-1.7-20.66a.29.29 0 0 0-.33-.25" style="fill:#263238"/><path d="m70.27 405.53-.75.05a.79.79 0 0 1-.86-.7L67 384.21a.77.77 0 0 1 .74-.82l.75-.06a.8.8 0 0 1 .86.71L71 404.7a.79.79 0 0 1-.73.83" style="fill:#fff"/><path d="M69.46 406.08a1.29 1.29 0 0 1-1.3-1.16l-1.7-20.67a1.23 1.23 0 0 1 .3-.91 1.3 1.3 0 0 1 .9-.45l.75-.05a1.29 1.29 0 0 1 1.4 1.16l1.7 20.66a1.22 1.22 0 0 1-.3.91 1.25 1.25 0 0 1-.9.45l-.75.06Zm-.95-22.25-.75.06a.3.3 0 0 0-.22.11.2.2 0 0 0-.05.17l1.7 20.67a.28.28 0 0 0 .32.24l.75-.05a.33.33 0 0 0 .22-.11.23.23 0 0 0 .06-.18l-1.7-20.66a.29.29 0 0 0-.33-.25" style="fill:#263238"/><path d="m77 405-.75.05a.78.78 0 0 1-.86-.7l-1.7-20.67a.77.77 0 0 1 .74-.82l.75-.05a.78.78 0 0 1 .86.7l1.7 20.67a.78.78 0 0 1-.74.82" style="fill:#fff"/><path d="M76.16 405.59a1.3 1.3 0 0 1-1.3-1.17l-1.7-20.67a1.23 1.23 0 0 1 .29-.9 1.32 1.32 0 0 1 .91-.46l.75-.05a1.3 1.3 0 0 1 1.4 1.16l1.7 20.67a1.2 1.2 0 0 1-.3.9 1.3 1.3 0 0 1-.9.46l-.75.05Zm-.92-22.29-.75.05a.36.36 0 0 0-.22.11.24.24 0 0 0-.06.17l1.7 20.67a.29.29 0 0 0 .33.24l.75-.05a.3.3 0 0 0 .22-.11.21.21 0 0 0 .06-.17l-1.7-20.67a.29.29 0 0 0-.36-.21Z" style="fill:#263238"/><path d="m83.67 404.53-.75.06a.79.79 0 0 1-.86-.71l-1.7-20.66a.77.77 0 0 1 .73-.82l.76-.06a.79.79 0 0 1 .86.7l1.7 20.67a.78.78 0 0 1-.74.82" style="fill:#fff"/><path d="M82.86 405.09a1.28 1.28 0 0 1-1.3-1.16l-1.7-20.67a1.26 1.26 0 0 1 1.2-1.36l.75-.06a1.3 1.3 0 0 1 1.4 1.16l1.7 20.67a1.27 1.27 0 0 1-.3.91 1.35 1.35 0 0 1-.9.45l-.75.05Zm-1-22.25-.75.05a.36.36 0 0 0-.22.11.3.3 0 0 0-.06.18l1.7 20.66a.3.3 0 0 0 .33.25l.75-.06a.3.3 0 0 0 .22-.1.24.24 0 0 0 .06-.18l-1.7-20.67a.28.28 0 0 0-.28-.24Z" style="fill:#263238"/><path d="m90.37 404-.75.06a.79.79 0 0 1-.86-.7l-1.7-20.67a.77.77 0 0 1 .73-.82l.76-.06a.79.79 0 0 1 .86.7l1.7 20.67a.78.78 0 0 1-.74.82" style="fill:#fff"/><path d="M89.56 404.59a1.28 1.28 0 0 1-1.3-1.16l-1.7-20.67a1.22 1.22 0 0 1 .29-.91 1.35 1.35 0 0 1 .91-.45l.75-.06a1.31 1.31 0 0 1 1.4 1.16l1.7 20.67a1.27 1.27 0 0 1-.3.91 1.3 1.3 0 0 1-.9.45l-.75.06Zm-1-22.25-.75.06a.3.3 0 0 0-.22.1.3.3 0 0 0-.06.18l1.7 20.67a.3.3 0 0 0 .33.24l.75-.06a.3.3 0 0 0 .22-.1.24.24 0 0 0 .06-.18l-1.7-20.66a.29.29 0 0 0-.28-.25Z" style="fill:#263238"/><path d="M97.07 403.54h-.75a.8.8 0 0 1-.87-.7l-1.7-20.67a.78.78 0 0 1 .74-.82h.75a.79.79 0 0 1 .87.7l1.7 20.67a.79.79 0 0 1-.74.82" style="fill:#fff"/><path d="M96.26 404.09a1.28 1.28 0 0 1-1.3-1.16l-1.7-20.67a1.18 1.18 0 0 1 .29-.9 1.32 1.32 0 0 1 .91-.46h.75a1.3 1.3 0 0 1 1.4 1.16l1.7 20.66a1.26 1.26 0 0 1-.3.91 1.32 1.32 0 0 1-.9.46h-.75Zm-.95-22.25-.75.06a.3.3 0 0 0-.22.11.24.24 0 0 0-.06.17L96 402.85a.29.29 0 0 0 .33.24h.75a.33.33 0 0 0 .22-.11.22.22 0 0 0 .06-.18l-1.7-20.66a.29.29 0 0 0-.35-.3" style="fill:#263238"/><path d="M103.77 403h-.75a.8.8 0 0 1-.87-.7l-1.7-20.67a.79.79 0 0 1 .74-.82h.75a.8.8 0 0 1 .87.7l1.7 20.67a.78.78 0 0 1-.74.82" style="fill:#fff"/><path d="M103 403.6a1.29 1.29 0 0 1-1.3-1.17l-1.7-20.66a1.2 1.2 0 0 1 .29-.91 1.32 1.32 0 0 1 .91-.46h.75a1.3 1.3 0 0 1 1.4 1.16l1.7 20.67a1.23 1.23 0 0 1-.3.9 1.32 1.32 0 0 1-.9.46h-.75Zm-1-22.25h-.75a.33.33 0 0 0-.22.11.24.24 0 0 0-.06.17l1.7 20.67a.3.3 0 0 0 .33.25l.75-.06a.3.3 0 0 0 .22-.11.21.21 0 0 0 .06-.17l-1.7-20.67a.29.29 0 0 0-.33-.19" style="fill:#263238"/><path d="m110.47 402.54-.75.06a.8.8 0 0 1-.87-.7l-1.7-20.67a.78.78 0 0 1 .74-.82l.75-.06a.8.8 0 0 1 .87.7l1.7 20.67a.78.78 0 0 1-.74.82" style="fill:#fff"/><path d="M109.65 403.1a1.28 1.28 0 0 1-1.29-1.16l-1.71-20.67a1.27 1.27 0 0 1 .3-.91 1.3 1.3 0 0 1 .91-.45l.75-.06A1.3 1.3 0 0 1 110 381l1.7 20.67a1.27 1.27 0 0 1-.3.91 1.35 1.35 0 0 1-.9.45l-.75.06Zm-.94-22.25-.75.06a.3.3 0 0 0-.22.1.3.3 0 0 0-.06.18l1.7 20.66a.29.29 0 0 0 .33.25l.75-.06a.3.3 0 0 0 .22-.1.24.24 0 0 0 .06-.18L109 381.09a.29.29 0 0 0-.29-.24" style="fill:#263238"/><path d="m47.98 374.28 37.05 2.24 37.41-8.97.91 5.52-38.14 8.28-36.32-2.07z" style="fill:#92e3a9"/><path d="m85.21 381.85-36.33-2.07a.49.49 0 0 1-.46-.41l-.91-5a.51.51 0 0 1 .12-.43.47.47 0 0 1 .4-.16L85 376l37.34-9a.5.5 0 0 1 .61.41l.91 5.52a.51.51 0 0 1-.39.57l-38.14 8.28Zm-35.9-3.05 35.86 2.05 37.61-8.17-.74-4.52L85.15 377H85l-36.41-2.21Z" style="fill:#263238"/><path d="M76.6 298.34s-2.18 5.53-1.45 16.74 7.08 30.54 7.08 31.58-4.36 5.35-4.17 7.24a13.3 13.3 0 0 0 1.81 4.49s-2 .69-1.81 1.55.72 1.21 2.17 1.21 3.82 1.21 5.27-.34A7.54 7.54 0 0 0 88 356c.37-2.41-.36-6.21-.36-12.42S85 309 85.86 306.11a41 41 0 0 1 2-5.18Z" style="fill:#fff"/><path d="M83.5 362.1a10 10 0 0 1-2-.26 7 7 0 0 0-1.32-.19c-1.21 0-2.37-.19-2.66-1.61-.2-.91.85-1.56 1.57-1.89a12.4 12.4 0 0 1-1.58-4.2c-.13-1.31 1.37-3.3 2.69-5.06a11 11 0 0 0 1.48-2.24c0-.25-.49-1.91-1-3.83-1.79-6.27-5.51-19.32-6-27.71-.73-11.19 1.4-16.72 1.49-16.95a.48.48 0 0 1 .57-.3L88 300.44a.51.51 0 0 1 .34.28.47.47 0 0 1 0 .43 42 42 0 0 0-2 5.11c-.53 1.71.31 13.45 1 22.89.44 6.16.85 12 .85 14.4 0 2.91.16 5.32.29 7.25a26 26 0 0 1 .07 5.25 8.06 8.06 0 0 1-2.67 5.1 3.1 3.1 0 0 1-2.38.95m-6.57-63.17c-.46 1.46-1.88 6.84-1.28 16.12.53 8.28 4.23 21.26 6 27.5a32 32 0 0 1 1.07 4.11c0 .56-.58 1.36-1.68 2.83s-2.59 3.44-2.5 4.37a13 13 0 0 0 1.74 4.26.47.47 0 0 1 0 .43.48.48 0 0 1-.31.31c-.81.29-1.53.79-1.49 1 .1.47.28.81 1.69.81a8 8 0 0 1 1.52.21c1.25.25 2.54.51 3.39-.4a7 7 0 0 0 2.41-4.56 27 27 0 0 0-.07-5c-.14-1.95-.3-4.37-.3-7.32 0-2.38-.41-8.18-.85-14.33-.9-12.51-1.49-21.51-.94-23.26a43 43 0 0 1 1.76-4.68Z" style="fill:#263238"/><path d="M85.68 261.94a19.4 19.4 0 0 0-6.9 4.83c-2.54 3.1-1.63 6.9-1.45 9.32a41 41 0 0 1-.18 5.86l-4 15.7s1.27 2.07 9.81 3.8 11.26 1.72 11.26 1.72-.73-17.94 0-25.19 1.63-10.69-.91-13.28" style="fill:#92e3a9"/><path d="M94.22 303.67c-.11 0-2.87 0-11.36-1.73s-10-3.79-10.13-4a.45.45 0 0 1-.06-.39l4-15.7a40 40 0 0 0 .17-5.71c0-.34-.07-.72-.11-1.12-.27-2.42-.63-5.73 1.67-8.55a19.8 19.8 0 0 1 7.11-5 .5.5 0 0 1 .65.28.51.51 0 0 1-.28.65 19.1 19.1 0 0 0-6.7 4.68c-2 2.5-1.72 5.44-1.46 7.81.05.41.09.8.12 1.16a40 40 0 0 1-.19 5.95l-3.95 15.52c.48.47 2.55 2.06 9.36 3.44a89 89 0 0 0 10.64 1.69c-.11-3.07-.63-18.23 0-24.72.11-1.12.23-2.15.34-3.1.58-5.17.88-7.76-1.11-9.78a.5.5 0 0 1 .72-.7c2.31 2.36 2 5.28 1.38 10.6-.11.94-.22 2-.33 3.08-.72 7.13 0 25 0 25.12a.55.55 0 0 1-.14.37.5.5 0 0 1-.34.15" style="fill:#263238"/><path d="M44.15 122.71h47.19a5.21 5.21 0 0 1 5.21 5.21v29.73a5.22 5.22 0 0 1-5.21 5.22H76L79.09 177l-13.31-14.13H44.15a5.22 5.22 0 0 1-5.22-5.22v-29.73a5.22 5.22 0 0 1 5.22-5.21" style="fill:#fff"/><path d="M79.09 177.49a.5.5 0 0 1-.37-.16l-13.16-14H44.15a5.73 5.73 0 0 1-5.72-5.72v-29.69a5.72 5.72 0 0 1 5.72-5.71h47.19a5.71 5.71 0 0 1 5.71 5.71v29.73a5.72 5.72 0 0 1-5.71 5.72H76.65l2.92 13.51a.49.49 0 0 1-.25.55.46.46 0 0 1-.23.06m-34.94-54.28a4.72 4.72 0 0 0-4.72 4.71v29.73a4.73 4.73 0 0 0 4.72 4.72h21.63a.45.45 0 0 1 .36.16l12.08 12.81L75.54 163a.47.47 0 0 1 .1-.42.5.5 0 0 1 .39-.18h15.31a4.72 4.72 0 0 0 4.71-4.72v-29.76a4.71 4.71 0 0 0-4.71-4.71Z" style="fill:#263238"/><path d="M57.9 142.38a2.53 2.53 0 1 1-2.53-2.53 2.53 2.53 0 0 1 2.53 2.53M70.27 142.38a2.53 2.53 0 1 1-2.53-2.53 2.53 2.53 0 0 1 2.53 2.53M82.64 142.38a2.53 2.53 0 1 1-2.53-2.53 2.53 2.53 0 0 1 2.53 2.53" style="fill:#263238"/><path d="M135.94 139.25H93.66a4.67 4.67 0 0 0-4.66 4.67v26.63a4.68 4.68 0 0 0 4.67 4.68h.91l-2.74 12.65 11.92-12.65h32.19a4.68 4.68 0 0 0 4.67-4.68v-26.63a4.67 4.67 0 0 0-4.68-4.67" style="fill:#92e3a9"/><path d="M91.83 188.38a.46.46 0 0 1-.23-.06.5.5 0 0 1-.26-.55l2.61-12h-.29a5.18 5.18 0 0 1-5.17-5.18v-26.67a5.18 5.18 0 0 1 5.17-5.17h42.28a5.18 5.18 0 0 1 5.17 5.17v26.63a5.18 5.18 0 0 1-5.17 5.18H104l-11.81 12.49a.5.5 0 0 1-.36.16m1.83-48.63a4.17 4.17 0 0 0-4.17 4.17v26.63a4.18 4.18 0 0 0 4.17 4.18h.91a.5.5 0 0 1 .39.18.53.53 0 0 1 .1.42l-2.36 10.9 10.69-11.35a.48.48 0 0 1 .36-.15h32.19a4.18 4.18 0 0 0 4.17-4.18v-26.63a4.17 4.17 0 0 0-4.17-4.17Z" style="fill:#263238"/><path d="M106.16 156.15a2.53 2.53 0 1 1-2.53-2.53 2.53 2.53 0 0 1 2.53 2.53M118.52 156.15a2.53 2.53 0 1 1-2.53-2.53 2.53 2.53 0 0 1 2.53 2.53M130.89 156.15a2.53 2.53 0 1 1-2.53-2.53 2.53 2.53 0 0 1 2.53 2.53M41.05 73.78h10.3v30.73h-10.3z" style="fill:#263238"/><path d="M51.35 104.76h-10.3a.25.25 0 0 1-.25-.25V73.78a.25.25 0 0 1 .25-.25h10.3a.25.25 0 0 1 .25.25v30.73a.25.25 0 0 1-.25.25m-10.05-.5h9.8V74h-9.8Z" style="fill:#263238"/><path d="M57.23 84.83h10.3v19.68h-10.3z" style="fill:#92e3a9"/><path d="M67.54 105H57.23a.5.5 0 0 1-.5-.5V84.83a.51.51 0 0 1 .5-.5h10.31a.51.51 0 0 1 .5.5v19.68a.5.5 0 0 1-.5.49m-9.81-1H67V85.33h-9.27ZM73.42 67.05h10.3v37.46h-10.3z" style="fill:#263238"/><path d="M83.73 104.76H73.42a.25.25 0 0 1-.25-.25V67.05a.25.25 0 0 1 .25-.25h10.31a.25.25 0 0 1 .25.25v37.46a.25.25 0 0 1-.25.25m-10.06-.5h9.81v-37h-9.81Z" style="fill:#263238"/><path d="M89.61 74.8h10.3v29.71h-10.3z" style="fill:#92e3a9"/><path d="M99.91 105h-10.3a.5.5 0 0 1-.5-.5V74.8a.5.5 0 0 1 .5-.5h10.3a.5.5 0 0 1 .5.5v29.71a.5.5 0 0 1-.5.49m-9.8-1h9.3V75.3h-9.3ZM105.8 68.01h10.3v36.5h-10.3z" style="fill:#263238"/><path d="M116.1 104.76h-10.3a.25.25 0 0 1-.25-.25V68a.25.25 0 0 1 .25-.25h10.3a.25.25 0 0 1 .25.25v36.5a.25.25 0 0 1-.25.26m-10-.5h9.8v-36h-9.8Z" style="fill:#263238"/><path d="M121.99 46.38h10.3v58.13h-10.3z" style="fill:#92e3a9"/><path d="M132.29 105H122a.5.5 0 0 1-.5-.5V46.38a.5.5 0 0 1 .5-.5h10.3a.5.5 0 0 1 .5.5v58.13a.5.5 0 0 1-.51.49m-9.8-1h9.3V46.88h-9.3ZM149.89 46h-6a.25.25 0 0 1 0-.5h6a.25.25 0 0 1 0 .5M149.89 57.76h-6a.25.25 0 0 1-.25-.25.25.25 0 0 1 .25-.25h6a.25.25 0 0 1 .25.25.25.25 0 0 1-.25.25M149.89 69.52h-6a.25.25 0 0 1-.25-.25.25.25 0 0 1 .25-.25h6a.25.25 0 0 1 .25.25.25.25 0 0 1-.25.25M149.89 81.27h-6a.25.25 0 0 1 0-.5h6a.25.25 0 0 1 0 .5M149.89 93h-6a.25.25 0 0 1 0-.5h6a.25.25 0 0 1 0 .5M149.89 104.77h-6a.25.25 0 0 1 0-.5h6a.25.25 0 0 1 0 .5M62.72 72.5a.5.5 0 0 1-.26-.08l-15.78-9.55a.5.5 0 1 1 .52-.87l15.43 9.34 16.14-17.27a.52.52 0 0 1 .41-.16l16.1 1.36 15.47-6.14 17.69-23.28a.5.5 0 1 1 .8.6l-17.78 23.39a.5.5 0 0 1-.21.17l-15.71 6.23a.7.7 0 0 1-.23 0l-16-1.35-16.22 17.45a.52.52 0 0 1-.37.16" style="fill:#263238"/><path d="M48.93 62.45a2 2 0 1 0-2 2 2 2 0 0 0 2-2M64.71 72a2 2 0 1 0-2 2 2 2 0 0 0 2-2M81.12 54.41a2 2 0 1 0-2 2 2 2 0 0 0 2-2M97.34 55.78a2 2 0 1 0-2 2 2 2 0 0 0 2-2M113.05 49.23a2 2 0 1 0-2 2 2 2 0 0 0 2-2M130.83 26.15a2 2 0 1 0-2 2 2 2 0 0 0 2-2" style="fill:#263238"/></svg>