<?xml version="1.0" encoding="utf-8"?>
<!-- Generator: Adobe Illustrator 27.5.0, SVG Export Plug-In . SVG Version: 6.00 Build 0)  -->
<svg version="1.1" xmlns="http://www.w3.org/2000/svg" xmlns:xlink="http://www.w3.org/1999/xlink" x="0px" y="0px"
	 viewBox="0 0 500 500" style="enable-background:new 0 0 500 500;" xml:space="preserve">
<g id="BACKGROUND">
	<rect style="fill:#FFFFFF;" width="500" height="500"/>
</g>
<g id="OBJECTS">
	<path style="fill:#EBEBEB;" d="M193.338,79.337c3.88-2.211,7.711-4.27,11.367-6.195c24.066-12.675,53.61-12.161,79.263-5.183
		c58.383,15.881,88.921,78.004,128.499,94.274c39.578,16.269,93.587,185.73-57.362,208.69
		c-150.948,22.96-229.094,64.048-290.423,16.047c-61.328-48.002,0-141.576,54.052-160.024
		c53.896-18.395,19.091-67.242,28.248-100.055C152.949,105.512,173.768,90.488,193.338,79.337z"/>
	<g>
		<g>
			<path style="fill:none;stroke:#BC6E2B;stroke-miterlimit:10;" d="M322.824,418.931c0,0-0.967-33.49,97.505-88.954"/>
			<g>
				<path style="fill:#BC6E2B;" d="M409.083,321.57c0.488,14.419-9.041,21.075-9.041,21.075s-4.185-10.844,4.274-22.531
					C405.799,318.065,408.997,319.042,409.083,321.57z"/>
				<path style="fill:#BC6E2B;" d="M422.796,345.497c-12.195-7.709-22.755-2.852-22.755-2.852s7.241,9.093,21.601,7.701
					C424.16,350.102,424.934,346.849,422.796,345.497z"/>
			</g>
			<g>
				<path style="fill:#BC6E2B;" d="M383.992,335.764c1.934,14.297-6.877,21.877-6.877,21.877s-5.254-10.369,1.988-22.846
					C380.373,332.607,383.653,333.258,383.992,335.764z"/>
				<path style="fill:#BC6E2B;" d="M400.041,358.192c-12.908-6.445-22.926-0.55-22.926-0.55s8.118,8.319,22.266,5.491
					C401.861,362.637,402.304,359.322,400.041,358.192z"/>
			</g>
			<g>
				<path style="fill:#BC6E2B;" d="M363.231,349.487c2.987,14.115-5.24,22.327-5.24,22.327s-6.006-9.952,0.293-22.931
					C359.387,346.607,362.707,347.013,363.231,349.487z"/>
				<path style="fill:#BC6E2B;" d="M380.895,370.666c-13.349-5.472-22.904,1.148-22.904,1.148s8.712,7.695,22.611,3.828
					C383.039,374.964,383.235,371.626,380.895,370.666z"/>
			</g>
			<path style="fill:#BC6E2B;" d="M440.344,323.073c-10.173,10.23-21.549,7.844-21.549,7.844s5.036-10.476,19.345-12.315
				C440.649,318.28,442.127,321.28,440.344,323.073z"/>
		</g>
		<g>
			<path style="fill:#C7C7C7;" d="M340.291,412.621c0,0,42.808-44.7,88.944-54.358c46.136-9.658-33.49-44.869-97.249,40.87
				C329.568,419.424,340.291,412.621,340.291,412.621z"/>
			<g>
				<path style="fill:#A6A6A6;" d="M441.493,347.977c-4.863-0.3-9.734-0.05-14.557,0.482c-4.825,0.527-9.613,1.359-14.322,2.506
					c-9.412,2.292-18.581,5.619-27.152,10.127c-4.298,2.22-8.515,4.619-12.513,7.357l-1.514,1.004l-1.474,1.062l-2.942,2.133
					l-2.851,2.255l-1.436,1.116l-1.389,1.173l-2.774,2.354c-0.913,0.799-1.786,1.641-2.682,2.46
					c-1.813,1.616-3.495,3.368-5.21,5.089c-0.878,0.842-1.705,1.732-2.524,2.629l-2.478,2.678c-1.612,1.821-3.164,3.696-4.77,5.53
					c1.479-1.933,2.929-3.896,4.47-5.786l2.359-2.797c0.781-0.938,1.571-1.869,2.412-2.754c1.666-1.785,3.315-3.589,5.091-5.268
					c0.878-0.849,1.735-1.722,2.632-2.553l2.729-2.451c1.79-1.67,3.75-3.141,5.64-4.696l2.952-2.183l1.479-1.087l1.521-1.029
					c4.017-2.803,8.258-5.275,12.592-7.557c4.353-2.251,8.872-4.174,13.476-5.842c4.609-1.654,9.309-3.073,14.102-4.075
					C421.921,347.845,431.789,346.848,441.493,347.977z"/>
			</g>
		</g>
		<g>
			<path style="fill:#FFC061;" d="M312.505,409.622c0,0,65.317-65.465,141.007-35.403c75.69,30.062-77.875,52.54-129.39,90.156
				C306.941,428.233,312.505,409.622,312.505,409.622z"/>
			<g>
				<path style="fill:#DB973E;" d="M468.155,381.815c-6.943,0.421-13.863,1.066-20.751,1.955c-6.893,0.833-13.761,1.849-20.588,3.08
					c-13.654,2.445-27.188,5.546-40.438,9.592c-13.258,4.006-26.226,8.974-38.668,15.056c-12.435,6.097-24.226,13.516-35.032,22.288
					c2.61-2.293,5.145-4.697,7.929-6.793c1.379-1.063,2.699-2.211,4.13-3.205l4.243-3.061c5.793-3.881,11.757-7.534,17.955-10.754
					c12.371-6.498,25.452-11.574,38.797-15.657c6.689-1.994,13.438-3.783,20.243-5.32c6.816-1.485,13.666-2.814,20.564-3.826
					c6.894-1.031,13.815-1.866,20.753-2.478c3.473-0.27,6.947-0.506,10.425-0.66C461.194,381.865,464.675,381.765,468.155,381.815z"
					/>
			</g>
			<g>
				<path style="fill:#DB973E;" d="M406.322,390.731c3.822,0.644,7.525,1.847,11.135,3.23c3.616,1.384,7.12,3.044,10.544,4.846
					c3.382,1.878,6.728,3.83,9.875,6.081c3.181,2.194,6.204,4.617,9.037,7.246c-1.713-0.913-3.337-1.935-5.004-2.89
					c-1.669-0.95-3.294-1.958-4.965-2.892c-0.833-0.469-1.662-0.945-2.479-1.437l-2.503-1.392c-1.646-0.964-3.34-1.844-5.012-2.759
					c-3.354-1.814-6.757-3.531-10.183-5.219C413.33,393.883,409.872,392.255,406.322,390.731z"/>
			</g>
			<g>
				<path style="fill:#DB973E;" d="M374.962,398.994c2.387-5.106,4.885-10.021,7.212-15.038c1.204-2.487,2.317-5.012,3.45-7.538
					c1.151-2.524,2.169-5.095,3.366-7.664c-0.302,2.805-0.877,5.588-1.741,8.271c-0.376,1.364-0.916,2.666-1.387,3.996
					c-0.535,1.303-1.082,2.603-1.678,3.88c-1.221,2.539-2.548,5.028-4.084,7.39C378.58,394.658,376.914,396.944,374.962,398.994z"/>
			</g>
			<g>
				<path style="fill:#DB973E;" d="M341.531,413.778c4.368,0.2,8.695,0.928,12.959,1.898c4.267,0.974,8.462,2.275,12.56,3.855
					c4.067,1.657,8.04,3.586,11.754,5.958c3.674,2.426,7.098,5.278,9.861,8.667c-3.42-2.732-7.004-5.081-10.749-7.176
					c-1.931-0.946-3.785-2.014-5.769-2.844c-1.924-0.944-3.931-1.718-5.914-2.538c-3.993-1.587-8.077-2.953-12.193-4.253
					C349.914,416.073,345.752,414.887,341.531,413.778z"/>
			</g>
			<path style="opacity:0.28;fill:#A87D1D;" d="M378.942,371.219c-39.417,11.329-66.437,38.403-66.437,38.403
				s-5.565,18.611,11.618,54.754c13.031-9.515,32.592-18.061,53.32-26.007C363.163,416.676,373.315,385.023,378.942,371.219z"/>
		</g>
	</g>
	<g>
		<g>
			<path style="fill:none;stroke:#BC6E2B;stroke-miterlimit:10;" d="M177.402,418.931c0,0,0.967-33.49-97.505-88.954"/>
			<g>
				<path style="fill:#BC6E2B;" d="M91.143,321.57c-0.488,14.419,9.041,21.075,9.041,21.075s4.185-10.844-4.274-22.531
					C94.427,318.065,91.229,319.042,91.143,321.57z"/>
				<path style="fill:#BC6E2B;" d="M77.43,345.497c12.195-7.709,22.755-2.852,22.755-2.852s-7.241,9.093-21.601,7.701
					C76.066,350.102,75.292,346.849,77.43,345.497z"/>
			</g>
			<g>
				<path style="fill:#BC6E2B;" d="M116.233,335.764c-1.934,14.297,6.877,21.877,6.877,21.877s5.254-10.369-1.988-22.846
					C119.853,332.607,116.572,333.258,116.233,335.764z"/>
				<path style="fill:#BC6E2B;" d="M100.185,358.192c12.908-6.445,22.926-0.55,22.926-0.55s-8.118,8.319-22.265,5.491
					C98.365,362.637,97.921,359.322,100.185,358.192z"/>
			</g>
			<g>
				<path style="fill:#BC6E2B;" d="M136.995,349.487c-2.987,14.115,5.24,22.327,5.24,22.327s6.007-9.952-0.293-22.931
					C140.839,346.607,137.519,347.013,136.995,349.487z"/>
				<path style="fill:#BC6E2B;" d="M119.331,370.666c13.349-5.472,22.904,1.148,22.904,1.148s-8.712,7.695-22.611,3.828
					C117.187,374.964,116.991,371.626,119.331,370.666z"/>
			</g>
			<path style="fill:#BC6E2B;" d="M59.882,323.073c10.173,10.23,21.549,7.844,21.549,7.844s-5.036-10.476-19.345-12.315
				C59.577,318.28,58.098,321.28,59.882,323.073z"/>
		</g>
		<g>
			<path style="fill:#C7C7C7;" d="M159.935,412.621c0,0-42.808-44.7-88.943-54.358c-46.136-9.658,33.49-44.869,97.248,40.87
				C170.658,419.424,159.935,412.621,159.935,412.621z"/>
			<g>
				<path style="fill:#A6A6A6;" d="M58.733,347.977c9.704-1.128,19.572-0.132,29.132,1.878c4.793,1.002,9.493,2.421,14.102,4.075
					c4.604,1.668,9.123,3.59,13.476,5.842c4.334,2.282,8.576,4.754,12.592,7.557l1.521,1.029l1.479,1.087l2.952,2.183
					c1.89,1.554,3.85,3.026,5.64,4.696l2.729,2.451c0.897,0.83,1.753,1.703,2.632,2.553c1.776,1.679,3.425,3.483,5.091,5.268
					c0.841,0.885,1.631,1.816,2.412,2.754l2.359,2.797c1.541,1.89,2.991,3.853,4.47,5.786c-1.606-1.835-3.158-3.709-4.77-5.53
					l-2.478-2.678c-0.82-0.897-1.647-1.787-2.524-2.629c-1.715-1.721-3.397-3.473-5.21-5.089c-0.896-0.819-1.769-1.661-2.682-2.46
					l-2.774-2.354l-1.389-1.173l-1.436-1.116l-2.851-2.255l-2.942-2.133l-1.474-1.062l-1.514-1.004
					c-3.998-2.738-8.215-5.137-12.513-7.357c-8.572-4.508-17.74-7.835-27.152-10.127c-4.709-1.146-9.496-1.978-14.322-2.506
					C68.467,347.927,63.596,347.677,58.733,347.977z"/>
			</g>
		</g>
		<g>
			<path style="fill:#FFC061;" d="M187.721,409.622c0,0-65.317-65.465-141.008-35.403c-75.69,30.062,77.875,52.54,129.39,90.156
				C193.285,428.233,187.721,409.622,187.721,409.622z"/>
			<g>
				<path style="fill:#DB973E;" d="M32.071,381.815c3.479-0.05,6.96,0.051,10.437,0.217c3.478,0.155,6.952,0.39,10.425,0.66
					c6.938,0.612,13.859,1.447,20.753,2.478c6.898,1.011,13.748,2.34,20.564,3.826c6.805,1.536,13.554,3.325,20.243,5.32
					c13.345,4.083,26.426,9.159,38.797,15.657c6.199,3.219,12.162,6.873,17.955,10.754l4.243,3.061
					c1.431,0.995,2.751,2.143,4.13,3.205c2.784,2.096,5.319,4.5,7.928,6.793c-10.805-8.772-22.596-16.191-35.032-22.288
					c-12.442-6.081-25.41-11.05-38.668-15.056c-13.25-4.046-26.784-7.147-40.438-9.592c-6.827-1.231-13.695-2.247-20.588-3.08
					C45.934,382.881,39.014,382.236,32.071,381.815z"/>
			</g>
			<g>
				<path style="fill:#DB973E;" d="M93.903,390.731c-3.55,1.524-7.007,3.151-10.446,4.815c-3.425,1.688-6.828,3.405-10.182,5.219
					c-1.672,0.915-3.366,1.794-5.012,2.759l-2.503,1.392c-0.818,0.492-1.646,0.968-2.479,1.437c-1.67,0.933-3.296,1.941-4.965,2.892
					c-1.667,0.955-3.291,1.978-5.004,2.89c2.834-2.629,5.856-5.052,9.038-7.246c3.147-2.251,6.493-4.203,9.875-6.081
					c3.424-1.802,6.927-3.462,10.544-4.846C86.378,392.578,90.081,391.376,93.903,390.731z"/>
			</g>
			<g>
				<path style="fill:#DB973E;" d="M125.263,398.994c-1.952-2.05-3.617-4.336-5.138-6.703c-1.536-2.361-2.863-4.85-4.084-7.39
					c-0.595-1.277-1.142-2.577-1.678-3.88c-0.471-1.331-1.011-2.633-1.387-3.996c-0.864-2.683-1.439-5.466-1.741-8.271
					c1.197,2.568,2.215,5.14,3.366,7.664c1.133,2.526,2.245,5.051,3.45,7.538C120.378,388.973,122.877,393.888,125.263,398.994z"/>
			</g>
			<g>
				<path style="fill:#DB973E;" d="M158.695,413.778c-4.221,1.109-8.383,2.295-12.51,3.567c-4.116,1.3-8.2,2.666-12.193,4.253
					c-1.982,0.819-3.989,1.594-5.914,2.538c-1.985,0.83-3.838,1.898-5.769,2.844c-3.745,2.095-7.329,4.444-10.749,7.176
					c2.763-3.389,6.188-6.24,9.861-8.667c3.714-2.372,7.687-4.3,11.754-5.958c4.098-1.581,8.293-2.882,12.56-3.855
					C150,414.705,154.327,413.978,158.695,413.778z"/>
			</g>
			<path style="opacity:0.28;fill:#A87D1D;" d="M121.284,371.219c39.417,11.329,66.437,38.403,66.437,38.403
				s5.564,18.611-11.618,54.754c-13.031-9.515-32.592-18.061-53.32-26.007C137.063,416.676,126.911,385.023,121.284,371.219z"/>
		</g>
	</g>
	<g>
		<ellipse style="fill:#D1D1D1;" cx="250.113" cy="464.376" rx="123.785" ry="6.468"/>
		<path style="fill:#263238;" d="M168.215,464.996h164.349c13.684,0,24.778-11.093,24.778-24.778V63.381
			c0-13.685-11.094-24.778-24.778-24.778H168.215c-13.685,0-24.778,11.093-24.778,24.778v376.837
			C143.436,453.902,154.53,464.996,168.215,464.996z"/>
		<path style="fill:#FFFFFD;" d="M161.035,440.496h178.707c6.344,0,11.487-5.143,11.487-11.488V60.985
			c0-6.344-5.143-11.488-11.487-11.488H161.035c-6.344,0-11.487,5.143-11.487,11.488v368.023
			C149.548,435.353,154.691,440.496,161.035,440.496z"/>
		<path style="fill:#EBEBEB;" d="M330.358,274.229H170.745c-6.949,0-12.582,5.633-12.582,12.582v132.143
			c0,6.949,5.633,12.582,12.582,12.582h159.613c6.949,0,12.582-5.633,12.582-12.582V286.811
			C342.939,279.862,337.306,274.229,330.358,274.229z"/>
		<path style="fill:#EBEBEB;" d="M332.636,89.375H169.295c-5.69,0-10.303,4.613-10.303,10.303v155.087
			c0,5.69,4.613,10.303,10.303,10.303h163.341c5.69,0,10.303-4.613,10.303-10.303V99.678
			C342.939,93.988,338.327,89.375,332.636,89.375z"/>
		<path style="fill:#DBDBDB;" d="M339.743,49.498H161.035c-6.344,0-11.487,5.143-11.487,11.488v4.432H351.23v-4.432
			C351.23,54.641,346.087,49.498,339.743,49.498z"/>
		<g>
			<rect x="318.894" y="54.001" style="fill:#FFFFFF;" width="18.536" height="8.697"/>
			<rect x="315.883" y="56.068" style="fill:#FFFFFF;" width="2.034" height="4.564"/>
			<rect x="321.006" y="55.562" style="fill:#C7C7C7;" width="3.345" height="5.575"/>
			<rect x="326.436" y="55.562" style="fill:#C7C7C7;" width="3.345" height="5.575"/>
			<rect x="331.866" y="55.562" style="fill:#C7C7C7;" width="3.345" height="5.575"/>
		</g>
		<rect x="306.628" y="52.44" style="fill:#A6A6A6;" width="2.007" height="10.035"/>
		<rect x="302.614" y="54.336" style="fill:#A6A6A6;" width="2.007" height="8.14"/>
		<rect x="298.6" y="56.994" style="fill:#A6A6A6;" width="2.007" height="5.481"/>
		<rect x="294.586" y="59.576" style="fill:#A6A6A6;" width="2.007" height="2.899"/>
		<path style="fill:#A6A6A6;" d="M278.167,59.576h-53.247c-1.317,0-2.394-1.077-2.394-2.394l0,0c0-1.317,1.077-2.394,2.394-2.394
			h53.247c1.317,0,2.394,1.077,2.394,2.394l0,0C280.56,58.499,279.483,59.576,278.167,59.576z"/>
		<g>
			<circle style="fill:#263238;" cx="161.994" cy="58.35" r="5.018"/>
			<path style="fill:#455A64;" d="M164.106,58.356c0,1.166-0.945,2.112-2.112,2.112c-1.166,0-2.112-0.945-2.112-2.112
				c0-1.166,0.945-2.112,2.112-2.112C163.16,56.245,164.106,57.19,164.106,58.356z"/>
			<path style="fill:#FFFFFF;" d="M165.386,57.801c0,0.785-0.636,1.422-1.422,1.422c-0.785,0-1.422-0.637-1.422-1.422
				c0-0.785,0.636-1.422,1.422-1.422C164.749,56.379,165.386,57.015,165.386,57.801z"/>
		</g>
		<g>
			
				<line style="fill:none;stroke:#606060;stroke-width:0.9651;stroke-linecap:round;stroke-miterlimit:10;" x1="177.403" y1="53.332" x2="189.412" y2="53.332"/>
			
				<line style="fill:none;stroke:#606060;stroke-width:0.9651;stroke-linecap:round;stroke-miterlimit:10;" x1="177.403" y1="57.365" x2="189.412" y2="57.365"/>
			
				<line style="fill:none;stroke:#606060;stroke-width:0.9651;stroke-linecap:round;stroke-miterlimit:10;" x1="177.403" y1="61.397" x2="189.412" y2="61.397"/>
		</g>
	</g>
	<g>
		<path style="fill:#DBDBDB;" d="M120.732,75.677c0,6.649-1.111,12.04-2.482,12.04c-1.371,0-2.482-5.39-2.482-12.04
			c0-6.649,1.112-12.04,2.482-12.04C119.621,63.637,120.732,69.028,120.732,75.677z"/>
		<path style="fill:#DBDBDB;" d="M118.25,73.195c6.649,0,12.04,1.111,12.04,2.482c0,1.371-5.39,2.482-12.04,2.482
			c-6.649,0-12.04-1.112-12.04-2.482C106.21,74.306,111.6,73.195,118.25,73.195z"/>
	</g>
	<g>
		<path style="fill:#C7C7C7;" d="M462.207,190.955c0,5.925-0.99,10.728-2.212,10.728c-1.221,0-2.212-4.803-2.212-10.728
			c0-5.925,0.99-10.728,2.212-10.728C461.217,180.227,462.207,185.03,462.207,190.955z"/>
		<path style="fill:#C7C7C7;" d="M459.995,188.743c5.925,0,10.728,0.99,10.728,2.212c0,1.222-4.803,2.212-10.728,2.212
			c-5.925,0-10.728-0.99-10.728-2.212C449.267,189.733,454.07,188.743,459.995,188.743z"/>
	</g>
	<path style="fill:#DBDBDB;" d="M456.749,330.827c0,2.475-2.007,4.482-4.482,4.482c-2.475,0-4.482-2.007-4.482-4.482
		c0-2.475,2.007-4.482,4.482-4.482C454.743,326.345,456.749,328.351,456.749,330.827z"/>
	<polygon style="fill:#C7C7C7;" points="68.637,224.432 59.144,223.258 49.651,222.084 55.414,214.45 61.177,206.816 
		64.907,215.624 	"/>
	<polygon style="fill:#C7C7C7;" points="442.575,93.392 436.146,91.35 429.717,89.309 434.7,84.762 439.682,80.215 441.129,86.803 	
		"/>
	<g>
		<path style="fill:#FFFFFF;" d="M118.616,294.823H48.432c-2.881,0-5.216-2.335-5.216-5.216v-40.084
			c0-2.881,2.335-5.216,5.216-5.216h70.185c2.881,0,5.216,2.335,5.216,5.216v40.084
			C123.832,292.488,121.497,294.823,118.616,294.823z"/>
		<path style="fill:#C7C7C7;" d="M118.616,244.307H48.432c-2.88,0-5.216,2.335-5.216,5.216v6.815h80.616v-6.815
			C123.832,246.643,121.497,244.307,118.616,244.307z"/>
		<path style="fill:none;stroke:#A6A6A6;stroke-width:0.7959;stroke-miterlimit:10;" d="M118.616,294.823H48.432
			c-2.881,0-5.216-2.335-5.216-5.216v-40.084c0-2.881,2.335-5.216,5.216-5.216h70.185c2.881,0,5.216,2.335,5.216,5.216v40.084
			C123.832,292.488,121.497,294.823,118.616,294.823z"/>
		<path style="fill:#FFFFFF;" d="M53.381,250.549c0,1.549-1.255,2.804-2.804,2.804c-1.549,0-2.804-1.255-2.804-2.804
			c0-1.549,1.255-2.804,2.804-2.804C52.125,247.745,53.381,249.001,53.381,250.549z"/>
		<path style="fill:#EBEBEB;" d="M62.494,250.549c0,1.549-1.255,2.804-2.804,2.804s-2.804-1.255-2.804-2.804
			c0-1.549,1.255-2.804,2.804-2.804S62.494,249.001,62.494,250.549z"/>
		<path style="fill:#FFC061;" d="M71.607,250.549c0,1.549-1.255,2.804-2.804,2.804c-1.549,0-2.804-1.255-2.804-2.804
			c0-1.549,1.255-2.804,2.804-2.804C70.351,247.745,71.607,249.001,71.607,250.549z"/>
		<path style="fill:#EBEBEB;" d="M74.366,265.031v18.199c0,2.667,2.876,4.344,5.197,3.03l16.076-9.1
			c2.356-1.333,2.356-4.727,0-6.061l-16.076-9.1C77.242,260.687,74.366,262.364,74.366,265.031z"/>
	</g>
	<g>
		<path style="fill:#C7C7C7;" d="M392.826,60.611h6.295l2.694,2.438c5.274,3.091,8.817,8.815,8.817,15.369
			c0,6.554-3.544,12.278-8.817,15.369l-2.694,2.438h-6.295c-9.834,0-17.807-7.972-17.807-17.807
			C375.02,68.584,382.992,60.611,392.826,60.611z"/>
		<path style="fill:#FFFFFD;stroke:#EBEBEB;stroke-miterlimit:10;" d="M381.315,78.418c0,9.834,7.972,17.807,17.806,17.807
			c9.834,0,17.807-7.972,17.807-17.807c0-9.834-7.972-17.807-17.807-17.807C389.287,60.611,381.315,68.584,381.315,78.418z"/>
		<path style="fill:#FFC061;" d="M399.126,72.805c3.447-3.987,11.614-5.058,11.597,2.205c-0.016,7.262-11.635,14.572-11.635,14.572
			s-11.586-7.362-11.569-14.625C387.536,67.695,395.698,68.803,399.126,72.805z"/>
	</g>
	<g>
		<path style="fill:#FFC061;" d="M379.909,232.054c0,0,20.411-0.669,23.088-13.05c2.677-12.381-1.004-16.731,0-20.411
			c1.004-3.681,15.057-2.342,15.727,9.704c0.669,12.046-1.673,19.073-1.673,19.073h18.253c5.036,0,8.768,4.805,7.38,9.646
			c-0.615,2.146-1.873,4.321-4.218,6.139c4.685,9.311,4.685,12.323,0.335,17.007c2.008,7.027,1.338,16.247-12.715,16.247
			c-14.054,0-46.176,0-46.176,0V232.054z"/>
		<path style="fill:none;stroke:#B58039;stroke-width:1.1595;stroke-miterlimit:10;" d="M380.919,234.265
			c0,0,21.818-2.108,24.294-13.213c2.475-11.105-0.613-17.351,0.315-20.653c0.928-3.301,9.892,0,10.786,9.271
			c1.039,10.772-2.946,20.393-2.946,20.393h18.774c4.657,0,8.108,4.31,6.824,8.652c-0.569,1.925-1.732,3.876-3.9,5.506
			c4.332,8.352,4.332,11.053,0.309,15.255c1.857,6.303,1.238,14.573-11.758,14.573c-12.995,0-42.699,0-42.699,0V234.265z"/>
		<path style="fill:#BC6E2B;" d="M383.589,272.93c0,3.296-2.672,5.969-5.969,5.969l0,0c-3.296,0-5.969-2.672-5.969-5.969v-41.454
			c0-3.296,2.672-5.969,5.969-5.969l0,0c3.297,0,5.969,2.672,5.969,5.969V272.93z"/>
		<path style="opacity:0.39;fill:#FFFFFF;" d="M379.909,278.351v-41.454c0-3.297-2.673-5.969-5.969-5.969
			c-0.808,0-1.576,0.164-2.279,0.455c0.05-3.253,2.694-5.877,5.959-5.877c3.297,0,5.969,2.672,5.969,5.969v41.454
			c0,2.489-1.525,4.618-3.69,5.514C379.9,278.412,379.909,278.383,379.909,278.351z"/>
		<path style="fill:#FFFFFF;" d="M400.74,242.74c0,0.996,0.808,1.804,1.804,1.804h21.649c0.996,0,1.804-0.808,1.804-1.804l0,0
			c0-0.996-0.808-1.804-1.804-1.804h-21.649C401.548,240.936,400.74,241.744,400.74,242.74L400.74,242.74z"/>
		<path style="fill:#FFFFFF;" d="M400.74,259.428c0,0.996,0.808,1.804,1.804,1.804h21.649c0.996,0,1.804-0.808,1.804-1.804l0,0
			c0-0.996-0.808-1.804-1.804-1.804h-21.649C401.548,257.624,400.74,258.432,400.74,259.428L400.74,259.428z"/>
	</g>
	<g>
		<path style="fill:#BC6E2B;" d="M100.359,161.733h-8.681l-3.715,3.361c-7.272,4.263-12.159,12.155-12.159,21.193
			c0,9.038,4.887,16.93,12.159,21.193l3.715,3.362h8.681c13.561,0,24.554-10.993,24.554-24.555
			C124.913,172.727,113.92,161.733,100.359,161.733z"/>
		<path style="fill:#FFC061;" d="M116.232,186.288c0,13.561-10.993,24.555-24.554,24.555c-13.561,0-24.554-10.993-24.554-24.555
			c0-13.561,10.993-24.554,24.554-24.554C105.239,161.733,116.232,172.727,116.232,186.288z"/>
		<path style="fill:#BC6E2B;" d="M83.156,181.564c0,2.03-1.646,3.676-3.676,3.676c-2.03,0-3.676-1.646-3.676-3.676
			c0-2.03,1.646-3.676,3.676-3.676C81.51,177.888,83.156,179.534,83.156,181.564z"/>
		<path style="fill:#BC6E2B;" d="M105.566,181.564c0,2.03-1.646,3.676-3.676,3.676c-2.03,0-3.676-1.646-3.676-3.676
			c0-2.03,1.646-3.676,3.676-3.676C103.92,177.888,105.566,179.534,105.566,181.564z"/>
		<path style="fill:none;stroke:#BC6E2B;stroke-width:3;stroke-linecap:round;stroke-miterlimit:10;" d="M104.131,192.447
			c-1.776,5.365-6.832,9.236-12.793,9.236c-6.027,0-11.13-3.958-12.851-9.416"/>
	</g>
	<g>
		<g>
			<path style="fill:#455A64;" d="M438.625,185.236H320.954c-1.383,0-2.503-1.121-2.503-2.503v-69.977
				c0-1.382,1.121-2.503,2.503-2.503h117.672c1.383,0,2.503,1.121,2.503,2.503v69.977
				C441.129,184.115,440.008,185.236,438.625,185.236z"/>
			<rect x="321.486" y="113.211" style="fill:#FFFFFF;" width="116.341" height="68.969"/>
			<path style="fill:#FFC061;" d="M433.305,120.969H325.931c-1.355,0-2.453-1.098-2.453-2.453v-0.05
				c0-1.355,1.098-2.453,2.453-2.453h107.373c1.355,0,2.453,1.098,2.453,2.453v0.05C435.758,119.87,434.659,120.969,433.305,120.969
				z"/>
			<circle style="fill:#FFFFFF;" cx="326.668" cy="118.507" r="1.344"/>
			<path style="fill:#FFFFFF;" d="M332.088,118.507c0,0.742-0.601,1.344-1.343,1.344c-0.742,0-1.343-0.602-1.343-1.344
				c0-0.742,0.601-1.343,1.343-1.343C331.486,117.163,332.088,117.765,332.088,118.507z"/>
			<path style="fill:#455A64;" d="M336.164,118.507c0,0.742-0.601,1.344-1.343,1.344c-0.742,0-1.344-0.602-1.344-1.344
				c0-0.742,0.601-1.343,1.344-1.343C335.563,117.163,336.164,117.765,336.164,118.507z"/>
			<path style="fill:#C7C7C7;" d="M432.044,180.214H327.192c-2.051,0-3.714-1.663-3.714-3.714v-49.445
				c0-2.051,1.663-3.714,3.714-3.714h104.851c2.051,0,3.714,1.663,3.714,3.714v49.445
				C435.758,178.551,434.095,180.214,432.044,180.214z"/>
			<g>
				<path style="fill:#FFFFFF;" d="M429.488,135.053c0,2.552-2.069,4.622-4.622,4.622H336.71c-2.553,0-4.622-2.069-4.622-4.622l0,0
					c0-2.553,2.069-4.622,4.622-4.622h88.157C427.419,130.432,429.488,132.501,429.488,135.053L429.488,135.053z"/>
				<path style="fill:#455A64;" d="M346.782,130.432H336.71c-2.553,0-4.622,2.069-4.622,4.622c0,2.553,2.069,4.622,4.622,4.622
					h10.072V130.432z"/>
			</g>
			<path style="fill:#EBEBEB;" d="M419.883,148.446c0,1.672-1.356,3.028-3.028,3.028H342.88c-1.672,0-3.028-1.356-3.028-3.028l0,0
				c0-1.672,1.356-3.028,3.028-3.028h73.975C418.527,145.418,419.883,146.773,419.883,148.446L419.883,148.446z"/>
			<path style="fill:#EBEBEB;" d="M419.883,159.056c0,1.672-1.356,3.028-3.028,3.028H342.88c-1.672,0-3.028-1.356-3.028-3.028l0,0
				c0-1.672,1.356-3.028,3.028-3.028h73.975C418.527,156.028,419.883,157.384,419.883,159.056L419.883,159.056z"/>
		</g>
		<g>
			<path style="fill:none;stroke:#FFFFFF;stroke-width:0.8437;stroke-miterlimit:10;" d="M342.866,134.653
				c0,1.204-0.976,2.18-2.18,2.18c-1.204,0-2.18-0.976-2.18-2.18c0-1.204,0.976-2.179,2.18-2.179
				C341.89,132.473,342.866,133.449,342.866,134.653z"/>
			
				<line style="fill:none;stroke:#FFFFFF;stroke-width:0.8437;stroke-miterlimit:10;" x1="338.868" y1="135.853" x2="335.676" y2="137.956"/>
		</g>
	</g>
	<g>
		<path style="fill:#455A64;" d="M174.951,135.012H45.68c-1.393,0-2.523-1.13-2.523-2.523v-29.468c0-1.393,1.129-2.523,2.523-2.523
			h129.272c1.393,0,2.523,1.13,2.523,2.523v29.468C177.474,133.882,176.345,135.012,174.951,135.012z"/>
		<path style="fill:#C7C7C7;" d="M165.474,135.012H36.202c-1.393,0-2.523-1.13-2.523-2.523v-29.468c0-1.393,1.13-2.523,2.523-2.523
			h129.272c1.393,0,2.523,1.13,2.523,2.523v29.468C167.997,133.882,166.867,135.012,165.474,135.012z"/>
		<path style="fill:#EBEBEB;" d="M163.089,132.618H38.607c-1.442,0-2.612-1.169-2.612-2.612v-24.503
			c0-1.442,1.169-2.612,2.612-2.612h124.482c1.442,0,2.612,1.169,2.612,2.612v24.503C165.7,131.449,164.531,132.618,163.089,132.618
			z"/>
		<g>
			<g>
				<polygon style="fill:#A87D1D;" points="53.701,107.477 55.099,107.477 55.419,108.752 53.701,109.269 				"/>
				<path style="fill:#A87D1D;" d="M55.841,107.938l2.518,5.103l5.631,0.818c0.678,0.099,0.949,0.932,0.458,1.411l-4.075,3.972
					l0.962,5.608c0.116,0.675-0.593,1.191-1.2,0.872l-5.037-2.648l-5.037,2.648c-0.606,0.319-1.316-0.196-1.2-0.872l0.962-5.608
					l-4.075-3.972c-0.491-0.478-0.22-1.312,0.458-1.411l5.631-0.818l2.518-5.103C54.661,107.323,55.538,107.323,55.841,107.938z"/>
				<path style="fill:#EDB62B;" d="M54.442,107.938l2.518,5.103l5.631,0.818c0.678,0.099,0.949,0.932,0.458,1.411l-4.075,3.972
					l0.962,5.608c0.116,0.675-0.593,1.191-1.2,0.872l-5.037-2.648l-5.037,2.648c-0.607,0.319-1.316-0.196-1.2-0.872l0.962-5.608
					l-4.075-3.972c-0.491-0.478-0.22-1.312,0.458-1.411l5.631-0.818l2.518-5.103C53.263,107.323,54.139,107.323,54.442,107.938z"/>
			</g>
			<path style="opacity:0.62;fill:#FFFFFF;" d="M52.252,113.363c-0.122,0.243-0.418,0.341-0.661,0.219l0,0
				c-0.243-0.122-0.341-0.418-0.219-0.661l1.73-3.446c0.122-0.243,0.418-0.341,0.66-0.219l0,0c0.243,0.122,0.341,0.418,0.219,0.661
				L52.252,113.363z"/>
		</g>
		<g>
			<g>
				<polygon style="fill:#A87D1D;" points="77.208,107.477 78.607,107.477 78.926,108.752 77.208,109.269 				"/>
				<path style="fill:#A87D1D;" d="M79.348,107.938l2.518,5.103l5.631,0.818c0.678,0.099,0.949,0.932,0.458,1.411l-4.075,3.972
					l0.962,5.608c0.116,0.675-0.593,1.191-1.2,0.872l-5.037-2.648l-5.037,2.648c-0.607,0.319-1.316-0.196-1.2-0.872l0.962-5.608
					l-4.075-3.972c-0.491-0.478-0.22-1.312,0.458-1.411l5.631-0.818l2.518-5.103C78.169,107.323,79.045,107.323,79.348,107.938z"/>
				<path style="fill:#EDB62B;" d="M77.95,107.938l2.518,5.103l5.631,0.818c0.678,0.099,0.949,0.932,0.458,1.411l-4.075,3.972
					l0.962,5.608c0.116,0.675-0.593,1.191-1.2,0.872l-5.037-2.648l-5.037,2.648c-0.607,0.319-1.316-0.196-1.2-0.872l0.962-5.608
					l-4.075-3.972c-0.491-0.478-0.22-1.312,0.458-1.411l5.631-0.818l2.518-5.103C76.77,107.323,77.646,107.323,77.95,107.938z"/>
			</g>
			<path style="opacity:0.62;fill:#FFFFFF;" d="M75.759,113.363c-0.122,0.243-0.418,0.341-0.661,0.219l0,0
				c-0.243-0.122-0.341-0.418-0.219-0.661l1.73-3.446c0.122-0.243,0.418-0.341,0.661-0.219l0,0c0.243,0.122,0.341,0.418,0.219,0.661
				L75.759,113.363z"/>
		</g>
		<g>
			<g>
				<polygon style="fill:#A87D1D;" points="100.716,107.477 102.114,107.477 102.433,108.752 100.716,109.269 				"/>
				<path style="fill:#A87D1D;" d="M102.856,107.938l2.518,5.103l5.631,0.818c0.678,0.099,0.949,0.932,0.458,1.411l-4.075,3.972
					l0.962,5.608c0.116,0.675-0.593,1.191-1.2,0.872l-5.037-2.648l-5.037,2.648c-0.607,0.319-1.316-0.196-1.2-0.872l0.962-5.608
					l-4.075-3.972c-0.491-0.478-0.22-1.312,0.458-1.411l5.631-0.818l2.518-5.103C101.676,107.323,102.552,107.323,102.856,107.938z"
					/>
				<path style="fill:#EDB62B;" d="M101.457,107.938l2.518,5.103l5.631,0.818c0.678,0.099,0.949,0.932,0.458,1.411l-4.075,3.972
					l0.962,5.608c0.116,0.675-0.593,1.191-1.2,0.872l-5.037-2.648l-5.037,2.648c-0.607,0.319-1.316-0.196-1.2-0.872l0.962-5.608
					l-4.075-3.972c-0.491-0.478-0.22-1.312,0.458-1.411l5.631-0.818l2.518-5.103C100.277,107.323,101.154,107.323,101.457,107.938z"
					/>
			</g>
			<path style="opacity:0.62;fill:#FFFFFF;" d="M99.267,113.363c-0.122,0.243-0.418,0.341-0.661,0.219l0,0
				c-0.243-0.122-0.341-0.418-0.219-0.661l1.73-3.446c0.122-0.243,0.418-0.341,0.661-0.219l0,0c0.243,0.122,0.341,0.418,0.219,0.661
				L99.267,113.363z"/>
		</g>
		<g>
			<g>
				<polygon style="fill:#A87D1D;" points="124.223,107.477 125.622,107.477 125.941,108.752 124.223,109.269 				"/>
				<path style="fill:#A87D1D;" d="M126.363,107.938l2.518,5.103l5.631,0.818c0.678,0.099,0.949,0.932,0.458,1.411l-4.075,3.972
					l0.962,5.608c0.116,0.675-0.593,1.191-1.2,0.872l-5.037-2.648l-5.037,2.648c-0.607,0.319-1.316-0.196-1.2-0.872l0.962-5.608
					l-4.075-3.972c-0.491-0.478-0.22-1.312,0.458-1.411l5.631-0.818l2.518-5.103C125.183,107.323,126.06,107.323,126.363,107.938z"
					/>
				<path style="fill:#EDB62B;" d="M124.965,107.938l2.518,5.103l5.631,0.818c0.678,0.099,0.949,0.932,0.458,1.411l-4.075,3.972
					l0.962,5.608c0.116,0.675-0.593,1.191-1.2,0.872l-5.037-2.648l-5.037,2.648c-0.607,0.319-1.316-0.196-1.2-0.872l0.962-5.608
					l-4.075-3.972c-0.491-0.478-0.22-1.312,0.458-1.411l5.631-0.818l2.518-5.103C123.785,107.323,124.661,107.323,124.965,107.938z"
					/>
			</g>
			<path style="opacity:0.62;fill:#FFFFFF;" d="M122.774,113.363c-0.122,0.243-0.418,0.341-0.661,0.219l0,0
				c-0.243-0.122-0.341-0.418-0.219-0.661l1.73-3.446c0.122-0.243,0.418-0.341,0.661-0.219l0,0c0.243,0.122,0.341,0.418,0.219,0.661
				L122.774,113.363z"/>
		</g>
		<g>
			<g>
				<polygon style="fill:#A87D1D;" points="149.129,107.477 147.73,107.477 147.411,108.752 149.129,109.269 				"/>
				<path style="fill:#999999;" d="M146.989,107.938l-2.518,5.103l-5.631,0.818c-0.678,0.099-0.949,0.932-0.458,1.411l4.075,3.972
					l-0.962,5.608c-0.116,0.675,0.593,1.191,1.2,0.872l5.037-2.648l5.037,2.648c0.607,0.319,1.316-0.196,1.2-0.872l-0.962-5.608
					l4.075-3.972c0.491-0.478,0.22-1.312-0.458-1.411l-5.631-0.818l-2.518-5.103C148.169,107.323,147.292,107.323,146.989,107.938z"
					/>
				<path style="fill:#C7C7C7;" d="M148.387,107.938l-2.518,5.103l-5.631,0.818c-0.678,0.099-0.949,0.932-0.458,1.411l4.075,3.972
					l-0.962,5.608c-0.116,0.675,0.593,1.191,1.2,0.872l5.037-2.648l5.037,2.648c0.607,0.319,1.316-0.196,1.2-0.872l-0.962-5.608
					l4.075-3.972c0.491-0.478,0.22-1.312-0.458-1.411l-5.631-0.818l-2.518-5.103C149.567,107.323,148.691,107.323,148.387,107.938z"
					/>
			</g>
		</g>
		<polygon style="fill:#C7C7C7;" points="115.258,134.366 127.676,148.952 124.858,134.366 		"/>
		<polygon style="fill:#455A64;" points="127.676,148.952 133.603,148.952 131.949,135.326 124.858,135.326 		"/>
	</g>
	<g>
		<defs>
			<rect id="SVGID_1_" x="159.932" y="65.418" width="183.948" height="375.078"/>
		</defs>
		<clipPath id="SVGID_00000039092349674839718750000010964546806075811494_">
			<use xlink:href="#SVGID_1_"  style="overflow:visible;"/>
		</clipPath>
		<g style="clip-path:url(#SVGID_00000039092349674839718750000010964546806075811494_);">
			<path style="fill:#FFC061;" d="M270.473,183.728l38.607,17.013l-2.443,183.375c0,0-38.435-2.407-55.38-15.554
				c0-128.323,0-143.24,0-143.24v-25.346l4.261-15.642L270.473,183.728z"/>
			<path style="fill:#FFC061;" d="M226.415,619.424c0,0,3.516,16.642,1.172,28.362c-16.642,3.282-40.082,2.344-42.66-0.938
				c2.344-13.361,14.298-21.565,16.642-21.33c2.11-6.094,2.11-6.094,2.11-6.094H226.415z"/>
			<path style="fill:#BC6E2B;" d="M223.505,648.486c-16.154,2.415-36.205,1.384-38.579-1.637
				c2.344-13.361,14.298-21.565,16.642-21.33C201.568,625.519,225.515,623.175,223.505,648.486z"/>
			<path style="fill:#BC6C64;" d="M227.586,608.173l-1.172,11.251c0,0-11.72,7.032-22.736,0
				c-0.234-15.001-0.234-15.001-0.234-15.001L227.586,608.173z"/>
			<path style="fill:#FFC061;" d="M297.965,619.631c0,0-1.303,19.118,0,25.201c29.329,3.259,43.379,4.692,51.2,1.216
				c7.821-3.476-10.166-22.072-17.539-22.072c-10.363-6.517-10.363-6.517-10.363-6.517L297.965,619.631z"/>
			<path style="fill:#BC6C64;" d="M295.793,605.944l2.172,13.687c0,0,13.356,8.473,23.298-2.172
				c-1.79-15.425-1.79-15.425-1.79-15.425L295.793,605.944z"/>
			<path style="fill:#BC6E2B;" d="M349.165,646.048c-6.252,2.779-16.495,2.418-35.331,0.498c0.36-22.198,17.792-22.57,17.792-22.57
				C338.999,623.976,356.986,642.572,349.165,646.048z"/>
			<path style="fill:#455A64;" d="M196.075,377.397l-1.738,231.589c0,0,19.552,6.518,40.408,0
				c10.428-192.918,10.428-192.918,10.428-192.918h11.297l31.791,190.311c0,0,16.412,10.428,43.364-3.911
				c-24.753-224.202-24.753-224.202-24.753-224.202l-49.099-17.38l-22.159-4.345L196.075,377.397z"/>
			<path style="opacity:0.33;fill:#6BA6BF;" d="M235.791,589.645c-0.337,6.228-0.684,12.657-1.046,19.34
				c-20.856,6.518-40.408,0-40.408,0l0.141-18.836C211.199,592.699,227.406,590.959,235.791,589.645z"/>
			<path style="opacity:0.33;fill:#6BA6BF;" d="M329.597,584.086c0.658,5.956,1.333,12.076,2.029,18.382
				c-26.952,14.339-43.364,3.91-43.364,3.91l-2.827-16.923C294.733,589.869,312.757,589.709,329.597,584.086z"/>
			<path style="fill:none;stroke:#263238;stroke-width:1.3156;stroke-miterlimit:10;" d="M248.215,416.067
				c0,0-4.779-36.498-4.779-51.706"/>
			<path style="fill:none;stroke:#263238;stroke-width:1.3156;stroke-miterlimit:10;" d="M254.298,416.067
				c0,0,4.779-36.498,4.779-51.706"/>
			
				<line style="fill:none;stroke:#263238;stroke-width:1.3156;stroke-miterlimit:10;" x1="261.979" y1="416.067" x2="231.27" y2="416.067"/>
			
				<line style="fill:none;stroke:#263238;stroke-width:1.3156;stroke-miterlimit:10;" x1="256.471" y1="416.067" x2="262.982" y2="416.067"/>
			
				<line style="fill:none;stroke:#263238;stroke-width:1.3156;stroke-miterlimit:10;" x1="239.96" y1="416.067" x2="228.663" y2="610.04"/>
			
				<line style="fill:none;stroke:#263238;stroke-width:1.3156;stroke-miterlimit:10;" x1="262.982" y1="416.067" x2="293.605" y2="608.576"/>
			<path style="fill:none;stroke:#263238;stroke-width:1.3156;stroke-miterlimit:10;" d="M221.816,379.569
				c0,0-0.068,22.156-25.94,24.331"/>
			<path style="fill:none;stroke:#263238;stroke-width:1.3156;stroke-miterlimit:10;" d="M282.106,377.831
				c0,0,1.21,25.163,27.978,29.527"/>
			<path style="fill:#FFC061;" d="M232.04,183.728l-38.607,17.013l2.443,183.375c0,0,38.435-2.407,55.38-15.554
				c0-128.323,0-143.24,0-143.24v-25.346l-4.261-15.642L232.04,183.728z"/>
			<path style="fill:#37474F;" d="M195.069,511.456l0.227-30.219c3.489-2.972,8.003-4.775,12.945-4.775
				c11.038,0,19.987,8.948,19.987,19.987c0,11.038-8.949,19.987-19.987,19.987C203.189,516.437,198.588,514.547,195.069,511.456z"/>
			<path style="fill:#37474F;" d="M285.435,496.45c0-11.039,8.949-19.987,19.987-19.987c4.874,0,9.337,1.749,12.806,4.648
				c0.933,8.451,1.943,17.596,3.036,27.493c-3.654,4.755-9.381,7.833-15.841,7.833C294.383,516.437,285.435,507.488,285.435,496.45z
				"/>
			<g>
				<path style="fill:#BC6C64;" d="M286.744,133.449c-2.372,4.696-7.684,6.792-11.863,4.681c-4.179-2.111-5.644-7.63-3.272-12.326
					c2.373-4.696,7.684-6.792,11.863-4.681C287.651,123.234,289.116,128.752,286.744,133.449z"/>
				<path style="opacity:0.32;fill:#590A06;" d="M286.744,133.449c1.663-3.293,1.434-6.985-0.288-9.628
					c-3.417-0.149-6.927,1.913-8.733,5.488c-1.663,3.292-1.435,6.985,0.288,9.628C281.427,139.086,284.937,137.025,286.744,133.449z
					"/>
				<path style="fill:#BC6C64;" d="M215.77,133.449c2.372,4.696,7.684,6.792,11.863,4.681c4.179-2.111,5.644-7.63,3.272-12.326
					c-2.372-4.696-7.684-6.792-11.863-4.681C214.862,123.234,213.397,128.752,215.77,133.449z"/>
				<path style="opacity:0.32;fill:#590A06;" d="M215.77,133.449c-1.663-3.293-1.434-6.985,0.287-9.628
					c3.417-0.149,6.927,1.913,8.733,5.488c1.663,3.292,1.435,6.985-0.288,9.628C221.086,139.086,217.576,137.025,215.77,133.449z"/>
				<path style="fill:#7C2E25;" d="M267.821,81.118c0,0,8.713-1.398,12.725,2.273c4.012,3.671,10.048,18.529,4.233,14.334
					c-5.815-4.195-4.233-3.671-4.233-3.671s1.215,18.408-2.631,26.247c-3.846,7.84-9.258,8.411-9.258,8.411l-6.824-29.064
					L267.821,81.118z"/>
				<path style="fill:#51200B;" d="M262.596,97.714l5.225-16.596c0,0-16.127-9.789-30.636-6.992
					c-14.509,2.797,1.657,4.72,1.657,4.72s-13.637,4.195-21.107,13.46s2.688,7.167,2.688,7.167s1.478,18.296,3.876,23.744
					c2.398,5.448,9.802,4.919,9.802,4.919L262.596,97.714z"/>
				<path style="fill:#BC6C64;" d="M266.552,158.731h-15.295h-15.295c0,0-0.175,12.062-3.921,24.997
					c7.417,30.416,19.217,48.945,19.217,48.945s11.799-18.529,19.217-48.945C266.727,170.792,266.552,158.731,266.552,158.731z"/>
				<path style="fill:#BC6E2B;" d="M268.412,175.059c-0.012,0.019-6.763,10.942-17.155,12.689
					c-10.392-1.747-17.144-12.67-17.155-12.689c-0.526,2.753-1.198,5.686-2.061,8.669c7.417,30.416,19.217,48.945,19.217,48.945
					s11.799-18.529,19.217-48.945C269.61,180.745,268.938,177.812,268.412,175.059z"/>
				<path style="fill:#995420;" d="M270.473,183.728c-0.864-2.982-1.536-5.916-2.061-8.669c-0.012,0.019-6.763,10.942-17.155,12.689
					l14.009,13.808C267.097,196.2,268.886,190.239,270.473,183.728z"/>
				<path style="fill:#995420;" d="M232.04,183.728c0.864-2.982,1.536-5.916,2.061-8.669c0.012,0.019,6.763,10.942,17.155,12.689
					l-14.009,13.808C235.417,196.2,233.628,190.239,232.04,183.728z"/>
				<path style="fill:#380403;" d="M266.552,158.731h-15.295h-15.295c0,0-0.114,7.696-2.067,17.384
					c19.422,8.533,31.784-11.528,31.784-11.528l1.146-1.133C266.579,160.521,266.552,158.731,266.552,158.731z"/>
				<path style="fill:#BC6C64;" d="M274.855,110.835c-0.787-17.043-23.599-16.781-23.599-16.781s-22.812-0.262-23.598,16.781
					c-0.787,17.043-0.262,45.362,9.177,53.752s14.421,7.604,14.421,7.604s4.982,0.787,14.421-7.604
					C275.118,156.196,275.642,127.878,274.855,110.835z"/>
				<path style="fill:#51200B;" d="M264.498,143.873c-6.817-4.064-10.619-4.928-13.241-4.928c-2.622,0-6.424,0.864-13.241,4.928
					c-3.788-2.956-8.238-11.701-10.539-16.612c0.401,15.017,2.584,31.304,9.359,37.326c9.439,8.391,14.421,7.604,14.421,7.604
					s4.982,0.787,14.421-7.604c6.775-6.022,8.957-22.31,9.359-37.326C272.736,132.171,268.286,140.916,264.498,143.873z"/>
				<path style="fill:#651D13;" d="M257.988,110.126c-1.139,0.962-0.354,2.843,1.137,2.835c2.917-0.016,7.769,0.127,11.058,1.107
					c2.447,0.262,1.925-4.02-3.102-4.982C263.544,108.41,259.898,108.512,257.988,110.126z"/>
				<path style="fill:#651D13;" d="M244.525,110.126c1.139,0.962,0.354,2.843-1.137,2.835c-2.917-0.016-7.769,0.127-11.058,1.107
					c-2.447,0.262-1.925-4.02,3.102-4.982C238.969,108.41,242.615,108.512,244.525,110.126z"/>
				<path style="fill:#F9F3E9;" d="M251.257,147.295c-2.027,0-4.013-0.176-5.947-0.502c-0.677-0.114-1.224,0.594-0.873,1.184
					c1.388,2.328,3.911,3.893,6.82,3.893c2.909,0,5.432-1.566,6.82-3.893c0.351-0.589-0.196-1.298-0.873-1.184
					C255.269,147.119,253.284,147.295,251.257,147.295z"/>
				<g>
					<path style="fill:#590A06;" d="M258.872,127.06c0.618-1.035,1.702-1.683,2.781-2.13c1.102-0.437,2.276-0.626,3.433-0.649
						c1.162-0.04,2.307,0.145,3.411,0.429c0.548,0.162,1.083,0.372,1.61,0.586c0.515,0.265,1.025,0.522,1.502,0.869
						c-0.592,0.104-1.15,0.119-1.704,0.141c-0.553,0.023-1.098,0.05-1.632,0.038l-3.145,0.033c-1.031,0.018-2.053,0.047-3.079,0.147
						C261.019,126.626,259.993,126.749,258.872,127.06z"/>
				</g>
				<g>
					<path style="fill:#590A06;" d="M243.642,127.06c-1.121-0.311-2.148-0.434-3.178-0.535c-1.026-0.101-2.048-0.129-3.079-0.147
						l-3.145-0.033c-0.534,0.011-1.079-0.016-1.632-0.038c-0.554-0.022-1.112-0.036-1.704-0.141
						c0.477-0.347,0.988-0.605,1.502-0.869c0.526-0.213,1.062-0.424,1.61-0.586c1.104-0.284,2.249-0.469,3.411-0.429
						c1.157,0.023,2.332,0.212,3.433,0.649C241.94,125.377,243.024,126.025,243.642,127.06z"/>
				</g>
				<path style="fill:#BC6C64;" d="M253.196,126.233c0,0,1.153,13.314,0,14.625c-1.152,1.311-6.134-1.912-6.134-1.912l2.389-12.712
					H253.196z"/>
				<g>
					<path style="fill:#651D13;" d="M253.196,126.233c0.644,3.407,0.93,6.848,0.956,10.315c-0.009,0.868-0.032,1.738-0.111,2.618
						c-0.048,0.439-0.109,0.886-0.227,1.352c-0.017,0.109-0.102,0.269-0.157,0.397l-0.098,0.199
						c-0.056,0.061-0.118,0.12-0.182,0.175c-0.124,0.126-0.266,0.19-0.413,0.236c-0.149,0.065-0.284,0.077-0.418,0.084
						c-1.06,0.027-1.841-0.409-2.63-0.795c-0.762-0.439-1.5-0.897-2.17-1.452c0.793,0.351,1.571,0.714,2.379,0.982
						c0.777,0.272,1.652,0.544,2.324,0.452c0.34-0.065,0.389-0.183,0.476-0.507c0.071-0.375,0.106-0.783,0.128-1.202
						c0.045-0.836,0.06-1.688,0.052-2.541C253.112,133.129,253.018,129.693,253.196,126.233z"/>
				</g>
				
					<line style="fill:none;stroke:#3F100B;stroke-width:1.0488;stroke-miterlimit:10;" x1="263.082" y1="96.17" x2="267.821" y2="81.118"/>
				<path style="opacity:0.32;fill:#FFFFFF;" d="M255.747,171.22c2.391-0.973,5.712-2.883,9.931-6.633
					c9.44-8.391,9.964-36.709,9.177-53.752c-0.787-17.043-23.599-16.781-23.599-16.781s-7.977-0.09-14.66,3.361
					C234.016,111.237,226.355,163.362,255.747,171.22z"/>
				<g>
					<g>
						<path style="opacity:0.16;fill:#FF6D00;" d="M254.959,122.581c0,0,5.577-4.725,19.317-3.962
							c5.179,2.013,7.395,2.695,6.335,8.345c-1.06,5.651-2.182,11.56-11.409,12.041c-9.228,0.48-13.197-6.066-14.208-12.963
							C254.516,123.848,254.959,122.581,254.959,122.581z"/>
						<path style="opacity:0.26;fill:#FFFFFF;" d="M274.276,118.619c-4.634-0.257-8.338,0.11-11.214,0.709
							c1.032,6.167,3.918,13.964,11.627,18.406c4.292-2.122,5.125-6.519,5.922-10.77
							C281.671,121.314,279.454,120.632,274.276,118.619z"/>
						<path style="opacity:0.16;fill:#FF6D00;" d="M247.586,122.657c0,0-5.673-4.609-19.395-3.562
							c-5.136,2.119-7.338,2.847-6.161,8.474c1.176,5.627,2.419,11.513,11.655,11.803c9.236,0.29,13.069-6.337,13.937-13.253
							C248.055,123.914,247.586,122.657,247.586,122.657z"/>
						<path style="opacity:0.26;fill:#FFFFFF;" d="M241.16,119.694c-4.634-0.257-8.345-0.623-11.221-0.024
							c1.032,6.167,3.918,13.964,11.627,18.406c4.292-2.122,5.125-6.519,5.922-10.77
							C248.547,121.656,246.338,121.707,241.16,119.694z"/>
						<g>
							<g>
								<path style="fill:#FFFFFF;" d="M254.959,120.757c-2.707,0.357-3.702,0.308-3.702,0.308s-0.994,0.07-3.708-0.231
									c-13.717-4.9-29.813-1.852-29.813-1.852l0.051,4.909l2.931,1.579c0,0,0.757,10.938,6.416,13.375
									c5.659,2.437,13.939,1.466,16.643-1.701c2.704-3.167,3.266-3.328,5.366-10.358c0,0,0.671-1.632,2.154-1.868
									c1.488,0.205,2.192,1.823,2.192,1.823c2.245,6.984,2.81,7.135,5.579,10.245c2.768,3.11,11.067,3.91,16.675,1.357
									c5.607-2.553,6.138-13.505,6.138-13.505l2.898-1.64l-0.051-4.909C284.727,118.29,268.572,115.576,254.959,120.757z
									 M243.905,134.004c-2.369,4.451-8.316,5.317-13.963,4.007c-5.648-1.31-7.662-9.338-6.099-13.861
									c1.563-4.523,9.136-3.797,14.21-3.527c5.073,0.27,6.948,2.584,6.948,2.584C246.789,124.879,246.273,129.553,243.905,134.004
									z M272.917,137.568c-5.619,1.426-11.583,0.683-14.043-3.718c-2.46-4.401-3.071-9.063-1.318-10.772
									c0,0,1.827-2.353,6.894-2.727c5.067-0.374,12.623-1.257,14.28,3.233C280.384,128.074,278.536,136.142,272.917,137.568z"/>
								<path style="fill:#411919;" d="M219.201,118.966L219.201,118.966l0.019-0.006
									C219.214,118.962,219.207,118.964,219.201,118.966z"/>
							</g>
						</g>
					</g>
				</g>
				<g>
					<path style="fill:#FFFEE6;" d="M251.257,187.748c0.118,1.872,0.169,3.744,0.255,5.616l0.146,5.616
						c0.096,3.744,0.109,7.487,0.122,11.231c-0.012,3.744-0.026,7.487-0.121,11.231l-0.146,5.616
						c-0.087,1.872-0.138,3.744-0.257,5.616c-0.119-1.872-0.17-3.744-0.257-5.616l-0.146-5.616
						c-0.095-3.744-0.109-7.487-0.121-11.231c0.013-3.744,0.027-7.488,0.122-11.231l0.146-5.616
						C251.088,191.492,251.139,189.62,251.257,187.748z"/>
				</g>
				<path style="fill:#FFFEE6;" d="M248.397,198.761c0,1.024-0.83,1.853-1.853,1.853c-1.023,0-1.853-0.83-1.853-1.853
					c0-1.024,0.83-1.853,1.853-1.853C247.567,196.908,248.397,197.738,248.397,198.761z"/>
				<path style="fill:#FFFEE6;" d="M248.397,211.87c0,1.024-0.83,1.853-1.853,1.853c-1.023,0-1.853-0.83-1.853-1.853
					c0-1.023,0.83-1.853,1.853-1.853C247.567,210.017,248.397,210.847,248.397,211.87z"/>
			</g>
			<path style="fill:#BC6C64;" d="M170.887,328.486c0,0-4.43-28.066-4.43-59.449c20.782-7.424,28.612,1.616,28.612,1.616
				l3.285,32.355L170.887,328.486z"/>
			<path style="fill:#BC6E2B;" d="M193.433,200.741c0,0-27.459,15.584-30.359,53.008c0.483,16.327,3.383,31.32,3.383,31.32
				s13.722-8.905,28.816-11.643C194.337,206.757,193.433,200.741,193.433,200.741z"/>
			<path style="fill:#FFC061;" d="M166.457,285.069c0,0,13.722-8.905,28.816-11.643c-0.051-3.609-0.101-7.03-0.152-10.293
				c-11.508,3.231-23.847,8.33-30.34,11.158C165.628,280.778,166.457,285.069,166.457,285.069z"/>
			<g>
				<path style="fill:#995F1A;" d="M195.274,273.426c-0.241-3.024-0.389-6.051-0.587-9.077l-0.434-9.08
					c-0.287-6.054-0.459-12.11-0.631-18.167c-0.137-6.057-0.271-12.115-0.292-18.175l-0.026-9.091
					c0.045-3.032,0.039-6.062,0.129-9.095c0.243,3.024,0.39,6.051,0.589,9.077l0.434,9.08c0.286,6.054,0.459,12.11,0.629,18.167
					c0.135,6.057,0.27,12.115,0.289,18.176l0.027,9.091C195.356,267.362,195.362,270.393,195.274,273.426z"/>
			</g>
			<path style="fill:#BC6E2B;" d="M195.707,371.409l0.169,12.707c0,0,38.435-2.407,55.381-15.554c0-4.077,0-8.037,0-11.888
				C244.907,360.784,228.944,368.483,195.707,371.409z"/>
			<path style="fill:#BC6C64;" d="M331.626,328.486c0,0,4.43-28.066,4.43-59.449c-20.782-7.424-28.612,1.616-28.612,1.616
				l-3.286,32.355L331.626,328.486z"/>
			<path style="fill:#BC6E2B;" d="M309.081,200.741c0,0,27.459,15.584,30.359,53.008c-0.483,16.327-3.383,31.32-3.383,31.32
				s-13.722-8.905-28.816-11.643C308.176,206.757,309.081,200.741,309.081,200.741z"/>
			<path style="fill:#FFC061;" d="M336.056,285.069c0,0-13.722-8.905-28.816-11.643c0.051-3.609,0.101-7.03,0.152-10.293
				c11.508,3.231,23.847,8.33,30.34,11.158C336.886,280.778,336.056,285.069,336.056,285.069z"/>
			<path style="opacity:0.56;fill:#BC6E2B;" d="M272.217,252.957h-20.961h-20.961c0,0-22.128,41.458-22.467,68.397
				c2.634-9.721,31.702-53.692,31.702-53.692h11.725h11.725c0,0,29.068,43.971,31.703,53.692
				C294.346,294.415,272.217,252.957,272.217,252.957z"/>
			<g>
				<path style="fill:#995F1A;" d="M307.24,273.426c-0.088-3.033-0.082-6.063-0.126-9.095l0.027-9.091
					c0.02-6.061,0.154-12.118,0.289-18.176c0.17-6.057,0.343-12.113,0.629-18.167l0.434-9.08c0.198-3.025,0.346-6.052,0.589-9.077
					c0.089,3.033,0.084,6.063,0.128,9.095l-0.026,9.091c-0.021,6.06-0.155,12.118-0.292,18.175
					c-0.172,6.057-0.344,12.113-0.631,18.167l-0.434,9.08C307.629,267.374,307.481,270.401,307.24,273.426z"/>
			</g>
			<path style="fill:#BC6E2B;" d="M306.807,371.409l-0.169,12.707c0,0-38.435-2.407-55.38-15.554c0-4.077,0-8.037,0-11.888
				C257.606,360.784,273.57,368.483,306.807,371.409z"/>
			
				<line style="fill:none;stroke:#995F1A;stroke-width:1.4633;stroke-miterlimit:10;" x1="251.257" y1="368.562" x2="251.257" y2="235.11"/>
			<g>
				<path style="fill:#FFFFFF;" d="M252.845,209.4v-4.326h14.09c2.648,0,5.15,1.451,6.268,3.853
					c0.404,0.867,0.662,1.885,0.635,3.057C260.869,211.984,252.845,209.4,252.845,209.4z"/>
				<path style="fill:#FFFFFF;" d="M252.845,209.4v-4.326h-14.09c-2.648,0-5.15,1.451-6.268,3.853
					c-0.404,0.867-0.662,1.885-0.635,3.057C244.821,211.984,252.845,209.4,252.845,209.4z"/>
				<path style="fill:#EBEBEB;" d="M252.845,209.4h-17.411c-2.22,0-3.961,1.906-3.759,4.117l4.161,45.707
					c0.213,2.344,2.178,4.138,4.531,4.138h12.479h12.479c2.353,0,4.318-1.794,4.531-4.138l4.16-45.707
					c0.201-2.211-1.539-4.117-3.759-4.117H252.845z"/>
				<g>
					<path style="fill:#AAAAAA;" d="M242.72,217.639c0,1.928-1.563,3.49-3.49,3.49c-1.928,0-3.49-1.563-3.49-3.49
						c0-1.928,1.563-3.49,3.49-3.49C241.157,214.149,242.72,215.712,242.72,217.639z"/>
					<path style="fill:#263238;" d="M241.3,217.616c0,1.144-0.927,2.071-2.071,2.071c-1.144,0-2.071-0.927-2.071-2.071
						s0.927-2.071,2.071-2.071C240.373,215.545,241.3,216.472,241.3,217.616z"/>
				</g>
			</g>
			<g>
				<g>
					<path style="fill:#BC6C64;" d="M207.607,265.008c0,0,6.916-20.913,11.033-27.006c4.117-6.093,14.162-8.892,21.407-10.868
						c7.245-1.976,7.41,3.623,7.41,3.623s3.129,0.165,4.775,1.976c1.647,1.811-0.329,4.117-2.306,5.269
						c0.165,3.787-3.293,6.587-3.293,6.587s-0.741,4.978-2.388,8.107c-1.647,3.129-5.022,7.866-9.139,12.312
						c-4.117,4.446-5.105,7.245-11.362,17.455c-6.257,10.209-17.784,50.224-24.865,54.176c-7.081,3.952-20.254,5.105-25.194-2.305
						c-4.94-7.41-3.952-11.856,1.153-24.7C179.942,296.789,204.643,275.052,207.607,265.008z"/>
					<path style="opacity:0.25;fill:#56221C;" d="M187.764,319.323c7.434,0,13.647,5.164,15.288,12.096
						c-1.496,2.638-2.906,4.513-4.173,5.22c-7.081,3.952-20.254,5.105-25.194-2.305c-0.523-0.784-0.965-1.53-1.357-2.261
						C173.72,324.811,180.097,319.323,187.764,319.323z"/>
					<g>
						<path style="fill:#75240E;" d="M247.456,230.757c-0.973,0.493-1.973,0.843-2.982,1.143c-1.009,0.299-2.028,0.547-3.057,0.738
							c-1.029,0.196-2.069,0.33-3.117,0.417c-1.049,0.085-2.108,0.119-3.194,0.008c0.973-0.495,1.972-0.846,2.982-1.145
							c1.009-0.298,2.028-0.548,3.058-0.736c1.029-0.193,2.069-0.329,3.118-0.414C245.312,230.682,246.371,230.647,247.456,230.757z
							"/>
					</g>
					<g>
						<path style="fill:#75240E;" d="M249.926,238.002c-0.854,0.594-1.752,1.049-2.666,1.454c-0.914,0.405-1.843,0.762-2.79,1.063
							c-0.946,0.306-1.91,0.551-2.89,0.751c-0.98,0.198-1.976,0.347-3.016,0.355c0.853-0.596,1.751-1.051,2.665-1.457
							c0.914-0.404,1.843-0.762,2.791-1.061c0.947-0.303,1.911-0.55,2.891-0.749C247.891,238.161,248.886,238.012,249.926,238.002z"
							/>
					</g>
					<g>
						<path style="fill:#75240E;" d="M246.633,244.589c-0.462,0.785-1.018,1.457-1.607,2.089c-0.589,0.632-1.211,1.225-1.871,1.773
							c-0.656,0.552-1.353,1.055-2.08,1.522c-0.728,0.465-1.49,0.891-2.346,1.202c0.461-0.786,1.017-1.459,1.606-2.091
							c0.59-0.631,1.211-1.226,1.872-1.772c0.658-0.55,1.353-1.055,2.081-1.52C245.017,245.328,245.778,244.902,246.633,244.589z"/>
					</g>
				</g>
				<g>
					<path style="fill:#75240E;" d="M196.167,281.465c-2.142,2.412-4.232,4.848-6.329,7.269c-2.08,2.435-4.142,4.88-6.09,7.407
						c-1.973,2.505-3.873,5.07-5.582,7.752c-1.689,2.69-3.311,5.441-4.403,8.484c0.533-3.198,1.852-6.235,3.409-9.075
						c1.544-2.865,3.429-5.517,5.41-8.074c2-2.546,4.135-4.978,6.407-7.273C191.247,285.648,193.63,283.462,196.167,281.465z"/>
				</g>
			</g>
			<g>
				<g>
					<path style="fill:#BC6C64;" d="M294.907,265.008c0,0-6.916-20.913-11.033-27.006c-4.117-6.093-14.161-8.892-21.407-10.868
						c-7.245-1.976-7.41,3.623-7.41,3.623s-3.129,0.165-4.775,1.976c-1.647,1.811,0.329,4.117,2.305,5.269
						c-0.165,3.787,3.293,6.587,3.293,6.587s0.741,4.978,2.388,8.107c1.647,3.129,5.022,7.866,9.139,12.312
						c4.117,4.446,5.105,7.245,11.362,17.455c6.258,10.209,17.784,50.224,24.865,54.176c7.081,3.952,20.254,5.105,25.194-2.305
						c4.94-7.41,3.952-11.856-1.153-24.7C322.571,296.789,297.871,275.052,294.907,265.008z"/>
					<path style="opacity:0.25;fill:#56221C;" d="M314.749,319.323c-7.434,0-13.647,5.164-15.288,12.096
						c1.496,2.638,2.906,4.513,4.173,5.22c7.081,3.952,20.254,5.105,25.194-2.305c0.523-0.784,0.965-1.53,1.357-2.261
						C328.793,324.811,322.416,319.323,314.749,319.323z"/>
					<g>
						<path style="fill:#75240E;" d="M255.057,230.757c1.085-0.109,2.144-0.075,3.193,0.01c1.049,0.086,2.089,0.221,3.118,0.414
							c1.03,0.188,2.048,0.438,3.058,0.736c1.009,0.299,2.009,0.649,2.981,1.145c-1.086,0.111-2.145,0.077-3.194-0.008
							c-1.049-0.086-2.089-0.221-3.117-0.417c-1.029-0.191-2.048-0.44-3.057-0.738C257.03,231.6,256.03,231.25,255.057,230.757z"/>
					</g>
					<g>
						<path style="fill:#75240E;" d="M252.587,238.002c1.04,0.01,2.036,0.159,3.016,0.357c0.98,0.199,1.944,0.446,2.891,0.749
							c0.948,0.298,1.877,0.656,2.791,1.061c0.914,0.405,1.812,0.861,2.665,1.457c-1.041-0.008-2.036-0.156-3.016-0.355
							c-0.98-0.2-1.944-0.445-2.89-0.751c-0.947-0.301-1.876-0.657-2.791-1.063C254.339,239.051,253.441,238.596,252.587,238.002z"
							/>
					</g>
					<g>
						<path style="fill:#75240E;" d="M255.88,244.589c0.855,0.313,1.616,0.739,2.345,1.204c0.728,0.466,1.424,0.97,2.081,1.52
							c0.661,0.546,1.282,1.14,1.872,1.772c0.589,0.632,1.145,1.305,1.606,2.091c-0.856-0.312-1.618-0.737-2.346-1.202
							c-0.728-0.466-1.424-0.97-2.08-1.522c-0.66-0.548-1.281-1.141-1.871-1.773C256.899,246.045,256.343,245.373,255.88,244.589z"
							/>
					</g>
				</g>
				<g>
					<path style="fill:#75240E;" d="M306.346,281.465c2.537,1.997,4.92,4.183,7.177,6.49c2.272,2.295,4.407,4.727,6.407,7.273
						c1.981,2.557,3.866,5.209,5.41,8.074c1.557,2.84,2.876,5.877,3.409,9.075c-1.092-3.043-2.714-5.794-4.403-8.484
						c-1.709-2.682-3.609-5.247-5.582-7.752c-1.948-2.527-4.01-4.972-6.09-7.407C310.578,286.314,308.488,283.877,306.346,281.465z"
						/>
				</g>
			</g>
			<line style="fill:none;stroke:#BC6E2B;stroke-miterlimit:10;" x1="269.013" y1="189.364" x2="310.085" y2="206.452"/>
			<line style="fill:none;stroke:#BC6E2B;stroke-miterlimit:10;" x1="233.501" y1="189.364" x2="192.429" y2="206.452"/>
			<path style="fill:#BC6E2B;" d="M267.821,346.581c0,0,12.324,6.624,34.782,8.597c0-10.862,0-10.578,0-10.578
				s-17.825-1.169-34.671-11.146C267.932,343.058,267.821,346.581,267.821,346.581z"/>
			<path style="fill:#BC6E2B;" d="M234.693,346.581c0,0-12.324,6.624-34.782,8.597c0-10.862,0-10.578,0-10.578
				s17.825-1.169,34.671-11.146C234.581,343.058,234.693,346.581,234.693,346.581z"/>
		</g>
	</g>
</g>
</svg>
