<svg xmlns="http://www.w3.org/2000/svg" xmlns:xlink="http://www.w3.org/1999/xlink" xml:space="preserve" viewBox="0 0 500 500"><path d="M0 0h500v500H0z" style="fill:#fff"/><path d="M193.338 79.337c3.88-2.211 7.711-4.27 11.367-6.195 24.066-12.675 53.61-12.161 79.263-5.183 58.383 15.881 88.921 78.004 128.499 94.274s93.587 185.73-57.362 208.69c-150.948 22.96-229.094 64.048-290.423 16.047-61.328-48.002 0-141.576 54.052-160.024 53.896-18.395 19.091-67.242 28.248-100.055 5.967-21.379 26.786-36.403 46.356-47.554" style="fill:#ebebeb"/><path d="M322.824 418.931s-.967-33.49 97.505-88.954" style="fill:none;stroke:#bc6e2b;stroke-miterlimit:10"/><path d="M409.083 321.57c.488 14.419-9.041 21.075-9.041 21.075s-4.185-10.844 4.274-22.531c1.483-2.049 4.681-1.072 4.767 1.456" style="fill:#bc6e2b"/><path d="M422.796 345.497c-12.195-7.709-22.755-2.852-22.755-2.852s7.241 9.093 21.601 7.701c2.518-.244 3.292-3.497 1.154-4.849M383.992 335.764c1.934 14.297-6.877 21.877-6.877 21.877s-5.254-10.369 1.988-22.846c1.27-2.188 4.55-1.537 4.889.969M400.041 358.192c-12.908-6.445-22.926-.55-22.926-.55s8.118 8.319 22.266 5.491c2.48-.496 2.923-3.811.66-4.941M363.231 349.487c2.987 14.115-5.24 22.327-5.24 22.327s-6.006-9.952.293-22.931c1.103-2.276 4.423-1.87 4.947.604M380.895 370.666c-13.349-5.472-22.904 1.148-22.904 1.148s8.712 7.695 22.611 3.828c2.437-.678 2.633-4.016.293-4.976M440.344 323.073c-10.173 10.23-21.549 7.844-21.549 7.844s5.036-10.476 19.345-12.315c2.509-.322 3.987 2.678 2.204 4.471" style="fill:#bc6e2b"/><path d="M340.291 412.621s42.808-44.7 88.944-54.358-33.49-44.869-97.249 40.87c-2.418 20.291 8.305 13.488 8.305 13.488" style="fill:#c7c7c7"/><path d="M441.493 347.977c-4.863-.3-9.734-.05-14.557.482a112 112 0 0 0-14.322 2.506c-9.412 2.292-18.581 5.619-27.152 10.127-4.298 2.22-8.515 4.619-12.513 7.357l-1.514 1.004-1.474 1.062-2.942 2.133-2.851 2.255-1.436 1.116-1.389 1.173-2.774 2.354c-.913.799-1.786 1.641-2.682 2.46-1.813 1.616-3.495 3.368-5.21 5.089-.878.842-1.705 1.732-2.524 2.629l-2.478 2.678c-1.612 1.821-3.164 3.696-4.77 5.53 1.479-1.933 2.929-3.896 4.47-5.786l2.359-2.797c.781-.938 1.571-1.869 2.412-2.754 1.666-1.785 3.315-3.589 5.091-5.268.878-.849 1.735-1.722 2.632-2.553l2.729-2.451c1.79-1.67 3.75-3.141 5.64-4.696l2.952-2.183 1.479-1.087 1.521-1.029c4.017-2.803 8.258-5.275 12.592-7.557 4.353-2.251 8.872-4.174 13.476-5.842 4.609-1.654 9.309-3.073 14.102-4.075 9.561-2.009 19.429-3.006 29.133-1.877" style="fill:#a6a6a6"/><path d="M312.505 409.622s65.317-65.465 141.007-35.403-77.875 52.54-129.39 90.156c-17.181-36.142-11.617-54.753-11.617-54.753" style="fill:#ffc061"/><path d="M468.155 381.815a308 308 0 0 0-20.751 1.955 358 358 0 0 0-20.588 3.08c-13.654 2.445-27.188 5.546-40.438 9.592-13.258 4.006-26.226 8.974-38.668 15.056-12.435 6.097-24.226 13.516-35.032 22.288 2.61-2.293 5.145-4.697 7.929-6.793 1.379-1.063 2.699-2.211 4.13-3.205l4.243-3.061c5.793-3.881 11.757-7.534 17.955-10.754 12.371-6.498 25.452-11.574 38.797-15.657a310 310 0 0 1 20.243-5.32c6.816-1.485 13.666-2.814 20.564-3.826a346 346 0 0 1 20.753-2.478c3.473-.27 6.947-.506 10.425-.66 3.477-.167 6.958-.267 10.438-.217" style="fill:#db973e"/><path d="M406.322 390.731c3.822.644 7.525 1.847 11.135 3.23 3.616 1.384 7.12 3.044 10.544 4.846 3.382 1.878 6.728 3.83 9.875 6.081a80.4 80.4 0 0 1 9.037 7.246c-1.713-.913-3.337-1.935-5.004-2.89-1.669-.95-3.294-1.958-4.965-2.892a98 98 0 0 1-2.479-1.437l-2.503-1.392c-1.646-.964-3.34-1.844-5.012-2.759-3.354-1.814-6.757-3.531-10.183-5.219-3.437-1.662-6.895-3.29-10.445-4.814M374.962 398.994c2.387-5.106 4.885-10.021 7.212-15.038 1.204-2.487 2.317-5.012 3.45-7.538 1.151-2.524 2.169-5.095 3.366-7.664a41.5 41.5 0 0 1-1.741 8.271c-.376 1.364-.916 2.666-1.387 3.996a90 90 0 0 1-1.678 3.88c-1.221 2.539-2.548 5.028-4.084 7.39-1.52 2.367-3.186 4.653-5.138 6.703M341.531 413.778c4.368.2 8.695.928 12.959 1.898a91.6 91.6 0 0 1 12.56 3.855c4.067 1.657 8.04 3.586 11.754 5.958 3.674 2.426 7.098 5.278 9.861 8.667-3.42-2.732-7.004-5.081-10.749-7.176-1.931-.946-3.785-2.014-5.769-2.844-1.924-.944-3.931-1.718-5.914-2.538-3.993-1.587-8.077-2.953-12.193-4.253a309 309 0 0 0-12.509-3.567" style="fill:#db973e"/><path d="M378.942 371.219c-39.417 11.329-66.437 38.403-66.437 38.403s-5.565 18.611 11.618 54.754c13.031-9.515 32.592-18.061 53.32-26.007-14.28-21.693-4.128-53.346 1.499-67.15" style="opacity:.28;fill:#a87d1d"/><path d="M177.402 418.931s.967-33.49-97.505-88.954" style="fill:none;stroke:#bc6e2b;stroke-miterlimit:10"/><path d="M91.143 321.57c-.488 14.419 9.041 21.075 9.041 21.075s4.185-10.844-4.274-22.531c-1.483-2.049-4.681-1.072-4.767 1.456" style="fill:#bc6e2b"/><path d="M77.43 345.497c12.195-7.709 22.755-2.852 22.755-2.852s-7.241 9.093-21.601 7.701c-2.518-.244-3.292-3.497-1.154-4.849M116.233 335.764c-1.934 14.297 6.877 21.877 6.877 21.877s5.254-10.369-1.988-22.846c-1.269-2.188-4.55-1.537-4.889.969M100.185 358.192c12.908-6.445 22.926-.55 22.926-.55s-8.118 8.319-22.265 5.491c-2.481-.496-2.925-3.811-.661-4.941M136.995 349.487c-2.987 14.115 5.24 22.327 5.24 22.327s6.007-9.952-.293-22.931c-1.103-2.276-4.423-1.87-4.947.604M119.331 370.666c13.349-5.472 22.904 1.148 22.904 1.148s-8.712 7.695-22.611 3.828c-2.437-.678-2.633-4.016-.293-4.976M59.882 323.073c10.173 10.23 21.549 7.844 21.549 7.844s-5.036-10.476-19.345-12.315c-2.509-.322-3.988 2.678-2.204 4.471" style="fill:#bc6e2b"/><path d="M159.935 412.621s-42.808-44.7-88.943-54.358c-46.136-9.658 33.49-44.869 97.248 40.87 2.418 20.291-8.305 13.488-8.305 13.488" style="fill:#c7c7c7"/><path d="M58.733 347.977c9.704-1.128 19.572-.132 29.132 1.878 4.793 1.002 9.493 2.421 14.102 4.075 4.604 1.668 9.123 3.59 13.476 5.842 4.334 2.282 8.576 4.754 12.592 7.557l1.521 1.029 1.479 1.087 2.952 2.183c1.89 1.554 3.85 3.026 5.64 4.696l2.729 2.451c.897.83 1.753 1.703 2.632 2.553 1.776 1.679 3.425 3.483 5.091 5.268.841.885 1.631 1.816 2.412 2.754l2.359 2.797c1.541 1.89 2.991 3.853 4.47 5.786-1.606-1.835-3.158-3.709-4.77-5.53l-2.478-2.678c-.82-.897-1.647-1.787-2.524-2.629-1.715-1.721-3.397-3.473-5.21-5.089-.896-.819-1.769-1.661-2.682-2.46l-2.774-2.354-1.389-1.173-1.436-1.116-2.851-2.255-2.942-2.133-1.474-1.062-1.514-1.004c-3.998-2.738-8.215-5.137-12.513-7.357-8.572-4.508-17.74-7.835-27.152-10.127a112 112 0 0 0-14.322-2.506c-4.822-.533-9.693-.783-14.556-.483" style="fill:#a6a6a6"/><path d="M187.721 409.622s-65.317-65.465-141.008-35.403c-75.69 30.062 77.875 52.54 129.39 90.156 17.182-36.142 11.618-54.753 11.618-54.753" style="fill:#ffc061"/><path d="M32.071 381.815c3.479-.05 6.96.051 10.437.217 3.478.155 6.952.39 10.425.66a346 346 0 0 1 20.753 2.478c6.898 1.011 13.748 2.34 20.564 3.826a309 309 0 0 1 20.243 5.32c13.345 4.083 26.426 9.159 38.797 15.657 6.199 3.219 12.162 6.873 17.955 10.754l4.243 3.061c1.431.995 2.751 2.143 4.13 3.205 2.784 2.096 5.319 4.5 7.928 6.793-10.805-8.772-22.596-16.191-35.032-22.288-12.442-6.081-25.41-11.05-38.668-15.056-13.25-4.046-26.784-7.147-40.438-9.592a358 358 0 0 0-20.588-3.08 307 307 0 0 0-20.749-1.955" style="fill:#db973e"/><path d="M93.903 390.731c-3.55 1.524-7.007 3.151-10.446 4.815-3.425 1.688-6.828 3.405-10.182 5.219-1.672.915-3.366 1.794-5.012 2.759l-2.503 1.392c-.818.492-1.646.968-2.479 1.437-1.67.933-3.296 1.941-4.965 2.892-1.667.955-3.291 1.978-5.004 2.89a80.4 80.4 0 0 1 9.038-7.246c3.147-2.251 6.493-4.203 9.875-6.081 3.424-1.802 6.927-3.462 10.544-4.846 3.609-1.384 7.312-2.586 11.134-3.231M125.263 398.994c-1.952-2.05-3.617-4.336-5.138-6.703-1.536-2.361-2.863-4.85-4.084-7.39a92 92 0 0 1-1.678-3.88c-.471-1.331-1.011-2.633-1.387-3.996a41.5 41.5 0 0 1-1.741-8.271c1.197 2.568 2.215 5.14 3.366 7.664 1.133 2.526 2.245 5.051 3.45 7.538 2.327 5.017 4.826 9.932 7.212 15.038M158.695 413.778a309 309 0 0 0-12.51 3.567c-4.116 1.3-8.2 2.666-12.193 4.253-1.982.819-3.989 1.594-5.914 2.538-1.985.83-3.838 1.898-5.769 2.844-3.745 2.095-7.329 4.444-10.749 7.176 2.763-3.389 6.188-6.24 9.861-8.667 3.714-2.372 7.687-4.3 11.754-5.958a91 91 0 0 1 12.56-3.855c4.265-.971 8.592-1.698 12.96-1.898" style="fill:#db973e"/><path d="M121.284 371.219c39.417 11.329 66.437 38.403 66.437 38.403s5.564 18.611-11.618 54.754c-13.031-9.515-32.592-18.061-53.32-26.007 14.28-21.693 4.128-53.346-1.499-67.15" style="opacity:.28;fill:#a87d1d"/><ellipse cx="250.113" cy="464.376" rx="123.785" ry="6.468" style="fill:#d1d1d1"/><path d="M168.215 464.996h164.349c13.684 0 24.778-11.093 24.778-24.778V63.381c0-13.685-11.094-24.778-24.778-24.778H168.215c-13.685 0-24.778 11.093-24.778 24.778v376.837c-.001 13.684 11.093 24.778 24.778 24.778" style="fill:#263238"/><path d="M161.035 440.496h178.707c6.344 0 11.487-5.143 11.487-11.488V60.985c0-6.344-5.143-11.488-11.487-11.488H161.035c-6.344 0-11.487 5.143-11.487 11.488v368.023c0 6.345 5.143 11.488 11.487 11.488" style="fill:#fffffd"/><path d="M330.358 274.229H170.745c-6.949 0-12.582 5.633-12.582 12.582v132.143c0 6.949 5.633 12.582 12.582 12.582h159.613c6.949 0 12.582-5.633 12.582-12.582V286.811c-.001-6.949-5.634-12.582-12.582-12.582M332.636 89.375H169.295c-5.69 0-10.303 4.613-10.303 10.303v155.087c0 5.69 4.613 10.303 10.303 10.303h163.341c5.69 0 10.303-4.613 10.303-10.303V99.678c0-5.69-4.612-10.303-10.303-10.303" style="fill:#ebebeb"/><path d="M339.743 49.498H161.035c-6.344 0-11.487 5.143-11.487 11.488v4.432H351.23v-4.432c0-6.345-5.143-11.488-11.487-11.488" style="fill:#dbdbdb"/><path d="M318.894 54.001h18.536v8.697h-18.536zM315.883 56.068h2.034v4.564h-2.034z" style="fill:#fff"/><path d="M321.006 55.562h3.345v5.575h-3.345zM326.436 55.562h3.345v5.575h-3.345zM331.866 55.562h3.345v5.575h-3.345z" style="fill:#c7c7c7"/><path d="M306.628 52.44h2.007v10.035h-2.007zM302.614 54.336h2.007v8.14h-2.007zM298.6 56.994h2.007v5.481H298.6zM294.586 59.576h2.007v2.899h-2.007zM278.167 59.576H224.92a2.4 2.4 0 0 1-2.394-2.394 2.4 2.4 0 0 1 2.394-2.394h53.247a2.4 2.4 0 0 1 2.394 2.394 2.4 2.4 0 0 1-2.394 2.394" style="fill:#a6a6a6"/><circle cx="161.994" cy="58.35" r="5.018" style="fill:#263238"/><path d="M164.106 58.356a2.112 2.112 0 1 1-4.224 0 2.112 2.112 0 0 1 4.224 0" style="fill:#455a64"/><path d="M165.386 57.801a1.422 1.422 0 1 1-2.844 0 1.422 1.422 0 0 1 2.844 0" style="fill:#fff"/><path d="M177.403 53.332h12.009M177.403 57.365h12.009M177.403 61.397h12.009" style="fill:none;stroke:#606060;stroke-width:.9651;stroke-linecap:round;stroke-miterlimit:10"/><path d="M120.732 75.677c0 6.649-1.111 12.04-2.482 12.04s-2.482-5.39-2.482-12.04 1.112-12.04 2.482-12.04 2.482 5.391 2.482 12.04" style="fill:#dbdbdb"/><path d="M118.25 73.195c6.649 0 12.04 1.111 12.04 2.482s-5.39 2.482-12.04 2.482-12.04-1.112-12.04-2.482 5.39-2.482 12.04-2.482" style="fill:#dbdbdb"/><path d="M462.207 190.955c0 5.925-.99 10.728-2.212 10.728-1.221 0-2.212-4.803-2.212-10.728s.99-10.728 2.212-10.728 2.212 4.803 2.212 10.728" style="fill:#c7c7c7"/><path d="M459.995 188.743c5.925 0 10.728.99 10.728 2.212s-4.803 2.212-10.728 2.212-10.728-.99-10.728-2.212 4.803-2.212 10.728-2.212" style="fill:#c7c7c7"/><path d="M456.749 330.827a4.482 4.482 0 1 1-8.965 0 4.482 4.482 0 0 1 8.965 0" style="fill:#dbdbdb"/><path d="m68.637 224.432-9.493-1.174-9.493-1.174 5.763-7.634 5.763-7.634 3.73 8.808zM442.575 93.392l-6.429-2.042-6.429-2.041 4.983-4.547 4.982-4.547 1.447 6.588z" style="fill:#c7c7c7"/><path d="M118.616 294.823H48.432a5.216 5.216 0 0 1-5.216-5.216v-40.084a5.216 5.216 0 0 1 5.216-5.216h70.185a5.216 5.216 0 0 1 5.216 5.216v40.084a5.217 5.217 0 0 1-5.217 5.216" style="fill:#fff"/><path d="M118.616 244.307H48.432a5.216 5.216 0 0 0-5.216 5.216v6.815h80.616v-6.815a5.216 5.216 0 0 0-5.216-5.216" style="fill:#c7c7c7"/><path d="M118.616 294.823H48.432a5.216 5.216 0 0 1-5.216-5.216v-40.084a5.216 5.216 0 0 1 5.216-5.216h70.185a5.216 5.216 0 0 1 5.216 5.216v40.084a5.217 5.217 0 0 1-5.217 5.216z" style="fill:none;stroke:#a6a6a6;stroke-width:.7959;stroke-miterlimit:10"/><path d="M53.381 250.549a2.803 2.803 0 1 1-5.607.001 2.803 2.803 0 0 1 5.607-.001" style="fill:#fff"/><path d="M62.494 250.549a2.803 2.803 0 1 1-5.607.001 2.803 2.803 0 0 1 5.607-.001" style="fill:#ebebeb"/><path d="M71.607 250.549a2.803 2.803 0 1 1-5.607.001 2.803 2.803 0 0 1 5.607-.001" style="fill:#ffc061"/><path d="M74.366 265.031v18.199c0 2.667 2.876 4.344 5.197 3.03l16.076-9.1c2.356-1.333 2.356-4.727 0-6.061l-16.076-9.1c-2.321-1.312-5.197.365-5.197 3.032" style="fill:#ebebeb"/><path d="M392.826 60.611h6.295l2.694 2.438c5.274 3.091 8.817 8.815 8.817 15.369s-3.544 12.278-8.817 15.369l-2.694 2.438h-6.295c-9.834 0-17.807-7.972-17.807-17.807.001-9.834 7.973-17.807 17.807-17.807" style="fill:#c7c7c7"/><path d="M381.315 78.418c0 9.834 7.972 17.807 17.806 17.807s17.807-7.972 17.807-17.807-7.972-17.807-17.807-17.807-17.806 7.973-17.806 17.807z" style="fill:#fffffd;stroke:#ebebeb;stroke-miterlimit:10"/><path d="M399.126 72.805c3.447-3.987 11.614-5.058 11.597 2.205-.016 7.262-11.635 14.572-11.635 14.572s-11.586-7.362-11.569-14.625c.017-7.262 8.179-6.154 11.607-2.152M379.909 232.054s20.411-.669 23.088-13.05-1.004-16.731 0-20.411c1.004-3.681 15.057-2.342 15.727 9.704s-1.673 19.073-1.673 19.073h18.253c5.036 0 8.768 4.805 7.38 9.646-.615 2.146-1.873 4.321-4.218 6.139 4.685 9.311 4.685 12.323.335 17.007 2.008 7.027 1.338 16.247-12.715 16.247H379.91z" style="fill:#ffc061"/><path d="M380.919 234.265s21.818-2.108 24.294-13.213-.613-17.351.315-20.653 9.892 0 10.786 9.271c1.039 10.772-2.946 20.393-2.946 20.393h18.774c4.657 0 8.108 4.31 6.824 8.652-.569 1.925-1.732 3.876-3.9 5.506 4.332 8.352 4.332 11.053.309 15.255 1.857 6.303 1.238 14.573-11.758 14.573h-42.699z" style="fill:none;stroke:#b58039;stroke-width:1.1595;stroke-miterlimit:10"/><path d="M383.589 272.93a5.97 5.97 0 0 1-11.938 0v-41.454a5.968 5.968 0 1 1 11.938 0z" style="fill:#bc6e2b"/><path d="M379.909 278.351v-41.454a5.97 5.97 0 0 0-5.969-5.969 5.9 5.9 0 0 0-2.279.455 5.963 5.963 0 0 1 5.959-5.877 5.97 5.97 0 0 1 5.969 5.969v41.454a5.97 5.97 0 0 1-3.69 5.514c.001-.031.01-.06.01-.092" style="opacity:.39;fill:#fff"/><path d="M400.74 242.74c0 .996.808 1.804 1.804 1.804h21.649a1.804 1.804 0 0 0 0-3.608h-21.649c-.996 0-1.804.808-1.804 1.804M400.74 259.428c0 .996.808 1.804 1.804 1.804h21.649a1.804 1.804 0 0 0 0-3.608h-21.649c-.996 0-1.804.808-1.804 1.804" style="fill:#fff"/><path d="M100.359 161.733h-8.681l-3.715 3.361c-7.272 4.263-12.159 12.155-12.159 21.193s4.887 16.93 12.159 21.193l3.715 3.362h8.681c13.561 0 24.554-10.993 24.554-24.555 0-13.56-10.993-24.554-24.554-24.554" style="fill:#bc6e2b"/><path d="M116.232 186.288c0 13.561-10.993 24.555-24.554 24.555s-24.554-10.993-24.554-24.555 10.993-24.554 24.554-24.554c13.561-.001 24.554 10.993 24.554 24.554" style="fill:#ffc061"/><path d="M83.156 181.564a3.676 3.676 0 1 1-7.353 0 3.676 3.676 0 0 1 7.353 0M105.566 181.564a3.676 3.676 0 1 1-7.353 0 3.676 3.676 0 0 1 7.353 0" style="fill:#bc6e2b"/><path d="M104.131 192.447c-1.776 5.365-6.832 9.236-12.793 9.236-6.027 0-11.13-3.958-12.851-9.416" style="fill:none;stroke:#bc6e2b;stroke-width:3;stroke-linecap:round;stroke-miterlimit:10"/><path d="M438.625 185.236H320.954a2.503 2.503 0 0 1-2.503-2.503v-69.977a2.503 2.503 0 0 1 2.503-2.503h117.672a2.503 2.503 0 0 1 2.503 2.503v69.977a2.504 2.504 0 0 1-2.504 2.503" style="fill:#455a64"/><path d="M321.486 113.211h116.341v68.969H321.486z" style="fill:#fff"/><path d="M433.305 120.969H325.931a2.453 2.453 0 0 1-2.453-2.453v-.05a2.453 2.453 0 0 1 2.453-2.453h107.373a2.453 2.453 0 0 1 2.453 2.453v.05a2.45 2.45 0 0 1-2.452 2.453" style="fill:#ffc061"/><circle cx="326.668" cy="118.507" r="1.344" style="fill:#fff"/><path d="M332.088 118.507a1.343 1.343 0 1 1-2.687.001 1.343 1.343 0 0 1 2.687-.001" style="fill:#fff"/><path d="M336.164 118.507a1.343 1.343 0 1 1-2.687.001 1.343 1.343 0 0 1 2.687-.001" style="fill:#455a64"/><path d="M432.044 180.214H327.192a3.714 3.714 0 0 1-3.714-3.714v-49.445a3.714 3.714 0 0 1 3.714-3.714h104.851a3.714 3.714 0 0 1 3.714 3.714V176.5a3.713 3.713 0 0 1-3.713 3.714" style="fill:#c7c7c7"/><path d="M429.488 135.053a4.62 4.62 0 0 1-4.622 4.622H336.71a4.622 4.622 0 1 1 0-9.244h88.157a4.623 4.623 0 0 1 4.621 4.622" style="fill:#fff"/><path d="M346.782 130.432H336.71a4.622 4.622 0 1 0 0 9.244h10.072z" style="fill:#455a64"/><path d="M419.883 148.446a3.03 3.03 0 0 1-3.028 3.028H342.88a3.028 3.028 0 0 1 0-6.056h73.975a3.03 3.03 0 0 1 3.028 3.028M419.883 159.056a3.03 3.03 0 0 1-3.028 3.028H342.88a3.028 3.028 0 0 1 0-6.056h73.975a3.03 3.03 0 0 1 3.028 3.028" style="fill:#ebebeb"/><path d="M342.866 134.653a2.18 2.18 0 1 1-4.36 0 2.18 2.18 0 0 1 4.36 0zM338.868 135.853l-3.192 2.103" style="fill:none;stroke:#fff;stroke-width:.8437;stroke-miterlimit:10"/><path d="M174.951 135.012H45.68a2.524 2.524 0 0 1-2.523-2.523v-29.468a2.523 2.523 0 0 1 2.523-2.523h129.272a2.524 2.524 0 0 1 2.523 2.523v29.468a2.524 2.524 0 0 1-2.524 2.523" style="fill:#455a64"/><path d="M165.474 135.012H36.202a2.524 2.524 0 0 1-2.523-2.523v-29.468a2.524 2.524 0 0 1 2.523-2.523h129.272a2.524 2.524 0 0 1 2.523 2.523v29.468a2.524 2.524 0 0 1-2.523 2.523" style="fill:#c7c7c7"/><path d="M163.089 132.618H38.607a2.61 2.61 0 0 1-2.612-2.612v-24.503a2.61 2.61 0 0 1 2.612-2.612h124.482a2.61 2.61 0 0 1 2.612 2.612v24.503a2.613 2.613 0 0 1-2.612 2.612" style="fill:#ebebeb"/><path d="M53.701 107.477h1.398l.32 1.275-1.718.517z" style="fill:#a87d1d"/><path d="m55.841 107.938 2.518 5.103 5.631.818a.827.827 0 0 1 .458 1.411l-4.075 3.972.962 5.608a.827.827 0 0 1-1.2.872l-5.037-2.648-5.037 2.648a.827.827 0 0 1-1.2-.872l.962-5.608-4.075-3.972a.827.827 0 0 1 .458-1.411l5.631-.818 2.518-5.103a.83.83 0 0 1 1.486 0" style="fill:#a87d1d"/><path d="m54.442 107.938 2.518 5.103 5.631.818a.827.827 0 0 1 .458 1.411l-4.075 3.972.962 5.608a.827.827 0 0 1-1.2.872l-5.037-2.648-5.037 2.648a.827.827 0 0 1-1.2-.872l.962-5.608-4.075-3.972a.827.827 0 0 1 .458-1.411l5.631-.818 2.518-5.103a.83.83 0 0 1 1.486 0" style="fill:#edb62b"/><path d="M52.252 113.363a.492.492 0 0 1-.88-.442l1.73-3.446a.492.492 0 0 1 .879.442z" style="opacity:.62;fill:#fff"/><path d="M77.208 107.477h1.399l.319 1.275-1.718.517z" style="fill:#a87d1d"/><path d="m79.348 107.938 2.518 5.103 5.631.818a.827.827 0 0 1 .458 1.411l-4.075 3.972.962 5.608a.827.827 0 0 1-1.2.872l-5.037-2.648-5.037 2.648a.827.827 0 0 1-1.2-.872l.962-5.608-4.075-3.972a.827.827 0 0 1 .458-1.411l5.631-.818 2.518-5.103a.83.83 0 0 1 1.486 0" style="fill:#a87d1d"/><path d="m77.95 107.938 2.518 5.103 5.631.818a.827.827 0 0 1 .458 1.411l-4.075 3.972.962 5.608a.827.827 0 0 1-1.2.872l-5.037-2.648-5.037 2.648a.827.827 0 0 1-1.2-.872l.962-5.608-4.075-3.972a.827.827 0 0 1 .458-1.411l5.631-.818 2.518-5.103a.83.83 0 0 1 1.486 0" style="fill:#edb62b"/><path d="M75.759 113.363a.492.492 0 0 1-.88-.442l1.73-3.446a.492.492 0 0 1 .88.442z" style="opacity:.62;fill:#fff"/><path d="M100.716 107.477h1.398l.319 1.275-1.717.517z" style="fill:#a87d1d"/><path d="m102.856 107.938 2.518 5.103 5.631.818a.827.827 0 0 1 .458 1.411l-4.075 3.972.962 5.608a.827.827 0 0 1-1.2.872l-5.037-2.648-5.037 2.648a.827.827 0 0 1-1.2-.872l.962-5.608-4.075-3.972a.827.827 0 0 1 .458-1.411l5.631-.818 2.518-5.103a.83.83 0 0 1 1.486 0" style="fill:#a87d1d"/><path d="m101.457 107.938 2.518 5.103 5.631.818a.827.827 0 0 1 .458 1.411l-4.075 3.972.962 5.608a.827.827 0 0 1-1.2.872l-5.037-2.648-5.037 2.648a.827.827 0 0 1-1.2-.872l.962-5.608-4.075-3.972a.827.827 0 0 1 .458-1.411l5.631-.818 2.518-5.103a.83.83 0 0 1 1.486 0" style="fill:#edb62b"/><path d="M99.267 113.363a.492.492 0 0 1-.88-.442l1.73-3.446a.492.492 0 0 1 .88.442z" style="opacity:.62;fill:#fff"/><path d="M124.223 107.477h1.399l.319 1.275-1.718.517z" style="fill:#a87d1d"/><path d="m126.363 107.938 2.518 5.103 5.631.818a.827.827 0 0 1 .458 1.411l-4.075 3.972.962 5.608a.827.827 0 0 1-1.2.872l-5.037-2.648-5.037 2.648a.827.827 0 0 1-1.2-.872l.962-5.608-4.075-3.972a.827.827 0 0 1 .458-1.411l5.631-.818 2.518-5.103a.83.83 0 0 1 1.486 0" style="fill:#a87d1d"/><path d="m124.965 107.938 2.518 5.103 5.631.818a.827.827 0 0 1 .458 1.411l-4.075 3.972.962 5.608a.827.827 0 0 1-1.2.872l-5.037-2.648-5.037 2.648a.827.827 0 0 1-1.2-.872l.962-5.608-4.075-3.972a.827.827 0 0 1 .458-1.411l5.631-.818 2.518-5.103a.83.83 0 0 1 1.486 0" style="fill:#edb62b"/><path d="M122.774 113.363a.492.492 0 0 1-.88-.442l1.73-3.446a.492.492 0 0 1 .88.442z" style="opacity:.62;fill:#fff"/><path d="M149.129 107.477h-1.399l-.319 1.275 1.718.517z" style="fill:#a87d1d"/><path d="m146.989 107.938-2.518 5.103-5.631.818a.827.827 0 0 0-.458 1.411l4.075 3.972-.962 5.608a.827.827 0 0 0 1.2.872l5.037-2.648 5.037 2.648a.827.827 0 0 0 1.2-.872l-.962-5.608 4.075-3.972a.827.827 0 0 0-.458-1.411l-5.631-.818-2.518-5.103a.83.83 0 0 0-1.486 0" style="fill:#999"/><path d="m148.387 107.938-2.518 5.103-5.631.818a.827.827 0 0 0-.458 1.411l4.075 3.972-.962 5.608a.827.827 0 0 0 1.2.872l5.037-2.648 5.037 2.648a.827.827 0 0 0 1.2-.872l-.962-5.608 4.075-3.972a.827.827 0 0 0-.458-1.411l-5.631-.818-2.518-5.103a.83.83 0 0 0-1.486 0M115.258 134.366l12.418 14.586-2.818-14.586z" style="fill:#c7c7c7"/><path d="M127.676 148.952h5.927l-1.654-13.626h-7.091z" style="fill:#455a64"/><defs><path id="a" d="M159.932 65.418H343.88v375.078H159.932z"/></defs><clipPath id="b"><use xlink:href="#a" style="overflow:visible"/></clipPath><g style="clip-path:url(#b)"><path d="m270.473 183.728 38.607 17.013-2.443 183.375s-38.435-2.407-55.38-15.554V199.976l4.261-15.642zM226.415 619.424s3.516 16.642 1.172 28.362c-16.642 3.282-40.082 2.344-42.66-.938 2.344-13.361 14.298-21.565 16.642-21.33l2.11-6.094z" style="fill:#ffc061"/><path d="M223.505 648.486c-16.154 2.415-36.205 1.384-38.579-1.637 2.344-13.361 14.298-21.565 16.642-21.33 0 0 23.947-2.344 21.937 22.967" style="fill:#bc6e2b"/><path d="m227.586 608.173-1.172 11.251s-11.72 7.032-22.736 0l-.234-15.001z" style="fill:#bc6c64"/><path d="M297.965 619.631s-1.303 19.118 0 25.201c29.329 3.259 43.379 4.692 51.2 1.216s-10.166-22.072-17.539-22.072l-10.363-6.517z" style="fill:#ffc061"/><path d="m295.793 605.944 2.172 13.687s13.356 8.473 23.298-2.172l-1.79-15.425z" style="fill:#bc6c64"/><path d="M349.165 646.048c-6.252 2.779-16.495 2.418-35.331.498.36-22.198 17.792-22.57 17.792-22.57 7.373 0 25.36 18.596 17.539 22.072" style="fill:#bc6e2b"/><path d="m196.075 377.397-1.738 231.589s19.552 6.518 40.408 0l10.428-192.918h11.297l31.791 190.311s16.412 10.428 43.364-3.911l-24.753-224.202-49.099-17.38-22.159-4.345z" style="fill:#455a64"/><path d="m235.791 589.645-1.046 19.34c-20.856 6.518-40.408 0-40.408 0l.141-18.836c16.721 2.55 32.928.81 41.313-.504M329.597 584.086l2.029 18.382c-26.952 14.339-43.364 3.91-43.364 3.91l-2.827-16.923c9.298.414 27.322.254 44.162-5.369" style="opacity:.33;fill:#6ba6bf"/><path d="M248.215 416.067s-4.779-36.498-4.779-51.706M254.298 416.067s4.779-36.498 4.779-51.706M261.979 416.067H231.27M256.471 416.067h6.511M239.96 416.067 228.663 610.04M262.982 416.067l30.623 192.509M221.816 379.569s-.068 22.156-25.94 24.331M282.106 377.831s1.21 25.163 27.978 29.527" style="fill:none;stroke:#263238;stroke-width:1.3156;stroke-miterlimit:10"/><path d="m232.04 183.728-38.607 17.013 2.443 183.375s38.435-2.407 55.38-15.554V199.976l-4.261-15.642z" style="fill:#ffc061"/><path d="m195.069 511.456.227-30.219a19.9 19.9 0 0 1 12.945-4.775c11.038 0 19.987 8.948 19.987 19.987s-8.949 19.987-19.987 19.987c-5.052.001-9.653-1.889-13.172-4.98M285.435 496.45c0-11.039 8.949-19.987 19.987-19.987 4.874 0 9.337 1.749 12.806 4.648l3.036 27.493c-3.654 4.755-9.381 7.833-15.841 7.833-11.04 0-19.988-8.949-19.988-19.987" style="fill:#37474f"/><path d="M286.744 133.449c-2.372 4.696-7.684 6.792-11.863 4.681s-5.644-7.63-3.272-12.326 7.684-6.792 11.863-4.681 5.644 7.629 3.272 12.326" style="fill:#bc6c64"/><path d="M286.744 133.449c1.663-3.293 1.434-6.985-.288-9.628-3.417-.149-6.927 1.913-8.733 5.488-1.663 3.292-1.435 6.985.288 9.628 3.416.149 6.926-1.912 8.733-5.488" style="opacity:.32;fill:#590a06"/><path d="M215.77 133.449c2.372 4.696 7.684 6.792 11.863 4.681s5.644-7.63 3.272-12.326-7.684-6.792-11.863-4.681c-4.18 2.111-5.645 7.629-3.272 12.326" style="fill:#bc6c64"/><path d="M215.77 133.449c-1.663-3.293-1.434-6.985.287-9.628 3.417-.149 6.927 1.913 8.733 5.488 1.663 3.292 1.435 6.985-.288 9.628-3.416.149-6.926-1.912-8.732-5.488" style="opacity:.32;fill:#590a06"/><path d="M267.821 81.118s8.713-1.398 12.725 2.273 10.048 18.529 4.233 14.334-4.233-3.671-4.233-3.671 1.215 18.408-2.631 26.247c-3.846 7.84-9.258 8.411-9.258 8.411l-6.824-29.064z" style="fill:#7c2e25"/><path d="m262.596 97.714 5.225-16.596s-16.127-9.789-30.636-6.992 1.657 4.72 1.657 4.72-13.637 4.195-21.107 13.46 2.688 7.167 2.688 7.167 1.478 18.296 3.876 23.744 9.802 4.919 9.802 4.919z" style="fill:#51200b"/><path d="M266.552 158.731h-30.59s-.175 12.062-3.921 24.997c7.417 30.416 19.217 48.945 19.217 48.945s11.799-18.529 19.217-48.945c-3.748-12.936-3.923-24.997-3.923-24.997" style="fill:#bc6c64"/><path d="M268.412 175.059c-.012.019-6.763 10.942-17.155 12.689-10.392-1.747-17.144-12.67-17.155-12.689a96 96 0 0 1-2.061 8.669c7.417 30.416 19.217 48.945 19.217 48.945s11.799-18.529 19.217-48.945a96 96 0 0 1-2.063-8.669" style="fill:#bc6e2b"/><path d="M270.473 183.728a96 96 0 0 1-2.061-8.669c-.012.019-6.763 10.942-17.155 12.689l14.009 13.808a206 206 0 0 0 5.207-17.828M232.04 183.728a96 96 0 0 0 2.061-8.669c.012.019 6.763 10.942 17.155 12.689l-14.009 13.808a207 207 0 0 1-5.207-17.828" style="fill:#995420"/><path d="M266.552 158.731h-30.59s-.114 7.696-2.067 17.384c19.422 8.533 31.784-11.528 31.784-11.528l1.146-1.133c-.246-2.933-.273-4.723-.273-4.723" style="fill:#380403"/><path d="M274.855 110.835c-.787-17.043-23.599-16.781-23.599-16.781s-22.812-.262-23.598 16.781c-.787 17.043-.262 45.362 9.177 53.752s14.421 7.604 14.421 7.604 4.982.787 14.421-7.604c9.441-8.391 9.965-36.709 9.178-53.752" style="fill:#bc6c64"/><path d="M264.498 143.873c-6.817-4.064-10.619-4.928-13.241-4.928s-6.424.864-13.241 4.928c-3.788-2.956-8.238-11.701-10.539-16.612.401 15.017 2.584 31.304 9.359 37.326 9.439 8.391 14.421 7.604 14.421 7.604s4.982.787 14.421-7.604c6.775-6.022 8.957-22.31 9.359-37.326-2.301 4.91-6.751 13.655-10.539 16.612" style="fill:#51200b"/><path d="M257.988 110.126c-1.139.962-.354 2.843 1.137 2.835 2.917-.016 7.769.127 11.058 1.107 2.447.262 1.925-4.02-3.102-4.982-3.537-.676-7.183-.574-9.093 1.04M244.525 110.126c1.139.962.354 2.843-1.137 2.835-2.917-.016-7.769.127-11.058 1.107-2.447.262-1.925-4.02 3.102-4.982 3.537-.676 7.183-.574 9.093 1.04" style="fill:#651d13"/><path d="M251.257 147.295a36 36 0 0 1-5.947-.502c-.677-.114-1.224.594-.873 1.184 1.388 2.328 3.911 3.893 6.82 3.893s5.432-1.566 6.82-3.893c.351-.589-.196-1.298-.873-1.184a36 36 0 0 1-5.947.502" style="fill:#f9f3e9"/><path d="M258.872 127.06c.618-1.035 1.702-1.683 2.781-2.13 1.102-.437 2.276-.626 3.433-.649 1.162-.04 2.307.145 3.411.429a18 18 0 0 1 1.61.586c.515.265 1.025.522 1.502.869-.592.104-1.15.119-1.704.141-.553.023-1.098.05-1.632.038l-3.145.033c-1.031.018-2.053.047-3.079.147-1.03.102-2.056.225-3.177.536M243.642 127.06c-1.121-.311-2.148-.434-3.178-.535-1.026-.101-2.048-.129-3.079-.147l-3.145-.033c-.534.011-1.079-.016-1.632-.038-.554-.022-1.112-.036-1.704-.141.477-.347.988-.605 1.502-.869a18 18 0 0 1 1.61-.586c1.104-.284 2.249-.469 3.411-.429 1.157.023 2.332.212 3.433.649 1.08.446 2.164 1.094 2.782 2.129" style="fill:#590a06"/><path d="M253.196 126.233s1.153 13.314 0 14.625c-1.152 1.311-6.134-1.912-6.134-1.912l2.389-12.712z" style="fill:#bc6c64"/><path d="M253.196 126.233c.644 3.407.93 6.848.956 10.315a33 33 0 0 1-.111 2.618 10 10 0 0 1-.227 1.352c-.017.109-.102.269-.157.397l-.098.199q-.085.092-.182.175a.95.95 0 0 1-.413.236 1.1 1.1 0 0 1-.418.084c-1.06.027-1.841-.409-2.63-.795-.762-.439-1.5-.897-2.17-1.452.793.351 1.571.714 2.379.982.777.272 1.652.544 2.324.452.34-.065.389-.183.476-.507.071-.375.106-.783.128-1.202.045-.836.06-1.688.052-2.541.007-3.417-.087-6.853.091-10.313" style="fill:#651d13"/><path d="m263.082 96.17 4.739-15.052" style="fill:none;stroke:#3f100b;stroke-width:1.0488;stroke-miterlimit:10"/><path d="M255.747 171.22c2.391-.973 5.712-2.883 9.931-6.633 9.44-8.391 9.964-36.709 9.177-53.752s-23.599-16.781-23.599-16.781-7.977-.09-14.66 3.361c-2.58 13.822-10.241 65.947 19.151 73.805" style="opacity:.32;fill:#fff"/><path d="M254.959 122.581s5.577-4.725 19.317-3.962c5.179 2.013 7.395 2.695 6.335 8.345s-2.182 11.56-11.409 12.041-13.197-6.066-14.208-12.963c-.478-2.194-.035-3.461-.035-3.461" style="opacity:.16;fill:#ff6d00"/><path d="M274.276 118.619c-4.634-.257-8.338.11-11.214.709 1.032 6.167 3.918 13.964 11.627 18.406 4.292-2.122 5.125-6.519 5.922-10.77 1.06-5.65-1.157-6.332-6.335-8.345" style="opacity:.26;fill:#fff"/><path d="M247.586 122.657s-5.673-4.609-19.395-3.562c-5.136 2.119-7.338 2.847-6.161 8.474 1.176 5.627 2.419 11.513 11.655 11.803s13.069-6.337 13.937-13.253c.433-2.205-.036-3.462-.036-3.462" style="opacity:.16;fill:#ff6d00"/><path d="M241.16 119.694c-4.634-.257-8.345-.623-11.221-.024 1.032 6.167 3.918 13.964 11.627 18.406 4.292-2.122 5.125-6.519 5.922-10.77 1.059-5.65-1.15-5.599-6.328-7.612" style="opacity:.26;fill:#fff"/><path d="M254.959 120.757c-2.707.357-3.702.308-3.702.308s-.994.07-3.708-.231c-13.717-4.9-29.813-1.852-29.813-1.852l.051 4.909 2.931 1.579s.757 10.938 6.416 13.375 13.939 1.466 16.643-1.701 3.266-3.328 5.366-10.358c0 0 .671-1.632 2.154-1.868 1.488.205 2.192 1.823 2.192 1.823 2.245 6.984 2.81 7.135 5.579 10.245s11.067 3.91 16.675 1.357c5.607-2.553 6.138-13.505 6.138-13.505l2.898-1.64-.051-4.909c-.001.001-16.156-2.713-29.769 2.468m-11.054 13.247c-2.369 4.451-8.316 5.317-13.963 4.007-5.648-1.31-7.662-9.338-6.099-13.861s9.136-3.797 14.21-3.527c5.073.27 6.948 2.584 6.948 2.584 1.788 1.672 1.272 6.346-1.096 10.797m29.012 3.564c-5.619 1.426-11.583.683-14.043-3.718s-3.071-9.063-1.318-10.772c0 0 1.827-2.353 6.894-2.727s12.623-1.257 14.28 3.233c1.654 4.49-.194 12.558-5.813 13.984" style="fill:#fff"/><path d="m219.201 118.966.019-.006z" style="fill:#411919"/><path d="M251.257 187.748c.118 1.872.169 3.744.255 5.616l.146 5.616c.096 3.744.109 7.487.122 11.231-.012 3.744-.026 7.487-.121 11.231l-.146 5.616c-.087 1.872-.138 3.744-.257 5.616-.119-1.872-.17-3.744-.257-5.616l-.146-5.616c-.095-3.744-.109-7.487-.121-11.231.013-3.744.027-7.488.122-11.231l.146-5.616c.088-1.872.139-3.744.257-5.616M248.397 198.761a1.853 1.853 0 1 1-3.706 0 1.853 1.853 0 0 1 3.706 0M248.397 211.87a1.853 1.853 0 1 1-3.706 0 1.853 1.853 0 0 1 3.706 0" style="fill:#fffee6"/><path d="M170.887 328.486s-4.43-28.066-4.43-59.449c20.782-7.424 28.612 1.616 28.612 1.616l3.285 32.355z" style="fill:#bc6c64"/><path d="M193.433 200.741s-27.459 15.584-30.359 53.008c.483 16.327 3.383 31.32 3.383 31.32s13.722-8.905 28.816-11.643c-.936-66.669-1.84-72.685-1.84-72.685" style="fill:#bc6e2b"/><path d="M166.457 285.069s13.722-8.905 28.816-11.643c-.051-3.609-.101-7.03-.152-10.293-11.508 3.231-23.847 8.33-30.34 11.158.847 6.487 1.676 10.778 1.676 10.778" style="fill:#ffc061"/><path d="M195.274 273.426c-.241-3.024-.389-6.051-.587-9.077l-.434-9.08c-.287-6.054-.459-12.11-.631-18.167-.137-6.057-.271-12.115-.292-18.175l-.026-9.091c.045-3.032.039-6.062.129-9.095.243 3.024.39 6.051.589 9.077l.434 9.08c.286 6.054.459 12.11.629 18.167.135 6.057.27 12.115.289 18.176l.027 9.091c-.045 3.03-.039 6.061-.127 9.094" style="fill:#995f1a"/><path d="m195.707 371.409.169 12.707s38.435-2.407 55.381-15.554v-11.888c-6.35 4.11-22.313 11.809-55.55 14.735" style="fill:#bc6e2b"/><path d="M331.626 328.486s4.43-28.066 4.43-59.449c-20.782-7.424-28.612 1.616-28.612 1.616l-3.286 32.355z" style="fill:#bc6c64"/><path d="M309.081 200.741s27.459 15.584 30.359 53.008c-.483 16.327-3.383 31.32-3.383 31.32s-13.722-8.905-28.816-11.643c.935-66.669 1.84-72.685 1.84-72.685" style="fill:#bc6e2b"/><path d="M336.056 285.069s-13.722-8.905-28.816-11.643c.051-3.609.101-7.03.152-10.293 11.508 3.231 23.847 8.33 30.34 11.158-.846 6.487-1.676 10.778-1.676 10.778" style="fill:#ffc061"/><path d="M272.217 252.957h-41.922s-22.128 41.458-22.467 68.397c2.634-9.721 31.702-53.692 31.702-53.692h23.45s29.068 43.971 31.703 53.692c-.337-26.939-22.466-68.397-22.466-68.397" style="opacity:.56;fill:#bc6e2b"/><path d="M307.24 273.426c-.088-3.033-.082-6.063-.126-9.095l.027-9.091c.02-6.061.154-12.118.289-18.176.17-6.057.343-12.113.629-18.167l.434-9.08c.198-3.025.346-6.052.589-9.077.089 3.033.084 6.063.128 9.095l-.026 9.091c-.021 6.06-.155 12.118-.292 18.175-.172 6.057-.344 12.113-.631 18.167l-.434 9.08c-.198 3.026-.346 6.053-.587 9.078" style="fill:#995f1a"/><path d="m306.807 371.409-.169 12.707s-38.435-2.407-55.38-15.554v-11.888c6.348 4.11 22.312 11.809 55.549 14.735" style="fill:#bc6e2b"/><path d="M251.257 368.562V235.11" style="fill:none;stroke:#995f1a;stroke-width:1.4633;stroke-miterlimit:10"/><path d="M252.845 209.4v-4.326h14.09c2.648 0 5.15 1.451 6.268 3.853.404.867.662 1.885.635 3.057-12.969 0-20.993-2.584-20.993-2.584" style="fill:#fff"/><path d="M252.845 209.4v-4.326h-14.09c-2.648 0-5.15 1.451-6.268 3.853a6.8 6.8 0 0 0-.635 3.057c12.969 0 20.993-2.584 20.993-2.584" style="fill:#fff"/><path d="M252.845 209.4h-17.411a3.774 3.774 0 0 0-3.759 4.117l4.161 45.707a4.55 4.55 0 0 0 4.531 4.138h24.958a4.55 4.55 0 0 0 4.531-4.138l4.16-45.707a3.775 3.775 0 0 0-3.759-4.117z" style="fill:#ebebeb"/><path d="M242.72 217.639a3.49 3.49 0 1 1-6.98 0 3.49 3.49 0 0 1 6.98 0" style="fill:#aaa"/><path d="M241.3 217.616a2.07 2.07 0 1 1-4.141 0 2.07 2.07 0 0 1 4.141 0" style="fill:#263238"/><path d="M207.607 265.008s6.916-20.913 11.033-27.006 14.162-8.892 21.407-10.868 7.41 3.623 7.41 3.623 3.129.165 4.775 1.976-.329 4.117-2.306 5.269c.165 3.787-3.293 6.587-3.293 6.587s-.741 4.978-2.388 8.107-5.022 7.866-9.139 12.312-5.105 7.245-11.362 17.455-17.784 50.224-24.865 54.176-20.254 5.105-25.194-2.305-3.952-11.856 1.153-24.7c5.104-12.845 29.805-34.582 32.769-44.626" style="fill:#bc6c64"/><path d="M187.764 319.323c7.434 0 13.647 5.164 15.288 12.096-1.496 2.638-2.906 4.513-4.173 5.22-7.081 3.952-20.254 5.105-25.194-2.305a27 27 0 0 1-1.357-2.261c1.392-7.262 7.769-12.75 15.436-12.75" style="opacity:.25;fill:#56221c"/><path d="M247.456 230.757c-.973.493-1.973.843-2.982 1.143a30 30 0 0 1-6.174 1.155c-1.049.085-2.108.119-3.194.008.973-.495 1.972-.846 2.982-1.145a30.084 30.084 0 0 1 6.176-1.15c1.048-.086 2.107-.121 3.192-.011M249.926 238.002c-.854.594-1.752 1.049-2.666 1.454a27.3 27.3 0 0 1-5.68 1.814c-.98.198-1.976.347-3.016.355.853-.596 1.751-1.051 2.665-1.457a27.307 27.307 0 0 1 5.682-1.81c.98-.197 1.975-.346 3.015-.356M246.633 244.589c-.462.785-1.018 1.457-1.607 2.089a20.2 20.2 0 0 1-3.951 3.295c-.728.465-1.49.891-2.346 1.202.461-.786 1.017-1.459 1.606-2.091a20.158 20.158 0 0 1 3.953-3.292c.729-.464 1.49-.89 2.345-1.203M196.167 281.465c-2.142 2.412-4.232 4.848-6.329 7.269-2.08 2.435-4.142 4.88-6.09 7.407-1.973 2.505-3.873 5.07-5.582 7.752-1.689 2.69-3.311 5.441-4.403 8.484.533-3.198 1.852-6.235 3.409-9.075 1.544-2.865 3.429-5.517 5.41-8.074 2-2.546 4.135-4.978 6.407-7.273 2.258-2.307 4.641-4.493 7.178-6.49" style="fill:#75240e"/><path d="M294.907 265.008s-6.916-20.913-11.033-27.006-14.161-8.892-21.407-10.868c-7.245-1.976-7.41 3.623-7.41 3.623s-3.129.165-4.775 1.976.329 4.117 2.305 5.269c-.165 3.787 3.293 6.587 3.293 6.587s.741 4.978 2.388 8.107 5.022 7.866 9.139 12.312 5.105 7.245 11.362 17.455c6.258 10.209 17.784 50.224 24.865 54.176s20.254 5.105 25.194-2.305 3.952-11.856-1.153-24.7c-5.104-12.845-29.804-34.582-32.768-44.626" style="fill:#bc6c64"/><path d="M314.749 319.323c-7.434 0-13.647 5.164-15.288 12.096 1.496 2.638 2.906 4.513 4.173 5.22 7.081 3.952 20.254 5.105 25.194-2.305.523-.784.965-1.53 1.357-2.261-1.392-7.262-7.769-12.75-15.436-12.75" style="opacity:.25;fill:#56221c"/><path d="M255.057 230.757c1.085-.109 2.144-.075 3.193.01a30.4 30.4 0 0 1 6.176 1.15c1.009.299 2.009.649 2.981 1.145-1.086.111-2.145.077-3.194-.008a30.347 30.347 0 0 1-6.174-1.155c-1.009-.299-2.009-.649-2.982-1.142M252.587 238.002c1.04.01 2.036.159 3.016.357a27.3 27.3 0 0 1 5.682 1.81c.914.405 1.812.861 2.665 1.457-1.041-.008-2.036-.156-3.016-.355a27.17 27.17 0 0 1-5.681-1.814c-.914-.406-1.812-.861-2.666-1.455M255.88 244.589c.855.313 1.616.739 2.345 1.204a20.2 20.2 0 0 1 3.953 3.292c.589.632 1.145 1.305 1.606 2.091-.856-.312-1.618-.737-2.346-1.202a20.316 20.316 0 0 1-3.951-3.295c-.588-.634-1.144-1.306-1.607-2.09M306.346 281.465c2.537 1.997 4.92 4.183 7.177 6.49a85 85 0 0 1 6.407 7.273c1.981 2.557 3.866 5.209 5.41 8.074 1.557 2.84 2.876 5.877 3.409 9.075-1.092-3.043-2.714-5.794-4.403-8.484-1.709-2.682-3.609-5.247-5.582-7.752-1.948-2.527-4.01-4.972-6.09-7.407-2.096-2.42-4.186-4.857-6.328-7.269" style="fill:#75240e"/><path d="m269.013 189.364 41.072 17.088M233.501 189.364l-41.072 17.088" style="fill:none;stroke:#bc6e2b;stroke-miterlimit:10"/><path d="M267.821 346.581s12.324 6.624 34.782 8.597V344.6s-17.825-1.169-34.671-11.146c0 9.604-.111 13.127-.111 13.127M234.693 346.581s-12.324 6.624-34.782 8.597V344.6s17.825-1.169 34.671-11.146c-.001 9.604.111 13.127.111 13.127" style="fill:#bc6e2b"/></g></svg>