<?xml version="1.0" encoding="utf-8"?>
<!-- Generator: Adobe Illustrator 27.5.0, SVG Export Plug-In . SVG Version: 6.00 Build 0)  -->
<svg version="1.1" xmlns="http://www.w3.org/2000/svg" xmlns:xlink="http://www.w3.org/1999/xlink" x="0px" y="0px"
	 viewBox="0 0 750 500" style="enable-background:new 0 0 750 500;" xml:space="preserve">
<g id="BACKGROUND">
	<rect style="fill:#FFFFFF;" width="750" height="500"/>
</g>
<g id="OBJECTS">
	<rect y="427.35" style="fill:#E9F2FF;" width="750" height="72.65"/>
	<ellipse style="fill:#D7E7FF;" cx="363.198" cy="460.479" rx="299.467" ry="19.536"/>
	<g>
		<rect x="81.162" y="53.89" style="fill:#EBF3FF;" width="102.288" height="82.432"/>
		<rect x="201.407" y="53.89" style="fill:#EBF3FF;" width="102.288" height="82.432"/>
		<rect x="81.162" y="151.876" style="fill:#EBF3FF;" width="102.288" height="82.432"/>
		<rect x="201.407" y="151.876" style="fill:#EBF3FF;" width="102.288" height="82.432"/>
	</g>
	<g>
		<path style="fill:#8F78FF;" d="M227.092,87.824h-59.154c-5.469,0-9.902,4.433-9.902,9.902v49.191c0,5.469,4.433,9.902,9.902,9.902
			h2.951v7.349l7.349-7.349h48.853c5.469,0,9.902-4.433,9.902-9.902V97.727C236.995,92.258,232.561,87.824,227.092,87.824z"/>
		<path style="fill:#FFFFFF;" d="M197.515,100.951c-11.803,0-21.371,9.568-21.371,21.371c0,11.803,9.568,21.371,21.371,21.371
			c11.803,0,21.372-9.568,21.372-21.371C218.887,110.519,209.319,100.951,197.515,100.951z M215.981,122.322
			c0,2.11-0.371,4.128-1.023,6.017c-0.612-1.683-1.587-3.965-3.047-6.453c0.94-2.39,1.644-5.043,2.029-7.973
			C215.236,116.437,215.981,119.29,215.981,122.322z M211.884,110.738c-0.16,3.22-0.705,6.114-1.538,8.698
			c-2.569-3.705-6.23-7.556-11.361-10.375c3.296-1.811,6.098-2.683,7.278-3C208.437,107.232,210.344,108.83,211.884,110.738z
			 M205.409,132.152l4.284,4.026c-0.886,0.78-1.846,1.474-2.871,2.074c-2.278-0.431-4.356-1.039-6.255-1.784
			C202.178,135.266,203.831,133.842,205.409,132.152z M198.186,135.431c-6.252-3.071-10.259-7.678-12.809-11.99
			c1.111-2.444,2.463-4.567,3.949-6.403l14.455,13.585C201.958,132.589,200.023,134.171,198.186,135.431z M189.233,113.751
			l-4.773-4.486c0.642-0.642,1.344-1.22,2.074-1.762c2.852,0.368,5.415,1.027,7.716,1.903
			C192.562,110.611,190.854,112.052,189.233,113.751z M187.684,115.494c-1.333,1.61-2.568,3.428-3.644,5.468
			c-1.564-3.212-2.337-6.025-2.681-7.573c0.461-0.831,0.992-1.616,1.571-2.362L187.684,115.494z M190.862,115.282
			c1.878-1.984,3.883-3.573,5.822-4.84c6.118,2.959,10.125,7.462,12.694,11.566c-1.119,2.623-2.527,4.89-4.08,6.841L190.862,115.282
			z M203.037,104.698c-1.74,0.663-4.013,1.68-6.461,3.172c-2.098-0.933-4.411-1.692-6.961-2.218c2.398-1.139,5.069-1.794,7.9-1.794
			C199.439,103.857,201.293,104.153,203.037,104.698z M179.912,116.745c0.617,1.885,1.549,4.236,2.924,6.738
			c-0.853,2.027-1.534,4.261-2.012,6.696c-1.126-2.387-1.774-5.043-1.774-7.858C179.05,120.378,179.355,118.505,179.912,116.745z
			 M182.692,133.3c0.317-2.676,0.886-5.108,1.654-7.304c2.573,3.921,6.29,7.923,11.603,10.855c-2.355,1.373-4.343,2.176-5.414,2.561
			C187.389,138.126,184.689,135.992,182.692,133.3z M194,140.444c1.242-0.594,2.723-1.391,4.31-2.41
			c1.552,0.699,3.227,1.305,5.029,1.802c-1.833,0.609-3.786,0.952-5.824,0.952C196.312,140.787,195.139,140.663,194,140.444z
			 M211.344,134.53l-4.409-4.143c1.415-1.74,2.723-3.714,3.836-5.945c1.809,3.472,2.566,6.295,2.75,7.062
			C212.898,132.588,212.166,133.599,211.344,134.53z"/>
	</g>
	<g>
		<rect x="407.79" y="39.509" style="fill:#D7E7FF;" width="166.635" height="209.181"/>
		
			<rect x="487.363" y="248.689" transform="matrix(-1 -1.224647e-16 1.224647e-16 -1 982.2153 683.4081)" style="fill:#D7E7FF;" width="7.49" height="186.029"/>
		
			<rect x="454.174" y="429.887" transform="matrix(-1 -1.224647e-16 1.224647e-16 -1 982.2153 865.1209)" style="fill:#D7E7FF;" width="73.868" height="5.348"/>
		<g>
			<polyline style="fill:none;stroke:#B3CEFF;stroke-width:1.9289;stroke-miterlimit:10;" points="414.678,49.35 414.678,138.461 
				560.201,138.461 			"/>
			<rect x="421.312" y="66.21" style="fill:#FFFFFF;" width="16.435" height="64.609"/>
			<rect x="446.698" y="94.167" style="fill:#FFFFFF;" width="16.435" height="36.652"/>
			<rect x="472.084" y="57.514" style="fill:#FFFFFF;" width="16.435" height="73.305"/>
			<rect x="497.47" y="72.368" style="fill:#FFFFFF;" width="16.435" height="58.452"/>
			<rect x="522.857" y="49.35" style="fill:#FFFFFF;" width="16.435" height="81.47"/>
			<rect x="548.243" y="66.21" style="fill:#FFFFFF;" width="16.435" height="64.609"/>
			<polyline style="fill:none;stroke:#FF5050;stroke-width:1.1726;stroke-miterlimit:10;" points="429.529,66.21 454.915,94.56 
				481.135,57.514 505.688,72.368 531.074,49.35 556.461,66.21 			"/>
			<path style="fill:#B3CEFF;" d="M431.496,66.21c0,1.086-0.881,1.967-1.967,1.967c-1.086,0-1.967-0.881-1.967-1.967
				c0-1.086,0.88-1.967,1.967-1.967C430.615,64.243,431.496,65.123,431.496,66.21z"/>
			<path style="fill:#B3CEFF;" d="M456.882,94.167c0,1.086-0.88,1.967-1.967,1.967s-1.967-0.881-1.967-1.967
				c0-1.086,0.88-1.967,1.967-1.967S456.882,93.081,456.882,94.167z"/>
			<path style="fill:#B3CEFF;" d="M483.102,57.514c0,1.086-0.881,1.967-1.967,1.967c-1.086,0-1.967-0.881-1.967-1.967
				c0-1.086,0.881-1.967,1.967-1.967C482.221,55.548,483.102,56.428,483.102,57.514z"/>
			<path style="fill:#B3CEFF;" d="M507.655,72.368c0,1.086-0.88,1.967-1.967,1.967c-1.086,0-1.967-0.881-1.967-1.967
				c0-1.086,0.88-1.967,1.967-1.967C506.774,70.401,507.655,71.281,507.655,72.368z"/>
			<path style="fill:#B3CEFF;" d="M533.041,49.35c0,1.086-0.88,1.967-1.967,1.967s-1.967-0.881-1.967-1.967
				c0-1.086,0.881-1.967,1.967-1.967S533.041,48.263,533.041,49.35z"/>
			<path style="fill:#B3CEFF;" d="M558.427,66.21c0,1.086-0.88,1.967-1.967,1.967s-1.967-0.881-1.967-1.967
				c0-1.086,0.881-1.967,1.967-1.967S558.427,65.123,558.427,66.21z"/>
		</g>
		<path style="fill:#B3CEFF;" d="M492.498,196.742h40.93c0,22.454-18.477,40.93-40.93,40.93c-22.454,0-40.93-18.477-40.93-40.93
			c0-22.454,18.477-40.93,40.93-40.93c6.285,0,12.486,1.448,18.122,4.23L492.498,196.742z"/>
	</g>
	<g>
		<g>
			<path style="fill:#B3CEFF;" d="M321.868,242.279h14.531c10.719,0,19.488,8.748,19.488,19.44v0c0,10.692-8.769,19.44-19.488,19.44
				h-14.531c-10.719,0-19.488-8.748-19.488-19.44l0,0C302.38,251.027,311.149,242.279,321.868,242.279z"/>
			<g>
				<path style="fill:#343456;" d="M359.355,253.323c0.014,2.583-1.441,4.967-3.772,6.08c-5.159,2.466-12.652,5.166-21.953,5.818
					c-13.091,0.919-23.607-2.651-29.886-5.538c-2.365-1.088-3.869-3.466-3.883-6.069c-0.126-23.478-0.251-44.992-0.377-68.329
					c-0.073-13.479,10.797-24.468,24.275-24.54l12.298-0.065c12.587-0.067,22.845,10.083,22.912,22.67L359.355,253.323z"/>
			</g>
			<g>
				<path style="fill:#FFB692;" d="M329.921,124.555h-0.972c-6.231,0-11.282,5.051-11.282,11.282v30.892h23.536v-30.892
					C341.203,129.607,336.152,124.555,329.921,124.555z"/>
				<path style="fill:#FFB692;" d="M315.756,167.926c0,3.163,6.288,5.727,14.045,5.727c7.757,0,14.045-2.564,14.045-5.727
					c0-3.163-6.288-5.727-14.045-5.727C322.044,162.199,315.756,164.763,315.756,167.926z"/>
				<path style="fill:#D88D87;" d="M341.203,135.838c0-6.231-5.051-11.282-11.282-11.282h-0.972
					c-6.231,0-11.282,5.051-11.282,11.282v19.788c3.868,3.217,8.497,4.555,11.211,4.555h0c4.058,0,8.744-1.391,12.326-4.951V135.838
					z"/>
				<g>
					
						<ellipse transform="matrix(0.5159 -0.8567 0.8567 0.5159 62.2992 336.9694)" style="fill:#54321A;" cx="329.284" cy="113.365" rx="28.12" ry="28.12"/>
					<g>
						<path style="fill:#D88D87;" d="M306.919,128.309h44.729c1.957,0,3.543-1.586,3.543-3.543v0c0-1.957-1.586-3.543-3.543-3.543
							h-44.729c-1.957,0-3.543,1.587-3.543,3.543l0,0C303.376,126.723,304.963,128.309,306.919,128.309z"/>
						<path style="fill:#AA635F;" d="M353.337,124.766L353.337,124.766c0-0.933-0.756-1.688-1.688-1.688h-44.729
							c-0.932,0-1.688,0.755-1.688,1.688l0,0c0,0.933,0.756,1.689,1.689,1.689h44.729
							C352.581,126.454,353.337,125.698,353.337,124.766z"/>
						<path style="fill:#54321A;" d="M329.284,158.143L329.284,158.143c10.923,0,19.779-8.855,19.779-19.779v-21.96
							c0-10.472-8.49-18.962-18.962-18.962h-1.633c-10.472,0-18.962,8.49-18.962,18.962v21.96
							C309.505,149.287,318.36,158.143,329.284,158.143z"/>
						<path style="fill:#FFB692;" d="M329.284,152.565L329.284,152.565c10.923,0,19.779-8.855,19.779-19.779v-21.96
							c0-10.472-8.49-18.962-18.962-18.962h-1.633c-10.472,0-18.962,8.489-18.962,18.962v21.96
							C309.505,143.71,318.36,152.565,329.284,152.565z"/>
						<path style="fill:#D88D87;" d="M349.063,103.652v2.32l-39.557,3.484v-5.804c0-1.788,0.264-3.511,0.727-5.15h38.103
							C348.798,100.141,349.063,101.864,349.063,103.652z"/>
					</g>
					<g>
						<path style="fill:#54321A;" d="M339.49,91.216h-8.675h-2.028h-8.675c-8.665,0-15.689,9.328-15.689,20.834l0,0
							c3.324,0,6.603-0.777,9.574-2.268l7.774-3.902c0,0-1.692,3.777-5.557,6.114c6.236-0.568,11.467-5.974,13.587-13.411
							c2.12,7.438,7.351,12.844,13.587,13.411c-3.865-2.338-5.557-6.114-5.557-6.114l7.774,3.902
							c2.971,1.491,6.25,2.268,9.574,2.268l0,0C355.179,100.543,348.155,91.216,339.49,91.216z"/>
						<path style="fill:#875330;" d="M346.776,93.599c-4.605,2.941-10.519,4.712-16.975,4.712c-6.456,0-12.37-1.771-16.975-4.712
							c-1.513,1.056-2.879,2.43-4.049,4.055c4.245,4.207,10.575,7.103,17.801,7.775c1.385-1.967,2.493-4.281,3.224-6.846
							c0.731,2.565,1.839,4.879,3.224,6.846c7.226-0.672,13.556-3.568,17.801-7.775C349.654,96.029,348.289,94.655,346.776,93.599z"
							/>
					</g>
					<g>
						<g>
							<g>
								<path style="fill:#FFFFFF;" d="M343.594,123.011c0,2.665-2.052,4.086-4.584,4.086c-2.532,0-4.584-1.421-4.584-4.086
									c0-2.665,2.052-3.966,4.584-3.966C341.542,119.045,343.594,120.346,343.594,123.011z"/>
								<g>
									<path style="fill:#252538;" d="M334.283,123.011c-0.058-0.586,0.014-1.195,0.219-1.776
										c0.221-0.573,0.594-1.102,1.075-1.501c0.973-0.81,2.241-1.093,3.433-1.1c1.191,0.01,2.46,0.293,3.43,1.103
										c0.48,0.398,0.856,0.925,1.075,1.499c0.206,0.58,0.278,1.189,0.222,1.775h-0.285c-0.101-1.107-0.58-2.135-1.439-2.726
										c-0.851-0.594-1.931-0.831-3.003-0.828c-1.071,0.001-2.151,0.237-3,0.832c-0.858,0.59-1.336,1.616-1.441,2.723H334.283z"/>
								</g>
								<path style="fill:#252538;" d="M339.558,119.271c-1.857,0.002-3.361,1.509-3.359,3.366c0.002,1.857,1.509,3.362,3.366,3.36
									c1.857-0.002,3.362-1.509,3.36-3.367C342.923,120.773,341.415,119.269,339.558,119.271z"/>
							</g>
						</g>
						<g>
							<g>
								<path style="fill:#FFFFFF;" d="M315.993,123.011c0,2.665,2.052,4.086,4.584,4.086c2.532,0,4.584-1.421,4.584-4.086
									c0-2.665-2.052-3.966-4.584-3.966C318.045,119.045,315.993,120.346,315.993,123.011z"/>
								<g>
									<path style="fill:#252538;" d="M325.018,123.011c-0.105-1.107-0.583-2.133-1.441-2.723c-0.849-0.595-1.929-0.831-3-0.832
										c-1.072-0.002-2.152,0.234-3.003,0.828c-0.858,0.592-1.337,1.619-1.439,2.726h-0.285c-0.056-0.586,0.016-1.195,0.222-1.775
										c0.219-0.574,0.594-1.101,1.075-1.499c0.97-0.81,2.239-1.093,3.43-1.103c1.192,0.007,2.46,0.29,3.433,1.1
										c0.481,0.399,0.854,0.928,1.075,1.501c0.205,0.581,0.277,1.19,0.219,1.776H325.018z"/>
								</g>
								<path style="fill:#252538;" d="M321.384,119.271c1.857,0.002,3.362,1.509,3.359,3.366c-0.002,1.857-1.509,3.362-3.366,3.36
									s-3.362-1.509-3.36-3.367C318.02,120.773,319.527,119.269,321.384,119.271z"/>
							</g>
						</g>
						<g>
							<path style="fill:#BA726E;" d="M326.323,130.959h6.956c0.327,0,0.592,0.265,0.592,0.592v0c0,2.242-1.822,4.059-4.07,4.059
								l0,0c-2.248,0-4.07-1.817-4.07-4.059v0C325.731,131.224,325.996,130.959,326.323,130.959z"/>
							<g>
								<path style="fill:#D88D87;" d="M329.801,135.921L329.801,135.921c-1.215,0-2.199-0.985-2.199-2.199v-10.124
									c0-1.215,0.985-2.199,2.199-2.199l0,0c1.215,0,2.199,0.984,2.199,2.199v10.124C332,134.937,331.016,135.921,329.801,135.921
									z"/>
							</g>
						</g>
						<g>
							<path style="fill:#54321A;" d="M342.818,115.361c-0.766-0.242-7.054-0.564-7.336-0.564s-1.048,2.217-1.048,2.217
								s8.061-0.403,8.464,0c0.403,0.403,2.741,2.539,2.741,2.418C345.64,119.311,343.584,115.603,342.818,115.361z"/>
							<path style="fill:#54321A;" d="M324.119,114.797c-0.282,0-6.57,0.322-7.336,0.564c-0.766,0.242-2.822,3.95-2.822,4.071
								c0,0.121,2.338-2.015,2.741-2.418c0.403-0.403,8.464,0,8.464,0S324.401,114.797,324.119,114.797z"/>
						</g>
						<g>
							<g>
								<path style="fill:#252538;" d="M332.494,137.428c-1.884-0.078-4.53-0.313-7.076-0.97c-1.675-0.432-2.837,1.766-1.788,3.421
									c1.117,1.76,2.905,3.324,5.727,3.249c2.313-0.062,3.705-0.833,4.54-1.789C335.08,139.987,334.174,137.497,332.494,137.428z"
									/>
							</g>
							<g>
								<path style="fill:#FF9292;" d="M329.357,143.128c-2.822,0.075-4.61-1.489-5.727-3.249c-0.157-0.248-0.259-0.508-0.323-0.77
									c0.941-0.562,2.243-0.894,4.06-0.711c2.806,0.283,4.368,2.061,5.237,3.947c0.002,0.004,0.003,0.008,0.004,0.012
									C331.805,142.793,330.751,143.09,329.357,143.128z"/>
							</g>
							<g>
								<path style="fill:#FFABAB;" d="M330.431,140.693c-0.221,0.503-1.286,0.548-2.379,0.1c-1.093-0.448-1.801-1.219-1.58-1.722
									c0.221-0.503,1.286-0.548,2.379-0.1C329.944,139.419,330.652,140.19,330.431,140.693z"/>
							</g>
							<g>
								<path style="fill:#FFFFFF;" d="M332.494,137.428c-1.884-0.078-4.53-0.313-7.076-0.97c-1.028-0.266-1.861,0.462-2.11,1.446
									c1.578,1.113,3.883,1.895,6.488,2.064c1.67,0.108,3.251-0.05,4.621-0.415C334.303,138.477,333.553,137.471,332.494,137.428z
									"/>
							</g>
						</g>
					</g>
				</g>
			</g>
			<g>
				
					<rect x="334.972" y="331.191" transform="matrix(-1 -1.224647e-16 1.224647e-16 -1 681.6694 754.2407)" style="fill:#8F78FF;" width="11.726" height="91.859"/>
				
					<rect x="331.878" y="267.692" transform="matrix(-1 -1.224647e-16 1.224647e-16 -1 681.6697 671.0792)" style="fill:#B3CEFF;" width="17.914" height="135.695"/>
				<g>
					<g>
						<path style="fill:#343456;" d="M352.587,414.999l-0.105,12.187c0,0,12.696,0.213,16.414,17.012l-37.994-0.036v-29.163H352.587
							z"/>
					</g>
					<path style="fill:#FFFFFF;" d="M351.617,422.718h-7.544c-1.118,0-2.025-0.907-2.025-2.025l0,0c0-1.118,0.907-2.025,2.025-2.025
						h7.544c1.118,0,2.025,0.907,2.025,2.025l0,0C353.642,421.811,352.736,422.718,351.617,422.718z"/>
					<path style="fill:#FFFFFF;" d="M351.617,428.591h-7.544c-1.118,0-2.025-0.907-2.025-2.025l0,0c0-1.118,0.907-2.025,2.025-2.025
						h7.544c1.118,0,2.025,0.907,2.025,2.025l0,0C353.642,427.685,352.736,428.591,351.617,428.591z"/>
					<path style="fill:#FFFFFF;" d="M361.443,430.899c-2.406,2.45-4.703,6.613-3.702,13.287l11.153,0.011
						C367.396,437.426,364.439,433.353,361.443,430.899z"/>
					
						<rect x="330.043" y="443.302" transform="matrix(-1 -1.224647e-16 1.224647e-16 -1 699.5844 890.0421)" style="fill:#FFFFFF;" width="39.498" height="3.438"/>
				</g>
			</g>
			<g>
				
					<rect x="309.505" y="331.191" transform="matrix(-1 -1.224647e-16 1.224647e-16 -1 630.7356 754.2407)" style="fill:#8F78FF;" width="11.726" height="91.859"/>
				
					<rect x="306.411" y="267.692" transform="matrix(-1 -1.224647e-16 1.224647e-16 -1 630.7357 671.0792)" style="fill:#B3CEFF;" width="17.914" height="135.695"/>
				<g>
					<g>
						<path style="fill:#343456;" d="M327.12,414.999l-0.105,12.187c0,0,12.695,0.213,16.414,17.012l-37.994-0.036v-29.163H327.12z"
							/>
					</g>
					<path style="fill:#FFFFFF;" d="M326.15,422.718h-7.544c-1.119,0-2.025-0.907-2.025-2.025l0,0c0-1.118,0.907-2.025,2.025-2.025
						h7.544c1.118,0,2.025,0.907,2.025,2.025l0,0C328.176,421.811,327.269,422.718,326.15,422.718z"/>
					<path style="fill:#FFFFFF;" d="M326.15,428.591h-7.544c-1.119,0-2.025-0.907-2.025-2.025l0,0c0-1.118,0.907-2.025,2.025-2.025
						h7.544c1.118,0,2.025,0.907,2.025,2.025l0,0C328.176,427.685,327.269,428.591,326.15,428.591z"/>
					<path style="fill:#FFFFFF;" d="M335.976,430.899c-2.406,2.45-4.703,6.613-3.702,13.287l11.153,0.011
						C341.929,437.426,338.972,433.353,335.976,430.899z"/>
					
						<rect x="304.576" y="443.302" transform="matrix(-1 -1.224647e-16 1.224647e-16 -1 648.6504 890.0421)" style="fill:#FFFFFF;" width="39.498" height="3.438"/>
				</g>
			</g>
			<path style="fill:#6B8AD6;" d="M341.203,161.237l-5.005,29.535v85.528h30.588l-4.224-92.938
				c-0.32-7.031-3.935-13.533-9.822-17.39C349.782,164.033,345.996,162.292,341.203,161.237z"/>
			<path style="fill:#6B8AD6;" d="M317.644,161.237l5.005,29.535v85.528h-30.588l4.225-92.938c0.319-7.031,3.935-13.533,9.821-17.39
				C309.065,164.033,312.85,162.292,317.644,161.237z"/>
			<rect x="298.339" y="248.558" style="fill:#B3CEFF;" width="19.327" height="3.993"/>
			<rect x="341.899" y="248.558" style="fill:#B3CEFF;" width="19.327" height="3.993"/>
		</g>
		<g>
			<g>
				<path style="fill:#FFB692;" d="M430.196,105.559c-7.331,2.976-9.668-8.291-9.668-8.291l-6.151-5.171
					c0,0,4.844-5.278,9.206,0.426c0,0-0.233-10.134,2.921-13.194c1.481-1.437,9.493-1.57,13.345,0.347
					c0.817,0.407,1.134,1.398,0.707,2.204c-1.027,1.935-2.688,5.987-1.573,10.408C440.538,98.445,439.229,107.413,430.196,105.559z"
					/>
				<path style="fill:#D88D87;" d="M423.584,92.523c0,0,5.865-0.514,8.153,5.948c0,0-3.007-5.332-8.138-5.49L423.584,92.523z"/>
				<path style="fill:#D88D87;" d="M435.309,93.054c0,0-4.301-2.067-9.063-1.69C426.246,91.364,430.286,88.166,435.309,93.054z"/>
				<g>
					<path style="fill:#D88D87;" d="M433.656,92.318l-0.332-0.203c0,0,0.921-8.041,5.65-12.815c0.127,0.047,0.25,0.096,0.372,0.147
						C437.752,81.435,434.262,86.389,433.656,92.318z"/>
					<path style="fill:#D88D87;" d="M428.473,90.869l-0.615,0.125c0,0-1.515-7.953,2.364-12.682
						c1.513-0.121,3.283-0.086,4.983,0.126c-1.192,1.569-4.418,6.446-3.959,12.775l-0.482-0.015c0,0-1.551-7.996,3.519-12.711
						l-3.42-0.204C430.862,78.283,426.887,83.483,428.473,90.869z"/>
				</g>
			</g>
			<path style="fill:none;stroke:#FFB692;stroke-width:11.0312;stroke-miterlimit:10;" d="M430.777,102.009
				c0,0,2.352,11.599-0.312,26.3"/>
			<path style="fill:none;stroke:#6B8AD6;stroke-width:16.5833;stroke-miterlimit:10;" d="M351.563,177.705
				c57.1,13.166,80.135-27.998,80.512-65.757"/>
		</g>
		<g>
			<g>
				<path style="fill:#FFB692;" d="M212.878,198.242c7.331,2.976,9.668-8.291,9.668-8.291l6.151-5.171c0,0-4.844-5.278-9.206,0.426
					c0,0,0.233-10.134-2.921-13.194c-1.481-1.437-9.493-1.57-13.345,0.347c-0.817,0.406-1.134,1.398-0.707,2.204
					c1.027,1.935,2.688,5.988,1.573,10.408C202.537,191.128,203.846,200.096,212.878,198.242z"/>
				<path style="fill:#D88D87;" d="M219.491,185.206c0,0-5.865-0.514-8.153,5.948c0,0,3.007-5.332,8.138-5.489L219.491,185.206z"/>
				<path style="fill:#D88D87;" d="M207.766,185.737c0,0,4.301-2.067,9.063-1.69C216.829,184.047,212.789,180.849,207.766,185.737z"
					/>
				<g>
					<path style="fill:#D88D87;" d="M209.419,185.001l0.332-0.203c0,0-0.921-8.041-5.649-12.815
						c-0.127,0.047-0.25,0.096-0.372,0.147C205.323,174.118,208.813,179.072,209.419,185.001z"/>
					<path style="fill:#D88D87;" d="M214.602,183.552l0.615,0.125c0,0,1.515-7.953-2.364-12.681
						c-1.513-0.121-3.283-0.087-4.983,0.126c1.192,1.569,4.418,6.446,3.959,12.775l0.482-0.015c0,0,1.551-7.996-3.519-12.711
						l3.42-0.204C212.213,170.966,216.188,176.166,214.602,183.552z"/>
				</g>
			</g>
			<path style="fill:none;stroke:#FFB692;stroke-width:11.0312;stroke-miterlimit:10;" d="M212.297,194.182
				c0,0,11.757,16.597,18.872,20.825"/>
			<path style="fill:none;stroke:#6B8AD6;stroke-width:16.5833;stroke-miterlimit:10;" d="M306.422,177.586
				c-19.936,43.282-67.962,52.741-88.875,25.519"/>
		</g>
	</g>
	<g>
		<g>
			<rect x="133.282" y="359.4" style="fill:#6B8AD6;" width="21.245" height="66.286"/>
			<path style="fill:#536EA5;" d="M133.282,375.623c10.021-1.334,17.008,3.291,21.245,10.156V359.4h-21.245V375.623z"/>
			<g>
				<path style="fill:#6B8AD6;" d="M150.927,318.991H112.52c-12.028,0-21.778-9.75-21.778-21.778v-19.915
					c0-15.873,12.868-28.741,28.741-28.741h24.481c15.873,0,28.741,12.868,28.741,28.741v19.915
					C172.705,309.241,162.955,318.991,150.927,318.991z"/>
				<path style="fill:#B3CEFF;" d="M158.577,318.991H120.17c-12.027,0-21.778-9.75-21.778-21.778v-19.915
					c0-15.873,12.868-28.741,28.741-28.741h24.481c15.873,0,28.741,12.868,28.741,28.741v19.915
					C180.355,309.241,170.605,318.991,158.577,318.991z"/>
			</g>
			<g>
				<path style="fill:#6B8AD6;" d="M164.929,369.189h-60.63c-5.888,0-10.661-4.773-10.661-10.661l0,0
					c0-5.888,4.773-10.661,10.661-10.661h60.63c5.888,0,10.661,4.773,10.661,10.661l0,0
					C175.59,364.416,170.817,369.189,164.929,369.189z"/>
				<path style="fill:#B3CEFF;" d="M174.448,369.189h-48.702c-5.888,0-10.661-4.773-10.661-10.661l0,0
					c0-5.888,4.773-10.661,10.661-10.661h48.702c5.888,0,10.661,4.773,10.661,10.661l0,0
					C185.109,364.416,180.336,369.189,174.448,369.189z"/>
			</g>
			<path style="fill:#6B8AD6;" d="M171.862,426.233h-56.037c-2.871,0-5.198-2.327-5.198-5.198v0c0-2.871,2.327-5.198,5.198-5.198
				h56.037c2.871,0,5.198,2.327,5.198,5.198l0,0C177.06,423.906,174.733,426.233,171.862,426.233z"/>
			<g>
				<path style="fill:#B3CEFF;" d="M135.859,431.756c0,3.05-2.473,5.523-5.523,5.523c-3.05,0-5.523-2.473-5.523-5.523
					c0-3.05,2.473-5.523,5.523-5.523C133.386,426.233,135.859,428.706,135.859,431.756z"/>
				<path style="fill:#6B8AD6;" d="M132.165,431.756c0,3.05-2.473,5.523-5.523,5.523c-3.05,0-5.523-2.473-5.523-5.523
					c0-3.05,2.473-5.523,5.523-5.523C129.693,426.233,132.165,428.706,132.165,431.756z"/>
			</g>
			<g>
				<path style="fill:#B3CEFF;" d="M152.957,431.756c0,3.05-2.473,5.523-5.523,5.523c-3.05,0-5.523-2.473-5.523-5.523
					c0-3.05,2.473-5.523,5.523-5.523C150.484,426.233,152.957,428.706,152.957,431.756z"/>
				<path style="fill:#6B8AD6;" d="M149.264,431.756c0,3.05-2.473,5.523-5.523,5.523c-3.05,0-5.523-2.473-5.523-5.523
					c0-3.05,2.473-5.523,5.523-5.523C146.791,426.233,149.264,428.706,149.264,431.756z"/>
			</g>
			<g>
				<path style="fill:#B3CEFF;" d="M170.056,431.756c0,3.05-2.473,5.523-5.523,5.523s-5.523-2.473-5.523-5.523
					c0-3.05,2.473-5.523,5.523-5.523S170.056,428.706,170.056,431.756z"/>
				<path style="fill:#6B8AD6;" d="M166.363,431.756c0,3.05-2.473,5.523-5.523,5.523c-3.05,0-5.523-2.473-5.523-5.523
					c0-3.05,2.473-5.523,5.523-5.523C163.89,426.233,166.363,428.706,166.363,431.756z"/>
			</g>
		</g>
	</g>
	<g>
		<g>
			<g>
				<g>
					<path style="fill:#A56F62;" d="M221.485,321.771l-41.876-14.647c-4.121-1.441-6.293-5.95-4.851-10.071
						c1.441-4.121,5.95-6.293,10.071-4.851c0.221,0.077,0.449,0.17,0.659,0.264l40.393,18.344c2.972,1.35,4.288,4.854,2.938,7.826
						C227.547,321.438,224.336,322.759,221.485,321.771z"/>
				</g>
				<g>
					<path style="fill:#A56F62;" d="M164.396,248.855l25.459,47.057c2.174,4.019,0.679,9.04-3.34,11.214
						c-4.019,2.174-9.04,0.679-11.214-3.34c-0.012-0.023-0.046-0.086-0.058-0.109l-24.755-47.431
						c-2.012-3.856-0.518-8.613,3.338-10.625C157.645,243.628,162.351,245.081,164.396,248.855z"/>
				</g>
			</g>
			<g>
				<path style="fill:#A56F62;" d="M222.558,310.219c0.325-0.326,0.791-0.464,1.244-0.386c3.292,0.566,16.771,2.892,16.952,3.028
					c0.207,0.155,3.979,9.662,3.669,9.714c-0.31,0.051-21.03,0-21.03,0S214.479,318.323,222.558,310.219z"/>
				<path style="fill:#8C5C53;" d="M231.17,318.571c-1.368,1.394-2.665,0.863-3.276,0.466l-0.367-0.282c0,0-2.454,1.16-2.493,1.344
					c-0.005,0.025,0.023,0.113,0.064,0.224c-0.459,0.969-1.226,1.605-2.116,2.028c0.252,0.148,0.411,0.225,0.411,0.225
					s1.577,0.004,3.863,0.008l-1.253-2.301c0,0,0.232-0.499,1.852-1.151c0.337,0.348,0.897,0.82,1.51,0.895
					c-0.509,0.338-0.818,1.233-0.818,1.233c0.388-0.838,1.808-1.411,2.545,0.133c-0.4-0.899-0.771-1.313-1.1-1.444
					C230.403,319.783,230.812,319.374,231.17,318.571z"/>
				<g>
					<path style="fill:#8C5C53;" d="M240.97,322.597l-1.326-6.933l1.993,6.932C241.423,322.596,241.202,322.597,240.97,322.597z"/>
					<path style="fill:#8C5C53;" d="M235.281,322.596c-0.222,0-0.444-0.001-0.667-0.001l-1.326-6.931L235.281,322.596z"/>
					<path style="fill:#8C5C53;" d="M236.466,315.664l1.994,6.934c-0.219,0-0.442,0-0.667,0L236.466,315.664z"/>
				</g>
			</g>
			<path style="fill:#C62433;" d="M167.242,249.062l20.74,39.384l-17.987,9.352l-20.393-39.543
				c-2.543-4.931-0.56-10.99,4.407-13.462v0C158.847,242.384,164.723,244.28,167.242,249.062z"/>
		</g>
		<g>
			<polyline style="fill:none;stroke:#353551;stroke-width:15.4312;stroke-miterlimit:10;" points="148.806,339.723 
				213.343,353.293 213.666,431.756 			"/>
		</g>
		<path style="fill:#3E3D5E;" d="M134.67,313.011h8.845c9.729,0,17.69,7.96,17.69,17.69l0,0c0,9.729-7.96,17.69-17.69,17.69h-8.845
			c-9.729,0-17.689-7.96-17.689-17.69l0,0C116.98,320.971,124.941,313.011,134.67,313.011z"/>
		<g>
			<polyline style="fill:none;stroke:#3E3D5E;stroke-width:15.4312;stroke-miterlimit:10;" points="131.659,339.723 
				196.197,353.293 196.197,435.234 			"/>
		</g>
		<g>
			<path style="fill:#EF3F1D;" d="M166.858,324.529c0.014,2.554-1.424,4.911-3.729,6.012c-5.101,2.438-12.509,5.107-21.705,5.752
				c-12.943,0.908-23.34-2.621-29.548-5.475c-2.338-1.076-3.825-3.426-3.839-6c-0.124-23.212-0.249-44.483-0.373-67.557
				c-0.072-13.327,10.674-24.191,24.001-24.262l12.159-0.064c12.445-0.066,22.587,9.969,22.653,22.413L166.858,324.529z"/>
		</g>
		<g>
			<path style="fill:#A56F62;" d="M138.931,197.218h-0.961c-6.161,0-11.155,4.994-11.155,11.155v30.542h23.27v-30.542
				C150.086,202.212,145.092,197.218,138.931,197.218z"/>
			<path style="fill:#A56F62;" d="M124.926,240.098c0,3.127,6.217,5.662,13.886,5.662c7.669,0,13.887-2.535,13.887-5.662
				c0-3.127-6.217-5.662-13.887-5.662C131.143,234.436,124.926,236.971,124.926,240.098z"/>
			<path style="fill:#7C4942;" d="M150.086,208.373c0-6.161-4.994-11.155-11.155-11.155h-0.961c-6.161,0-11.155,4.994-11.155,11.155
				v19.564c3.825,3.181,8.401,4.504,11.084,4.504h0c4.012,0,8.645-1.375,12.186-4.895V208.373z"/>
			<g>
				<path style="fill:#8C5C53;" d="M113.123,198.547l49.517,0.054c2.343,0.002,4.244-1.895,4.246-4.237v0
					c0.003-2.343-1.895-4.243-4.237-4.246l-49.517-0.054c-2.343-0.002-4.244,1.895-4.246,4.237l0,0
					C108.883,196.644,110.78,198.545,113.123,198.547z"/>
				<path style="fill:#664642;" d="M162.985,196.804c1.211-0.166,2.125-1.216,2.126-2.441c0.002-1.36-1.104-2.468-2.464-2.47
					l-49.517-0.054c-0.115,0-0.23,0.007-0.343,0.023c-1.211,0.166-2.125,1.216-2.126,2.441c-0.001,1.361,1.104,2.468,2.464,2.47
					l49.517,0.055C162.757,196.827,162.872,196.82,162.985,196.804z"/>
				<path style="fill:#252538;" d="M137.848,231.922L137.848,231.922c13.076,0.013,23.688-10.576,23.701-23.653l0.029-28.664
					c0.013-12.536-10.14-22.709-22.676-22.722l-1.955-0.002c-12.536-0.013-22.709,10.14-22.722,22.676l-0.029,28.664
					C114.182,221.298,124.771,231.909,137.848,231.922z"/>
				<path style="fill:#A56F62;" d="M126.949,201.388l21.859,0.022c4.716,0.005,8.543-3.815,8.548-8.531l0.021-21.143l-38.938-0.04
					l-0.021,21.143C118.413,197.556,122.233,201.383,126.949,201.388z"/>
				<path style="fill:#A56F62;" d="M135.963,219.448l3.217,0.003c5.412,0.005,9.804-4.378,9.808-9.79l0,0
					c0.002-2.117-1.712-3.834-3.829-3.836l-15.148-0.016c-2.117-0.002-3.834,1.712-3.836,3.829v0.001
					C126.17,215.051,130.552,219.442,135.963,219.448z"/>
				<g>
					<g>
						<path style="fill:#FFFFFF;" d="M122.6,190.735c0,2.953,2.274,4.529,5.08,4.529s5.08-1.575,5.08-4.529
							c0-2.953-2.274-4.395-5.08-4.395S122.6,187.781,122.6,190.735z"/>
						<g>
							<path style="fill:#252538;" d="M132.563,190.735c-0.149-1.219-0.685-2.317-1.617-2.942c-0.924-0.63-2.095-0.885-3.266-0.885
								c-1.172-0.004-2.343,0.251-3.27,0.88c-0.933,0.628-1.47,1.728-1.614,2.947h-0.394c-0.078-0.654-0.005-1.339,0.217-1.996
								c0.24-0.65,0.661-1.251,1.201-1.706c1.091-0.927,2.523-1.247,3.859-1.26c1.337,0.009,2.768,0.329,3.863,1.255
								c0.54,0.456,0.959,1.059,1.201,1.709c0.221,0.659,0.293,1.345,0.213,1.999H132.563z"/>
						</g>
						<path style="fill:#252538;" d="M128.494,187.312c2.519-0.383,4.656,1.757,4.267,4.276c-0.242,1.569-1.526,2.85-3.096,3.089
							c-2.519,0.383-4.654-1.757-4.266-4.275C125.641,188.832,126.925,187.551,128.494,187.312z"/>
					</g>
					<g>
						<path style="fill:#252538;" d="M123.082,180.265l4.805-1.508c1.053-0.331,2.174,0.255,2.505,1.308
							c0.331,1.053-0.255,2.175-1.308,2.505l-4.805,1.508c-1.053,0.33-2.174-0.255-2.505-1.308
							C121.443,181.717,122.029,180.595,123.082,180.265z"/>
					</g>
				</g>
				<g>
					<g>
						<path style="fill:#FFFFFF;" d="M153.188,190.735c0,2.953-2.275,4.529-5.08,4.529c-2.805,0-5.08-1.575-5.08-4.529
							c0-2.953,2.274-4.395,5.08-4.395C150.914,186.34,153.188,187.781,153.188,190.735z"/>
						<g>
							<path style="fill:#252538;" d="M142.831,190.735c-0.081-0.654-0.008-1.339,0.213-1.999c0.243-0.649,0.661-1.252,1.202-1.709
								c1.095-0.926,2.526-1.247,3.863-1.255c1.336,0.013,2.768,0.333,3.859,1.26c0.54,0.455,0.961,1.056,1.201,1.706
								c0.222,0.658,0.295,1.343,0.217,1.996h-0.394c-0.144-1.219-0.681-2.319-1.613-2.947c-0.927-0.629-2.098-0.885-3.27-0.881
								c-1.171,0-2.342,0.255-3.266,0.885c-0.933,0.625-1.468,1.724-1.617,2.942H142.831z"/>
						</g>
						<path style="fill:#252538;" d="M149.814,187.312c-2.519-0.383-4.655,1.758-4.267,4.276c0.242,1.569,1.526,2.85,3.096,3.089
							c2.519,0.383,4.655-1.757,4.266-4.276C152.667,188.832,151.383,187.55,149.814,187.312z"/>
					</g>
					<g>
						<path style="fill:#252538;" d="M152.706,180.265l-4.805-1.508c-1.053-0.331-2.175,0.255-2.505,1.308
							c-0.33,1.053,0.255,2.175,1.308,2.505l4.805,1.508c1.053,0.33,2.174-0.255,2.505-1.308
							C154.345,181.717,153.759,180.595,152.706,180.265z"/>
					</g>
				</g>
				<g>
					<path style="fill:#7C4E48;" d="M134.926,203.329l5.921,0.006c0.977,0.001,1.769-0.79,1.77-1.766l0,0
						c0.001-0.977-0.79-1.769-1.766-1.77l-5.921-0.006c-0.977-0.001-1.769,0.79-1.77,1.766l0,0
						C133.159,202.535,133.95,203.328,134.926,203.329z"/>
					<path style="fill:#8C5C53;" d="M137.876,203.949L137.876,203.949c1.452,0.002,2.63-1.174,2.632-2.626l0.01-10.029
						c0.001-1.452-1.174-2.63-2.626-2.632l0,0c-1.452-0.001-2.63,1.174-2.632,2.627l-0.01,10.029
						C135.248,202.769,136.424,203.947,137.876,203.949z"/>
				</g>
				<polygon style="fill:#7C4942;" points="118.44,171.697 157.378,171.736 157.369,178.665 118.439,172.547 				"/>
				<g>
					<g>
						<path style="fill:#252538;" d="M142.187,208.444c-2.35-0.097-5.651-0.39-8.827-1.21c-2.089-0.539-3.539,2.203-2.23,4.267
							c1.393,2.196,3.624,4.147,7.144,4.053c2.885-0.077,4.622-1.039,5.664-2.231C145.413,211.636,144.282,208.53,142.187,208.444z"
							/>
					</g>
					<g>
						<path style="fill:#FF9292;" d="M138.274,215.554c-3.52,0.094-5.751-1.857-7.144-4.053c-0.196-0.309-0.323-0.634-0.403-0.961
							c1.173-0.7,2.797-1.115,5.064-0.887c3.501,0.353,5.449,2.57,6.534,4.924c0.002,0.005,0.003,0.01,0.005,0.014
							C141.327,215.136,140.012,215.507,138.274,215.554z"/>
					</g>
					<g>
						<path style="fill:#FFABAB;" d="M139.613,212.517c-0.275,0.627-1.604,0.683-2.968,0.125c-1.364-0.559-2.246-1.52-1.971-2.148
							c0.275-0.628,1.604-0.684,2.968-0.125C139.006,210.928,139.888,211.889,139.613,212.517z"/>
					</g>
					<g>
						<path style="fill:#FFFFFF;" d="M142.187,208.444c-2.35-0.097-5.651-0.39-8.827-1.21c-1.283-0.332-2.322,0.577-2.632,1.804
							c1.969,1.388,4.843,2.364,8.093,2.575c2.084,0.135,4.055-0.063,5.764-0.517C144.443,209.752,143.508,208.498,142.187,208.444z
							"/>
					</g>
				</g>
			</g>
		</g>
		<g>
			<g>
				<g>
					<path style="fill:#A56F62;" d="M180.739,321.771l-41.876-14.647c-4.121-1.441-6.293-5.95-4.851-10.071
						c1.441-4.121,5.95-6.293,10.071-4.851c0.221,0.077,0.449,0.17,0.659,0.264l40.394,18.344c2.972,1.35,4.288,4.854,2.938,7.826
						C186.8,321.438,183.59,322.759,180.739,321.771z"/>
				</g>
				<g>
					<path style="fill:#A56F62;" d="M123.649,248.855l25.459,47.057c2.174,4.019,0.679,9.04-3.34,11.214
						c-4.019,2.174-9.04,0.679-11.214-3.34c-0.012-0.023-0.046-0.086-0.058-0.109l-24.755-47.431
						c-2.012-3.856-0.518-8.613,3.338-10.625C116.898,243.628,121.604,245.081,123.649,248.855z"/>
				</g>
			</g>
			<g>
				<path style="fill:#A56F62;" d="M181.811,310.219c0.325-0.326,0.791-0.464,1.244-0.386c3.292,0.566,16.771,2.892,16.952,3.028
					c0.207,0.155,3.979,9.662,3.669,9.714c-0.31,0.051-21.03,0-21.03,0S173.733,318.323,181.811,310.219z"/>
				<path style="fill:#8C5C53;" d="M190.423,318.571c-1.368,1.394-2.665,0.863-3.276,0.466l-0.367-0.282c0,0-2.454,1.16-2.493,1.344
					c-0.005,0.025,0.023,0.113,0.064,0.224c-0.459,0.969-1.226,1.605-2.116,2.028c0.252,0.148,0.411,0.225,0.411,0.225
					s1.577,0.004,3.863,0.008l-1.254-2.301c0,0,0.232-0.499,1.852-1.151c0.337,0.348,0.897,0.82,1.51,0.895
					c-0.509,0.338-0.818,1.233-0.818,1.233c0.387-0.838,1.808-1.411,2.545,0.133c-0.4-0.899-0.771-1.313-1.1-1.444
					C189.656,319.783,190.065,319.374,190.423,318.571z"/>
				<g>
					<path style="fill:#8C5C53;" d="M200.223,322.597l-1.326-6.933l1.993,6.932C200.676,322.596,200.455,322.597,200.223,322.597z"
						/>
					<path style="fill:#8C5C53;" d="M194.535,322.596c-0.222,0-0.444-0.001-0.667-0.001l-1.326-6.931L194.535,322.596z"/>
					<path style="fill:#8C5C53;" d="M195.719,315.664l1.994,6.934c-0.219,0-0.442,0-0.667,0L195.719,315.664z"/>
				</g>
			</g>
			<path style="fill:#C62433;" d="M126.495,249.062l20.74,39.384l-17.987,9.352l-20.393-39.543
				c-2.543-4.931-0.56-10.99,4.407-13.462l0,0C118.101,242.384,123.977,244.28,126.495,249.062z"/>
		</g>
		<g>
			<g>
				<path style="fill:#EF3F1D;" d="M226.46,423.37l-0.104,12.049c0,0,12.552,0.21,16.228,16.82l-37.564-0.036V423.37H226.46z"/>
			</g>
			<path style="fill:#FFFFFF;" d="M225.501,431.003h-7.459c-1.106,0-2.002-0.896-2.002-2.002l0,0c0-1.106,0.896-2.002,2.002-2.002
				h7.459c1.106,0,2.002,0.897,2.002,2.002l0,0C227.503,430.106,226.607,431.003,225.501,431.003z"/>
			<path style="fill:#FFFFFF;" d="M225.501,436.81h-7.459c-1.106,0-2.002-0.897-2.002-2.003l0,0c0-1.106,0.896-2.002,2.002-2.002
				h7.459c1.106,0,2.002,0.896,2.002,2.002l0,0C227.503,435.913,226.607,436.81,225.501,436.81z"/>
			<path style="fill:#FFFFFF;" d="M235.215,439.091c-2.379,2.422-4.649,6.538-3.66,13.136l11.027,0.011
				C241.101,445.544,238.178,441.517,235.215,439.091z"/>
			
				<rect x="204.171" y="451.354" transform="matrix(-1 -1.224647e-16 1.224647e-16 -1 447.393 906.1067)" style="fill:#FFFFFF;" width="39.051" height="3.398"/>
		</g>
		<g>
			<g>
				<path style="fill:#EF3F1D;" d="M206.908,427.086l-0.104,12.049c0,0,12.552,0.21,16.228,16.819l-37.564-0.036v-28.833H206.908z"
					/>
			</g>
			<path style="fill:#FFFFFF;" d="M205.949,434.719h-7.459c-1.106,0-2.002-0.896-2.002-2.002l0,0c0-1.106,0.896-2.002,2.002-2.002
				h7.459c1.106,0,2.002,0.897,2.002,2.002l0,0C207.951,433.822,207.055,434.719,205.949,434.719z"/>
			<path style="fill:#FFFFFF;" d="M205.949,440.526h-7.459c-1.106,0-2.002-0.896-2.002-2.003l0,0c0-1.106,0.896-2.002,2.002-2.002
				h7.459c1.106,0,2.002,0.896,2.002,2.002l0,0C207.951,439.629,207.055,440.526,205.949,440.526z"/>
			<path style="fill:#FFFFFF;" d="M215.664,442.807c-2.379,2.422-4.649,6.538-3.66,13.136l11.027,0.011
				C221.549,449.26,218.626,445.233,215.664,442.807z"/>
			
				<rect x="184.619" y="455.07" transform="matrix(-1 -1.224647e-16 1.224647e-16 -1 408.2893 913.5386)" style="fill:#FFFFFF;" width="39.051" height="3.399"/>
		</g>
	</g>
	<g>
		<g>
			
				<rect x="591.475" y="359.4" transform="matrix(-1 -1.224647e-16 1.224647e-16 -1 1204.1956 785.086)" style="fill:#6B8AD6;" width="21.245" height="66.286"/>
			<path style="fill:#536EA5;" d="M612.72,375.623c-10.021-1.334-17.008,3.291-21.245,10.156V359.4h21.245V375.623z"/>
			<g>
				<path style="fill:#6B8AD6;" d="M595.076,318.991h38.407c12.028,0,21.778-9.75,21.778-21.778v-19.915
					c0-15.873-12.868-28.741-28.741-28.741h-24.481c-15.873,0-28.741,12.868-28.741,28.741v19.915
					C573.298,309.241,583.048,318.991,595.076,318.991z"/>
				<path style="fill:#B3CEFF;" d="M587.426,318.991h38.407c12.027,0,21.778-9.75,21.778-21.778v-19.915
					c0-15.873-12.868-28.741-28.741-28.741h-24.481c-15.873,0-28.741,12.868-28.741,28.741v19.915
					C565.648,309.241,575.398,318.991,587.426,318.991z"/>
			</g>
			<g>
				<path style="fill:#6B8AD6;" d="M581.073,369.189h60.63c5.888,0,10.661-4.773,10.661-10.661l0,0
					c0-5.888-4.773-10.661-10.661-10.661h-60.63c-5.888,0-10.661,4.773-10.661,10.661l0,0
					C570.412,364.416,575.185,369.189,581.073,369.189z"/>
				<path style="fill:#B3CEFF;" d="M571.555,369.189h48.702c5.888,0,10.661-4.773,10.661-10.661l0,0
					c0-5.888-4.773-10.661-10.661-10.661h-48.702c-5.888,0-10.661,4.773-10.661,10.661l0,0
					C560.894,364.416,565.667,369.189,571.555,369.189z"/>
			</g>
			<path style="fill:#6B8AD6;" d="M574.141,426.233h56.037c2.871,0,5.198-2.327,5.198-5.198v0c0-2.871-2.327-5.198-5.198-5.198
				h-56.037c-2.871,0-5.198,2.327-5.198,5.198l0,0C568.943,423.906,571.27,426.233,574.141,426.233z"/>
			<g>
				<path style="fill:#B3CEFF;" d="M610.144,431.756c0,3.05,2.473,5.523,5.523,5.523c3.05,0,5.523-2.473,5.523-5.523
					c0-3.05-2.473-5.523-5.523-5.523C612.617,426.233,610.144,428.706,610.144,431.756z"/>
				<path style="fill:#6B8AD6;" d="M613.837,431.756c0,3.05,2.473,5.523,5.523,5.523c3.05,0,5.523-2.473,5.523-5.523
					c0-3.05-2.473-5.523-5.523-5.523C616.31,426.233,613.837,428.706,613.837,431.756z"/>
			</g>
			<g>
				<path style="fill:#B3CEFF;" d="M593.045,431.756c0,3.05,2.473,5.523,5.523,5.523s5.523-2.473,5.523-5.523
					c0-3.05-2.473-5.523-5.523-5.523S593.045,428.706,593.045,431.756z"/>
				<path style="fill:#6B8AD6;" d="M596.739,431.756c0,3.05,2.473,5.523,5.523,5.523c3.05,0,5.523-2.473,5.523-5.523
					c0-3.05-2.473-5.523-5.523-5.523C599.211,426.233,596.739,428.706,596.739,431.756z"/>
			</g>
			<g>
				<path style="fill:#B3CEFF;" d="M575.947,431.756c0,3.05,2.473,5.523,5.523,5.523c3.05,0,5.523-2.473,5.523-5.523
					c0-3.05-2.473-5.523-5.523-5.523C578.419,426.233,575.947,428.706,575.947,431.756z"/>
				<path style="fill:#6B8AD6;" d="M579.64,431.756c0,3.05,2.473,5.523,5.523,5.523c3.05,0,5.523-2.473,5.523-5.523
					c0-3.05-2.473-5.523-5.523-5.523C582.113,426.233,579.64,428.706,579.64,431.756z"/>
			</g>
		</g>
	</g>
	<g>
		<g>
			<g>
				<path style="fill:none;stroke:#FFB692;stroke-width:11.0312;stroke-miterlimit:10;" d="M583.593,253.783
					c0,0-11.122,69.691-58.531,59.471"/>
				<path style="fill:#8F78FF;" d="M586.448,270.209l6.708-17.334c1.644-4.956-1.051-10.306-6.019-11.951h0
					c-4.968-1.645-10.329,1.039-11.972,5.994l-6.708,17.334L586.448,270.209z"/>
				<g>
					<path style="fill:#FFB692;" d="M531.47,314.352c2.932-6.999-7.849-9.36-7.849-9.36l-4.894-5.954c0,0-5.113,4.589,0.31,8.833
						c0,0-9.716-0.331-12.685,2.661c-1.394,1.405-1.607,9.088,0.191,12.802c0.381,0.788,1.329,1.103,2.106,0.701
						c1.867-0.964,5.771-2.514,9.998-1.398C524.537,324.194,533.151,323.034,531.47,314.352z"/>
					<path style="fill:#D88D87;" d="M519.038,307.871c0,0-0.555,5.619,5.617,7.883c0,0-5.082-2.941-5.178-7.863L519.038,307.871z"/>
					<path style="fill:#D88D87;" d="M519.423,319.122c0,0-1.936-4.147-1.525-8.71C517.898,310.412,514.789,314.253,519.423,319.122z
						"/>
					<g>
						<path style="fill:#D88D87;" d="M518.735,317.529l-0.191-0.32c0,0-7.721,0.797-12.35,5.282c0.044,0.122,0.09,0.241,0.137,0.358
							C508.254,321.341,513.042,318.047,518.735,317.529z"/>
						<path style="fill:#D88D87;" d="M517.4,312.543l0.127-0.589c0,0-7.611-1.537-12.187,2.132c-0.132,1.45-0.118,3.147,0.067,4.78
							c1.517-1.127,6.229-4.169,12.294-3.661l-0.01-0.463c0,0-7.652-1.573-12.228,3.24l-0.159-3.282
							C505.304,314.7,510.334,310.943,517.4,312.543z"/>
					</g>
				</g>
			</g>
			<g>
				<polyline style="fill:none;stroke:#353551;stroke-width:15.4312;stroke-miterlimit:10;" points="597.197,339.723 
					532.659,353.293 532.337,431.756 				"/>
			</g>
			<path style="fill:#3E3D5E;" d="M611.333,313.011h-8.845c-9.729,0-17.69,7.96-17.69,17.69l0,0c0,9.729,7.96,17.69,17.69,17.69
				h8.845c9.729,0,17.69-7.96,17.69-17.69l0,0C629.022,320.971,621.062,313.011,611.333,313.011z"/>
			<g>
				<polyline style="fill:none;stroke:#3E3D5E;stroke-width:15.4312;stroke-miterlimit:10;" points="614.344,339.723 
					549.806,353.293 549.806,435.234 				"/>
			</g>
			<g>
				<path style="fill:#8F78FF;" d="M579.144,324.529c-0.014,2.554,1.424,4.911,3.729,6.012c5.101,2.438,12.509,5.107,21.705,5.752
					c12.944,0.908,23.34-2.621,29.548-5.475c2.338-1.076,3.825-3.426,3.839-6c0.124-23.212,0.249-44.483,0.373-67.557
					c0.072-13.327-10.674-24.191-24.001-24.262l-12.159-0.064c-12.445-0.066-22.587,9.969-22.653,22.413L579.144,324.529z"/>
			</g>
			<g>
				<path style="fill:#FFFFFF;" d="M604.146,262.074c0.905,0,1.639-0.734,1.639-1.639c0-0.905-0.734-1.639-1.639-1.639
					c-0.905,0-1.639,0.734-1.639,1.639C602.507,261.34,603.241,262.074,604.146,262.074z"/>
				<path style="fill:#FFFFFF;" d="M604.146,265.086c-0.905,0-1.639,0.734-1.639,1.639c0,0.905,0.734,1.639,1.639,1.639
					c0.905,0,1.639-0.734,1.639-1.639C605.785,265.82,605.051,265.086,604.146,265.086z"/>
				<path style="fill:#FFFFFF;" d="M604.146,271.377c-0.905,0-1.639,0.734-1.639,1.639c0,0.905,0.734,1.639,1.639,1.639
					c0.905,0,1.639-0.734,1.639-1.639C605.785,272.11,605.051,271.377,604.146,271.377z"/>
			</g>
			<g>
				<path style="fill:#FFB692;" d="M607.072,197.218h0.961c6.161,0,11.155,4.994,11.155,11.155v30.542h-23.27v-30.542
					C595.917,202.212,600.911,197.218,607.072,197.218z"/>
				<path style="fill:#D88D87;" d="M595.917,208.373c0-6.161,4.994-11.155,11.155-11.155h0.961c6.161,0,11.155,4.994,11.155,11.155
					v19.564c-3.824,3.181-8.401,4.504-11.084,4.504h0c-4.012,0-8.645-1.375-12.186-4.895V208.373z"/>
				<g>
					<path style="fill:#252538;" d="M607.362,155.143c-1.587-0.009-3.258-1.578-4.786-1.369c-1.566,0.215-2.75,2.181-4.238,2.608
						c-1.514,0.435-3.561-0.599-4.977,0.04c-1.432,0.646-2.011,2.867-3.325,3.703c-1.322,0.841-3.578,0.427-4.763,1.443
						c-1.187,1.018-1.12,3.312-2.151,4.488c-1.029,1.173-3.312,1.408-4.167,2.72c-0.85,1.305-0.143,3.486-0.804,4.911
						c-0.654,1.409-2.778,2.277-3.23,3.786c-0.443,1.483,0.852,3.374,0.621,4.938c-0.226,1.525-2.019,2.958-2.028,4.545
						c-0.009,1.587,1.769,3.038,1.979,4.566c0.215,1.566-1.102,3.443-0.674,4.931c0.435,1.514,2.551,2.405,3.189,3.821
						c0.646,1.432-0.085,3.606,0.751,4.919c0.841,1.322,3.122,1.58,4.138,2.765c1.018,1.187,0.927,3.48,2.103,4.51
						c1.173,1.029,3.434,0.639,4.747,1.494c1.305,0.85,1.861,3.077,3.285,3.738c1.409,0.654,3.466-0.358,4.975,0.093
						c1.483,0.443,2.646,2.422,4.21,2.654c1.526,0.226,3.213-1.326,4.8-1.317c1.587,0.008,3.258,1.578,4.786,1.369
						c1.566-0.215,2.75-2.181,4.238-2.608c1.514-0.435,3.561,0.599,4.977-0.04c1.431-0.646,2.011-2.867,3.325-3.703
						c1.322-0.841,3.578-0.427,4.763-1.443c1.187-1.018,1.12-3.312,2.151-4.488c1.029-1.173,3.312-1.408,4.167-2.72
						c0.85-1.305,0.143-3.486,0.804-4.911c0.654-1.409,2.779-2.277,3.23-3.786c0.444-1.483-0.852-3.374-0.621-4.938
						c0.226-1.526,2.019-2.958,2.028-4.545c0.009-1.587-1.769-3.038-1.979-4.566c-0.215-1.566,1.101-3.443,0.674-4.931
						c-0.435-1.514-2.551-2.405-3.189-3.821c-0.646-1.431,0.085-3.606-0.751-4.919c-0.841-1.322-3.122-1.58-4.138-2.765
						c-1.018-1.187-0.927-3.48-2.103-4.51c-1.173-1.029-3.434-0.638-4.747-1.494c-1.305-0.85-1.861-3.077-3.285-3.738
						c-1.409-0.654-3.466,0.358-4.975-0.093c-1.483-0.443-2.646-2.422-4.21-2.654C610.636,153.6,608.949,155.152,607.362,155.143z"
						/>
				</g>
				<g>
					<g>
						<path style="fill:#D88D87;" d="M584.638,205.842l47.335,0.054c2.32,0.002,4.203-1.877,4.206-4.197l0,0
							c0.002-2.32-1.877-4.203-4.197-4.206l-47.335-0.054c-2.321-0.002-4.203,1.877-4.206,4.197l0,0
							C580.438,203.956,582.317,205.839,584.638,205.842z"/>
						<path style="fill:#9E6461;" d="M632.315,204.115c1.2-0.165,2.105-1.204,2.106-2.418c0.001-1.348-1.094-2.445-2.441-2.446
							l-47.336-0.054c-0.114,0-0.229,0.007-0.34,0.023c-1.2,0.165-2.105,1.204-2.106,2.418c-0.001,1.348,1.094,2.445,2.441,2.446
							l47.335,0.054C632.089,204.138,632.203,204.13,632.315,204.115z"/>
					</g>
					<path style="fill:#FFB692;" d="M607.198,231.244L607.198,231.244c5.317,0,17.409-4.717,19.191-17.65l3.983-24.082
						c0-12.27-9.947-22.217-22.217-22.217h-1.914c-12.27,0-22.217,9.947-22.217,22.217l3.983,24.082
						C590.033,226.849,599.635,231.244,607.198,231.244z"/>
					<path style="fill:#D88D87;" d="M584.126,187.407l45.088-4.969c-1.296-3.86-3.622-7.245-6.653-9.831h-30.727
						C587.558,176.255,584.683,181.492,584.126,187.407z"/>
					<g>
						<g>
							<path style="fill:#FFFFFF;" d="M588.595,198.103c0,2.925,2.253,4.486,5.032,4.486c2.779,0,5.032-1.56,5.032-4.486
								c0-2.925-2.253-4.353-5.032-4.353C590.848,193.75,588.595,195.178,588.595,198.103z"/>
							<g>
								<path style="fill:#252538;" d="M598.502,198.103c-0.116-1.215-0.64-2.342-1.582-2.989c-0.927-0.661-2.116-0.927-3.293-0.914
									c-1.179-0.02-2.365,0.255-3.296,0.91c-0.942,0.649-1.468,1.777-1.579,2.993h-0.313c-0.061-0.643,0.017-1.312,0.244-1.948
									c0.24-0.63,0.652-1.208,1.18-1.646c1.069-0.886,2.46-1.182,3.765-1.21c1.306,0.022,2.696,0.326,3.768,1.206
									c0.528,0.438,0.938,1.018,1.18,1.648c0.225,0.638,0.304,1.307,0.24,1.95H598.502z"/>
							</g>
							<path style="fill:#252538;" d="M592.609,194.406c2.039,0.002,3.69,1.657,3.688,3.695c-0.002,2.039-1.656,3.69-3.695,3.688
								c-2.039-0.002-3.69-1.657-3.688-3.695C588.915,196.055,590.57,194.404,592.609,194.406z"/>
						</g>
					</g>
					<g>
						<g>
							<path style="fill:#FFFFFF;" d="M618.893,198.103c0,2.925-2.253,4.486-5.032,4.486c-2.779,0-5.032-1.56-5.032-4.486
								c0-2.925,2.253-4.353,5.032-4.353C616.64,193.75,618.893,195.178,618.893,198.103z"/>
							<g>
								<path style="fill:#252538;" d="M608.673,198.103c-0.063-0.643,0.015-1.312,0.24-1.95c0.242-0.629,0.652-1.21,1.18-1.648
									c1.073-0.881,2.462-1.185,3.768-1.206c1.305,0.029,2.697,0.324,3.765,1.21c0.527,0.437,0.94,1.016,1.18,1.646
									c0.226,0.636,0.305,1.305,0.244,1.948h-0.313c-0.112-1.215-0.637-2.343-1.579-2.993c-0.931-0.655-2.117-0.93-3.296-0.91
									c-1.177-0.013-2.366,0.253-3.293,0.914c-0.942,0.647-1.467,1.774-1.582,2.989H608.673z"/>
							</g>
							<path style="fill:#252538;" d="M612.558,194.406c-2.039,0.002-3.69,1.657-3.688,3.695c0.002,2.039,1.656,3.69,3.695,3.688
								c2.039-0.002,3.69-1.657,3.688-3.695C616.251,196.055,614.597,194.404,612.558,194.406z"/>
						</g>
					</g>
					<g>
						<path style="fill:#BA726E;" d="M607.554,206.828h-7.636c-0.359,0-0.649,0.291-0.649,0.65v0c0,2.461,2,4.456,4.467,4.456l0,0
							c2.467,0,4.467-1.995,4.467-4.456v0C608.203,207.119,607.912,206.828,607.554,206.828z"/>
						<g>
							<path style="fill:#D88D87;" d="M603.736,212.275L603.736,212.275c1.333,0,2.414-1.081,2.414-2.414v-11.113
								c0-1.333-1.081-2.414-2.414-2.414l0,0c-1.333,0-2.414,1.081-2.414,2.414v11.113
								C601.322,211.194,602.402,212.275,603.736,212.275z"/>
						</g>
					</g>
					<g>
						<path style="fill:#2B2B3A;" d="M589.446,189.706c0.841-0.266,7.743-0.619,8.053-0.619c0.31,0,1.151,2.434,1.151,2.434
							s-8.849-0.442-9.292,0c-0.443,0.443-3.009,2.787-3.009,2.655C586.349,194.042,588.606,189.971,589.446,189.706z"/>
						<path style="fill:#2B2B3A;" d="M609.972,189.086c0.31,0,7.212,0.354,8.053,0.619c0.84,0.266,3.097,4.336,3.097,4.469
							c0,0.133-2.566-2.212-3.009-2.655c-0.442-0.442-9.292,0-9.292,0S609.663,189.086,609.972,189.086z"/>
					</g>
					<g>
						<g>
							<path style="fill:#252538;" d="M600.779,213.929c2.068-0.085,4.973-0.343,7.767-1.065c1.838-0.475,3.115,1.939,1.963,3.755
								c-1.226,1.932-3.189,3.649-6.287,3.567c-2.539-0.068-4.067-0.915-4.984-1.963
								C597.94,216.738,598.936,214.005,600.779,213.929z"/>
						</g>
						<g>
							<path style="fill:#FF9292;" d="M604.222,220.186c3.097,0.082,5.061-1.635,6.287-3.567c0.172-0.272,0.284-0.558,0.354-0.846
								c-1.033-0.616-2.462-0.981-4.457-0.781c-3.081,0.31-4.795,2.262-5.749,4.333c-0.002,0.004-0.003,0.008-0.004,0.012
								C601.536,219.818,602.693,220.145,604.222,220.186z"/>
						</g>
						<g>
							<path style="fill:#FFABAB;" d="M603.044,217.513c0.242,0.552,1.411,0.601,2.611,0.11c1.2-0.492,1.977-1.338,1.734-1.89
								c-0.242-0.552-1.411-0.601-2.612-0.11C603.578,216.115,602.802,216.96,603.044,217.513z"/>
						</g>
						<g>
							<path style="fill:#FFFFFF;" d="M600.779,213.929c2.068-0.085,4.973-0.343,7.767-1.065c1.129-0.292,2.043,0.508,2.316,1.587
								c-1.733,1.222-4.262,2.081-7.122,2.266c-1.834,0.119-3.568-0.055-5.072-0.455
								C598.794,215.08,599.617,213.977,600.779,213.929z"/>
						</g>
					</g>
				</g>
				<g>
					<path style="fill:#252538;" d="M602.541,165.796l6.039-0.164c12.515-0.339,22.935,9.531,23.274,22.046l0.046,1.715
						c0.005,0.18,0.003,0.359-0.007,0.536c-0.181,3.403-5.323,3.227-5.416-0.179l-0.022-0.827
						c-0.163-6.018-5.174-10.764-11.191-10.601l-18.711,0.507c-6.018,0.163-10.763,5.173-10.601,11.191l0.022,0.827
						c0.092,3.406-5.033,3.86-5.398,0.472c-0.019-0.176-0.031-0.354-0.036-0.534l-0.046-1.715
						C580.156,176.554,590.026,166.134,602.541,165.796z"/>
				</g>
			</g>
			<g>
				<g>
					<path style="fill:#8F78FF;" d="M519.543,423.37l0.104,12.049c0,0-12.552,0.21-16.228,16.82l37.564-0.036V423.37H519.543z"/>
				</g>
				<path style="fill:#FFFFFF;" d="M520.502,431.003h7.459c1.106,0,2.002-0.896,2.002-2.002l0,0c0-1.106-0.896-2.002-2.002-2.002
					h-7.459c-1.106,0-2.002,0.897-2.002,2.002l0,0C518.499,430.106,519.396,431.003,520.502,431.003z"/>
				<path style="fill:#FFFFFF;" d="M520.502,436.81h7.459c1.106,0,2.002-0.897,2.002-2.003l0,0c0-1.106-0.896-2.002-2.002-2.002
					h-7.459c-1.106,0-2.002,0.896-2.002,2.002l0,0C518.499,435.913,519.396,436.81,520.502,436.81z"/>
				<path style="fill:#FFFFFF;" d="M510.787,439.091c2.379,2.422,4.649,6.538,3.66,13.136l-11.027,0.011
					C504.902,445.544,507.825,441.517,510.787,439.091z"/>
				<rect x="502.78" y="451.354" style="fill:#FFFFFF;" width="39.051" height="3.398"/>
			</g>
			<g>
				<g>
					<path style="fill:#8F78FF;" d="M539.095,427.086l0.104,12.049c0,0-12.552,0.21-16.228,16.819l37.564-0.036v-28.833H539.095z"/>
				</g>
				<path style="fill:#FFFFFF;" d="M540.054,434.719h7.459c1.106,0,2.002-0.896,2.002-2.002l0,0c0-1.106-0.896-2.002-2.002-2.002
					h-7.459c-1.106,0-2.002,0.897-2.002,2.002l0,0C538.051,433.822,538.948,434.719,540.054,434.719z"/>
				<path style="fill:#FFFFFF;" d="M540.054,440.526h7.459c1.106,0,2.002-0.896,2.002-2.003l0,0c0-1.106-0.896-2.002-2.002-2.002
					h-7.459c-1.106,0-2.002,0.896-2.002,2.002l0,0C538.051,439.629,538.948,440.526,540.054,440.526z"/>
				<path style="fill:#FFFFFF;" d="M530.339,442.807c2.379,2.422,4.649,6.538,3.66,13.136l-11.027,0.011
					C524.453,449.26,527.377,445.233,530.339,442.807z"/>
				<rect x="522.332" y="455.07" style="fill:#FFFFFF;" width="39.051" height="3.399"/>
			</g>
		</g>
		
			<rect x="483.585" y="277.884" transform="matrix(0.9899 -0.1419 0.1419 0.9899 -38.0409 74.1628)" style="fill:#EF3F1D;" width="34.471" height="51.687"/>
		<polygon style="fill:#FFB692;" points="595.917,238.915 608.203,257.181 619.187,238.915 606.91,236.15 		"/>
		<path style="fill:#6C5ED3;" d="M622.741,278.897L622.741,278.897c-4.214,0-7.63-3.416-7.63-7.63v-11.97h15.261v11.97
			C630.371,275.48,626.955,278.897,622.741,278.897z"/>
		<g>
			<path style="fill:none;stroke:#FFB692;stroke-width:11.0312;stroke-miterlimit:10;" d="M637.447,251.48
				c4.589,35.423-33.356,59.299-89.86,29.735"/>
			<path style="fill:#8F78FF;" d="M645.019,271.18l4.279-18.087c0.952-5.134-2.449-10.066-7.595-11.017h0
				c-5.146-0.951-10.09,2.439-11.042,7.573l-4.279,18.087L645.019,271.18z"/>
		</g>
		<g>
			<g>
				<path style="fill:#FFB692;" d="M552.781,284.738c6.638-4.218-1.134-12.61-1.134-12.61l-0.638-7.963c0,0-7.067,0.876-4.967,7.698
					c0,0-6.212-3.458-8.419-8.296c-2.694-5.905-10.664,7.164-9.83,13.701c0.453,3.551,5.755,4.052,8.69,7.505
					C540.572,289.585,549.07,293.119,552.781,284.738z"/>
			</g>
			<g>
				<path style="fill:#D88D87;" d="M540.304,277.754l-0.285,0.506c0,0-7.097-2.921-10.928-8.073
					c0.129-0.327,0.264-0.652,0.407-0.973C530.843,271.423,533.87,275.02,540.304,277.754z"/>
				<path style="fill:#D88D87;" d="M537.928,281.337c0,0-6.428-2.566-10.137-6.156c0.035-0.352,0.089-0.713,0.154-1.079
					c1.549,1.563,4.922,4.483,10.3,6.701L537.928,281.337z"/>
				<path style="fill:#D88D87;" d="M542.519,274.463c0,0-7.328-2.757-10.518-9.574c0.296-0.393,0.598-0.755,0.9-1.079
					c1.168,2.701,3.857,7.068,9.793,10.294L542.519,274.463z"/>
			</g>
		</g>
	</g>
	<g>
		<polygon style="fill:#B3CEFF;" points="260.728,321.725 200.639,321.717 213.187,279.466 273.214,279.466 		"/>
		<polygon style="fill:#FFFFFF;" points="245.057,304.263 235.554,304.263 241.15,298.667 		"/>
		<rect x="172.849" y="321.71" style="fill:#536EA5;" width="87.874" height="3.001"/>
		<rect x="200.641" y="321.71" style="fill:#B3CEFF;" width="60.082" height="3.001"/>
		<polygon style="fill:#536EA5;" points="213.187,279.466 210.906,279.466 198.18,321.845 200.641,321.71 		"/>
	</g>
	<g>
		<polygon style="fill:#A0B8E8;" points="588.724,337.146 576.604,335.465 595.87,461.575 601.337,461.575 		"/>
		<polygon style="fill:#A0B8E8;" points="187.051,337.146 199.17,335.465 179.905,461.575 174.437,461.575 		"/>
		<g>
			<rect x="173.158" y="335.465" style="fill:#D9E6FF;" width="429.972" height="10.703"/>
			<rect x="173.158" y="335.465" style="fill:#A0B8E8;" width="429.972" height="3.545"/>
			<path style="fill:#E8A060;" d="M614.351,335.919H161.938v-6.931c0-2.585,2.096-4.68,4.68-4.68h443.053
				c2.585,0,4.68,2.095,4.68,4.68V335.919z"/>
			<rect x="161.938" y="331.731" style="fill:#AD7B55;" width="452.413" height="4.188"/>
		</g>
		<g>
			<polygon style="fill:#D9E6FF;" points="160.545,470.596 166.012,470.596 185.278,344.486 173.158,346.167 			"/>
			<polygon style="fill:#D9E6FF;" points="603.17,346.167 591.05,344.486 610.316,470.596 615.783,470.596 			"/>
		</g>
	</g>
	<g>
		<g>
			<g>
				<g>
					<rect x="431.32" y="299.043" style="fill:#B3CEFF;" width="0.482" height="14.974"/>
				</g>
				<g>
					<path style="fill:#B3CEFF;" d="M433.597,313.695c0,1.125-0.911,2.036-2.036,2.036c-1.124,0-2.036-0.911-2.036-2.036
						c0-1.124,0.912-2.036,2.036-2.036C432.686,311.659,433.597,312.571,433.597,313.695z"/>
				</g>
			</g>
			<g>
				<g>
					<rect x="437.375" y="299.043" style="fill:#B3CEFF;" width="0.482" height="14.974"/>
				</g>
				<g>
					<path style="fill:#B3CEFF;" d="M439.652,313.695c0,1.125-0.912,2.036-2.036,2.036c-1.125,0-2.036-0.911-2.036-2.036
						c0-1.124,0.912-2.036,2.036-2.036C438.74,311.659,439.652,312.571,439.652,313.695z"/>
				</g>
			</g>
			<g>
				<g>
					<rect x="443.429" y="299.043" style="fill:#B3CEFF;" width="0.482" height="14.974"/>
				</g>
				<g>
					<path style="fill:#B3CEFF;" d="M445.707,313.695c0,1.125-0.912,2.036-2.036,2.036c-1.125,0-2.036-0.911-2.036-2.036
						c0-1.124,0.912-2.036,2.036-2.036C444.795,311.659,445.707,312.571,445.707,313.695z"/>
				</g>
			</g>
			<g>
				<g>
					<rect x="449.484" y="299.043" style="fill:#B3CEFF;" width="0.482" height="14.974"/>
				</g>
				<g>
					<path style="fill:#B3CEFF;" d="M451.761,313.695c0,1.125-0.912,2.036-2.036,2.036c-1.124,0-2.036-0.911-2.036-2.036
						c0-1.124,0.912-2.036,2.036-2.036C450.85,311.659,451.761,312.571,451.761,313.695z"/>
				</g>
			</g>
			<g>
				<g>
					<rect x="455.539" y="299.043" style="fill:#B3CEFF;" width="0.482" height="14.974"/>
				</g>
				<g>
					<path style="fill:#B3CEFF;" d="M457.816,313.695c0,1.125-0.911,2.036-2.036,2.036c-1.124,0-2.036-0.911-2.036-2.036
						c0-1.124,0.912-2.036,2.036-2.036C456.904,311.659,457.816,312.571,457.816,313.695z"/>
				</g>
			</g>
			<g>
				<g>
					<rect x="461.593" y="299.043" style="fill:#B3CEFF;" width="0.482" height="14.974"/>
				</g>
				<g>
					<path style="fill:#B3CEFF;" d="M463.87,313.695c0,1.125-0.912,2.036-2.036,2.036c-1.124,0-2.036-0.911-2.036-2.036
						c0-1.124,0.912-2.036,2.036-2.036C462.959,311.659,463.87,312.571,463.87,313.695z"/>
				</g>
			</g>
		</g>
		<g>
			<polygon style="fill:#B3CEFF;" points="420.826,295.047 420.826,324.308 426.955,324.308 426.955,300.693 466.441,300.693 
				466.441,324.308 472.569,324.308 472.569,295.047 			"/>
		</g>
	</g>
</g>
</svg>
