<svg xmlns="http://www.w3.org/2000/svg" xml:space="preserve" viewBox="0 0 750 500"><path d="M0 0h750v500H0z" style="fill:#fff"/><path d="M0 427.35h750V500H0z" style="fill:#e9f2ff"/><ellipse cx="363.198" cy="460.479" rx="299.467" ry="19.536" style="fill:#d7e7ff"/><path d="M81.162 53.89H183.45v82.432H81.162zM201.407 53.89h102.288v82.432H201.407zM81.162 151.876H183.45v82.432H81.162zM201.407 151.876h102.288v82.432H201.407z" style="fill:#ebf3ff"/><path d="M227.092 87.824h-59.154c-5.469 0-9.902 4.433-9.902 9.902v49.191c0 5.469 4.433 9.902 9.902 9.902h2.951v7.349l7.349-7.349h48.853c5.469 0 9.902-4.433 9.902-9.902v-49.19c.002-5.469-4.432-9.903-9.901-9.903" style="fill:#8f78ff"/><path d="M197.515 100.951c-11.803 0-21.371 9.568-21.371 21.371s9.568 21.371 21.371 21.371 21.372-9.568 21.372-21.371-9.568-21.371-21.372-21.371m18.466 21.371c0 2.11-.371 4.128-1.023 6.017a39.7 39.7 0 0 0-3.047-6.453c.94-2.39 1.644-5.043 2.029-7.973a18.35 18.35 0 0 1 2.041 8.409m-4.097-11.584c-.16 3.22-.705 6.114-1.538 8.698-2.569-3.705-6.23-7.556-11.361-10.375 3.296-1.811 6.098-2.683 7.278-3a18.5 18.5 0 0 1 5.621 4.677m-6.475 21.414 4.284 4.026a18.4 18.4 0 0 1-2.871 2.074 35 35 0 0 1-6.255-1.784 36.3 36.3 0 0 0 4.842-4.316m-7.223 3.279c-6.252-3.071-10.259-7.678-12.809-11.99a29.6 29.6 0 0 1 3.949-6.403l14.455 13.585a33.3 33.3 0 0 1-5.595 4.808m-8.953-21.68-4.773-4.486a18.6 18.6 0 0 1 2.074-1.762c2.852.368 5.415 1.027 7.716 1.903a35.2 35.2 0 0 0-5.017 4.345m-1.549 1.743a32 32 0 0 0-3.644 5.468c-1.564-3.212-2.337-6.025-2.681-7.573.461-.831.992-1.616 1.571-2.362zm3.178-.212a32.4 32.4 0 0 1 5.822-4.84c6.118 2.959 10.125 7.462 12.694 11.566a29.6 29.6 0 0 1-4.08 6.841zm12.175-10.584a39.6 39.6 0 0 0-6.461 3.172 34 34 0 0 0-6.961-2.218 18.35 18.35 0 0 1 7.9-1.794 18.5 18.5 0 0 1 5.522.84m-23.125 12.047a39.8 39.8 0 0 0 2.924 6.738c-.853 2.027-1.534 4.261-2.012 6.696a18.36 18.36 0 0 1-.912-13.434m2.78 16.555c.317-2.676.886-5.108 1.654-7.304 2.573 3.921 6.29 7.923 11.603 10.855-2.355 1.373-4.343 2.176-5.414 2.561a18.5 18.5 0 0 1-7.843-6.112M194 140.444a40 40 0 0 0 4.31-2.41 35 35 0 0 0 5.029 1.802 18.4 18.4 0 0 1-5.824.952 18.7 18.7 0 0 1-3.515-.344m17.344-5.914-4.409-4.143a32.2 32.2 0 0 0 3.836-5.945c1.809 3.472 2.566 6.295 2.75 7.062a18.5 18.5 0 0 1-2.177 3.026" style="fill:#fff"/><path d="M407.79 39.509h166.635V248.69H407.79z" style="fill:#d7e7ff"/><path d="M487.363 248.689h7.49v186.029h-7.49z" style="fill:#d7e7ff" transform="rotate(-180 491.108 341.704)"/><path d="M454.174 429.887h73.868v5.348h-73.868z" style="fill:#d7e7ff" transform="rotate(-180 491.108 432.56)"/><path d="M414.678 49.35v89.111h145.523" style="fill:none;stroke:#b3ceff;stroke-width:1.9289;stroke-miterlimit:10"/><path d="M421.312 66.21h16.435v64.609h-16.435zM446.698 94.167h16.435v36.652h-16.435zM472.084 57.514h16.435v73.305h-16.435zM497.47 72.368h16.435v58.452H497.47zM522.857 49.35h16.435v81.47h-16.435zM548.243 66.21h16.435v64.609h-16.435z" style="fill:#fff"/><path d="m429.529 66.21 25.386 28.35 26.22-37.046 24.553 14.854 25.386-23.018 25.387 16.86" style="fill:none;stroke:#ff5050;stroke-width:1.1726;stroke-miterlimit:10"/><path d="M431.496 66.21a1.967 1.967 0 1 1-3.935 0 1.967 1.967 0 0 1 3.935 0M456.882 94.167a1.967 1.967 0 1 1-3.934 0 1.967 1.967 0 0 1 3.934 0M483.102 57.514a1.967 1.967 0 1 1-3.935 0 1.967 1.967 0 0 1 3.935 0M507.655 72.368a1.967 1.967 0 1 1-3.934 0 1.967 1.967 0 0 1 3.934 0M533.041 49.35a1.967 1.967 0 1 1-3.934 0 1.967 1.967 0 0 1 3.934 0M558.427 66.21a1.967 1.967 0 1 1-3.934 0 1.967 1.967 0 0 1 3.934 0M492.498 196.742h40.93c0 22.454-18.477 40.93-40.93 40.93-22.454 0-40.93-18.477-40.93-40.93 0-22.454 18.477-40.93 40.93-40.93a40.94 40.94 0 0 1 18.122 4.23zM321.868 242.279h14.531c10.719 0 19.488 8.748 19.488 19.44s-8.769 19.44-19.488 19.44h-14.531c-10.719 0-19.488-8.748-19.488-19.44s8.769-19.44 19.488-19.44" style="fill:#b3ceff"/><path d="M359.355 253.323c.014 2.583-1.441 4.967-3.772 6.08-5.159 2.466-12.652 5.166-21.953 5.818-13.091.919-23.607-2.651-29.886-5.538-2.365-1.088-3.869-3.466-3.883-6.069-.126-23.478-.251-44.992-.377-68.329-.073-13.479 10.797-24.468 24.275-24.54l12.298-.065c12.587-.067 22.845 10.083 22.912 22.67z" style="fill:#343456"/><path d="M329.921 124.555h-.972c-6.231 0-11.282 5.051-11.282 11.282v30.892h23.536v-30.892c0-6.23-5.051-11.282-11.282-11.282" style="fill:#ffb692"/><path d="M315.756 167.926c0 3.163 6.288 5.727 14.045 5.727s14.045-2.564 14.045-5.727-6.288-5.727-14.045-5.727-14.045 2.564-14.045 5.727" style="fill:#ffb692"/><path d="M341.203 135.838c0-6.231-5.051-11.282-11.282-11.282h-.972c-6.231 0-11.282 5.051-11.282 11.282v19.788c3.868 3.217 8.497 4.555 11.211 4.555 4.058 0 8.744-1.391 12.326-4.951v-19.392z" style="fill:#d88d87"/><circle cx="329.284" cy="113.365" r="28.12" style="fill:#54321a" transform="rotate(-58.944 329.271 113.36)"/><path d="M306.919 128.309h44.729a3.543 3.543 0 1 0 0-7.086h-44.729a3.543 3.543 0 0 0 0 7.086" style="fill:#d88d87"/><path d="M353.337 124.766c0-.933-.756-1.688-1.688-1.688H306.92a1.689 1.689 0 0 0 .001 3.377h44.729a1.69 1.69 0 0 0 1.687-1.689" style="fill:#aa635f"/><path d="M329.284 158.143c10.923 0 19.779-8.855 19.779-19.779v-21.96c0-10.472-8.49-18.962-18.962-18.962h-1.633c-10.472 0-18.962 8.49-18.962 18.962v21.96c-.001 10.923 8.854 19.779 19.778 19.779" style="fill:#54321a"/><path d="M329.284 152.565c10.923 0 19.779-8.855 19.779-19.779v-21.96c0-10.472-8.49-18.962-18.962-18.962h-1.633c-10.472 0-18.962 8.489-18.962 18.962v21.96c-.001 10.924 8.854 19.779 19.778 19.779" style="fill:#ffb692"/><path d="M349.063 103.652v2.32l-39.557 3.484v-5.804a19 19 0 0 1 .727-5.15h38.103a19 19 0 0 1 .727 5.15" style="fill:#d88d87"/><path d="M339.49 91.216h-19.378c-8.665 0-15.689 9.328-15.689 20.834 3.324 0 6.603-.777 9.574-2.268l7.774-3.902s-1.692 3.777-5.557 6.114c6.236-.568 11.467-5.974 13.587-13.411 2.12 7.438 7.351 12.844 13.587 13.411-3.865-2.338-5.557-6.114-5.557-6.114l7.774 3.902a21.35 21.35 0 0 0 9.574 2.268c0-11.507-7.024-20.834-15.689-20.834" style="fill:#54321a"/><path d="M346.776 93.599c-4.605 2.941-10.519 4.712-16.975 4.712s-12.37-1.771-16.975-4.712c-1.513 1.056-2.879 2.43-4.049 4.055 4.245 4.207 10.575 7.103 17.801 7.775 1.385-1.967 2.493-4.281 3.224-6.846.731 2.565 1.839 4.879 3.224 6.846 7.226-.672 13.556-3.568 17.801-7.775-1.173-1.625-2.538-2.999-4.051-4.055" style="fill:#875330"/><path d="M343.594 123.011c0 2.665-2.052 4.086-4.584 4.086s-4.584-1.421-4.584-4.086 2.052-3.966 4.584-3.966 4.584 1.301 4.584 3.966" style="fill:#fff"/><path d="M334.283 123.011a4.1 4.1 0 0 1 .219-1.776 3.7 3.7 0 0 1 1.075-1.501c.973-.81 2.241-1.093 3.433-1.1 1.191.01 2.46.293 3.43 1.103.48.398.856.925 1.075 1.499a4.1 4.1 0 0 1 .222 1.775h-.285c-.101-1.107-.58-2.135-1.439-2.726-.851-.594-1.931-.831-3.003-.828-1.071.001-2.151.237-3 .832-.858.59-1.336 1.616-1.441 2.723z" style="fill:#252538"/><path d="M339.558 119.271a3.363 3.363 0 1 0 .007 6.725 3.363 3.363 0 0 0-.007-6.725" style="fill:#252538"/><path d="M315.993 123.011c0 2.665 2.052 4.086 4.584 4.086s4.584-1.421 4.584-4.086-2.052-3.966-4.584-3.966-4.584 1.301-4.584 3.966" style="fill:#fff"/><path d="M325.018 123.011c-.105-1.107-.583-2.133-1.441-2.723-.849-.595-1.929-.831-3-.832-1.072-.002-2.152.234-3.003.828-.858.592-1.337 1.619-1.439 2.726h-.285a4.1 4.1 0 0 1 .222-1.775 3.65 3.65 0 0 1 1.075-1.499c.97-.81 2.239-1.093 3.43-1.103 1.192.007 2.46.29 3.433 1.1.481.399.854.928 1.075 1.501.205.581.277 1.19.219 1.776z" style="fill:#252538"/><path d="M321.384 119.271a3.363 3.363 0 1 1-.009 6.725 3.363 3.363 0 0 1 .009-6.725" style="fill:#252538"/><path d="M326.323 130.959h6.956c.327 0 .592.265.592.592a4.064 4.064 0 0 1-4.07 4.059 4.064 4.064 0 0 1-4.07-4.059c0-.327.265-.592.592-.592" style="fill:#ba726e"/><path d="M329.801 135.921a2.2 2.2 0 0 1-2.199-2.199v-10.124a2.198 2.198 0 1 1 4.398 0v10.124a2.2 2.2 0 0 1-2.199 2.199" style="fill:#d88d87"/><path d="M342.818 115.361c-.766-.242-7.054-.564-7.336-.564s-1.048 2.217-1.048 2.217 8.061-.403 8.464 0 2.741 2.539 2.741 2.418c.001-.121-2.055-3.829-2.821-4.071M324.119 114.797c-.282 0-6.57.322-7.336.564s-2.822 3.95-2.822 4.071 2.338-2.015 2.741-2.418 8.464 0 8.464 0-.765-2.217-1.047-2.217" style="fill:#54321a"/><path d="M332.494 137.428c-1.884-.078-4.53-.313-7.076-.97-1.675-.432-2.837 1.766-1.788 3.421 1.117 1.76 2.905 3.324 5.727 3.249 2.313-.062 3.705-.833 4.54-1.789 1.183-1.352.277-3.842-1.403-3.911" style="fill:#252538"/><path d="M329.357 143.128c-2.822.075-4.61-1.489-5.727-3.249a2.6 2.6 0 0 1-.323-.77c.941-.562 2.243-.894 4.06-.711 2.806.283 4.368 2.061 5.237 3.947l.004.012c-.803.436-1.857.733-3.251.771" style="fill:#ff9292"/><path d="M330.431 140.693c-.221.503-1.286.548-2.379.1s-1.801-1.219-1.58-1.722 1.286-.548 2.379-.1 1.801 1.219 1.58 1.722" style="fill:#ffabab"/><path d="M332.494 137.428c-1.884-.078-4.53-.313-7.076-.97-1.028-.266-1.861.462-2.11 1.446 1.578 1.113 3.883 1.895 6.488 2.064 1.67.108 3.251-.05 4.621-.415-.114-1.076-.864-2.082-1.923-2.125" style="fill:#fff"/><path d="M334.972 331.191h11.726v91.859h-11.726z" style="fill:#8f78ff" transform="rotate(-180 340.835 377.12)"/><path d="M331.878 267.692h17.914v135.695h-17.914z" style="fill:#b3ceff" transform="rotate(-180 340.835 335.54)"/><path d="m352.587 414.999-.105 12.187s12.696.213 16.414 17.012l-37.994-.036v-29.163z" style="fill:#343456"/><path d="M351.617 422.718h-7.544a2.025 2.025 0 0 1 0-4.05h7.544a2.025 2.025 0 1 1 0 4.05M351.617 428.591h-7.544a2.025 2.025 0 0 1 0-4.05h7.544a2.024 2.024 0 1 1 0 4.05M361.443 430.899c-2.406 2.45-4.703 6.613-3.702 13.287l11.153.011c-1.498-6.771-4.455-10.844-7.451-13.298" style="fill:#fff"/><path d="M330.043 443.302h39.498v3.438h-39.498z" style="fill:#fff" transform="rotate(-180 349.792 445.021)"/><path d="M309.505 331.191h11.726v91.859h-11.726z" style="fill:#8f78ff" transform="rotate(-180 315.368 377.12)"/><path d="M306.411 267.692h17.914v135.695h-17.914z" style="fill:#b3ceff" transform="rotate(-180 315.368 335.54)"/><path d="m327.12 414.999-.105 12.187s12.695.213 16.414 17.012l-37.994-.036v-29.163z" style="fill:#343456"/><path d="M326.15 422.718h-7.544a2.025 2.025 0 0 1 0-4.05h7.544a2.024 2.024 0 1 1 0 4.05M326.15 428.591h-7.544a2.025 2.025 0 0 1 0-4.05h7.544c1.118 0 2.025.907 2.025 2.025a2.024 2.024 0 0 1-2.025 2.025M335.976 430.899c-2.406 2.45-4.703 6.613-3.702 13.287l11.153.011c-1.498-6.771-4.455-10.844-7.451-13.298" style="fill:#fff"/><path d="M304.576 443.302h39.498v3.438h-39.498z" style="fill:#fff" transform="rotate(-180 324.325 445.021)"/><path d="m341.203 161.237-5.005 29.535V276.3h30.588l-4.224-92.938c-.32-7.031-3.935-13.533-9.822-17.39-2.958-1.939-6.744-3.68-11.537-4.735M317.644 161.237l5.005 29.535V276.3h-30.588l4.225-92.938c.319-7.031 3.935-13.533 9.821-17.39 2.958-1.939 6.743-3.68 11.537-4.735" style="fill:#6b8ad6"/><path d="M298.339 248.558h19.327v3.993h-19.327zM341.899 248.558h19.327v3.993h-19.327z" style="fill:#b3ceff"/><path d="M430.196 105.559c-7.331 2.976-9.668-8.291-9.668-8.291l-6.151-5.171s4.844-5.278 9.206.426c0 0-.233-10.134 2.921-13.194 1.481-1.437 9.493-1.57 13.345.347a1.61 1.61 0 0 1 .707 2.204c-1.027 1.935-2.688 5.987-1.573 10.408 1.555 6.157.246 15.125-8.787 13.271" style="fill:#ffb692"/><path d="M423.584 92.523s5.865-.514 8.153 5.948c0 0-3.007-5.332-8.138-5.49zM435.309 93.054s-4.301-2.067-9.063-1.69c0 0 4.04-3.198 9.063 1.69" style="fill:#d88d87"/><path d="m433.656 92.318-.332-.203s.921-8.041 5.65-12.815q.19.07.372.147c-1.594 1.988-5.084 6.942-5.69 12.871M428.473 90.869l-.615.125s-1.515-7.953 2.364-12.682a25.3 25.3 0 0 1 4.983.126c-1.192 1.569-4.418 6.446-3.959 12.775l-.482-.015s-1.551-7.996 3.519-12.711l-3.42-.204c-.001 0-3.976 5.2-2.39 12.586" style="fill:#d88d87"/><path d="M430.777 102.009s2.352 11.599-.312 26.3" style="fill:none;stroke:#ffb692;stroke-width:11.0312;stroke-miterlimit:10"/><path d="M351.563 177.705c57.1 13.166 80.135-27.998 80.512-65.757" style="fill:none;stroke:#6b8ad6;stroke-width:16.5833;stroke-miterlimit:10"/><path d="M212.878 198.242c7.331 2.976 9.668-8.291 9.668-8.291l6.151-5.171s-4.844-5.278-9.206.426c0 0 .233-10.134-2.921-13.194-1.481-1.437-9.493-1.57-13.345.347a1.61 1.61 0 0 0-.707 2.204c1.027 1.935 2.688 5.988 1.573 10.408-1.554 6.157-.245 15.125 8.787 13.271" style="fill:#ffb692"/><path d="M219.491 185.206s-5.865-.514-8.153 5.948c0 0 3.007-5.332 8.138-5.489zM207.766 185.737s4.301-2.067 9.063-1.69c0 0-4.04-3.198-9.063 1.69" style="fill:#d88d87"/><path d="m209.419 185.001.332-.203s-.921-8.041-5.649-12.815q-.19.07-.372.147c1.593 1.988 5.083 6.942 5.689 12.871M214.602 183.552l.615.125s1.515-7.953-2.364-12.681a25 25 0 0 0-4.983.126c1.192 1.569 4.418 6.446 3.959 12.775l.482-.015s1.551-7.996-3.519-12.711l3.42-.204c.001-.001 3.976 5.199 2.39 12.585" style="fill:#d88d87"/><path d="M212.297 194.182s11.757 16.597 18.872 20.825" style="fill:none;stroke:#ffb692;stroke-width:11.0312;stroke-miterlimit:10"/><path d="M306.422 177.586c-19.936 43.282-67.962 52.741-88.875 25.519" style="fill:none;stroke:#6b8ad6;stroke-width:16.5833;stroke-miterlimit:10"/><path d="M133.282 359.4h21.245v66.286h-21.245z" style="fill:#6b8ad6"/><path d="M133.282 375.623c10.021-1.334 17.008 3.291 21.245 10.156V359.4h-21.245z" style="fill:#536ea5"/><path d="M150.927 318.991H112.52c-12.028 0-21.778-9.75-21.778-21.778v-19.915c0-15.873 12.868-28.741 28.741-28.741h24.481c15.873 0 28.741 12.868 28.741 28.741v19.915c0 12.028-9.75 21.778-21.778 21.778" style="fill:#6b8ad6"/><path d="M158.577 318.991H120.17c-12.027 0-21.778-9.75-21.778-21.778v-19.915c0-15.873 12.868-28.741 28.741-28.741h24.481c15.873 0 28.741 12.868 28.741 28.741v19.915c0 12.028-9.75 21.778-21.778 21.778" style="fill:#b3ceff"/><path d="M164.929 369.189h-60.63c-5.888 0-10.661-4.773-10.661-10.661s4.773-10.661 10.661-10.661h60.63c5.888 0 10.661 4.773 10.661 10.661s-4.773 10.661-10.661 10.661" style="fill:#6b8ad6"/><path d="M174.448 369.189h-48.702c-5.888 0-10.661-4.773-10.661-10.661s4.773-10.661 10.661-10.661h48.702c5.888 0 10.661 4.773 10.661 10.661s-4.773 10.661-10.661 10.661" style="fill:#b3ceff"/><path d="M171.862 426.233h-56.037a5.198 5.198 0 1 1 0-10.396h56.037a5.198 5.198 0 1 1 0 10.396" style="fill:#6b8ad6"/><path d="M135.859 431.756a5.523 5.523 0 1 1-11.047 0 5.523 5.523 0 0 1 11.047 0" style="fill:#b3ceff"/><path d="M132.165 431.756a5.523 5.523 0 1 1-11.047 0 5.523 5.523 0 0 1 11.047 0" style="fill:#6b8ad6"/><path d="M152.957 431.756a5.523 5.523 0 1 1-11.047 0 5.523 5.523 0 0 1 11.047 0" style="fill:#b3ceff"/><path d="M149.264 431.756a5.523 5.523 0 1 1-11.047 0 5.523 5.523 0 0 1 11.047 0" style="fill:#6b8ad6"/><path d="M170.056 431.756a5.523 5.523 0 1 1-11.047 0 5.523 5.523 0 0 1 11.047 0" style="fill:#b3ceff"/><path d="M166.363 431.756a5.523 5.523 0 1 1-11.047 0 5.523 5.523 0 0 1 11.047 0" style="fill:#6b8ad6"/><path d="m221.485 321.771-41.876-14.647a7.903 7.903 0 0 1-4.851-10.071 7.903 7.903 0 0 1 10.73-4.587l40.393 18.344a5.91 5.91 0 0 1 2.938 7.826c-1.272 2.802-4.483 4.123-7.334 3.135" style="fill:#a56f62"/><path d="m164.396 248.855 25.459 47.057a8.274 8.274 0 0 1-14.554 7.874l-.058-.109-24.755-47.431a7.875 7.875 0 0 1 13.908-7.391M222.558 310.219a1.41 1.41 0 0 1 1.244-.386c3.292.566 16.771 2.892 16.952 3.028.207.155 3.979 9.662 3.669 9.714s-21.03 0-21.03 0-8.914-4.252-.835-12.356" style="fill:#a56f62"/><path d="M231.17 318.571c-1.368 1.394-2.665.863-3.276.466l-.367-.282s-2.454 1.16-2.493 1.344a.8.8 0 0 0 .064.224c-.459.969-1.226 1.605-2.116 2.028.252.148.411.225.411.225l3.863.008-1.253-2.301s.232-.499 1.852-1.151c.337.348.897.82 1.51.895-.509.338-.818 1.233-.818 1.233.388-.838 1.808-1.411 2.545.133-.4-.899-.771-1.313-1.1-1.444.411-.166.82-.575 1.178-1.378M240.97 322.597l-1.326-6.933 1.993 6.932zM235.281 322.596l-.667-.001-1.326-6.931zM236.466 315.664l1.994 6.934h-.667z" style="fill:#8c5c53"/><path d="m167.242 249.062 20.74 39.384-17.987 9.352-20.393-39.543c-2.543-4.931-.56-10.99 4.407-13.462a9.946 9.946 0 0 1 13.233 4.269" style="fill:#c62433"/><path d="m148.806 339.723 64.537 13.57.323 78.463" style="fill:none;stroke:#353551;stroke-width:15.4312;stroke-miterlimit:10"/><path d="M134.67 313.011h8.845c9.729 0 17.69 7.96 17.69 17.69 0 9.729-7.96 17.69-17.69 17.69h-8.845c-9.729 0-17.689-7.96-17.689-17.69-.001-9.73 7.96-17.69 17.689-17.69" style="fill:#3e3d5e"/><path d="m131.659 339.723 64.538 13.57v81.941" style="fill:none;stroke:#3e3d5e;stroke-width:15.4312;stroke-miterlimit:10"/><path d="M166.858 324.529c.014 2.554-1.424 4.911-3.729 6.012-5.101 2.438-12.509 5.107-21.705 5.752-12.943.908-23.34-2.621-29.548-5.475-2.338-1.076-3.825-3.426-3.839-6-.124-23.212-.249-44.483-.373-67.557-.072-13.327 10.674-24.191 24.001-24.262l12.159-.064c12.445-.066 22.587 9.969 22.653 22.413z" style="fill:#ef3f1d"/><path d="M138.931 197.218h-.961c-6.161 0-11.155 4.994-11.155 11.155v30.542h23.27v-30.542c.001-6.161-4.993-11.155-11.154-11.155" style="fill:#a56f62"/><path d="M124.926 240.098c0 3.127 6.217 5.662 13.886 5.662s13.887-2.535 13.887-5.662-6.217-5.662-13.887-5.662c-7.669 0-13.886 2.535-13.886 5.662" style="fill:#a56f62"/><path d="M150.086 208.373c0-6.161-4.994-11.155-11.155-11.155h-.961c-6.161 0-11.155 4.994-11.155 11.155v19.564c3.825 3.181 8.401 4.504 11.084 4.504 4.012 0 8.645-1.375 12.186-4.895v-19.173z" style="fill:#7c4942"/><path d="m113.123 198.547 49.517.054a4.242 4.242 0 0 0 .009-8.483l-49.517-.054a4.24 4.24 0 0 0-4.246 4.237 4.24 4.24 0 0 0 4.237 4.246" style="fill:#8c5c53"/><path d="M162.985 196.804a2.474 2.474 0 0 0 2.126-2.441 2.47 2.47 0 0 0-2.464-2.47l-49.517-.054q-.173 0-.343.023a2.474 2.474 0 0 0-2.126 2.441 2.47 2.47 0 0 0 2.464 2.47l49.517.055q.173 0 .343-.024" style="fill:#664642"/><path d="M137.848 231.922c13.076.013 23.688-10.576 23.701-23.653l.029-28.664c.013-12.536-10.14-22.709-22.676-22.722l-1.955-.002c-12.536-.013-22.709 10.14-22.722 22.676l-.029 28.664c-.014 13.077 10.575 23.688 23.652 23.701" style="fill:#252538"/><path d="m126.949 201.388 21.859.022a8.54 8.54 0 0 0 8.548-8.531l.021-21.143-38.938-.04-.021 21.143a8.54 8.54 0 0 0 8.531 8.549M135.963 219.448l3.217.003c5.412.005 9.804-4.378 9.808-9.79a3.83 3.83 0 0 0-3.829-3.836l-15.148-.016a3.83 3.83 0 0 0-3.836 3.829v.001c-.005 5.412 4.377 9.803 9.788 9.809" style="fill:#a56f62"/><path d="M122.6 190.735c0 2.953 2.274 4.529 5.08 4.529s5.08-1.575 5.08-4.529-2.274-4.395-5.08-4.395-5.08 1.441-5.08 4.395" style="fill:#fff"/><path d="M132.563 190.735c-.149-1.219-.685-2.317-1.617-2.942-.924-.63-2.095-.885-3.266-.885-1.172-.004-2.343.251-3.27.88-.933.628-1.47 1.728-1.614 2.947h-.394a4.6 4.6 0 0 1 .217-1.996c.24-.65.661-1.251 1.201-1.706 1.091-.927 2.523-1.247 3.859-1.26 1.337.009 2.768.329 3.863 1.255a4.16 4.16 0 0 1 1.201 1.709c.221.659.293 1.345.213 1.999h-.393z" style="fill:#252538"/><path d="M128.494 187.312a3.73 3.73 0 0 1 4.267 4.276c-.242 1.569-1.526 2.85-3.096 3.089a3.73 3.73 0 0 1-4.266-4.275c.242-1.57 1.526-2.851 3.095-3.09M123.082 180.265l4.805-1.508a1.998 1.998 0 1 1 1.197 3.813l-4.805 1.508a1.999 1.999 0 0 1-1.197-3.813" style="fill:#252538"/><path d="M153.188 190.735c0 2.953-2.275 4.529-5.08 4.529s-5.08-1.575-5.08-4.529 2.274-4.395 5.08-4.395 5.08 1.441 5.08 4.395" style="fill:#fff"/><path d="M142.831 190.735a4.55 4.55 0 0 1 .213-1.999 4.2 4.2 0 0 1 1.202-1.709c1.095-.926 2.526-1.247 3.863-1.255 1.336.013 2.768.333 3.859 1.26.54.455.961 1.056 1.201 1.706.222.658.295 1.343.217 1.996h-.394c-.144-1.219-.681-2.319-1.613-2.947-.927-.629-2.098-.885-3.27-.881-1.171 0-2.342.255-3.266.885-.933.625-1.468 1.724-1.617 2.942h-.395z" style="fill:#252538"/><path d="M149.814 187.312a3.732 3.732 0 0 0-4.267 4.276c.242 1.569 1.526 2.85 3.096 3.089a3.73 3.73 0 0 0 4.266-4.276c-.242-1.569-1.526-2.851-3.095-3.089M152.706 180.265l-4.805-1.508a1.998 1.998 0 1 0-1.197 3.813l4.805 1.508a1.999 1.999 0 0 0 1.197-3.813" style="fill:#252538"/><path d="m134.926 203.329 5.921.006a1.768 1.768 0 1 0 .004-3.536l-5.921-.006a1.769 1.769 0 0 0-.004 3.536" style="fill:#7c4e48"/><path d="M137.876 203.949a2.63 2.63 0 0 0 2.632-2.626l.01-10.029a2.63 2.63 0 0 0-5.258-.005l-.01 10.029a2.63 2.63 0 0 0 2.626 2.631" style="fill:#8c5c53"/><path d="m118.44 171.697 38.938.039-.009 6.929-38.93-6.118z" style="fill:#7c4942"/><path d="M142.187 208.444c-2.35-.097-5.651-.39-8.827-1.21-2.089-.539-3.539 2.203-2.23 4.267 1.393 2.196 3.624 4.147 7.144 4.053 2.885-.077 4.622-1.039 5.664-2.231 1.475-1.687.344-4.793-1.751-4.879" style="fill:#252538"/><path d="M138.274 215.554c-3.52.094-5.751-1.857-7.144-4.053a3.2 3.2 0 0 1-.403-.961c1.173-.7 2.797-1.115 5.064-.887 3.501.353 5.449 2.57 6.534 4.924l.005.014c-1.003.545-2.318.916-4.056.963" style="fill:#ff9292"/><path d="M139.613 212.517c-.275.627-1.604.683-2.968.125-1.364-.559-2.246-1.52-1.971-2.148s1.604-.684 2.968-.125 2.246 1.52 1.971 2.148" style="fill:#ffabab"/><path d="M142.187 208.444c-2.35-.097-5.651-.39-8.827-1.21-1.283-.332-2.322.577-2.632 1.804 1.969 1.388 4.843 2.364 8.093 2.575 2.084.135 4.055-.063 5.764-.517-.142-1.344-1.077-2.598-2.398-2.652" style="fill:#fff"/><path d="m180.739 321.771-41.876-14.647a7.903 7.903 0 0 1-4.851-10.071 7.903 7.903 0 0 1 10.73-4.587l40.394 18.344a5.91 5.91 0 0 1 2.938 7.826c-1.274 2.802-4.484 4.123-7.335 3.135" style="fill:#a56f62"/><path d="m123.649 248.855 25.459 47.057a8.274 8.274 0 0 1-14.554 7.874l-.058-.109-24.755-47.431a7.875 7.875 0 0 1 13.908-7.391M181.811 310.219a1.41 1.41 0 0 1 1.244-.386c3.292.566 16.771 2.892 16.952 3.028.207.155 3.979 9.662 3.669 9.714s-21.03 0-21.03 0-8.913-4.252-.835-12.356" style="fill:#a56f62"/><path d="M190.423 318.571c-1.368 1.394-2.665.863-3.276.466l-.367-.282s-2.454 1.16-2.493 1.344a.8.8 0 0 0 .064.224c-.459.969-1.226 1.605-2.116 2.028.252.148.411.225.411.225l3.863.008-1.254-2.301s.232-.499 1.852-1.151c.337.348.897.82 1.51.895-.509.338-.818 1.233-.818 1.233.387-.838 1.808-1.411 2.545.133-.4-.899-.771-1.313-1.1-1.444.412-.166.821-.575 1.179-1.378M200.223 322.597l-1.326-6.933 1.993 6.932zM194.535 322.596l-.667-.001-1.326-6.931zM195.719 315.664l1.994 6.934h-.667z" style="fill:#8c5c53"/><path d="m126.495 249.062 20.74 39.384-17.987 9.352-20.393-39.543c-2.543-4.931-.56-10.99 4.407-13.462a9.946 9.946 0 0 1 13.233 4.269" style="fill:#c62433"/><path d="m226.46 423.37-.104 12.049s12.552.21 16.228 16.82l-37.564-.036V423.37z" style="fill:#ef3f1d"/><path d="M225.501 431.003h-7.459a2.002 2.002 0 1 1 0-4.004h7.459a2.002 2.002 0 0 1 0 4.004M225.501 436.81h-7.459a2.002 2.002 0 1 1 0-4.005h7.459a2.002 2.002 0 0 1 0 4.005M235.215 439.091c-2.379 2.422-4.649 6.538-3.66 13.136l11.027.011c-1.481-6.694-4.404-10.721-7.367-13.147" style="fill:#fff"/><path d="M204.171 451.354h39.051v3.398h-39.051z" style="fill:#fff" transform="rotate(-180 223.697 453.053)"/><path d="m206.908 427.086-.104 12.049s12.552.21 16.228 16.819l-37.564-.036v-28.833z" style="fill:#ef3f1d"/><path d="M205.949 434.719h-7.459a2.002 2.002 0 1 1 0-4.004h7.459a2.002 2.002 0 0 1 0 4.004M205.949 440.526h-7.459a2.002 2.002 0 1 1 0-4.005h7.459a2.002 2.002 0 0 1 0 4.005M215.664 442.807c-2.379 2.422-4.649 6.538-3.66 13.136l11.027.011c-1.482-6.694-4.405-10.721-7.367-13.147" style="fill:#fff"/><path d="M184.619 455.07h39.051v3.399h-39.051z" style="fill:#fff" transform="rotate(-180 204.145 456.77)"/><path d="M591.475 359.4h21.245v66.286h-21.245z" style="fill:#6b8ad6" transform="rotate(-180 602.098 392.543)"/><path d="M612.72 375.623c-10.021-1.334-17.008 3.291-21.245 10.156V359.4h21.245z" style="fill:#536ea5"/><path d="M595.076 318.991h38.407c12.028 0 21.778-9.75 21.778-21.778v-19.915c0-15.873-12.868-28.741-28.741-28.741h-24.481c-15.873 0-28.741 12.868-28.741 28.741v19.915c0 12.028 9.75 21.778 21.778 21.778" style="fill:#6b8ad6"/><path d="M587.426 318.991h38.407c12.027 0 21.778-9.75 21.778-21.778v-19.915c0-15.873-12.868-28.741-28.741-28.741h-24.481c-15.873 0-28.741 12.868-28.741 28.741v19.915c0 12.028 9.75 21.778 21.778 21.778" style="fill:#b3ceff"/><path d="M581.073 369.189h60.63c5.888 0 10.661-4.773 10.661-10.661s-4.773-10.661-10.661-10.661h-60.63c-5.888 0-10.661 4.773-10.661 10.661s4.773 10.661 10.661 10.661" style="fill:#6b8ad6"/><path d="M571.555 369.189h48.702c5.888 0 10.661-4.773 10.661-10.661s-4.773-10.661-10.661-10.661h-48.702c-5.888 0-10.661 4.773-10.661 10.661s4.773 10.661 10.661 10.661" style="fill:#b3ceff"/><path d="M574.141 426.233h56.037a5.198 5.198 0 1 0 0-10.396h-56.037a5.198 5.198 0 1 0 0 10.396" style="fill:#6b8ad6"/><path d="M610.144 431.756a5.523 5.523 0 1 0 11.047 0 5.523 5.523 0 0 0-11.047 0" style="fill:#b3ceff"/><path d="M613.837 431.756a5.523 5.523 0 1 0 11.047 0 5.523 5.523 0 0 0-11.047 0" style="fill:#6b8ad6"/><path d="M593.045 431.756a5.523 5.523 0 1 0 11.047 0 5.523 5.523 0 0 0-11.047 0" style="fill:#b3ceff"/><path d="M596.739 431.756a5.523 5.523 0 1 0 11.047 0 5.523 5.523 0 0 0-11.047 0" style="fill:#6b8ad6"/><path d="M575.947 431.756a5.523 5.523 0 1 0 11.047 0 5.523 5.523 0 0 0-11.047 0" style="fill:#b3ceff"/><path d="M579.64 431.756a5.523 5.523 0 1 0 11.047 0 5.523 5.523 0 0 0-11.047 0" style="fill:#6b8ad6"/><path d="M583.593 253.783s-11.122 69.691-58.531 59.471" style="fill:none;stroke:#ffb692;stroke-width:11.0312;stroke-miterlimit:10"/><path d="m586.448 270.209 6.708-17.334c1.644-4.956-1.051-10.306-6.019-11.951s-10.329 1.039-11.972 5.994l-6.708 17.334z" style="fill:#8f78ff"/><path d="M531.47 314.352c2.932-6.999-7.849-9.36-7.849-9.36l-4.894-5.954s-5.113 4.589.31 8.833c0 0-9.716-.331-12.685 2.661-1.394 1.405-1.607 9.088.191 12.802a1.545 1.545 0 0 0 2.106.701c1.867-.964 5.771-2.514 9.998-1.398 5.89 1.557 14.504.397 12.823-8.285" style="fill:#ffb692"/><path d="M519.038 307.871s-.555 5.619 5.617 7.883c0 0-5.082-2.941-5.178-7.863zM519.423 319.122s-1.936-4.147-1.525-8.71c0 0-3.109 3.841 1.525 8.71" style="fill:#d88d87"/><path d="m518.735 317.529-.191-.32s-7.721.797-12.35 5.282q.066.183.137.358c1.923-1.508 6.711-4.802 12.404-5.32M517.4 312.543l.127-.589s-7.611-1.537-12.187 2.132a24.3 24.3 0 0 0 .067 4.78c1.517-1.127 6.229-4.169 12.294-3.661l-.01-.463s-7.652-1.573-12.228 3.24l-.159-3.282s5.03-3.757 12.096-2.157" style="fill:#d88d87"/><path d="m597.197 339.723-64.538 13.57-.322 78.463" style="fill:none;stroke:#353551;stroke-width:15.4312;stroke-miterlimit:10"/><path d="M611.333 313.011h-8.845c-9.729 0-17.69 7.96-17.69 17.69 0 9.729 7.96 17.69 17.69 17.69h8.845c9.729 0 17.69-7.96 17.69-17.69-.001-9.73-7.961-17.69-17.69-17.69" style="fill:#3e3d5e"/><path d="m614.344 339.723-64.538 13.57v81.941" style="fill:none;stroke:#3e3d5e;stroke-width:15.4312;stroke-miterlimit:10"/><path d="M579.144 324.529c-.014 2.554 1.424 4.911 3.729 6.012 5.101 2.438 12.509 5.107 21.705 5.752 12.944.908 23.34-2.621 29.548-5.475 2.338-1.076 3.825-3.426 3.839-6 .124-23.212.249-44.483.373-67.557.072-13.327-10.674-24.191-24.001-24.262l-12.159-.064c-12.445-.066-22.587 9.969-22.653 22.413z" style="fill:#8f78ff"/><path d="M604.146 262.074a1.64 1.64 0 1 0 0-3.278 1.64 1.64 0 0 0 0 3.278M604.146 265.086a1.64 1.64 0 1 0 0 3.278 1.64 1.64 0 0 0 0-3.278M604.146 271.377a1.64 1.64 0 1 0 0 3.278 1.64 1.64 0 0 0 0-3.278" style="fill:#fff"/><path d="M607.072 197.218h.961c6.161 0 11.155 4.994 11.155 11.155v30.542h-23.27v-30.542c-.001-6.161 4.993-11.155 11.154-11.155" style="fill:#ffb692"/><path d="M595.917 208.373c0-6.161 4.994-11.155 11.155-11.155h.961c6.161 0 11.155 4.994 11.155 11.155v19.564c-3.824 3.181-8.401 4.504-11.084 4.504-4.012 0-8.645-1.375-12.186-4.895z" style="fill:#d88d87"/><path d="M607.362 155.143c-1.587-.009-3.258-1.578-4.786-1.369-1.566.215-2.75 2.181-4.238 2.608-1.514.435-3.561-.599-4.977.04-1.432.646-2.011 2.867-3.325 3.703-1.322.841-3.578.427-4.763 1.443-1.187 1.018-1.12 3.312-2.151 4.488-1.029 1.173-3.312 1.408-4.167 2.72-.85 1.305-.143 3.486-.804 4.911-.654 1.409-2.778 2.277-3.23 3.786-.443 1.483.852 3.374.621 4.938-.226 1.525-2.019 2.958-2.028 4.545s1.769 3.038 1.979 4.566c.215 1.566-1.102 3.443-.674 4.931.435 1.514 2.551 2.405 3.189 3.821.646 1.432-.085 3.606.751 4.919.841 1.322 3.122 1.58 4.138 2.765 1.018 1.187.927 3.48 2.103 4.51 1.173 1.029 3.434.639 4.747 1.494 1.305.85 1.861 3.077 3.285 3.738 1.409.654 3.466-.358 4.975.093 1.483.443 2.646 2.422 4.21 2.654 1.526.226 3.213-1.326 4.8-1.317 1.587.008 3.258 1.578 4.786 1.369 1.566-.215 2.75-2.181 4.238-2.608 1.514-.435 3.561.599 4.977-.04 1.431-.646 2.011-2.867 3.325-3.703 1.322-.841 3.578-.427 4.763-1.443 1.187-1.018 1.12-3.312 2.151-4.488 1.029-1.173 3.312-1.408 4.167-2.72.85-1.305.143-3.486.804-4.911.654-1.409 2.779-2.277 3.23-3.786.444-1.483-.852-3.374-.621-4.938.226-1.526 2.019-2.958 2.028-4.545s-1.769-3.038-1.979-4.566c-.215-1.566 1.101-3.443.674-4.931-.435-1.514-2.551-2.405-3.189-3.821-.646-1.431.085-3.606-.751-4.919-.841-1.322-3.122-1.58-4.138-2.765-1.018-1.187-.927-3.48-2.103-4.51-1.173-1.029-3.434-.638-4.747-1.494-1.305-.85-1.861-3.077-3.285-3.738-1.409-.654-3.466.358-4.975-.093-1.483-.443-2.646-2.422-4.21-2.654-1.526-.226-3.213 1.326-4.8 1.317" style="fill:#252538"/><path d="m584.638 205.842 47.335.054a4.203 4.203 0 0 0 .009-8.403l-47.335-.054a4.201 4.201 0 1 0-.009 8.403" style="fill:#d88d87"/><path d="M632.315 204.115a2.45 2.45 0 0 0 2.106-2.418 2.446 2.446 0 0 0-2.441-2.446l-47.336-.054q-.172 0-.34.023a2.45 2.45 0 0 0-2.106 2.418 2.446 2.446 0 0 0 2.441 2.446l47.335.054q.173 0 .341-.023" style="fill:#9e6461"/><path d="M607.198 231.244c5.317 0 17.409-4.717 19.191-17.65l3.983-24.082c0-12.27-9.947-22.217-22.217-22.217h-1.914c-12.27 0-22.217 9.947-22.217 22.217l3.983 24.082c2.026 13.255 11.628 17.65 19.191 17.65" style="fill:#ffb692"/><path d="m584.126 187.407 45.088-4.969a22.24 22.24 0 0 0-6.653-9.831h-30.727c-4.276 3.648-7.151 8.885-7.708 14.8" style="fill:#d88d87"/><path d="M588.595 198.103c0 2.925 2.253 4.486 5.032 4.486s5.032-1.56 5.032-4.486-2.253-4.353-5.032-4.353-5.032 1.428-5.032 4.353" style="fill:#fff"/><path d="M598.502 198.103c-.116-1.215-.64-2.342-1.582-2.989-.927-.661-2.116-.927-3.293-.914-1.179-.02-2.365.255-3.296.91-.942.649-1.468 1.777-1.579 2.993h-.313a4.5 4.5 0 0 1 .244-1.948c.24-.63.652-1.208 1.18-1.646 1.069-.886 2.46-1.182 3.765-1.21 1.306.022 2.696.326 3.768 1.206a4.04 4.04 0 0 1 1.18 1.648 4.5 4.5 0 0 1 .24 1.95z" style="fill:#252538"/><path d="M592.609 194.406a3.692 3.692 0 1 1-.008 7.384 3.692 3.692 0 0 1 .008-7.384" style="fill:#252538"/><path d="M618.893 198.103c0 2.925-2.253 4.486-5.032 4.486s-5.032-1.56-5.032-4.486 2.253-4.353 5.032-4.353 5.032 1.428 5.032 4.353" style="fill:#fff"/><path d="M608.673 198.103a4.55 4.55 0 0 1 .24-1.95 4.05 4.05 0 0 1 1.18-1.648c1.073-.881 2.462-1.185 3.768-1.206 1.305.029 2.697.324 3.765 1.21a4 4 0 0 1 1.18 1.646 4.55 4.55 0 0 1 .244 1.948h-.313c-.112-1.215-.637-2.343-1.579-2.993-.931-.655-2.117-.93-3.296-.91-1.177-.013-2.366.253-3.293.914-.942.647-1.467 1.774-1.582 2.989z" style="fill:#252538"/><path d="M612.558 194.406a3.692 3.692 0 1 0 .008 7.384 3.692 3.692 0 0 0-.008-7.384" style="fill:#252538"/><path d="M607.554 206.828h-7.636a.65.65 0 0 0-.649.65c0 2.461 2 4.456 4.467 4.456a4.46 4.46 0 0 0 4.467-4.456.65.65 0 0 0-.649-.65" style="fill:#ba726e"/><path d="M603.736 212.275a2.414 2.414 0 0 0 2.414-2.414v-11.113a2.414 2.414 0 0 0-4.828 0v11.113a2.414 2.414 0 0 0 2.414 2.414" style="fill:#d88d87"/><path d="M589.446 189.706c.841-.266 7.743-.619 8.053-.619s1.151 2.434 1.151 2.434-8.849-.442-9.292 0c-.443.443-3.009 2.787-3.009 2.655 0-.134 2.257-4.205 3.097-4.47M609.972 189.086c.31 0 7.212.354 8.053.619.84.266 3.097 4.336 3.097 4.469s-2.566-2.212-3.009-2.655c-.442-.442-9.292 0-9.292 0s.842-2.433 1.151-2.433" style="fill:#2b2b3a"/><path d="M600.779 213.929c2.068-.085 4.973-.343 7.767-1.065 1.838-.475 3.115 1.939 1.963 3.755-1.226 1.932-3.189 3.649-6.287 3.567-2.539-.068-4.067-.915-4.984-1.963-1.298-1.485-.302-4.218 1.541-4.294" style="fill:#252538"/><path d="M604.222 220.186c3.097.082 5.061-1.635 6.287-3.567.172-.272.284-.558.354-.846-1.033-.616-2.462-.981-4.457-.781-3.081.31-4.795 2.262-5.749 4.333l-.004.012c.883.481 2.04.808 3.569.849" style="fill:#ff9292"/><path d="M603.044 217.513c.242.552 1.411.601 2.611.11 1.2-.492 1.977-1.338 1.734-1.89-.242-.552-1.411-.601-2.612-.11-1.199.492-1.975 1.337-1.733 1.89" style="fill:#ffabab"/><path d="M600.779 213.929c2.068-.085 4.973-.343 7.767-1.065 1.129-.292 2.043.508 2.316 1.587-1.733 1.222-4.262 2.081-7.122 2.266-1.834.119-3.568-.055-5.072-.455.126-1.182.949-2.285 2.111-2.333" style="fill:#fff"/><path d="m602.541 165.796 6.039-.164c12.515-.339 22.935 9.531 23.274 22.046l.046 1.715q.008.27-.007.536c-.181 3.403-5.323 3.227-5.416-.179l-.022-.827c-.163-6.018-5.174-10.764-11.191-10.601l-18.711.507c-6.018.163-10.763 5.173-10.601 11.191l.022.827c.092 3.406-5.033 3.86-5.398.472a7 7 0 0 1-.036-.534l-.046-1.715c-.338-12.516 9.532-22.936 22.047-23.274" style="fill:#252538"/><path d="m519.543 423.37.104 12.049s-12.552.21-16.228 16.82l37.564-.036V423.37z" style="fill:#8f78ff"/><path d="M520.502 431.003h7.459a2.002 2.002 0 1 0 0-4.004h-7.459a2.002 2.002 0 1 0 0 4.004M520.502 436.81h7.459a2.002 2.002 0 1 0 0-4.005h-7.459a2.002 2.002 0 1 0 0 4.005M510.787 439.091c2.379 2.422 4.649 6.538 3.66 13.136l-11.027.011c1.482-6.694 4.405-10.721 7.367-13.147" style="fill:#fff"/><path d="M502.78 451.354h39.051v3.398H502.78z" style="fill:#fff"/><path d="m539.095 427.086.104 12.049s-12.552.21-16.228 16.819l37.564-.036v-28.833z" style="fill:#8f78ff"/><path d="M540.054 434.719h7.459a2.002 2.002 0 1 0 0-4.004h-7.459a2.002 2.002 0 1 0 0 4.004M540.054 440.526h7.459a2.002 2.002 0 1 0 0-4.005h-7.459a2.002 2.002 0 1 0 0 4.005M530.339 442.807c2.379 2.422 4.649 6.538 3.66 13.136l-11.027.011c1.481-6.694 4.405-10.721 7.367-13.147" style="fill:#fff"/><path d="M522.332 455.07h39.051v3.399h-39.051z" style="fill:#fff"/><path d="M483.585 277.884h34.471v51.687h-34.471z" style="fill:#ef3f1d" transform="rotate(-8.15 501.022 303.744)"/><path d="m595.917 238.915 12.286 18.266 10.984-18.266-12.277-2.765z" style="fill:#ffb692"/><path d="M622.741 278.897a7.63 7.63 0 0 1-7.63-7.63v-11.97h15.261v11.97a7.63 7.63 0 0 1-7.631 7.63" style="fill:#6c5ed3"/><path d="M637.447 251.48c4.589 35.423-33.356 59.299-89.86 29.735" style="fill:none;stroke:#ffb692;stroke-width:11.0312;stroke-miterlimit:10"/><path d="m645.019 271.18 4.279-18.087c.952-5.134-2.449-10.066-7.595-11.017s-10.09 2.439-11.042 7.573l-4.279 18.087z" style="fill:#8f78ff"/><path d="M552.781 284.738c6.638-4.218-1.134-12.61-1.134-12.61l-.638-7.963s-7.067.876-4.967 7.698c0 0-6.212-3.458-8.419-8.296-2.694-5.905-10.664 7.164-9.83 13.701.453 3.551 5.755 4.052 8.69 7.505 4.089 4.812 12.587 8.346 16.298-.035" style="fill:#ffb692"/><path d="m540.304 277.754-.285.506s-7.097-2.921-10.928-8.073q.193-.491.407-.973c1.345 2.209 4.372 5.806 10.806 8.54M537.928 281.337s-6.428-2.566-10.137-6.156c.035-.352.089-.713.154-1.079 1.549 1.563 4.922 4.483 10.3 6.701zM542.519 274.463s-7.328-2.757-10.518-9.574q.446-.591.9-1.079c1.168 2.701 3.857 7.068 9.793 10.294z" style="fill:#d88d87"/><path d="m260.728 321.725-60.089-.008 12.548-42.251h60.027z" style="fill:#b3ceff"/><path d="M245.057 304.263h-9.503l5.596-5.596z" style="fill:#fff"/><path d="M172.849 321.71h87.874v3.001h-87.874z" style="fill:#536ea5"/><path d="M200.641 321.71h60.082v3.001h-60.082z" style="fill:#b3ceff"/><path d="M213.187 279.466h-2.281l-12.726 42.379 2.461-.135z" style="fill:#536ea5"/><path d="m588.724 337.146-12.12-1.681 19.266 126.11h5.467zM187.051 337.146l12.119-1.681-19.265 126.11h-5.468z" style="fill:#a0b8e8"/><path d="M173.158 335.465H603.13v10.703H173.158z" style="fill:#d9e6ff"/><path d="M173.158 335.465H603.13v3.545H173.158z" style="fill:#a0b8e8"/><path d="M614.351 335.919H161.938v-6.931a4.68 4.68 0 0 1 4.68-4.68h443.053a4.68 4.68 0 0 1 4.68 4.68z" style="fill:#e8a060"/><path d="M161.938 331.731h452.413v4.188H161.938z" style="fill:#ad7b55"/><path d="M160.545 470.596h5.467l19.266-126.11-12.12 1.681zM603.17 346.167l-12.12-1.681 19.266 126.11h5.467z" style="fill:#d9e6ff"/><path d="M431.32 299.043h.482v14.974h-.482z" style="fill:#b3ceff"/><path d="M433.597 313.695a2.035 2.035 0 1 1-4.07.001 2.035 2.035 0 0 1 4.07-.001M437.375 299.043h.482v14.974h-.482z" style="fill:#b3ceff"/><path d="M439.652 313.695a2.036 2.036 0 1 1-4.072 0 2.036 2.036 0 0 1 4.072 0M443.429 299.043h.482v14.974h-.482z" style="fill:#b3ceff"/><path d="M445.707 313.695a2.036 2.036 0 1 1-4.072 0 2.036 2.036 0 0 1 4.072 0M449.484 299.043h.482v14.974h-.482z" style="fill:#b3ceff"/><path d="M451.761 313.695a2.036 2.036 0 1 1-4.072 0 2.036 2.036 0 0 1 4.072 0M455.539 299.043h.482v14.974h-.482z" style="fill:#b3ceff"/><path d="M457.816 313.695a2.035 2.035 0 1 1-4.07.001 2.035 2.035 0 0 1 4.07-.001M461.593 299.043h.482v14.974h-.482z" style="fill:#b3ceff"/><path d="M463.87 313.695a2.036 2.036 0 1 1-4.072 0 2.036 2.036 0 0 1 4.072 0" style="fill:#b3ceff"/><path d="M420.826 295.047v29.261h6.129v-23.615h39.486v23.615h6.128v-29.261z" style="fill:#b3ceff"/></svg>