<svg xmlns="http://www.w3.org/2000/svg" viewBox="0 0 500 500"><path d="M0 382.4h500v.25H0zM416.78 398.49h33.12v.25h-33.12zM322.53 401.21h8.69v.25h-8.69zM396.59 389.21h19.19v.25h-19.19zM52.46 390.89h43.19v.25H52.46zM104.56 390.89h6.33v.25h-6.33zM131.47 395.11h93.68v.25h-93.68zM237 337.8H43.91a5.71 5.71 0 0 1-5.7-5.71V60.66a5.71 5.71 0 0 1 5.7-5.66H237a5.71 5.71 0 0 1 5.71 5.71v271.38a5.71 5.71 0 0 1-5.71 5.71M43.91 55.2a5.46 5.46 0 0 0-5.45 5.46v271.43a5.46 5.46 0 0 0 5.45 5.46H237a5.47 5.47 0 0 0 5.46-5.46V60.66A5.47 5.47 0 0 0 237 55.2ZM453.31 337.8h-193.1a5.72 5.72 0 0 1-5.71-5.71V60.66a5.72 5.72 0 0 1 5.71-5.66h193.1a5.71 5.71 0 0 1 5.69 5.66v271.43a5.71 5.71 0 0 1-5.69 5.71M260.21 55.2a5.47 5.47 0 0 0-5.46 5.46v271.43a5.47 5.47 0 0 0 5.46 5.46h193.1a5.47 5.47 0 0 0 5.46-5.46V60.66a5.47 5.47 0 0 0-5.46-5.46Z" style="fill:#ebebeb"/><path d="M76.77 111.27h195.56v115.15H76.77z" style="fill:#ebebeb"/><path d="M79.95 120.73h189.2v101.48H79.95z" style="fill:#e0e0e0"/><path d="M89.21 131.29h62.05v2.92H89.21zM89.21 137.44h62.05v2.92H89.21zM89.21 143.59h62.05v2.92H89.21zM99.21 149.73h62.05v2.92H99.21zM99.21 155.88h62.05v2.92H99.21zM99.21 162.03h62.05v2.92H99.21zM109.22 168.17h62.05v2.92h-62.05zM109.22 174.32h62.05v2.92h-62.05zM99.21 180.47h62.05v2.92H99.21zM109.22 186.62h62.05v2.92h-62.05zM109.22 192.76h62.05v2.92h-62.05zM89.21 198.91h62.05v2.92H89.21zM89.21 205.06h62.05v2.92H89.21zM89.21 211.2h62.05v2.92H89.21z" style="fill:#f0f0f0"/><path d="M305.37 269.96h127.76v75.23H305.37z" style="fill:#ebebeb"/><path d="M307.45 276.14h123.61v66.3H307.45z" style="fill:#e0e0e0"/><path d="M313.5 283.04h40.54v1.91H313.5zM313.5 287.05h40.54v1.91H313.5zM313.5 291.07h40.54v1.91H313.5zM320.03 295.09h40.54V297h-40.54zM320.03 299.1h40.54v1.91h-40.54zM320.03 303.12h40.54v1.91h-40.54zM326.57 307.13h40.54v1.91h-40.54zM326.57 311.15h40.54v1.91h-40.54zM320.03 315.17h40.54v1.91h-40.54zM326.57 319.18h40.54v1.91h-40.54zM326.57 323.2h40.54v1.91h-40.54zM313.5 327.21h40.54v1.91H313.5zM313.5 331.23h40.54v1.91H313.5zM313.5 335.25h40.54v1.91H313.5zM359.8 181.95h40.54v1.91H359.8zM359.8 185.97h40.54v1.91H359.8zM359.8 189.99h40.54v1.91H359.8zM359.8 194h47.08v1.91H359.8zM359.8 198.02h47.08v1.91H359.8zM338.61 118.22h40.54v1.91h-40.54zM338.61 122.24h40.54v1.91h-40.54zM338.61 126.25h40.54v1.91h-40.54zM338.61 130.27h47.08v1.91h-47.08zM338.61 134.29h47.08v1.91h-47.08zM359.8 202.03h47.08v1.91H359.8zM359.8 206.05h53.62v1.91H359.8zM359.8 210.07h53.62v1.91H359.8zM359.8 214.08h47.08v1.91H359.8zM359.8 218.1h53.62v1.91H359.8zM359.8 222.11h53.62v1.91H359.8zM359.8 226.13h40.54v1.91H359.8zM359.8 230.15h40.54v1.91H359.8zM359.8 234.16h40.54v1.91H359.8zM76.77 268.52h47.08v1.91H76.77zM76.77 272.54h53.62v1.91H76.77zM76.77 276.56h53.62v1.91H76.77zM76.77 280.57h40.54v1.91H76.77zM76.77 284.59h40.54v1.91H76.77zM76.77 288.6h40.54v1.91H76.77zM347.02 181.93h8.07V190h-8.07zM173.71 308.92h40.54v1.91h-40.54zM173.71 312.93h40.54v1.91h-40.54zM173.71 316.95h40.54v1.91h-40.54zM173.71 320.97h47.08v1.91h-47.08zM173.71 324.98h47.08v1.91h-47.08zM173.71 329h47.08v1.91h-47.08zM173.71 333.01h53.62v1.91h-53.62zM173.71 337.03h53.62v1.91h-53.62zM173.71 341.05h47.08v1.91h-47.08zM173.71 345.06h53.62v1.91h-53.62zM173.71 349.08h53.62v1.91h-53.62zM173.71 353.09h40.54V355h-40.54zM173.71 357.11h40.54v1.91h-40.54zM66 272a3.46 3.46 0 1 0 3.46-3.46A3.45 3.45 0 0 0 66 272M164.03 309.63l-3.81 6.6h7.62z" style="fill:#f0f0f0"/><ellipse cx="250" cy="416.24" rx="193.89" ry="11.32" style="fill:#f5f5f5"/><path d="M332.46 127.12h-28.73a8.85 8.85 0 0 0-8.85 8.85v25a8.85 8.85 0 0 0 8.85 8.85h8.39l-7 13.89 13-13.89h14.39a8.85 8.85 0 0 0 8.79-8.82v-25a8.84 8.84 0 0 0-8.84-8.88" style="fill:#407bff"/><path d="M332.46 127.12h-28.73a8.85 8.85 0 0 0-8.85 8.85v25a8.85 8.85 0 0 0 8.85 8.85h8.39l-7 13.89 13-13.89h14.39a8.85 8.85 0 0 0 8.79-8.82v-25a8.84 8.84 0 0 0-8.84-8.88" style="fill:#fff;opacity:.7000000000000001"/><circle cx="318.09" cy="148.36" r="14.26" style="fill:#407bff" transform="rotate(-45 318.093 148.361)"/><path d="M316.6 154.73a1.31 1.31 0 0 1-1-.46l-5.6-6.59a1.31 1.31 0 0 1 2-1.7l4.6 5.41 7.59-8.94a1.31 1.31 0 1 1 2 1.7l-8.58 10.12a1.33 1.33 0 0 1-1.01.46" style="fill:#fff"/><path d="M383 405.89h5.09a2.51 2.51 0 0 1 2.51 2.51v6.32h-10.14v-6.32a2.51 2.51 0 0 1 2.54-2.51" style="fill:#263238"/><path d="M383.38 409.27c0-.42-1.69-42.29-17.06-85.85-14.09-39.92-42.93-89.51-100.31-99l.66-4c26.23 4.35 48.92 17.05 67.43 37.73 14.74 16.46 26.86 38 36 64 15.55 44.13 17.24 86.53 17.25 87ZM403 405.89h5.09a2.51 2.51 0 0 1 2.51 2.51v6.32h-10.12v-6.32a2.51 2.51 0 0 1 2.52-2.51" style="fill:#263238"/><path d="M383 405.89h5.09a2.51 2.51 0 0 1 2.51 2.51v6.32h-10.14v-6.32a2.51 2.51 0 0 1 2.54-2.51M403 405.89h5.09a2.51 2.51 0 0 1 2.51 2.51v6.32h-10.12v-6.32a2.51 2.51 0 0 1 2.52-2.51" style="fill:#fff;opacity:.2"/><path d="M403.54 410.45A72.5 72.5 0 0 0 395 383.8c-10-17.8-26.1-27.87-47.85-29.8l.35-4c28.9 2.55 43.7 18.79 51 32a75 75 0 0 1 9 28.17Z" style="fill:#263238"/><path d="M88.78 405.89H98.9v6.32a2.51 2.51 0 0 1-2.51 2.51H91.3a2.51 2.51 0 0 1-2.51-2.51v-6.32z" style="fill:#263238" transform="rotate(180 93.84 410.305)"/><path d="M92 409.2c0-.46.3-46.78 32.26-78.78 20.32-20.34 48.78-30.66 84.61-30.66v4c-46.84 0-80.06 17.67-98.73 52.53A125.45 125.45 0 0 0 96 409.2Z" style="fill:#263238"/><path d="M88.78 405.89H98.9v6.32a2.51 2.51 0 0 1-2.51 2.51H91.3a2.51 2.51 0 0 1-2.51-2.51v-6.32z" style="fill:#fff;opacity:.2" transform="rotate(180 93.84 410.305)"/><path d="M215.07 299.97h5.54v3.65h-5.54z" style="fill:#263238"/><path d="M215.07 299.97h5.54v3.65h-5.54z" style="fill:#fff;opacity:.7000000000000001"/><rect width="12.59" height="6.53" x="204.85" y="298.53" rx="1.37" style="fill:#263238"/><rect width="12.59" height="6.53" x="204.85" y="298.53" rx="1.37" style="fill:#fff;opacity:.2"/><path d="M253.83 220.46h5.54v3.65h-5.54z" style="fill:#263238" transform="rotate(180 256.6 222.285)"/><path d="M253.83 220.46h5.54v3.65h-5.54z" style="fill:#fff;opacity:.7000000000000001" transform="rotate(180 256.6 222.285)"/><rect width="12.59" height="6.53" x="256.99" y="219.02" rx="1.37" style="fill:#263238" transform="rotate(180 263.29 222.285)"/><rect width="12.59" height="6.53" x="256.99" y="219.02" rx="1.37" style="fill:#fff;opacity:.2" transform="rotate(180 263.29 222.285)"/><path d="M333.74 350.19h5.54v3.65h-5.54z" style="fill:#263238" transform="rotate(180 336.51 352.02)"/><path d="M333.74 350.19h5.54v3.65h-5.54z" style="fill:#fff;opacity:.7000000000000001" transform="rotate(180 336.51 352.02)"/><rect width="12.59" height="6.53" x="336.91" y="348.75" rx="1.37" style="fill:#263238" transform="rotate(180 343.205 352.02)"/><rect width="12.59" height="6.53" x="336.91" y="348.75" rx="1.37" style="fill:#fff;opacity:.2" transform="rotate(180 343.205 352.02)"/><path d="m161.78 323.1 36.71-9.18a49.78 49.78 0 0 1 62 48.26v53.64H123.91v-44.4a49.77 49.77 0 0 1 37.87-48.32" style="fill:#407bff"/><path d="m161.78 323.1 36.71-9.18a49.78 49.78 0 0 1 62 48.26v53.64H123.91v-44.4a49.77 49.77 0 0 1 37.87-48.32" style="fill:#fff;opacity:.2"/><path d="M160.9 312.41h99.52v53.64a49.76 49.76 0 0 1-49.76 49.76 49.76 49.76 0 0 1-49.76-49.76z" style="opacity:.2" transform="rotate(180 210.66 364.115)"/><path d="M205.25 236.05h71.27v105.16h-71.27z" style="fill:#263238" transform="rotate(-5.62 240.814 288.547)"/><rect width="78.24" height="7.74" x="198.11" y="247.59" rx="2.48" style="fill:#263238" transform="rotate(-5.62 237.124 251.401)"/><rect width="78.24" height="7.74" x="198.11" y="247.59" rx="2.48" style="fill:#fff;opacity:.1" transform="rotate(-5.62 237.124 251.401)"/><rect width="78.24" height="7.74" x="199.49" y="261.62" rx="2.48" style="fill:#263238" transform="rotate(-5.62 238.578 265.462)"/><rect width="78.24" height="7.74" x="199.49" y="261.62" rx="2.48" style="fill:#fff;opacity:.1" transform="rotate(-5.62 238.578 265.462)"/><rect width="78.24" height="7.74" x="200.87" y="275.65" rx="2.48" style="fill:#263238" transform="translate(-26.21 24.84)"/><rect width="78.24" height="7.74" x="200.87" y="275.65" rx="2.48" style="fill:#fff;opacity:.1" transform="translate(-26.21 24.84)"/><rect width="78.24" height="7.74" x="202.25" y="289.68" rx="2.48" style="fill:#263238" transform="rotate(-5.62 241.288 293.472)"/><rect width="78.24" height="7.74" x="202.25" y="289.68" rx="2.48" style="fill:#fff;opacity:.1" transform="rotate(-5.62 241.288 293.472)"/><rect width="78.24" height="7.74" x="203.63" y="303.7" rx="2.48" style="fill:#263238" transform="rotate(-5.62 242.64 307.528)"/><rect width="78.24" height="7.74" x="203.63" y="303.7" rx="2.48" style="fill:#fff;opacity:.1" transform="rotate(-5.62 242.64 307.528)"/><rect width="78.24" height="7.74" x="205.01" y="317.73" rx="2.48" style="fill:#263238" transform="rotate(-5.62 244.1 321.487)"/><rect width="78.24" height="7.74" x="205.01" y="317.73" rx="2.48" style="fill:#fff;opacity:.1" transform="rotate(-5.62 244.1 321.487)"/><path d="M207.57 337h85.23v22.52h-92.22V344a7 7 0 0 1 6.99-7" style="fill:#263238"/><path d="M207.57 337h85.23v22.52h-92.22V344a7 7 0 0 1 6.99-7" style="fill:#fff;opacity:.2"/><path d="M244.21 348.23v67.59H160.9v-53.64a49.4 49.4 0 0 1 2-13.95Z" style="fill:#407bff"/><path d="m332.59 323.1-36.71-9.18A49.78 49.78 0 0 0 234 362.18v53.64h136.47v-44.4a49.78 49.78 0 0 0-37.88-48.32" style="fill:#407bff"/><path d="m332.59 323.1-36.71-9.18A49.78 49.78 0 0 0 234 362.18v53.64h136.47v-44.4a49.78 49.78 0 0 0-37.88-48.32" style="fill:#fff;opacity:.2"/><path d="M320.7 321.66a49.76 49.76 0 0 1 49.76 49.76v44.39h-99.52v-44.39a49.76 49.76 0 0 1 49.76-49.76" style="opacity:.2"/><path d="M147.82 370.78h90.84a16.61 16.61 0 0 1 16.61 16.61v28.43H131.22v-28.44a16.61 16.61 0 0 1 16.6-16.6" style="fill:#263238"/><path d="M147.82 370.78h90.84a16.61 16.61 0 0 1 16.61 16.61v28.43H131.22v-28.44a16.61 16.61 0 0 1 16.6-16.6" style="fill:#fff;opacity:.2"/><path d="M144.41 376.23h72.17a13.2 13.2 0 0 1 13.2 13.2v26.39h-98.56v-26.39a13.2 13.2 0 0 1 13.19-13.2" style="fill:#fff;opacity:.2"/><path d="M325.34 340.25c-15.39 0-27.87 13.67-27.87 30.53s12.48 30.52 27.87 30.52c15.4 0 27.88-13.66 27.88-30.52s-12.48-30.53-27.88-30.53" style="opacity:.4"/><path d="M324 341.67c-14.67 0-26.57 13-26.57 29.11 0 16.07 11.9 29.1 26.57 29.1 14.68 0 26.57-13 26.57-29.1.04-16.08-11.85-29.11-26.57-29.11" style="fill:#263238"/><path d="M322.38 357.2h6.48c6.36 0 11.51 6.08 11.51 13.58s-5.15 13.57-11.51 13.57h-6.48c-6.36 0-11.51-6.08-11.51-13.57s5.13-13.58 11.51-13.58" style="fill:#407bff"/><path d="M322.38 357.2h6.48c6.36 0 11.51 6.08 11.51 13.58s-5.15 13.57-11.51 13.57h-6.48c-6.36 0-11.51-6.08-11.51-13.57s5.13-13.58 11.51-13.58" style="opacity:.4"/><ellipse cx="328.86" cy="370.78" rx="11.52" ry="13.57" style="fill:#407bff"/><path d="M328.86 382.2c5 0 9.2-5.23 9.2-11.42s-4.22-11.43-9.2-11.43-9.2 5.24-9.2 11.43 4.21 11.42 9.2 11.42" style="opacity:.4"/><path d="M327.9 381c4.47 0 8.24-4.69 8.24-10.23s-3.77-10.24-8.24-10.24-8.24 4.69-8.24 10.24S323.43 381 327.9 381" style="fill:#263238"/><path d="M187.34 396.17c0 2.79-2 5-4.41 5s-4.4-2.25-4.4-5 2-5 4.4-5 4.41 2.22 4.41 5" style="opacity:.4"/><path d="M187.34 396.17a3.18 3.18 0 1 1-3.15-3.59 3.4 3.4 0 0 1 3.15 3.59" style="fill:#407bff"/><path d="M200.49 396.17c0 2.79-2 5-4.4 5s-4.4-2.25-4.4-5 2-5 4.4-5 4.4 2.22 4.4 5" style="opacity:.4"/><path d="M200.49 396.17a3.17 3.17 0 1 1-3.14-3.59 3.39 3.39 0 0 1 3.14 3.59" style="fill:#407bff"/><path d="M213.65 396.17c0 2.79-2 5-4.4 5s-4.4-2.25-4.4-5 2-5 4.4-5 4.4 2.22 4.4 5" style="opacity:.4"/><path d="M213.65 396.17a3.17 3.17 0 1 1-3.14-3.59 3.4 3.4 0 0 1 3.14 3.59" style="fill:#407bff"/><rect width="9.07" height="10.07" x="141.67" y="391.14" rx="2.3" style="opacity:.4"/><rect width="7.05" height="8.05" x="143.69" y="392.15" rx="1.84" style="fill:#407bff"/><path d="M198.37 226.57h60.29V272a8.63 8.63 0 0 1-8.63 8.63h-51.66z" style="fill:#263238"/><path d="M198.37 226.57h60.29V272a8.63 8.63 0 0 1-8.63 8.63h-51.66z" style="fill:#fff;opacity:.2"/><path d="M221.81 268.8a5.39 5.39 0 0 1-5.39-5.4v-22.66a5.39 5.39 0 0 1 5.39-5.4 5.4 5.4 0 0 1 5.4 5.4v22.66a5.4 5.4 0 0 1-5.4 5.4" style="fill:#263238"/><path d="M282.7 179.27V224a13.43 13.43 0 0 1-13.43 13.43h-34.22c-5.18 0-18.63 4.2-18.63 9.38v18h-58.49v-74.18a39.27 39.27 0 0 1 39.28-39.28h57.57a27.92 27.92 0 0 1 27.92 27.92" style="fill:#407bff"/><path d="M282.7 179.27V224a13.43 13.43 0 0 1-13.43 13.43h-34.22c-5.18 0-18.63 4.2-18.63 9.38v18h-58.49v-74.18a39.27 39.27 0 0 1 39.28-39.28h57.57a27.92 27.92 0 0 1 27.92 27.92" style="fill:#fff;opacity:.2"/><path d="M203.88 198.18h-6.47c-6.36 0-11.52 6.08-11.52 13.58s5.16 13.57 11.52 13.57h6.47c6.36 0 11.52-6.08 11.52-13.57s-5.16-13.58-11.52-13.58" style="fill:#407bff"/><ellipse cx="197.41" cy="211.76" rx="11.52" ry="13.57" style="fill:#fff;opacity:.30000000000000004"/><path d="M197.41 223.18c-5 0-9.2-5.23-9.2-11.42s4.21-11.43 9.2-11.43 9.2 5.23 9.2 11.43-4.21 11.42-9.2 11.42" style="opacity:.4"/><path d="M198.37 222c-4.47 0-8.25-4.69-8.25-10.23s3.78-10.24 8.25-10.24 8.24 4.69 8.24 10.24-3.77 10.23-8.24 10.23" style="fill:#263238"/><path d="M195 210.81c-1.3 0-2.39-1.36-2.39-3s1.09-3 2.39-3 2.39 1.36 2.39 3-1.08 3-2.39 3" style="fill:#fff;opacity:.5"/><path d="M167.82 198.18h-6.47c-6.36 0-11.52 6.08-11.52 13.58s5.16 13.57 11.52 13.57h6.47c6.36 0 11.51-6.08 11.51-13.57s-5.15-13.58-11.51-13.58" style="fill:#407bff"/><ellipse cx="161.35" cy="211.76" rx="11.52" ry="13.57" style="fill:#fff;opacity:.30000000000000004"/><path d="M161.35 223.18c-5 0-9.21-5.23-9.21-11.42s4.22-11.43 9.21-11.43 9.2 5.23 9.2 11.43-4.22 11.42-9.2 11.42" style="opacity:.4"/><path d="M162.3 222c-4.47 0-8.24-4.69-8.24-10.23s3.77-10.24 8.24-10.24 8.25 4.69 8.25 10.24S166.77 222 162.3 222" style="fill:#263238"/><path d="M159 210.81c-1.29 0-2.39-1.36-2.39-3s1.1-3 2.39-3a3 3 0 0 1 0 5.94Z" style="fill:#fff;opacity:.5"/><path d="M170.9 251.09h13.35v-29.1h-7.07l-13.34 29.1z" style="fill:#263238"/><path d="M170.9 251.09h-7.06l13.34-29.1h7.07z" style="fill:#fff;opacity:.2"/><path d="M258.66 270.54v1.57A29.66 29.66 0 0 1 229 301.76h-42.34A29.66 29.66 0 0 1 157 272.11v-12.57h58.49v9.38a9.39 9.39 0 0 0 9.38 9.38h26a7.77 7.77 0 0 0 7.79-7.76" style="fill:#263238"/><path d="M258.66 270.54v1.57A29.66 29.66 0 0 1 229 301.76h-42.34A29.66 29.66 0 0 1 157 272.11v-12.57h58.49v9.38a9.39 9.39 0 0 0 9.38 9.38h26a7.77 7.77 0 0 0 7.79-7.76" style="fill:#fff;opacity:.2"/><path d="M168.25 272.27a2.78 2.78 0 0 0-2.75 3.09 29.67 29.67 0 0 0 29.5 26.4h5.54A29.66 29.66 0 0 1 171 274.83a2.78 2.78 0 0 0-2.75-2.56" style="opacity:.2"/><path d="M182.12 272.27a2.78 2.78 0 0 0-2.75 3.09 29.67 29.67 0 0 0 29.49 26.4h5.54a29.67 29.67 0 0 1-29.53-26.93 2.78 2.78 0 0 0-2.75-2.56" style="opacity:.2"/><path d="M196 272.27a2.78 2.78 0 0 0-2.75 3.09 29.67 29.67 0 0 0 29.49 26.4h5.54a29.67 29.67 0 0 1-29.53-26.93 2.78 2.78 0 0 0-2.75-2.56" style="opacity:.2"/><path d="M215.88 264.77h-58.64a3.44 3.44 0 0 1-3.45-3.45 3.45 3.45 0 0 1 3.45-3.46h58.64a3.46 3.46 0 0 1 3.46 3.46 3.45 3.45 0 0 1-3.46 3.45" style="fill:#263238"/><path d="M219.34 261.32a3.48 3.48 0 0 1-3.46 3.46h-58.64a3.46 3.46 0 0 1-2.44-5.91 3.4 3.4 0 0 1 2.44-1h58.64a3.46 3.46 0 0 1 3.46 3.45" style="fill:#fff;opacity:.4"/><path d="M219.34 261.32a3.48 3.48 0 0 1-3.46 3.46h-.38a3.46 3.46 0 1 1 0-6.92h.38a3.46 3.46 0 0 1 3.46 3.46" style="opacity:.2"/><path d="M275 210.6v16.67a4.54 4.54 0 0 1-4.55 4.54H253.8a4.54 4.54 0 0 1-4.54-4.54V210.6a4.54 4.54 0 0 1 4.54-4.53h16.66a4.54 4.54 0 0 1 4.54 4.53" style="fill:#407bff"/><path d="M275 210.6v16.67a4.54 4.54 0 0 1-4.55 4.54h-11.1a4.54 4.54 0 0 1-4.54-4.54V210.6a4.53 4.53 0 0 1 4.54-4.53h11.11a4.54 4.54 0 0 1 4.54 4.53" style="opacity:.2"/><path d="M271.7 213.05h-11.61a1.14 1.14 0 0 1-1.15-1.14 1.14 1.14 0 0 1 1.15-1.15h11.61a1.14 1.14 0 0 1 1.14 1.15 1.14 1.14 0 0 1-1.14 1.14M271.7 217.74h-11.61a1.14 1.14 0 0 1-1.15-1.15 1.14 1.14 0 0 1 1.15-1.14h11.61a1.14 1.14 0 0 1 1.14 1.14 1.14 1.14 0 0 1-1.14 1.15M271.7 222.43h-11.61a1.15 1.15 0 0 1-1.15-1.15 1.14 1.14 0 0 1 1.15-1.14h11.61a1.14 1.14 0 0 1 1.14 1.14 1.15 1.15 0 0 1-1.14 1.15M271.7 227.12h-11.61a1.15 1.15 0 0 1-1.15-1.15 1.14 1.14 0 0 1 1.15-1.14h11.61a1.14 1.14 0 0 1 1.14 1.14 1.15 1.15 0 0 1-1.14 1.15" style="fill:#263238"/><path d="M286.4 185.49V190a3.7 3.7 0 0 1-3.7 3.7v-10.78a28.83 28.83 0 0 0-28.83-28.83H231A29.86 29.86 0 0 0 201.14 184a7.93 7.93 0 0 1-7.93 7.93h-28a6.4 6.4 0 0 1-6.39-6.4 39.28 39.28 0 0 1 39.28-39.27h49a39.29 39.29 0 0 1 39.3 39.23" style="fill:#407bff"/><path d="M270.94 184.28c2.49 0 4.6 2.62 4.6 5.71s-2.11 5.72-4.6 5.72-4.6-2.62-4.6-5.72 2.11-5.71 4.6-5.71" style="opacity:.4"/><path d="M270.46 184.88c2.23 0 4.12 2.34 4.12 5.11s-1.89 5.12-4.12 5.12-4.12-2.34-4.12-5.12 1.89-5.11 4.12-5.11" style="fill:#263238"/><path d="M258.07 184.28c2.49 0 4.6 2.62 4.6 5.71s-2.11 5.72-4.6 5.72-4.6-2.62-4.6-5.72 2.1-5.71 4.6-5.71" style="opacity:.4"/><path d="M257.59 184.88c2.23 0 4.12 2.34 4.12 5.11s-1.89 5.12-4.12 5.12-4.12-2.34-4.12-5.12 1.88-5.11 4.12-5.11" style="fill:#263238"/><path d="M245.19 184.28c2.5 0 4.6 2.62 4.6 5.71s-2.1 5.72-4.6 5.72-4.6-2.62-4.6-5.72 2.11-5.71 4.6-5.71" style="opacity:.4"/><path d="M244.71 184.88c2.24 0 4.13 2.34 4.13 5.11s-1.89 5.12-4.13 5.12-4.12-2.34-4.12-5.12 1.89-5.11 4.12-5.11" style="fill:#263238"/><path d="M264.5 169.49c2.5 0 4.6 2.61 4.6 5.71s-2.1 5.71-4.6 5.71-4.6-2.62-4.6-5.71 2.1-5.71 4.6-5.71" style="opacity:.4"/><path d="M264 170.08c2.24 0 4.13 2.35 4.13 5.12s-1.89 5.12-4.13 5.12-4.12-2.35-4.12-5.12 1.91-5.12 4.12-5.12" style="fill:#263238"/><path d="M251.63 169.49c2.49 0 4.6 2.61 4.6 5.71s-2.11 5.71-4.6 5.71-4.6-2.62-4.6-5.71 2.11-5.71 4.6-5.71" style="opacity:.4"/><path d="M251.15 170.08c2.23 0 4.12 2.35 4.12 5.12s-1.89 5.12-4.12 5.12S247 178 247 175.2s1.92-5.12 4.15-5.12" style="fill:#263238"/></svg>