<svg xmlns="http://www.w3.org/2000/svg" viewBox="0 0 500 500"><path d="M45.75 444.84c130.86-.62 277.64-.62 408.5 0-130.86.61-277.64.61-408.5 0" style="fill:#263238"/><path d="M278.87 417.69c-4.21 2.19-8.88 4.72-13.75 3.63-4.5-1-9.25-3.43-10.91-8-.47-1.31-.56-2.22 1-2.33 2.43-.16 5.09 1.35 7.26 2.25a48.4 48.4 0 0 0 8.63 2.81c2.08.44 4.21.67 6.3 1.06.27 0 .53.09.79.15l.3.06.13-.05a.21.21 0 0 1 .22 0l.07.05a.26.26 0 0 1-.04.37" style="fill:#455a64"/><path d="M279 417.3c-3.8 1.74-7.79 3.85-12 2.73a19.3 19.3 0 0 1-5.53-2.59c-.77-.5-3.08-2-2.95-3.09.26-2 7.71 2.08 8.61 2.37a20.3 20.3 0 0 0 10.38.36c.27 0 .53.09.79.15a22.4 22.4 0 0 1-7.39.58c-3.44-.32-6-2-9.19-3.17-.68-.26-2.81-1.21-2.85 0 0 .82 2.23 2.29 2.71 2.6a19.2 19.2 0 0 0 5.24 2.46c4.25 1.19 8.26-.83 12.13-2.48Z" style="fill:#fff"/><path d="M282.48 419.17c0 .19.09.37.13.55a.13.13 0 0 1 0 .12.19.19 0 0 1-.27 0 .2.2 0 0 1-.05-.1s0 0 0-.08v-.16c-2.11-2.47-3.82-5.28-6-7.73s-4.27-4.55-6.14-7.05c-1.18-1.58-6.56-9.75-2.19-10.5 1.94-.33 4.29 1.59 5.64 2.76a19.8 19.8 0 0 1 4.42 5.6c2.74 5.18 3.1 10.97 4.46 16.59" style="fill:#455a64"/><path d="M278.52 407.7a23 23 0 0 0-3.45-5.64c-.49-.59-2.86-3.41-3.91-2.81-.68.38-.14 1.83 0 2.32.68 2.06 2.26 3.75 3.54 5.46a89 89 0 0 1 7 11c.08.26.16.53.25.79s.15.43.22.65 0 .15.07.23l.06.17a.2.2 0 0 0 .27 0c-.06-.17-.11-.34-.16-.51l.2.39-.12-.44v-.1l-.32-.65a97 97 0 0 0-3.65-10.86m2.91 9.45c-1.2-2.24-2.52-4.42-3.92-6.54-1.14-1.71-2.35-3.36-3.6-5a22.3 22.3 0 0 1-2-2.86c-.41-.78-1.7-3.79.69-2.69 1.73.81 3.34 3.51 4.25 5.07a33 33 0 0 1 2.49 5.48c.8 2.16 1.43 4.39 2.09 6.54" style="fill:#fff"/><path d="m290.4 429.84-.15.09c-4 1.67-9.06 4.53-13.56 3.49-3.32-.76-7.49-3.42-8.26-7-.86-4 6.1-2 7.89-1.59a134 134 0 0 1 14.06 4.77h.09c.07.1.01.17-.07.24" style="fill:#455a64"/><path d="m290.48 429.66-.88-.11c-3.35-.39-6.69-.92-10-1.63-.83-.17-7.11-2-7.11-.27 0 1 2.29 2.07 3 2.43a13.2 13.2 0 0 0 4.24 1.24c3.39.38 6.73-.78 10.06-1.4l.47-.1h.09c.13-.05.19-.12.13-.16m-8.82 1.46a13.3 13.3 0 0 1-4.47-.67c-1-.31-4.39-1.55-4.24-2.81.09-.67.49-.52 1.26-.52a10 10 0 0 1 1.06.09c.86.12 1.71.33 2.55.53 1.49.35 3 .66 4.48.93 2.45.47 4.92.82 7.4 1.1-2.7.4-5.32 1.29-8.04 1.35" style="fill:#fff"/><path d="M293.71 418.35a25.73 25.73 0 0 1-1.12 14.93l-.06.08a.2.2 0 0 1-.23 0 .18.18 0 0 1-.09-.23l.1-.3c-1.89-5.64-3.7-11.27-5.7-16.88-.47-1.32-3.31-9.8-.23-9.67 1.91.08 3.58 3.31 4.41 4.73a26 26 0 0 1 2.92 7.34" style="fill:#455a64"/><path d="M288.88 411.88c-.35-.38-.8-.73-1.15-.18-.67 1.06.75 5 1.09 6.13 1.39 4.61 2.34 9.23 3.31 13.93.08.39.17.79.25 1.19l-.08.43a.18.18 0 0 0 .23 0 .5.5 0 0 0 0-.12c0-.19.09-.39.12-.59a30.4 30.4 0 0 0 .28-9.41 29.7 29.7 0 0 0-1.37-5.82c-.63-1.76-1.41-4.18-2.68-5.56m3.59 20.49v.28c0-.17 0-.33-.07-.5a87 87 0 0 0-2.27-10.92c-.52-1.82-1.15-3.6-1.6-5.43-.18-.77-.8-2.95-.37-3.56s.79.19 1.07.61.47.9.63 1.2a30 30 0 0 1 2.61 18.32" style="fill:#fff"/><path d="m298.72 444.46-.79.38c-.34-.69-.68-1.37-1-2-1.42-2.74-2.86-5.47-4.36-8.17-.85-1.55-1.71-3.07-2.62-4.55a1 1 0 0 1-.09-.15l-.23-.37-.25-.38a37.4 37.4 0 0 0-7.57-8.95c-1-.85-2.07-1.64-3.14-2.42l-.31-.22-.08-.06-.32-.23c-.09-.05-.16-.11-.25-.17-3.33-2.32-6.86-4.38-10.29-6.51-1-.61-2-1.22-2.94-1.85a.8.8 0 0 1-.18-.11 2 2 0 0 1-.22-.13c-4.33-2.72-8.64-5.49-13-8.1-.16-.09 0-.33.17-.23 2.94 1.71 5.93 3.35 8.91 5l1.19.67c.79.44 1.57.87 2.35 1.32 1.56.88 3.11 1.77 4.65 2.69a125 125 0 0 1 12.79 8.24c.29.23.59.46.88.71s.37.29.54.45l.63.52a40.2 40.2 0 0 1 8.52 11.09c.16.28.33.57.48.87.07.13.15.26.23.39a1.5 1.5 0 0 0 .11.22l.15.28.1.21c.14.25.27.5.4.75 1.44 2.73 2.84 5.48 4.23 8.23.39.83.85 1.71 1.31 2.58" style="fill:#455a64"/><path d="M251.27 405.19c-3.52-1.86-9.11-6.51-7.43-11.11a3.74 3.74 0 0 1 4.33-2.47c2.24.41 4.08 2.34 5.53 4 3.85 4.36 7.27 9 11.44 13.13 0 0 .35.35.45.44s-.06.2-.15.12l-.41-.4c-4.6-.9-9.59-1.5-13.76-3.71" style="fill:#455a64"/><path d="m265.17 408.71-.09-.07a40 40 0 0 1-3.79-2.77 81 81 0 0 1-7-6.8c-.86-.92-4.93-5.48-5.82-2.47-.37 1.27.5 2.79 1.14 3.82a14.7 14.7 0 0 0 4 4.19 26.9 26.9 0 0 0 10.67 4l.52.11.14.09.09.06a.1.1 0 0 0 .07 0 .13.13 0 0 0 .13-.15.08.08 0 0 0-.06-.01m-1.12-.19a31.4 31.4 0 0 1-8.93-3.18 16.7 16.7 0 0 1-3.88-3.07 13.6 13.6 0 0 1-1.35-1.75 9.6 9.6 0 0 1-.8-1.44c-.48-1.11-.6-2.52 0-2.94s1.22-.18 2.18.48c.32.22.63.48.93.73a29 29 0 0 1 2.09 2.09c1.11 1.19 2.23 2.37 3.39 3.51q1.18 1.17 2.43 2.25a40 40 0 0 0 4.53 3.45Z" style="fill:#fff"/><path d="M416.36 403.46c-1.69 2.71-3.56 5.3-5.45 7.87-1.07 1.46-2.17 2.9-3.24 4.37s-2.54 3.17-2.89 5.18a1.6 1.6 0 0 1-.1.26.25.25 0 0 1-.35-.24v-.18a7.1 7.1 0 0 1 .07-1.78 41 41 0 0 1 .49-4.82 39.9 39.9 0 0 1 2.71-9.52 33 33 0 0 1 4.54-7.6c1.48-1.85 3.65-4.63 5.94-5.5 2.08-.79 2.19 2.06 2.05 3.42-.31 3.08-2.13 5.98-3.77 8.54" style="fill:#455a64"/><path d="M416.61 396.17c-1.05-.49-3.38 2.55-4.43 3.84a32 32 0 0 0-4.16 6.64 41.6 41.6 0 0 0-3.63 13.53c0 .19-.05.38-.06.57v.05a.5.5 0 0 0 0 .13.24.24 0 0 0 .34.24c.1-.39.2-.76.33-1.13s.22-.67.34-1a55 55 0 0 1 5.44-10.04c2.36-3.8 7.22-12.18 5.83-12.83m-11.78 23.46c-.17.49-.31 1-.43 1.48l.15-1.14a46.2 46.2 0 0 1 3.14-12 32.6 32.6 0 0 1 3.39-6.11 29 29 0 0 1 2.35-2.93c.35-.39 2.43-2.87 3-2.43.41.32-.67 2.92-.69 3-.2.52-.44 1-.69 1.55-.5 1.05-1.06 2.07-1.63 3.08-1.26 2.18-2.64 4.3-4 6.45a43 43 0 0 0-4.59 9.05" style="fill:#fff"/><path d="M429.19 419.05c-3.66 2.86-8.23 4.24-12.72 5.15-2.41.49-4.84.87-7.25 1.3a32 32 0 0 0-6.42 1.5 2 2 0 0 0-.27.11 8.3 8.3 0 0 0-1.6.89.11.11 0 0 1-.12 0l-.14.14s-.09 0-.07-.05a2 2 0 0 0 .11-.18.13.13 0 0 1 .06-.15s0 0 .06-.05l.11-.17c2.58-4.14 7.7-7.15 11.86-9.33s8.75-3.68 13.48-3.37c1.18.08 4 .07 4.61 1.37s-.89 2.23-1.7 2.84" style="fill:#455a64"/><path d="M426.21 417.69c-.49-1.34-4.23-.33-5.15-.11a49.3 49.3 0 0 0-8.08 2.83 44.6 44.6 0 0 0-11.88 7l-.15.08-.11.17-.06.05a.13.13 0 0 0-.06.15l.21-.09c.52-.26 1.06-.5 1.6-.72l.27-.12a96 96 0 0 1 11.74-3.49 45.7 45.7 0 0 0 8-2.83c.7-.3 4.08-1.8 3.67-2.92m-1.77 1.62c-4 2.72-9.23 3.65-13.84 4.85a49.7 49.7 0 0 0-9.12 3.08 46.7 46.7 0 0 1 10.86-6.24 64 64 0 0 1 6.68-2.57 25.5 25.5 0 0 1 3.76-.92 10 10 0 0 1 2.33-.14c1.44.24.02 1.47-.67 1.94" style="fill:#fff"/><path d="M396.18 436.61a.25.25 0 0 1-.25 0v.1s0 .07-.06.08-.07 0-.09 0c-1.88-5.27-3.27-11.26-2.83-16.87a22 22 0 0 1 1.66-6.91c.64-1.49 1.94-4.5 3.7-5 3.55-1 1.62 9.26 1.32 10.81-.54 2.81-1.31 5.57-1.91 8.38-.64 3.07-1.06 6.17-1.49 9.28a.2.2 0 0 1-.05.13" style="fill:#455a64"/><path d="M396.18 436.61c0-.3-.06-.59-.07-.89a47 47 0 0 1 1.12-14.45 44 44 0 0 0 1.29-7.21c0-.6.29-2.85-1-2.25-.68.31-2 4.19-2.3 5.22a30.2 30.2 0 0 0-.86 7.26 49.2 49.2 0 0 0 1.45 12.18c0 .11.05.23.08.34s.07 0 .06-.08a.3.3 0 0 1 0-.09.27.27 0 0 0 .23-.03m-1.51-10.28a34.5 34.5 0 0 1 .39-7.25 26 26 0 0 1 .65-2.82 16 16 0 0 1 .78-2.13c.79-1.67 1.12-2 1.43-2s.35.34.38 1.57a12.6 12.6 0 0 1-.23 2.37c-.2 1.11-.43 2.21-.68 3.31-.49 2.2-1 4.39-1.34 6.62a36 36 0 0 0-.18 9.66 55.4 55.4 0 0 1-1.2-9.33" style="fill:#fff"/><path d="M411.67 433.1a14 14 0 0 1-4.59 3.77c-3.46 1.94-7.28 3.11-10.86 4.8-.54.25-1.07.52-1.6.8-.05 0-.6.52-.57.47s.15-.23.41-.58c1.27-1.76 5.18-7 8.08-9.31a28.5 28.5 0 0 1 5.81-3.71c1-.44 3.27-1.33 4.27-.44s-.35 3.35-.95 4.2" style="fill:#455a64"/><path d="M410.33 431.05c-.88-1.34-6.7 2.87-7.47 3.41a40.3 40.3 0 0 0-7.65 7c-.26.3-.5.6-.75.91l-.41.57s.52-.43.58-.46l.27-.15 1.31-.65c2.34-1.43 4.72-2.82 7-4.3a36.5 36.5 0 0 0 4.76-3.54c.37-.31 2.75-2.21 2.36-2.79m-1.09 1.44c-4.05 4.13-9.45 6.37-14.22 9.5l-.23.15c.1-.11.19-.23.29-.33a45.2 45.2 0 0 1 6.25-5.89 46 46 0 0 1 4.33-2.94 22 22 0 0 1 2.51-1.41c.38-.16 1.45-.57 1.64-.33s-.31.97-.57 1.25" style="fill:#fff"/><path d="M443 398c-7.58 6.73-19 6.2-27 12.4-.25.19-.48.39-.72.59a.19.19 0 0 1-.3-.09.14.14 0 0 1 .05-.14l.17-.15a48.4 48.4 0 0 1 12-12.38c3.91-2.91 8.48-5.21 13.43-5.4 1.22-.05 3.64-.23 4.36 1.12s-1.07 3.21-1.99 4.05" style="fill:#455a64"/><path d="M439.52 396.82c-.31-.56-1.21-.47-1.71-.45a15.2 15.2 0 0 0-3.67.62 25.5 25.5 0 0 0-6.89 3.22 53 53 0 0 0-10.15 8.19c-.67.72-1.31 1.46-1.92 2.24-.07.09-.14.19-.22.28a.19.19 0 0 0 .3.09c.22-.2.45-.38.69-.57l.06-.05a31.3 31.3 0 0 1 4.85-3.6 72 72 0 0 1 8.51-4c1.14-.46 11.22-4.04 10.15-5.97M438 398.5c-2 1.47-4.52 2.28-6.81 3.27s-4.63 2-6.93 3a36 36 0 0 0-5.24 2.9 28 28 0 0 0-3.89 3.13 37 37 0 0 1 3.39-3.55h.05a70 70 0 0 1 6.84-5.44l.09-.07a32.2 32.2 0 0 1 6.69-3.79 18.7 18.7 0 0 1 4-1.12c1.57-.22 2.86-.24 3 .29.12.31-.56.95-1.19 1.38" style="fill:#fff"/><path d="M425.59 401.94a322 322 0 0 0-6.54 5.72l-3 2.73s-.05 0-.06.05l-1.1 1a83 83 0 0 0-9.59 9.42 37.5 37.5 0 0 0-3.82 5.93c-.11.22-.22.43-.34.64-.06.12-.12.24-.17.36a1.2 1.2 0 0 0-.1.2c-.93 1.82-1.76 3.68-2.56 5.5-1.12 2.54-2.06 5.14-3 7.74a2 2 0 0 0-.08.23c0 .12-.08.24-.13.36l-.1.18-.12.33q-.43 1.26-.9 2.52l-.77-.36a56 56 0 0 1 2.51-7.86 1 1 0 0 1 .07-.15c.09-.25.19-.51.3-.75s.24-.61.37-.91c.31-.74.62-1.46.93-2.18a58.5 58.5 0 0 1 6.64-12l.24-.29a.6.6 0 0 1 .1-.13l.16-.21.28-.34c.16-.2.34-.39.5-.58l.16-.18a88 88 0 0 1 9-8.27l1.69-1.42.94-.78 1.45-1.16h.05c2.27-1.82 4.58-3.6 6.84-5.44.11-.16.25.01.15.1" style="fill:#455a64"/><path d="M243.47 62h-169a17.26 17.26 0 0 0-17.1 17.42v348a17.27 17.27 0 0 0 17.1 17.42h169a17.28 17.28 0 0 0 17.12-17.42v-348A17.27 17.27 0 0 0 243.47 62m6.43 354.67c0 9.16-6.86 16.57-15.32 16.57H83.34c-8.48 0-15.34-7.41-15.34-16.57V92.6C68 73.94 74.86 73 83.34 73h30.29c1.76 0 3.2 2 3.2 4.48v1.07c0 5.81 3.18 5.83 7.09 5.83H194c3.94 0 7.09 0 7.09-5.83v-1.04c0-2.48 1.42-4.48 3.21-4.48h30.3c8.4-.03 15.3 2.48 15.3 19.57Z" style="fill:#263238"/><path d="M168.5 77.15h-19.11a1.18 1.18 0 0 1-1.18-1.15 1.18 1.18 0 0 1 1.18-1.18h19.11a1.18 1.18 0 0 1 1.18 1.18 1.18 1.18 0 0 1-1.18 1.15" style="fill:#fff"/><path d="M249.9 92.6v324.06c0 9.16-6.86 16.57-15.32 16.57H83.34c-8.48 0-15.34-7.41-15.34-16.57V92.6C68 73.94 74.86 73 83.34 73h30.29c1.76 0 3.2 2 3.2 4.48v1.07c0 5.81 3.18 5.83 7.09 5.83H194c3.94 0 7.09 0 7.09-5.83v-1.04c0-2.48 1.42-4.48 3.21-4.48h30.3c8.4-.03 15.3 2.48 15.3 19.57" style="fill:#fff"/><path d="M249.89 92.6v34.18H68V92.6C68 73.94 74.85 73 83.33 73h30.3c1.76 0 3.2 2 3.2 4.48v1.07c0 5.81 3.18 5.83 7.08 5.83H194c3.94 0 7.1 0 7.1-5.83v-1.04c0-2.48 1.42-4.48 3.21-4.48h30.29c8.4-.03 15.29 2.48 15.29 19.57" style="fill:#407bff"/><path d="m86.41 118.84-5.37-5.03 5.37-5.04.84.89-4.43 4.15 4.43 4.15zM236.87 111.73a1.06 1.06 0 1 1-1.06-1.06 1.06 1.06 0 0 1 1.06 1.06M236.87 115.49a1.06 1.06 0 1 1-1.06-1.06 1.06 1.06 0 0 1 1.06 1.06M236.87 119.25a1.06 1.06 0 1 1-1.06-1.06 1.06 1.06 0 0 1 1.06 1.06M108.4 80.3l-.29.3-.17.16a4 4 0 0 0-5.64 0 1.3 1.3 0 0 0-.16-.17l-.29-.29.37-.33a4.7 4.7 0 0 1 .85-.54 4.1 4.1 0 0 1 1.14-.38 5 5 0 0 1 .56-.08h.89a4.8 4.8 0 0 1 1 .25 4.7 4.7 0 0 1 1.37.8l.31.28Z" style="fill:#fff"/><path d="M103.23 81.68c-.16-.15-.31-.3-.46-.46a3.33 3.33 0 0 1 4.71 0l-.47.46a2.6 2.6 0 0 0-1.89-.78 2.65 2.65 0 0 0-1.89.78" style="fill:#fff"/><path d="M106.55 82.14c-.15.16-.3.31-.46.46a1.34 1.34 0 0 0-1-.4 1.32 1.32 0 0 0-1 .41c-.15-.16-.3-.31-.46-.46a2 2 0 0 1 2.92-.01" style="fill:#fff"/><path d="M105.54 83a.42.42 0 0 1-.42.42.41.41 0 0 1-.41-.42.41.41 0 0 1 .41-.41.41.41 0 0 1 .42.41M79.86 81.19a1.21 1.21 0 1 1 1.2 1.2 1.21 1.21 0 0 1-1.2-1.2M83.66 81.19a1.21 1.21 0 1 1 1.2 1.2 1.21 1.21 0 0 1-1.2-1.2M87.45 81.19a1.21 1.21 0 1 1 1.21 1.2 1.21 1.21 0 0 1-1.21-1.2M91.25 81.19a1.21 1.21 0 1 1 1.21 1.2 1.21 1.21 0 0 1-1.21-1.2M95.05 81.19a1.21 1.21 0 1 1 1.2 1.2 1.21 1.21 0 0 1-1.2-1.2M236.25 83.82h-9.81v-4.55h9.81Zm-9.31-.5h8.81v-3.55h-8.81Z" style="fill:#fff"/><path d="M227.25 80.05h6.33v3h-6.33zM236.26 80.33h.87v2.43h-.87z" style="fill:#fff"/><path d="M95.64 413.42h-1.39v6.35h-2.58v-3.24h-4.58v3.24h-2.58v-6.35h-1.38l6.25-6.47zM219.7 406.95h15.08v2.15H219.7zM219.7 412.28h15.08v2.15H219.7zM219.7 417.61h15.08v2.15H219.7z" style="fill:#ebebeb"/><path d="M94.61 276.05h97.72V235.2H94.61z" style="fill:#407bff"/><path d="M102.06 242.26h82.82v.78h-82.82zM102.06 246.45h58.91v.78h-58.91zM102.06 254.84h73.35v.78h-73.35zM102.06 259.03h82.82v.78h-82.82zM102.06 263.22h82.82v.78h-82.82zM102.06 267.41h50.92v.78h-50.92z" style="fill:#fff"/><path d="M192.33 247.25V235.2h14.54zM94.61 381.89h97.72v-28.85H94.61zM192.33 365.09v-12.05h14.54z" style="fill:#407bff"/><path d="M102.06 360.11h82.82v.78h-82.82zM102.06 364.3h58.91v.78h-58.91zM102.06 372.68h73.35v.78h-73.35z" style="fill:#fff"/><path d="M131.08 147.45h97.72v34.46h-97.72zM131.08 159.5v-12.05h-14.55z" style="fill:#dbdbdb"/><path d="M138.68 153.81h63.57v.78h-63.57zM138.68 158.01h82.82v.78h-82.82zM138.68 162.2h82.82v.78h-82.82zM138.68 166.39h73.7v.78h-73.7zM138.68 170.58h82.82v.78h-82.82zM138.68 174.77h52.74v.78h-52.74z" style="fill:#fff"/><path d="M131.08 187.49h97.72v25.56h-97.72z" style="fill:#dbdbdb"/><path d="M138.68 193.86h82.62v.78h-82.62zM138.68 198.05h62.27v.78h-62.27zM138.68 202.24h71.78v.78h-71.78zM138.68 206.43h47.97v.78h-47.97z" style="fill:#fff"/><path d="M131.08 199.54v-12.05h-14.55zM131.08 296.31h97.72v36.03h-97.72zM131.08 308.36v-12.05h-14.55z" style="fill:#dbdbdb"/><path d="M139.82 315.12h76.42v.78h-76.42zM139.82 319.31h67.56v.78h-67.56zM139.82 306.74h70.14v.78h-70.14zM139.82 302.55h81.39v.78h-81.39zM139.82 323.5h71.11v.78h-71.11z" style="fill:#fff"/><circle cx="222.13" cy="256.88" r="17.25" style="fill:#c7c7c7"/><path d="M227.07 262.46" style="fill:#ebebeb"/><path d="M228.74 269.13a.2.2 0 0 1 0 .07v.11c0 .21-.06.47-.09.77s-.09.84-.14 1.33-.09.86-.14 1.32v.25l-.31.11a2 2 0 0 1-.31.11 17.3 17.3 0 0 1-8.44.68h-.12a16 16 0 0 1-2.58-.67 2 2 0 0 1-.3-.1L216 273v-.26c0-.46-.1-.9-.14-1.31s-.09-.94-.14-1.32-.06-.58-.09-.79 0-.07 0-.1a.2.2 0 0 1 0-.07.5.5 0 0 1 0-.12.5.5 0 0 1 .06-.21.57.57 0 0 1 .33-.3 21.4 21.4 0 0 1 3.49-.86l.4-.06.49-.06.6-.06h.1c.39 0 .74-.05 1.06-.05.33 0 .71 0 1.11.05h.09l.66.07.53.07h.23a21 21 0 0 1 3.53.87.54.54 0 0 1 .34.32.37.37 0 0 1 .06.21.3.3 0 0 1 .03.11" style="fill:#407bff"/><path d="M219.25 273.89h-.12l-.07-2.56-.05-1.76v-1.76l.09 1.76.08 1.75ZM218.43 269.07a.3.3 0 0 1-.19.1.27.27 0 0 1-.24-.17.26.26 0 0 1 .18-.3.26.26 0 0 1 .21 0 .25.25 0 0 0-.23-.09.4.4 0 0 0-.23.13.37.37 0 0 0-.06.27.33.33 0 0 0 .16.22.32.32 0 0 0 .48-.21ZM218.36 271.28a.27.27 0 0 1-.28-.22.27.27 0 0 1 .18-.31.3.3 0 0 1 .21 0 .3.3 0 0 1 .13.19.33.33 0 0 0-.36-.27.4.4 0 0 0-.23.13.4.4 0 0 0-.06.27.36.36 0 0 0 .16.22.4.4 0 0 0 .26 0 .31.31 0 0 0 .23-.24v.07a.31.31 0 0 1-.24.16M218.44 273.51a.25.25 0 0 1-.28-.21.27.27 0 0 1 .17-.31.28.28 0 0 1 .22 0 .34.34 0 0 1 .13.18.33.33 0 0 0-.36-.26.32.32 0 0 0-.23.13.3.3 0 0 0-.06.26.35.35 0 0 0 .16.23.4.4 0 0 0 .26 0 .3.3 0 0 0 .22-.25s0 .05 0 .08a.26.26 0 0 1-.23.15" style="opacity:.1"/><path d="M219.1 265.26a13.7 13.7 0 0 0 .5 3 4.7 4.7 0 0 0 2 .77 4.57 4.57 0 0 0 2.86-.62c.52-.4.84-3.23.69-3.36a7 7 0 0 0-2.94-.92c-1.41-.02-3.12.87-3.11 1.13" style="fill:#37474f"/><path d="M219.53 268a9 9 0 0 0 1.15.49 3.9 3.9 0 0 0 1.21.23 6.3 6.3 0 0 0 1.23-.17 9 9 0 0 0 1.19-.37 8 8 0 0 1-1.18.39 5.8 5.8 0 0 1-1.24.18 3.6 3.6 0 0 1-1.22-.24 8 8 0 0 1-1.14-.51" style="fill:#263238"/><path d="M219.47 267.69a11 11 0 0 0 1.2.51 3.7 3.7 0 0 0 1.27.23 6 6 0 0 0 1.28-.17 13 13 0 0 0 1.24-.38 10 10 0 0 1-1.23.4 6.4 6.4 0 0 1-1.29.19 4 4 0 0 1-1.28-.25 9 9 0 0 1-1.19-.53" style="fill:#263238"/><path d="M219.43 267.39a9 9 0 0 0 1.24.52 3.7 3.7 0 0 0 1.31.25 6.7 6.7 0 0 0 1.33-.18 12 12 0 0 0 1.29-.4 10 10 0 0 1-1.29.42 6.6 6.6 0 0 1-1.33.19 3.7 3.7 0 0 1-1.32-.26 8 8 0 0 1-1.23-.54" style="fill:#263238"/><path d="M219.47 267.11a11 11 0 0 0 1.24.53 3.9 3.9 0 0 0 1.31.24 6 6 0 0 0 1.33-.18 12 12 0 0 0 1.29-.4 10 10 0 0 1-1.29.42 6 6 0 0 1-1.33.2 4 4 0 0 1-1.32-.26 8 8 0 0 1-1.23-.55" style="fill:#263238"/><path d="M219.42 266.79a10 10 0 0 0 1.29.54 3.9 3.9 0 0 0 1.36.26 7 7 0 0 0 1.37-.19 12 12 0 0 0 1.33-.41 9 9 0 0 1-1.32.43 6.5 6.5 0 0 1-1.38.2 4 4 0 0 1-1.37-.26 10 10 0 0 1-1.28-.57" style="fill:#263238"/><path d="M219.35 266.44a13 13 0 0 0 1.32.56 4.2 4.2 0 0 0 1.39.26 6.2 6.2 0 0 0 1.42-.2 11 11 0 0 0 1.37-.42 11 11 0 0 1-1.37.45 6.2 6.2 0 0 1-1.42.2 4 4 0 0 1-1.4-.27 9 9 0 0 1-1.31-.58" style="fill:#263238"/><path d="M219.29 266.1a12 12 0 0 0 1.37.59 4.3 4.3 0 0 0 1.45.27 6.6 6.6 0 0 0 1.47-.21 12 12 0 0 0 1.42-.43 11 11 0 0 1-1.42.46 7.2 7.2 0 0 1-1.47.21 4.3 4.3 0 0 1-1.46-.28 10 10 0 0 1-1.36-.61" style="fill:#263238"/><path d="M219.22 265.78a10 10 0 0 0 1.4.6 4.2 4.2 0 0 0 1.49.28 6.5 6.5 0 0 0 1.51-.21 13 13 0 0 0 1.46-.45 11 11 0 0 1-1.46.47 6.4 6.4 0 0 1-1.51.22 4.3 4.3 0 0 1-1.5-.29 8.7 8.7 0 0 1-1.39-.62" style="fill:#263238"/><path d="M234 265.71a11 11 0 0 1 1.46-.29 1.8 1.8 0 0 0 1.49-1.5l1-6.22a1.8 1.8 0 0 0-1.1-1.94l-2-.8Z" style="fill:#407bff"/><path d="M234 265.71a11 11 0 0 1 1.46-.29 1.8 1.8 0 0 0 1.49-1.5l1-6.22a1.8 1.8 0 0 0-1.1-1.94l-2-.8Z" style="opacity:.2"/><path d="M210.51 265.5a10 10 0 0 0-1.47-.24 1.78 1.78 0 0 1-1.53-1.45l-1.18-6.18a1.79 1.79 0 0 1 1-2l1.95-.86Z" style="fill:#407bff"/><path d="M210.51 265.5a10 10 0 0 0-1.47-.24 1.78 1.78 0 0 1-1.53-1.45l-1.18-6.18a1.79 1.79 0 0 1 1-2l1.95-.86Z" style="opacity:.2"/><path d="M234.09 267.23a137 137 0 0 0 1.64-20.14s-14.83-2.32-26.94-.14c0 0 .54 15.55 1.56 19.9 0 0 12.38.65 23.74.38" style="fill:#407bff"/><path d="M221.55 246v5.27l.05 5.27.06-.07-6 .44-3 .23-3 .24 3-.18 3-.19 6-.41h.06v-.06l-.08-5.26ZM222.62 246.94a.37.37 0 0 0-.24-.12.27.27 0 0 0-.23.09.27.27 0 0 1 .21 0 .28.28 0 0 1 .2.31.27.27 0 0 1-.28.23.27.27 0 0 1-.2-.09.3.3 0 0 1-.06-.23.34.34 0 0 0 .51.35.35.35 0 0 0 .09-.51ZM222.64 249.26a.24.24 0 0 0-.06-.11.34.34 0 0 0-.24-.13.32.32 0 0 0-.31.18.3.3 0 0 1 .09-.08.26.26 0 0 1 .39.14.17.17 0 0 1 0 .1.31.31 0 0 1-.18.21h-.07a.25.25 0 0 1-.14-.08.3.3 0 0 1-.06-.22.32.32 0 0 0 .11.3h.07a.34.34 0 0 0 .24 0 .34.34 0 0 0 .13-.2.5.5 0 0 0 .03-.11M222 251.7s0 .02 0 0m.5900000000000001-.28a.34.34 0 0 0-.48 0 .26.26 0 0 1 .21 0h.09a.27.27 0 0 1 .07.22.4.4 0 0 1 0 .1.24.24 0 0 1-.21.09.3.3 0 0 1-.2-.09.3.3 0 0 0 .21.17.35.35 0 0 0 .26 0 .3.3 0 0 0 .11-.12s0-.05 0-.08a.31.31 0 0 0-.06-.28ZM222.59 253.7a.27.27 0 0 0-.17-.11h-.2a.26.26 0 0 0-.14.13.26.26 0 0 1 .21 0 .28.28 0 0 1 .2.27.29.29 0 0 1-.29.23.3.3 0 0 1-.19-.1.2.2 0 0 1-.01-.12.31.31 0 0 0 .23.24.36.36 0 0 0 .27 0 .33.33 0 0 0 .15-.23v-.06a.32.32 0 0 0-.06-.25M220.22 257.44l-.05-.07a.3.3 0 0 0 .07.12Zm0-.31v-.06a.13.13 0 0 0-.04.06Zm.63.05a.2.2 0 0 0-.05-.08.37.37 0 0 0-.24-.12.3.3 0 0 0-.28.14h.05a.3.3 0 0 1 .22 0 .3.3 0 0 1 .16.13.27.27 0 0 1-.11.31h-.05l-.06-.05-.05-.07a.3.3 0 0 0 .07.12.4.4 0 0 0 .12.07.36.36 0 0 0 .27 0 .3.3 0 0 0 .08-.16.26.26 0 0 0-.17-.29ZM218 257.39v.07c0 .02 0 0 0 0a.2.2 0 0 1 0-.07m.6-.16a.25.25 0 0 0-.1-.08.1.1 0 0 0-.08 0h-.16a.33.33 0 0 0-.13.13.3.3 0 0 1 .09-.08.3.3 0 0 1 .22 0 .27.27 0 0 1 .19.3.26.26 0 0 1-.27.2.32.32 0 0 1-.2-.1.2.2 0 0 1 0-.1.32.32 0 0 0 .25.26.35.35 0 0 0 .26 0 .28.28 0 0 0 .15-.22.33.33 0 0 0-.26-.31ZM215.83 257.78a1 1 0 0 1-.05-.08.2.2 0 0 0 0 .1Zm0-.3a.2.2 0 0 0 0 .08.1.1 0 0 1 0-.08m0 0a.2.2 0 0 0 0 .08.1.1 0 0 1 0-.08m0 0a.2.2 0 0 0 0 .08.1.1 0 0 1 0-.08m.62 0v-.05a.33.33 0 0 0-.24-.12.32.32 0 0 0-.3.16.3.3 0 0 1 .08-.07.26.26 0 0 1 .21 0 .28.28 0 0 1 .15.11.23.23 0 0 1 0 .16.24.24 0 0 1-.09.15.3.3 0 0 1-.13 0 .1.1 0 0 1-.08 0 1 1 0 0 1-.05-.08.2.2 0 0 0 0 .1.34.34 0 0 0 .17.11.31.31 0 0 0 .26-.05h.05a.27.27 0 0 0 .07-.14.28.28 0 0 0-.14-.27Zm-.62 0a.2.2 0 0 0 0 .08.1.1 0 0 1 0-.08m0 0a.2.2 0 0 0 0 .08.1.1 0 0 1 0-.08m0 0a.2.2 0 0 0 0 .08.1.1 0 0 1 0-.08M214.17 257.57a.25.25 0 0 0-.16-.11h-.17a.3.3 0 0 0-.14.08.29.29 0 0 1 .42.24.26.26 0 0 1-.28.23.25.25 0 0 1-.19-.09.2.2 0 0 1 0-.08.31.31 0 0 0 .23.24.36.36 0 0 0 .27 0 .33.33 0 0 0 .15-.24v-.05a.34.34 0 0 0-.13-.22M212 257.8a.35.35 0 0 0-.25-.1.32.32 0 0 0-.26.13.3.3 0 0 0 0 .14.35.35 0 0 1 .06-.14.3.3 0 0 1 .22 0 .2.2 0 0 1 .13.07.28.28 0 0 1 0 .32.24.24 0 0 1-.17.07.2.2 0 0 1-.15-.08.33.33 0 0 0 .47.08.13.13 0 0 0 .06-.07.2.2 0 0 0 0-.13.25.25 0 0 0-.11-.29M222.07 256.38a.2.2 0 0 1 0-.08.24.24 0 0 0 .07.13.2.2 0 0 1-.07-.05m.59-.29a.2.2 0 0 0-.05-.08.33.33 0 0 0-.24-.12.33.33 0 0 0-.31.17.3.3 0 0 1 .08-.08.3.3 0 0 1 .22 0 .3.3 0 0 1 .17.14.24.24 0 0 1 0 .12.26.26 0 0 1-.13.19h-.18a.2.2 0 0 1-.07-.05.2.2 0 0 1 0-.08.24.24 0 0 0 .07.13.24.24 0 0 0 .12.07.36.36 0 0 0 .27 0 .3.3 0 0 0 .08-.17.3.3 0 0 0 0-.14s-.03-.09-.03-.1" style="opacity:.1"/><path d="M232.48 265.92a109.6 109.6 0 0 0 1.42-17.09s-14.81-1.89-23.34-.12c0 0 .48 13.11 1.35 16.88 0 0 10.73.56 20.57.33" style="fill:#37474f"/><path d="M210.57 249.13c.09 2.27.56 13.09 1.34 16.46 0 0 10.32.54 20 .34a111 111 0 0 0 1.34-16.58s-14.2-1.82-22.68-.22" style="fill:#263238"/><path d="m222.18 248.51-3.63-.03" style="fill:none"/><path d="m223.15 248.55-5.44-.06h4.47Z" style="fill:#455a64"/><path d="m229.47 248.95-16.49-.17" style="fill:none"/><path d="m229.73 249-16.92-.18h.36l16 .17h.28Z" style="fill:#455a64"/><path d="m233.25 249.36-22.6-.25" style="fill:none"/><path d="m233.25 249.35-22.68-.25h.2l22.36.24Z" style="fill:#455a64"/><path d="m233.25 249.72-22.66-.25" style="fill:none"/><path d="M233.25 249.69v.05l-22.66-.25Z" style="fill:#455a64"/><path d="m233.24 250.08-22.64-.25" style="fill:none"/><path d="m233.24 250.05-22.64-.25Z" style="fill:#455a64"/><path d="m233.23 250.44-22.61-.25" style="fill:none"/><path d="M233.23 250.41v.05l-22.61-.24v-.05Z" style="fill:#455a64"/><path d="m233.22 250.8-22.58-.25" style="fill:none"/><path d="m233.22 250.78-22.58-.24Z" style="fill:#455a64"/><path d="m233.21 251.16-22.56-.24" style="fill:none"/><path d="m233.21 251.14-22.56-.24v-.05Z" style="fill:#455a64"/><path d="m233.2 251.52-22.53-.24" style="fill:none"/><path d="m233.2 251.5-22.53-.24v-.05Z" style="fill:#455a64"/><path d="m233.19 251.88-22.5-.24" style="fill:none"/><path d="m233.19 251.86-22.5-.24Z" style="fill:#455a64"/><path d="M233.18 252.24 210.7 252" style="fill:none"/><path d="m233.18 252.22-22.47-.22Z" style="fill:#455a64"/><path d="m233.17 252.6-22.45-.24" style="fill:none"/><path d="m233.17 252.58-22.44-.24Z" style="fill:#455a64"/><path d="m233.15 252.96-22.41-.24" style="fill:none"/><path d="m233.15 252.94-22.41-.24Z" style="fill:#455a64"/><path d="m233.14 253.32-22.38-.24" style="fill:none"/><path d="m233.14 253.3-22.38-.24Z" style="fill:#455a64"/><path d="m233.12 253.68-22.34-.24" style="fill:none"/><path d="m233.12 253.66-22.34-.24Z" style="fill:#455a64"/><path d="m233.1 254.04-22.3-.24" style="fill:none"/><path d="m233.1 254-22.3-.24Z" style="fill:#455a64"/><path d="m233.08 254.4-22.26-.24" style="fill:none"/><path d="m233.08 254.38-22.26-.24Z" style="fill:#455a64"/><path d="m233.06 254.76-22.22-.24" style="fill:none"/><path d="m233.07 254.74-22.22-.24Z" style="fill:#455a64"/><path d="m233.04 255.12-22.18-.23" style="fill:none"/><path d="m233.05 255.1-22.18-.23Z" style="fill:#455a64"/><path d="m233.02 255.48-22.14-.23" style="fill:none"/><path d="m233 255.46-22.14-.23v-.05Z" style="fill:#455a64"/><path d="m233 255.84-22.1-.23" style="fill:none"/><path d="M233 255.82v.05l-22.1-.24Z" style="fill:#455a64"/><path d="m232.98 256.2-22.06-.23" style="fill:none"/><path d="M233 256.18v.05l-22.08-.23Z" style="fill:#455a64"/><path d="m232.96 256.56-22.02-.23" style="fill:none"/><path d="m233 256.54-22-.24Z" style="fill:#455a64"/><path d="m232.93 256.93-21.96-.24" style="fill:none"/><path d="M232.93 256.9v.1l-22-.24Z" style="fill:#455a64"/><path d="m232.9 257.29-21.91-.24" style="fill:none"/><path d="M232.9 257.26v.05l-21.9-.24Z" style="fill:#455a64"/><path d="m232.88 257.65-21.86-.24" style="fill:none"/><path d="m232.88 257.62-21.88-.19Z" style="fill:#455a64"/><path d="m232.85 258.01-21.81-.24" style="fill:none"/><path d="m232.85 258-21.8-.24Z" style="fill:#455a64"/><path d="m232.82 258.37-21.75-.24" style="fill:none"/><path d="M232.82 258.34v.05l-21.75-.24Z" style="fill:#455a64"/><path d="m232.79 258.73-21.7-.24" style="fill:none"/><path d="M232.79 258.7v.05l-21.7-.24Z" style="fill:#455a64"/><path d="m232.76 259.09-21.64-.24" style="fill:none"/><path d="m232.76 259.06-21.63-.23v-.05Z" style="fill:#455a64"/><path d="m232.72 259.45-21.57-.23" style="fill:none"/><path d="m232.73 259.43-21.57-.23Z" style="fill:#455a64"/><path d="m232.69 259.81-21.51-.23" style="fill:none"/><path d="m232.69 259.79-21.51-.23v-.05Z" style="fill:#455a64"/><path d="m232.66 260.17-21.45-.23" style="fill:none"/><path d="m232.66 260.15-21.45-.15Z" style="fill:#455a64"/><path d="m232.62 260.53-21.38-.23" style="fill:none"/><path d="m232.62 260.51-21.38-.23Z" style="fill:#455a64"/><path d="m232.58 260.89-21.31-.23" style="fill:none"/><path d="m232.59 260.87-21.31-.23Z" style="fill:#455a64"/><path d="m232.54 261.25-21.24-.23" style="fill:none"/><path d="M232.55 261.23 211.3 261Z" style="fill:#455a64"/><path d="m232.51 261.61-21.18-.23" style="fill:none"/><path d="m232.51 261.59-21.16-.23Z" style="fill:#455a64"/><path d="m232.46 261.97-21.09-.23" style="fill:none"/><path d="m232.47 262-21.09-.23Z" style="fill:#455a64"/><path d="m232.42 262.33-21.01-.23" style="fill:none"/><path d="m232.42 262.31-21-.23Z" style="fill:#455a64"/><path d="m232.38 262.69-20.93-.23" style="fill:none"/><path d="m232.38 262.67-20.92-.22Z" style="fill:#455a64"/><path d="m232.33 263.05-20.84-.22" style="fill:none"/><path d="m232.34 263-20.84-.22Z" style="fill:#455a64"/><path d="m232.29 263.41-20.76-.22" style="fill:none"/><path d="m232.29 263.39-20.75-.22Z" style="fill:#455a64"/><path d="m232.24 263.77-20.67-.22" style="fill:none"/><path d="m232.24 263.75-20.66-.22v-.05Z" style="fill:#455a64"/><path d="m232.19 264.13-20.57-.22" style="fill:none"/><path d="m232.19 264.11-20.56-.22Z" style="fill:#455a64"/><path d="m232.14 264.49-20.47-.22" style="fill:none"/><path d="m232.14 264.47-20.45-.22Z" style="fill:#455a64"/><path d="m232.08 264.85-20.35-.22" style="fill:none"/><path d="m232.09 264.83-20.35-.22Z" style="fill:#455a64"/><path d="m232.03 265.21-20.24-.22" style="fill:none"/><path d="m232 265.19-20.2-.19Z" style="fill:#455a64"/><path d="m231.97 265.57-20.11-.22" style="fill:none"/><path d="m232 265.55-20.09-.21v-.05Z" style="fill:#455a64"/><path d="M215.82 265.76h.01l16.08.17" style="fill:none"/><path d="M231.91 265.91h-.62l-14.52-.16h-1.75Z" style="fill:#455a64"/><path d="M220.69 259.19a1.9 1.9 0 0 0 .31 1.16 1.5 1.5 0 0 0 .49.43 1.6 1.6 0 0 0 .63.15 1.25 1.25 0 0 0 .65-.16 1.35 1.35 0 0 0 .46-.46 2.06 2.06 0 0 0 .25-1.18 3 3 0 0 1-.48 1 1 1 0 0 1-.87.43 1.22 1.22 0 0 1-.91-.4 2.55 2.55 0 0 1-.53-.97M228.22 258.59c1.12 0 1.08 2.22 0 2.23s-.93-2.21 0-2.23M215.59 258.44c1.12 0 1.07 2.22 0 2.24s-.94-2.22 0-2.24" style="fill:#407bff"/><path d="M212.23 258.61a72 72 0 0 1-.56-8.67 34.5 34.5 0 0 1 8.93-.74c-1.45.13-2.9.26-4.34.45a40 40 0 0 0-4.27.73l.18-.24c0 2.82.08 5.64.06 8.47" style="fill:#455a64"/><path d="M217.26 271.42a2.87 2.87 0 0 1-.66 1.39 1 1 0 0 1-.35.29l-.25-.1c-.34-.13-.67-.27-1-.42a3.4 3.4 0 0 1-.24-2.17 3.1 3.1 0 0 1 .48-1.17 1.4 1.4 0 0 1 .4-.43.86.86 0 0 1 .84-.14c.66.27 1.03 1.51.78 2.75" style="fill:#37474f"/><path d="M214.74 270.4c-.21 1.05.1 2.09.69 2.33.59.21 1.22-.44 1.42-1.47a2.39 2.39 0 0 0-.5-2.22l-.2-.11c-.56-.23-1.21.43-1.41 1.47" style="fill:#455a64"/><path d="M215 270.53a2.37 2.37 0 0 0 .5 2.21c.59.21 1.22-.44 1.42-1.47a2.39 2.39 0 0 0-.5-2.22c-.63-.2-1.26.45-1.42 1.48" style="fill:#263238"/><path d="m215.49 270.05.65.2a1 1 0 0 1 .11.68c-.05.34-.22.57-.28.55l-.66-.2Z" style="fill:#37474f"/><path d="M215.49 270.05c-.12 0-.25.22-.3.56s0 .64.12.67.25-.21.3-.55-.01-.64-.12-.68" style="fill:#455a64"/><path d="M216.6 272.81a1 1 0 0 1 0 .15 2 2 0 0 1 0 .24 2 2 0 0 1-.3-.1l-.3-.1c-.34-.13-.67-.27-1-.42a16 16 0 0 1-1.63-.86 7.4 7.4 0 0 1 .59-1 4.9 4.9 0 0 1 1.28-1.43.5.5 0 0 1 .15-.07.6.6 0 0 1 .18 0 .33.33 0 0 1 .22 0 .56.56 0 0 1 .29.16 5.76 5.76 0 0 1 .59 2.71 4 4 0 0 1-.07.72" style="fill:#407bff"/><path d="M229.29 272.58c-.32.15-.65.28-1 .41l-.31.11a1.3 1.3 0 0 1-.37-.3 3 3 0 0 1-.64-1.38c-.25-1.24.12-2.48.83-2.76a.84.84 0 0 1 .85.16 1.3 1.3 0 0 1 .39.41 3.1 3.1 0 0 1 .48 1.17 3.36 3.36 0 0 1-.23 2.18" style="fill:#37474f"/><path d="M229.51 270.4c.21 1.05-.1 2.09-.69 2.33-.58.21-1.21-.44-1.41-1.47a2.39 2.39 0 0 1 .5-2.22l.19-.11c.56-.23 1.21.43 1.41 1.47" style="fill:#455a64"/><path d="M229.29 270.53a2.34 2.34 0 0 1-.51 2.21c-.58.21-1.21-.44-1.41-1.47a2.39 2.39 0 0 1 .5-2.22c.59-.2 1.22.45 1.42 1.48" style="fill:#263238"/><path d="m228.76 270.05-.65.2a1 1 0 0 0-.11.68c.05.34.22.57.28.55l.66-.2Z" style="fill:#37474f"/><path d="M228.76 270.05c.12 0 .25.22.3.56s0 .64-.12.67-.25-.21-.3-.55.01-.64.12-.68" style="fill:#455a64"/><path d="M230.93 271.71a14 14 0 0 1-1.64.87c-.32.15-.65.28-1 .41l-.31.11a2 2 0 0 1-.31.11v-.25a1 1 0 0 1 0-.16 7 7 0 0 1 0-.79 5.7 5.7 0 0 1 .6-2.69.56.56 0 0 1 .29-.16.37.37 0 0 1 .23 0h.16a.6.6 0 0 1 .16.07 4.8 4.8 0 0 1 1.28 1.43 7.4 7.4 0 0 1 .54 1.05" style="fill:#407bff"/><circle cx="222.13" cy="372.68" r="17.25" style="fill:#c7c7c7"/><path d="M227.07 378.27" style="fill:#ebebeb"/><path d="M228.74 384.93a.2.2 0 0 1 0 .07v.11c0 .21-.06.47-.09.77s-.09.84-.14 1.33-.09.86-.14 1.32v.25l-.31.11a2 2 0 0 1-.31.11 17.3 17.3 0 0 1-8.44.68h-.12a16 16 0 0 1-2.58-.67 2 2 0 0 1-.3-.1l-.3-.11v-.26c0-.46-.1-.9-.14-1.31s-.09-.94-.14-1.32-.06-.58-.09-.79 0-.07 0-.1a.2.2 0 0 1 0-.07.5.5 0 0 1 0-.12.5.5 0 0 1 .06-.21.57.57 0 0 1 .33-.3 21.4 21.4 0 0 1 3.49-.86l.4-.06.49-.06.6-.06h.1c.39 0 .74-.05 1.06-.05.33 0 .71 0 1.11.05h.09l.66.07.53.07h.23a21 21 0 0 1 3.53.87.54.54 0 0 1 .34.32.37.37 0 0 1 .06.21.3.3 0 0 1 .02.11" style="fill:#407bff"/><path d="M219.25 389.69h-.12l-.07-2.56-.05-1.76v-1.76l.09 1.76.08 1.75ZM218.43 384.87a.3.3 0 0 1-.19.1.27.27 0 0 1-.28-.22.26.26 0 0 1 .18-.3.26.26 0 0 1 .21 0 .25.25 0 0 0-.23-.09.4.4 0 0 0-.23.13.37.37 0 0 0-.06.27.33.33 0 0 0 .16.22.32.32 0 0 0 .48-.21ZM218.36 387.08a.27.27 0 0 1-.28-.22.27.27 0 0 1 .18-.31.3.3 0 0 1 .21 0 .3.3 0 0 1 .13.19.33.33 0 0 0-.36-.27.4.4 0 0 0-.23.13.4.4 0 0 0-.06.27.36.36 0 0 0 .16.22.4.4 0 0 0 .26 0 .31.31 0 0 0 .23-.24v.07a.31.31 0 0 1-.24.16M218.44 389.31a.25.25 0 0 1-.28-.21.27.27 0 0 1 .17-.31.28.28 0 0 1 .22 0 .34.34 0 0 1 .13.18.33.33 0 0 0-.36-.26.32.32 0 0 0-.23.13.3.3 0 0 0-.06.26.35.35 0 0 0 .16.23.4.4 0 0 0 .26 0 .3.3 0 0 0 .22-.25s0 .05 0 .08a.26.26 0 0 1-.23.15" style="opacity:.1"/><path d="M219.1 381.06a13.6 13.6 0 0 0 .5 3 4.7 4.7 0 0 0 2 .78 4.57 4.57 0 0 0 2.86-.63c.52-.4.84-3.23.69-3.36a7.2 7.2 0 0 0-2.94-.91c-1.41-.02-3.12.85-3.11 1.12" style="fill:#37474f"/><path d="M219.53 383.82a9 9 0 0 0 1.15.48 3.4 3.4 0 0 0 1.21.23 5.6 5.6 0 0 0 1.23-.17 11 11 0 0 0 1.19-.36 10 10 0 0 1-1.18.38 5.2 5.2 0 0 1-1.24.18 3.4 3.4 0 0 1-1.22-.24 7 7 0 0 1-1.14-.5" style="fill:#263238"/><path d="M219.47 383.49a9 9 0 0 0 1.2.51 3.7 3.7 0 0 0 1.27.24 6 6 0 0 0 1.28-.18 11 11 0 0 0 1.24-.38 9 9 0 0 1-1.23.4 6.4 6.4 0 0 1-1.29.19 3.7 3.7 0 0 1-1.28-.25 8 8 0 0 1-1.19-.53" style="fill:#263238"/><path d="M219.43 383.19a11 11 0 0 0 1.24.53 3.9 3.9 0 0 0 1.33.28 6 6 0 0 0 1.33-.18 12 12 0 0 0 1.29-.4 10 10 0 0 1-1.29.42 6 6 0 0 1-1.33.2 4 4 0 0 1-1.32-.26 8 8 0 0 1-1.25-.59" style="fill:#263238"/><path d="M219.47 382.91a9 9 0 0 0 1.24.53 3.9 3.9 0 0 0 1.31.25 6.7 6.7 0 0 0 1.33-.19 10 10 0 0 0 1.29-.39 8.4 8.4 0 0 1-1.29.41 6 6 0 0 1-1.33.2 4 4 0 0 1-1.32-.26 8 8 0 0 1-1.23-.55" style="fill:#263238"/><path d="M219.42 382.59a10 10 0 0 0 1.29.55 3.9 3.9 0 0 0 1.36.25 5.8 5.8 0 0 0 1.37-.19 10 10 0 0 0 1.33-.41 9 9 0 0 1-1.32.43 6.5 6.5 0 0 1-1.38.21 4.3 4.3 0 0 1-1.37-.27 7.7 7.7 0 0 1-1.28-.57" style="fill:#263238"/><path d="M219.35 382.24a9.5 9.5 0 0 0 1.32.56 3.9 3.9 0 0 0 1.39.26 6.2 6.2 0 0 0 1.42-.19 14 14 0 0 0 1.37-.42 11 11 0 0 1-1.37.44 6.8 6.8 0 0 1-1.42.21 4.2 4.2 0 0 1-1.4-.28 8 8 0 0 1-1.31-.58" style="fill:#263238"/><path d="M219.29 381.91a12 12 0 0 0 1.37.58 4.3 4.3 0 0 0 1.45.27 6.6 6.6 0 0 0 1.47-.2 12 12 0 0 0 1.42-.44 10 10 0 0 1-1.42.46 6 6 0 0 1-1.47.21 4.1 4.1 0 0 1-1.46-.28 10 10 0 0 1-1.36-.6" style="fill:#263238"/><path d="M219.22 381.59a12 12 0 0 0 1.4.6 4.5 4.5 0 0 0 1.49.27 7 7 0 0 0 1.51-.2c.49-.13 1-.27 1.46-.45a12 12 0 0 1-1.46.47 7 7 0 0 1-1.51.22 4.8 4.8 0 0 1-1.5-.29 9.6 9.6 0 0 1-1.39-.62" style="fill:#263238"/><path d="M234 381.51a11 11 0 0 1 1.46-.29 1.79 1.79 0 0 0 1.49-1.49l1-6.22a1.81 1.81 0 0 0-1.1-1.95l-2-.79Z" style="fill:#407bff"/><path d="M234 381.51a11 11 0 0 1 1.46-.29 1.79 1.79 0 0 0 1.49-1.49l1-6.22a1.81 1.81 0 0 0-1.1-1.95l-2-.79Z" style="opacity:.2"/><path d="M210.51 381.3a10 10 0 0 0-1.47-.23 1.79 1.79 0 0 1-1.53-1.45l-1.18-6.18a1.79 1.79 0 0 1 1-2l1.95-.87Z" style="fill:#407bff"/><path d="M210.51 381.3a10 10 0 0 0-1.47-.23 1.79 1.79 0 0 1-1.53-1.45l-1.18-6.18a1.79 1.79 0 0 1 1-2l1.95-.87Z" style="opacity:.2"/><path d="M234.09 383a137 137 0 0 0 1.64-20.15s-14.83-2.31-26.94-.14c0 0 .54 15.55 1.56 19.91 0 .04 12.38.69 23.74.38" style="fill:#407bff"/><path d="M221.55 361.83v5.27l.05 5.27.06-.06-6 .43-3 .23-3 .25 3-.18 3-.19 6-.42h.06v-.06l-.08-5.27ZM222.62 362.74a.37.37 0 0 0-.24-.12.27.27 0 0 0-.23.09.27.27 0 0 1 .21 0 .28.28 0 0 1 .2.31.27.27 0 0 1-.28.23.27.27 0 0 1-.2-.09.3.3 0 0 1-.06-.23.34.34 0 0 0 .51.35.35.35 0 0 0 .09-.51ZM222.64 365.06a.24.24 0 0 0-.06-.11.34.34 0 0 0-.24-.13.32.32 0 0 0-.31.18.3.3 0 0 1 .09-.08.26.26 0 0 1 .39.14.17.17 0 0 1 0 .1.31.31 0 0 1-.18.21h-.07a.25.25 0 0 1-.14-.08.3.3 0 0 1-.06-.22.32.32 0 0 0 .11.3h.07a.34.34 0 0 0 .24 0 .34.34 0 0 0 .13-.2.5.5 0 0 0 .03-.11M222.59 367.22a.34.34 0 0 0-.48 0 .26.26 0 0 1 .21 0h.09a.27.27 0 0 1 .07.22.4.4 0 0 1 0 .1.24.24 0 0 1-.21.09.3.3 0 0 1-.2-.09.3.3 0 0 0 .21.17.35.35 0 0 0 .26 0 .3.3 0 0 0 .11-.12s0-.05 0-.08a.31.31 0 0 0-.06-.28ZM222.59 369.5a.27.27 0 0 0-.17-.11h-.2a.26.26 0 0 0-.14.13.26.26 0 0 1 .21 0 .28.28 0 0 1 .2.27.29.29 0 0 1-.29.23.3.3 0 0 1-.19-.1.2.2 0 0 1-.05-.08.31.31 0 0 0 .23.24.36.36 0 0 0 .27 0 .33.33 0 0 0 .15-.23v-.06a.32.32 0 0 0-.02-.29M220.22 373.24l-.05-.07a.3.3 0 0 0 .07.12Zm0-.31v-.06a.13.13 0 0 0-.04.06Zm.63.05a.2.2 0 0 0-.05-.08.37.37 0 0 0-.24-.12.3.3 0 0 0-.28.14h.05a.3.3 0 0 1 .22 0 .3.3 0 0 1 .16.13.27.27 0 0 1-.11.31h-.11l-.06-.05-.05-.07a.3.3 0 0 0 .07.12.4.4 0 0 0 .12.07.36.36 0 0 0 .27 0 .3.3 0 0 0 .08-.16.26.26 0 0 0-.11-.27ZM218 373.19v.07a.2.2 0 0 1 0-.07m.6-.16a.25.25 0 0 0-.1-.08.1.1 0 0 0-.08 0h-.16a.33.33 0 0 0-.13.13.3.3 0 0 1 .09-.08.3.3 0 0 1 .22 0 .27.27 0 0 1 .19.3.26.26 0 0 1-.27.2.32.32 0 0 1-.2-.1.2.2 0 0 1 0-.1.32.32 0 0 0 .25.26.35.35 0 0 0 .26 0 .28.28 0 0 0 .15-.22.33.33 0 0 0-.26-.34ZM215.83 373.58a1 1 0 0 1-.05-.08.2.2 0 0 0 0 .1Zm0-.3a.2.2 0 0 0 0 .08.1.1 0 0 1 0-.08m0 0a.2.2 0 0 0 0 .08.1.1 0 0 1 0-.08m0 0a.2.2 0 0 0 0 .08.1.1 0 0 1 0-.08m.62 0v-.05a.33.33 0 0 0-.24-.12.32.32 0 0 0-.3.16.3.3 0 0 1 .08-.07.26.26 0 0 1 .21 0 .28.28 0 0 1 .15.11.23.23 0 0 1 0 .16.24.24 0 0 1-.09.15.3.3 0 0 1-.13 0 .1.1 0 0 1-.08 0 1 1 0 0 1-.05-.08.2.2 0 0 0 0 .1.34.34 0 0 0 .17.11.31.31 0 0 0 .26-.05.12.12 0 0 0 .05-.05.27.27 0 0 0 .07-.14.28.28 0 0 0-.14-.22Zm-.62 0a.2.2 0 0 0 0 .08.1.1 0 0 1 0-.08m0 0a.2.2 0 0 0 0 .08.1.1 0 0 1 0-.08m0 0a.2.2 0 0 0 0 .08.1.1 0 0 1 0-.08M214.17 373.37a.25.25 0 0 0-.16-.11h-.17a.3.3 0 0 0-.14.08.29.29 0 0 1 .42.24.26.26 0 0 1-.28.23.25.25 0 0 1-.19-.09.2.2 0 0 1 0-.08.31.31 0 0 0 .23.24.36.36 0 0 0 .27 0 .33.33 0 0 0 .15-.24v-.05a.34.34 0 0 0-.13-.22M212 373.6a.35.35 0 0 0-.25-.1.32.32 0 0 0-.26.13.3.3 0 0 0 0 .14.35.35 0 0 1 .06-.14.3.3 0 0 1 .22 0 .2.2 0 0 1 .13.07.28.28 0 0 1 0 .32.24.24 0 0 1-.17.07.2.2 0 0 1-.15-.08.33.33 0 0 0 .47.08.13.13 0 0 0-.05-.09.2.2 0 0 0 0-.13.25.25 0 0 0 0-.27M222.07 372.18a.2.2 0 0 1 0-.08.24.24 0 0 0 .07.13.2.2 0 0 1-.07-.05m.59-.29a.2.2 0 0 0-.05-.08.33.33 0 0 0-.24-.12.33.33 0 0 0-.31.17l.08-.08a.3.3 0 0 1 .22 0 .3.3 0 0 1 .17.14v.05a.24.24 0 0 1 0 .12.26.26 0 0 1-.13.19h-.18a.2.2 0 0 1-.07-.05.2.2 0 0 1 0-.08.24.24 0 0 0 .07.13.24.24 0 0 0 .12.07.36.36 0 0 0 .27 0 .3.3 0 0 0 .08-.17.3.3 0 0 0 0-.14Z" style="opacity:.1"/><path d="M232.48 381.72a109.6 109.6 0 0 0 1.42-17.09s-14.81-1.89-23.34-.12c0 0 .48 13.11 1.35 16.88 0 0 10.73.61 20.57.33" style="fill:#37474f"/><path d="M210.57 364.93c.09 2.27.56 13.09 1.34 16.46 0 0 10.32.55 20 .35a111.5 111.5 0 0 0 1.34-16.59s-14.2-1.81-22.68-.22" style="fill:#263238"/><path d="m222.18 364.32-3.63-.04" style="fill:none"/><path d="m223.15 364.35-5.44-.06h4.47Z" style="fill:#455a64"/><path d="m229.47 364.76-16.49-.18" style="fill:none"/><path d="m229.73 364.78-16.92-.18h.36l16 .17h.28Z" style="fill:#455a64"/><path d="m233.25 365.16-22.6-.24" style="fill:none"/><path d="m233.25 365.15-22.68-.24h.2l22.36.24z" style="fill:#455a64"/><path d="m233.25 365.52-22.66-.24" style="fill:none"/><path d="m233.25 365.5-22.66-.24v-.05Z" style="fill:#455a64"/><path d="m233.24 365.88-22.64-.24" style="fill:none"/><path d="m233.24 365.86-22.64-.24Z" style="fill:#455a64"/><path d="m233.23 366.24-22.61-.24" style="fill:none"/><path d="m233.23 366.22-22.61-.22Z" style="fill:#455a64"/><path d="m233.22 366.6-22.58-.24" style="fill:none"/><path d="m233.22 366.58-22.58-.24Z" style="fill:#455a64"/><path d="m233.21 366.96-22.56-.24" style="fill:none"/><path d="m233.21 366.94-22.56-.24Z" style="fill:#455a64"/><path d="m233.2 367.32-22.53-.24" style="fill:none"/><path d="m233.2 367.3-22.53-.24Z" style="fill:#455a64"/><path d="m233.19 367.68-22.5-.24" style="fill:none"/><path d="m233.19 367.66-22.5-.24Z" style="fill:#455a64"/><path d="m233.18 368.04-22.48-.24" style="fill:none"/><path d="m233.18 368-22.47-.24Z" style="fill:#455a64"/><path d="m233.17 368.4-22.45-.24" style="fill:none"/><path d="m233.17 368.38-22.44-.24v-.05Z" style="fill:#455a64"/><path d="m233.15 368.76-22.41-.24" style="fill:none"/><path d="M233.15 368.74v.05l-22.41-.24v-.05Z" style="fill:#455a64"/><path d="m233.14 369.13-22.38-.25" style="fill:none"/><path d="m233.14 369.1-22.38-.24v-.05Z" style="fill:#455a64"/><path d="m233.12 369.49-22.34-.24" style="fill:none"/><path d="M233.12 369.46v.05l-22.34-.24Z" style="fill:#455a64"/><path d="m233.1 369.85-22.3-.24" style="fill:none"/><path d="M233.1 369.82v.05l-22.3-.24v-.05Z" style="fill:#455a64"/><path d="m233.08 370.21-22.26-.24" style="fill:none"/><path d="M233.08 370.18v.05l-22.26-.23v-.05Z" style="fill:#455a64"/><path d="m233.06 370.57-22.22-.24" style="fill:none"/><path d="m233.07 370.55-22.22-.24Z" style="fill:#455a64"/><path d="m233.04 370.93-22.18-.24" style="fill:none"/><path d="m233.05 370.91-22.18-.24Z" style="fill:#455a64"/><path d="m233.02 371.29-22.14-.24" style="fill:none"/><path d="m233 371.27-22.14-.24Z" style="fill:#455a64"/><path d="m233 371.65-22.1-.24" style="fill:none"/><path d="m233 371.63-22.1-.24Z" style="fill:#455a64"/><path d="m232.98 372.01-22.06-.24" style="fill:none"/><path d="m233 372-22.06-.24Z" style="fill:#455a64"/><path d="m232.96 372.37-22.02-.24" style="fill:none"/><path d="m233 372.35-22-.24Z" style="fill:#455a64"/><path d="m232.93 372.73-21.96-.24" style="fill:none"/><path d="m232.93 372.71-22-.24Z" style="fill:#455a64"/><path d="m232.9 373.09-21.91-.24" style="fill:none"/><path d="m232.9 373.07-21.9-.19v-.05Z" style="fill:#455a64"/><path d="m232.88 373.45-21.86-.24" style="fill:none"/><path d="m232.88 373.43-21.88-.19v-.05Z" style="fill:#455a64"/><path d="m232.85 373.81-21.81-.24" style="fill:none"/><path d="M232.85 373.79 211 373.6v-.05Z" style="fill:#455a64"/><path d="m232.82 374.17-21.75-.23" style="fill:none"/><path d="m232.82 374.15-21.75-.15Z" style="fill:#455a64"/><path d="m232.79 374.53-21.7-.23" style="fill:none"/><path d="m232.79 374.51-21.7-.23v-.05Z" style="fill:#455a64"/><path d="m232.76 374.89-21.64-.23" style="fill:none"/><path d="m232.76 374.87-21.63-.23Z" style="fill:#455a64"/><path d="m232.72 375.25-21.57-.23" style="fill:none"/><path d="m232.73 375.23-21.58-.23Z" style="fill:#455a64"/><path d="m232.69 375.61-21.51-.23" style="fill:none"/><path d="m232.69 375.59-21.51-.23Z" style="fill:#455a64"/><path d="m232.66 375.97-21.45-.23" style="fill:none"/><path d="m232.66 376-21.44-.23Z" style="fill:#455a64"/><path d="m232.62 376.33-21.38-.23" style="fill:none"/><path d="m232.62 376.31-21.38-.23Z" style="fill:#455a64"/><path d="m232.58 376.69-21.31-.23" style="fill:none"/><path d="m232.59 376.67-21.31-.23Z" style="fill:#455a64"/><path d="m232.54 377.05-21.24-.23" style="fill:none"/><path d="m232.55 377-21.24-.22v-.05Z" style="fill:#455a64"/><path d="m232.51 377.41-21.18-.23" style="fill:none"/><path d="m232.51 377.39-21.16-.22Z" style="fill:#455a64"/><path d="m232.46 377.77-21.09-.22" style="fill:none"/><path d="m232.47 377.75-21.09-.23v-.05Z" style="fill:#455a64"/><path d="m232.42 378.13-21.01-.22" style="fill:none"/><path d="m232.42 378.11-21-.22v-.05Z" style="fill:#455a64"/><path d="m232.38 378.49-20.93-.22" style="fill:none"/><path d="m232.38 378.47-20.92-.22Z" style="fill:#455a64"/><path d="m232.33 378.85-20.84-.22" style="fill:none"/><path d="m232.34 378.83-20.84-.22Z" style="fill:#455a64"/><path d="m232.29 379.21-20.76-.22" style="fill:none"/><path d="M232.29 379.19v.05l-20.76-.24Z" style="fill:#455a64"/><path d="m232.24 379.57-20.67-.22" style="fill:none"/><path d="m232.24 379.55-20.66-.22Z" style="fill:#455a64"/><path d="m232.19 379.93-20.57-.22" style="fill:none"/><path d="m232.19 379.91-20.56-.23Z" style="fill:#455a64"/><path d="m232.14 380.29-20.47-.22" style="fill:none"/><path d="m232.14 380.27-20.45-.22Z" style="fill:#455a64"/><path d="m232.08 380.65-20.35-.21" style="fill:none"/><path d="M232.09 380.63v.05l-20.35-.22Z" style="fill:#455a64"/><path d="m232.03 381.01-20.24-.21" style="fill:none"/><path d="m232 381-20.22-.22Z" style="fill:#455a64"/><path d="m231.97 381.37-20.11-.21" style="fill:none"/><path d="m232 381.35-20.09-.22Z" style="fill:#455a64"/><path d="M215.82 381.56h.01l16.08.17" style="fill:none"/><path d="M231.91 381.71h-.62l-14.52-.16h-1.75Z" style="fill:#455a64"/><path d="M220.69 375a1.87 1.87 0 0 0 .31 1.16 1.3 1.3 0 0 0 .49.43 1.6 1.6 0 0 0 .63.15 1.24 1.24 0 0 0 .65-.15 1.4 1.4 0 0 0 .46-.47 2 2 0 0 0 .25-1.17 3.2 3.2 0 0 1-.48 1 1.06 1.06 0 0 1-.87.43 1.23 1.23 0 0 1-.91-.41 2.5 2.5 0 0 1-.53-.97M228.22 374.39c1.12 0 1.08 2.22 0 2.24s-.93-2.22 0-2.24M215.59 374.24c1.12 0 1.07 2.22 0 2.24s-.94-2.22 0-2.24" style="fill:#407bff"/><path d="M212.23 374.41a72 72 0 0 1-.56-8.67 34.5 34.5 0 0 1 8.93-.74c-1.45.13-2.9.27-4.34.45a43 43 0 0 0-4.27.74l.18-.25c0 2.83.08 5.65.06 8.47" style="fill:#455a64"/><path d="M217.26 387.22a2.87 2.87 0 0 1-.66 1.39 1 1 0 0 1-.35.29l-.3-.11c-.34-.13-.67-.27-1-.42a3.4 3.4 0 0 1-.24-2.17 3.1 3.1 0 0 1 .48-1.17 1.4 1.4 0 0 1 .4-.43.86.86 0 0 1 .84-.14c.71.28 1.08 1.54.83 2.76" style="fill:#37474f"/><path d="M214.74 386.21c-.21 1.05.1 2.09.69 2.33.59.2 1.22-.45 1.42-1.48a2.37 2.37 0 0 0-.5-2.21.6.6 0 0 0-.2-.11c-.56-.23-1.21.42-1.41 1.47" style="fill:#455a64"/><path d="M215 386.33a2.39 2.39 0 0 0 .5 2.22c.59.2 1.22-.45 1.42-1.48a2.37 2.37 0 0 0-.5-2.21c-.63-.21-1.26.44-1.42 1.47" style="fill:#263238"/><path d="m215.49 385.86.65.19a1 1 0 0 1 .11.68c-.05.34-.22.57-.28.55l-.66-.19Z" style="fill:#37474f"/><path d="M215.49 385.86c-.12 0-.25.21-.3.55s0 .64.12.68.25-.22.3-.56-.01-.64-.12-.67" style="fill:#455a64"/><path d="M216.6 388.61a1 1 0 0 1 0 .15 2 2 0 0 1 0 .24 2 2 0 0 1-.3-.1l-.3-.11c-.34-.13-.67-.27-1-.42a16 16 0 0 1-1.63-.86 7.4 7.4 0 0 1 .59-1.05 4.9 4.9 0 0 1 1.28-1.43.5.5 0 0 1 .15-.07h.18a.33.33 0 0 1 .22 0 .56.56 0 0 1 .29.16 5.76 5.76 0 0 1 .59 2.71 4 4 0 0 1-.07.78" style="fill:#407bff"/><path d="M229.29 388.38c-.32.15-.65.28-1 .41l-.31.11a1.3 1.3 0 0 1-.37-.3 3 3 0 0 1-.64-1.38c-.25-1.24.12-2.48.83-2.76a.84.84 0 0 1 .85.16 1.3 1.3 0 0 1 .39.41 3.1 3.1 0 0 1 .48 1.17 3.36 3.36 0 0 1-.23 2.18" style="fill:#37474f"/><path d="M229.51 386.21c.21 1.05-.1 2.09-.69 2.33-.58.2-1.21-.45-1.41-1.48a2.37 2.37 0 0 1 .5-2.21.6.6 0 0 1 .19-.11c.56-.23 1.21.42 1.41 1.47" style="fill:#455a64"/><path d="M229.29 386.33a2.36 2.36 0 0 1-.51 2.22c-.58.2-1.21-.45-1.41-1.48a2.37 2.37 0 0 1 .5-2.21c.59-.21 1.22.44 1.42 1.47" style="fill:#263238"/><path d="m228.76 385.86-.65.19a1 1 0 0 0-.11.68c.05.34.22.57.28.55l.66-.19Z" style="fill:#37474f"/><path d="M228.76 385.86c.12 0 .25.21.3.55s0 .64-.12.68-.25-.22-.3-.56.01-.64.12-.67" style="fill:#455a64"/><path d="M230.93 387.51a14 14 0 0 1-1.64.87c-.32.15-.65.28-1 .41l-.31.11a2 2 0 0 1-.31.11v-.25a1 1 0 0 1 0-.16 7 7 0 0 1 0-.79 5.7 5.7 0 0 1 .6-2.69.56.56 0 0 1 .29-.16.37.37 0 0 1 .23 0h.16a.6.6 0 0 1 .16.07 4.8 4.8 0 0 1 1.28 1.43 7.4 7.4 0 0 1 .54 1.05" style="fill:#407bff"/><circle cx="95.78" cy="165.81" r="17.25" style="fill:#c7c7c7" transform="rotate(-80.66 95.772 165.807)"/><circle cx="95.78" cy="317.92" r="17.25" style="fill:#c7c7c7" transform="rotate(-67.8 95.791 317.925)"/><path d="M111.74 172.18a17.2 17.2 0 0 1-7.95 8.73 16.9 16.9 0 0 1-5.26 1.76h-.29a17 17 0 0 1-2.47.18h-1l-.58-.05a17 17 0 0 1-6.38-1.89 17.25 17.25 0 0 1-9.11-13.09c1-2.09 3.65-1.8 4.62-4.12.06-.16.13-.35.21-.59a44 44 0 0 1 2.47-6.8l.05-.09a9.7 9.7 0 0 1 4.38-4.72 8.7 8.7 0 0 1 3.53-.69 11 11 0 0 1 1.35.08 12.3 12.3 0 0 1 2.33.49c.79.08 4.17-.43 6.54 2.59a12.1 12.1 0 0 1 1.67 3.7 63 63 0 0 1 1.52 6.8c.21 1.1.37 2 .5 2.65 0 .17.07.32.1.44.52 1.93 3.07 2.14 3.74 4.37a2 2 0 0 1 .03.25" style="fill:#263238"/><path d="M112.17 171a5 5 0 0 1-.2.6 3 3 0 0 0-.37-.76 8.7 8.7 0 0 0-1.85-1.83l-1-.84a2.75 2.75 0 0 1-.86-1 3.1 3.1 0 0 0 .94.89l1.1.75a8.7 8.7 0 0 1 2 1.81 3 3 0 0 1 .24.38M86 156.22a22 22 0 0 0-.79 2.25l-.75 2.28a19 19 0 0 1-.91 2.23c0 .05 0 .09-.07.14a4.6 4.6 0 0 1-.58.93 1.7 1.7 0 0 1-.51.45l-.54.29a22 22 0 0 0-2.14 1 4.1 4.1 0 0 0-1.16 1v-.63a5.5 5.5 0 0 1 1-.74 23 23 0 0 1 2.16-1.08c.17-.09.35-.17.51-.27a.7.7 0 0 0 .21-.14.6.6 0 0 0 .18-.18 5 5 0 0 0 .61-1c.36-.69.65-1.43 1-2.16a41 41 0 0 1 1.85-4.3Z" style="fill:#263238"/><path d="M103.79 180.91a16.9 16.9 0 0 1-5.26 1.76h-.29a17 17 0 0 1-2.47.18h-1l-.58-.05a17 17 0 0 1-6.38-1.89 28 28 0 0 1 1.88-3.06l.23-.31a10.14 10.14 0 0 1 3.36-3c2.27-1.09 4.53-.46 6.58 1.07a6.4 6.4 0 0 1 .63.74c.7.91 1.93 2.59 3.3 4.56" style="fill:#407bff"/><path d="M88.23 180.42a.29.29 0 0 0-.26.32.3.3 0 0 0 .59-.06.3.3 0 0 0-.33-.26m3.92-.42a.31.31 0 0 0-.26.33.3.3 0 0 0 .33.26.3.3 0 0 0 .26-.32.3.3 0 0 0-.33-.27m3.92-.41a.3.3 0 0 0 .06.59.3.3 0 1 0-.06-.59m3.92-.41a.29.29 0 0 0 .06.58.28.28 0 0 0 .26-.32.29.29 0 0 0-.31-.26Zm-5.59 3.38a.3.3 0 0 0-.25.25l.58.05a.3.3 0 0 0-.33-.3m3.92-.41a.3.3 0 0 0-.26.32.3.3 0 0 0 .18.24h.29a.29.29 0 0 0 .12-.26.3.3 0 0 0-.33-.3m-2.82-8a.29.29 0 0 0 .06.58.29.29 0 1 0-.06-.58m-5.59 3.38-.23.31a.29.29 0 0 0 .32.24.29.29 0 0 0 .27-.32.31.31 0 0 0-.36-.24Zm4-.41a.29.29 0 0 0-.26.32.29.29 0 0 0 .58 0 .29.29 0 0 0-.35-.33Zm3.87-.41a.29.29 0 0 0-.26.32.29.29 0 1 0 .58-.06.28.28 0 0 0-.35-.27Z" style="fill:#fff"/><path d="M93.56 176.68c.24.6 3.82 4.14 6.62 3.56.91-.19.1-5.21.1-5.21v-.38l.35-5.38-6.72-3-1-.38v6.03a34 34 0 0 0 .65 4.76" style="fill:#ad6359"/><path d="M93 169.25a10.83 10.83 0 0 0 7.31 5.4l.35-5.38-6.72-3-1-.38s.06 1.52.06 3.36" style="fill:#263238"/><path d="M107.26 161.19c1 9.4-4.52 11.06-6.54 11.28-1.85.19-8.14.62-10.11-8.63s2.09-12.69 6.28-13.36 9.37 1.3 10.37 10.71" style="fill:#ad6359"/><path d="M104.79 159.17c-.22 0-.43 0-.65-.07a1.13 1.13 0 0 1-.65-.19.33.33 0 0 1 0-.41.81.81 0 0 1 .79-.28 1.2 1.2 0 0 1 .81.34.37.37 0 0 1-.3.61M98.6 159.89a5 5 0 0 0 .62-.2 1.06 1.06 0 0 0 .59-.33.32.32 0 0 0 0-.4.84.84 0 0 0-.84-.11 1.18 1.18 0 0 0-.72.51.36.36 0 0 0 .35.53M100.1 162.13v.07c.11.63.12 1.38-.43 1.67.66-.16.63-1.15.43-1.74" style="fill:#263238"/><path d="M99.45 161.54c-1 .06-.85 2.13.11 2.08s.75-2.13-.11-2.08" style="fill:#263238"/><path d="M99.05 161.69c-.17.13-.33.35-.55.4s-.46-.16-.64-.35c0 .4.22.79.65.81s.64-.36.7-.77c-.02-.04-.09-.15-.16-.09M103.8 161.64v.06c0 .64.18 1.37.78 1.53-.67 0-.85-.97-.78-1.59" style="fill:#263238"/><path d="M104.32 160.92c1-.16 1.28 1.9.33 2.06s-1.19-1.92-.33-2.06" style="fill:#263238"/><path d="M104.76 161c.18.09.37.27.56.25s.37-.25.49-.48c.06.4 0 .82-.39 1s-.63-.2-.77-.58c0-.1.04-.19.11-.19M100.79 167.25c.16.15.32.35.56.36a1.7 1.7 0 0 0 .68-.2.87.87 0 0 1-.8.38.67.67 0 0 1-.53-.54zM103.23 164.66a14 14 0 0 1 .27 1.4s-.1.07-.25.1a2.16 2.16 0 0 1-2.16-.59s0-.09.06-.07a3.22 3.22 0 0 0 2 .36c0-.13-.45-1.6-.38-1.61a4 4 0 0 1 1 .12c-.42-2-1.16-3.87-1.55-5.85 0-.07.09-.1.11 0a32.4 32.4 0 0 1 1.95 6.23c.1.25-.86-.03-1.05-.09" style="fill:#263238"/><path d="M90.89 164a3.82 3.82 0 0 0 2.25-3c7.85-1.83 9.44-7.27 9.44-7.27 2.37 3.81 3.87 4.23 4.22 4.81a12.8 12.8 0 0 0-1.84-6.19 7.65 7.65 0 0 0-9-2.77 9 9 0 0 0-4 3.32 5.13 5.13 0 0 0-3.19 3.15C87.8 160 90.89 164 90.89 164" style="fill:#263238"/><path d="M102.64 153.4a6.46 6.46 0 0 1-1 3 8.3 8.3 0 0 1-2.23 2.37l-.69.44c-.23.13-.48.24-.73.37a10 10 0 0 1-1.51.59c-.52.16-1 .26-1.57.39s-1.07.14-1.6.19c.52-.13 1-.23 1.57-.35s1-.28 1.52-.46a12 12 0 0 0 2.82-1.44 8.5 8.5 0 0 0 2.21-2.23 7.7 7.7 0 0 0 1.21-2.87" style="fill:#263238"/><path d="M92.18 164.4s-2.12-2.91-3.45-2.15.32 5 1.9 5.57a1.61 1.61 0 0 0 2.13-.9Z" style="fill:#ad6359"/><path d="M89.23 163.46a4.05 4.05 0 0 1 2.14 2.54.89.89 0 0 0-1.33-.22s0 .07 0 .06a1 1 0 0 1 1.09.32 5 5 0 0 1 .54.87c0 .1.23 0 .19-.07.02-1.44-1.11-3.39-2.63-3.5M111.74 324.46a17.2 17.2 0 0 1-7.95 8.73 16.9 16.9 0 0 1-5.26 1.81h-.29a17 17 0 0 1-2.47.18h-1l-.58-.05a17 17 0 0 1-6.38-1.89 17.25 17.25 0 0 1-9.11-13.09c1-2.09 3.65-1.8 4.62-4.12.06-.16.13-.35.21-.59a44 44 0 0 1 2.47-6.85l.05-.09a9.7 9.7 0 0 1 4.38-4.72 8.7 8.7 0 0 1 3.53-.69 11 11 0 0 1 1.35.08 12.3 12.3 0 0 1 2.33.49c.79.08 4.17-.43 6.54 2.59a12.1 12.1 0 0 1 1.67 3.7 63 63 0 0 1 1.52 6.8c.21 1.1.37 2 .5 2.65 0 .17.07.32.1.44.52 1.93 3.07 2.14 3.74 4.37a2 2 0 0 1 .03.25" style="fill:#263238"/><path d="M112.17 323.28a5 5 0 0 1-.2.6 3 3 0 0 0-.37-.76 8.7 8.7 0 0 0-1.85-1.83l-1-.84a2.75 2.75 0 0 1-.86-1 3.1 3.1 0 0 0 .94.89l1.1.75a8.7 8.7 0 0 1 2 1.81 3 3 0 0 1 .24.38M86 308.5a22 22 0 0 0-.79 2.25l-.74 2.25a19 19 0 0 1-.91 2.23c0 .05 0 .09-.07.14a4.6 4.6 0 0 1-.58.93 1.7 1.7 0 0 1-.51.45l-.54.29a22 22 0 0 0-2.14 1 4.1 4.1 0 0 0-1.16 1v-.63a5.5 5.5 0 0 1 1-.74 23 23 0 0 1 2.16-1.08c.17-.09.35-.17.51-.27a.7.7 0 0 0 .21-.14.6.6 0 0 0 .18-.18 5 5 0 0 0 .61-1c.36-.69.65-1.43 1-2.16a41 41 0 0 1 1.85-4.3Z" style="fill:#263238"/><path d="M103.79 333.19a16.9 16.9 0 0 1-5.26 1.81h-.29a17 17 0 0 1-2.47.18h-1l-.58-.05a17 17 0 0 1-6.38-1.89 28 28 0 0 1 1.88-3.06l.23-.31a10.14 10.14 0 0 1 3.36-3c2.27-1.09 4.53-.46 6.58 1.07a6.4 6.4 0 0 1 .63.74c.7.86 1.93 2.54 3.3 4.51" style="fill:#407bff"/><path d="M88.23 332.7a.29.29 0 0 0-.23.3.3.3 0 0 0 .59-.06.3.3 0 0 0-.36-.24m3.92-.42a.31.31 0 0 0-.26.33.3.3 0 0 0 .33.26.3.3 0 0 0 .26-.32.3.3 0 0 0-.33-.27m3.92-.41a.3.3 0 0 0 .06.59.3.3 0 1 0-.06-.59m3.92-.41a.29.29 0 1 0 .06.58.28.28 0 0 0 .26-.32.29.29 0 0 0-.31-.26Zm-5.59 3.38a.3.3 0 0 0-.25.25l.58.05a.3.3 0 0 0-.33-.3m3.92-.41a.3.3 0 0 0-.26.32.3.3 0 0 0 .18.24h.29a.29.29 0 0 0 .12-.26.3.3 0 0 0-.33-.3m-2.82-8a.29.29 0 0 0 .06.58.29.29 0 1 0-.06-.58m-5.59 3.38-.23.31a.29.29 0 0 0 .32.24.29.29 0 0 0 .27-.32.31.31 0 0 0-.36-.24Zm4-.41a.29.29 0 0 0-.26.32.29.29 0 0 0 .58 0 .29.29 0 0 0-.35-.33Zm3.87-.41a.29.29 0 0 0-.26.32.29.29 0 1 0 .58-.06.28.28 0 0 0-.35-.25Z" style="fill:#fff"/><path d="M93.56 329c.24.59 3.82 4.13 6.62 3.56.91-.19.1-5.21.1-5.21v-.39l.35-5.37-6.72-3-1-.38v6.02a34 34 0 0 0 .65 4.77" style="fill:#ad6359"/><path d="M93 321.54a10.78 10.78 0 0 0 7.31 5.39l.35-5.37-6.72-3-1-.38s.06 1.52.06 3.36" style="fill:#263238"/><path d="M107.26 313.47c1 9.41-4.52 11.07-6.54 11.28-1.85.2-8.14.62-10.11-8.63s2.09-12.69 6.28-13.36 9.37 1.3 10.37 10.71" style="fill:#ad6359"/><path d="M104.79 311.45a5 5 0 0 1-.65-.07 1 1 0 0 1-.65-.19.33.33 0 0 1 0-.41.83.83 0 0 1 .79-.28 1.2 1.2 0 0 1 .81.35.36.36 0 0 1-.3.6M98.6 312.18c.21-.05.41-.13.62-.2a1.06 1.06 0 0 0 .59-.33.33.33 0 0 0 0-.41.82.82 0 0 0-.84-.1 1.18 1.18 0 0 0-.72.51.36.36 0 0 0 .35.53M100.1 314.42v.06c.11.64.12 1.38-.43 1.67.66-.15.63-1.15.43-1.73" style="fill:#263238"/><path d="M99.45 313.83c-1 .05-.85 2.12.11 2.07s.75-2.12-.11-2.07" style="fill:#263238"/><path d="M99.05 314c-.17.14-.33.36-.55.4s-.46-.15-.64-.34c0 .4.22.79.65.81s.64-.36.7-.76c-.02-.11-.09-.19-.16-.11M103.8 313.93v.05c0 .64.18 1.38.78 1.54-.67 0-.85-.98-.78-1.59" style="fill:#263238"/><path d="M104.32 313.21c1-.17 1.28 1.9.33 2.05s-1.19-1.91-.33-2.05" style="fill:#263238"/><path d="M104.76 313.29c.18.09.37.27.56.26s.37-.26.49-.49c.06.39 0 .82-.39.94s-.63-.19-.77-.58c0-.05.04-.16.11-.13M100.79 319.54c.16.14.32.34.56.35a1.65 1.65 0 0 0 .68-.19.86.86 0 0 1-.8.39.7.7 0 0 1-.53-.55s.06-.02.09 0M103.23 317a14 14 0 0 1 .27 1.39s-.1.08-.25.1a2.14 2.14 0 0 1-2.16-.58l.06-.07a3.28 3.28 0 0 0 2 .36c0-.13-.45-1.61-.38-1.62a3.6 3.6 0 0 1 1 .13c-.42-2-1.16-3.88-1.55-5.85 0-.07.09-.11.11 0a32 32 0 0 1 1.95 6.23c.1.16-.86-.09-1.05-.09" style="fill:#263238"/><path d="M90.89 316.31a3.81 3.81 0 0 0 2.25-3c7.85-1.84 9.44-7.27 9.44-7.27 2.37 3.81 3.87 4.23 4.22 4.8a12.77 12.77 0 0 0-1.84-6.18 7.67 7.67 0 0 0-9-2.78 9 9 0 0 0-4 3.33 5.13 5.13 0 0 0-3.19 3.15c-.97 3.88 2.12 7.95 2.12 7.95" style="fill:#263238"/><path d="M102.64 305.68a6.5 6.5 0 0 1-1 3.06 8.2 8.2 0 0 1-2.23 2.36l-.69.44c-.23.14-.48.25-.73.37a10 10 0 0 1-1.51.6c-.52.15-1 .26-1.57.39l-1.6.18 1.57-.34c.51-.16 1-.29 1.52-.47a11.7 11.7 0 0 0 2.82-1.44 8.4 8.4 0 0 0 2.21-2.23 7.6 7.6 0 0 0 1.21-2.92" style="fill:#263238"/><path d="M92.18 316.69s-2.12-2.92-3.45-2.15.32 5 1.9 5.56a1.6 1.6 0 0 0 2.13-.9Z" style="fill:#ad6359"/><path d="M89.23 315.74a4.08 4.08 0 0 1 2.14 2.49.89.89 0 0 0-1.33-.21s0 .06 0 .06a1 1 0 0 1 1.09.32 4.8 4.8 0 0 1 .54.86c0 .1.23 0 .19-.07.02-1.39-1.11-3.34-2.63-3.45" style="fill:#263238"/><path d="M317.08 323.23c.09 2.38 2.16 22 4.06 24s9.84 5.34 15.84 6.24c8 1.18 18.77-1.83 23-5s6.75-26 5.56-27-14.17-7.47-23.66-7.47c-11.15 0-24.88 7.08-24.8 9.23" style="fill:#37474f"/><path d="M320.55 345.37a73 73 0 0 0 9.22 3.93 28.7 28.7 0 0 0 9.77 1.81 44.7 44.7 0 0 0 9.89-1.36 87 87 0 0 0 9.58-2.93 71 71 0 0 1-9.53 3.11 45.6 45.6 0 0 1-9.94 1.45 29 29 0 0 1-9.83-1.92 60 60 0 0 1-9.16-4.09" style="fill:#263238"/><path d="M320.11 342.77a75 75 0 0 0 9.6 4.1 30.3 30.3 0 0 0 10.2 1.9 46.8 46.8 0 0 0 10.31-1.43 90 90 0 0 0 10-3 73.6 73.6 0 0 1-9.95 3.23 47 47 0 0 1-10.36 1.43 30 30 0 0 1-10.25-2 63 63 0 0 1-9.55-4.23" style="fill:#263238"/><path d="M319.74 340.35a79 79 0 0 0 9.95 4.24 31.4 31.4 0 0 0 10.56 2 49 49 0 0 0 10.68-1.48 91 91 0 0 0 10.34-3.17 74 74 0 0 1-10.3 3.34 49 49 0 0 1-10.72 1.57 31.2 31.2 0 0 1-10.62-2.07 66 66 0 0 1-9.89-4.43" style="fill:#263238"/><path d="M320.07 338.12a76.4 76.4 0 0 0 9.95 4.24 30.8 30.8 0 0 0 10.55 2 49 49 0 0 0 10.69-1.47 91 91 0 0 0 10.34-3.17 76 76 0 0 1-10.3 3.28 49 49 0 0 1-10.72 1.57 31.3 31.3 0 0 1-10.58-2.04 65 65 0 0 1-9.93-4.41" style="fill:#263238"/><path d="M319.71 335.54a82 82 0 0 0 10.3 4.4 32.5 32.5 0 0 0 10.93 2 51 51 0 0 0 11.06-1.49 96 96 0 0 0 10.71-3.29 80 80 0 0 1-10.71 3.46 50.7 50.7 0 0 1-11.1 1.62 32.3 32.3 0 0 1-11-2.14 68 68 0 0 1-10.19-4.56" style="fill:#263238"/><path d="M319.12 332.72a83.5 83.5 0 0 0 10.58 4.52 33.2 33.2 0 0 0 11.23 2.09 51.3 51.3 0 0 0 11.35-1.57 98 98 0 0 0 11-3.37 84 84 0 0 1-10.95 3.55 52.2 52.2 0 0 1-11.4 1.66 33.3 33.3 0 0 1-11.29-2.2 69.6 69.6 0 0 1-10.52-4.68" style="fill:#263238"/><path d="M318.66 330a86 86 0 0 0 11 4.7 34.3 34.3 0 0 0 11.66 2.17 53.5 53.5 0 0 0 11.8-1.63 100 100 0 0 0 11.42-3.51 84 84 0 0 1-11.38 3.68 53.7 53.7 0 0 1-11.84 1.73 34.5 34.5 0 0 1-11.71-2.28 72.6 72.6 0 0 1-10.95-4.86" style="fill:#263238"/><path d="M318 327.45a85.6 85.6 0 0 0 11.28 4.82 35.2 35.2 0 0 0 12 2.24 54.5 54.5 0 0 0 12.12-1.68 105 105 0 0 0 11.73-3.6 88 88 0 0 1-11.68 3.77 55.4 55.4 0 0 1-12.15 1.77 35.7 35.7 0 0 1-12-2.34 75 75 0 0 1-11.3-4.98" style="fill:#263238"/><path d="M379.66 263.8a3.59 3.59 0 0 0-2.24-4c-11.64-4-26.18-6.31-35.38-6.34h-.16c-9.21 0-23.76 2.3-35.39 6.34a3.58 3.58 0 0 0-2.25 4c1.76 10.83 3.32 48.32 12.08 65.05 4.85 9.29 23.79 9.34 25.56 9.31h.12c1.77 0 20.69 0 25.56-9.31 8.79-16.73 10.34-54.22 12.1-65.05" style="fill:#407bff"/><path d="m323.98 255.74.52 10.05.44 10.05.78 20.1.6 20.11.25 10.05.16 10.06-.52-10.04-.45-10.05-.77-20.11-.61-20.1-.24-10.06zM321.1 261.8a1.9 1.9 0 0 1-2.79 2 1.94 1.94 0 0 1-.91-1.28 1.89 1.89 0 1 1 3.7-.74Zm0 0a1.56 1.56 0 0 0-.76-1 1.53 1.53 0 1 0-.61 2.87 1.58 1.58 0 0 0 1.07-.58 1.55 1.55 0 0 0 .3-1.29M321.79 273.84a1.9 1.9 0 0 1-1.3 2.19 2 2 0 0 1-1.49-.17 1.92 1.92 0 0 1-.91-1.27 2 2 0 0 1 .35-1.53 1.92 1.92 0 0 1 1.31-.73 1.9 1.9 0 0 1 2.04 1.51m0 0a1.54 1.54 0 0 0-.76-1 1.56 1.56 0 0 0-1.21-.12 1.53 1.53 0 1 0 1.68 2.41 1.6 1.6 0 0 0 .29-1.29M322.23 286.63a1.9 1.9 0 0 1-1.3 2.19 2 2 0 0 1-1.49-.17 1.91 1.91 0 0 1-.56-2.8 1.89 1.89 0 0 1 3.35.78m0 0a1.53 1.53 0 0 0-.76-1 1.56 1.56 0 0 0-1.21-.11 1.53 1.53 0 1 0 1.67 2.4 1.55 1.55 0 0 0 .3-1.29M322.67 299.42a1.89 1.89 0 0 1-2.79 2 1.89 1.89 0 1 1 2.79-2m0 0a1.6 1.6 0 0 0-.76-1 1.56 1.56 0 0 0-1.21-.12 1.53 1.53 0 0 0-1 1.76 1.52 1.52 0 0 0 2.68.65 1.58 1.58 0 0 0 .29-1.29M323.11 312.2a1.9 1.9 0 0 1-1.3 2.19 2 2 0 0 1-1.49-.17 1.92 1.92 0 0 1-.91-1.27 1.89 1.89 0 1 1 3.7-.75m0 0a1.65 1.65 0 0 0-.76-1 1.56 1.56 0 0 0-1.21-.11 1.53 1.53 0 0 0 .6 3 1.5 1.5 0 0 0 1.07-.58 1.58 1.58 0 0 0 .3-1.31M323.54 325a1.89 1.89 0 0 1-1.29 2.18 1.9 1.9 0 0 1-1.49-.16 2 2 0 0 1-.91-1.27 1.92 1.92 0 0 1 .34-1.53 1.94 1.94 0 0 1 1.31-.73 1.88 1.88 0 0 1 2.04 1.51m0 0a1.55 1.55 0 0 0-.75-1 1.52 1.52 0 0 0-1.21-.11 1.53 1.53 0 0 0 .6 3 1.6 1.6 0 0 0 1.07-.58 1.54 1.54 0 0 0 .29-1.31" style="opacity:.1"/><path d="M339.32 312.35c10.14 1.21 20.76-4.42 22-17.15 1.44-14.7-6.67-22.31-17.86-23.88-7.47-1-19.12 3.54-20.84 17.51-1.99 16.34 10.02 22.72 16.7 23.52" style="fill:#407bff"/><path d="M339.32 312.35c10.14 1.21 20.76-4.42 22-17.15 1.44-14.7-6.67-22.31-17.86-23.88-7.47-1-19.12 3.54-20.84 17.51-1.99 16.34 10.02 22.72 16.7 23.52" style="opacity:.1"/><path d="M339.46 310.37c9.47 1.13 19.37-4.12 20.54-16 1.34-13.71-6.23-20.82-16.67-22.28-7-1-17.84 3.3-19.44 16.34-1.89 15.25 9.33 21.19 15.57 21.94" style="fill:#407bff"/><path d="M341.2 308.45c12-.94 16.83-12.16 13.74-22.87-1.84-7.45-8.9-11.39-16.27-9.94-7.17 1.69-11.58 8.87-11.61 16-.47 8.73 4.75 16.88 14.14 16.8Zm0 0c-9.37.23-14.86-8.09-14.65-16.8-.28-8.61 5.93-17.39 15.11-17.27a13.88 13.88 0 0 1 13.94 11c2.83 10.82-2.34 22.29-14.4 23.05Z" style="opacity:.1"/><path d="M341.21 307.81c7.35-.36 14.47-6.09 14.32-16.11-.18-11.57-6.6-16.42-14.72-16.19-5.43.15-13.37 5.2-13.45 16.24-.1 12.92 9.01 16.31 13.85 16.06" style="fill:#407bff"/><g style="opacity:.2"><path d="M341.25 305.25c6.19-.31 12.18-5.13 12.05-13.55-.15-9.74-5.55-13.82-12.38-13.63-4.57.13-11.26 4.38-11.32 13.67-.08 10.87 7.58 13.72 11.65 13.51" style="fill:#fff"/></g><path d="M324.63 241.27c.06 1.69 1.53 15.63 2.89 17s7 3.79 11.26 4.43c5.65.84 13.34-1.3 16.33-3.58s4.8-18.46 4-19.2-10.06-5.23-16.81-5.23c-7.97.05-17.72 5.05-17.67 6.58" style="fill:#37474f"/><path d="M327.1 257a52 52 0 0 0 6.55 2.78 20.5 20.5 0 0 0 7 1.3 32.2 32.2 0 0 0 7-1 62 62 0 0 0 6.81-2.08 50 50 0 0 1-6.78 2.2 32.4 32.4 0 0 1-7.06 1 20.6 20.6 0 0 1-7-1.37 42.6 42.6 0 0 1-6.52-2.83" style="fill:#263238"/><path d="M326.78 255.17a55 55 0 0 0 6.83 2.91 21.7 21.7 0 0 0 7.25 1.35 33.7 33.7 0 0 0 7.33-1 65 65 0 0 0 7.1-2.18 51 51 0 0 1-7.07 2.3 34 34 0 0 1-7.36 1.08 21.9 21.9 0 0 1-7.29-1.42 46 46 0 0 1-6.79-3.04" style="fill:#263238"/><path d="M326.52 253.44a55 55 0 0 0 7.08 3 22.4 22.4 0 0 0 7.5 1.4 35 35 0 0 0 7.6-1.05 70 70 0 0 0 7.35-2.25 55 55 0 0 1-7.32 2.37 35 35 0 0 1-7.63 1.12 22.6 22.6 0 0 1-7.54-1.47 47.7 47.7 0 0 1-7.04-3.12" style="fill:#263238"/><path d="M326.75 251.86a56 56 0 0 0 7.08 3 22.4 22.4 0 0 0 7.5 1.4 35 35 0 0 0 7.6-1 67 67 0 0 0 7.35-2.26 54 54 0 0 1-7.32 2.38 35.7 35.7 0 0 1-7.63 1.12 22.6 22.6 0 0 1-7.54-1.47 47.7 47.7 0 0 1-7.04-3.17" style="fill:#263238"/><path d="M326.5 250a58 58 0 0 0 7.32 3.12 23 23 0 0 0 7.77 1.45 35.5 35.5 0 0 0 7.86-1.09 68 68 0 0 0 7.62-2.33 57 57 0 0 1-7.59 2.46 36 36 0 0 1-7.89 1.15 22.9 22.9 0 0 1-7.81-1.52 49.4 49.4 0 0 1-7.28-3.24" style="fill:#263238"/><path d="M326.08 248a59 59 0 0 0 7.52 3.21 23.5 23.5 0 0 0 8 1.49 36.3 36.3 0 0 0 8.08-1.12 72 72 0 0 0 7.82-2.39 59 59 0 0 1-7.79 2.52 37 37 0 0 1-8.11 1.18 23.7 23.7 0 0 1-8-1.56 50 50 0 0 1-7.52-3.33" style="fill:#263238"/><path d="M325.75 246.11a62 62 0 0 0 7.81 3.34 24.5 24.5 0 0 0 8.29 1.54 37.8 37.8 0 0 0 8.39-1.16 70 70 0 0 0 8.11-2.49 60 60 0 0 1-8.08 2.62 38.6 38.6 0 0 1-8.42 1.22 24.5 24.5 0 0 1-8.33-1.62 51.3 51.3 0 0 1-7.77-3.45" style="fill:#263238"/><path d="M325.31 244.27a61.6 61.6 0 0 0 8 3.43 24.9 24.9 0 0 0 8.52 1.59 39.3 39.3 0 0 0 8.61-1.19 76 76 0 0 0 8.34-2.56 62 62 0 0 1-8.31 2.68 39 39 0 0 1-8.64 1.26 25.3 25.3 0 0 1-8.56-1.66 53 53 0 0 1-7.96-3.55" style="fill:#263238"/><path d="M410 243.84c0-.21 4.29-1 8.36-1.63a10.29 10.29 0 0 0 8.48-8.56l5.52-35.54A10.27 10.27 0 0 0 426 187l-11.32-4.56Z" style="fill:#407bff"/><path d="M410 243.84c0-.21 4.29-1 8.36-1.63a10.29 10.29 0 0 0 8.48-8.56l5.52-35.54A10.27 10.27 0 0 0 426 187l-11.32-4.56Z" style="opacity:.2"/><path d="M275.56 242.64c0-.21-4.31-.81-8.41-1.34a10.28 10.28 0 0 1-8.77-8.27l-6.74-35.33a10.27 10.27 0 0 1 5.94-11.31l11.16-4.95Z" style="fill:#407bff"/><path d="M275.56 242.64c0-.21-4.31-.81-8.41-1.34a10.28 10.28 0 0 1-8.77-8.27l-6.74-35.33a10.27 10.27 0 0 1 5.94-11.31l11.16-4.95Z" style="opacity:.2"/><path d="M410.3 252.57s8.19-44.87 9.39-115.14c0 0-84.78-13.22-154-.8 0 0 3.11 88.88 8.9 113.77.02 0 70.78 3.71 135.71 2.17" style="fill:#407bff"/><path d="M338.62 131.37q0 15.06.13 30.12l.31 30.11.34-.37-34.14 2.49-17.07 1.28-17.07 1.4 17.09-1 17.09-1.1 34.15-2.3h.35v-.34l-.5-30.12q-.3-15.12-.68-30.17M343.36 135.9a1.93 1.93 0 0 1 1.78 2.25 2 2 0 0 1-.88 1.34 2 2 0 0 1-1.52.23 1.95 1.95 0 0 1 .62-3.82m-1.68 2.9a1.6 1.6 0 0 0 1.12.55 1.57 1.57 0 0 0 .5-3.08 1.6 1.6 0 0 0-1.24.16 1.66 1.66 0 0 0-.73 1.1 1.6 1.6 0 0 0 .35 1.27M343.13 148.27a1.9 1.9 0 0 1 1.36.7 1.94 1.94 0 0 1 .42 1.54 1.93 1.93 0 0 1-2.4 1.57 1.94 1.94 0 0 1 .62-3.81m-1.69 2.9a1.57 1.57 0 1 0 1.63-2.53 1.57 1.57 0 0 0-1.63 2.53M343.18 161.38a2 2 0 0 1 1.37.7 2 2 0 0 1 .41 1.55 2 2 0 0 1-.88 1.34 1.94 1.94 0 1 1-.9-3.59m-1.69 2.9a1.63 1.63 0 0 0 1.13.55 1.57 1.57 0 0 0 .5-3.08 1.6 1.6 0 0 0-1.24.17 1.55 1.55 0 0 0-.73 1.09 1.6 1.6 0 0 0 .34 1.27M343.23 174.5a1.94 1.94 0 1 1-.62 3.81 1.94 1.94 0 0 1 .62-3.81m-1.68 2.9a1.6 1.6 0 0 0 1.12.55 1.57 1.57 0 0 0 .5-3.08 1.6 1.6 0 0 0-1.24.16 1.63 1.63 0 0 0-.73 1.1 1.6 1.6 0 0 0 .35 1.27M332.7 193.7a1.94 1.94 0 1 1-.62 3.81 1.94 1.94 0 0 1 .62-3.81m-1.7 2.9a1.56 1.56 0 1 0 1.62-2.53 1.6 1.6 0 0 0-1.24.16 1.59 1.59 0 0 0-.38 2.37M320.17 194.68a1.94 1.94 0 1 1-2 1.63 2 2 0 0 1 2-1.63m-1.69 2.9a1.6 1.6 0 0 0 1.13.55 1.57 1.57 0 0 0 .5-3.08 1.57 1.57 0 0 0-1.63 2.53M307.63 195.67a1.94 1.94 0 0 1 1.37.7 2 2 0 0 1 .42 1.55 1.94 1.94 0 0 1-2.41 1.57 1.95 1.95 0 0 1 .62-3.82m-1.68 2.9a1.57 1.57 0 1 0 1.62-2.53 1.57 1.57 0 0 0-1.62 2.53M295.1 196.66a1.94 1.94 0 1 1-.62 3.81 1.94 1.94 0 0 1 .62-3.81m-1.68 2.9a1.6 1.6 0 0 0 1.12.55A1.57 1.57 0 0 0 295 197a1.6 1.6 0 0 0-1.24.16 1.63 1.63 0 0 0-.73 1.1 1.61 1.61 0 0 0 .39 1.3M282.42 197.63a2 2 0 0 1 1.42.59 2 2 0 0 1-.25 2.91 1.94 1.94 0 1 1-1.17-3.5m-1.46 3a1.65 1.65 0 0 0 1.17.46 1.57 1.57 0 1 0-1.61-1.7 1.62 1.62 0 0 0 .48 1.26ZM343.28 187.61a2 2 0 0 1 1.37.7 1.95 1.95 0 0 1-.47 2.89 1.94 1.94 0 1 1-.9-3.59m-1.68 2.9a1.56 1.56 0 0 0 2.73-.77 1.57 1.57 0 0 0-2.35-1.59 1.58 1.58 0 0 0-.38 2.36" style="opacity:.1"/><path d="M401.12 245.07s7.05-36.82 8.09-97.69c0 0-84.65-10.79-133.39-.69 0 0 2.73 74.93 7.75 96.49 0 0 61.3 3.22 117.55 1.89" style="fill:#37474f"/><path d="M275.91 149.09c.52 13 3.18 74.83 7.66 94.09 0 0 58.94 3.1 114.26 2 1.09-6.16 6.83-40.83 7.7-94.79 0-.04-81.2-10.39-129.62-1.3" style="fill:#263238"/><path d="m342.24 145.59-20.76-.22" style="fill:none"/><path d="m347.76 145.77-31.05-.33c1.59 0 3.18-.06 4.77-.07 7-.08 14 0 20.76.22 1.85.05 3.7.12 5.52.18" style="fill:#455a64"/><path d="m383.88 148.1-94.23-1.01" style="fill:none"/><path d="m385.39 148.24-96.72-1 1-.11 1.08-.12 91.49 1h.06l1.6.14Z" style="fill:#455a64"/><path d="m405.53 150.4-129.16-1.39" style="fill:none"/><path d="M405.53 150.35v.17l-129.62-1.4.46-.08c.23 0 .45-.09.68-.12l127.76 1.37Z" style="fill:#455a64"/><path d="m405.5 152.46-129.51-1.39" style="fill:none"/><path d="M405.5 152.33a.3.3 0 0 0 0 .13.5.5 0 0 0 0 .12L276 151.19a.5.5 0 0 1 0-.12v-.13Z" style="fill:#455a64"/><path d="m405.45 154.52-129.37-1.39" style="fill:none"/><path d="M405.45 154.39v.25l-129.37-1.39V153Z" style="fill:#455a64"/><path d="m405.41 156.57-129.24-1.38" style="fill:none"/><path d="M405.41 156.45v.12a.6.6 0 0 0 0 .13l-129.22-1.39a.5.5 0 0 1 0-.12.6.6 0 0 1 0-.13Z" style="fill:#455a64"/><path d="m405.36 158.63-129.1-1.38" style="fill:none"/><path d="M405.36 158.51v.12a.6.6 0 0 0 0 .13l-129.08-1.39a.5.5 0 0 1 0-.12.6.6 0 0 1 0-.13Z" style="fill:#455a64"/><path d="m405.3 160.69-128.95-1.38" style="fill:none"/><path d="M405.3 160.57v.12a.5.5 0 0 1 0 .13l-128.93-1.38v-.25Z" style="fill:#455a64"/><path d="m405.24 162.75-128.79-1.38" style="fill:none"/><path d="M405.24 162.63v.12a.6.6 0 0 0 0 .13l-128.78-1.38a.6.6 0 0 1 0-.13v-.12Z" style="fill:#455a64"/><path d="m405.17 164.81-128.62-1.38" style="fill:none"/><path d="M405.17 164.69v.12a.6.6 0 0 1 0 .13l-128.6-1.38a.6.6 0 0 1 0-.13.5.5 0 0 1 0-.12Z" style="fill:#455a64"/><path d="m405.1 166.88-128.45-1.38" style="fill:none"/><path d="M405.1 166.75v.25l-128.43-1.38a.5.5 0 0 1 0-.12.6.6 0 0 1 0-.13Z" style="fill:#455a64"/><path d="m405.02 168.94-128.27-1.38" style="fill:none"/><path d="M405 168.81v.13a.5.5 0 0 1 0 .12l-128.26-1.37v-.25Z" style="fill:#455a64"/><path d="m404.94 171-128.09-1.38" style="fill:none"/><path d="M404.94 170.87v.25l-128.07-1.37v-.13a.5.5 0 0 0 0-.12Z" style="fill:#455a64"/><path d="m404.85 173.06-127.89-1.38" style="fill:none"/><path d="M404.86 172.93a.6.6 0 0 0 0 .13v.12L277 171.81a.6.6 0 0 1 0-.13v-.12Z" style="fill:#455a64"/><path d="m404.76 175.12-127.69-1.37" style="fill:none"/><path d="M404.76 175v.13a.5.5 0 0 0 0 .12l-127.68-1.37v-.12a.6.6 0 0 1 0-.13Z" style="fill:#455a64"/><path d="m404.66 177.18-127.48-1.37" style="fill:none"/><path d="M404.67 177.05a.6.6 0 0 0 0 .13.5.5 0 0 0 0 .12l-127.48-1.37v-.25Z" style="fill:#455a64"/><path d="m404.56 179.24-127.26-1.37" style="fill:none"/><path d="M404.56 179.11v.13a.5.5 0 0 0 0 .12L277.3 178a.5.5 0 0 1 0-.12.6.6 0 0 1 0-.13Z" style="fill:#455a64"/><path d="m404.44 181.3-127.03-1.37" style="fill:none"/><path d="M404.45 181.18a.5.5 0 0 1 0 .12v.13l-127-1.37v-.13a.5.5 0 0 1 0-.12Z" style="fill:#455a64"/><path d="M404.33 183.36 277.52 182" style="fill:none"/><path d="M404.34 183.24a.5.5 0 0 0 0 .12v.12l-126.8-1.36a.5.5 0 0 0 0-.12v-.13Z" style="fill:#455a64"/><path d="m404.21 185.42-126.56-1.36" style="fill:none"/><path d="M404.22 185.29v.25l-126.55-1.36a.5.5 0 0 1 0-.12.6.6 0 0 1 0-.13Z" style="fill:#455a64"/><path d="m404.08 187.47-126.31-1.35" style="fill:none"/><path d="M404.09 187.35a.5.5 0 0 1 0 .12v.13l-126.31-1.35V186Z" style="fill:#455a64"/><path d="m403.95 189.53-126.06-1.35" style="fill:none"/><path d="M404 189.41a.5.5 0 0 1 0 .12.6.6 0 0 1 0 .13l-126-1.35a.5.5 0 0 0 0-.13.5.5 0 0 0 0-.12Z" style="fill:#455a64"/><path d="m403.82 191.59-125.79-1.35" style="fill:none"/><path d="M403.82 191.47v.12a.6.6 0 0 0 0 .13L278 190.37a.6.6 0 0 1 0-.13.5.5 0 0 1 0-.12Z" style="fill:#455a64"/><path d="m403.67 193.66-125.52-1.36" style="fill:none"/><path d="M403.68 193.53v.13a.5.5 0 0 1 0 .12l-125.5-1.35a.6.6 0 0 0 0-.13v-.12Z" style="fill:#455a64"/><path d="m403.52 195.72-125.23-1.35" style="fill:none"/><path d="M403.53 195.59a.6.6 0 0 1 0 .13.5.5 0 0 1 0 .12l-125.23-1.35a.5.5 0 0 1 0-.12v-.13Z" style="fill:#455a64"/><path d="m403.37 197.78-124.94-1.35" style="fill:none"/><path d="M403.37 197.65v.13a.5.5 0 0 0 0 .12l-124.92-1.34v-.25Z" style="fill:#455a64"/><path d="m403.2 199.83-124.63-1.34" style="fill:none"/><path d="M403.21 199.71a.5.5 0 0 1 0 .12.6.6 0 0 1 0 .13l-124.61-1.34a.6.6 0 0 0 0-.13v-.12Z" style="fill:#455a64"/><path d="m403.04 201.89-124.32-1.33" style="fill:none"/><path d="M403.05 201.76v.25l-124.3-1.33v-.25Z" style="fill:#455a64"/><path d="m402.87 203.95-124-1.33" style="fill:none"/><path d="M402.88 203.82v.13a.5.5 0 0 0 0 .12l-124-1.33v-.12a.6.6 0 0 0 0-.13Z" style="fill:#455a64"/><path d="m402.68 206.01-123.66-1.33" style="fill:none"/><path d="M402.7 205.88a1 1 0 0 1 0 .13.25.25 0 0 1 0 .12L279 204.8a.5.5 0 0 0 0-.12.6.6 0 0 0 0-.13Z" style="fill:#455a64"/><path d="m402.5 208.07-123.32-1.32" style="fill:none"/><path d="M402.51 208a.5.5 0 0 1 0 .12v.13l-123.3-1.33a.5.5 0 0 0 0-.12.6.6 0 0 0 0-.13Z" style="fill:#455a64"/><path d="m402.31 210.13-122.96-1.32" style="fill:none"/><path d="M402.32 210v.25l-122.94-1.33v-.25Z" style="fill:#455a64"/><path d="m402.11 212.19-122.59-1.32" style="fill:none"/><path d="M402.12 212.06a.5.5 0 0 1 0 .13v.12L279.53 211v-.25Z" style="fill:#455a64"/><path d="m401.91 214.24-122.21-1.31" style="fill:none"/><path d="M401.92 214.12v.12a.5.5 0 0 0 0 .13l-122.19-1.31a.6.6 0 0 1 0-.13.5.5 0 0 1 0-.12Z" style="fill:#455a64"/><path d="m401.69 216.3-121.82-1.31" style="fill:none"/><path d="M401.71 216.18v.25l-121.8-1.31a.6.6 0 0 0 0-.13.5.5 0 0 0 0-.12Z" style="fill:#455a64"/><path d="m401.47 218.36-121.41-1.3" style="fill:none"/><path d="M401.48 218.24a.5.5 0 0 1 0 .12v.13l-121.39-1.3a.5.5 0 0 0 0-.13v-.12Z" style="fill:#455a64"/><path d="m401.25 220.43-121-1.31" style="fill:none"/><path d="M401.26 220.3v.25l-121-1.3v-.13a.5.5 0 0 0 0-.12Z" style="fill:#455a64"/><path d="m401.01 222.48-120.55-1.3" style="fill:none"/><path d="M401 222.36a.5.5 0 0 1 0 .12.5.5 0 0 1 0 .13l-120.52-1.3v-.25Z" style="fill:#455a64"/><path d="m400.77 224.54-120.1-1.29" style="fill:none"/><path d="M400.79 224.41v.25l-120.07-1.29a.5.5 0 0 1 0-.12.6.6 0 0 1 0-.13Z" style="fill:#455a64"/><path d="m400.52 226.6-119.63-1.29" style="fill:none"/><path d="M400.54 226.47v.13a.5.5 0 0 1 0 .12l-119.59-1.28a.5.5 0 0 1 0-.13.5.5 0 0 1 0-.12Z" style="fill:#455a64"/><path d="m400.26 228.66-119.14-1.28" style="fill:none"/><path d="M400.28 228.53v.13a.5.5 0 0 1 0 .12l-119.1-1.28a.5.5 0 0 1 0-.12.6.6 0 0 1 0-.13Z" style="fill:#455a64"/><path d="m400 230.72-118.64-1.28" style="fill:none"/><path d="M400 230.59a.6.6 0 0 0 0 .13v.12l-118.6-1.28v-.25Z" style="fill:#455a64"/><path d="m399.72 232.77-118.09-1.27" style="fill:none"/><path d="M399.74 232.64v.25l-118.07-1.26a.5.5 0 0 1 0-.13.6.6 0 0 1 0-.13Z" style="fill:#455a64"/><path d="m399.44 234.83-117.54-1.26" style="fill:none"/><path d="M399.45 234.71v.12a1 1 0 0 0 0 .13l-117.5-1.27a.5.5 0 0 1 0-.12v-.13Z" style="fill:#455a64"/><path d="m399.14 236.89-116.94-1.26" style="fill:none"/><path d="M399.16 236.77v.24l-116.9-1.26v-.25Z" style="fill:#455a64"/><path d="m398.84 238.94-116.33-1.24" style="fill:none"/><path d="M398.86 238.82a.5.5 0 0 0 0 .12 1 1 0 0 0 0 .13l-116.29-1.25a.5.5 0 0 0 0-.12 1 1 0 0 0 0-.13Z" style="fill:#455a64"/><path d="m398.52 241-115.65-1.24" style="fill:none"/><path d="M398.54 240.88a.5.5 0 0 0 0 .12.6.6 0 0 0 0 .13l-115.61-1.24a.6.6 0 0 0 0-.13v-.12Z" style="fill:#455a64"/><path d="m398.18 243.06-114.91-1.24" style="fill:none"/><path d="M398.2 242.94v.25L283.3 242v-.13a.5.5 0 0 1 0-.12Z" style="fill:#455a64"/><path d="M305.87 244.13h.09l91.87.98" style="fill:none"/><path d="M397.85 245a.5.5 0 0 1 0 .12l-3.54.07-83-.9-5.34-.18h-.09l-4.6-.17Z" style="fill:#455a64"/><path d="M333.75 206.58a10.5 10.5 0 0 0 1.78 6.64 7.5 7.5 0 0 0 2.77 2.44 8.7 8.7 0 0 0 3.62.89 6.86 6.86 0 0 0 6.31-3.56 11.6 11.6 0 0 0 1.47-6.71 18.2 18.2 0 0 1-2.77 5.83 5.87 5.87 0 0 1-5 2.44 7 7 0 0 1-5.23-2.3 14.7 14.7 0 0 1-2.95-5.67M376.78 203.17c6.39-.11 6.13 12.67.21 12.77s-5.56-12.68-.21-12.77M304.58 202.32c6.38-.11 6.13 12.67.21 12.77s-5.57-12.68-.21-12.77" style="fill:#407bff"/><path d="M285.38 203.27a315 315 0 0 1-3.75-48.39v-1.6a165.5 165.5 0 0 1 26.51-3.85 172 172 0 0 1 25.09.06c-16.37 2-33 3.66-49.09 7.32l1.51-1.94c0 4 0 8 .05 12.07 0 12.11.14 24.22-.3 36.33Z" style="fill:#455a64"/><path d="M344.26 430.16s5.6 3.06 18.73 2.52 18.45-4 18.45-4-3.78-47.43-11-69.63c-2.61-8-5-15.14-12.65-14.83-8.9.36-10.09 7.53-11.39 15.82-3.27 20.39-2.14 70.12-2.14 70.12" style="fill:#407bff"/><path d="M360.05 416.18h10.83v19.87h-10.83z" style="fill:#37474f" transform="rotate(177.65 365.442 426.131)"/><path d="M344.25 430.16s5.61 3.06 18.75 2.52 18.44-4 18.44-4-.1-2.25-.31-6a27.33 27.33 0 0 0-16-4 26.82 26.82 0 0 0-20.84 10.41c-.01.69-.04 1.07-.04 1.07" style="opacity:.1"/><path d="M336.48 444.84h63.27s-4-23.34-29.29-22.45a37.78 37.78 0 0 0-33.98 22.45" style="fill:#407bff"/><path d="M340.18 437.68c0 3.95 2.81 7.16 6.27 7.16s6.27-3.21 6.27-7.16-2.81-7.16-6.27-7.16-6.27 3.2-6.27 7.16" style="fill:#407bff"/><path d="M340.18 437.68c0 3.95 2.81 7.16 6.27 7.16s6.27-3.21 6.27-7.16-2.81-7.16-6.27-7.16-6.27 3.2-6.27 7.16" style="opacity:.1"/><path d="M337.19 430.16s-5.6 3.06-18.74 2.52-18.45-4-18.45-4 3.78-47.43 11-69.63c2.6-8 5-15.14 12.65-14.83 8.9.36 10.08 7.53 11.39 15.82 3.28 20.39 2.15 70.12 2.15 70.12" style="fill:#407bff"/><path d="M310.57 416.18h10.83v19.87h-10.83z" style="fill:#37474f" transform="rotate(2.35 315.279 425.201)"/><path d="M337.19 430.16s-5.6 3.06-18.74 2.52-18.44-4-18.44-4 .1-2.25.3-6a27.35 27.35 0 0 1 16-4 26.78 26.78 0 0 1 20.83 10.41c.03.69.05 1.07.05 1.07" style="opacity:.1"/><path d="M345 444.84h-63.31s4-23.34 29.3-22.45A37.78 37.78 0 0 1 345 444.84" style="fill:#407bff"/><path d="M341.27 437.68c0 3.95-2.81 7.16-6.28 7.16s-6.27-3.21-6.27-7.16 2.81-7.16 6.27-7.16 6.28 3.2 6.28 7.16" style="fill:#407bff"/><path d="M341.27 437.68c0 3.95-2.81 7.16-6.28 7.16s-6.27-3.21-6.27-7.16 2.81-7.16 6.27-7.16 6.28 3.2 6.28 7.16" style="opacity:.1"/><path d="M302.18 348.75c.43.14 2.86 8.65 2.89 9.35a6.82 6.82 0 0 1-2.51 4c-1.57 1.18-4.49 1.54-5 1.18s-4.5-8.2-4.52-9.14 4.78-6.88 9.14-5.39" style="fill:#37474f"/><path d="M293 354.13c0 .93 4 8.78 4.52 9.14a1.7 1.7 0 0 0 .85.14c-.8-2.77-2.07-7.29-2.18-8.24-.15-1.32 1.71-4.71 3.21-6.49-3.4.86-6.4 4.71-6.4 5.45" style="fill:#263238"/><path d="M286.42 363.81c-.63 1.12-3.62 1.54-6.47.52-1.27-.45-3.93-6.66-4.06-8.76a85 85 0 0 1 0-9c.18-.58 7.71 1.72 8.12 2.35s0 7.2.72 9.75 1.91 4.75 1.69 5.14" style="fill:#37474f"/><path d="M278.19 346.78c1.69 1.82 2.15 6 2.56 7.46.36 1.3 3.41 7.56 4.76 10.28a1.8 1.8 0 0 0 .91-.71c.22-.39-.9-2.62-1.65-5.18s-.31-9.12-.72-9.75c-.27-.41-3.55-1.53-5.86-2.1" style="fill:#263238"/><path d="M294 352.2c.49.29 3.8 10.93 3.76 11.48-.11 1.35-3 3.51-4.57 3.85s-5.85-1.5-6.26-1.83a52 52 0 0 1-3.52-6.34 58.6 58.6 0 0 1-1-9.23c.15-.22 10.99 1.72 11.59 2.07" style="fill:#37474f"/><path d="M274.33 337.56c.05 1.47 1.33 13.57 2.51 14.81s6.07 3.29 9.78 3.84c4.91.74 11.59-1.12 14.18-3.11s4.17-16 3.44-16.67-8.74-4.54-14.6-4.54c-6.88 0-15.36 4.34-15.31 5.67" style="fill:#37474f"/><path d="M276.47 351.24a47 47 0 0 0 5.69 2.42 17.9 17.9 0 0 0 6 1.12 28 28 0 0 0 6.11-.84 53 53 0 0 0 5.91-1.81 44.5 44.5 0 0 1-5.89 1.92 28 28 0 0 1-6.13.89 18 18 0 0 1-6.07-1.18 37 37 0 0 1-5.62-2.52" style="fill:#263238"/><path d="M276.2 349.63a48 48 0 0 0 5.93 2.53 18.6 18.6 0 0 0 6.29 1.17 29.2 29.2 0 0 0 6.37-.88 54 54 0 0 0 6.17-1.89 44 44 0 0 1-6.14 2 28.7 28.7 0 0 1-6.39.93 18.5 18.5 0 0 1-6.33-1.23 39.4 39.4 0 0 1-5.9-2.63" style="fill:#263238"/><path d="M276 348.13a49 49 0 0 0 6.15 2.62 19.2 19.2 0 0 0 6.52 1.22 30 30 0 0 0 6.59-.92 57 57 0 0 0 6.39-1.95 48 48 0 0 1-6.36 2.06 30.2 30.2 0 0 1-6.62 1 19.4 19.4 0 0 1-6.56-1.28 40 40 0 0 1-6.11-2.75" style="fill:#263238"/><path d="M276.17 346.76a49 49 0 0 0 6.15 2.62 19.4 19.4 0 0 0 6.52 1.21 30 30 0 0 0 6.59-.91 57 57 0 0 0 6.39-1.95 47 47 0 0 1-6.36 2.06 31 31 0 0 1-6.62 1 19.4 19.4 0 0 1-6.56-1.28 41 41 0 0 1-6.11-2.75" style="fill:#263238"/><path d="M276 345.16a51 51 0 0 0 6.36 2.72 20.1 20.1 0 0 0 6.75 1.26 31 31 0 0 0 6.83-.95 59 59 0 0 0 6.61-2 48.6 48.6 0 0 1-6.58 2.13 31.8 31.8 0 0 1-6.86 1 20.1 20.1 0 0 1-6.78-1.32 41.7 41.7 0 0 1-6.33-2.84" style="fill:#263238"/><path d="M275.59 343.42a50 50 0 0 0 6.53 2.79 20.4 20.4 0 0 0 6.93 1.29 32 32 0 0 0 7-1 62 62 0 0 0 6.79-2.09 50 50 0 0 1-6.77 2.19 32 32 0 0 1-7 1 20.5 20.5 0 0 1-7-1.36 42.5 42.5 0 0 1-6.48-2.82" style="fill:#263238"/><path d="M275.31 341.76a53 53 0 0 0 6.78 2.9 21.2 21.2 0 0 0 7.2 1.34 33.2 33.2 0 0 0 7.28-1 62 62 0 0 0 7.05-2.17 51 51 0 0 1-7 2.27 33.5 33.5 0 0 1-7.31 1.07 21.6 21.6 0 0 1-7.24-1.41 44.6 44.6 0 0 1-6.76-3" style="fill:#263238"/><path d="M274.92 340.17a55 55 0 0 0 7 3 22 22 0 0 0 7.39 1.38 33.8 33.8 0 0 0 7.48-1 61 61 0 0 0 7.25-2.23 52.4 52.4 0 0 1-7.22 2.34 34.6 34.6 0 0 1-7.51 1.09 22 22 0 0 1-7.43-1.44 47 47 0 0 1-6.96-3.14" style="fill:#263238"/><path d="M299.57 270.52c-1.41 7.1.7 14.15 4.72 15.77s8.42-2.83 9.83-9.92-.7-14.15-4.72-15.77-8.4 2.83-9.83 9.92" style="fill:#37474f"/><path d="M299.7 270.57c-1.2 6 .59 11.94 4 13.3l.19.07c3.35 1.16 6.94-2.56 8.11-8.44 1-5.29-.23-10.57-2.9-12.66a4.6 4.6 0 0 0-1.09-.63c-3.41-1.36-7.13 2.38-8.31 8.36" style="fill:#455a64"/><path d="M301 271.26c-1.05 5.3.23 10.59 2.89 12.68 3.35 1.16 6.94-2.56 8.11-8.44 1-5.29-.23-10.57-2.9-12.66-3.37-1.16-6.96 2.56-8.1 8.42" style="fill:#263238"/><path d="m304 268.56 3.72 1.12c.38.11.89 1.95.62 3.89s-1.22 3.24-1.6 3.13l-3.74-1.12Z" style="fill:#37474f"/><path d="M304 268.56c-.67-.19-1.43 1.22-1.71 3.16s.05 3.67.72 3.86 1.43-1.22 1.7-3.16-.06-3.67-.71-3.86" style="fill:#455a64"/><path d="M304.8 346.1s-10.71 3.93-20.05 1.34c-10.76-3-13-8.49-13-8.49S285 286.08 295 272c3.57-5.05 7.91-11.41 12.14-7.7 2.22 1.94 4.09 14.75 3.21 20.87-2.19 15.12-5.55 60.93-5.55 60.93" style="fill:#407bff"/><path d="M300.6 311.75s-12.57-1.27-19.48-6l-1.92 6.43s7.32 4.54 20.7 5.93Z" style="fill:#263238"/><path d="M302 325.65c4.13.42 7.93-3.7 8.48-9.23.5-4.89-1.67-9.25-5-10.56a6 6 0 0 0-1.46-.36c-4.15-.46-8 3.67-8.55 9.23s2.36 10.46 6.53 10.92" style="fill:#263238"/><path d="M302 325.66c4.13.42 7.93-3.7 8.48-9.23.5-4.89-1.67-9.25-5-10.56-4.13-.42-7.92 3.71-8.48 9.24-.49 4.89 1.69 9.24 5 10.55M384.62 270.52c1.41 7.1-.7 14.15-4.72 15.77s-8.42-2.83-9.83-9.92.7-14.15 4.72-15.77 8.42 2.83 9.83 9.92" style="fill:#37474f"/><path d="M384.49 270.57c1.2 6-.59 11.94-4 13.3l-.19.07c-3.35 1.16-6.94-2.56-8.11-8.44-1.05-5.29.23-10.57 2.9-12.66a4.6 4.6 0 0 1 1.09-.63c3.41-1.36 7.13 2.38 8.31 8.36" style="fill:#455a64"/><path d="M383.22 271.26c1 5.3-.23 10.59-2.89 12.68-3.35 1.16-6.94-2.56-8.11-8.44-1.05-5.29.23-10.57 2.9-12.66 3.34-1.16 6.93 2.56 8.1 8.42" style="fill:#263238"/><path d="m380.21 268.56-3.73 1.12c-.38.11-.89 1.95-.62 3.89s1.22 3.24 1.6 3.13l3.73-1.12Z" style="fill:#37474f"/><path d="M380.21 268.56c.66-.19 1.42 1.22 1.7 3.16s-.05 3.67-.72 3.86-1.43-1.22-1.7-3.16.05-3.67.72-3.86" style="fill:#455a64"/><path d="M407.92 310c-11.69-9.64-22.81-19.41-27.17-24-4.55-4.75-8.18-15.53-7.47-18.58 1.37-5.82 9-3 15.25-.85 7.69 2.67 20.7 11.56 32.78 20.61-1.09 10.23-4.31 18.89-13.39 22.82" style="fill:#407bff"/><path d="M446.07 274.38c.43.12 7.25-5.52 7.66-6.08a6.7 6.7 0 0 0 .19-4.72c-.62-1.85-2.83-3.8-3.48-3.81s-8.35 4.22-8.89 5 .08 8.37 4.52 9.61" style="fill:#37474f"/><path d="M441.55 264.76c.54-.77 8.24-5 8.89-5a1.7 1.7 0 0 1 .78.37c-2.22 1.87-5.82 4.87-6.45 5.57-.87 1-1.25 4.86-1 7.17-2.35-2.64-2.65-7.51-2.22-8.11" style="fill:#263238"/><path d="M443.51 245.89c-.22-1.27-2.89-2.68-5.92-2.68-1.35 0-5.94 4.94-6.78 6.88a86 86 0 0 0-3 8.52c0 .61 7.84 1 8.44.53s2.41-6.78 4-8.94 3.33-3.87 3.26-4.31" style="fill:#37474f"/><path d="M430 259.14c2.2-1.15 4-4.91 4.93-6.16.77-1.1 5.76-6 7.95-8.07a1.86 1.86 0 0 1 .62 1c.07.45-1.74 2.17-3.31 4.32s-3.37 8.48-4 8.94c-.35.26-3.82.21-6.19-.03" style="fill:#263238"/><path d="M442.92 265.49c.57-.05 8.15-8.22 8.34-8.74.49-1.26-1.16-4.45-2.46-5.44s-5.93-1.17-6.44-1.05a52 52 0 0 0-5.9 4.2 57.3 57.3 0 0 0-4.91 7.88c.08.29 10.7 3.22 11.37 3.15" style="fill:#37474f"/><path d="M417.42 263.6c1.1-1 10.7-8.45 12.41-8.46s6.58 2.09 9.55 4.38c3.94 3 7.23 9.13 7.6 12.37s-8.65 14.13-9.62 14-9.34-3.14-13.4-7.36c-4.78-4.92-7.53-14.04-6.54-14.93" style="fill:#37474f"/><path d="M428.76 255.66a47 47 0 0 1 5.69 2.42 17.8 17.8 0 0 1 5 3.57 28.2 28.2 0 0 1 3.63 5 55 55 0 0 1 2.8 5.52 43 43 0 0 0-2.71-5.57 28.4 28.4 0 0 0-3.6-5 18.1 18.1 0 0 0-5.07-3.6 38 38 0 0 0-5.74-2.34" style="fill:#263238"/><path d="M427.41 256.58a46 46 0 0 1 5.94 2.52 18.6 18.6 0 0 1 5.21 3.72 28.4 28.4 0 0 1 3.78 5.2 54 54 0 0 1 2.92 5.75 45 45 0 0 0-2.82-5.81 29 29 0 0 0-3.76-5.25 18.7 18.7 0 0 0-5.28-3.71 39 39 0 0 0-5.99-2.42" style="fill:#263238"/><path d="M426.18 257.46a47 47 0 0 1 6.15 2.61 19.1 19.1 0 0 1 5.39 3.85 30 30 0 0 1 3.92 5.38 56 56 0 0 1 3 6 46 46 0 0 0-2.92-6 30.3 30.3 0 0 0-3.9-5.44 19.3 19.3 0 0 0-5.46-3.84 40.4 40.4 0 0 0-6.18-2.56" style="fill:#263238"/><path d="M425.33 258.55a49.5 49.5 0 0 1 6.15 2.61 19.3 19.3 0 0 1 5.39 3.85 30 30 0 0 1 3.92 5.39 55 55 0 0 1 3 6 46.4 46.4 0 0 0-2.92-6 30.7 30.7 0 0 0-3.9-5.44 19.5 19.5 0 0 0-5.46-3.84 42 42 0 0 0-6.18-2.57" style="fill:#263238"/><path d="M424 259.5a48 48 0 0 1 6.37 2.7 19.8 19.8 0 0 1 5.59 4 31.4 31.4 0 0 1 4.06 5.57 59 59 0 0 1 3.12 6.17 48 48 0 0 0-3-6.22 31 31 0 0 0-4-5.64 20.2 20.2 0 0 0-5.66-4 42 42 0 0 0-6.48-2.58" style="fill:#263238"/><path d="M422.52 260.44a51.6 51.6 0 0 1 6.54 2.78 20.5 20.5 0 0 1 5.74 4.09A32.7 32.7 0 0 1 439 273a60 60 0 0 1 3.2 6.34 50 50 0 0 0-3.11-6.4 32.7 32.7 0 0 0-4.14-5.78 20.7 20.7 0 0 0-5.81-4.08 45 45 0 0 0-6.62-2.64" style="fill:#263238"/><path d="M421.13 261.39a52.6 52.6 0 0 1 6.79 2.88 21.2 21.2 0 0 1 6 4.25 33.4 33.4 0 0 1 4.33 6 64 64 0 0 1 3.33 6.58 53 53 0 0 0-3.24-6.64 33.4 33.4 0 0 0-4.3-6 21.4 21.4 0 0 0-6-4.24 45.6 45.6 0 0 0-6.91-2.83" style="fill:#263238"/><path d="M419.71 262.22a55 55 0 0 1 7 2.95 22 22 0 0 1 6.12 4.37 34 34 0 0 1 4.45 6.11 66 66 0 0 1 3.42 6.76 54 54 0 0 0-3.33-6.81 33.6 33.6 0 0 0-4.42-6.17 21.7 21.7 0 0 0-6.19-4.35 46 46 0 0 0-7.05-2.86" style="fill:#263238"/><path d="M399.27 290.6c8.47-15.57 17.37-29.82 17.37-29.82s5.52-2.21 15.13 3.47c8.35 4.94 12.94 15.38 12.94 15.38s-11.56 16.4-26.1 27.72c-16.01-2.05-14.75-8.12-19.34-16.75" style="fill:#407bff"/><path d="M406.77 300.71s2-16.74-1.06-24.54l2.1-.12s7 12.08 5.33 25.43Z" style="fill:#263238"/><path d="M420 305.22c-.52 4.12-5.39 6.88-10.91 6.16-4.87-.62-8.62-3.72-9.13-7.29a5.4 5.4 0 0 1 0-1.5c.49-4.15 5.38-6.94 10.93-6.23s9.61 4.7 9.11 8.86" style="fill:#263238"/><path d="M420 305.27c-.52 4.12-5.39 6.88-10.91 6.16-4.87-.62-8.62-3.72-9.13-7.29.53-4.11 5.4-6.87 10.92-6.17 4.85.63 8.6 3.74 9.12 7.3" style="fill:#37474f"/><path d="M382.52 85.73v41.85h5.87v10.15l10.15-10.15h55.71V85.73z" style="fill:#fff"/><path d="m382.52 85.73.3 41.85-.3-.3h6.2v10.48l-.64-.26 10.11-10.19c.19-.35 55.69-.08 56-.19l-.49.49.06-41.85.43.43-71.73-.43Zm0 0c.59.16 71.63-.54 72.15-.43v.43l.07 41.85v.49h-.49c.07-.17-56.8.2-55.41-.19L388.66 138l-.64.63v-.89l.05-10.15.32.32h-6.17v-.3l.3-41.85Z" style="fill:#263238"/><path d="M431.94 106.66a3.4 3.4 0 1 0 3.4-3.4 3.4 3.4 0 0 0-3.4 3.4M415 106.66a3.4 3.4 0 1 0 3.4-3.4 3.4 3.4 0 0 0-3.4 3.4M398 106.66a3.4 3.4 0 1 0 3.4-3.4 3.4 3.4 0 0 0-3.4 3.4" style="fill:#263238"/></svg>