<svg xmlns="http://www.w3.org/2000/svg" viewBox="0 0 700 500"><defs><clipPath id="a"><path d="M524.15 144.84S520.9 165 522 170c2.51 11.19 11.32 10.71 16.83 8.57 5.15-2 10.29-9.07 10.95-10a.4.4 0 0 1 .19-.14c.82-.23 5.91-1.85 8.15-5.78 2.45-4.29-2.14-6.12-2.14-6.12" style="fill:#fff;stroke:#263238;stroke-linecap:round;stroke-miterlimit:10;stroke-width:1.060681984743595px"/></clipPath><clipPath id="b"><path d="M155.64 148.7c-.89-.33-1.73-.73-2.6-1.1s-2.46-.57-3.06 2.16c-.89 4 5.3 7.3 3.31 10.61a10.87 10.87 0 0 1-5.3 4.43 4.2 4.2 0 0 1-1.11.22c-1.77.22-4.64 0-3.76 3.09s3.76 5.75 5.53 5.75h1.77s2 6 9.5 9.28 12.6 3.1 14.37-1.1 3.1-7.74 3.1-13.27-2-14.81-2-14.81-1.77 2.44-8.62-.66c-4.53-2.05-8.77-3.71-11.13-4.6Z" style="fill:#fff;stroke:#263238;stroke-linecap:round;stroke-miterlimit:10;stroke-width:1.060681984743595px"/></clipPath></defs><path d="M610.67 316.46c-.34-12.49.63-33.79-10.32-42.56-9.62-7.7-17.1 2.75-19.8 11.18-6.54 20.45-3.47 43-3.45 64.11v1c-.51 15.54-2.38 32.35-.68 47.86 0 0-1.67-15.54-13.87-8.88s6.1 41.61 6.1 41.61-14.42-10.54-21.08-1.66 8.32 18.86 8.32 18.86-13.87-3.88-13.87 0 4.44 7.21 17.2 8.88H628s11.1-6.11 8.88-12.76-13.88-2.82-13.88-2.82 17.76-21.64 16.65-31.07-23.86 1.67-23.86 1.67 17.75-44.94 14.42-64.91c-2.62-15.73-14.83-5-21.48 1.08a181.5 181.5 0 0 0 1.94-31.59" style="fill:#407bff;stroke:#fff;stroke-linecap:round;stroke-linejoin:round"/><path d="M610.67 316.46c-.34-12.49.63-33.79-10.32-42.56-9.62-7.7-17.1 2.75-19.8 11.18-6.54 20.45-3.47 43-3.45 64.11v1c-.51 15.54-2.38 32.35-.68 47.86 0 0-1.67-15.54-13.87-8.88s6.1 41.61 6.1 41.61-14.42-10.54-21.08-1.66 8.32 18.86 8.32 18.86-13.87-3.88-13.87 0 4.44 7.21 17.2 8.88H628s11.1-6.11 8.88-12.76-13.88-2.82-13.88-2.82 17.76-21.64 16.65-31.07-23.86 1.67-23.86 1.67 17.75-44.94 14.42-64.91c-2.62-15.73-14.83-5-21.48 1.08a181.5 181.5 0 0 0 1.94-31.59" style="fill:#fff;opacity:.5"/><path d="m588.6 456.26 5-152.57M591.38 392.46l26.07-24.41M603.58 381.36l5.55-15.53M569.74 411.32l19.97 21.64M623 423.53l-33.29 17.2M605.25 433.51l12.2-.55" style="fill:#fff;stroke:#fff;stroke-linecap:round;stroke-linejoin:round"/><path d="m588.6 456.26 5-152.57M591.38 392.46l26.07-24.41M603.58 381.36l5.55-15.53M569.74 411.32l19.97 21.64M623 423.53l-33.29 17.2M605.25 433.51l12.2-.55" style="fill:#407bff;stroke:#407bff;stroke-linecap:round;stroke-linejoin:round"/><g style="opacity:.8"><path d="m588.6 456.26 5-152.57M591.38 392.46l26.07-24.41M603.58 381.36l5.55-15.53M569.74 411.32l19.97 21.64M623 423.53l-33.29 17.2M605.25 433.51l12.2-.55" style="fill:#fff;stroke:#fff;stroke-linecap:round;stroke-linejoin:round"/></g><path d="M493.3 425.43c0 15.51 12.29 28.09 12.29 28.09s12.29-12.58 12.29-28.09-12.29-28.09-12.29-28.09-12.29 12.57-12.29 28.09" style="fill:#407bff"/><path d="M484.78 449.36c6 6.73 16.14 7.46 16.14 7.46s.49-10.19-5.47-16.92-16.14-7.46-16.14-7.46-.5 10.19 5.47 16.92M516.1 439.67c-6.27 6.45-6.23 16.65-6.23 16.65s10.19-.27 16.45-6.73 6.24-16.65 6.24-16.65-10.2.27-16.46 6.73" style="fill:#407bff"/><g style="opacity:.5"><path d="M493.3 425.43c0 15.51 12.29 28.09 12.29 28.09s12.29-12.58 12.29-28.09-12.29-28.09-12.29-28.09-12.29 12.57-12.29 28.09" style="fill:#fff"/><path d="M505.59 453.52v-56.18M505.59 417.31l-6.88-6.01M505.7 426.59l8.52-12.34M505.59 431.94l-10.16-9.06M505.7 439.15l10.05-8.95M505.7 445.38l-7.87-6.23" style="fill:#fff;stroke:#fff;stroke-linecap:round;stroke-linejoin:round"/><path d="M484.78 449.36c6 6.73 16.14 7.46 16.14 7.46s.49-10.19-5.47-16.92-16.14-7.46-16.14-7.46-.5 10.19 5.47 16.92" style="fill:#fff"/><path d="m500.92 456.82-21.61-24.38M486.99 441.11l-5.3.04M490.61 445.09l-1.05-8.63M492.62 447.46l-7.89-.03M495.44 450.54l.91-7.75M497.84 453.24l-5.81.33" style="fill:#fff;stroke:#fff;stroke-linecap:round;stroke-linejoin:round"/><path d="M516.1 439.67c-6.27 6.45-6.23 16.65-6.23 16.65s10.19-.27 16.45-6.73 6.24-16.65 6.24-16.65-10.2.27-16.46 6.73" style="fill:#fff"/><path d="m509.87 456.32 22.69-23.38M524.49 441.25l-.43-5.28M520.79 445.16l8.53-1.7M518.58 447.34l-.56-7.87M515.71 450.38l7.8.34M513.2 452.97l-.76-5.76" style="fill:#fff;stroke:#fff;stroke-linecap:round;stroke-linejoin:round"/></g><path d="M505.59 453.52v-56.18M505.59 417.31l-6.88-6.01M505.7 426.59l8.52-12.34M505.59 431.94l-10.16-9.06M505.7 439.15l10.05-8.95M505.7 445.38l-7.87-6.23" style="fill:#407bff;stroke:#407bff;stroke-linecap:round;stroke-linejoin:round"/><g style="opacity:.7000000000000001"><path d="M505.59 453.52v-56.18M505.59 417.31l-6.88-6.01M505.7 426.59l8.52-12.34M505.59 431.94l-10.16-9.06M505.7 439.15l10.05-8.95M505.7 445.38l-7.87-6.23" style="fill:#fff;stroke:#fff;stroke-linecap:round;stroke-linejoin:round"/></g><path d="m500.92 456.82-21.61-24.38M486.99 441.11l-5.3.04M490.61 445.09l-1.05-8.63M492.62 447.46l-7.89-.03M495.44 450.54l.91-7.75M497.84 453.24l-5.81.33" style="fill:#407bff;stroke:#407bff;stroke-linecap:round;stroke-linejoin:round"/><g style="opacity:.7000000000000001"><path d="m500.92 456.82-21.61-24.38M486.99 441.11l-5.3.04M490.61 445.09l-1.05-8.63M492.62 447.46l-7.89-.03M495.44 450.54l.91-7.75M497.84 453.24l-5.81.33" style="fill:#fff;stroke:#fff;stroke-linecap:round;stroke-linejoin:round"/></g><path d="m509.87 456.32 22.69-23.38M524.49 441.25l-.43-5.28M520.79 445.16l8.53-1.7M518.58 447.34l-.56-7.87M515.71 450.38l7.8.34M513.2 452.97l-.76-5.76" style="fill:#407bff;stroke:#407bff;stroke-linecap:round;stroke-linejoin:round"/><g style="opacity:.7000000000000001"><path d="m509.87 456.32 22.69-23.38M524.49 441.25l-.43-5.28M520.79 445.16l8.53-1.7M518.58 447.34l-.56-7.87M515.71 450.38l7.8.34M513.2 452.97l-.76-5.76" style="fill:#fff;stroke:#fff;stroke-linecap:round;stroke-linejoin:round"/></g><path d="M102.19 316.46c.33-12.49-.63-33.79 10.32-42.56 9.62-7.7 17.1 2.75 19.79 11.18 6.55 20.45 3.47 43 3.46 64.11v1c.52 15.54 2.38 32.35.69 47.86 0 0 1.66-15.54 13.87-8.88s-6.11 41.61-6.11 41.61 14.43-10.54 21.09-1.66-8.3 18.82-8.3 18.82 13.87-3.88 13.87 0-4.44 7.21-17.2 8.88H84.86s-11.1-6.11-8.88-12.76 13.87-2.78 13.87-2.78-17.75-21.64-16.64-31.07 23.86 1.67 23.86 1.67S79.31 366.94 82.64 347c2.62-15.73 14.84-5 21.48 1.08a181.5 181.5 0 0 1-1.93-31.62" style="fill:#407bff;stroke:#fff;stroke-linecap:round;stroke-linejoin:round"/><path d="M102.19 316.46c.33-12.49-.63-33.79 10.32-42.56 9.62-7.7 17.1 2.75 19.79 11.18 6.55 20.45 3.47 43 3.46 64.11v1c.52 15.54 2.38 32.35.69 47.86 0 0 1.66-15.54 13.87-8.88s-6.11 41.61-6.11 41.61 14.43-10.54 21.09-1.66-8.3 18.82-8.3 18.82 13.87-3.88 13.87 0-4.44 7.21-17.2 8.88H84.86s-11.1-6.11-8.88-12.76 13.87-2.78 13.87-2.78-17.75-21.64-16.64-31.07 23.86 1.67 23.86 1.67S79.31 366.94 82.64 347c2.62-15.73 14.84-5 21.48 1.08a181.5 181.5 0 0 1-1.93-31.62" style="fill:#fff;opacity:.5"/><path d="m124.25 456.26-4.99-152.57M121.48 392.46 95.4 368.05M109.27 381.36l-5.55-15.53M143.11 411.32l-19.97 21.64M89.85 423.53l33.29 17.2M107.61 433.51l-12.21-.55" style="fill:#fff;stroke:#fff;stroke-linecap:round;stroke-linejoin:round"/><path d="m124.25 456.26-4.99-152.57M121.48 392.46 95.4 368.05M109.27 381.36l-5.55-15.53M143.11 411.32l-19.97 21.64M89.85 423.53l33.29 17.2M107.61 433.51l-12.21-.55" style="fill:#407bff;stroke:#407bff;stroke-linecap:round;stroke-linejoin:round"/><g style="opacity:.8"><path d="m124.25 456.26-4.99-152.57M121.48 392.46 95.4 368.05M109.27 381.36l-5.55-15.53M143.11 411.32l-19.97 21.64M89.85 423.53l33.29 17.2M107.61 433.51l-12.21-.55" style="fill:#fff;stroke:#fff;stroke-linecap:round;stroke-linejoin:round"/></g><path d="M221.56 425.43c0 15.51-12.29 28.09-12.29 28.09S197 440.94 197 425.43s12.29-28.09 12.29-28.09 12.27 12.57 12.27 28.09" style="fill:#407bff"/><path d="M230.07 449.36c-6 6.73-16.14 7.46-16.14 7.46s-.49-10.19 5.48-16.92 16.14-7.46 16.14-7.46.45 10.19-5.48 16.92M198.76 439.67c6.26 6.45 6.23 16.65 6.23 16.65s-10.19-.27-16.46-6.73-6.23-16.65-6.23-16.65 10.19.27 16.46 6.73" style="fill:#407bff"/><g style="opacity:.5"><path d="M221.56 425.43c0 15.51-12.29 28.09-12.29 28.09S197 440.94 197 425.43s12.29-28.09 12.29-28.09 12.27 12.57 12.27 28.09" style="fill:#fff"/><path d="M209.27 453.52v-56.18M209.27 417.31l6.88-6.01M209.16 426.59l-8.52-12.34M209.27 431.94l10.16-9.06M209.16 439.15l-10.05-8.95M209.16 445.38l7.86-6.23" style="fill:#fff;stroke:#fff;stroke-linecap:round;stroke-linejoin:round"/><path d="M230.07 449.36c-6 6.73-16.14 7.46-16.14 7.46s-.49-10.19 5.48-16.92 16.14-7.46 16.14-7.46.45 10.19-5.48 16.92" style="fill:#fff"/><path d="m213.93 456.82 21.62-24.38M227.87 441.11l5.29.04M224.25 445.09l1.05-8.63M222.23 447.46l7.9-.03M219.41 450.54l-.91-7.75M217.02 453.24l5.81.33" style="fill:#fff;stroke:#fff;stroke-linecap:round;stroke-linejoin:round"/><path d="M198.76 439.67c6.26 6.45 6.23 16.65 6.23 16.65s-10.19-.27-16.46-6.73-6.23-16.65-6.23-16.65 10.19.27 16.46 6.73" style="fill:#fff"/><path d="m204.99 456.32-22.69-23.38M190.36 441.25l.44-5.28M194.07 445.16l-8.53-1.7M196.27 447.34l.57-7.87M199.14 450.38l-7.8.34M201.66 452.97l.75-5.76" style="fill:#fff;stroke:#fff;stroke-linecap:round;stroke-linejoin:round"/></g><path d="M209.27 453.52v-56.18M209.27 417.31l6.88-6.01M209.16 426.59l-8.52-12.34M209.27 431.94l10.16-9.06M209.16 439.15l-10.05-8.95M209.16 445.38l7.86-6.23" style="fill:#407bff;stroke:#407bff;stroke-linecap:round;stroke-linejoin:round"/><g style="opacity:.7000000000000001"><path d="M209.27 453.52v-56.18M209.27 417.31l6.88-6.01M209.16 426.59l-8.52-12.34M209.27 431.94l10.16-9.06M209.16 439.15l-10.05-8.95M209.16 445.38l7.86-6.23" style="fill:#fff;stroke:#fff;stroke-linecap:round;stroke-linejoin:round"/></g><path d="m213.93 456.82 21.62-24.38M227.87 441.11l5.29.04M224.25 445.09l1.05-8.63M222.23 447.46l7.9-.03M219.41 450.54l-.91-7.75M217.02 453.24l5.81.33" style="fill:#407bff;stroke:#407bff;stroke-linecap:round;stroke-linejoin:round"/><g style="opacity:.7000000000000001"><path d="m213.93 456.82 21.62-24.38M227.87 441.11l5.29.04M224.25 445.09l1.05-8.63M222.23 447.46l7.9-.03M219.41 450.54l-.91-7.75M217.02 453.24l5.81.33" style="fill:#fff;stroke:#fff;stroke-linecap:round;stroke-linejoin:round"/></g><path d="m204.99 456.32-22.69-23.38M190.36 441.25l.44-5.28M194.07 445.16l-8.53-1.7M196.27 447.34l.57-7.87M199.14 450.38l-7.8.34M201.66 452.97l.75-5.76" style="fill:#407bff;stroke:#407bff;stroke-linecap:round;stroke-linejoin:round"/><g style="opacity:.7000000000000001"><path d="m204.99 456.32-22.69-23.38M190.36 441.25l.44-5.28M194.07 445.16l-8.53-1.7M196.27 447.34l.57-7.87M199.14 450.38l-7.8.34M201.66 452.97l.75-5.76" style="fill:#fff;stroke:#fff;stroke-linecap:round;stroke-linejoin:round"/></g><path d="M498.38 159.62H228.05a.61.61 0 0 1-.62-.61.62.62 0 0 1 .62-.62h270.33a.61.61 0 0 1 .61.62.61.61 0 0 1-.61.61" style="fill:#407bff"/><g style="opacity:.30000000000000004"><path d="M498.38 159.62H228.05a.61.61 0 0 1-.62-.61.62.62 0 0 1 .62-.62h270.33a.61.61 0 0 1 .61.62.61.61 0 0 1-.61.61" style="fill:#fff"/></g><path d="M497.84 266.84H227.51a.61.61 0 0 1-.62-.61.62.62 0 0 1 .62-.62h270.33a.61.61 0 0 1 .61.62.61.61 0 0 1-.61.61" style="fill:#407bff"/><g style="opacity:.30000000000000004"><path d="M497.84 266.84H227.51a.61.61 0 0 1-.62-.61.62.62 0 0 1 .62-.62h270.33a.61.61 0 0 1 .61.62.61.61 0 0 1-.61.61" style="fill:#fff"/></g><path d="M497.84 354.49H227.51a.62.62 0 0 1-.62-.62.61.61 0 0 1 .62-.61h270.33a.61.61 0 0 1 .61.61.61.61 0 0 1-.61.62" style="fill:#407bff"/><g style="opacity:.30000000000000004"><path d="M497.84 354.49H227.51a.62.62 0 0 1-.62-.62.61.61 0 0 1 .62-.61h270.33a.61.61 0 0 1 .61.61.61.61 0 0 1-.61.62" style="fill:#fff"/></g><path d="M284.98 369.32v91.22M298.01 369.32v91.22M311.04 369.32v91.22M324.07 369.32v91.22M337.1 369.32v91.22M350.13 369.32v91.22M363.16 369.32v91.22M376.19 369.32v91.22M389.22 369.32v91.22M402.25 369.32v91.22M415.28 369.32v91.22M428.31 369.32v91.22M285.63 377.79h142.03M285.63 390.17h142.03M285.63 402.55h142.03M285.63 414.93h142.03M285.63 427.31h142.03M285.63 439.69h142.03M285.63 452.07h142.03" style="fill:none;stroke:#263238;stroke-miterlimit:10;stroke-width:.26517111038041113px"/><path d="m315.47 401.32-19.06 58.76h39.92l-19.07-58.76a.94.94 0 0 0-1.79 0Z" style="fill:#407bff;stroke:#263238;stroke-miterlimit:10;stroke-width:1.060681984743595px"/><path d="m351.81 381.86-25.37 78.22H379l-25.4-78.22a.94.94 0 0 0-1.79 0Z" style="fill:#263238;stroke:#263238;stroke-miterlimit:10;stroke-width:1.060681984743595px"/><path d="m385.25 414.76-14.71 45.32h31.2L387 414.76a.94.94 0 0 0-1.75 0Z" style="fill:#407bff;stroke:#263238;stroke-miterlimit:10;stroke-width:1.060681984743595px"/><path d="m405.4 430.32-9.65 29.76h21.09l-9.65-29.76a.94.94 0 0 0-1.79 0ZM283.26 340.49a28.91 28.91 0 1 1 28.91-28.91 28.94 28.94 0 0 1-28.91 28.91Zm0-49.33a20.42 20.42 0 1 0 20.43 20.42 20.44 20.44 0 0 0-20.43-20.42Z" style="fill:#263238;stroke:#263238;stroke-miterlimit:10;stroke-width:1.060681984743595px"/><path d="M283.26 340.49a28.7 28.7 0 0 1-20.87-8.91l6.13-5.87a20.24 20.24 0 0 0 14.74 6.29 20.42 20.42 0 1 0 0-40.84v-8.49a28.91 28.91 0 1 1 0 57.82Z" style="fill:#407bff;stroke:#263238;stroke-miterlimit:10;stroke-width:1.060681984743595px"/><path d="M354.56 340.49a28.91 28.91 0 1 1 28.9-28.91 28.94 28.94 0 0 1-28.9 28.91Zm0-49.33A20.42 20.42 0 1 0 375 311.58a20.45 20.45 0 0 0-20.44-20.42Z" style="fill:#263238;stroke:#263238;stroke-miterlimit:10;stroke-width:1.060681984743595px"/><path d="m365.81 338.21-3.3-7.81a20.43 20.43 0 0 0-7.95-39.24v-8.49a28.91 28.91 0 0 1 11.25 55.54Z" style="fill:#407bff;stroke:#263238;stroke-miterlimit:10;stroke-width:1.060681984743595px"/><path d="M425.85 340.49a28.91 28.91 0 1 1 28.91-28.91 28.94 28.94 0 0 1-28.91 28.91Zm0-49.33a20.42 20.42 0 1 0 20.42 20.42 20.44 20.44 0 0 0-20.42-20.42Z" style="fill:#263238;stroke:#263238;stroke-miterlimit:10;stroke-width:1.060681984743595px"/><path d="M445.87 307.51a20.48 20.48 0 0 0-20-16.35v-8.49a29 29 0 0 1 28.33 23.15Z" style="fill:#407bff;stroke:#263238;stroke-miterlimit:10;stroke-width:1.060681984743595px"/><path d="M294.79 250.66h135.77M294.79 250.66v-2.89M321.94 250.66v-2.89M349.1 250.66v-2.89M376.25 250.66v-2.89M403.4 250.66v-2.89M430.56 250.66v-2.89" style="fill:none;stroke:#263238;stroke-miterlimit:10;stroke-width:1.060681984743595px"/><path d="M298.59 212.07h19.55v23.15h-19.55zM325.74 185.06h19.55v54.02h-19.55zM352.9 147.25h19.55v60.2H352.9zM380.05 203.59h19.55v11.58h-19.55zM407.2 196.64h19.55v30.1H407.2z" style="fill:#407bff;stroke:#263238;stroke-miterlimit:10;stroke-width:1.060681984743595px"/><path d="M298.59 235.23h19.55v15.44h-19.55zM325.74 239.09h19.55v11.58h-19.55zM352.9 207.44h19.55v43.22H352.9zM380.05 215.16h19.55v35.5h-19.55zM407.2 226.74h19.55v23.92H407.2z" style="fill:#263238;stroke:#263238;stroke-miterlimit:10;stroke-width:1.060681984743595px"/><path d="M466.74 136.32a1.42 1.42 0 0 1-1.19-.63l-42.06-61.34-42.67 45.5-43.57-28.4-42.15 9.78L252.29 136a1.44 1.44 0 1 1-1.82-2.24l43.33-35.19 44-10.21 42.58 27.76 43.47-46.36 44.08 64.3a1.44 1.44 0 0 1-1.18 2.26Z" style="fill:#263238"/><path d="M255 134.88a3.57 3.57 0 1 1-3.57-3.57 3.57 3.57 0 0 1 3.57 3.57" style="fill:#407bff"/><circle cx="294.45" cy="99.9" r="3.57" style="fill:#407bff"/><circle cx="337.52" cy="89.9" r="3.57" style="fill:#407bff"/><circle cx="380.59" cy="117.98" r="3.57" style="fill:#407bff"/><path d="M427.23 72.06a3.57 3.57 0 1 1-3.57-3.57 3.57 3.57 0 0 1 3.57 3.57M470.3 134.88a3.57 3.57 0 1 1-3.57-3.57 3.57 3.57 0 0 1 3.57 3.57" style="fill:#407bff"/><ellipse cx="543.72" cy="465.87" rx="69.02" ry="9.27" style="fill:#407bff"/><ellipse cx="543.72" cy="465.87" rx="69.02" ry="9.27" style="fill:#fff;opacity:.7000000000000001"/><ellipse cx="165.58" cy="465.87" rx="63.69" ry="9.27" style="fill:#407bff"/><ellipse cx="165.58" cy="465.87" rx="63.69" ry="9.27" style="fill:#fff;opacity:.7000000000000001"/><path d="M524.24 139.3s26.22-2.54 27.72 1.83 1 14.35 1 14.35a23.4 23.4 0 0 1 3.85 1.37c.35.34 4.23 2.88.61 7.05a10.8 10.8 0 0 1-3.37 2.53 25 25 0 0 0-4.53 2.6l-5.26 5.97 1 7.69s2.35 1.7 5.22 7.63c0 0 6.78 4 10.76 6.27a70 70 0 0 0 10.18 4.36s1.82.59 1.69 1.9-9.06 31-9.06 31l-4.7 15a33.6 33.6 0 0 1-.72 5.48c-.67 3.23-3.19 5.35-5.8 4.69l.26 11s-12.26 6.13-32.48 5.09c0 0-9.52-.92-16.56-6.13l-.13-25.7-32.44-6.28s-4.11-.87-2-4.57 9.2-12.88 9.2-12.88l22.79-27.88s1.57-1.85 2.15-2.44 2-1 7.63-1.47 11.94-1.56 11.94-1.56 3.42-2.94 3.91-2.94.59-4.4.59-4.4a14.75 14.75 0 0 1-6.07-10.76c-.49-7.14 2.64-23.87 2.64-23.87Z" style="fill:#fff"/><path d="M504.45 268.88s-2.76 41-2.76 60.62 1.23 35.51 1.84 49.29-1.84 23.27.3 33.37 7.05 39.5 7.05 39.5l5.77 3.48s1-23.39 3.1-31.65 2.76-43.17 4-53.89 5.21-48.68 5.21-48.68 15.31 39.8 19 55.42 16.23 50.82 19 59.39S574 457 574 457a9.6 9.6 0 0 0 4 .3 3.41 3.41 0 0 0 2.76-1.84s-4.07-25.64-5.86-38.1c-2.21-15.41-5.81-38.57-8-47.14s-5.51-22.05-5.51-28.48-8.26-71-8.26-71-28.78 12.53-48.68-1.86" style="fill:#263238"/><path d="m528.94 320.92-12.28-14.32M513.52 307.65l10.11 9.41M535.13 308.7a30 30 0 0 1 13.59-15.34M549.41 274.2s-1.39 5.22.35 8.36 3.49 3.14 3.49 3.14 3.13 17.07 3.13 26.83-2.09 10.8 0 21.6 3.49 14.29 3.49 20.56 2.78 10.46 5.22 14.29 3.14 15 3.14 19.51 1.39 9.41 2.79 13.94c0 0 .33 10.16 2.09 12.54s2.09 10.46 2.09 10.46M526.42 319.5s.69 8-1.75 21.95-4.18 17.77-4.53 33.8 1.05 18.82.35 27.18-4.88 21.57-4.88 27.57.64 25.18.64 25.18M518.75 276.29l.7 2.79 4.53 1.04-.7-3.48M524 280.12s8.36-.35 12.54-1.74l-1-2.79M539.31 274.89l1 3.49S547 278 548 277" style="fill:none;stroke:#fff;stroke-linecap:round;stroke-miterlimit:10;stroke-width:.5303409923717975px"/><path d="M519.45 279.08a15.2 15.2 0 0 1-6.62-1.75l-3.14-1.74 1-2.44" style="fill:none;stroke:#fff;stroke-linecap:round;stroke-miterlimit:10;stroke-width:.5303409923717975px"/><path d="M510.88 451.66s-15 9.79-17.15 14.38 6.43 2.76 12.55.31 10-11.21 10-11.21ZM574.48 457.13a36.3 36.3 0 0 0 4.4 11.9c3.3 5.13 9.53 9.53 9.53 1.46s-7.69-15-7.69-15-3.82 2.07-6.24 1.64Z" style="fill:#fff;stroke:#263238;stroke-linecap:round;stroke-miterlimit:10;stroke-width:1.060681984743595px"/><path d="M524.15 144.84S520.9 165 522 170c2.51 11.19 11.32 10.71 16.83 8.57 5.15-2 10.29-9.07 10.95-10a.4.4 0 0 1 .19-.14c.82-.23 5.91-1.85 8.15-5.78 2.45-4.29-2.14-6.12-2.14-6.12" style="fill:#fff"/><g style="clip-path:url(#a)"><path d="m545 173.76 4.86-5.34s5.75-1.77 8.26-5.82c1.47-2.37.66-4.44-.23-5a34 34 0 0 0-3.77-1.75l-1.63 3.59-1.39.24s.58-3.7-1.1-5.89-2.06-8.53-2.06-8.53-2.35 12.64-2.64 17.93a15.35 15.35 0 0 1-2.65 8.24s.3 3.23.88 6.46c.07.38.14.95.21 1.66l.8-1.28.44 1.22c-.5-2.1-.73-4.33.02-5.73" style="fill:#407bff;opacity:.5;mix-blend-mode:multiply"/></g><path d="M524.15 144.84S520.9 165 522 170c2.51 11.19 11.32 10.71 16.83 8.57 5.15-2 10.29-9.07 10.95-10a.4.4 0 0 1 .19-.14c.82-.23 5.91-1.85 8.15-5.78 2.45-4.29-2.14-6.12-2.14-6.12" style="fill:none;stroke:#263238;stroke-linecap:round;stroke-miterlimit:10;stroke-width:1.060681984743595px"/><path d="M536.59 155.09c-.19.8 0 1.52.37 1.61s.87-.47 1.06-1.26 0-1.51-.37-1.61-.87.47-1.06 1.26M528 153c-.19.8 0 1.52.37 1.61s.87-.47 1.06-1.26 0-1.52-.37-1.61-.88.46-1.06 1.26" style="fill:#263238"/><path d="M541.92 151.59a5.73 5.73 0 0 0-4.65-2.89M530.69 148.85a4.23 4.23 0 0 0-4.72.92M531.27 152.49a22.6 22.6 0 0 1-.3 4c-.33 1.67-1.63 2-1.3 3.29s2 1.42 2 1.42M533.41 166.41a5.14 5.14 0 0 0 4.27-.53" style="fill:none;stroke:#263238;stroke-linecap:round;stroke-miterlimit:10;stroke-width:1.060681984743595px"/><path d="M549.25 130.76s-6.73-5.82-13.16-5.82-11.64 3.68-15.62 4-6.73-3.37-9.18 1.53 6.74 13.17 12.86 14.39 14.69-.61 17.14-.92a51.5 51.5 0 0 1 7.05 0s-1.84 5.82 0 7.66 2.14 3.06 2.14 4.28a27.6 27.6 0 0 0 .61 4l1.84.62.92-3.37a19.55 19.55 0 0 0 4.9-9.49c.91-5.51-3.68-11-3.68-11Z" style="fill:#263238"/><path d="M523.47 142.35s10.47 2 18.67-1.41 1.13-10.18 1.13-10.18" style="fill:none;stroke:#fff;stroke-linecap:round;stroke-miterlimit:10;stroke-width:.5303409923717975px"/><path d="M545 130.19c.85 0 7.92 5.37 6.5 9.33s-4.24 4.25-4.24 4.25" style="fill:none;stroke:#fff;stroke-linecap:round;stroke-miterlimit:10;stroke-width:.5303409923717975px"/><path d="M543.84 251.66 535 247a46 46 0 0 1-6.76-.88c-2.06-.59-23.2-2.61-23.2-2.61l-.32 5s24.11 3.24 29.1 3.83 9.41 2.94 10.29 4.41 2.65 2.94 1.77 7-6.76 10-6.76 10c-.28-.42 14.14-1.46 14-3-.31-3.06-1.94-12-1.94-12Z" style="fill:#407bff"/><path d="M543.84 251.66 535 247a46 46 0 0 1-6.76-.88c-2.06-.59-23.2-2.61-23.2-2.61l-.32 5s24.11 3.24 29.1 3.83 9.41 2.94 10.29 4.41 2.65 2.94 1.77 7-6.76 10-6.76 10c-.23-.45 14.17-1.47 14-3-.47-3.9-1.94-12-1.94-12Z" style="fill:#fff;opacity:.5"/><path d="M573 202.74c-.78-3.66-6.6-3.17-10.11-5.2s-12-6.73-12-6.73l-4.11-6.18a32 32 0 0 1-1.79-5.16l-.44-1.22-.8 1.28c.51 5.48 1 19.51 1 19.51l1.76 8.82s6.77 29.1 8.53 35.57 1.76 10.87.59 12.93-.78 3-.78 3 4.59-3.55 4.31-7.07c-.37-4.14 14.39-47.07 13.84-49.55" style="fill:#407bff"/><path d="M573 202.74c-.4-3.72-6.6-3.17-10.11-5.2s-12-6.73-12-6.73l-4.11-6.18a32 32 0 0 1-1.79-5.16l-.44-1.22-.8 1.28c.51 5.48 1 19.51 1 19.51l1.76 8.82s6.77 29.1 8.53 35.57 1.76 10.87.59 12.93-.78 3-.78 3 4.72-3.56 4.31-7.07c-.47-3.77 14.2-46.46 13.84-49.55" style="fill:#fff;opacity:.5"/><path d="M547.31 199.07s-1.84-16.53-2.76-20.82-.3-6.73-4.28-6.73-8.88-.62-8 1.53 7 .3 8 1.22.3 3.06.3 3.06-8 .62-8 2.76.31 8 1.84 8.57 2.14-2.75 2.14-2.75.31 7 1.84 9.49a26.7 26.7 0 0 0 3.37 4.28Z" style="fill:#fff;stroke:#263238;stroke-linecap:round;stroke-miterlimit:10;stroke-width:1.060681984743595px"/><path d="M541.8 203.66s-.92 38 .61 44.09 9.8 14.39 14.08 10.41 2.15-12.55 2.15-16.53-9.8-33.37-9.8-35.52a17.8 17.8 0 0 0-1.23-5.2M542.41 208.26l6.12-.62" style="fill:none;stroke:#263238;stroke-linecap:round;stroke-miterlimit:10;stroke-width:1.060681984743595px"/><path d="m503.27 227.26 1.18-33.81s-1.47-.88-2.06 2.35-.88 9.71-.88 9.71-7.06-4.41-5.29-1.77 4.7 8.53 4.7 8.53L490 223.14l5 2.06Z" style="fill:#407bff"/><path d="m503.27 227.26 1.18-33.81s-1.47-.88-2.06 2.35-.88 9.71-.88 9.71-7.06-4.41-5.29-1.77 4.7 8.53 4.7 8.53L490 223.14l5 2.06Z" style="fill:#fff;opacity:.5"/><path d="M517.91 201s-.56 2 1.79 2 6.48-1.67 6.48-1.67l-.3-3.32s-5.65 2.75-7.97 2.99" style="fill:#407bff"/><path d="M517.91 201s-.56 2 1.79 2 6.48-1.67 6.48-1.67l-.3-3.32s-5.65 2.75-7.97 2.99" style="fill:#fff;opacity:.5"/><path d="M528 178.64s-3.06 18-1.22 22 4.59 3.06 6.73 1.23 4.9-6.43 4.9-6.43M503.83 243.77l.62 25.11s7 6.73 20.51 6.73 28.17-4.9 28.17-4.9v-8.88M545.17 182.23s5.51 5.51 5.51 10.72-.92 6.43-.92 6.43" style="fill:none;stroke:#263238;stroke-linecap:round;stroke-miterlimit:10;stroke-width:1.060681984743595px"/><path d="M550.06 189.89s8.27 4.89 12.86 7.65 10.11 2.75 10.11 5.2-12.86 44.09-12.86 44.09M555.27 203.66l-3.06 12.25" style="fill:none;stroke:#263238;stroke-linecap:round;stroke-miterlimit:10;stroke-width:1.060681984743595px"/><path d="m503.91 210.85-4.95-10.38M503.91 213.82l-7.42-4.45M528.12 237.04l-1.48 7.42M568.15 202.45s-7.41 1.48-14.33 9.88M563.21 202s-2-.5-8.89 5.43M528.12 204.43l-2.96 23.22 2.47.5 1.98-7.41M530.1 265.21c-8.9 7.42-21.25 6.92-21.25 6.92M492.49 224.88s-6.05-5.54-14.62 1.51" style="fill:none;stroke:#263238;stroke-linecap:round;stroke-miterlimit:10;stroke-width:.5303409923717975px"/><path d="M527.41 183.15s-2.45.61-5.21 4.9-6.12 11.63-3.67 12.24 7-2.14 7-2.14M536.9 199.38l3.06 2.75" style="fill:none;stroke:#263238;stroke-linecap:round;stroke-miterlimit:10;stroke-width:1.060681984743595px"/><path d="M523.12 186.21s-11.33 1.53-15.92 1.84-3.7 2-5.2 3.06c-2.42 1.69-30.18 36.88-32 40.25s-1.53 4.9 1.53 5.82 33.54 6.28 33.54 6.28l26.93 2.76 2.14-6.74s6.26.83 7.36.83" style="fill:none;stroke:#263238;stroke-linecap:round;stroke-miterlimit:10;stroke-width:1.060681984743595px"/><path d="M531.08 237a88 88 0 0 1-17.14-7M511.49 229.38s-9-3.34-13.87-3.95-12.33-.81-12.33-.81M503.22 225.4l.92-24.19M532 246.22a35.4 35.4 0 0 0 6.57 2.52" style="fill:none;stroke:#263238;stroke-linecap:round;stroke-miterlimit:10;stroke-width:1.060681984743595px"/><path d="m131.33 226.73 3.61-19.73 22.85-9s1.11-6.13 2.23-6.4 2.22-2.79 2.22-2.79l-.55-5.05s2.09-8 12.6-1.77c0 0-3.18 2.12-2.63 3s-.61 3.68.78 3.68 4.2 1.77 5.62 3.2a20.7 20.7 0 0 1 2.62 3.49l11.83.68a14.3 14.3 0 0 1 3.59.49c.2-5.78-.51-10.19-1.91-13.62-5.09-12.38-14.37-16.8-15.7-23s-.66-6.85-.66-6.85a11.66 11.66 0 0 0 3.09-10.61c-1.32-6.63-6.41-11.28-24.76-12.16S140.47 142 140.47 142l.22.88s-11.72 4-9.5 18.79 8.62 21.22 8.4 25.86-7.08 6.41-16.81 17-11.71 26.52-7.73 36.91c2 5.11 5.91 9.37 10.82 12.55Z" style="fill:#263238"/><path d="M146.65 228.68v4.46l-8.47 26.17a34.4 34.4 0 0 0 16.19.34 31.5 31.5 0 0 0 8.56-3.65Z" style="fill:#263238"/><path d="m171 184.83 1 4.5s3-3 8.86 6.11c0 0 12.18-.29 15.5 1.37 0 0 .69.2 2.94 2.59s10.71 10 10.71 10 10.86 10.08 11.94 10.86 5.13 4.65 8.16 6l8.12-18.49 3.62-9.15 2-7.53h.64l.14-6.07-.49-7.24a2.3 2.3 0 0 1 .49-1 13.3 13.3 0 0 0 1.91-3.82c0-.68-.69-4.7-.69-4.7s-.34-1 .4-1.12 3.47.83 3.81 2.74l1-.34a31 31 0 0 1 3.08-5.63c1.62-2.1 3.28-3.42 4.31-2.74a1.44 1.44 0 0 1 .48 1.81l-3.22 5.92s-1.42 1.91.34 2.59c0 0 3.81 2.45 4.06 4.6s-1.13 4-2.35 5.58-3.37 5-3.37 5l-2.5 2.21-1 3.81 1.18 1.47-1.76 7.63-1.27 5.72-.64 3.47-4 13.7-4 11.94s-2.06 6.84-7.05 6.65-10.46-2.89-12.23-3.77-16.36-8.5-16.36-8.5l-3-1.42a13 13 0 0 1 .51 4.21c-.05 2.64-2.89 8.46-3.72 9.78l-.49 10.32a21.4 21.4 0 0 0 .1 5.38c.44 2.69 2.69 17.91 3.18 19.81 0 0-4.86 4.4-19.34 6.49s-21.26-1.3-21.26-1.3l-6.45-3.79 7.95-15.71s2-4.67 1.8-5.9-3.62-6.53-3.62-6.53L147.87 230l-.59.2-1.95 6.52-7.05 22.11-9.28 27.6s-2.54 7-3.59 9.07l-2.93 8.93a16.5 16.5 0 0 0 1.17 4.64l-7.37-4.77 1.31-7 1.63-10.44 2-11.35 1.76-9.39 2.81-12.52 1-3.46 2-9.78 3.52-17.74 3-15.19 21-8.35 1.31-1a13.4 13.4 0 0 1 2.08-5.41 14.4 14.4 0 0 1 2.65-2.87s-.1-1.31-.17-2.55-.39-3.52-.39-3.52 6.49 2.79 9.21 1.1" style="fill:#fff"/><path d="M142.87 144.64s3.89-8.61 11.67-8.61 23.89 15.28 23.89 15.28" style="fill:none;stroke:#fff;stroke-linecap:round;stroke-miterlimit:10;stroke-width:.5303409923717975px"/><path d="M146.2 146s4.72-5 10.56-3.06 6.67 8.89 6.67 8.89M142.31 146.86s-6.94 3.89-7.5 11.12 9.72 15.83 11.11 25.56-5.83 11.94-17.5 20-9.72 26.11-7.22 30M122.59 235.77s1.66 3.61 4.16 4.72" style="fill:none;stroke:#fff;stroke-linecap:round;stroke-miterlimit:10;stroke-width:.5303409923717975px"/><path d="M143.15 165.75a4.68 4.68 0 0 0 .27 4.45c1.39 2.5 12 15 11.12 20.84s-6.39 9.44-6.39 9.44M148.42 146.86s-6.39 2.78-6.11 9.17 1.67 8.06 1.67 8.06M178.43 168a44 44 0 0 0 8.06 12.22c5 5 5.55 12.23 5.55 12.23M184.26 183.81s2.5 5.84 2.5 9.45" style="fill:none;stroke:#fff;stroke-linecap:round;stroke-miterlimit:10;stroke-width:.5303409923717975px"/><path d="m170.43 185.36-7.85 7.07s-.84 2.14-2.42 5.57-1.32 10-1.32 10l4.84 9.63s-9.31-10.68-9.84-12-10.27 1.06-12.11 1.85-4.22 2.37-3.69 4.74 2.9 5.52 1.84 6.05-3.95-.79-3.95.79 3.43 7.64 1.85 9.74-11.59 36.08-11.59 36.08 6.32-5.27 4.74-3.16-9.21 19.22-9.21 19.22l-2.9 10 6.85-35.54 5.79-30 3.48-18.4c3.36-1.12 22.85-9 22.85-9s1.54-6.48 4.45-9.19l-.55-5.05s5.31 1.86 8.74 1.6" style="fill:#407bff"/><path d="m170.43 185.36-7.85 7.07s-.84 2.14-2.42 5.57-1.32 10-1.32 10l4.84 9.63s-9.31-10.68-9.84-12-10.27 1.06-12.11 1.85-4.22 2.37-3.69 4.74 2.9 5.52 1.84 6.05-3.95-.79-3.95.79 3.43 7.64 1.85 9.74-11.59 36.08-11.59 36.08 6.32-5.27 4.74-3.16-9.21 19.22-9.21 19.22l-2.9 10 6.85-35.54 5.79-30 3.48-18.4c3.36-1.12 22.85-9 22.85-9s.42-6 4.46-8.1l-.56-6.14s5.31 1.86 8.74 1.6" style="fill:#fff;opacity:.5"/><path d="M199.65 220.9s4.74-7.89 5.27-6.05-1.32 8.15-1.32 8.15 5-1.84 4.48-.26-1.58 2.37-1.32 3.16 17.38 9.74 19.49 10.79 7.11-5 9.48-3.16 0 8.15-4.74 8.16-18.43-6-18.43-6l-10.78-6.27" style="fill:#407bff"/><path d="M199.65 220.9s4.74-7.89 5.27-6.05-1.32 8.15-1.32 8.15 5-1.84 4.48-.26-1.58 2.37-1.32 3.16 17.38 9.74 19.49 10.79 7.11-5 9.48-3.16 0 8.15-4.74 8.16-18.43-6-18.43-6l-10.74-6.25" style="fill:#fff;opacity:.5"/><path d="M171.22 252.76S202 236.44 197 242.49s-21.57 12.91-25.78 10.27" style="fill:#407bff"/><path d="M171.22 252.76S202 236.44 197 242.49s-21.57 12.91-25.78 10.27" style="fill:#fff;opacity:.5"/><path d="M161.69 183.81s.22 4.2.89 8.62.44 4.42 4.64 9.72 8.62 9.73 9.28 8.85M176.72 209.45s.44-7.74-1.1-12.82-3.76-6.86-3.76-8a29 29 0 0 0-.44-3.54" style="fill:none;stroke:#263238;stroke-linecap:round;stroke-miterlimit:10;stroke-width:1.060681984743595px"/><path d="M161.69 190.22a11.6 11.6 0 0 0-3.54 6c-.66 3.53-1.32 7.73-1.32 7.73l6.85 13.71a29.8 29.8 0 0 1 2.65-6.86 11.2 11.2 0 0 1 2.21-2.87M178.27 205.69a3.75 3.75 0 0 1 2.87.44c1.77.89 5.31 5.53 5.31 5.53s-2.43-11.5-6.63-17.46-7.08-5.53-7.08-5.53" style="fill:none;stroke:#263238;stroke-linecap:round;stroke-miterlimit:10;stroke-width:1.060681984743595px"/><path d="M156.16 198.84 134.94 207s-7.73 42.22-10.61 53.49-7.73 43.11-7.73 43.11l5.74 1.1 2-5.74" style="fill:none;stroke:#263238;stroke-linecap:round;stroke-linejoin:round"/><path d="M125.44 295.66s1.32-2 4.86-13 13-38 14.59-43.33 2.87-8.84 2.87-8.84" style="fill:none;stroke:#263238;stroke-linecap:round;stroke-miterlimit:10;stroke-width:1.060681984743595px"/><path d="M144 224s17.9 32 19.45 33.38-.66 5.08-1.11 7.07M160.36 268.47l-5.74 11.94s3.76 5.75 19.67 5.75a58.26 58.26 0 0 0 27.19-6.64s-3.76-19.89-3.54-23.43.67-12.82.67-12.82 4-6 3.53-10.61-2.43-9.95-2.43-10.83-.44-10.39-.44-10.39" style="fill:none;stroke:#263238;stroke-linecap:round;stroke-miterlimit:10;stroke-width:1.060681984743595px"/><path d="m174.26 248.82 15.84-9.72M182.6 245.77l8.61-5M230 226.47l-3.23 7.91M228.71 229.93l-3.05 3.06M138.42 258s-5.28 6.11-8.89 8.61M135.37 259.66s-9.17 7.22-11.39 8.89M137 208.26a110 110 0 0 1 7.5 12.23M145.37 222.43l1.94 3.33M199.71 221.83l2.43-12.38M200.6 222.71l3.75-5.3M147.76 230.45l-10.61-5.75M176.28 212.1s4 8 5.31 13.71M241.93 198.17a7.86 7.86 0 0 1 5.84 2M120.44 298.11l2.74 1.02" style="fill:none;stroke:#263238;stroke-linecap:round;stroke-miterlimit:10;stroke-width:.5303409923717975px"/><path d="M116.53 304a92 92 0 0 1-.6 11.38c-.66 4.65-.44 15.26.44 18.57s1.33 4 2.21 2 3.54-13.7 3.54-13.7.44 7.73 2.43 7.07.89-4.42.89-7.74.22-4.42 0-7.07-3.17-9.2-3.17-9.2" style="fill:#fff;stroke:#263238;stroke-linecap:round;stroke-miterlimit:10"/><path d="M244.51 190.92a57 57 0 0 1 0-5.87c.18-1.84-.55-4.59-.37-7s2.57-3.3 2.2-6.42-1.1-3.49-.55-4.22 4 .36 4.22 2.38a33.3 33.3 0 0 1 0 6.25c-.18.55 1.1 4 .37 5.5a10.4 10.4 0 0 0-.92 2.57M250.75 169.63s4.22-8.44 6.61-8.63 1.65 2 .91 3.12-3.12 5.14-3.3 6.8-2.39 7.15-2.39 7.15" style="fill:none;stroke:#263238;stroke-linecap:round;stroke-miterlimit:10;stroke-width:.8808433747444152px"/><path d="M255 170.92s6.43 3.85 5 7-2.21 4.41-3.31 4a8.7 8.7 0 0 1-2.57-2" style="fill:none;stroke:#263238;stroke-linecap:round;stroke-miterlimit:10;stroke-width:.8808433747444152px"/><path d="M257.36 181.93s-1.66 2.75-2.94 4.41a12.4 12.4 0 0 1-2.59 2.51l-.78 2.71" style="fill:none;stroke:#263238;stroke-linecap:round;stroke-miterlimit:10;stroke-width:.8808433747444152px"/><path d="M180.26 195.3s15.25-.22 17.24 2.21 26.09 24.54 29 26.53 3.54 2.43 3.54 2.43 11.93-27 11.93-28.3 2-7.29 2-7.29 3.76.44 4.65.44 3.31 2.88 3.31 2.88-3.31 13.48-3.31 15-6.19 22.55-9.07 29-6.85 5.52-13.26 3.53-23.87-11.93-23.87-11.93" style="fill:none;stroke:#263238;stroke-linecap:round;stroke-miterlimit:10;stroke-width:1.060681984743595px"/><path d="M154.62 280.41s-8.85 22.14-11.24 37.21-1.37 50.31-2.06 54.08-10.27 21.56-10.27 30.12-5.13 52.71-5.13 52.71l3.42 2.05s12-37 16.43-46.55 10.61-32.17 12.32-36.62 13.7-40.05 14.38-44.5 4.79-15.4 4.79-15.4 8.9 54.42 10.61 65.72 13.69 72.56 13.69 72.56a12.2 12.2 0 0 0 2.4.34c1 0 1.37-1.71 1.37-1.71s4.79-43.47 3.42-55.11-5.47-26-5.47-30.12 6.16-39.7 6.16-52-8-33.65-8-33.65-28.39 14.32-46.82.87" style="fill:#263238"/><path d="M203.15 367.45s-3.05 13.06-7.22 20M202.32 380.79s-2.5 9.44-7.5 13.89M143.15 376.62s1.94 11.39 4.16 16.11M142.59 383.29s1.67 8.06 4.72 12.78M178.15 313.56l11.11-9.17M183.43 309.67l13.06-5.84M154.81 294.11s8.62 5.55 13.62 10.28" style="fill:none;stroke:#fff;stroke-linecap:round;stroke-miterlimit:10;stroke-width:.5303409923717975px"/><path d="M126.28 454.5s-13 11-13 16.46 5.13 5.13 10.61 0 5.76-15.7 5.76-15.7ZM201.56 451.79s4.45 10.95 9.25 15.75 7.53 6.5 7.53 1.36-3.08-10.95-13-18.48c-.01 0 2.73 2.05-3.78 1.37Z" style="fill:#fff;stroke:#263238;stroke-linecap:round;stroke-miterlimit:10;stroke-width:1.060681984743595px"/><path d="M155.64 148.7c-.89-.33-1.73-.73-2.6-1.1s-2.46-.57-3.06 2.16c-.89 4 5.3 7.3 3.31 10.61a10.87 10.87 0 0 1-5.3 4.43 4.2 4.2 0 0 1-1.11.22c-1.77.22-4.64 0-3.76 3.09s3.76 5.75 5.53 5.75h1.77s2 6 9.5 9.28 12.6 3.1 14.37-1.1 3.1-7.74 3.1-13.27-2-14.81-2-14.81-1.77 2.44-8.62-.66c-4.53-2.05-8.77-3.71-11.13-4.6" style="fill:#fff"/><g style="clip-path:url(#b)"><path d="M166.78 153.3s-10.57-.59-12.15-.33.26 5-.26 9.74-.27 12.38 1.84 14.75a85 85 0 0 0 7.9 6.85s-8.11-1.31-11.06-4.74-3.42-5.27-3.42-5.27-6.85-4-7.38-7.11 4-1.46 6.17-3c1.22-.84 6.27-2.42 5-6.63s-3.32-5-3.4-7.82c-.06-2 1.7-2.58 2.78-2.76a2.35 2.35 0 0 1 1.43.21Z" style="fill:#407bff;opacity:.5;mix-blend-mode:multiply"/></g><path d="M155.64 148.7c-.89-.33-1.73-.73-2.6-1.1s-2.46-.57-3.06 2.16c-.89 4 5.3 7.3 3.31 10.61a10.87 10.87 0 0 1-5.3 4.43 4.2 4.2 0 0 1-1.11.22c-1.77.22-4.64 0-3.76 3.09s3.76 5.75 5.53 5.75h1.77s2 6 9.5 9.28 12.6 3.1 14.37-1.1 3.1-7.74 3.1-13.27-2-14.81-2-14.81-1.77 2.44-8.62-.66c-4.53-2.05-8.77-3.71-11.13-4.6Z" style="fill:none;stroke:#263238;stroke-linecap:round;stroke-miterlimit:10;stroke-width:1.060681984743595px"/><path d="M163.45 161.8c.14.84-.09 1.58-.52 1.65s-.87-.56-1-1.4.1-1.59.52-1.66.86.61 1 1.41M172.6 160.27c.13.84-.1 1.58-.52 1.65s-.87-.56-1-1.4.09-1.58.51-1.65.87.56 1.01 1.4" style="fill:#263238"/><path d="M158.15 157.72a6 6 0 0 1 5.09-2.65M170.09 155.73a4.44 4.44 0 0 1 4.86 1.33M169.21 159.49a24 24 0 0 0 0 4.2c.22 1.77 1.54 2.21 1.1 3.54s-2.21 1.32-2.21 1.32M165.89 173.86a5.4 5.4 0 0 1-4.42-.89" style="fill:none;stroke:#263238;stroke-linecap:round;stroke-miterlimit:10;stroke-width:1.060681984743595px"/></svg>