<svg xmlns="http://www.w3.org/2000/svg" viewBox="0 0 500 500"><ellipse cx="248" cy="356.77" rx="243.71" ry="136.09" style="fill:#f5f5f5"/><ellipse cx="101.22" cy="378.4" rx="51.82" ry="29.92" style="fill:#e0e0e0"/><path d="M118.19 348c-.1-6.85 3.22-47.85 3.22-47.85L101 309.87c2 24.84 3.69 36.69 3.63 38.7a3.3 3.3 0 0 0-.15 1c-.21 4.52 5 7.25 9.09 10.49a80 80 0 0 0 11 7.65c3 1.61 9.16 2.08 10 .25-4.92-4-10.62-8.33-14.47-12.78-1.81-2.18-1.83-2.42-1.91-7.18" style="fill:#9e6767"/><path d="M143.06 373.27c.26 0 .52 2.78-1 3.87-1.7 1.25-6.62 3.2-12.94 2.08s-9.64-3.22-12.12-5.34-5.87-5.21-8.72-6c-2.64-.71-5.49-2-6.31-2.84s-.52-4.32-.52-4.32Z"/><path d="M124.23 356.94c-.39-.42-.77-.84-1.13-1.26a13.2 13.2 0 0 1-2.21-3.82 18 18 0 0 1-.71-1.79c-.22-.84-.34-1.72-.51-2.57a6.5 6.5 0 0 0-.34-1.22 1.06 1.06 0 0 0-.54-.6 1.2 1.2 0 0 0-.47 0 18.3 18.3 0 0 0-6.9 1.6c-.57.26-1 .57-1.07 1.21a5.2 5.2 0 0 1-.31 2.18.74.74 0 0 1-.26.32.57.57 0 0 1-.55 0 1.15 1.15 0 0 1-.42-.4c-.63-.89-.78-2.08-1.5-2.91a2.74 2.74 0 0 0-1.51-.84c-.28-.06-1.23-.08-1.29-.48l-.18-1.85s-.57-.27-.94.83a18 18 0 0 0-.44 3.48c-.12 1.27-.29 2.26-.51 3.52-.27 1.5-.52 3-.76 4.5a15.2 15.2 0 0 0-.41 4.4 2.6 2.6 0 0 0 .89 1.68 8.8 8.8 0 0 0 2.62 1.81c1.32.64 2.7 1.16 4.06 1.73a35.8 35.8 0 0 1 8.75 5.9 27.3 27.3 0 0 0 13.19 5.47c6.32.42 10.88-1.36 12.25-3.46.22-1.46.41-3-.2-4.08-2-3.56-6.83-5-10.65-7.15a43 43 0 0 1-4.77-3.26 26.3 26.3 0 0 1-3.18-2.94" style="fill:#37474f"/><path d="M120.57 366.18a.59.59 0 0 0 .72-.09c2.76-2.71 8-4.32 9.72-3.7 0 0-.21-.84-2-1.35 0 0-4.59-.44-9.13 3.87a.59.59 0 0 0 .11.93ZM126.69 359.26c-1.9-.72-6.5 1.3-8.77 3.51a.54.54 0 0 1-.72.06l-.57-.43a.54.54 0 0 1 0-.84c1.28-1.18 5-4.19 8.54-3.7-.04 0 1.38.7 1.52 1.4M123.1 355.68c-1.37-.31-5 .45-8 2.81a.51.51 0 0 1-.76-.16l-.26-.52a.49.49 0 0 1 .13-.62c1-.82 4.55-3.31 7.87-2.87a3.26 3.26 0 0 1 1.02 1.36M134.52 364.3c-7.89 1.67-10.93 6.72-12.37 10.87a25.7 25.7 0 0 0 8.63 2.61c6.32.42 10.88-1.36 12.25-3.46.22-1.46.41-3-.2-4.08-1.59-2.86-5.04-4.35-8.31-5.94" style="fill:#fafafa"/><path d="m85.92 318.9-19-2.69c.3 10-.35 23.34-.79 34.57a21.4 21.4 0 0 0-.29 7.45c.39 2.16-3 17.57-2 22.07 1.44 6.76 12 4.65 12.44.57s1.7-12.25 3.08-23c1.11-9.2 6.47-38.33 6.56-38.97" style="fill:#9e6767"/><path d="m78.7 383.43-6.33-14.13c-1.77-1-3.87-3-5.84-1.9a8.5 8.5 0 0 0-1.91 1.32c-1.47 1.46-1.61 3.57-2 5.47s-1.79 3.64-2.09 5.61c-.57 3.71-.72 6.06.27 9.47s4.31 5.34 7.62 6.31c2.77.81 6.29.07 7.83-2.29 1.91-2.97 2.32-5.87 2.45-9.86"/><path d="M78.62 383.3c-2.55-3.44-14.87-4.67-18.32-1.58 0-.45.09-.94.15-1.45a47.5 47.5 0 0 1 2.13-9.9 42 42 0 0 0 1.53-6.15c.27-2.15.59-6.61.73-8.13a34 34 0 0 1 .42-4.48c.11-.44.24-1 .82-.83 0 0 0 .74-.09 1.19s-.07.92-.1 1.31c-.08.92-.08 1.75-.09 2.68a2.9 2.9 0 0 0 .12 1.05.4.4 0 0 0 .15.19c.26.11.24-.5.26-.62l.41-2.29a.57.57 0 0 1 .13-.33.65.65 0 0 1 .24-.15c1.93-.75 3.36-1.39 5.35-1.06a18.4 18.4 0 0 1 3.26.79c.77.27 2.14.7 2.57 1.45a1.83 1.83 0 0 1 .1 1.16c-.11 1-.25 2.19-.4 3.35-.17 1.4 1.61-3.29 1.91-5.94.74.17.65 1 0 4.14a89 89 0 0 0-1.52 11.95 86 86 0 0 0 0 9.61c.14 1.42.22 2.74.24 4.04" style="fill:#37474f"/><path d="M64.47 375.54a26.3 26.3 0 0 1 11.69 1.21.33.33 0 0 0 .46-.31v-1.09a.32.32 0 0 0-.19-.29 19.75 19.75 0 0 0-11.9-1.13.34.34 0 0 0-.27.28l-.15 1a.32.32 0 0 0 .36.33M65.62 370.12a19.36 19.36 0 0 1 10.44 1.41.32.32 0 0 0 .45-.28v-1a.3.3 0 0 0-.19-.27c-.94-.42-4.26-2.4-10.65-1.33a.31.31 0 0 0-.27.25l-.14.88a.33.33 0 0 0 .36.34M66.6 365.17a17.4 17.4 0 0 1 9.77 1.31.3.3 0 0 0 .42-.28v-1a.31.31 0 0 0-.18-.26c-.87-.41-4-2.31-10-1.23a.3.3 0 0 0-.25.25l-.13.85a.31.31 0 0 0 .37.36M60.33 381.76c-.11 3.35.18 5.63 1.94 8.13 2.24 3.2 10.52 6.19 14.09 1.45 1.77-2.36 2.18-5.12 2.34-7.91-2.35-3.54-14.95-4.81-18.37-1.67" style="fill:#fafafa"/><path d="M71.48 210.4c-2.67 21.55-2.34 47.49-3.18 61.38s-2.39 23.33-2.56 33.9C65.45 323.55 66 343 66 343s7.52 4.29 16 1.47c0 0 7.08-36.16 8.89-47.3 2.59-15.87 6-44.08 6-44.08l3.12 30a79.2 79.2 0 0 0-.93 22.56c.78 7 4.11 32.61 4.11 32.61a19.27 19.27 0 0 0 16.29-1s4.39-49 4.75-55.47c.53-9.11 1.11-77 1-84.77Z" style="fill:#455a64"/><path d="m96.87 253.05 2.39-16s10.78-3 15.35-10.26c-3 8.93-12.94 12.89-12.94 12.89l-3.41 15.53 1.74 27.84Z" style="fill:#37474f"/><path d="M112.24 138.11c8.51 1.34 11.3 4.27 14.32 11.48 5.14 12.29 10.13 24.41 10.13 24.41l23.51 9.4-2.07 15s-18.06-3.7-28.68-6.51c-3-.81-4.09-2.73-5.57-4.91-1.22-1.78-12.88-23.49-12.88-23.49Z" style="fill:#263238"/><path d="M123.77 157.65c-2.2-11.34-3.22-16.37-10.59-18.9s-20-2.43-20-2.43c-3.8 1-15.66 3.84-20.83 5.38s-4.1 13.56-2.9 21.23a220 220 0 0 1 2.76 26.47c-.2 12.22-1.3 20.47-1.78 27.46 11 7 43.19 5.76 54.86-1.27.27-5.81.36-21.14.26-28.66-.19-14.11-.86-24.5-1.78-29.28" style="fill:#37474f"/><path d="M75.9 140.37c-4.39.76-9.94 2-12.43 6-1.8 2.9-11.35 25.33-11.11 34.47 3.66 10.37 22.57-8.66 22.57-8.66 2.18-12.37 4.86-25.24.97-31.81M116.56 92.17a18.78 18.78 0 0 0-10.43-5.59 25.5 25.5 0 0 0-11.91.56c-4.48 1.32-9.29 5.17-9.58 10.66-2.14.49-3.71 2.68-4.24 5.27-.82 4 .45 8.3 1.91 11.92 0 0 4.83 8.7 5.73 10.51 1 2.11 1.79 3.87 1.79 3.87l-.27-6.61a27.7 27.7 0 0 0 7.73-1.27 49 49 0 0 0 7.2-3.27 86 86 0 0 0 12.91-9c2.29-1.87 2.71-4 2.82-6.89a13.85 13.85 0 0 0-3.66-10.16" style="fill:#263238"/><path d="M95.23 99.15a13.1 13.1 0 0 1-4.31 7.15 23.7 23.7 0 0 1 .08 8 4.4 4.4 0 0 1-.62 1.6 2 2 0 0 1-1.43.87c-.77 0-1.08-.43-1.31-1a20 20 0 0 0-1.15-2.26 4.5 4.5 0 0 0-.67-.88c-1.16-1.1-4.63-2.47-6.29 1.21s1.29 8.93 4.08 9.75c4.82 1.42 5.91-1.86 5.91-1.86l.69 17.27c2.59 2.78 12.57 6.85 15.38 10.14 1.32-2.19 4.25-5.84 1.63-10.7v-5.65a24.7 24.7 0 0 0 5.72-.38c2.51-.45 4.94-2.71 6.12-6.49 2.29-7.38 1.15-17.55.28-22.13a14.6 14.6 0 0 0-3.58-7.46.86.86 0 0 0-1.36.12 7.64 7.64 0 0 1-5.34 3c-3 .4-7.87-.38-11.54-1.57a1.76 1.76 0 0 0-2.29 1.27" style="fill:#9e6767"/><path d="M107.22 132.76c-4.46-.47-9.12-1.23-11.61-2.58a9.53 9.53 0 0 1-3.87-3.69s.19 1.78 2.55 4.17c2.66 2.69 12.93 3.8 12.93 3.8Z" style="fill:#874c4c"/><path d="M102.65 112.08a1.54 1.54 0 1 1-1.57-1.58 1.58 1.58 0 0 1 1.57 1.58M112.94 104a10.4 10.4 0 0 1 4.44 1.86 2.52 2.52 0 0 0-1.34-3.23 2.35 2.35 0 0 0-3.1 1.37" style="fill:#263238"/><path d="m102.58 121.13 5.5 1.57a2.81 2.81 0 0 1-3.48 2.07 3 3 0 0 1-2.02-3.64" style="fill:#874c4c"/><path d="M103.11 122.4a2.58 2.58 0 0 1 2.38 2.46 3 3 0 0 1-.89-.09 3 3 0 0 1-2-2.3 2.7 2.7 0 0 1 .51-.07" style="fill:#f28f8f"/><path d="M101.77 107.78a7 7 0 0 0-4.07 2.34 2.28 2.28 0 0 1 .84-3.15 2.4 2.4 0 0 1 3.23.81M116.28 110.88a1.55 1.55 0 1 1-1.58-1.58 1.58 1.58 0 0 1 1.58 1.58" style="fill:#263238"/><path d="m107.09 107.93 1 11.38 5.64-1.73a28.1 28.1 0 0 0-6.64-9.65" style="fill:#874c4c"/><path d="M105.59 149.11c-2-1.22-5.88-4.08-7.82-1.63s-3.37 5.31-4.79 4.88-6.08-4.88-7.84-8.72a17.3 17.3 0 0 1-1.36-6.64s1.69-1.86 3.09-3.3c1.55-1.6 1.81-2 3-2.1l.16 4.26a6.46 6.46 0 0 0 2.6 4.25c3.5 2.53 10.47 3.44 12.96 9M105.59 149.11c1.18-1.06 2.83-3.92 4.73-3.36s3.75 4.32 3.81 3.3-1.63-6.43-3.21-9.42c-1.21-2.3-2.43-4.33-3.7-4.56v3.34s0 2.89-.14 4.62a15.4 15.4 0 0 1-1.49 6.08" style="fill:#263238"/><path d="M75.68 148.45a23 23 0 0 0 4.15-8.06c.85-3.42 3.55-6.57 4.47-7.86s2.9-3.2 4.41-5 2-2.33 4.13-2.69c3-.51 5.33-1 6.5-.62s1.13 1.12.12 2.15-3.16 1.29-3.82 1.49-2.12.84-2.12.84l-2.77 4.07a41 41 0 0 1 5.61 1.37c.92.5 1.71 2.87 1.3 4.19 0 0 1.72 1.16 1 2.85 0 0 1.05 1.37.33 2.5a19 19 0 0 1-2.79 3.1c-.57.49-2.83.61-2.83.61a21 21 0 0 1-3.54 4.11c-1.61 1.19-2.66 1.11-4.42 3.61Z" style="fill:#9e6767"/><path d="M92.86 133.17c1.11-.48 1.36-1.23 2.41-.83s.64 1.59.64 1.59ZM97.63 138.41a10.6 10.6 0 0 0-2.28-1.47c-.77-.38-2.35-.94-2.35-.94a11.4 11.4 0 0 1 3.26.77 9 9 0 0 1 1.53.77 3 3 0 0 1-.11.77ZM97.78 140a9 9 0 0 1 1.08.54 3.2 3.2 0 0 1-.18.76 9.5 9.5 0 0 0-3-1.84 9.5 9.5 0 0 1 2.1.54M93 148a22.6 22.6 0 0 1 2.29-3.68 1.69 1.69 0 0 1 2.29-.22c.29.45-1.23.39-1.67.59A14.2 14.2 0 0 0 93 148M89.47 132.63s.86-1.21 2.39-3.14 1.45-1.65 2.94-1.94 4.32-.8 5.08-1.69a4 4 0 0 1-.42.49c-1 1-3.16 1.29-3.82 1.49s-2.12.84-2.12.84l-2.85 4.19Z" style="fill:#874c4c"/><path d="M75.68 148.45C70.67 154.5 57.16 169 54 174.83c-2.16 4-2.7 13.31-.5 16.69s8.51 2 13.62-2.52c4.4-3.87 8.08-13.18 11.28-19.81s7-14.1 7-14.1Z" style="fill:#9e6767"/><path d="M75.68 148.45a31 31 0 0 0 3-4.88 17 17 0 0 0 1-2.68 15.4 15.4 0 0 1 .91-2.73 26.7 26.7 0 0 1 3.06-4.86 42 42 0 0 1 3.71-4.37c.65-.7 1.26-1.43 1.87-2.17a5.06 5.06 0 0 1 2.3-1.75 24 24 0 0 1 2.83-.57c.94-.16 1.88-.33 2.84-.43a9 9 0 0 1 1.45-.06 2.5 2.5 0 0 1 1.43.45.82.82 0 0 1 .31.75 1.7 1.7 0 0 1-.3.72 3.6 3.6 0 0 1-1.07 1 8.8 8.8 0 0 1-2.74.95 14.7 14.7 0 0 0-2.67 1l.07-.05-2.78 4.06-.08-.2c1.7.34 3.4.66 5.07 1.17a3 3 0 0 1 .62.26 1.8 1.8 0 0 1 .5.48 4.6 4.6 0 0 1 .59 1.19 4.67 4.67 0 0 1 .21 2.62v-.12a3.2 3.2 0 0 1 1.07 1.3 2 2 0 0 1 .17.84 2.2 2.2 0 0 1-.16.84v-.1a2.51 2.51 0 0 1 .44 2.4 11 11 0 0 1-1.52 1.94c-.28.3-.56.59-.86.88a2.9 2.9 0 0 1-1 .74 10 10 0 0 1-2.43.39h.06a26 26 0 0 1-1.7 2.23 11 11 0 0 1-2 2c-.77.55-1.64.9-2.4 1.45a8.8 8.8 0 0 0-1.91 2 8.8 8.8 0 0 1 1.78-2.14c.75-.56 1.62-.93 2.37-1.49a10.8 10.8 0 0 0 2-2 28 28 0 0 0 1.66-2.25 10.6 10.6 0 0 0 2.39-.4 2.5 2.5 0 0 0 .93-.71c.29-.28.58-.57.85-.87a11 11 0 0 0 1.48-1.9 2.34 2.34 0 0 0-.43-2.2v-.05a2.3 2.3 0 0 0 .14-.77 2 2 0 0 0-.16-.76 3.1 3.1 0 0 0-1-1.21h-.06v-.08a4.4 4.4 0 0 0-.21-2.48c-.29-.78-.7-1.61-1.57-1.77-1.65-.49-3.36-.81-5-1.14h-.2l.11-.17 2.76-4.07a15 15 0 0 1 2.71-1 9 9 0 0 0 2.66-.9 3.2 3.2 0 0 0 1-1c.27-.36.4-.84 0-1.1a4 4 0 0 0-2.67-.34c-1 .1-1.89.25-2.83.41a25 25 0 0 0-2.79.55 4.84 4.84 0 0 0-2.21 1.67c-.61.73-1.23 1.47-1.88 2.17a39 39 0 0 0-3.73 4.34 26.4 26.4 0 0 0-3.06 4.81 15 15 0 0 0-.94 2.7 17 17 0 0 1-1 2.68 31.6 31.6 0 0 1-2.99 4.78" style="fill:#874c4c"/><path d="m173.02 163.49-40.23 14.84-10.44 48.28.92.95 38.23-14.91 12.44-48.22z" style="fill:#407bff"/><path d="m173.02 163.49-40.23 14.84-10.44 48.28.92.95 38.23-14.91 12.44-48.22z" style="fill:#fff;opacity:.25"/><path d="m133.71 179.28-10.44 48.28-.92-.95 10.44-48.28z" style="fill:#407bff"/><path d="m133.71 179.28-10.44 48.28-.92-.95 10.44-48.28z" style="opacity:.35000000000000003"/><path d="m173.94 164.43-40.23 14.85-10.44 48.28 38.23-14.91z" style="fill:#407bff"/><path d="M155.35 203c.39.94 3.52 3 8 2.54l.72-2.79Z" style="opacity:.2"/><path d="m161.9 174.46.31-1.61c.17-.9-2.2-.4-5.29 1.12l-7.26 2.31c-3.09 1.52-6 2.65-6.19 3.54l-.31 1.62Z" style="opacity:.1"/><path d="M164.2 167.13c.11-.56-.82-.43-2.1-.07l-2.32.83s.78-2.77-4.57-.78c-6.85 2.54-6.13 4.76-6.13 4.76a27 27 0 0 1-2.9 1.1c-2 .68-2.22 1.08-2.38 1.65l-.28 1 20.48-7.53s.09-.4.2-.96" style="fill:#37474f"/><path d="M162.08 170.26c-1.9.89-2.69 1.33-3 2.7-.31 1.58-.37 2.23-.37 2.23l-10.67 4.39s.55-2.32.68-3.09-1.29-.76-3.13.13l.41-1.93 16.48-6Z" style="fill:#263238"/><path d="m162.45 174.48.31-1.61c.17-.9-2.19-.4-5.28 1.12l-7.27 2.31c-3.09 1.51-6 2.65-6.19 3.54l-.31 1.62Z" style="fill:#263238"/><path d="M169.68 181s-1.36 5.3-1.72 6.64-6.93 4.49-10.24 5c-6.33.88-7 2.27-5.44 6.75 1.46 4.13 5.62 5.64 11.33 4.88a10.34 10.34 0 0 0 7.75-7c1.78-5.33.7-11 1.39-14.09s-1.49-4.09-3.07-2.18" style="fill:#9e6767"/><path d="M184.63 240c.51-1.2 1.82-2.07 3.8-2.31a13.84 13.84 0 0 1 11.57 4.95c1.2 1.59 1.49 3.14 1 4.34l-32.95 86.12c-.63 1.82-2.49 3.13-5.4 3.49-5.54.67-12.75-2.4-16.1-6.86-1.76-2.34-2.09-4.6-1.23-6.31Z" style="fill:#455a64"/><path d="M200 242.64c2.4 3.19 1.13 6.17-2.83 6.65a13.86 13.86 0 0 1-11.52-4.91c-2.4-3.19-1.13-6.17 2.83-6.65a13.84 13.84 0 0 1 11.52 4.91" style="fill:#37474f"/><path d="M200.81 215a8.37 8.37 0 0 1 7 3 2.64 2.64 0 0 1 .59 2.62l-10.66 25a2.64 2.64 0 0 1-2.3 1.39 8.36 8.36 0 0 1-7-3 2.66 2.66 0 0 1-.59-2.63l10.66-25a2.66 2.66 0 0 1 2.3-1.38" style="fill:#407bff"/><path d="M200.81 215a8.37 8.37 0 0 1 7 3 2.64 2.64 0 0 1 .59 2.62l-10.66 25a2.64 2.64 0 0 1-2.3 1.39 8.36 8.36 0 0 1-7-3 2.66 2.66 0 0 1-.59-2.63l10.66-25a2.66 2.66 0 0 1 2.3-1.38" style="opacity:.2"/><path d="m193.6 227.93.74.43.11.07.14.08.16.08a15 15 0 0 0 1.45.76 19 19 0 0 0 1.84.81 17 17 0 0 0 1.69.63 8 8 0 0 0 .89.26 6.5 6.5 0 0 0 1 .29c.34.1.65.18 1 .25a5 5 0 0 0 .73.15h.25l4.77-11.2a2.64 2.64 0 0 0-.59-2.62 5.7 5.7 0 0 0-1-1 36.5 36.5 0 0 1-9.17 1.57Z" style="opacity:.2"/><path d="m193.24 249-34.69 87.44a15.3 15.3 0 0 0 4.09.13c2.91-.36 4.77-1.67 5.4-3.49L200.92 247c-.51 1.21-1.82 2.06-3.8 2.3a11.5 11.5 0 0 1-3.88-.3" style="opacity:.15"/><path d="M301.62 111.46c0-.72-.06-1.43-.12-2.14s-.08-1.39-.15-2.08c0-.47-.09-.93-.15-1.39-.12-1.2-.29-2.39-.49-3.52-.09-.52-.18-1-.28-1.56s-.2-1-.31-1.45c-.3-1.31-.62-2.59-1-3.82-.19-.58-.37-1.16-.57-1.73a1.4 1.4 0 0 1-.08-.27c-.21-.57-.41-1.11-.63-1.64s-.49-1.25-.77-1.83-.39-.87-.62-1.29a6.6 6.6 0 0 0-.46-.92c-.18-.37-.37-.75-.59-1.11a2 2 0 0 0-.14-.24c-.18-.32-.37-.64-.56-1s-.27-.41-.39-.61a30.7 30.7 0 0 0-3.06-4l-.56-.64c-.16-.18-.32-.34-.48-.5s-.4-.41-.62-.62a19 19 0 0 0-1.84-1.65c-.3-.26-.62-.51-.94-.74s-.64-.48-1-.71c-.52-.37-1.05-.72-1.58-1l-.42-.26-.09-.07-9.9-5.83-.14-.08a31.53 31.53 0 0 0-15.77-4c-8.22 0-17.5 2.69-27.34 8.36C196.79 92.61 169.4 140 169.4 179c0 19.45 6.81 33.14 17.8 39.55h.11l9.92 5.81.11.07.14.08c.06 0 .11.06.16.08a15 15 0 0 0 1.45.76c.6.3 1.22.57 1.85.81a14 14 0 0 0 1.68.62 6 6 0 0 0 .89.27 6.5 6.5 0 0 0 1 .29c.34.1.65.18 1 .25a6 6 0 0 0 .73.15c.43.09.88.18 1.33.23a.8.8 0 0 0 .31.06c.52.08 1.06.16 1.58.21 9.11 1 19.7-1.61 31-8.15 33.79-19.5 61.18-66.95 61.18-105.94.03-.84.01-1.76-.02-2.69m-111.46 92a59.9 59.9 0 0 1-2.06-16c0-37 27-83.81 59.05-102.29a57.2 57.2 0 0 1 15-6.2 33 33 0 0 1 7.71-1 24 24 0 0 1 3.91.3h.11c6.55 7.75 7.51 20.17 7.51 26.8 0 37-27 83.81-59 102.28-8.14 4.7-16 7.19-22.69 7.19a15.6 15.6 0 0 1-4.13-.53 29.2 29.2 0 0 1-5.41-10.51Z" style="fill:#37474f"/><path d="M292.87 111.63c0 19.63-7.63 42.05-19.58 61.53-.56.93-1.14 1.84-1.73 2.75s-1 1.56-1.53 2.34c-1.13 1.67-2.26 3.31-3.45 4.92q-.84 1.16-1.71 2.28c-.63.83-1.27 1.65-1.91 2.46-1.23 1.55-2.51 3.06-3.8 4.53-.85 1-1.72 1.95-2.59 2.88a99.6 99.6 0 0 1-22.74 18.58c-1.53.89-3 1.69-4.54 2.42a45.5 45.5 0 0 1-15.57 4.68 25 25 0 0 1-2.57.13h-1.3a19 19 0 0 1-2.43-.25c-.39-.06-.78-.12-1.15-.21s-.75-.16-1.12-.27a17.88 17.88 0 0 1-9.59-6.21 15.5 15.5 0 0 0 4.12.52c6.72 0 14.55-2.47 22.7-7.17 32-18.47 59-65.33 59-102.29 0-6.64-1-19-7.52-26.8h-.1c8.35 1.34 13.09 7 15.77 13.57a38 38 0 0 1 1.82 5.73c0 .11.05.21.07.32.09.35.18.71.24 1.07s.14.69.2 1a2 2 0 0 1 0 .27c.07.37.14.74.2 1.1.21 1.37.38 2.7.49 4 0 .38.07.73.09 1.08s0 .54.06.8v.33c0 .29 0 .57.05.85a2 2 0 0 1 0 .23v1c.12.6.12 1.2.12 1.83" style="opacity:.25"/><path d="m196.38 224-9.18-5.4c-11-6.43-17.8-20.11-17.8-39.53 0-17.39 5.45-36.46 14.47-54l10.46 6c-9 17.5-15 36.36-15 53.76-.02 19.06 6.46 32.56 17.05 39.17" style="fill:#263238"/><path d="m283.85 74.71-.09-.07-9.9-5.82-.14-.09a31.5 31.5 0 0 0-15.77-4c-8.22 0-17.5 2.69-27.34 8.36-18.72 10.81-35.47 30.21-46.68 52l10.41 6.12-.23.43c11.25-21.54 27.92-41 46.44-52.71 16.76-10.56 32.67-10.71 43.78-4Z" style="fill:#455a64"/><path d="M287.55 108.49c0 37-27 83.81-59.05 102.29a56.9 56.9 0 0 1-15 6.2 33 33 0 0 1-7.71 1 22 22 0 0 1-7.83-1.34c-4-3.34-6.38-8.16-7.82-13.12a59.9 59.9 0 0 1-2.06-16c0-37 27-83.81 59.05-102.29a57.2 57.2 0 0 1 15-6.2 33 33 0 0 1 7.71-1 22 22 0 0 1 7.83 1.33c4 3.33 6.38 8.17 7.82 13.12a59.9 59.9 0 0 1 2.06 16.01" style="fill:#407bff;opacity:.1"/><path d="M205.81 218a33 33 0 0 0 7.71-1 56.9 56.9 0 0 0 15-6.2c32-18.48 59.05-65.33 59.05-102.29a59.9 59.9 0 0 0-2.06-16c-1.44-4.94-3.83-9.77-7.79-13.1l-.38-.13c-.35-.13-.7-.24-1.07-.35l-.63-.17c-.36-.1-.74-.17-1.11-.25l-.66-.13h-.07.07c6.56 7.75 7.52 20.16 7.52 26.8 0 37-27 83.82-59 102.29-8.15 4.7-16 7.17-22.7 7.17a15.5 15.5 0 0 1-4.12-.52l.06.08a20 20 0 0 0 2.41 2.43 22 22 0 0 0 7.77 1.37" style="fill:#fff;opacity:.30000000000000004"/><path d="m360.64 126.13-45.19 26.09c-2.42 1.39-4.38-.09-4.38-3.32v-39.2c0-3.23 2-7 4.38-8.38l45.19-26.08c2.42-1.4 4.38.08 4.38 3.31v39.21c-.02 3.24-1.96 6.97-4.38 8.37" style="fill:#fafafa"/><path d="M313.71 153.22a2.66 2.66 0 0 1-1.36-.36c-1.12-.64-1.76-2.08-1.76-4V109.7c0-3.38 2.08-7.32 4.62-8.79l45.19-26.09a3.25 3.25 0 0 1 3.34-.23c1.12.65 1.76 2.09 1.76 4v39.21c0 3.37-2.07 7.32-4.62 8.79l-45.18 26.04a4 4 0 0 1-1.99.59m48.67-78a3 3 0 0 0-1.5.46l-45.18 26.06c-2.29 1.32-4.15 4.89-4.15 8v39.2c0 1.52.47 2.66 1.28 3.13a2.35 2.35 0 0 0 2.38-.23l45.19-26.09c2.28-1.32 4.14-4.88 4.14-7.95V78.55c0-1.52-.47-2.66-1.28-3.13a1.74 1.74 0 0 0-.88-.22Z" style="fill:#e0e0e0"/><path d="m350.73 96.75-9.22 33.16 18.44-10.65z" style="fill:#407bff"/><path d="m350.73 96.75-9.22 33.16 18.44-10.65z" style="fill:#fff;opacity:.30000000000000004"/><path d="m338.05 94.47-9.23 42.76 18.45-10.65z" style="fill:#407bff"/><path d="m325.47 116.59-9.22 27.9 18.44-10.64z" style="fill:#407bff"/><path d="m325.47 116.59-9.22 27.9 18.44-10.64z" style="opacity:.30000000000000004"/><path d="m318 107.64-1.45.84c-.17.09-.3 0-.3-.23v-2.37a.71.71 0 0 1 .3-.57l1.45-.84c.17-.1.3 0 .3.23v2.36a.73.73 0 0 1-.3.58" style="fill:#407bff"/><path d="m318 107.64-1.45.84c-.17.09-.3 0-.3-.23v-2.37a.71.71 0 0 1 .3-.57l1.45-.84c.17-.1.3 0 .3.23v2.36a.73.73 0 0 1-.3.58" style="opacity:.30000000000000004"/><path d="m318 112.2-1.45.84c-.17.1-.3 0-.3-.23v-2.36a.73.73 0 0 1 .3-.58L318 109c.17-.09.3 0 .3.23v2.37a.71.71 0 0 1-.3.6M318 116.76l-1.45.84c-.17.1-.3 0-.3-.22V115a.69.69 0 0 1 .3-.57l1.45-.84c.17-.1.3 0 .3.22v2.37a.69.69 0 0 1-.3.58" style="fill:#407bff"/><path d="m318 116.76-1.45.84c-.17.1-.3 0-.3-.22V115a.69.69 0 0 1 .3-.57l1.45-.84c.17-.1.3 0 .3.22v2.37a.69.69 0 0 1-.3.58" style="fill:#fff;opacity:.30000000000000004"/><path d="M239.43 257.77a.59.59 0 0 0 .33-.43 23 23 0 0 0 .48-2.47 20 20 0 0 0 .21-2.37c0-.2-.1-.31-.24-.26l-1.64.5a11.5 11.5 0 0 0-.52-3.26l1.4-2a.64.64 0 0 0 .11-.55 7.14 7.14 0 0 0-1.88-2.7c-.1-.08-.26 0-.38.17l-1.39 2a4.2 4.2 0 0 0-2.26-.72l.34-2.38c0-.21-.05-.35-.18-.35a7.3 7.3 0 0 0-1.64.32 10 10 0 0 0-1.7.7.72.72 0 0 0-.29.49l-.34 2.38a13.2 13.2 0 0 0-2.66 2.23l-.92-1.33c-.08-.11-.24-.08-.37.07a25 25 0 0 0-2.84 4.14.57.57 0 0 0 0 .53l.92 1.32a23 23 0 0 0-1.51 3.88l-1.64.5a.62.62 0 0 0-.34.43c-.2.82-.36 1.64-.48 2.47a23 23 0 0 0-.2 2.38c0 .19.1.3.24.26l1.64-.5a11.3 11.3 0 0 0 .52 3.24l-1.4 2a.65.65 0 0 0-.11.55 7 7 0 0 0 1.88 2.7c.1.08.26 0 .38-.16l1.39-2a4.26 4.26 0 0 0 2.25.72l-.33 2.38c0 .2.05.35.18.34a7.3 7.3 0 0 0 1.64-.31 10 10 0 0 0 1.7-.71.68.68 0 0 0 .29-.49l.34-2.38a13.2 13.2 0 0 0 2.66-2.22l.92 1.32c.08.12.24.09.37-.06a24.6 24.6 0 0 0 2.83-4.15.55.55 0 0 0 0-.53l-.92-1.32a23 23 0 0 0 1.51-3.87Zm-8.43 6.08c-4.28 3.33-7.22-.89-4.94-7.11a10.6 10.6 0 0 1 3.17-4.64c4.28-3.34 7.22.89 4.94 7.11a10.6 10.6 0 0 1-3.17 4.64M251.92 258.28a.36.36 0 0 0 .08-.28 11 11 0 0 0-.2-1.42 7 7 0 0 0-.39-1.24c0-.07-.11-.07-.18 0l-1.11 1a3.4 3.4 0 0 0-1.09-1.28l.58-1.65v-.25a3.6 3.6 0 0 0-2-.4c-.07 0-.15.09-.19.2l-.58 1.65a4.9 4.9 0 0 0-1.78.7l-.29-1.31a.1.1 0 0 0-.16-.06 12 12 0 0 0-1.15.93 14 14 0 0 0-1.1 1.16.36.36 0 0 0-.09.29l.29 1.31a14 14 0 0 0-1.43 2.27l-1-.19c-.06 0-.15 0-.19.15a17.4 17.4 0 0 0-1.18 3.36c0 .11 0 .2.07.21l1 .2a11.6 11.6 0 0 0-.25 2.52l-1.1 1a.36.36 0 0 0-.12.29 9 9 0 0 0 .2 1.42 7 7 0 0 0 .39 1.24c0 .07.11.07.18 0l1.11-1a3.2 3.2 0 0 0 1.09 1.28l-.58 1.66v.24a3.6 3.6 0 0 0 2 .4c.07 0 .15-.09.19-.2l.57-1.64a5.1 5.1 0 0 0 1.79-.71l.29 1.31a.09.09 0 0 0 .16.06 10.4 10.4 0 0 0 1.15-.93 13 13 0 0 0 1.1-1.15.43.43 0 0 0 .09-.3l-.29-1.3a14.4 14.4 0 0 0 1.43-2.28l1 .2c.06 0 .15-.06.19-.16a18.4 18.4 0 0 0 1.18-3.36c0-.11 0-.2-.07-.21l-1-.2a11.6 11.6 0 0 0 .25-2.52Zm-5 7.08c-2.29 3.18-5.12 2.54-4.93-1.18a8 8 0 0 1 1.48-4.09c2.3-3.17 5.12-2.53 4.94 1.19a7.85 7.85 0 0 1-1.49 4.08M255.14 236.08a.36.36 0 0 0 .12-.29 9.3 9.3 0 0 0-.2-1.42 7 7 0 0 0-.39-1.24c0-.07-.11-.07-.18 0l-1.11 1a3.5 3.5 0 0 0-1.08-1.29l.57-1.64v-.25a3.6 3.6 0 0 0-2-.4c-.07 0-.15.09-.19.2l-.57 1.64a5.1 5.1 0 0 0-1.79.71l-.29-1.31a.1.1 0 0 0-.16-.06 12 12 0 0 0-1.15.93 15 15 0 0 0-1.1 1.15.38.38 0 0 0-.08.3l.29 1.31a13.2 13.2 0 0 0-1.44 2.27l-1-.2c-.06 0-.14.06-.19.16A18 18 0 0 0 242 241c0 .11 0 .2.07.21l1 .2a11.6 11.6 0 0 0-.25 2.52l-1.1 1a.36.36 0 0 0-.12.29 9 9 0 0 0 .2 1.42 7 7 0 0 0 .39 1.24c0 .07.11.07.18 0l1.11-1a3.4 3.4 0 0 0 1.09 1.28l-.58 1.66v.24a3.6 3.6 0 0 0 2 .4c.07 0 .15-.09.19-.2l.58-1.64a5.3 5.3 0 0 0 1.78-.71l.29 1.31a.1.1 0 0 0 .16.06 9.6 9.6 0 0 0 1.15-.93 13 13 0 0 0 1.1-1.15.38.38 0 0 0 .09-.3l-.29-1.3a14.4 14.4 0 0 0 1.43-2.28l1 .2c.06 0 .15-.06.2-.16a18.4 18.4 0 0 0 1.17-3.36c0-.11 0-.2-.07-.21l-1-.2a11.6 11.6 0 0 0 .25-2.52Zm-5 7.08c-2.3 3.18-5.12 2.54-4.94-1.18a7.9 7.9 0 0 1 1.49-4.09c2.29-3.17 5.12-2.54 4.93 1.19a8 8 0 0 1-1.47 4.08Z" style="fill:#e6e6e6"/><path d="M142.31 123.85c-.17.09-.31 0-.31-.3V84.9a.82.82 0 0 1 .31-.66c.17-.1.31 0 .31.3v38.65a.84.84 0 0 1-.31.66" style="fill:#e0e0e0"/><path d="m182.6 100.59-44 25.39c-.17.1-.3 0-.3-.3a.81.81 0 0 1 .3-.65l44-25.39c.17-.1.3 0 .3.29a.82.82 0 0 1-.3.66" style="fill:#e0e0e0"/><path d="m149.9 87.73-5.4 3.12v27.14l5.4-3.12z" style="fill:#f5f5f5"/><path d="m157.57 102.13-5.4 3.12v8.31l5.4-3.12z" style="fill:#ebebeb"/><path d="m165.24 72.42-5.4 3.12v33.59l5.4-3.12z" style="fill:#f5f5f5"/><path d="m172.91 81.41-5.4 3.12v20.17l5.4-3.12z" style="fill:#e0e0e0"/><path d="m180.58 84.8-5.4 3.12v12.35l5.4-3.11z" style="fill:#f5f5f5"/><path d="M300.42 180.63v12.28L293 204.82c-2.63-3.38-1.86-11.81 2.25-18.47a16.3 16.3 0 0 1 5.17-5.72" style="fill:#e0e0e0"/><path d="M310.56 191.46c-1.48 7.46-6.63 14.4-11.7 15.64a5 5 0 0 1-5-1.24l7.51-12.14Z" style="fill:#f0f0f0"/><path d="m310.75 190.17-8.84 2.16 5-13.05c3.09 1.19 4.62 5.37 3.84 10.89" style="fill:#e0e0e0"/><path d="M305.94 179.18 301.46 191v-11a6.3 6.3 0 0 1 4.48-.82" style="fill:#f0f0f0"/><path d="M365.6 425.42c-9.65 0-19.29-2.12-26.63-6.36s-11.18-9.72-11.18-15.66 4-11.49 11.18-15.65c14.68-8.48 38.57-8.48 53.26 0 7.2 4.16 11.17 9.72 11.17 15.65s-4 11.5-11.17 15.66c-7.35 4.24-16.99 6.36-26.63 6.36m0-43.07c-9.47 0-18.94 2.08-26.15 6.24-6.89 4-10.69 9.24-10.69 14.81s3.8 10.84 10.69 14.82c14.42 8.32 37.87 8.32 52.29 0 6.89-4 10.69-9.24 10.69-14.82s-3.8-10.83-10.69-14.81c-7.2-4.16-16.68-6.24-26.14-6.24" style="fill:#407bff"/><path d="M366.59 395.53v6.28l-6.2-16.81v-6.27Z" style="fill:#263238"/><path d="M366.6 395.53v6.28l25.58-8.88v-6.27z" style="fill:#37474f"/><path d="m360.39 378.68 6.21 16.85 25.58-8.87c-7.02-6.13-19.18-9.19-31.79-7.98" style="fill:#455a64"/><path d="M333.67 396.7a1 1 0 0 0 0 .19z" style="fill:#407bff"/><path d="m364.05 403.45-3.8 17.87c-15.51-1.51-26.71-9.36-26.58-18.32v-6.12c0 8.89 11.18 16.65 26.59 18.16l2.61-12.28Z" style="fill:#407bff"/><path d="m364.05 403.45-3.8 17.87c-15.51-1.51-26.71-9.36-26.58-18.32v-6.12c0 8.89 11.18 16.65 26.59 18.16l2.61-12.28Z" style="opacity:.4"/><path d="M363.16 415.25v6.28A49.6 49.6 0 0 0 382 419c7.31-2.54 12.47-6.57 14.53-11.34a11.2 11.2 0 0 0 1-4.39v-6.48s-1.77-.14-3.84-2.35l-4.79 1.66-21.9 7.56Z" style="fill:#407bff"/><path d="M363.16 415.25v6.28A49.6 49.6 0 0 0 382 419c7.31-2.54 12.47-6.57 14.53-11.34a11.2 11.2 0 0 0 1-4.39v-6.48s-1.77-.14-3.84-2.35l-4.79 1.66-21.9 7.56Z" style="fill:#fff;opacity:.6000000000000001"/><path d="m344.07 389.52 19.06 11v-6.27l-19.06-11z" style="fill:#407bff"/><path d="m344.07 389.52 19.06 11v-6.27l-19.06-11z" style="opacity:.1"/><path d="M333.9 394.62c-2.09 9.81 9.64 18.79 26.35 20.43l3.8-17.87L342 384.45c-4.61 2.88-7.26 6.22-8.1 10.17" style="fill:#407bff"/><path d="M333.9 394.62c-2.09 9.81 9.64 18.79 26.35 20.43l3.8-17.87L342 384.45c-4.61 2.88-7.26 6.22-8.1 10.17" style="opacity:.30000000000000004"/><path d="m363.27 414.73-.11.52a49.4 49.4 0 0 0 18.84-2.58c7.31-2.54 12.47-6.56 14.53-11.34 1.95-4.5.92-9.16-2.88-13.22l-4.79 1.66-21.86 7.61Z" style="fill:#407bff"/><path d="m363.27 414.73-.11.52a49.4 49.4 0 0 0 18.84-2.58c7.31-2.54 12.47-6.56 14.53-11.34 1.95-4.5.92-9.16-2.88-13.22l-4.79 1.66-21.86 7.61Z" style="fill:#fff;opacity:.75"/><path d="m344.07 383.25 19.06 11-5.61-15.25a39.1 39.1 0 0 0-13.45 4.25M364.05 403.45v-6.27l-3.8 17.87v6.27z" style="fill:#407bff"/><path d="M364.05 403.45v-6.27l-3.8 17.87v6.27z" style="opacity:.55"/><path d="m388.36 369.26-4.15 2.4 4.15 2.4 4.15-2.4z" style="fill:#407bff"/><path d="m388.36 369.26-4.15 2.4 4.15 2.4 4.15-2.4z" style="opacity:.30000000000000004"/><path d="M392.51 371.66v2.4l-4.15 2.4v-2.4z" style="fill:#407bff"/><path d="M392.51 371.66v2.4l-4.15 2.4v-2.4z" style="opacity:.4"/><path d="M388.36 374.06v2.4l-4.15-2.4v-2.4z" style="fill:#407bff"/><path d="M388.36 374.06v2.4l-4.15-2.4v-2.4z" style="opacity:.55"/><path d="m394.7 367.4 15.38-8.88a3.58 3.58 0 0 1 3.22-.06c.86.5.82 1.33-.1 1.86l-15.38 8.88a3.55 3.55 0 0 1-3.22.06c-.87-.49-.82-1.33.1-1.86" style="fill:#e0e0e0"/><path d="m397.71 374.67-4.15 2.39 4.15 2.4 4.16-2.4z" style="fill:#407bff"/><path d="m397.71 374.67-4.15 2.39 4.15 2.4 4.16-2.4z" style="fill:#fff;opacity:.88"/><path d="M401.87 377.06v2.4l-4.16 2.4v-2.4z" style="fill:#407bff"/><path d="M401.87 377.06v2.4l-4.16 2.4v-2.4z" style="fill:#fff;opacity:.75"/><path d="M397.71 379.46v2.4l-4.15-2.4v-2.4z" style="fill:#407bff"/><path d="M397.71 379.46v2.4l-4.15-2.4v-2.4z" style="fill:#fff;opacity:.6000000000000001"/><path d="m404.05 372.81 15.38-8.89a3.6 3.6 0 0 1 3.23-.06c.86.5.81 1.33-.11 1.86l-15.38 8.89a3.55 3.55 0 0 1-3.22.05c-.86-.49-.82-1.33.1-1.85" style="fill:#e0e0e0"/><path d="m407.07 380.06-4.15 2.4 4.15 2.4 4.15-2.4z" style="fill:#407bff"/><path d="m407.07 380.06-4.15 2.4 4.15 2.4 4.15-2.4z" style="fill:#fff;opacity:.30000000000000004"/><path d="M411.22 382.46v2.4l-4.15 2.4v-2.4zM407.07 384.86v2.4l-4.15-2.4v-2.4z" style="fill:#407bff"/><path d="M407.07 384.86v2.4l-4.15-2.4v-2.4z" style="opacity:.1"/><path d="m413.41 378.21 15.38-8.89a3.58 3.58 0 0 1 3.22-.06c.86.5.81 1.33-.1 1.86L416.52 380a3.55 3.55 0 0 1-3.22.05c-.86-.48-.81-1.31.11-1.84" style="fill:#e0e0e0"/><path d="m416.42 385.46-4.15 2.4 4.15 2.4 4.15-2.4z" style="fill:#455a64"/><path d="M420.57 387.86v2.4l-4.15 2.4v-2.4z" style="fill:#37474f"/><path d="M416.42 390.26v2.4l-4.15-2.4v-2.4z" style="fill:#263238"/><path d="m422.76 383.61 15.38-8.89a3.55 3.55 0 0 1 3.22-.05c.86.49.82 1.32-.1 1.85l-15.38 8.89a3.58 3.58 0 0 1-3.22.06c-.86-.47-.82-1.33.1-1.86" style="fill:#e0e0e0"/><g style="opacity:.30000000000000004"><path d="M348.61 357.91a.46.46 0 0 1-.23-.06l-29.62-17.1a.48.48 0 0 1-.23-.4.45.45 0 0 1 .23-.39l37-21.38a.45.45 0 0 1 .45 0l29.63 17.1a.45.45 0 0 1 .22.4.44.44 0 0 1-.22.39l-37 21.38a.46.46 0 0 1-.23.06m-28.71-17.56 28.71 16.58 36.12-20.85L356 319.5Z" style="fill:#407bff"/></g><path d="M348.61 353.18V220.75l-22.22-12.83v132.43z" style="fill:#407bff"/><path d="M348.61 353.18V220.75l-22.22-12.83v132.43z" style="opacity:.2"/><path d="m348.61 353.18 29.62-17.1.01-132.43-29.63 17.1z" style="fill:#407bff"/><path d="m378.24 203.65-22.22-12.83-29.63 17.1 22.22 12.83z" style="fill:#407bff"/><path d="m378.24 203.65-22.22-12.83-29.63 17.1 22.22 12.83z" style="fill:#fff;opacity:.25"/><path d="m378.24 203.65-29.93 16.5-9.72-5.43-12.2-6.8 12 7.18 9.83 5.86c-.24 3.34-.3 118.67-.26 122a90 90 0 0 0 .66 10.22 90 90 0 0 0 .65-10.22c0-3.23 0-118.45-.24-121.68Z" style="fill:#fff;opacity:.30000000000000004"/><g style="opacity:.30000000000000004"><path d="M293.06 390a.5.5 0 0 1-.23-.06l-29.62-17.1a.48.48 0 0 1-.23-.4.45.45 0 0 1 .23-.39l37-21.38a.47.47 0 0 1 .46 0l29.62 17.1a.45.45 0 0 1 0 .79l-37 21.38a.46.46 0 0 1-.23.06m-28.71-17.56L293.06 389l36.12-20.85-28.71-16.58Z" style="fill:#407bff"/></g><path d="M293.06 385.25v-94.07l-22.22-12.83v94.07z" style="fill:#407bff"/><path d="M293.06 385.25v-94.07l-22.22-12.83v94.07z" style="fill:#fff;opacity:.1"/><path d="m293.06 385.25 29.63-17.11v-94.06l-29.63 17.1z" style="fill:#407bff"/><path d="m293.06 385.25 29.63-17.11v-94.06l-29.63 17.1z" style="fill:#fff;opacity:.30000000000000004"/><path d="m322.69 274.08-22.22-12.83-29.63 17.1 22.22 12.83z" style="fill:#407bff"/><path d="m322.69 274.08-22.22-12.83-29.63 17.1 22.22 12.83z" style="fill:#fff;opacity:.55"/><path d="m293.45 291.72 29.24-17.64-29.93 16.5c-3.23-1.83-6.47-3.63-9.71-5.43l-12.21-6.8 12 7.17c3.28 2 6.55 3.94 9.84 5.87-.1 3.46-.21 28.7-.24 32.16s-.05 37 0 40.52.08 7.06.19 10.59.24 7.06.46 10.59c.23-3.53.37-7.06.46-10.59s.17-7.06.19-10.59 0-37 0-40.52c-.08-3.35-.19-28.48-.29-31.83" style="fill:#fff;opacity:.30000000000000004"/><g style="opacity:.30000000000000004"><path d="M237.52 422.05a.46.46 0 0 1-.23-.06l-29.63-17.1a.47.47 0 0 1-.22-.4.44.44 0 0 1 .22-.39l37-21.38a.45.45 0 0 1 .45 0l29.63 17.1a.45.45 0 0 1 .22.4.44.44 0 0 1-.22.39l-37 21.38a.43.43 0 0 1-.22.06m-28.72-17.56 28.72 16.58 36.12-20.85-28.72-16.58Z" style="fill:#407bff"/></g><path d="m237.52 417.32-.01-64.14-22.22-12.83.01 64.14z" style="fill:#407bff"/><path d="m237.52 417.32-.01-64.14-22.22-12.83.01 64.14z" style="opacity:.45"/><path d="m237.52 417.32 29.62-17.11.01-64.13-29.64 17.1z" style="fill:#407bff"/><path d="m237.52 417.32 29.62-17.11.01-64.13-29.64 17.1z" style="opacity:.30000000000000004"/><path d="m267.15 336.08-22.22-12.83-29.64 17.1 22.22 12.83z" style="fill:#407bff"/><path d="m267.15 336.08-22.22-12.83-29.64 17.1 22.22 12.83z" style="opacity:.15"/><path d="m267.15 336.08-29.93 16.49-9.72-5.42-12.21-6.8 12 7.17 9.83 5.87c-.23 2-.29 55.6-.25 57.63a33.7 33.7 0 0 0 .66 6.3 34.5 34.5 0 0 0 .65-6.3c0-1.93 0-55.39-.22-57.32Z" style="fill:#fff;opacity:.30000000000000004"/><g style="opacity:.30000000000000004"><path d="M404.15 325.84a.46.46 0 0 1-.22-.06l-29.63-17.1a.47.47 0 0 1-.23-.4.45.45 0 0 1 .23-.39l37-21.38a.47.47 0 0 1 .46 0l29.62 17.1a.45.45 0 0 1 0 .79l-37 21.38a.46.46 0 0 1-.23.06m-28.71-17.56 28.71 16.58L440.27 304l-28.71-16.58Z" style="fill:#407bff"/></g><path d="M404.15 321.11V128.42l-22.22-12.83.01 192.69z" style="fill:#407bff"/><path d="M404.15 321.11V128.42l-22.22-12.83.01 192.69z" style="fill:#fff;opacity:.30000000000000004"/><path d="m404.15 321.11 29.63-17.1V111.32l-29.63 17.1z" style="fill:#407bff"/><path d="m404.15 321.11 29.63-17.1V111.32l-29.63 17.1z" style="fill:#fff;opacity:.55"/><path d="m433.78 111.32-22.22-12.83-29.63 17.1 22.22 12.83z" style="fill:#407bff"/><path d="m433.78 111.32-22.22-12.83-29.63 17.1 22.22 12.83z" style="fill:#fff;opacity:.75"/><path d="m404.54 129 29.24-17.65-29.93 16.5c-3.22-1.83-6.47-3.63-9.71-5.43l-12.21-6.8 12 7.18c3.28 2 6.55 3.93 9.85 5.86-.11 3.92-.22 7.84-.25 11.76s0 152.79 0 156.78.08 8 .2 12 .23 8 .46 12c.22-4 .36-8 .45-12s.18-8 .2-12 0-152.79 0-156.78c-.09-3.83-.19-7.64-.3-11.42" style="fill:#fff;opacity:.30000000000000004"/><path d="m353.62 151.44-24.89 14.37a5.24 5.24 0 0 0-2.37 4.1v20.19c0 1.51 1.06 2.12 2.37 1.37l9.17-5.31 2.46 4.25a1.13 1.13 0 0 0 2.06-.2l2.89-8.32 8.31-4.79A5.24 5.24 0 0 0 356 173v-20.19c0-1.51-1.07-2.12-2.38-1.37" style="fill:#fafafa"/><path d="M327.67 192.33a1.7 1.7 0 0 1-.88-.24 2.15 2.15 0 0 1-1-2v-20.18a5.76 5.76 0 0 1 2.63-4.56L353.35 151a2.2 2.2 0 0 1 2.21-.17 2.18 2.18 0 0 1 1 2V173a5.74 5.74 0 0 1-2.64 4.56l-8.13 4.69-2.82 8.14a1.68 1.68 0 0 1-1.43 1.12 1.71 1.71 0 0 1-1.61-.83l-2.18-3.79-8.71 5a2.74 2.74 0 0 1-1.37.44m27-40.68a1.7 1.7 0 0 0-.79.25L329 166.27a4.74 4.74 0 0 0-2.11 3.64v20.19a1.2 1.2 0 0 0 .43 1.07 1.18 1.18 0 0 0 1.14-.16l9.64-5.57 2.72 4.71a.6.6 0 0 0 .58.3.61.61 0 0 0 .52-.41l2.95-8.52 8.48-4.88a4.73 4.73 0 0 0 2.1-3.64v-20.19a1.19 1.19 0 0 0-.42-1.07.7.7 0 0 0-.36-.09" style="fill:#e0e0e0"/><path d="M331.92 183.67a.46.46 0 0 1-.4-.23.45.45 0 0 1 .17-.62l18.51-10.69a.46.46 0 1 1 .46.79l-18.52 10.69a.46.46 0 0 1-.22.06M331.92 179.39a.46.46 0 0 1-.4-.23.45.45 0 0 1 .17-.62l18.51-10.69a.47.47 0 0 1 .63.17.46.46 0 0 1-.17.62l-18.52 10.69a.46.46 0 0 1-.22.06M331.92 175.12a.46.46 0 0 1-.4-.23.45.45 0 0 1 .17-.62l18.51-10.69a.46.46 0 1 1 .46.79l-18.52 10.69a.46.46 0 0 1-.22.06" style="fill:#e0e0e0"/><path d="M331.92 170.84a.47.47 0 0 1-.4-.22.46.46 0 0 1 .17-.63l18.51-10.69a.47.47 0 0 1 .63.17.46.46 0 0 1-.17.62l-18.52 10.69a.46.46 0 0 1-.22.06" style="fill:#407bff"/><path d="m298.1 221.86-24.89 14.37a5.22 5.22 0 0 0-2.37 4.1v20.18c0 1.51 1.06 2.13 2.37 1.37l9.17-5.3 2.46 4.25a1.14 1.14 0 0 0 2.06-.2l2.89-8.33 8.31-4.79a5.22 5.22 0 0 0 2.37-4.1v-20.19c0-1.51-1.06-2.12-2.37-1.36" style="fill:#fafafa"/><path d="M272.15 262.74a1.8 1.8 0 0 1-.88-.23 2.18 2.18 0 0 1-1-2v-20.18a5.78 5.78 0 0 1 2.63-4.57l24.89-14.37a2 2 0 0 1 3.17 1.83v20.19a5.73 5.73 0 0 1-2.64 4.56l-8.13 4.69-2.82 8.14a1.66 1.66 0 0 1-1.43 1.12 1.65 1.65 0 0 1-1.61-.83l-2.18-3.79-8.71 5a2.64 2.64 0 0 1-1.29.44m26.21-40.42-24.88 14.37a4.71 4.71 0 0 0-2.11 3.64v20.18a.93.93 0 0 0 1.57.91l9.64-5.57 2.72 4.71a.57.57 0 0 0 .58.3.58.58 0 0 0 .52-.41l3-8.51 8.48-4.89a4.72 4.72 0 0 0 2.1-3.64v-20.19a1.2 1.2 0 0 0-.42-1.07 1.18 1.18 0 0 0-1.15.17Z" style="fill:#e0e0e0"/><path d="M276.4 254.08a.46.46 0 0 1-.4-.23.45.45 0 0 1 .17-.62l18.51-10.69a.46.46 0 1 1 .46.79L276.62 254a.46.46 0 0 1-.22.08" style="fill:#407bff"/><path d="M276.4 249.81a.46.46 0 0 1-.4-.23.45.45 0 0 1 .17-.62l18.51-10.69a.46.46 0 1 1 .46.79l-18.52 10.69a.46.46 0 0 1-.22.06M276.4 245.53a.46.46 0 0 1-.4-.23.45.45 0 0 1 .17-.62L294.68 234a.46.46 0 0 1 .63.17.46.46 0 0 1-.17.62l-18.52 10.69a.46.46 0 0 1-.22.05M276.4 241.26a.46.46 0 0 1-.4-.23.45.45 0 0 1 .17-.62l18.51-10.69a.46.46 0 1 1 .46.79l-18.52 10.69a.46.46 0 0 1-.22.06" style="fill:#e0e0e0"/><path d="m242.57 283.85-24.89 14.37a5.22 5.22 0 0 0-2.37 4.1v20.18c0 1.51 1.06 2.13 2.37 1.37l9.17-5.3 2.46 4.25a1.15 1.15 0 0 0 2.07-.2l2.88-8.33 8.31-4.79a5.22 5.22 0 0 0 2.37-4.1v-20.19c0-1.51-1.06-2.12-2.37-1.36" style="fill:#fafafa"/><path d="M216.62 324.73a1.8 1.8 0 0 1-.88-.23 2.18 2.18 0 0 1-1-2v-20.18a5.76 5.76 0 0 1 2.64-4.57l24.88-14.37a2 2 0 0 1 3.17 1.83v20.19a5.74 5.74 0 0 1-2.63 4.56l-8.14 4.69-2.82 8.14a1.67 1.67 0 0 1-3 .29l-2.19-3.79-8.71 5a2.64 2.64 0 0 1-1.32.44m26.22-40.42L218 298.68a4.7 4.7 0 0 0-2.1 3.64v20.18a1.21 1.21 0 0 0 .42 1.08 1.24 1.24 0 0 0 1.15-.17l9.63-5.57 2.72 4.71a.61.61 0 0 0 1.1-.11l2.95-8.51 8.43-4.93a4.73 4.73 0 0 0 2.11-3.64v-20.15a1.2 1.2 0 0 0-.43-1.07 1.16 1.16 0 0 0-1.14.17" style="fill:#e0e0e0"/><path d="M220.87 316.07a.45.45 0 0 1-.23-.85l18.52-10.69a.45.45 0 1 1 .45.79L221.1 316a.5.5 0 0 1-.23.07M220.87 311.8a.46.46 0 0 1-.4-.23.46.46 0 0 1 .17-.62l18.52-10.69a.45.45 0 0 1 .62.16.47.47 0 0 1-.17.63l-18.51 10.69a.5.5 0 0 1-.23.06" style="fill:#e0e0e0"/><path d="M220.87 307.52a.45.45 0 0 1-.23-.85L239.16 296a.45.45 0 0 1 .45.79l-18.51 10.67a.5.5 0 0 1-.23.06" style="fill:#407bff"/><path d="M220.87 303.25a.46.46 0 0 1-.4-.23.46.46 0 0 1 .17-.62l18.52-10.69a.46.46 0 0 1 .62.16.47.47 0 0 1-.17.63l-18.51 10.69a.5.5 0 0 1-.23.06" style="fill:#e0e0e0"/><path d="M409.19 59.1 384.3 73.47a5.22 5.22 0 0 0-2.37 4.1v20.19c0 1.51 1.06 2.12 2.37 1.36l9.17-5.3 2.46 4.25a1.14 1.14 0 0 0 2.07-.2l2.88-8.33 8.31-4.79a5.22 5.22 0 0 0 2.37-4.1V60.47c0-1.47-1.06-2.13-2.37-1.37" style="fill:#fafafa"/><path d="M383.24 100a1.8 1.8 0 0 1-.88-.23 2.17 2.17 0 0 1-1-2v-20.2A5.73 5.73 0 0 1 384 73l24.88-14.37a2 2 0 0 1 3.17 1.83v20.19a5.78 5.78 0 0 1-2.63 4.57l-8.14 4.68-2.78 8.1a1.65 1.65 0 0 1-1.42 1.12 1.63 1.63 0 0 1-1.61-.83l-2.19-3.78-8.71 5a2.64 2.64 0 0 1-1.33.49m26.22-40.42-24.89 14.35a4.72 4.72 0 0 0-2.1 3.64v20.19a.93.93 0 0 0 1.57.9l9.63-5.57 2.72 4.71a.57.57 0 0 0 .58.3.58.58 0 0 0 .52-.4l2.95-8.52 8.48-4.89a4.73 4.73 0 0 0 2.08-3.64V60.47a.93.93 0 0 0-1.57-.91Z" style="fill:#e0e0e0"/><path d="M395.25 87a4 4 0 0 1 1.53-3.14c.81-.46 1.46.22 1.46 1.41a4 4 0 0 1-1.46 3.2c-.86.53-1.53-.19-1.53-1.47m.18-15.46 2.71-1.54-.54 11.58-1.63.94Z" style="fill:#407bff"/></svg>