<svg xmlns="http://www.w3.org/2000/svg" viewBox="0 0 500 500"><ellipse cx="250" cy="416.24" rx="193.89" ry="11.32" style="fill:#f5f5f5"/><rect width="34.37" height="34.37" x="293.83" y="93.01" rx="2.27" style="fill:#407bff"/><g style="isolation:isolate;opacity:.4"><rect width="34.37" height="34.37" x="293.83" y="93.01" rx="2.27" style="fill:#fff"/></g><path d="m306.4 108.38-6 2.19 6 2.17V115l-8.52-3.25v-2.32l8.52-3.25ZM312.82 101.76h2.49l-5.92 16.87h-2.49ZM324.15 109.41v2.32l-8.52 3.27v-2.24l6-2.17-6-2.19v-2.22Z" style="fill:#fff"/><path d="M301.4 133.66V142h-1.93v-3.43h-3.8V142h-1.93v-8.35h1.93V137h3.8v-3.29ZM305.12 135.23h-2.68v-1.57h7.28v1.57h-2.67V142h-1.93ZM318.37 142v-5l-2.46 4.13H315l-2.45-4V142h-1.81v-8.35h1.6l3.12 5.19 3.08-5.19h1.59V142ZM322.17 133.66h1.93v6.77h4.19V142h-6.12Z" style="fill:#263238"/><g style="isolation:isolate;opacity:.6000000000000001"><path d="M301.4 133.66V142h-1.93v-3.43h-3.8V142h-1.93v-8.35h1.93V137h3.8v-3.29ZM305.12 135.23h-2.68v-1.57h7.28v1.57h-2.67V142h-1.93ZM318.37 142v-5l-2.46 4.13H315l-2.45-4V142h-1.81v-8.35h1.6l3.12 5.19 3.08-5.19h1.59V142ZM322.17 133.66h1.93v6.77h4.19V142h-6.12Z" style="fill:#fff"/></g><rect width="34.37" height="34.37" x="367.34" y="111.33" rx="2.27" style="fill:#407bff"/><g style="isolation:isolate;opacity:.4"><rect width="34.37" height="34.37" x="367.34" y="111.33" rx="2.27" style="fill:#fff"/></g><path d="M378.89 128.51c.82.25 1.2.77 1.2 2v2.87a1.18 1.18 0 0 0 1.31 1.32h.32v2.19h-1c-2.24 0-3.38-1.15-3.38-3.21v-3.24a.74.74 0 0 0-.79-.84h-.59v-2.19h.59a.74.74 0 0 0 .79-.84v-3.24c0-2.06 1.14-3.21 3.38-3.21h1v2.19h-.32a1.18 1.18 0 0 0-1.31 1.32v2.87c0 1.24-.38 1.76-1.2 2.01M393.13 127.42v2.19h-.59a.74.74 0 0 0-.79.84v3.24c0 2.06-1.15 3.21-3.38 3.21h-1v-2.19h.32a1.18 1.18 0 0 0 1.31-1.32v-2.87c0-1.24.37-1.76 1.2-2-.83-.25-1.2-.77-1.2-2v-2.87a1.18 1.18 0 0 0-1.31-1.32h-.32v-2.19h1c2.23 0 3.38 1.15 3.38 3.21v3.24a.74.74 0 0 0 .79.84Z" style="fill:#fff"/><path d="M373 156.28a4.6 4.6 0 0 1 8-2.84l-1.24 1.15a2.68 2.68 0 0 0-2.1-1 2.68 2.68 0 1 0 0 5.35 2.69 2.69 0 0 0 2.1-1l1.24 1.14a4.59 4.59 0 0 1-8-2.83ZM381.52 159.64l.65-1.46a5 5 0 0 0 2.76.87c1.14 0 1.61-.38 1.61-.89 0-1.57-4.86-.49-4.86-3.59 0-1.42 1.15-2.61 3.52-2.61a5.7 5.7 0 0 1 2.9.74l-.59 1.47a4.75 4.75 0 0 0-2.32-.65c-1.14 0-1.59.42-1.59.95 0 1.54 4.86.48 4.86 3.54 0 1.4-1.16 2.59-3.54 2.59a6 6 0 0 1-3.4-.96M389.13 159.64l.66-1.46a4.9 4.9 0 0 0 2.76.87c1.14 0 1.61-.38 1.61-.89 0-1.57-4.86-.49-4.86-3.59 0-1.42 1.15-2.61 3.52-2.61a5.7 5.7 0 0 1 2.9.74l-.6 1.47a4.7 4.7 0 0 0-2.31-.65c-1.15 0-1.59.42-1.59.95 0 1.54 4.86.48 4.86 3.54 0 1.4-1.16 2.59-3.55 2.59a6 6 0 0 1-3.4-.96" style="fill:#263238"/><g style="isolation:isolate;opacity:.6000000000000001"><path d="M373 156.28a4.6 4.6 0 0 1 8-2.84l-1.24 1.15a2.68 2.68 0 0 0-2.1-1 2.68 2.68 0 1 0 0 5.35 2.69 2.69 0 0 0 2.1-1l1.24 1.14a4.59 4.59 0 0 1-8-2.83ZM381.52 159.64l.65-1.46a5 5 0 0 0 2.76.87c1.14 0 1.61-.38 1.61-.89 0-1.57-4.86-.49-4.86-3.59 0-1.42 1.15-2.61 3.52-2.61a5.7 5.7 0 0 1 2.9.74l-.59 1.47a4.75 4.75 0 0 0-2.32-.65c-1.14 0-1.59.42-1.59.95 0 1.54 4.86.48 4.86 3.54 0 1.4-1.16 2.59-3.54 2.59a6 6 0 0 1-3.4-.96M389.13 159.64l.66-1.46a4.9 4.9 0 0 0 2.76.87c1.14 0 1.61-.38 1.61-.89 0-1.57-4.86-.49-4.86-3.59 0-1.42 1.15-2.61 3.52-2.61a5.7 5.7 0 0 1 2.9.74l-.6 1.47a4.7 4.7 0 0 0-2.31-.65c-1.15 0-1.59.42-1.59.95 0 1.54 4.86.48 4.86 3.54 0 1.4-1.16 2.59-3.55 2.59a6 6 0 0 1-3.4-.96" style="fill:#fff"/></g><path d="M148.55 107.98h122.51v88.68H148.55z"/><path d="M148.55 107.98h122.51v88.68H148.55z" style="fill:#fff;isolation:isolate;opacity:.9"/><path d="M148.55 107.98h17.06v88.68h-17.06z" style="opacity:.1"/><path d="M148.55 107.98h122.51v8.29H148.55z" style="fill:#407bff"/><g style="opacity:.2"><path d="M197.71 128.78H175.4a1 1 0 0 1 0-2h22.31a1 1 0 0 1 0 2M247 128.78h-43.35a1 1 0 0 1 0-2H247a1 1 0 0 1 0 2M236.68 135.31H178.4a1 1 0 0 1 0-2h58.28a1 1 0 0 1 0 2M212.94 141.83H175.4a1 1 0 0 1 0-2h37.54a1 1 0 0 1 0 2M247 141.83h-26.9a1 1 0 0 1 0-2H247a1 1 0 0 1 0 2M196.13 148.36H175.4a1 1 0 1 1 0-2h20.73a1 1 0 0 1 0 2M235.49 148.36h-32.64a1 1 0 0 1 0-2h32.64a1 1 0 0 1 0 2M206.29 154.89H178.4a1 1 0 1 1 0-2h27.89a1 1 0 0 1 0 2M209.78 161.42H178.4a1 1 0 0 1 0-2h31.38a1 1 0 0 1 0 2M247 161.42h-32a1 1 0 0 1 0-2h32a1 1 0 0 1 0 2M193.36 167.94h-18a1 1 0 0 1 0-2h18a1 1 0 0 1 0 2M247 167.94h-47.51a1 1 0 0 1 0-2H247a1 1 0 0 1 0 2M209.58 174.47H178.4a1 1 0 0 1 0-2h31.18a1 1 0 0 1 0 2M234.11 174.47h-20.18a1 1 0 0 1 0-2h20.18a1 1 0 0 1 0 2M214.29 181H178.4a1 1 0 1 1 0-2h35.89a1 1 0 0 1 0 2"/></g><circle cx="265.79" cy="112.18" r="1.71" style="fill:#fff;opacity:.4"/><circle cx="259.78" cy="112.18" r="1.71" style="fill:#fff;opacity:.4"/><circle cx="253.78" cy="112.18" r="1.71" style="fill:#fff;opacity:.4"/><g style="opacity:.2"><path d="M157.38 128.78a1 1 0 0 1 0-2 1 1 0 0 1 1 1 1 1 0 0 1-1 1M157.38 135.31a1 1 0 1 1 0-2 1 1 0 0 1 1 1 1 1 0 0 1-1 1M157.38 141.83a1 1 0 0 1 0-2 1 1 0 0 1 1 1 1 1 0 0 1-1 1M157.38 148.36a1 1 0 0 1 0-2 1 1 0 0 1 1 1 1 1 0 0 1-1 1M157.38 154.89a1 1 0 0 1 0-2 1 1 0 0 1 1 1 1 1 0 0 1-1 1M157.38 161.42a1 1 0 0 1 0-2 1 1 0 0 1 1 1 1 1 0 0 1-1 1M157.38 167.94a1 1 0 1 1 0-2 1 1 0 0 1 1 1 1 1 0 0 1-1 1M157.38 174.47a1 1 0 0 1 0-2 1 1 0 0 1 1 1 1 1 0 0 1-1 1M157.38 181a1 1 0 0 1 0-2 1 1 0 0 1 1 1 1 1 0 0 1-1 1"/></g><path d="M221.49 180.34h160.53v102.79H221.49z" style="fill:#263238"/><path d="M221.49 180.34h160.53v102.79H221.49z" style="fill:#fff;isolation:isolate;opacity:.9"/><path d="M221.49 180.34h25.04v102.79h-25.04z" style="opacity:.1"/><path d="M221.49 180.34h160.53v8.29H221.49z" style="fill:#407bff"/><path d="m232.83 197.72-2.66 1 2.66 1v1l-3.8-1.45v-1l3.8-1.44ZM235.7 194.76h1.11l-2.64 7.53h-1.11ZM240.76 198.17v1l-3.8 1.45v-1l2.66-1-2.66-1v-1Z" style="fill:#fff"/><g style="opacity:.2"><path d="M240.2 209.15h-10.88a1 1 0 0 1 0-2h10.88a1 1 0 0 1 0 2M240.2 215.67h-10.88a1 1 0 0 1 0-2h10.88a1 1 0 0 1 0 2M240.2 222.2h-10.88a1 1 0 0 1 0-2h10.88a1 1 0 0 1 0 2M240.2 228.73h-10.88a1 1 0 0 1 0-2h10.88a1 1 0 0 1 0 2M240.2 235.26h-10.88a1 1 0 0 1 0-2h10.88a1 1 0 0 1 0 2M240.2 241.78h-10.88a1 1 0 0 1 0-2h10.88a1 1 0 0 1 0 2M240.2 248.31h-10.88a1 1 0 0 1 0-2h10.88a1 1 0 0 1 0 2M240.2 254.84h-10.88a1 1 0 0 1 0-2h10.88a1 1 0 0 1 0 2M240.2 261.37h-10.88a1 1 0 0 1 0-2h10.88a1 1 0 0 1 0 2"/></g><path d="M271.65 209.15h-22.31a1 1 0 0 1 0-2h22.31a1 1 0 0 1 0 2" style="fill:#407bff"/><path d="M335.74 209.15h-58.15a1 1 0 0 1 0-2h58.15a1 1 0 0 1 0 2" style="fill:#263238"/><g style="opacity:.2"><path d="M362.28 209.15h-16.85a1 1 0 0 1 0-2h16.85a1 1 0 0 1 0 2" style="fill:#263238"/></g><g style="opacity:.2"><path d="M310.62 215.67h-58.28a1 1 0 0 1 0-2h58.28a1 1 0 0 1 0 2" style="fill:#263238"/></g><path d="M370.28 215.67H316a1 1 0 0 1 0-2h54.32a1 1 0 0 1 0 2Z" style="fill:#407bff"/><path d="M286.88 222.2h-34.54a1 1 0 1 1 0-2h34.54a1 1 0 0 1 0 2" style="fill:#263238"/><path d="M328 222.2h-34a1 1 0 0 1 0-2h34a1 1 0 0 1 0 2" style="fill:#407bff"/><path d="M370.28 222.2h-36.72a1 1 0 0 1 0-2h36.72a1 1 0 0 1 0 2M290.08 228.73h-20.73a1 1 0 0 1 0-2h20.73a1 1 0 0 1 0 2M319.44 228.73h-22.63a1 1 0 0 1 0-2h22.63a1 1 0 0 1 0 2" style="fill:#263238"/><g style="opacity:.2"><path d="M361.28 228.73h-36.7a1 1 0 0 1 0-2h36.7a1 1 0 0 1 0 2" style="fill:#263238"/></g><g style="opacity:.2"><path d="M280.23 235.26h-27.89a1 1 0 0 1 0-2h27.89a1 1 0 0 1 0 2" style="fill:#263238"/></g><path d="M283.72 241.78h-31.38a1 1 0 0 1 0-2h31.38a1 1 0 0 1 0 2" style="fill:#407bff"/><path d="M336.14 241.78h-47.28a1 1 0 0 1 0-2h47.28a1 1 0 0 1 0 2M370.28 241.78h-28.41a1 1 0 0 1 0-2h28.41a1 1 0 0 1 0 2" style="fill:#263238"/><g style="opacity:.2"><path d="M280.31 248.31h-18a1 1 0 0 1 0-2h18a1 1 0 0 1 0 2" style="fill:#263238"/></g><g style="opacity:.2"><path d="M320.9 248.31h-34.46a1 1 0 0 1 0-2h34.46a1 1 0 0 1 0 2" style="fill:#263238"/></g><path d="M361.28 248.31h-33.65a1 1 0 0 1 0-2h33.65a1 1 0 0 1 0 2M293.53 254.84h-21.18a1 1 0 0 1 0-2h21.18a1 1 0 0 1 0 2" style="fill:#263238"/><g style="opacity:.2"><path d="M318.05 254.84h-20.17a1 1 0 0 1 0-2h20.17a1 1 0 0 1 0 2" style="fill:#263238"/></g><path d="M361.28 254.84h-36.9a1 1 0 0 1 0-2h36.9a1 1 0 0 1 0 2" style="fill:#407bff"/><g style="opacity:.2"><path d="M298.24 261.37h-25.89a1 1 0 0 1 0-2h25.89a1 1 0 0 1 0 2" style="fill:#263238"/></g><path d="M375 184.55a1.72 1.72 0 1 0 1.71-1.72 1.71 1.71 0 0 0-1.71 1.72" style="fill:#fff;opacity:.4"/><circle cx="370.75" cy="184.55" r="1.71" style="fill:#fff;opacity:.4"/><circle cx="364.74" cy="184.55" r="1.71" style="fill:#fff;opacity:.4"/><path d="M113.26 186.42H84.54a8.84 8.84 0 0 0-8.85 8.84v25a8.84 8.84 0 0 0 8.84 8.85h20.37l6 7.89v-7.89h2.35a8.85 8.85 0 0 0 8.85-8.85v-25a8.84 8.84 0 0 0-8.84-8.84" style="fill:#407bff"/><path d="M113.26 186.42H84.54a8.84 8.84 0 0 0-8.85 8.84v25a8.84 8.84 0 0 0 8.84 8.85h20.37l6 7.89v-7.89h2.35a8.85 8.85 0 0 0 8.85-8.85v-25a8.84 8.84 0 0 0-8.84-8.84" style="fill:#fff;opacity:.7000000000000001"/><path d="M97.4 214a1.33 1.33 0 0 1-1-.46L90.81 207a1.31 1.31 0 1 1 2-1.7l4.59 5.42 7.59-8.94a1.31 1.31 0 0 1 2 1.69l-8.59 10.09a1.31 1.31 0 0 1-1 .44" style="fill:#fff"/><circle cx="98.9" cy="207.65" r="14.26" style="fill:#407bff" transform="rotate(-45 98.894 207.657)"/><path d="m204.72 363.48 21.47-1.05-2.09 18.67s-14.9 2.84-21.55-7.76ZM240.03 368.94l-4.89 13.54-11.04-1.38 2.09-18.67z" style="fill:#ebb376"/><path d="M184.11 393.78a87.8 87.8 0 0 0 22.08-16.39l-1.47-13.91c-20.29 3-32 7.29-32 7.29s7.52-26.95.64-36.77l-18.89 3.42s-20.07 41.72-6.57 56.36Z" style="fill:#407bff"/><path d="M184.08 393.78a88 88 0 0 0 22.1-16.38l-1.46-13.93c-19.64 2.88-31.25 7-32 7.27.25-1 7.36-27.11.62-36.75l-18.89 3.42a146.6 146.6 0 0 0-9.21 26.06c-2.7 11.39-3.49 23.66 2.65 30.31Z" style="fill:#fff;isolation:isolate;opacity:.7000000000000001"/><path d="M168.55 393.78c6.67-42.26.76-53 .76-53l-24 22.67c-2.7 11.39-3.49 23.66 2.65 30.31Z" style="opacity:.2"/><path d="M164.38 393.78c4.5-21.36 9.55-54.8 9-59.78-.8-7.24-40.18-38.26-74.36-15.68-7 4.61-10.57 54.34-11.79 75.46Z" style="fill:#407bff"/><path d="M164.38 393.78c4.5-21.36 9.55-54.81 9-59.79-.8-7.23-40.19-38.25-74.37-15.66-2.53 1.69-4.61 9.32-6.33 19.4-2.28 13.72-3.86 31.94-4.8 45.68-.26 3.89-.48 7.41-.65 10.37Z" style="fill:#fff;isolation:isolate;opacity:.7000000000000001"/><path d="M147.51 226.55c-11.85-4.79-39.79 12.4-42.24 43.05s13.09 22.16 13.09 22.16 2.77 11.69 14.09 8.08c0 0 9.35 10.59 18.05 6.28 0 0 10.83 11.28 16.64 5.33 0 0 6.32 7.21 12.09 1.75s22.26-61.2-3.61-74.09-28.11-12.56-28.11-12.56M147.53 352l-1.14-.1c1.32-14.76-1.93-21.29-2-21.35l1-.53c.19.23 3.49 6.8 2.14 21.98M152.89 352.13c-7.85-18.49 1-22.8 1.36-23l.47 1-.24-.52.24.52c-.08 0-8.16 4.09-.78 21.49Z" style="fill:#263238"/><path d="M145.22 333.54s-15.15-12-38.67-18.76L99 318.32s-12.66-15.67 8.44-20.8 49.8 9 57 21.1-12.52 16-12.52 16-1.81-2.46-6.7-1.08" style="fill:#407bff"/><path d="M145.22 333.54s-15.15-12-38.67-18.76L99 318.32s-12.66-15.67 8.44-20.8 49.8 9 57 21.1-12.52 16-12.52 16-1.81-2.46-6.7-1.08" style="fill:#fff;isolation:isolate;opacity:.6000000000000001"/><path d="M154.36 351.91a1 1 0 1 1-1-1 1 1 0 0 1 1 1M147.87 351.91a1 1 0 1 1-1-1 1 1 0 0 1 1 1" style="fill:#fff"/><path d="M137.17 277c-.92 10.73-4.21 29.83-12.94 34 0 0 9.76 2 25 21.31 8.67-6.08 5.39-10.23 5.39-10.23-10.14-6.65-7.51-14.85-3.41-22Z" style="fill:#ebb376"/><path d="m142.88 286.41 8.31 13.7a32 32 0 0 0-2.51 5.2c-4-2.14-8.38-8.92-7.55-13.56a15.8 15.8 0 0 1 1.75-5.34" style="opacity:.2"/><path d="M136 254.31c-2.79 16.86-4.33 23.92 1.92 34.77 9.39 16.33 30.2 17.1 37.85 1.66 6.88-13.9 10.29-39.14-4.07-50.28-14.17-10.98-32.93-3.02-35.7 13.85" style="fill:#ebb376"/><path d="M170.53 231.07c10.93 6.06 21.34 25 5.79 20.27-2.35 4.55-10.72.38-15.59-5.08-.82 3.79-9.78 7.59-16.38 1.72 3.19 4.6-2.24 16.21-7.89 14.21s-18.33-4.63-7.1-22.53 29.5-15.08 41.17-8.59" style="fill:#263238"/><path d="M166.55 270.22s1 6.69 2.9 10.32c-2.13 1.23-5-.41-5-.41Z" style="fill:#d58745"/><path d="M155.65 283.13a13 13 0 0 0 2.21.84.38.38 0 0 0 .48-.3.43.43 0 0 0-.31-.52 11.94 11.94 0 0 1-7.76-6.81.41.41 0 0 0-.52-.28.42.42 0 0 0-.23.54 12.55 12.55 0 0 0 6.13 6.53" style="fill:#263238"/><path d="M127.49 266.43a13.7 13.7 0 0 0 6.38 8.31c4.07 2.23 7-1.59 6.7-6.34-.31-4.29-2.81-10.61-7.27-10.86s-7.02 4.46-5.81 8.89" style="fill:#ebb376"/><path d="M154.5 254.77a.76.76 0 0 0 .64 0 6.19 6.19 0 0 1 5.82-.1.76.76 0 0 0 1.09-.3.91.91 0 0 0-.33-1.17 7.66 7.66 0 0 0-7.36 0 .86.86 0 0 0-.32 1.14.9.9 0 0 0 .46.43M181.37 261.35a.74.74 0 0 0 .6.06.82.82 0 0 0 .51-1.06 8.77 8.77 0 0 0-5.21-5.78.76.76 0 0 0-1 .57.9.9 0 0 0 .58 1.06 7 7 0 0 1 4.08 4.63.88.88 0 0 0 .44.52M159.88 265.8c-.49 1.34-1.61 2.15-2.5 1.82s-1.21-1.67-.72-3 1.61-2.15 2.49-1.82 1.21 1.67.73 3" style="fill:#263238"/><path d="m158.76 262.73 3.32-.07s-2.34 1.9-3.32.07M176.67 271.13c-.49 1.33-1.61 2.14-2.49 1.82s-1.22-1.68-.73-3 1.61-2.14 2.5-1.82 1.21 1.66.72 3" style="fill:#263238"/><path d="m175.56 268.05 3.31-.07s-2.34 1.91-3.31.07M158.3 275.25a7.35 7.35 0 0 1-3-.63 7.59 7.59 0 0 1-4.14-4.84 10.13 10.13 0 0 1 5.29-11.85 7.46 7.46 0 0 1 10.53 4.7 9.85 9.85 0 0 1-.51 6.88 9.84 9.84 0 0 1-4.79 5 8 8 0 0 1-3.38.74m1.57-16.95a7 7 0 0 0-2.87.7 9 9 0 0 0-4.68 10.48 6.3 6.3 0 0 0 8.95 4 8.7 8.7 0 0 0 4.23-4.39l.52.23-.52-.23a8.72 8.72 0 0 0 .45-6.09 6.44 6.44 0 0 0-3.52-4.13 6 6 0 0 0-2.56-.57" style="fill:#263238"/><path d="M174.94 280.35a7.2 7.2 0 0 1-3-.63 7.63 7.63 0 0 1-4.15-4.84 10.15 10.15 0 0 1 5.3-11.85 7.44 7.44 0 0 1 10.52 4.7 9.8 9.8 0 0 1-.5 6.88 9.3 9.3 0 0 1-8.17 5.74m1.59-17a7 7 0 0 0-2.92.66 8.77 8.77 0 0 0-4.23 4.4 8.63 8.63 0 0 0-.45 6.08 6.46 6.46 0 0 0 3.52 4.14c3.5 1.57 7.84-.47 9.66-4.53a8.77 8.77 0 0 0 .45-6.09 6.47 6.47 0 0 0-3.52-4.13 6.25 6.25 0 0 0-2.51-.48Z" style="fill:#263238"/><path d="M167.8 269.92a.51.51 0 0 0-.29-.32 2.08 2.08 0 0 0-1.29.19l-.5-1a3.07 3.07 0 0 1 2.2-.23 1.64 1.64 0 0 1 1 1Z" style="fill:#263238"/><path d="M144.64 254.56h1.14v14.1h-1.14z" style="fill:#263238" transform="matrix(.3 -.96 .96 .3 -147.66 322.8)"/><path d="M137.28 364.46s-26.31 20.16-49.4 19c.94-13.74 2.52-32 4.8-45.68 2.36-2.6 3.91-4.18 3.91-4.18l14 10.47-3.41 4.28s21.19-1.08 28.57 0Z" style="opacity:.2"/><path d="m140 348.3 21.06-4.3.75 18.78s-14.29 5.06-22.47-4.41Z" style="fill:#ebb376"/><path d="m175.72 348.36-2.78 14.12-11.13.31-.75-18.78z" style="fill:#ebb376"/><path d="m140 348.3 1.03 14.49-5.24 2.35-2.24-16.84z" style="fill:#407bff"/><path d="m140 348.3 1.03 14.49-5.24 2.35-2.24-16.84z" style="fill:#fff;isolation:isolate;opacity:.6000000000000001"/><path d="M106.55 314.78a24.36 24.36 0 0 0-14.45 8.36c-6.35 7.46-28.73 29.62-23.76 47.71s52.83 4.63 67.45-5.71l-2.24-16.84-33.15 2.43 10.22-6.73c7.01-19.5-4.07-29.22-4.07-29.22" style="fill:#407bff"/><path d="M106.55 314.78a24.36 24.36 0 0 0-14.45 8.36c-6.35 7.46-28.73 29.62-23.76 47.71s52.83 4.63 67.45-5.71l-2.24-16.84-33.15 2.43 10.22-6.73c7.01-19.5-4.07-29.22-4.07-29.22" style="fill:#fff;isolation:isolate;opacity:.7000000000000001"/><path d="m202.56 363.8 6.03-1.01v16.16l-4.78.78z" style="fill:#407bff"/><path d="m202.56 363.8 6.03-1.01v16.16l-4.78.78z" style="fill:#fff;isolation:isolate;opacity:.6000000000000001"/><path d="M190.37 378.79a19.4 19.4 0 0 1 .13-2.65l.18-1.33-1.29.76-.77.46a6 6 0 0 1-.78.29 2.3 2.3 0 0 1-1.4 0 2.57 2.57 0 0 1-1.12-.81 4.7 4.7 0 0 1-.79-1.36L183.4 371l-.8 3.34c-.08.33-.13.67-.19 1s-.2.62-.29.93a3 3 0 0 1-.93 1.27 2 2 0 0 1-1.51.13 6.2 6.2 0 0 1-1.78-.78l-1.74-1.09.7 1.77a15 15 0 0 1 .72 2.32 7 7 0 0 1 .16 1.2 1.9 1.9 0 0 1-.26 1.18 1.92 1.92 0 0 0 .68-1.12 5.4 5.4 0 0 0 .18-1.32 9 9 0 0 0 0-1.05 8 8 0 0 0 .9.44 3.55 3.55 0 0 0 2.85-.07 4.28 4.28 0 0 0 1.87-2.12v-.13a3.81 3.81 0 0 0 4.45.95 7 7 0 0 0 .85-.46s0 .07 0 .11a13 13 0 0 0 .29 1.4 7.3 7.3 0 0 0 .5 1.35 3.1 3.1 0 0 0 .87 1.12 3.5 3.5 0 0 1-.43-1.27 10 10 0 0 1-.12-1.31M226.14 356.23a5.7 5.7 0 0 1-2.31-.25 8.4 8.4 0 0 1-2.17-1 6.5 6.5 0 0 1-1.61-1.73 9 9 0 0 1-1.07-2.15l-.66-2-1.12 1.77a9.6 9.6 0 0 1-1.72 2 3.22 3.22 0 0 1-2 .92h-.24l-.3-.06c-.21 0-.41-.1-.62-.15a7.5 7.5 0 0 1-1.21-.52 10.4 10.4 0 0 1-2.15-1.6l-1.74-1.67.36 2.29a18.4 18.4 0 0 1 .23 3.7 5.1 5.1 0 0 1-.35 1.7 1.13 1.13 0 0 1-1.22.7h-.45l.14.37q.44 1.13.9 2.25c-.09-.67-.2-1.34-.32-2h.19a3 3 0 0 0 .59-.1 5 5 0 0 0 .53-.32c.13-.14.27-.29.39-.44a5.3 5.3 0 0 0 .75-2 13 13 0 0 0 .22-2 11 11 0 0 0 1 .74 9 9 0 0 0 1.48.73 5.2 5.2 0 0 0 1.73.39 5.07 5.07 0 0 0 3.34-1.32 9 9 0 0 0 1.09-1.08 11 11 0 0 0 .64 1 8.3 8.3 0 0 0 2.2 2.09 8.6 8.6 0 0 0 2.77 1.08 8 8 0 0 0 1.91.14c-.08.2-.17.4-.24.61a14 14 0 0 0-.41 1.76 6.9 6.9 0 0 0-.08 1.81 3.6 3.6 0 0 0 .53 1.7 3.74 3.74 0 0 1-.13-1.69 8.6 8.6 0 0 1 .39-1.65 17 17 0 0 1 1.45-3l.63-1.07Z" style="fill:#407bff"/><path d="M75.5 400.08h350.7a4.44 4.44 0 0 1 4.44 4.44v10.8H71.06v-10.8a4.44 4.44 0 0 1 4.44-4.44" style="fill:#407bff" transform="rotate(180 250.85 407.705)"/><path d="M71.06 400.08h359.59v7.62H71.06z" style="isolation:isolate;opacity:.2" transform="rotate(180 250.85 403.89)"/><path d="M63.52 402.07h374.66a4.3 4.3 0 0 0 4.3-4.29 4.3 4.3 0 0 0-4.3-4.3H63.52a4.3 4.3 0 0 0-4.3 4.3 4.3 4.3 0 0 0 4.3 4.29" style="fill:#407bff"/><path d="m412.79 341-10.94 49.62a3.73 3.73 0 0 1-3.55 2.82h-59.76a2.41 2.41 0 0 1-2.24-3.12l10.92-49.24a3.42 3.42 0 0 1 3.55-2.43h59.76c1.6.04 2.61.77 2.26 2.35" style="fill:#263238"/><path d="m412.79 341-10.94 49.62a3.73 3.73 0 0 1-3.55 2.82h-57.73a2.41 2.41 0 0 1-2.25-3.12l10.94-49.24a3.39 3.39 0 0 1 3.55-2.43h57.72c1.6.04 2.61.77 2.26 2.35" style="fill:#fff;isolation:isolate;opacity:.4"/><path d="m403.26 391.91 10.88-49.36c.36-1.62-.65-2.35-2.26-2.35h-57.72a3.41 3.41 0 0 0-3.55 2.43l-11.05 49.93Z" style="fill:#407bff"/><path d="m414.14 342.54-5.74 26.08-5.15 23.29-34.1.35-29.58.29 11-49.92a3.39 3.39 0 0 1 3.54-2.43h57.79c1.6 0 2.6.74 2.24 2.34" style="fill:#fff;isolation:isolate;opacity:.4"/><path d="m408.4 368.62-5.15 23.29-34.1.35h-28.32l4.63-21.3a3 3 0 0 1 2.9-2.34Z" style="isolation:isolate;opacity:.2"/><path d="M409.38 371.86a3.39 3.39 0 0 0-3.55-2.42h-57.72c-1.6 0-2.61.72-2.26 2.34l4.38 19.86h-9.75a.92.92 0 1 0 0 1.84h71.1a2.09 2.09 0 0 0 2-2.55Z" style="fill:#407bff"/><path d="M409.38 371.86a3.39 3.39 0 0 0-3.55-2.42h-57.72c-1.6 0-2.61.72-2.26 2.34l4.38 19.86h-9.75a.92.92 0 1 0 0 1.84h71.1a2.09 2.09 0 0 0 2-2.55Z" style="fill:#fff;isolation:isolate;opacity:.4"/><path d="M338.75 383.91h-3.35l-.42 1.81h3.26z"/><path d="M317.58 393.71h-9.65a.56.56 0 0 1-.57-.57.57.57 0 0 1 .57-.57h9.65a10.55 10.55 0 0 0 8.25-3.95 11.68 11.68 0 0 1 9.15-4.38h1.7a.58.58 0 0 1 .57.57.57.57 0 0 1-.57.57H335a10.55 10.55 0 0 0-8.25 3.95 11.69 11.69 0 0 1-9.17 4.38"/><path d="M156.78 386.65v4.17c0 1.88 2.27 2.66 4.15 2.66h146.58c1.86 0 4.07-.78 4.07-2.66v-4.17Z" style="fill:#263238"/><path d="M156.78 386.65v4.17c0 1.88 2.27 2.66 4.15 2.66h146.58c1.86 0 4.07-.78 4.07-2.66v-4.17Z" style="fill:#fff;isolation:isolate;opacity:.4"/><path d="M206.72 386.65v4.17c0 1.88 2.23 2.66 4.11 2.66h96.68c1.86 0 4.07-.78 4.07-2.66v-4.17Z" style="isolation:isolate;opacity:.2"/><path d="m336.11 307.33-17.45 79.15A5.94 5.94 0 0 1 313 391h-95.33c-2.53 0-4.17-2.37-3.58-5l17.43-78.55c.59-2.58 3.11-3.87 5.67-3.87h95.32c2.56.01 4.17 1.17 3.6 3.75" style="fill:#263238"/><path d="m336.11 307.33-17.45 79.15A5.94 5.94 0 0 1 313 391h-92.09c-2.56 0-4.17-2.37-3.6-5l17.45-78.55c.57-2.58 3.11-3.87 5.67-3.87h92.08c2.56.01 4.17 1.17 3.6 3.75" style="fill:#fff;isolation:isolate;opacity:.4"/><path d="M289.11 347.56c0 6.78-7.26 12.29-12.59 12.29s-8.48-5.51-7-12.29 6.81-12.05 12-12.26c-1.52 6.78 1.73 12.26 7 12.26a3 3 0 0 0 .59 0" style="isolation:isolate;opacity:.2"/></svg>